G04 #@! TF.FileFunction,Copper,L1,Top,Signal*
%FSLAX46Y46*%
G04 Gerber Fmt 4.6, Leading zero omitted, Abs format (unit mm)*
G04 Created by KiCad (PCBNEW 4.0.7) date 06/11/18 00:32:22*
%MOMM*%
%LPD*%
G01*
G04 APERTURE LIST*
%ADD10C,0.100000*%
%ADD11O,1.500000X4.000000*%
%ADD12O,1.600000X2.000000*%
%ADD13C,1.700000*%
%ADD14O,1.700000X1.700000*%
%ADD15C,1.524000*%
%ADD16C,2.250000*%
%ADD17C,2.250000*%
%ADD18C,0.381000*%
%ADD19C,0.254000*%
G04 APERTURE END LIST*
D10*
D11*
X77320000Y-40460000D03*
X84620000Y-40460000D03*
D12*
X121350000Y-49550000D03*
X116750000Y-48450000D03*
X116750000Y-41450000D03*
X116750000Y-44450000D03*
D13*
X63240000Y-68880000D03*
D14*
X60700000Y-68880000D03*
X63240000Y-71420000D03*
X60700000Y-71420000D03*
X63240000Y-73960000D03*
X60700000Y-73960000D03*
X63240000Y-76500000D03*
X60700000Y-76500000D03*
D13*
X83540000Y-86900000D03*
D14*
X81000000Y-86900000D03*
X78460000Y-86900000D03*
D13*
X59360000Y-57150000D03*
D14*
X61900000Y-57150000D03*
X64440000Y-57150000D03*
D13*
X91400000Y-70300000D03*
D14*
X93940000Y-70300000D03*
D15*
X102552500Y-67786250D03*
X97472500Y-67786250D03*
X102552500Y-70326250D03*
X97472500Y-70326250D03*
D16*
X49887500Y-49743750D02*
X49847500Y-50323750D01*
D17*
X49847500Y-50323750D03*
D16*
X56197500Y-47783750D02*
X54887498Y-49243750D01*
D17*
X54887500Y-49243750D03*
D16*
X68937500Y-49743750D02*
X68897500Y-50323750D01*
D17*
X68897500Y-50323750D03*
D16*
X75247500Y-47783750D02*
X73937498Y-49243750D01*
D17*
X73937500Y-49243750D03*
D16*
X87987500Y-49743750D02*
X87947500Y-50323750D01*
D17*
X87947500Y-50323750D03*
D16*
X94297500Y-47783750D02*
X92987498Y-49243750D01*
D17*
X92987500Y-49243750D03*
D16*
X107037500Y-49743750D02*
X106997500Y-50323750D01*
D17*
X106997500Y-50323750D03*
D16*
X113347500Y-47783750D02*
X112037498Y-49243750D01*
D17*
X112037500Y-49243750D03*
D16*
X126087500Y-49743750D02*
X126047500Y-50323750D01*
D17*
X126047500Y-50323750D03*
D16*
X132397500Y-47783750D02*
X131087498Y-49243750D01*
D17*
X131087500Y-49243750D03*
D16*
X54887500Y-59793750D02*
X54927500Y-59213750D01*
D17*
X54927500Y-59213750D03*
D16*
X48577500Y-61753750D02*
X49887502Y-60293750D01*
D17*
X49887500Y-60293750D03*
D16*
X73937500Y-59793750D02*
X73977500Y-59213750D01*
D17*
X73977500Y-59213750D03*
D16*
X67627500Y-61753750D02*
X68937502Y-60293750D01*
D17*
X68937500Y-60293750D03*
D16*
X92987500Y-59793750D02*
X93027500Y-59213750D01*
D17*
X93027500Y-59213750D03*
D16*
X86677500Y-61753750D02*
X87987502Y-60293750D01*
D17*
X87987500Y-60293750D03*
D16*
X112037500Y-59793750D02*
X112077500Y-59213750D01*
D17*
X112077500Y-59213750D03*
D16*
X105727500Y-61753750D02*
X107037502Y-60293750D01*
D17*
X107037500Y-60293750D03*
D16*
X131087500Y-59793750D02*
X131127500Y-59213750D01*
D17*
X131127500Y-59213750D03*
D16*
X124777500Y-61753750D02*
X126087502Y-60293750D01*
D17*
X126087500Y-60293750D03*
D16*
X49887500Y-87843750D02*
X49847500Y-88423750D01*
D17*
X49847500Y-88423750D03*
D16*
X56197500Y-85883750D02*
X54887498Y-87343750D01*
D17*
X54887500Y-87343750D03*
D16*
X68937500Y-87843750D02*
X68897500Y-88423750D01*
D17*
X68897500Y-88423750D03*
D16*
X75247500Y-85883750D02*
X73937498Y-87343750D01*
D17*
X73937500Y-87343750D03*
D16*
X87987500Y-87843750D02*
X87947500Y-88423750D01*
D17*
X87947500Y-88423750D03*
D16*
X94297500Y-85883750D02*
X92987498Y-87343750D01*
D17*
X92987500Y-87343750D03*
D16*
X107037500Y-87843750D02*
X106997500Y-88423750D01*
D17*
X106997500Y-88423750D03*
D16*
X113347500Y-85883750D02*
X112037498Y-87343750D01*
D17*
X112037500Y-87343750D03*
D16*
X126087500Y-87843750D02*
X126047500Y-88423750D01*
D17*
X126047500Y-88423750D03*
D16*
X132397500Y-85883750D02*
X131087498Y-87343750D01*
D17*
X131087500Y-87343750D03*
D16*
X97512500Y-106893750D02*
X97472500Y-107473750D01*
D17*
X97472500Y-107473750D03*
D16*
X103822500Y-104933750D02*
X102512498Y-106393750D01*
D17*
X102512500Y-106393750D03*
D16*
X116562500Y-106893750D02*
X116522500Y-107473750D01*
D17*
X116522500Y-107473750D03*
D16*
X122872500Y-104933750D02*
X121562498Y-106393750D01*
D17*
X121562500Y-106393750D03*
D16*
X135612500Y-106893750D02*
X135572500Y-107473750D01*
D17*
X135572500Y-107473750D03*
D16*
X141922500Y-104933750D02*
X140612498Y-106393750D01*
D17*
X140612500Y-106393750D03*
D16*
X107037500Y-106893750D02*
X106997500Y-107473750D01*
D17*
X106997500Y-107473750D03*
D16*
X113347500Y-104933750D02*
X112037498Y-106393750D01*
D17*
X112037500Y-106393750D03*
D16*
X126087500Y-106893750D02*
X126047500Y-107473750D01*
D17*
X126047500Y-107473750D03*
D16*
X132397500Y-104933750D02*
X131087498Y-106393750D01*
D17*
X131087500Y-106393750D03*
D18*
X140433750Y-104933750D02*
X140000000Y-104500000D01*
X141922500Y-104933750D02*
X140433750Y-104933750D01*
X141922500Y-106122500D02*
X142700000Y-106900000D01*
X141922500Y-104933750D02*
X141922500Y-106122500D01*
D19*
G36*
X86327954Y-38752046D02*
X86558295Y-38905954D01*
X86830000Y-38960000D01*
X114250000Y-38960000D01*
X114521705Y-38905954D01*
X114752046Y-38752046D01*
X116544092Y-36960000D01*
X121555908Y-36960000D01*
X123347954Y-38752046D01*
X123578295Y-38905954D01*
X123850000Y-38960000D01*
X133516502Y-38960000D01*
X134074003Y-39076672D01*
X134488478Y-39359621D01*
X134763124Y-39779646D01*
X134870000Y-40346363D01*
X134870000Y-44311022D01*
X134523963Y-43964380D01*
X133969175Y-43734012D01*
X133368460Y-43733488D01*
X132813271Y-43962888D01*
X132388130Y-44387287D01*
X132157762Y-44942075D01*
X132157238Y-45542790D01*
X132359391Y-46032037D01*
X131751573Y-46141645D01*
X131172335Y-46513829D01*
X130517334Y-47243829D01*
X130794075Y-47492138D01*
X130682049Y-47495675D01*
X130501181Y-47570593D01*
X130347703Y-47432883D01*
X129692703Y-48162882D01*
X129642985Y-48262499D01*
X129564727Y-48294371D01*
X129317330Y-48949379D01*
X129339425Y-49649201D01*
X129564727Y-50193129D01*
X129620591Y-50215880D01*
X129645115Y-50252278D01*
X129926965Y-50347002D01*
X131082505Y-49059150D01*
X131087500Y-49064145D01*
X131791462Y-48360183D01*
X131935198Y-48489152D01*
X131921841Y-48504038D01*
X131966630Y-48544225D01*
X131786762Y-48724093D01*
X131752211Y-48693092D01*
X131092494Y-49428349D01*
X131087500Y-49423355D01*
X130024158Y-50486697D01*
X130138121Y-50766523D01*
X130365751Y-50852499D01*
X130383094Y-50861632D01*
X130399227Y-50865143D01*
X130793129Y-51013920D01*
X131046152Y-51005931D01*
X131055850Y-51008042D01*
X131072096Y-51005112D01*
X131492951Y-50991825D01*
X132036879Y-50766523D01*
X132078608Y-50664061D01*
X132312663Y-50513671D01*
X132594515Y-50199547D01*
X132610273Y-50193129D01*
X132617543Y-50173882D01*
X132967664Y-49783671D01*
X132816242Y-49647806D01*
X132857670Y-49538121D01*
X132851353Y-49338053D01*
X133137295Y-49594617D01*
X133792295Y-48864618D01*
X134099753Y-48248576D01*
X134148058Y-47561769D01*
X133929856Y-46908757D01*
X133839883Y-46775222D01*
X133776279Y-46753846D01*
X133966540Y-46754012D01*
X134521729Y-46524612D01*
X134870000Y-46176949D01*
X134870000Y-63361022D01*
X134523963Y-63014380D01*
X133969175Y-62784012D01*
X133368460Y-62783488D01*
X132813271Y-63012888D01*
X132388130Y-63437287D01*
X132157762Y-63992075D01*
X132157238Y-64592790D01*
X132386638Y-65147979D01*
X132811037Y-65573120D01*
X133365825Y-65803488D01*
X133966540Y-65804012D01*
X134521729Y-65574612D01*
X134870000Y-65226949D01*
X134870000Y-82411022D01*
X134523963Y-82064380D01*
X133969175Y-81834012D01*
X133368460Y-81833488D01*
X132813271Y-82062888D01*
X132388130Y-82487287D01*
X132157762Y-83042075D01*
X132157238Y-83642790D01*
X132340664Y-84086714D01*
X132338193Y-84086360D01*
X131672899Y-84256554D01*
X131123379Y-84668391D01*
X129809804Y-86132372D01*
X129596315Y-86345489D01*
X129446330Y-86706692D01*
X129391571Y-86799100D01*
X129382942Y-86859348D01*
X129327807Y-86992129D01*
X129327586Y-87245869D01*
X129294214Y-87478881D01*
X129327269Y-87608096D01*
X129327196Y-87692300D01*
X129383945Y-87829644D01*
X129464408Y-88144175D01*
X129574731Y-88291381D01*
X129594575Y-88339407D01*
X129659367Y-88404312D01*
X129876244Y-88693695D01*
X130052524Y-88798156D01*
X130089239Y-88834935D01*
X130173942Y-88870107D01*
X130467024Y-89043783D01*
X130658108Y-89071150D01*
X130735879Y-89103443D01*
X130884497Y-89103573D01*
X131146805Y-89141140D01*
X131292266Y-89103929D01*
X131436050Y-89104054D01*
X131670575Y-89007150D01*
X131812099Y-88970946D01*
X131878335Y-88921306D01*
X132083157Y-88836675D01*
X132359965Y-88560349D01*
X132361619Y-88559110D01*
X132365159Y-88555165D01*
X132578685Y-88342011D01*
X132597870Y-88295807D01*
X133743339Y-87019180D01*
X134093427Y-86428401D01*
X134190784Y-85748619D01*
X134020590Y-85083326D01*
X133848654Y-84853909D01*
X133966540Y-84854012D01*
X134521729Y-84624612D01*
X134870000Y-84276949D01*
X134870000Y-88300000D01*
X134883055Y-88365631D01*
X134882299Y-88441578D01*
X135027647Y-89212295D01*
X135131109Y-89469278D01*
X135560334Y-90125704D01*
X135680136Y-90247913D01*
X135754264Y-90323531D01*
X136402020Y-90765734D01*
X136580763Y-90841864D01*
X136656893Y-90874289D01*
X137424564Y-91034945D01*
X137497986Y-91035675D01*
X137570000Y-91050000D01*
X143046502Y-91050000D01*
X143604003Y-91166672D01*
X144018478Y-91449621D01*
X144293124Y-91869646D01*
X144400000Y-92436363D01*
X144400000Y-101466031D01*
X144048963Y-101114380D01*
X143494175Y-100884012D01*
X142893460Y-100883488D01*
X142338271Y-101112888D01*
X141913130Y-101537287D01*
X141682762Y-102092075D01*
X141682238Y-102692790D01*
X141884391Y-103182037D01*
X141276573Y-103291645D01*
X140697335Y-103663829D01*
X140042334Y-104393829D01*
X140319075Y-104642138D01*
X140207049Y-104645675D01*
X140026181Y-104720593D01*
X139872703Y-104582883D01*
X139217703Y-105312882D01*
X139167985Y-105412499D01*
X139089727Y-105444371D01*
X138842330Y-106099379D01*
X138864425Y-106799201D01*
X139089727Y-107343129D01*
X139145591Y-107365880D01*
X139170115Y-107402278D01*
X139360410Y-107466232D01*
X139255566Y-107571076D01*
X139267961Y-107583471D01*
X138696256Y-108154178D01*
X138366876Y-108947414D01*
X138366175Y-109750000D01*
X123634176Y-109750000D01*
X123634874Y-108951183D01*
X123306878Y-108157373D01*
X122972390Y-107822300D01*
X124287196Y-107822300D01*
X124369508Y-108021511D01*
X124376222Y-108073884D01*
X124429785Y-108167392D01*
X124554575Y-108469407D01*
X124667694Y-108582724D01*
X124717553Y-108669765D01*
X124879545Y-108794944D01*
X125049239Y-108964935D01*
X125157931Y-109010068D01*
X125260936Y-109089665D01*
X125517326Y-109159301D01*
X125695879Y-109233443D01*
X125790608Y-109233526D01*
X125923645Y-109269659D01*
X126202716Y-109233885D01*
X126396050Y-109234054D01*
X126483600Y-109197879D01*
X126604790Y-109182344D01*
X126821168Y-109058399D01*
X127043157Y-108966675D01*
X127126448Y-108883529D01*
X127200671Y-108841013D01*
X127307416Y-108702877D01*
X127538685Y-108472011D01*
X127600087Y-108324137D01*
X127620571Y-108297630D01*
X127638491Y-108231651D01*
X127807193Y-107825371D01*
X127807446Y-107535142D01*
X127846093Y-106974761D01*
X127758778Y-106293617D01*
X127647516Y-106099379D01*
X129317330Y-106099379D01*
X129339425Y-106799201D01*
X129564727Y-107343129D01*
X129620591Y-107365880D01*
X129645115Y-107402278D01*
X129926965Y-107497002D01*
X131082505Y-106209150D01*
X131087500Y-106214145D01*
X131791462Y-105510183D01*
X131935198Y-105639152D01*
X131921841Y-105654038D01*
X131966630Y-105694225D01*
X131786762Y-105874093D01*
X131752211Y-105843092D01*
X131092494Y-106578349D01*
X131087500Y-106573355D01*
X130024158Y-107636697D01*
X130138121Y-107916523D01*
X130365751Y-108002499D01*
X130383094Y-108011632D01*
X130399227Y-108015143D01*
X130793129Y-108163920D01*
X131046152Y-108155931D01*
X131055850Y-108158042D01*
X131072096Y-108155112D01*
X131492951Y-108141825D01*
X132036879Y-107916523D01*
X132075252Y-107822300D01*
X133812196Y-107822300D01*
X133894508Y-108021511D01*
X133901222Y-108073884D01*
X133954785Y-108167392D01*
X134079575Y-108469407D01*
X134192694Y-108582724D01*
X134242553Y-108669765D01*
X134404545Y-108794944D01*
X134574239Y-108964935D01*
X134682931Y-109010068D01*
X134785936Y-109089665D01*
X135042326Y-109159301D01*
X135220879Y-109233443D01*
X135315608Y-109233526D01*
X135448645Y-109269659D01*
X135727716Y-109233885D01*
X135921050Y-109234054D01*
X136008600Y-109197879D01*
X136129790Y-109182344D01*
X136346168Y-109058399D01*
X136568157Y-108966675D01*
X136651448Y-108883529D01*
X136725671Y-108841013D01*
X136832416Y-108702877D01*
X137063685Y-108472011D01*
X137125087Y-108324137D01*
X137145571Y-108297630D01*
X137163491Y-108231651D01*
X137332193Y-107825371D01*
X137332446Y-107535142D01*
X137371093Y-106974761D01*
X137283778Y-106293617D01*
X136942447Y-105697735D01*
X136399064Y-105277835D01*
X135736355Y-105097841D01*
X135055210Y-105185156D01*
X134459329Y-105526487D01*
X134039429Y-106069870D01*
X133859435Y-106732579D01*
X133836506Y-107065056D01*
X133812807Y-107122129D01*
X133812196Y-107822300D01*
X132075252Y-107822300D01*
X132078608Y-107814061D01*
X132312663Y-107663671D01*
X132594515Y-107349547D01*
X132610273Y-107343129D01*
X132617543Y-107323882D01*
X132967664Y-106933671D01*
X132816242Y-106797806D01*
X132857670Y-106688121D01*
X132851353Y-106488053D01*
X133137295Y-106744617D01*
X133792295Y-106014618D01*
X134099753Y-105398576D01*
X134148058Y-104711769D01*
X133929856Y-104058757D01*
X133839883Y-103925222D01*
X133776279Y-103903846D01*
X133966540Y-103904012D01*
X134521729Y-103674612D01*
X134946870Y-103250213D01*
X135086321Y-102914376D01*
X135483145Y-102914376D01*
X135882528Y-103880957D01*
X136621404Y-104621123D01*
X137587285Y-105022192D01*
X138633126Y-105023105D01*
X139599707Y-104623722D01*
X140339873Y-103884846D01*
X140740942Y-102918965D01*
X140741855Y-101873124D01*
X140342472Y-100906543D01*
X139603596Y-100166377D01*
X138637715Y-99765308D01*
X137591874Y-99764395D01*
X136625293Y-100163778D01*
X135885127Y-100902654D01*
X135484058Y-101868535D01*
X135483145Y-102914376D01*
X135086321Y-102914376D01*
X135177238Y-102695425D01*
X135177762Y-102094710D01*
X134948362Y-101539521D01*
X134523963Y-101114380D01*
X133969175Y-100884012D01*
X133368460Y-100883488D01*
X133350643Y-100890850D01*
X133334175Y-100884012D01*
X132733460Y-100883488D01*
X132178271Y-101112888D01*
X131753130Y-101537287D01*
X131522762Y-102092075D01*
X131522238Y-102692790D01*
X131751638Y-103247979D01*
X131788568Y-103284974D01*
X131751573Y-103291645D01*
X131172335Y-103663829D01*
X130517334Y-104393829D01*
X130794075Y-104642138D01*
X130682049Y-104645675D01*
X130501181Y-104720593D01*
X130347703Y-104582883D01*
X129692703Y-105312882D01*
X129642985Y-105412499D01*
X129564727Y-105444371D01*
X129317330Y-106099379D01*
X127647516Y-106099379D01*
X127417447Y-105697735D01*
X126874064Y-105277835D01*
X126211355Y-105097841D01*
X125530210Y-105185156D01*
X124934329Y-105526487D01*
X124514429Y-106069870D01*
X124334435Y-106732579D01*
X124311506Y-107065056D01*
X124287807Y-107122129D01*
X124287196Y-107822300D01*
X122972390Y-107822300D01*
X122797822Y-107647427D01*
X122834965Y-107610349D01*
X122836619Y-107609110D01*
X122840159Y-107605165D01*
X123053685Y-107392011D01*
X123072870Y-107345807D01*
X124218339Y-106069180D01*
X124568427Y-105478401D01*
X124665784Y-104798619D01*
X124495590Y-104133326D01*
X124323654Y-103903909D01*
X124441540Y-103904012D01*
X124996729Y-103674612D01*
X125421870Y-103250213D01*
X125561321Y-102914376D01*
X125958145Y-102914376D01*
X126357528Y-103880957D01*
X127096404Y-104621123D01*
X128062285Y-105022192D01*
X129108126Y-105023105D01*
X130074707Y-104623722D01*
X130814873Y-103884846D01*
X131215942Y-102918965D01*
X131216855Y-101873124D01*
X130817472Y-100906543D01*
X130078596Y-100166377D01*
X129112715Y-99765308D01*
X128066874Y-99764395D01*
X127100293Y-100163778D01*
X126360127Y-100902654D01*
X125959058Y-101868535D01*
X125958145Y-102914376D01*
X125561321Y-102914376D01*
X125652238Y-102695425D01*
X125652762Y-102094710D01*
X125423362Y-101539521D01*
X124998963Y-101114380D01*
X124444175Y-100884012D01*
X123843460Y-100883488D01*
X123825643Y-100890850D01*
X123809175Y-100884012D01*
X123208460Y-100883488D01*
X122653271Y-101112888D01*
X122228130Y-101537287D01*
X121997762Y-102092075D01*
X121997238Y-102692790D01*
X122226638Y-103247979D01*
X122257199Y-103278593D01*
X122147899Y-103306554D01*
X121598379Y-103718391D01*
X120284804Y-105182372D01*
X120071315Y-105395489D01*
X119921330Y-105756692D01*
X119866571Y-105849100D01*
X119857942Y-105909348D01*
X119802807Y-106042129D01*
X119802586Y-106295869D01*
X119769214Y-106528881D01*
X119802269Y-106658096D01*
X119802196Y-106742300D01*
X119858945Y-106879644D01*
X119939408Y-107194175D01*
X120049731Y-107341381D01*
X120069575Y-107389407D01*
X120134367Y-107454312D01*
X120225514Y-107575931D01*
X119646256Y-108154178D01*
X119316876Y-108947414D01*
X119316175Y-109750000D01*
X118808176Y-109750000D01*
X118808874Y-108951183D01*
X118480878Y-108157373D01*
X118237670Y-107913740D01*
X118292670Y-107768121D01*
X118284414Y-107506613D01*
X118289591Y-107431541D01*
X118282027Y-107431019D01*
X118273971Y-107175861D01*
X118307067Y-107178143D01*
X118327067Y-106888143D01*
X118190602Y-106213299D01*
X117806272Y-105642047D01*
X117232590Y-105261356D01*
X117079518Y-105211402D01*
X116799022Y-105310064D01*
X116771785Y-105705003D01*
X116516626Y-105713059D01*
X116545624Y-105292588D01*
X116281328Y-105156354D01*
X116122846Y-105184822D01*
X115502335Y-105483154D01*
X115043224Y-105996237D01*
X114815409Y-106645959D01*
X114795409Y-106935959D01*
X114843029Y-106939243D01*
X114752330Y-107179379D01*
X114760586Y-107440884D01*
X114757933Y-107479357D01*
X114762517Y-107502024D01*
X114774425Y-107879201D01*
X114868412Y-108106106D01*
X114820256Y-108154178D01*
X114490876Y-108947414D01*
X114490175Y-109750000D01*
X99758176Y-109750000D01*
X99758874Y-108951183D01*
X99430878Y-108157373D01*
X99187670Y-107913740D01*
X99242670Y-107768121D01*
X99234414Y-107506613D01*
X99239591Y-107431541D01*
X99232027Y-107431019D01*
X99223971Y-107175861D01*
X99257067Y-107178143D01*
X99277067Y-106888143D01*
X99204419Y-106528881D01*
X100719214Y-106528881D01*
X100752269Y-106658096D01*
X100752196Y-106742300D01*
X100808945Y-106879644D01*
X100889408Y-107194175D01*
X100999731Y-107341381D01*
X101019575Y-107389407D01*
X101084367Y-107454312D01*
X101301244Y-107743695D01*
X101477524Y-107848156D01*
X101514239Y-107884935D01*
X101598942Y-107920107D01*
X101892024Y-108093783D01*
X102083108Y-108121150D01*
X102160879Y-108153443D01*
X102309497Y-108153573D01*
X102571805Y-108191140D01*
X102717266Y-108153929D01*
X102861050Y-108154054D01*
X103095575Y-108057150D01*
X103237099Y-108020946D01*
X103303335Y-107971306D01*
X103508157Y-107886675D01*
X103572644Y-107822300D01*
X105237196Y-107822300D01*
X105319508Y-108021511D01*
X105326222Y-108073884D01*
X105379785Y-108167392D01*
X105504575Y-108469407D01*
X105617694Y-108582724D01*
X105667553Y-108669765D01*
X105829545Y-108794944D01*
X105999239Y-108964935D01*
X106107931Y-109010068D01*
X106210936Y-109089665D01*
X106467326Y-109159301D01*
X106645879Y-109233443D01*
X106740608Y-109233526D01*
X106873645Y-109269659D01*
X107152716Y-109233885D01*
X107346050Y-109234054D01*
X107433600Y-109197879D01*
X107554790Y-109182344D01*
X107771168Y-109058399D01*
X107993157Y-108966675D01*
X108076448Y-108883529D01*
X108150671Y-108841013D01*
X108257416Y-108702877D01*
X108488685Y-108472011D01*
X108550087Y-108324137D01*
X108570571Y-108297630D01*
X108588491Y-108231651D01*
X108757193Y-107825371D01*
X108757446Y-107535142D01*
X108796093Y-106974761D01*
X108708778Y-106293617D01*
X108597516Y-106099379D01*
X110267330Y-106099379D01*
X110289425Y-106799201D01*
X110514727Y-107343129D01*
X110570591Y-107365880D01*
X110595115Y-107402278D01*
X110876965Y-107497002D01*
X112032505Y-106209150D01*
X112037500Y-106214145D01*
X112741462Y-105510183D01*
X112885198Y-105639152D01*
X112871841Y-105654038D01*
X112916630Y-105694225D01*
X112736762Y-105874093D01*
X112702211Y-105843092D01*
X112042494Y-106578349D01*
X112037500Y-106573355D01*
X110974158Y-107636697D01*
X111088121Y-107916523D01*
X111315751Y-108002499D01*
X111333094Y-108011632D01*
X111349227Y-108015143D01*
X111743129Y-108163920D01*
X111996152Y-108155931D01*
X112005850Y-108158042D01*
X112022096Y-108155112D01*
X112442951Y-108141825D01*
X112986879Y-107916523D01*
X113028608Y-107814061D01*
X113262663Y-107663671D01*
X113544515Y-107349547D01*
X113560273Y-107343129D01*
X113567543Y-107323882D01*
X113917664Y-106933671D01*
X113766242Y-106797806D01*
X113807670Y-106688121D01*
X113801353Y-106488053D01*
X114087295Y-106744617D01*
X114742295Y-106014618D01*
X115049753Y-105398576D01*
X115098058Y-104711769D01*
X114879856Y-104058757D01*
X114789883Y-103925222D01*
X114726279Y-103903846D01*
X114916540Y-103904012D01*
X115471729Y-103674612D01*
X115896870Y-103250213D01*
X116036321Y-102914376D01*
X116433145Y-102914376D01*
X116832528Y-103880957D01*
X117571404Y-104621123D01*
X118537285Y-105022192D01*
X119583126Y-105023105D01*
X120549707Y-104623722D01*
X121289873Y-103884846D01*
X121690942Y-102918965D01*
X121691855Y-101873124D01*
X121292472Y-100906543D01*
X120553596Y-100166377D01*
X119587715Y-99765308D01*
X118541874Y-99764395D01*
X117575293Y-100163778D01*
X116835127Y-100902654D01*
X116434058Y-101868535D01*
X116433145Y-102914376D01*
X116036321Y-102914376D01*
X116127238Y-102695425D01*
X116127762Y-102094710D01*
X115898362Y-101539521D01*
X115473963Y-101114380D01*
X114919175Y-100884012D01*
X114318460Y-100883488D01*
X114300643Y-100890850D01*
X114284175Y-100884012D01*
X113683460Y-100883488D01*
X113128271Y-101112888D01*
X112703130Y-101537287D01*
X112472762Y-102092075D01*
X112472238Y-102692790D01*
X112701638Y-103247979D01*
X112738568Y-103284974D01*
X112701573Y-103291645D01*
X112122335Y-103663829D01*
X111467334Y-104393829D01*
X111744075Y-104642138D01*
X111632049Y-104645675D01*
X111451181Y-104720593D01*
X111297703Y-104582883D01*
X110642703Y-105312882D01*
X110592985Y-105412499D01*
X110514727Y-105444371D01*
X110267330Y-106099379D01*
X108597516Y-106099379D01*
X108367447Y-105697735D01*
X107824064Y-105277835D01*
X107161355Y-105097841D01*
X106480210Y-105185156D01*
X105884329Y-105526487D01*
X105464429Y-106069870D01*
X105284435Y-106732579D01*
X105261506Y-107065056D01*
X105237807Y-107122129D01*
X105237196Y-107822300D01*
X103572644Y-107822300D01*
X103784965Y-107610349D01*
X103786619Y-107609110D01*
X103790159Y-107605165D01*
X104003685Y-107392011D01*
X104022870Y-107345807D01*
X105168339Y-106069180D01*
X105518427Y-105478401D01*
X105615784Y-104798619D01*
X105445590Y-104133326D01*
X105273654Y-103903909D01*
X105391540Y-103904012D01*
X105946729Y-103674612D01*
X106371870Y-103250213D01*
X106511321Y-102914376D01*
X106908145Y-102914376D01*
X107307528Y-103880957D01*
X108046404Y-104621123D01*
X109012285Y-105022192D01*
X110058126Y-105023105D01*
X111024707Y-104623722D01*
X111764873Y-103884846D01*
X112165942Y-102918965D01*
X112166855Y-101873124D01*
X111767472Y-100906543D01*
X111028596Y-100166377D01*
X110062715Y-99765308D01*
X109016874Y-99764395D01*
X108050293Y-100163778D01*
X107310127Y-100902654D01*
X106909058Y-101868535D01*
X106908145Y-102914376D01*
X106511321Y-102914376D01*
X106602238Y-102695425D01*
X106602762Y-102094710D01*
X106373362Y-101539521D01*
X105948963Y-101114380D01*
X105394175Y-100884012D01*
X104793460Y-100883488D01*
X104775643Y-100890850D01*
X104759175Y-100884012D01*
X104158460Y-100883488D01*
X103603271Y-101112888D01*
X103178130Y-101537287D01*
X102947762Y-102092075D01*
X102947238Y-102692790D01*
X103176638Y-103247979D01*
X103207199Y-103278593D01*
X103097899Y-103306554D01*
X102548379Y-103718391D01*
X101234804Y-105182372D01*
X101021315Y-105395489D01*
X100871330Y-105756692D01*
X100816571Y-105849100D01*
X100807942Y-105909348D01*
X100752807Y-106042129D01*
X100752586Y-106295869D01*
X100719214Y-106528881D01*
X99204419Y-106528881D01*
X99140602Y-106213299D01*
X98756272Y-105642047D01*
X98182590Y-105261356D01*
X98029518Y-105211402D01*
X97749022Y-105310064D01*
X97721785Y-105705003D01*
X97466626Y-105713059D01*
X97495624Y-105292588D01*
X97231328Y-105156354D01*
X97072846Y-105184822D01*
X96452335Y-105483154D01*
X95993224Y-105996237D01*
X95765409Y-106645959D01*
X95745409Y-106935959D01*
X95793029Y-106939243D01*
X95702330Y-107179379D01*
X95710586Y-107440884D01*
X95707933Y-107479357D01*
X95712517Y-107502024D01*
X95724425Y-107879201D01*
X95818412Y-108106106D01*
X95770256Y-108154178D01*
X95440876Y-108947414D01*
X95440175Y-109750000D01*
X95083498Y-109750000D01*
X94525997Y-109633328D01*
X94111523Y-109350380D01*
X93836876Y-108930354D01*
X93730000Y-108363638D01*
X93730000Y-103326478D01*
X94076037Y-103673120D01*
X94630825Y-103903488D01*
X95231540Y-103904012D01*
X95786729Y-103674612D01*
X96211870Y-103250213D01*
X96351321Y-102914376D01*
X97383145Y-102914376D01*
X97782528Y-103880957D01*
X98521404Y-104621123D01*
X99487285Y-105022192D01*
X100533126Y-105023105D01*
X101499707Y-104623722D01*
X102239873Y-103884846D01*
X102640942Y-102918965D01*
X102641855Y-101873124D01*
X102242472Y-100906543D01*
X101503596Y-100166377D01*
X100537715Y-99765308D01*
X99491874Y-99764395D01*
X98525293Y-100163778D01*
X97785127Y-100902654D01*
X97384058Y-101868535D01*
X97383145Y-102914376D01*
X96351321Y-102914376D01*
X96442238Y-102695425D01*
X96442762Y-102094710D01*
X96213362Y-101539521D01*
X95788963Y-101114380D01*
X95234175Y-100884012D01*
X94633460Y-100883488D01*
X94078271Y-101112888D01*
X93730000Y-101460551D01*
X93730000Y-94659376D01*
X94970145Y-94659376D01*
X95369528Y-95625957D01*
X96108404Y-96366123D01*
X97074285Y-96767192D01*
X98120126Y-96768105D01*
X99086707Y-96368722D01*
X99826873Y-95629846D01*
X100227942Y-94663965D01*
X100228178Y-94393599D01*
X107764699Y-94393599D01*
X108028281Y-95031515D01*
X108515918Y-95520004D01*
X109153373Y-95784699D01*
X109843599Y-95785301D01*
X110481515Y-95521719D01*
X110970004Y-95034082D01*
X111125595Y-94659376D01*
X114020145Y-94659376D01*
X114419528Y-95625957D01*
X115158404Y-96366123D01*
X116124285Y-96767192D01*
X117170126Y-96768105D01*
X118136707Y-96368722D01*
X118876873Y-95629846D01*
X119062461Y-95182901D01*
X119245528Y-95625957D01*
X119984404Y-96366123D01*
X120950285Y-96767192D01*
X121996126Y-96768105D01*
X122962707Y-96368722D01*
X123702873Y-95629846D01*
X124103942Y-94663965D01*
X124104134Y-94443599D01*
X126864699Y-94443599D01*
X127128281Y-95081515D01*
X127615918Y-95570004D01*
X128253373Y-95834699D01*
X128943599Y-95835301D01*
X129581515Y-95571719D01*
X130070004Y-95084082D01*
X130246357Y-94659376D01*
X137896145Y-94659376D01*
X138295528Y-95625957D01*
X139034404Y-96366123D01*
X140000285Y-96767192D01*
X141046126Y-96768105D01*
X142012707Y-96368722D01*
X142752873Y-95629846D01*
X143153942Y-94663965D01*
X143154855Y-93618124D01*
X142755472Y-92651543D01*
X142016596Y-91911377D01*
X141050715Y-91510308D01*
X140004874Y-91509395D01*
X139038293Y-91908778D01*
X138298127Y-92647654D01*
X137897058Y-93613535D01*
X137896145Y-94659376D01*
X130246357Y-94659376D01*
X130334699Y-94446627D01*
X130335301Y-93756401D01*
X130071719Y-93118485D01*
X129584082Y-92629996D01*
X128946627Y-92365301D01*
X128256401Y-92364699D01*
X127618485Y-92628281D01*
X127129996Y-93115918D01*
X126865301Y-93753373D01*
X126864699Y-94443599D01*
X124104134Y-94443599D01*
X124104855Y-93618124D01*
X123705472Y-92651543D01*
X122966596Y-91911377D01*
X122000715Y-91510308D01*
X120954874Y-91509395D01*
X119988293Y-91908778D01*
X119248127Y-92647654D01*
X119062539Y-93094599D01*
X118879472Y-92651543D01*
X118140596Y-91911377D01*
X117174715Y-91510308D01*
X116128874Y-91509395D01*
X115162293Y-91908778D01*
X114422127Y-92647654D01*
X114021058Y-93613535D01*
X114020145Y-94659376D01*
X111125595Y-94659376D01*
X111234699Y-94396627D01*
X111235301Y-93706401D01*
X110971719Y-93068485D01*
X110484082Y-92579996D01*
X109846627Y-92315301D01*
X109156401Y-92314699D01*
X108518485Y-92578281D01*
X108029996Y-93065918D01*
X107765301Y-93703373D01*
X107764699Y-94393599D01*
X100228178Y-94393599D01*
X100228855Y-93618124D01*
X99829472Y-92651543D01*
X99090596Y-91911377D01*
X98124715Y-91510308D01*
X97078874Y-91509395D01*
X96112293Y-91908778D01*
X95372127Y-92647654D01*
X94971058Y-93613535D01*
X94970145Y-94659376D01*
X93730000Y-94659376D01*
X93730000Y-92380000D01*
X93716945Y-92314369D01*
X93717701Y-92238422D01*
X93572353Y-91467706D01*
X93566774Y-91453848D01*
X93468891Y-91210722D01*
X93039666Y-90554296D01*
X92845736Y-90356469D01*
X92197980Y-89914267D01*
X92179552Y-89906418D01*
X91943107Y-89805711D01*
X91175436Y-89645055D01*
X91102014Y-89644325D01*
X91030000Y-89630000D01*
X89275510Y-89630000D01*
X89304434Y-89601076D01*
X89257972Y-89554614D01*
X89391750Y-89405108D01*
X89470273Y-89373129D01*
X89717670Y-88718121D01*
X89709414Y-88456613D01*
X89714591Y-88381541D01*
X89707027Y-88381019D01*
X89698971Y-88125861D01*
X89732067Y-88128143D01*
X89752067Y-87838143D01*
X89679419Y-87478881D01*
X91194214Y-87478881D01*
X91227269Y-87608096D01*
X91227196Y-87692300D01*
X91283945Y-87829644D01*
X91364408Y-88144175D01*
X91474731Y-88291381D01*
X91494575Y-88339407D01*
X91559367Y-88404312D01*
X91776244Y-88693695D01*
X91952524Y-88798156D01*
X91989239Y-88834935D01*
X92073942Y-88870107D01*
X92367024Y-89043783D01*
X92558108Y-89071150D01*
X92635879Y-89103443D01*
X92784497Y-89103573D01*
X93046805Y-89141140D01*
X93192266Y-89103929D01*
X93336050Y-89104054D01*
X93570575Y-89007150D01*
X93712099Y-88970946D01*
X93778335Y-88921306D01*
X93983157Y-88836675D01*
X94259965Y-88560349D01*
X94261619Y-88559110D01*
X94265159Y-88555165D01*
X94478685Y-88342011D01*
X94497870Y-88295807D01*
X94647199Y-88129379D01*
X105227330Y-88129379D01*
X105235586Y-88390884D01*
X105232933Y-88429357D01*
X105237517Y-88452024D01*
X105249425Y-88829201D01*
X105474727Y-89373129D01*
X105578862Y-89415539D01*
X105753728Y-89675453D01*
X106005866Y-89842770D01*
X106048121Y-89946523D01*
X106312952Y-90046550D01*
X106327410Y-90056144D01*
X106407892Y-90082409D01*
X106703129Y-90193920D01*
X106964627Y-90185664D01*
X107003109Y-90188318D01*
X107003376Y-90184440D01*
X107402951Y-90171825D01*
X107946879Y-89946523D01*
X107976714Y-89873266D01*
X108057665Y-89834346D01*
X108441750Y-89405108D01*
X108520273Y-89373129D01*
X108767670Y-88718121D01*
X108759414Y-88456613D01*
X108764591Y-88381541D01*
X108757027Y-88381019D01*
X108748971Y-88125861D01*
X108782067Y-88128143D01*
X108802067Y-87838143D01*
X108729419Y-87478881D01*
X110244214Y-87478881D01*
X110277269Y-87608096D01*
X110277196Y-87692300D01*
X110333945Y-87829644D01*
X110414408Y-88144175D01*
X110524731Y-88291381D01*
X110544575Y-88339407D01*
X110609367Y-88404312D01*
X110826244Y-88693695D01*
X111002524Y-88798156D01*
X111039239Y-88834935D01*
X111123942Y-88870107D01*
X111417024Y-89043783D01*
X111608108Y-89071150D01*
X111685879Y-89103443D01*
X111834497Y-89103573D01*
X112096805Y-89141140D01*
X112242266Y-89103929D01*
X112386050Y-89104054D01*
X112620575Y-89007150D01*
X112762099Y-88970946D01*
X112828335Y-88921306D01*
X113033157Y-88836675D01*
X113309965Y-88560349D01*
X113311619Y-88559110D01*
X113315159Y-88555165D01*
X113528685Y-88342011D01*
X113547870Y-88295807D01*
X113697199Y-88129379D01*
X124277330Y-88129379D01*
X124285586Y-88390884D01*
X124282933Y-88429357D01*
X124287517Y-88452024D01*
X124299425Y-88829201D01*
X124524727Y-89373129D01*
X124628862Y-89415539D01*
X124803728Y-89675453D01*
X125055866Y-89842770D01*
X125098121Y-89946523D01*
X125362952Y-90046550D01*
X125377410Y-90056144D01*
X125457892Y-90082409D01*
X125753129Y-90193920D01*
X126014627Y-90185664D01*
X126053109Y-90188318D01*
X126053376Y-90184440D01*
X126452951Y-90171825D01*
X126996879Y-89946523D01*
X127026714Y-89873266D01*
X127107665Y-89834346D01*
X127491750Y-89405108D01*
X127570273Y-89373129D01*
X127817670Y-88718121D01*
X127809414Y-88456613D01*
X127814591Y-88381541D01*
X127807027Y-88381019D01*
X127798971Y-88125861D01*
X127832067Y-88128143D01*
X127852067Y-87838143D01*
X127715602Y-87163299D01*
X127331272Y-86592047D01*
X126757590Y-86211356D01*
X126604518Y-86161402D01*
X126324022Y-86260064D01*
X126296785Y-86655003D01*
X126041626Y-86663059D01*
X126070624Y-86242588D01*
X125806328Y-86106354D01*
X125647846Y-86134822D01*
X125027335Y-86433154D01*
X124568224Y-86946237D01*
X124340409Y-87595959D01*
X124320409Y-87885959D01*
X124368029Y-87889243D01*
X124277330Y-88129379D01*
X113697199Y-88129379D01*
X114693339Y-87019180D01*
X115043427Y-86428401D01*
X115140784Y-85748619D01*
X114970590Y-85083326D01*
X114798654Y-84853909D01*
X114916540Y-84854012D01*
X115471729Y-84624612D01*
X115896870Y-84200213D01*
X116127238Y-83645425D01*
X116127240Y-83642790D01*
X121997238Y-83642790D01*
X122226638Y-84197979D01*
X122651037Y-84623120D01*
X123205825Y-84853488D01*
X123806540Y-84854012D01*
X124361729Y-84624612D01*
X124786870Y-84200213D01*
X124926321Y-83864376D01*
X125958145Y-83864376D01*
X126357528Y-84830957D01*
X127096404Y-85571123D01*
X128062285Y-85972192D01*
X129108126Y-85973105D01*
X130074707Y-85573722D01*
X130814873Y-84834846D01*
X131215942Y-83868965D01*
X131216855Y-82823124D01*
X130817472Y-81856543D01*
X130078596Y-81116377D01*
X129112715Y-80715308D01*
X128066874Y-80714395D01*
X127100293Y-81113778D01*
X126360127Y-81852654D01*
X125959058Y-82818535D01*
X125958145Y-83864376D01*
X124926321Y-83864376D01*
X125017238Y-83645425D01*
X125017762Y-83044710D01*
X124788362Y-82489521D01*
X124363963Y-82064380D01*
X123809175Y-81834012D01*
X123208460Y-81833488D01*
X122653271Y-82062888D01*
X122228130Y-82487287D01*
X121997762Y-83042075D01*
X121997238Y-83642790D01*
X116127240Y-83642790D01*
X116127762Y-83044710D01*
X115898362Y-82489521D01*
X115473963Y-82064380D01*
X114919175Y-81834012D01*
X114318460Y-81833488D01*
X113763271Y-82062888D01*
X113338130Y-82487287D01*
X113107762Y-83042075D01*
X113107238Y-83642790D01*
X113290664Y-84086714D01*
X113288193Y-84086360D01*
X112622899Y-84256554D01*
X112073379Y-84668391D01*
X110759804Y-86132372D01*
X110546315Y-86345489D01*
X110396330Y-86706692D01*
X110341571Y-86799100D01*
X110332942Y-86859348D01*
X110277807Y-86992129D01*
X110277586Y-87245869D01*
X110244214Y-87478881D01*
X108729419Y-87478881D01*
X108665602Y-87163299D01*
X108281272Y-86592047D01*
X107707590Y-86211356D01*
X107554518Y-86161402D01*
X107274022Y-86260064D01*
X107246785Y-86655003D01*
X106991626Y-86663059D01*
X107020624Y-86242588D01*
X106756328Y-86106354D01*
X106597846Y-86134822D01*
X105977335Y-86433154D01*
X105518224Y-86946237D01*
X105290409Y-87595959D01*
X105270409Y-87885959D01*
X105318029Y-87889243D01*
X105227330Y-88129379D01*
X94647199Y-88129379D01*
X95643339Y-87019180D01*
X95993427Y-86428401D01*
X96090784Y-85748619D01*
X95920590Y-85083326D01*
X95748654Y-84853909D01*
X95866540Y-84854012D01*
X96421729Y-84624612D01*
X96846870Y-84200213D01*
X97077238Y-83645425D01*
X97077240Y-83642790D01*
X102947238Y-83642790D01*
X103176638Y-84197979D01*
X103601037Y-84623120D01*
X104155825Y-84853488D01*
X104756540Y-84854012D01*
X105311729Y-84624612D01*
X105736870Y-84200213D01*
X105876321Y-83864376D01*
X106908145Y-83864376D01*
X107307528Y-84830957D01*
X108046404Y-85571123D01*
X109012285Y-85972192D01*
X110058126Y-85973105D01*
X111024707Y-85573722D01*
X111764873Y-84834846D01*
X112165942Y-83868965D01*
X112166855Y-82823124D01*
X111767472Y-81856543D01*
X111028596Y-81116377D01*
X110062715Y-80715308D01*
X109016874Y-80714395D01*
X108050293Y-81113778D01*
X107310127Y-81852654D01*
X106909058Y-82818535D01*
X106908145Y-83864376D01*
X105876321Y-83864376D01*
X105967238Y-83645425D01*
X105967762Y-83044710D01*
X105738362Y-82489521D01*
X105313963Y-82064380D01*
X104759175Y-81834012D01*
X104158460Y-81833488D01*
X103603271Y-82062888D01*
X103178130Y-82487287D01*
X102947762Y-83042075D01*
X102947238Y-83642790D01*
X97077240Y-83642790D01*
X97077762Y-83044710D01*
X96848362Y-82489521D01*
X96423963Y-82064380D01*
X95869175Y-81834012D01*
X95268460Y-81833488D01*
X94713271Y-82062888D01*
X94288130Y-82487287D01*
X94057762Y-83042075D01*
X94057238Y-83642790D01*
X94240664Y-84086714D01*
X94238193Y-84086360D01*
X93572899Y-84256554D01*
X93023379Y-84668391D01*
X91709804Y-86132372D01*
X91496315Y-86345489D01*
X91346330Y-86706692D01*
X91291571Y-86799100D01*
X91282942Y-86859348D01*
X91227807Y-86992129D01*
X91227586Y-87245869D01*
X91194214Y-87478881D01*
X89679419Y-87478881D01*
X89615602Y-87163299D01*
X89231272Y-86592047D01*
X88657590Y-86211356D01*
X88504518Y-86161402D01*
X88224022Y-86260064D01*
X88196785Y-86655003D01*
X87941626Y-86663059D01*
X87970624Y-86242588D01*
X87706328Y-86106354D01*
X87547846Y-86134822D01*
X86927335Y-86433154D01*
X86468224Y-86946237D01*
X86240409Y-87595959D01*
X86220409Y-87885959D01*
X86268029Y-87889243D01*
X86177330Y-88129379D01*
X86185586Y-88390884D01*
X86182933Y-88429357D01*
X86187517Y-88452024D01*
X86199425Y-88829201D01*
X86424727Y-89373129D01*
X86528862Y-89415539D01*
X86628301Y-89563341D01*
X86590566Y-89601076D01*
X86619490Y-89630000D01*
X70180333Y-89630000D01*
X70388685Y-89422011D01*
X70450087Y-89274137D01*
X70470571Y-89247630D01*
X70488491Y-89181651D01*
X70657193Y-88775371D01*
X70657446Y-88485142D01*
X70696093Y-87924761D01*
X70608778Y-87243617D01*
X70497516Y-87049379D01*
X72167330Y-87049379D01*
X72189425Y-87749201D01*
X72414727Y-88293129D01*
X72470591Y-88315880D01*
X72495115Y-88352278D01*
X72776965Y-88447002D01*
X73932505Y-87159150D01*
X73937500Y-87164145D01*
X74641462Y-86460183D01*
X74785198Y-86589152D01*
X74771841Y-86604038D01*
X74816630Y-86644225D01*
X74636762Y-86824093D01*
X74602211Y-86793092D01*
X73942494Y-87528349D01*
X73937500Y-87523355D01*
X72874158Y-88586697D01*
X72988121Y-88866523D01*
X73215751Y-88952499D01*
X73233094Y-88961632D01*
X73249227Y-88965143D01*
X73643129Y-89113920D01*
X73896152Y-89105931D01*
X73905850Y-89108042D01*
X73922096Y-89105112D01*
X74342951Y-89091825D01*
X74886879Y-88866523D01*
X74928608Y-88764061D01*
X75162663Y-88613671D01*
X75444515Y-88299547D01*
X75460273Y-88293129D01*
X75467543Y-88273882D01*
X75817664Y-87883671D01*
X75666242Y-87747806D01*
X75707670Y-87638121D01*
X75701353Y-87438053D01*
X75987295Y-87694617D01*
X76380048Y-87256892D01*
X77018514Y-87256892D01*
X77264817Y-87781358D01*
X77693076Y-88171645D01*
X78103110Y-88341476D01*
X78333000Y-88220155D01*
X78333000Y-87027000D01*
X77139181Y-87027000D01*
X77018514Y-87256892D01*
X76380048Y-87256892D01*
X76642295Y-86964618D01*
X76852664Y-86543108D01*
X77018514Y-86543108D01*
X77139181Y-86773000D01*
X78333000Y-86773000D01*
X78333000Y-85579845D01*
X78587000Y-85579845D01*
X78587000Y-86773000D01*
X78607000Y-86773000D01*
X78607000Y-87027000D01*
X78587000Y-87027000D01*
X78587000Y-88220155D01*
X78816890Y-88341476D01*
X79226924Y-88171645D01*
X79655183Y-87781358D01*
X79722298Y-87638447D01*
X79949946Y-87979147D01*
X80431715Y-88301054D01*
X81000000Y-88414093D01*
X81568285Y-88301054D01*
X82050054Y-87979147D01*
X82253385Y-87674840D01*
X82280344Y-87740086D01*
X82697717Y-88158188D01*
X83243319Y-88384742D01*
X83834089Y-88385257D01*
X84380086Y-88159656D01*
X84798188Y-87742283D01*
X85024742Y-87196681D01*
X85025257Y-86605911D01*
X84799656Y-86059914D01*
X84382283Y-85641812D01*
X83836681Y-85415258D01*
X83245911Y-85414743D01*
X82699914Y-85640344D01*
X82281812Y-86057717D01*
X82253645Y-86125550D01*
X82050054Y-85820853D01*
X81568285Y-85498946D01*
X81000000Y-85385907D01*
X80431715Y-85498946D01*
X79949946Y-85820853D01*
X79722298Y-86161553D01*
X79655183Y-86018642D01*
X79226924Y-85628355D01*
X78816890Y-85458524D01*
X78587000Y-85579845D01*
X78333000Y-85579845D01*
X78103110Y-85458524D01*
X77693076Y-85628355D01*
X77264817Y-86018642D01*
X77018514Y-86543108D01*
X76852664Y-86543108D01*
X76949753Y-86348576D01*
X76998058Y-85661769D01*
X76779856Y-85008757D01*
X76689883Y-84875222D01*
X76626279Y-84853846D01*
X76816540Y-84854012D01*
X77371729Y-84624612D01*
X77796870Y-84200213D01*
X78027238Y-83645425D01*
X78027240Y-83642790D01*
X83897238Y-83642790D01*
X84126638Y-84197979D01*
X84551037Y-84623120D01*
X85105825Y-84853488D01*
X85706540Y-84854012D01*
X86261729Y-84624612D01*
X86686870Y-84200213D01*
X86826321Y-83864376D01*
X87858145Y-83864376D01*
X88257528Y-84830957D01*
X88996404Y-85571123D01*
X89962285Y-85972192D01*
X91008126Y-85973105D01*
X91974707Y-85573722D01*
X92714873Y-84834846D01*
X93115942Y-83868965D01*
X93116855Y-82823124D01*
X92717472Y-81856543D01*
X91978596Y-81116377D01*
X91012715Y-80715308D01*
X89966874Y-80714395D01*
X89000293Y-81113778D01*
X88260127Y-81852654D01*
X87859058Y-82818535D01*
X87858145Y-83864376D01*
X86826321Y-83864376D01*
X86917238Y-83645425D01*
X86917762Y-83044710D01*
X86688362Y-82489521D01*
X86263963Y-82064380D01*
X85709175Y-81834012D01*
X85108460Y-81833488D01*
X84553271Y-82062888D01*
X84128130Y-82487287D01*
X83897762Y-83042075D01*
X83897238Y-83642790D01*
X78027240Y-83642790D01*
X78027762Y-83044710D01*
X77798362Y-82489521D01*
X77373963Y-82064380D01*
X76819175Y-81834012D01*
X76218460Y-81833488D01*
X75663271Y-82062888D01*
X75238130Y-82487287D01*
X75007762Y-83042075D01*
X75007238Y-83642790D01*
X75209391Y-84132037D01*
X74601573Y-84241645D01*
X74022335Y-84613829D01*
X73367334Y-85343829D01*
X73644075Y-85592138D01*
X73532049Y-85595675D01*
X73351181Y-85670593D01*
X73197703Y-85532883D01*
X72542703Y-86262882D01*
X72492985Y-86362499D01*
X72414727Y-86394371D01*
X72167330Y-87049379D01*
X70497516Y-87049379D01*
X70267447Y-86647735D01*
X69724064Y-86227835D01*
X69061355Y-86047841D01*
X68380210Y-86135156D01*
X67784329Y-86476487D01*
X67364429Y-87019870D01*
X67184435Y-87682579D01*
X67161506Y-88015056D01*
X67137807Y-88072129D01*
X67137196Y-88772300D01*
X67219508Y-88971511D01*
X67226222Y-89023884D01*
X67279785Y-89117392D01*
X67404575Y-89419407D01*
X67517694Y-89532724D01*
X67567553Y-89619765D01*
X67580798Y-89630000D01*
X51175510Y-89630000D01*
X51204434Y-89601076D01*
X51157972Y-89554614D01*
X51291750Y-89405108D01*
X51370273Y-89373129D01*
X51617670Y-88718121D01*
X51609414Y-88456613D01*
X51614591Y-88381541D01*
X51607027Y-88381019D01*
X51598971Y-88125861D01*
X51632067Y-88128143D01*
X51652067Y-87838143D01*
X51579419Y-87478881D01*
X53094214Y-87478881D01*
X53127269Y-87608096D01*
X53127196Y-87692300D01*
X53183945Y-87829644D01*
X53264408Y-88144175D01*
X53374731Y-88291381D01*
X53394575Y-88339407D01*
X53459367Y-88404312D01*
X53676244Y-88693695D01*
X53852524Y-88798156D01*
X53889239Y-88834935D01*
X53973942Y-88870107D01*
X54267024Y-89043783D01*
X54458108Y-89071150D01*
X54535879Y-89103443D01*
X54684497Y-89103573D01*
X54946805Y-89141140D01*
X55092266Y-89103929D01*
X55236050Y-89104054D01*
X55470575Y-89007150D01*
X55612099Y-88970946D01*
X55678335Y-88921306D01*
X55883157Y-88836675D01*
X56159965Y-88560349D01*
X56161619Y-88559110D01*
X56165159Y-88555165D01*
X56378685Y-88342011D01*
X56397870Y-88295807D01*
X57543339Y-87019180D01*
X57893427Y-86428401D01*
X57990784Y-85748619D01*
X57820590Y-85083326D01*
X57648654Y-84853909D01*
X57766540Y-84854012D01*
X58321729Y-84624612D01*
X58746870Y-84200213D01*
X58977238Y-83645425D01*
X58977240Y-83642790D01*
X64847238Y-83642790D01*
X65076638Y-84197979D01*
X65501037Y-84623120D01*
X66055825Y-84853488D01*
X66656540Y-84854012D01*
X67211729Y-84624612D01*
X67636870Y-84200213D01*
X67776321Y-83864376D01*
X68808145Y-83864376D01*
X69207528Y-84830957D01*
X69946404Y-85571123D01*
X70912285Y-85972192D01*
X71958126Y-85973105D01*
X72924707Y-85573722D01*
X73664873Y-84834846D01*
X74065942Y-83868965D01*
X74066855Y-82823124D01*
X73667472Y-81856543D01*
X72928596Y-81116377D01*
X71962715Y-80715308D01*
X70916874Y-80714395D01*
X69950293Y-81113778D01*
X69210127Y-81852654D01*
X68809058Y-82818535D01*
X68808145Y-83864376D01*
X67776321Y-83864376D01*
X67867238Y-83645425D01*
X67867762Y-83044710D01*
X67638362Y-82489521D01*
X67213963Y-82064380D01*
X66659175Y-81834012D01*
X66058460Y-81833488D01*
X65503271Y-82062888D01*
X65078130Y-82487287D01*
X64847762Y-83042075D01*
X64847238Y-83642790D01*
X58977240Y-83642790D01*
X58977762Y-83044710D01*
X58748362Y-82489521D01*
X58323963Y-82064380D01*
X57769175Y-81834012D01*
X57168460Y-81833488D01*
X56613271Y-82062888D01*
X56188130Y-82487287D01*
X55957762Y-83042075D01*
X55957238Y-83642790D01*
X56140664Y-84086714D01*
X56138193Y-84086360D01*
X55472899Y-84256554D01*
X54923379Y-84668391D01*
X53609804Y-86132372D01*
X53396315Y-86345489D01*
X53246330Y-86706692D01*
X53191571Y-86799100D01*
X53182942Y-86859348D01*
X53127807Y-86992129D01*
X53127586Y-87245869D01*
X53094214Y-87478881D01*
X51579419Y-87478881D01*
X51515602Y-87163299D01*
X51131272Y-86592047D01*
X50557590Y-86211356D01*
X50404518Y-86161402D01*
X50124022Y-86260064D01*
X50096785Y-86655003D01*
X49841626Y-86663059D01*
X49870624Y-86242588D01*
X49606328Y-86106354D01*
X49447846Y-86134822D01*
X48827335Y-86433154D01*
X48368224Y-86946237D01*
X48140409Y-87595959D01*
X48120409Y-87885959D01*
X48168029Y-87889243D01*
X48077330Y-88129379D01*
X48085586Y-88390884D01*
X48082933Y-88429357D01*
X48087517Y-88452024D01*
X48099425Y-88829201D01*
X48324727Y-89373129D01*
X48428862Y-89415539D01*
X48528301Y-89563341D01*
X48490566Y-89601076D01*
X48519490Y-89630000D01*
X47453498Y-89630000D01*
X46895997Y-89513328D01*
X46481523Y-89230380D01*
X46206876Y-88810354D01*
X46100000Y-88243638D01*
X46100000Y-84271469D01*
X46451037Y-84623120D01*
X47005825Y-84853488D01*
X47606540Y-84854012D01*
X48161729Y-84624612D01*
X48586870Y-84200213D01*
X48726321Y-83864376D01*
X49758145Y-83864376D01*
X50157528Y-84830957D01*
X50896404Y-85571123D01*
X51862285Y-85972192D01*
X52908126Y-85973105D01*
X53874707Y-85573722D01*
X54614873Y-84834846D01*
X55015942Y-83868965D01*
X55016855Y-82823124D01*
X54617472Y-81856543D01*
X54205248Y-81443599D01*
X60164699Y-81443599D01*
X60428281Y-82081515D01*
X60915918Y-82570004D01*
X61553373Y-82834699D01*
X62243599Y-82835301D01*
X62881515Y-82571719D01*
X63370004Y-82084082D01*
X63634699Y-81446627D01*
X63635301Y-80756401D01*
X63371719Y-80118485D01*
X62884082Y-79629996D01*
X62246627Y-79365301D01*
X61556401Y-79364699D01*
X60918485Y-79628281D01*
X60429996Y-80115918D01*
X60165301Y-80753373D01*
X60164699Y-81443599D01*
X54205248Y-81443599D01*
X53878596Y-81116377D01*
X52912715Y-80715308D01*
X51866874Y-80714395D01*
X50900293Y-81113778D01*
X50160127Y-81852654D01*
X49759058Y-82818535D01*
X49758145Y-83864376D01*
X48726321Y-83864376D01*
X48817238Y-83645425D01*
X48817762Y-83044710D01*
X48588362Y-82489521D01*
X48163963Y-82064380D01*
X47609175Y-81834012D01*
X47008460Y-81833488D01*
X46453271Y-82062888D01*
X46100000Y-82415542D01*
X46100000Y-68880000D01*
X59185907Y-68880000D01*
X59298946Y-69448285D01*
X59620853Y-69930054D01*
X59950026Y-70150000D01*
X59620853Y-70369946D01*
X59298946Y-70851715D01*
X59185907Y-71420000D01*
X59298946Y-71988285D01*
X59620853Y-72470054D01*
X59950026Y-72690000D01*
X59620853Y-72909946D01*
X59298946Y-73391715D01*
X59185907Y-73960000D01*
X59298946Y-74528285D01*
X59620853Y-75010054D01*
X59950026Y-75230000D01*
X59620853Y-75449946D01*
X59298946Y-75931715D01*
X59185907Y-76500000D01*
X59298946Y-77068285D01*
X59620853Y-77550054D01*
X60102622Y-77871961D01*
X60670907Y-77985000D01*
X60729093Y-77985000D01*
X61297378Y-77871961D01*
X61779147Y-77550054D01*
X61970000Y-77264422D01*
X62160853Y-77550054D01*
X62642622Y-77871961D01*
X63210907Y-77985000D01*
X63269093Y-77985000D01*
X63837378Y-77871961D01*
X64319147Y-77550054D01*
X64641054Y-77068285D01*
X64754093Y-76500000D01*
X64641054Y-75931715D01*
X64319147Y-75449946D01*
X63989974Y-75230000D01*
X64319147Y-75010054D01*
X64641054Y-74528285D01*
X64754093Y-73960000D01*
X64641054Y-73391715D01*
X64319147Y-72909946D01*
X63989974Y-72690000D01*
X64319147Y-72470054D01*
X64641054Y-71988285D01*
X64754093Y-71420000D01*
X64641054Y-70851715D01*
X64468915Y-70594089D01*
X89914743Y-70594089D01*
X90140344Y-71140086D01*
X90557717Y-71558188D01*
X91103319Y-71784742D01*
X91694089Y-71785257D01*
X92240086Y-71559656D01*
X92658188Y-71142283D01*
X92690229Y-71065120D01*
X92744817Y-71181358D01*
X93173076Y-71571645D01*
X93583110Y-71741476D01*
X93813000Y-71620155D01*
X93813000Y-70427000D01*
X94067000Y-70427000D01*
X94067000Y-71620155D01*
X94296890Y-71741476D01*
X94706924Y-71571645D01*
X95135183Y-71181358D01*
X95381486Y-70656892D01*
X95353153Y-70602911D01*
X96075258Y-70602911D01*
X96287490Y-71116553D01*
X96680130Y-71509879D01*
X97193400Y-71723007D01*
X97749161Y-71723492D01*
X97868672Y-71674111D01*
X97868545Y-71819591D01*
X98039874Y-72234240D01*
X98356841Y-72551761D01*
X98771191Y-72723814D01*
X99219841Y-72724205D01*
X99634490Y-72552876D01*
X99952011Y-72235909D01*
X100012436Y-72090389D01*
X100071874Y-72234240D01*
X100388841Y-72551761D01*
X100803191Y-72723814D01*
X101251841Y-72724205D01*
X101666490Y-72552876D01*
X101984011Y-72235909D01*
X102156064Y-71821559D01*
X102156192Y-71674338D01*
X102273400Y-71723007D01*
X102829161Y-71723492D01*
X103342803Y-71511260D01*
X103736129Y-71118620D01*
X103949257Y-70605350D01*
X103949742Y-70049589D01*
X103737510Y-69535947D01*
X103344870Y-69142621D01*
X103136988Y-69056301D01*
X103342803Y-68971260D01*
X103736129Y-68578620D01*
X103949257Y-68065350D01*
X103949742Y-67509589D01*
X103737510Y-66995947D01*
X103344870Y-66602621D01*
X102831600Y-66389493D01*
X102275839Y-66389008D01*
X101762197Y-66601240D01*
X101368871Y-66993880D01*
X101155743Y-67507150D01*
X101155258Y-68062911D01*
X101367490Y-68576553D01*
X101760130Y-68969879D01*
X101968012Y-69056199D01*
X101762197Y-69141240D01*
X101368871Y-69533880D01*
X101155743Y-70047150D01*
X101155375Y-70468600D01*
X100805159Y-70468295D01*
X100390510Y-70639624D01*
X100072989Y-70956591D01*
X100012564Y-71102111D01*
X99953126Y-70958260D01*
X99636159Y-70640739D01*
X99221809Y-70468686D01*
X98869377Y-70468379D01*
X98869742Y-70049589D01*
X98657510Y-69535947D01*
X98264870Y-69142621D01*
X98072773Y-69062855D01*
X98203643Y-69008647D01*
X98273108Y-68766463D01*
X97472500Y-67965855D01*
X96671892Y-68766463D01*
X96741357Y-69008647D01*
X96881818Y-69058759D01*
X96682197Y-69141240D01*
X96288871Y-69533880D01*
X96075743Y-70047150D01*
X96075258Y-70602911D01*
X95353153Y-70602911D01*
X95260819Y-70427000D01*
X94067000Y-70427000D01*
X93813000Y-70427000D01*
X93793000Y-70427000D01*
X93793000Y-70173000D01*
X93813000Y-70173000D01*
X93813000Y-68979845D01*
X94067000Y-68979845D01*
X94067000Y-70173000D01*
X95260819Y-70173000D01*
X95381486Y-69943108D01*
X95135183Y-69418642D01*
X94706924Y-69028355D01*
X94296890Y-68858524D01*
X94067000Y-68979845D01*
X93813000Y-68979845D01*
X93583110Y-68858524D01*
X93173076Y-69028355D01*
X92744817Y-69418642D01*
X92690443Y-69534424D01*
X92659656Y-69459914D01*
X92242283Y-69041812D01*
X91696681Y-68815258D01*
X91105911Y-68814743D01*
X90559914Y-69040344D01*
X90141812Y-69457717D01*
X89915258Y-70003319D01*
X89914743Y-70594089D01*
X64468915Y-70594089D01*
X64319147Y-70369946D01*
X64024730Y-70173223D01*
X64104353Y-69923958D01*
X63240000Y-69059605D01*
X62375647Y-69923958D01*
X62455270Y-70173223D01*
X62160853Y-70369946D01*
X61970000Y-70655578D01*
X61779147Y-70369946D01*
X61449974Y-70150000D01*
X61779147Y-69930054D01*
X61954732Y-69667271D01*
X62196042Y-69744353D01*
X63060395Y-68880000D01*
X63419605Y-68880000D01*
X64283958Y-69744353D01*
X64535259Y-69664080D01*
X64736718Y-69108721D01*
X64710315Y-68518542D01*
X64535259Y-68095920D01*
X64283958Y-68015647D01*
X63419605Y-68880000D01*
X63060395Y-68880000D01*
X62196042Y-68015647D01*
X61954732Y-68092729D01*
X61783221Y-67836042D01*
X62375647Y-67836042D01*
X63240000Y-68700395D01*
X64104353Y-67836042D01*
X64024080Y-67584741D01*
X64007019Y-67578552D01*
X96063356Y-67578552D01*
X96091138Y-68133618D01*
X96250103Y-68517393D01*
X96492287Y-68586858D01*
X97292895Y-67786250D01*
X97652105Y-67786250D01*
X98452713Y-68586858D01*
X98694897Y-68517393D01*
X98881644Y-67993948D01*
X98853862Y-67438882D01*
X98694897Y-67055107D01*
X98452713Y-66985642D01*
X97652105Y-67786250D01*
X97292895Y-67786250D01*
X96492287Y-66985642D01*
X96250103Y-67055107D01*
X96063356Y-67578552D01*
X64007019Y-67578552D01*
X63468721Y-67383282D01*
X62878542Y-67409685D01*
X62455920Y-67584741D01*
X62375647Y-67836042D01*
X61783221Y-67836042D01*
X61779147Y-67829946D01*
X61297378Y-67508039D01*
X60729093Y-67395000D01*
X60670907Y-67395000D01*
X60102622Y-67508039D01*
X59620853Y-67829946D01*
X59298946Y-68311715D01*
X59185907Y-68880000D01*
X46100000Y-68880000D01*
X46100000Y-65221469D01*
X46451037Y-65573120D01*
X47005825Y-65803488D01*
X47606540Y-65804012D01*
X48161729Y-65574612D01*
X48586870Y-65150213D01*
X48726321Y-64814376D01*
X49758145Y-64814376D01*
X50157528Y-65780957D01*
X50896404Y-66521123D01*
X51862285Y-66922192D01*
X52908126Y-66923105D01*
X53874707Y-66523722D01*
X54614873Y-65784846D01*
X55015942Y-64818965D01*
X55016139Y-64592790D01*
X55957238Y-64592790D01*
X56186638Y-65147979D01*
X56611037Y-65573120D01*
X57165825Y-65803488D01*
X57766540Y-65804012D01*
X58321729Y-65574612D01*
X58746870Y-65150213D01*
X58977238Y-64595425D01*
X58977240Y-64592790D01*
X64847238Y-64592790D01*
X65076638Y-65147979D01*
X65501037Y-65573120D01*
X66055825Y-65803488D01*
X66656540Y-65804012D01*
X67211729Y-65574612D01*
X67636870Y-65150213D01*
X67776321Y-64814376D01*
X68808145Y-64814376D01*
X69207528Y-65780957D01*
X69946404Y-66521123D01*
X70912285Y-66922192D01*
X71958126Y-66923105D01*
X72924707Y-66523722D01*
X73664873Y-65784846D01*
X74065942Y-64818965D01*
X74066139Y-64592790D01*
X75007238Y-64592790D01*
X75236638Y-65147979D01*
X75661037Y-65573120D01*
X76215825Y-65803488D01*
X76816540Y-65804012D01*
X77371729Y-65574612D01*
X77796870Y-65150213D01*
X78027238Y-64595425D01*
X78027240Y-64592790D01*
X83897238Y-64592790D01*
X84126638Y-65147979D01*
X84551037Y-65573120D01*
X85105825Y-65803488D01*
X85706540Y-65804012D01*
X86261729Y-65574612D01*
X86686870Y-65150213D01*
X86826321Y-64814376D01*
X87858145Y-64814376D01*
X88257528Y-65780957D01*
X88996404Y-66521123D01*
X89962285Y-66922192D01*
X91008126Y-66923105D01*
X91291452Y-66806037D01*
X96671892Y-66806037D01*
X97472500Y-67606645D01*
X98273108Y-66806037D01*
X98254122Y-66739843D01*
X98883274Y-66739843D01*
X99054797Y-67154959D01*
X99372121Y-67472837D01*
X99786937Y-67645084D01*
X100236093Y-67645476D01*
X100651209Y-67473953D01*
X100969087Y-67156629D01*
X101141334Y-66741813D01*
X101141726Y-66292657D01*
X100970203Y-65877541D01*
X100652879Y-65559663D01*
X100238063Y-65387416D01*
X99788907Y-65387024D01*
X99373791Y-65558547D01*
X99055913Y-65875871D01*
X98883666Y-66290687D01*
X98883274Y-66739843D01*
X98254122Y-66739843D01*
X98203643Y-66563853D01*
X97680198Y-66377106D01*
X97125132Y-66404888D01*
X96741357Y-66563853D01*
X96671892Y-66806037D01*
X91291452Y-66806037D01*
X91974707Y-66523722D01*
X92714873Y-65784846D01*
X93115942Y-64818965D01*
X93116139Y-64592790D01*
X94057238Y-64592790D01*
X94286638Y-65147979D01*
X94711037Y-65573120D01*
X95265825Y-65803488D01*
X95866540Y-65804012D01*
X96421729Y-65574612D01*
X96846870Y-65150213D01*
X97077238Y-64595425D01*
X97077240Y-64592790D01*
X102947238Y-64592790D01*
X103176638Y-65147979D01*
X103601037Y-65573120D01*
X104155825Y-65803488D01*
X104756540Y-65804012D01*
X105311729Y-65574612D01*
X105736870Y-65150213D01*
X105876321Y-64814376D01*
X106908145Y-64814376D01*
X107307528Y-65780957D01*
X108046404Y-66521123D01*
X109012285Y-66922192D01*
X110058126Y-66923105D01*
X111024707Y-66523722D01*
X111764873Y-65784846D01*
X112165942Y-64818965D01*
X112166139Y-64592790D01*
X113107238Y-64592790D01*
X113336638Y-65147979D01*
X113761037Y-65573120D01*
X114315825Y-65803488D01*
X114916540Y-65804012D01*
X115471729Y-65574612D01*
X115896870Y-65150213D01*
X116127238Y-64595425D01*
X116127240Y-64592790D01*
X121997238Y-64592790D01*
X122226638Y-65147979D01*
X122651037Y-65573120D01*
X123205825Y-65803488D01*
X123806540Y-65804012D01*
X124361729Y-65574612D01*
X124786870Y-65150213D01*
X124926321Y-64814376D01*
X125958145Y-64814376D01*
X126357528Y-65780957D01*
X127096404Y-66521123D01*
X128062285Y-66922192D01*
X129108126Y-66923105D01*
X130074707Y-66523722D01*
X130814873Y-65784846D01*
X131215942Y-64818965D01*
X131216855Y-63773124D01*
X130817472Y-62806543D01*
X130078596Y-62066377D01*
X129112715Y-61665308D01*
X128066874Y-61664395D01*
X127100293Y-62063778D01*
X126360127Y-62802654D01*
X125959058Y-63768535D01*
X125958145Y-64814376D01*
X124926321Y-64814376D01*
X125017238Y-64595425D01*
X125017762Y-63994710D01*
X124834336Y-63550786D01*
X124836807Y-63551140D01*
X125502101Y-63380946D01*
X126051621Y-62969110D01*
X127365196Y-61505128D01*
X127578685Y-61292011D01*
X127728668Y-60930810D01*
X127783429Y-60838401D01*
X127792058Y-60778151D01*
X127847193Y-60645371D01*
X127847414Y-60391631D01*
X127880786Y-60158619D01*
X127847731Y-60029404D01*
X127847804Y-59945200D01*
X127791054Y-59807855D01*
X127788881Y-59799357D01*
X129322933Y-59799357D01*
X129459398Y-60474201D01*
X129843728Y-61045453D01*
X130417410Y-61426144D01*
X130570482Y-61476098D01*
X130850978Y-61377436D01*
X130878215Y-60982497D01*
X131133374Y-60974441D01*
X131104376Y-61394912D01*
X131368672Y-61531146D01*
X131527154Y-61502678D01*
X132147665Y-61204346D01*
X132606776Y-60691263D01*
X132834591Y-60041541D01*
X132854591Y-59751541D01*
X132806971Y-59748257D01*
X132897670Y-59508121D01*
X132889414Y-59246616D01*
X132892067Y-59208143D01*
X132887483Y-59185476D01*
X132875575Y-58808299D01*
X132650273Y-58264371D01*
X132546138Y-58221961D01*
X132371272Y-57962047D01*
X132119134Y-57794730D01*
X132076879Y-57690977D01*
X131812048Y-57590950D01*
X131797590Y-57581356D01*
X131717108Y-57555091D01*
X131421871Y-57443580D01*
X131160373Y-57451836D01*
X131121891Y-57449182D01*
X131121624Y-57453060D01*
X130722049Y-57465675D01*
X130178121Y-57690977D01*
X130148286Y-57764234D01*
X130067335Y-57803154D01*
X129683250Y-58232392D01*
X129604727Y-58264371D01*
X129357330Y-58919379D01*
X129365586Y-59180887D01*
X129360409Y-59255959D01*
X129367973Y-59256481D01*
X129376029Y-59511639D01*
X129342933Y-59509357D01*
X129322933Y-59799357D01*
X127788881Y-59799357D01*
X127710592Y-59493326D01*
X127600270Y-59346121D01*
X127580425Y-59298093D01*
X127515630Y-59233184D01*
X127298755Y-58943805D01*
X127122477Y-58839345D01*
X127085761Y-58802565D01*
X127001056Y-58767393D01*
X126707976Y-58593717D01*
X126516892Y-58566350D01*
X126439121Y-58534057D01*
X126290503Y-58533927D01*
X126028195Y-58496360D01*
X125882734Y-58533571D01*
X125738950Y-58533446D01*
X125504425Y-58630350D01*
X125362901Y-58666554D01*
X125296665Y-58716194D01*
X125091843Y-58800825D01*
X124815031Y-59077155D01*
X124813381Y-59078391D01*
X124809850Y-59082326D01*
X124596315Y-59295489D01*
X124577129Y-59341694D01*
X123431661Y-60618320D01*
X123081573Y-61209100D01*
X122984216Y-61888881D01*
X123154410Y-62554175D01*
X123326345Y-62783591D01*
X123208460Y-62783488D01*
X122653271Y-63012888D01*
X122228130Y-63437287D01*
X121997762Y-63992075D01*
X121997238Y-64592790D01*
X116127240Y-64592790D01*
X116127762Y-63994710D01*
X115898362Y-63439521D01*
X115473963Y-63014380D01*
X114919175Y-62784012D01*
X114318460Y-62783488D01*
X113763271Y-63012888D01*
X113338130Y-63437287D01*
X113107762Y-63992075D01*
X113107238Y-64592790D01*
X112166139Y-64592790D01*
X112166855Y-63773124D01*
X111767472Y-62806543D01*
X111028596Y-62066377D01*
X110062715Y-61665308D01*
X109016874Y-61664395D01*
X108050293Y-62063778D01*
X107310127Y-62802654D01*
X106909058Y-63768535D01*
X106908145Y-64814376D01*
X105876321Y-64814376D01*
X105967238Y-64595425D01*
X105967762Y-63994710D01*
X105765609Y-63505463D01*
X106373427Y-63395855D01*
X106952665Y-63023671D01*
X107607666Y-62293671D01*
X107330925Y-62045362D01*
X107442951Y-62041825D01*
X107623819Y-61966907D01*
X107777297Y-62104617D01*
X108432297Y-61374618D01*
X108482015Y-61275001D01*
X108560273Y-61243129D01*
X108807670Y-60588121D01*
X108785575Y-59888299D01*
X108712856Y-59712739D01*
X110278907Y-59712739D01*
X110366222Y-60393884D01*
X110707553Y-60989765D01*
X111250936Y-61409665D01*
X111913645Y-61589659D01*
X112594790Y-61502344D01*
X113190671Y-61161013D01*
X113610571Y-60617630D01*
X113790565Y-59954921D01*
X113813494Y-59622444D01*
X113837193Y-59565371D01*
X113837804Y-58865200D01*
X113755491Y-58665988D01*
X113748778Y-58613617D01*
X113695216Y-58520111D01*
X113570425Y-58218093D01*
X113457305Y-58104776D01*
X113407447Y-58017735D01*
X113245455Y-57892556D01*
X113075761Y-57722565D01*
X112967069Y-57677432D01*
X112864064Y-57597835D01*
X112607674Y-57528199D01*
X112429121Y-57454057D01*
X112334392Y-57453974D01*
X112201355Y-57417841D01*
X111922284Y-57453615D01*
X111728950Y-57453446D01*
X111641400Y-57489621D01*
X111520210Y-57505156D01*
X111303832Y-57629101D01*
X111081843Y-57720825D01*
X110998552Y-57803971D01*
X110924329Y-57846487D01*
X110817584Y-57984623D01*
X110586315Y-58215489D01*
X110524913Y-58363363D01*
X110504429Y-58389870D01*
X110486509Y-58455849D01*
X110317807Y-58862129D01*
X110317554Y-59152358D01*
X110278907Y-59712739D01*
X108712856Y-59712739D01*
X108560273Y-59344371D01*
X108504409Y-59321620D01*
X108479885Y-59285222D01*
X108198035Y-59190498D01*
X107042495Y-60478350D01*
X107037500Y-60473355D01*
X106333538Y-61177317D01*
X106189802Y-61048348D01*
X106203159Y-61033462D01*
X106158370Y-60993275D01*
X106338238Y-60813407D01*
X106372789Y-60844408D01*
X107032506Y-60109151D01*
X107037500Y-60114145D01*
X108100842Y-59050803D01*
X107986879Y-58770977D01*
X107759249Y-58685001D01*
X107741906Y-58675868D01*
X107725773Y-58672357D01*
X107331871Y-58523580D01*
X107078848Y-58531569D01*
X107069150Y-58529458D01*
X107052904Y-58532388D01*
X106632049Y-58545675D01*
X106088121Y-58770977D01*
X106046392Y-58873439D01*
X105812337Y-59023829D01*
X105530485Y-59337953D01*
X105514727Y-59344371D01*
X105507457Y-59363618D01*
X105157336Y-59753829D01*
X105308758Y-59889694D01*
X105267330Y-59999379D01*
X105273647Y-60199447D01*
X104987705Y-59942883D01*
X104332705Y-60672882D01*
X104025247Y-61288924D01*
X103976942Y-61975731D01*
X104195144Y-62628743D01*
X104285117Y-62762278D01*
X104348721Y-62783654D01*
X104158460Y-62783488D01*
X103603271Y-63012888D01*
X103178130Y-63437287D01*
X102947762Y-63992075D01*
X102947238Y-64592790D01*
X97077240Y-64592790D01*
X97077762Y-63994710D01*
X96848362Y-63439521D01*
X96423963Y-63014380D01*
X95869175Y-62784012D01*
X95268460Y-62783488D01*
X94713271Y-63012888D01*
X94288130Y-63437287D01*
X94057762Y-63992075D01*
X94057238Y-64592790D01*
X93116139Y-64592790D01*
X93116855Y-63773124D01*
X92717472Y-62806543D01*
X91978596Y-62066377D01*
X91012715Y-61665308D01*
X89966874Y-61664395D01*
X89000293Y-62063778D01*
X88260127Y-62802654D01*
X87859058Y-63768535D01*
X87858145Y-64814376D01*
X86826321Y-64814376D01*
X86917238Y-64595425D01*
X86917762Y-63994710D01*
X86715609Y-63505463D01*
X87323427Y-63395855D01*
X87902665Y-63023671D01*
X88557666Y-62293671D01*
X88280925Y-62045362D01*
X88392951Y-62041825D01*
X88573819Y-61966907D01*
X88727297Y-62104617D01*
X89382297Y-61374618D01*
X89432015Y-61275001D01*
X89510273Y-61243129D01*
X89757670Y-60588121D01*
X89735575Y-59888299D01*
X89662856Y-59712739D01*
X91228907Y-59712739D01*
X91316222Y-60393884D01*
X91657553Y-60989765D01*
X92200936Y-61409665D01*
X92863645Y-61589659D01*
X93544790Y-61502344D01*
X94140671Y-61161013D01*
X94560571Y-60617630D01*
X94740565Y-59954921D01*
X94763494Y-59622444D01*
X94787193Y-59565371D01*
X94787804Y-58865200D01*
X94705491Y-58665988D01*
X94698778Y-58613617D01*
X94645216Y-58520111D01*
X94520425Y-58218093D01*
X94407305Y-58104776D01*
X94357447Y-58017735D01*
X94195455Y-57892556D01*
X94025761Y-57722565D01*
X93917069Y-57677432D01*
X93814064Y-57597835D01*
X93557674Y-57528199D01*
X93379121Y-57454057D01*
X93284392Y-57453974D01*
X93151355Y-57417841D01*
X92872284Y-57453615D01*
X92678950Y-57453446D01*
X92591400Y-57489621D01*
X92470210Y-57505156D01*
X92253832Y-57629101D01*
X92031843Y-57720825D01*
X91948552Y-57803971D01*
X91874329Y-57846487D01*
X91767584Y-57984623D01*
X91536315Y-58215489D01*
X91474913Y-58363363D01*
X91454429Y-58389870D01*
X91436509Y-58455849D01*
X91267807Y-58862129D01*
X91267554Y-59152358D01*
X91228907Y-59712739D01*
X89662856Y-59712739D01*
X89510273Y-59344371D01*
X89454409Y-59321620D01*
X89429885Y-59285222D01*
X89148035Y-59190498D01*
X87992495Y-60478350D01*
X87987500Y-60473355D01*
X87283538Y-61177317D01*
X87139802Y-61048348D01*
X87153159Y-61033462D01*
X87108370Y-60993275D01*
X87288238Y-60813407D01*
X87322789Y-60844408D01*
X87982506Y-60109151D01*
X87987500Y-60114145D01*
X89050842Y-59050803D01*
X88936879Y-58770977D01*
X88709249Y-58685001D01*
X88691906Y-58675868D01*
X88675773Y-58672357D01*
X88281871Y-58523580D01*
X88028848Y-58531569D01*
X88019150Y-58529458D01*
X88002904Y-58532388D01*
X87582049Y-58545675D01*
X87038121Y-58770977D01*
X86996392Y-58873439D01*
X86762337Y-59023829D01*
X86480485Y-59337953D01*
X86464727Y-59344371D01*
X86457457Y-59363618D01*
X86107336Y-59753829D01*
X86258758Y-59889694D01*
X86217330Y-59999379D01*
X86223647Y-60199447D01*
X85937705Y-59942883D01*
X85282705Y-60672882D01*
X84975247Y-61288924D01*
X84926942Y-61975731D01*
X85145144Y-62628743D01*
X85235117Y-62762278D01*
X85298721Y-62783654D01*
X85108460Y-62783488D01*
X84553271Y-63012888D01*
X84128130Y-63437287D01*
X83897762Y-63992075D01*
X83897238Y-64592790D01*
X78027240Y-64592790D01*
X78027762Y-63994710D01*
X77798362Y-63439521D01*
X77373963Y-63014380D01*
X76819175Y-62784012D01*
X76218460Y-62783488D01*
X75663271Y-63012888D01*
X75238130Y-63437287D01*
X75007762Y-63992075D01*
X75007238Y-64592790D01*
X74066139Y-64592790D01*
X74066855Y-63773124D01*
X73667472Y-62806543D01*
X72928596Y-62066377D01*
X71962715Y-61665308D01*
X70916874Y-61664395D01*
X69950293Y-62063778D01*
X69210127Y-62802654D01*
X68809058Y-63768535D01*
X68808145Y-64814376D01*
X67776321Y-64814376D01*
X67867238Y-64595425D01*
X67867762Y-63994710D01*
X67684336Y-63550786D01*
X67686807Y-63551140D01*
X68352101Y-63380946D01*
X68901621Y-62969110D01*
X70215196Y-61505128D01*
X70428685Y-61292011D01*
X70578668Y-60930810D01*
X70633429Y-60838401D01*
X70642058Y-60778151D01*
X70697193Y-60645371D01*
X70697414Y-60391631D01*
X70730786Y-60158619D01*
X70697731Y-60029404D01*
X70697804Y-59945200D01*
X70641054Y-59807855D01*
X70638881Y-59799357D01*
X72172933Y-59799357D01*
X72309398Y-60474201D01*
X72693728Y-61045453D01*
X73267410Y-61426144D01*
X73420482Y-61476098D01*
X73700978Y-61377436D01*
X73728215Y-60982497D01*
X73983374Y-60974441D01*
X73954376Y-61394912D01*
X74218672Y-61531146D01*
X74377154Y-61502678D01*
X74997665Y-61204346D01*
X75456776Y-60691263D01*
X75684591Y-60041541D01*
X75704591Y-59751541D01*
X75656971Y-59748257D01*
X75747670Y-59508121D01*
X75739414Y-59246616D01*
X75742067Y-59208143D01*
X75737483Y-59185476D01*
X75725575Y-58808299D01*
X75500273Y-58264371D01*
X75396138Y-58221961D01*
X75221272Y-57962047D01*
X74969134Y-57794730D01*
X74926879Y-57690977D01*
X74662048Y-57590950D01*
X74647590Y-57581356D01*
X74567108Y-57555091D01*
X74271871Y-57443580D01*
X74010373Y-57451836D01*
X73971891Y-57449182D01*
X73971624Y-57453060D01*
X73572049Y-57465675D01*
X73028121Y-57690977D01*
X72998286Y-57764234D01*
X72917335Y-57803154D01*
X72533250Y-58232392D01*
X72454727Y-58264371D01*
X72207330Y-58919379D01*
X72215586Y-59180887D01*
X72210409Y-59255959D01*
X72217973Y-59256481D01*
X72226029Y-59511639D01*
X72192933Y-59509357D01*
X72172933Y-59799357D01*
X70638881Y-59799357D01*
X70560592Y-59493326D01*
X70450270Y-59346121D01*
X70430425Y-59298093D01*
X70365630Y-59233184D01*
X70148755Y-58943805D01*
X69972477Y-58839345D01*
X69935761Y-58802565D01*
X69851056Y-58767393D01*
X69557976Y-58593717D01*
X69366892Y-58566350D01*
X69289121Y-58534057D01*
X69140503Y-58533927D01*
X68878195Y-58496360D01*
X68732734Y-58533571D01*
X68588950Y-58533446D01*
X68354425Y-58630350D01*
X68212901Y-58666554D01*
X68146665Y-58716194D01*
X67941843Y-58800825D01*
X67665031Y-59077155D01*
X67663381Y-59078391D01*
X67659850Y-59082326D01*
X67446315Y-59295489D01*
X67427129Y-59341694D01*
X66281661Y-60618320D01*
X65931573Y-61209100D01*
X65834216Y-61888881D01*
X66004410Y-62554175D01*
X66176345Y-62783591D01*
X66058460Y-62783488D01*
X65503271Y-63012888D01*
X65078130Y-63437287D01*
X64847762Y-63992075D01*
X64847238Y-64592790D01*
X58977240Y-64592790D01*
X58977762Y-63994710D01*
X58748362Y-63439521D01*
X58323963Y-63014380D01*
X57769175Y-62784012D01*
X57168460Y-62783488D01*
X56613271Y-63012888D01*
X56188130Y-63437287D01*
X55957762Y-63992075D01*
X55957238Y-64592790D01*
X55016139Y-64592790D01*
X55016855Y-63773124D01*
X54617472Y-62806543D01*
X53878596Y-62066377D01*
X52912715Y-61665308D01*
X51866874Y-61664395D01*
X50900293Y-62063778D01*
X50160127Y-62802654D01*
X49759058Y-63768535D01*
X49758145Y-64814376D01*
X48726321Y-64814376D01*
X48817238Y-64595425D01*
X48817762Y-63994710D01*
X48615609Y-63505463D01*
X49223427Y-63395855D01*
X49802665Y-63023671D01*
X50457666Y-62293671D01*
X50180925Y-62045362D01*
X50292951Y-62041825D01*
X50473819Y-61966907D01*
X50627297Y-62104617D01*
X51282297Y-61374618D01*
X51332015Y-61275001D01*
X51410273Y-61243129D01*
X51657670Y-60588121D01*
X51635575Y-59888299D01*
X51562856Y-59712739D01*
X53128907Y-59712739D01*
X53216222Y-60393884D01*
X53557553Y-60989765D01*
X54100936Y-61409665D01*
X54763645Y-61589659D01*
X55444790Y-61502344D01*
X56040671Y-61161013D01*
X56460571Y-60617630D01*
X56640565Y-59954921D01*
X56663494Y-59622444D01*
X56687193Y-59565371D01*
X56687804Y-58865200D01*
X56605491Y-58665988D01*
X56598778Y-58613617D01*
X56545216Y-58520111D01*
X56420425Y-58218093D01*
X56307305Y-58104776D01*
X56257447Y-58017735D01*
X56095455Y-57892556D01*
X55925761Y-57722565D01*
X55817069Y-57677432D01*
X55714064Y-57597835D01*
X55457674Y-57528199D01*
X55279121Y-57454057D01*
X55184392Y-57453974D01*
X55147997Y-57444089D01*
X57874743Y-57444089D01*
X58100344Y-57990086D01*
X58517717Y-58408188D01*
X59063319Y-58634742D01*
X59654089Y-58635257D01*
X60200086Y-58409656D01*
X60618188Y-57992283D01*
X60646355Y-57924450D01*
X60849946Y-58229147D01*
X61331715Y-58551054D01*
X61900000Y-58664093D01*
X62468285Y-58551054D01*
X62950054Y-58229147D01*
X63177702Y-57888447D01*
X63244817Y-58031358D01*
X63673076Y-58421645D01*
X64083110Y-58591476D01*
X64313000Y-58470155D01*
X64313000Y-57277000D01*
X64567000Y-57277000D01*
X64567000Y-58470155D01*
X64796890Y-58591476D01*
X65206924Y-58421645D01*
X65635183Y-58031358D01*
X65881486Y-57506892D01*
X65760819Y-57277000D01*
X64567000Y-57277000D01*
X64313000Y-57277000D01*
X64293000Y-57277000D01*
X64293000Y-57023000D01*
X64313000Y-57023000D01*
X64313000Y-55829845D01*
X64567000Y-55829845D01*
X64567000Y-57023000D01*
X65760819Y-57023000D01*
X65881486Y-56793108D01*
X65635183Y-56268642D01*
X65206924Y-55878355D01*
X64796890Y-55708524D01*
X64567000Y-55829845D01*
X64313000Y-55829845D01*
X64083110Y-55708524D01*
X63673076Y-55878355D01*
X63244817Y-56268642D01*
X63177702Y-56411553D01*
X62950054Y-56070853D01*
X62468285Y-55748946D01*
X61900000Y-55635907D01*
X61331715Y-55748946D01*
X60849946Y-56070853D01*
X60646615Y-56375160D01*
X60619656Y-56309914D01*
X60202283Y-55891812D01*
X59656681Y-55665258D01*
X59065911Y-55664743D01*
X58519914Y-55890344D01*
X58101812Y-56307717D01*
X57875258Y-56853319D01*
X57874743Y-57444089D01*
X55147997Y-57444089D01*
X55051355Y-57417841D01*
X54772284Y-57453615D01*
X54578950Y-57453446D01*
X54491400Y-57489621D01*
X54370210Y-57505156D01*
X54153832Y-57629101D01*
X53931843Y-57720825D01*
X53848552Y-57803971D01*
X53774329Y-57846487D01*
X53667584Y-57984623D01*
X53436315Y-58215489D01*
X53374913Y-58363363D01*
X53354429Y-58389870D01*
X53336509Y-58455849D01*
X53167807Y-58862129D01*
X53167554Y-59152358D01*
X53128907Y-59712739D01*
X51562856Y-59712739D01*
X51410273Y-59344371D01*
X51354409Y-59321620D01*
X51329885Y-59285222D01*
X51048035Y-59190498D01*
X49892495Y-60478350D01*
X49887500Y-60473355D01*
X49183538Y-61177317D01*
X49039802Y-61048348D01*
X49053159Y-61033462D01*
X49008370Y-60993275D01*
X49188238Y-60813407D01*
X49222789Y-60844408D01*
X49882506Y-60109151D01*
X49887500Y-60114145D01*
X50950842Y-59050803D01*
X50836879Y-58770977D01*
X50609249Y-58685001D01*
X50591906Y-58675868D01*
X50575773Y-58672357D01*
X50181871Y-58523580D01*
X49928848Y-58531569D01*
X49919150Y-58529458D01*
X49902904Y-58532388D01*
X49482049Y-58545675D01*
X48938121Y-58770977D01*
X48896392Y-58873439D01*
X48662337Y-59023829D01*
X48380485Y-59337953D01*
X48364727Y-59344371D01*
X48357457Y-59363618D01*
X48007336Y-59753829D01*
X48158758Y-59889694D01*
X48117330Y-59999379D01*
X48123647Y-60199447D01*
X47837705Y-59942883D01*
X47182705Y-60672882D01*
X46875247Y-61288924D01*
X46826942Y-61975731D01*
X47045144Y-62628743D01*
X47135117Y-62762278D01*
X47198721Y-62783654D01*
X47008460Y-62783488D01*
X46453271Y-63012888D01*
X46100000Y-63365542D01*
X46100000Y-55093599D01*
X107864699Y-55093599D01*
X108128281Y-55731515D01*
X108615918Y-56220004D01*
X109253373Y-56484699D01*
X109943599Y-56485301D01*
X110581515Y-56221719D01*
X111070004Y-55734082D01*
X111334699Y-55096627D01*
X111334701Y-55093599D01*
X126914699Y-55093599D01*
X127178281Y-55731515D01*
X127665918Y-56220004D01*
X128303373Y-56484699D01*
X128993599Y-56485301D01*
X129631515Y-56221719D01*
X130120004Y-55734082D01*
X130384699Y-55096627D01*
X130385301Y-54406401D01*
X130121719Y-53768485D01*
X129634082Y-53279996D01*
X128996627Y-53015301D01*
X128306401Y-53014699D01*
X127668485Y-53278281D01*
X127179996Y-53765918D01*
X126915301Y-54403373D01*
X126914699Y-55093599D01*
X111334701Y-55093599D01*
X111335301Y-54406401D01*
X111071719Y-53768485D01*
X110584082Y-53279996D01*
X109946627Y-53015301D01*
X109256401Y-53014699D01*
X108618485Y-53278281D01*
X108129996Y-53765918D01*
X107865301Y-54403373D01*
X107864699Y-55093599D01*
X46100000Y-55093599D01*
X46100000Y-50029379D01*
X48077330Y-50029379D01*
X48085586Y-50290884D01*
X48082933Y-50329357D01*
X48087517Y-50352024D01*
X48099425Y-50729201D01*
X48324727Y-51273129D01*
X48428862Y-51315539D01*
X48603728Y-51575453D01*
X48855866Y-51742770D01*
X48898121Y-51846523D01*
X49162952Y-51946550D01*
X49177410Y-51956144D01*
X49257892Y-51982409D01*
X49553129Y-52093920D01*
X49814627Y-52085664D01*
X49853109Y-52088318D01*
X49853376Y-52084440D01*
X50252951Y-52071825D01*
X50796879Y-51846523D01*
X50826714Y-51773266D01*
X50907665Y-51734346D01*
X51291750Y-51305108D01*
X51370273Y-51273129D01*
X51617670Y-50618121D01*
X51609414Y-50356613D01*
X51614591Y-50281541D01*
X51607027Y-50281019D01*
X51598971Y-50025861D01*
X51632067Y-50028143D01*
X51652067Y-49738143D01*
X51579419Y-49378881D01*
X53094214Y-49378881D01*
X53127269Y-49508096D01*
X53127196Y-49592300D01*
X53183945Y-49729644D01*
X53264408Y-50044175D01*
X53374731Y-50191381D01*
X53394575Y-50239407D01*
X53459367Y-50304312D01*
X53676244Y-50593695D01*
X53852524Y-50698156D01*
X53889239Y-50734935D01*
X53973942Y-50770107D01*
X54267024Y-50943783D01*
X54458108Y-50971150D01*
X54535879Y-51003443D01*
X54684497Y-51003573D01*
X54946805Y-51041140D01*
X55092266Y-51003929D01*
X55236050Y-51004054D01*
X55470575Y-50907150D01*
X55612099Y-50870946D01*
X55678335Y-50821306D01*
X55883157Y-50736675D01*
X55947644Y-50672300D01*
X67137196Y-50672300D01*
X67219508Y-50871511D01*
X67226222Y-50923884D01*
X67279785Y-51017392D01*
X67404575Y-51319407D01*
X67517694Y-51432724D01*
X67567553Y-51519765D01*
X67729545Y-51644944D01*
X67899239Y-51814935D01*
X68007931Y-51860068D01*
X68110936Y-51939665D01*
X68367326Y-52009301D01*
X68545879Y-52083443D01*
X68640608Y-52083526D01*
X68773645Y-52119659D01*
X69052716Y-52083885D01*
X69246050Y-52084054D01*
X69333600Y-52047879D01*
X69454790Y-52032344D01*
X69671168Y-51908399D01*
X69893157Y-51816675D01*
X69976448Y-51733529D01*
X70050671Y-51691013D01*
X70157416Y-51552877D01*
X70388685Y-51322011D01*
X70450087Y-51174137D01*
X70470571Y-51147630D01*
X70488491Y-51081651D01*
X70657193Y-50675371D01*
X70657446Y-50385142D01*
X70696093Y-49824761D01*
X70608778Y-49143617D01*
X70497516Y-48949379D01*
X72167330Y-48949379D01*
X72189425Y-49649201D01*
X72414727Y-50193129D01*
X72470591Y-50215880D01*
X72495115Y-50252278D01*
X72776965Y-50347002D01*
X73932505Y-49059150D01*
X73937500Y-49064145D01*
X74641462Y-48360183D01*
X74785198Y-48489152D01*
X74771841Y-48504038D01*
X74816630Y-48544225D01*
X74636762Y-48724093D01*
X74602211Y-48693092D01*
X73942494Y-49428349D01*
X73937500Y-49423355D01*
X72874158Y-50486697D01*
X72988121Y-50766523D01*
X73215751Y-50852499D01*
X73233094Y-50861632D01*
X73249227Y-50865143D01*
X73643129Y-51013920D01*
X73896152Y-51005931D01*
X73905850Y-51008042D01*
X73922096Y-51005112D01*
X74342951Y-50991825D01*
X74886879Y-50766523D01*
X74928608Y-50664061D01*
X75162663Y-50513671D01*
X75444515Y-50199547D01*
X75460273Y-50193129D01*
X75467543Y-50173882D01*
X75597199Y-50029379D01*
X86177330Y-50029379D01*
X86185586Y-50290884D01*
X86182933Y-50329357D01*
X86187517Y-50352024D01*
X86199425Y-50729201D01*
X86424727Y-51273129D01*
X86528862Y-51315539D01*
X86703728Y-51575453D01*
X86955866Y-51742770D01*
X86998121Y-51846523D01*
X87262952Y-51946550D01*
X87277410Y-51956144D01*
X87357892Y-51982409D01*
X87653129Y-52093920D01*
X87914627Y-52085664D01*
X87953109Y-52088318D01*
X87953376Y-52084440D01*
X88352951Y-52071825D01*
X88896879Y-51846523D01*
X88926714Y-51773266D01*
X89007665Y-51734346D01*
X89391750Y-51305108D01*
X89470273Y-51273129D01*
X89717670Y-50618121D01*
X89709414Y-50356613D01*
X89714591Y-50281541D01*
X89707027Y-50281019D01*
X89698971Y-50025861D01*
X89732067Y-50028143D01*
X89752067Y-49738143D01*
X89679419Y-49378881D01*
X91194214Y-49378881D01*
X91227269Y-49508096D01*
X91227196Y-49592300D01*
X91283945Y-49729644D01*
X91364408Y-50044175D01*
X91474731Y-50191381D01*
X91494575Y-50239407D01*
X91559367Y-50304312D01*
X91776244Y-50593695D01*
X91952524Y-50698156D01*
X91989239Y-50734935D01*
X92073942Y-50770107D01*
X92367024Y-50943783D01*
X92558108Y-50971150D01*
X92635879Y-51003443D01*
X92784497Y-51003573D01*
X93046805Y-51041140D01*
X93192266Y-51003929D01*
X93336050Y-51004054D01*
X93570575Y-50907150D01*
X93712099Y-50870946D01*
X93778335Y-50821306D01*
X93983157Y-50736675D01*
X94047644Y-50672300D01*
X105237196Y-50672300D01*
X105319508Y-50871511D01*
X105326222Y-50923884D01*
X105379785Y-51017392D01*
X105504575Y-51319407D01*
X105617694Y-51432724D01*
X105667553Y-51519765D01*
X105829545Y-51644944D01*
X105999239Y-51814935D01*
X106107931Y-51860068D01*
X106210936Y-51939665D01*
X106467326Y-52009301D01*
X106645879Y-52083443D01*
X106740608Y-52083526D01*
X106873645Y-52119659D01*
X107152716Y-52083885D01*
X107346050Y-52084054D01*
X107433600Y-52047879D01*
X107554790Y-52032344D01*
X107771168Y-51908399D01*
X107993157Y-51816675D01*
X108076448Y-51733529D01*
X108150671Y-51691013D01*
X108257416Y-51552877D01*
X108488685Y-51322011D01*
X108550087Y-51174137D01*
X108570571Y-51147630D01*
X108588491Y-51081651D01*
X108757193Y-50675371D01*
X108757446Y-50385142D01*
X108796093Y-49824761D01*
X108708778Y-49143617D01*
X108597516Y-48949379D01*
X110267330Y-48949379D01*
X110289425Y-49649201D01*
X110514727Y-50193129D01*
X110570591Y-50215880D01*
X110595115Y-50252278D01*
X110876965Y-50347002D01*
X112032505Y-49059150D01*
X112037500Y-49064145D01*
X112741462Y-48360183D01*
X112885198Y-48489152D01*
X112871841Y-48504038D01*
X112916630Y-48544225D01*
X112736762Y-48724093D01*
X112702211Y-48693092D01*
X112042494Y-49428349D01*
X112037500Y-49423355D01*
X110974158Y-50486697D01*
X111088121Y-50766523D01*
X111315751Y-50852499D01*
X111333094Y-50861632D01*
X111349227Y-50865143D01*
X111743129Y-51013920D01*
X111996152Y-51005931D01*
X112005850Y-51008042D01*
X112022096Y-51005112D01*
X112442951Y-50991825D01*
X112986879Y-50766523D01*
X113028608Y-50664061D01*
X113262663Y-50513671D01*
X113544515Y-50199547D01*
X113560273Y-50193129D01*
X113567543Y-50173882D01*
X113917664Y-49783671D01*
X113766242Y-49647806D01*
X113807670Y-49538121D01*
X113801353Y-49338053D01*
X114087295Y-49594617D01*
X114742295Y-48864618D01*
X115049753Y-48248576D01*
X115051905Y-48217968D01*
X115315000Y-48217968D01*
X115315000Y-48682032D01*
X115424233Y-49231183D01*
X115735302Y-49696730D01*
X116200849Y-50007799D01*
X116750000Y-50117032D01*
X117299151Y-50007799D01*
X117764698Y-49696730D01*
X118017779Y-49317968D01*
X119915000Y-49317968D01*
X119915000Y-49782032D01*
X120024233Y-50331183D01*
X120335302Y-50796730D01*
X120800849Y-51107799D01*
X121350000Y-51217032D01*
X121899151Y-51107799D01*
X122364698Y-50796730D01*
X122447839Y-50672300D01*
X124287196Y-50672300D01*
X124369508Y-50871511D01*
X124376222Y-50923884D01*
X124429785Y-51017392D01*
X124554575Y-51319407D01*
X124667694Y-51432724D01*
X124717553Y-51519765D01*
X124879545Y-51644944D01*
X125049239Y-51814935D01*
X125157931Y-51860068D01*
X125260936Y-51939665D01*
X125517326Y-52009301D01*
X125695879Y-52083443D01*
X125790608Y-52083526D01*
X125923645Y-52119659D01*
X126202716Y-52083885D01*
X126396050Y-52084054D01*
X126483600Y-52047879D01*
X126604790Y-52032344D01*
X126821168Y-51908399D01*
X127043157Y-51816675D01*
X127126448Y-51733529D01*
X127200671Y-51691013D01*
X127307416Y-51552877D01*
X127538685Y-51322011D01*
X127600087Y-51174137D01*
X127620571Y-51147630D01*
X127638491Y-51081651D01*
X127807193Y-50675371D01*
X127807446Y-50385142D01*
X127846093Y-49824761D01*
X127758778Y-49143617D01*
X127417447Y-48547735D01*
X126874064Y-48127835D01*
X126211355Y-47947841D01*
X125530210Y-48035156D01*
X124934329Y-48376487D01*
X124514429Y-48919870D01*
X124334435Y-49582579D01*
X124311506Y-49915056D01*
X124287807Y-49972129D01*
X124287196Y-50672300D01*
X122447839Y-50672300D01*
X122675767Y-50331183D01*
X122785000Y-49782032D01*
X122785000Y-49317968D01*
X122675767Y-48768817D01*
X122364698Y-48303270D01*
X121899151Y-47992201D01*
X121350000Y-47882968D01*
X120800849Y-47992201D01*
X120335302Y-48303270D01*
X120024233Y-48768817D01*
X119915000Y-49317968D01*
X118017779Y-49317968D01*
X118075767Y-49231183D01*
X118185000Y-48682032D01*
X118185000Y-48217968D01*
X118075767Y-47668817D01*
X117764698Y-47203270D01*
X117542754Y-47054971D01*
X118014821Y-47054971D01*
X118172058Y-47435515D01*
X118462954Y-47726919D01*
X118843223Y-47884820D01*
X119254971Y-47885179D01*
X119635515Y-47727942D01*
X119926919Y-47437046D01*
X120084820Y-47056777D01*
X120085179Y-46645029D01*
X119927942Y-46264485D01*
X119637046Y-45973081D01*
X119256777Y-45815180D01*
X118845029Y-45814821D01*
X118464485Y-45972058D01*
X118173081Y-46262954D01*
X118015180Y-46643223D01*
X118014821Y-47054971D01*
X117542754Y-47054971D01*
X117299151Y-46892201D01*
X116750000Y-46782968D01*
X116200849Y-46892201D01*
X115735302Y-47203270D01*
X115424233Y-47668817D01*
X115315000Y-48217968D01*
X115051905Y-48217968D01*
X115098058Y-47561769D01*
X114879856Y-46908757D01*
X114789883Y-46775222D01*
X114726279Y-46753846D01*
X114916540Y-46754012D01*
X115471729Y-46524612D01*
X115896870Y-46100213D01*
X115992931Y-45868872D01*
X116200849Y-46007799D01*
X116750000Y-46117032D01*
X117299151Y-46007799D01*
X117764698Y-45696730D01*
X117867557Y-45542790D01*
X121997238Y-45542790D01*
X122226638Y-46097979D01*
X122651037Y-46523120D01*
X123205825Y-46753488D01*
X123806540Y-46754012D01*
X124361729Y-46524612D01*
X124786870Y-46100213D01*
X124926321Y-45764376D01*
X125958145Y-45764376D01*
X126357528Y-46730957D01*
X127096404Y-47471123D01*
X128062285Y-47872192D01*
X129108126Y-47873105D01*
X130074707Y-47473722D01*
X130814873Y-46734846D01*
X131215942Y-45768965D01*
X131216855Y-44723124D01*
X130817472Y-43756543D01*
X130078596Y-43016377D01*
X129112715Y-42615308D01*
X128066874Y-42614395D01*
X127100293Y-43013778D01*
X126360127Y-43752654D01*
X125959058Y-44718535D01*
X125958145Y-45764376D01*
X124926321Y-45764376D01*
X125017238Y-45545425D01*
X125017762Y-44944710D01*
X124788362Y-44389521D01*
X124363963Y-43964380D01*
X123809175Y-43734012D01*
X123208460Y-43733488D01*
X122653271Y-43962888D01*
X122228130Y-44387287D01*
X121997762Y-44942075D01*
X121997238Y-45542790D01*
X117867557Y-45542790D01*
X118075767Y-45231183D01*
X118185000Y-44682032D01*
X118185000Y-44217968D01*
X118075767Y-43668817D01*
X117764698Y-43203270D01*
X117353343Y-42928411D01*
X117654424Y-42770637D01*
X118014428Y-42339226D01*
X118181934Y-41802886D01*
X118029471Y-41577000D01*
X116877000Y-41577000D01*
X116877000Y-41597000D01*
X116623000Y-41597000D01*
X116623000Y-41577000D01*
X115470529Y-41577000D01*
X115318066Y-41802886D01*
X115485572Y-42339226D01*
X115845576Y-42770637D01*
X116146657Y-42928411D01*
X115735302Y-43203270D01*
X115424233Y-43668817D01*
X115373721Y-43922756D01*
X114919175Y-43734012D01*
X114318460Y-43733488D01*
X113763271Y-43962888D01*
X113338130Y-44387287D01*
X113107762Y-44942075D01*
X113107238Y-45542790D01*
X113309391Y-46032037D01*
X112701573Y-46141645D01*
X112122335Y-46513829D01*
X111467334Y-47243829D01*
X111744075Y-47492138D01*
X111632049Y-47495675D01*
X111451181Y-47570593D01*
X111297703Y-47432883D01*
X110642703Y-48162882D01*
X110592985Y-48262499D01*
X110514727Y-48294371D01*
X110267330Y-48949379D01*
X108597516Y-48949379D01*
X108367447Y-48547735D01*
X107824064Y-48127835D01*
X107161355Y-47947841D01*
X106480210Y-48035156D01*
X105884329Y-48376487D01*
X105464429Y-48919870D01*
X105284435Y-49582579D01*
X105261506Y-49915056D01*
X105237807Y-49972129D01*
X105237196Y-50672300D01*
X94047644Y-50672300D01*
X94259965Y-50460349D01*
X94261619Y-50459110D01*
X94265159Y-50455165D01*
X94478685Y-50242011D01*
X94497870Y-50195807D01*
X95643339Y-48919180D01*
X95993427Y-48328401D01*
X96090784Y-47648619D01*
X95920590Y-46983326D01*
X95748654Y-46753909D01*
X95866540Y-46754012D01*
X96421729Y-46524612D01*
X96846870Y-46100213D01*
X97077238Y-45545425D01*
X97077240Y-45542790D01*
X102947238Y-45542790D01*
X103176638Y-46097979D01*
X103601037Y-46523120D01*
X104155825Y-46753488D01*
X104756540Y-46754012D01*
X105311729Y-46524612D01*
X105736870Y-46100213D01*
X105876321Y-45764376D01*
X106908145Y-45764376D01*
X107307528Y-46730957D01*
X108046404Y-47471123D01*
X109012285Y-47872192D01*
X110058126Y-47873105D01*
X111024707Y-47473722D01*
X111764873Y-46734846D01*
X112165942Y-45768965D01*
X112166855Y-44723124D01*
X111767472Y-43756543D01*
X111028596Y-43016377D01*
X110062715Y-42615308D01*
X109016874Y-42614395D01*
X108050293Y-43013778D01*
X107310127Y-43752654D01*
X106909058Y-44718535D01*
X106908145Y-45764376D01*
X105876321Y-45764376D01*
X105967238Y-45545425D01*
X105967762Y-44944710D01*
X105738362Y-44389521D01*
X105313963Y-43964380D01*
X104759175Y-43734012D01*
X104158460Y-43733488D01*
X103603271Y-43962888D01*
X103178130Y-44387287D01*
X102947762Y-44942075D01*
X102947238Y-45542790D01*
X97077240Y-45542790D01*
X97077762Y-44944710D01*
X96848362Y-44389521D01*
X96423963Y-43964380D01*
X95869175Y-43734012D01*
X95268460Y-43733488D01*
X94713271Y-43962888D01*
X94288130Y-44387287D01*
X94057762Y-44942075D01*
X94057238Y-45542790D01*
X94240664Y-45986714D01*
X94238193Y-45986360D01*
X93572899Y-46156554D01*
X93023379Y-46568391D01*
X91709804Y-48032372D01*
X91496315Y-48245489D01*
X91346330Y-48606692D01*
X91291571Y-48699100D01*
X91282942Y-48759348D01*
X91227807Y-48892129D01*
X91227586Y-49145869D01*
X91194214Y-49378881D01*
X89679419Y-49378881D01*
X89615602Y-49063299D01*
X89231272Y-48492047D01*
X88657590Y-48111356D01*
X88504518Y-48061402D01*
X88224022Y-48160064D01*
X88196785Y-48555003D01*
X87941626Y-48563059D01*
X87970624Y-48142588D01*
X87706328Y-48006354D01*
X87547846Y-48034822D01*
X86927335Y-48333154D01*
X86468224Y-48846237D01*
X86240409Y-49495959D01*
X86220409Y-49785959D01*
X86268029Y-49789243D01*
X86177330Y-50029379D01*
X75597199Y-50029379D01*
X75817664Y-49783671D01*
X75666242Y-49647806D01*
X75707670Y-49538121D01*
X75701353Y-49338053D01*
X75987295Y-49594617D01*
X76642295Y-48864618D01*
X76949753Y-48248576D01*
X76998058Y-47561769D01*
X76779856Y-46908757D01*
X76689883Y-46775222D01*
X76626279Y-46753846D01*
X76816540Y-46754012D01*
X77371729Y-46524612D01*
X77796870Y-46100213D01*
X78027238Y-45545425D01*
X78027240Y-45542790D01*
X83897238Y-45542790D01*
X84126638Y-46097979D01*
X84551037Y-46523120D01*
X85105825Y-46753488D01*
X85706540Y-46754012D01*
X86261729Y-46524612D01*
X86686870Y-46100213D01*
X86826321Y-45764376D01*
X87858145Y-45764376D01*
X88257528Y-46730957D01*
X88996404Y-47471123D01*
X89962285Y-47872192D01*
X91008126Y-47873105D01*
X91974707Y-47473722D01*
X92714873Y-46734846D01*
X93115942Y-45768965D01*
X93116855Y-44723124D01*
X92717472Y-43756543D01*
X91978596Y-43016377D01*
X91012715Y-42615308D01*
X89966874Y-42614395D01*
X89000293Y-43013778D01*
X88260127Y-43752654D01*
X87859058Y-44718535D01*
X87858145Y-45764376D01*
X86826321Y-45764376D01*
X86917238Y-45545425D01*
X86917762Y-44944710D01*
X86688362Y-44389521D01*
X86263963Y-43964380D01*
X85709175Y-43734012D01*
X85108460Y-43733488D01*
X84553271Y-43962888D01*
X84128130Y-44387287D01*
X83897762Y-44942075D01*
X83897238Y-45542790D01*
X78027240Y-45542790D01*
X78027762Y-44944710D01*
X77798362Y-44389521D01*
X77373963Y-43964380D01*
X76819175Y-43734012D01*
X76218460Y-43733488D01*
X75663271Y-43962888D01*
X75238130Y-44387287D01*
X75007762Y-44942075D01*
X75007238Y-45542790D01*
X75209391Y-46032037D01*
X74601573Y-46141645D01*
X74022335Y-46513829D01*
X73367334Y-47243829D01*
X73644075Y-47492138D01*
X73532049Y-47495675D01*
X73351181Y-47570593D01*
X73197703Y-47432883D01*
X72542703Y-48162882D01*
X72492985Y-48262499D01*
X72414727Y-48294371D01*
X72167330Y-48949379D01*
X70497516Y-48949379D01*
X70267447Y-48547735D01*
X69724064Y-48127835D01*
X69061355Y-47947841D01*
X68380210Y-48035156D01*
X67784329Y-48376487D01*
X67364429Y-48919870D01*
X67184435Y-49582579D01*
X67161506Y-49915056D01*
X67137807Y-49972129D01*
X67137196Y-50672300D01*
X55947644Y-50672300D01*
X56159965Y-50460349D01*
X56161619Y-50459110D01*
X56165159Y-50455165D01*
X56378685Y-50242011D01*
X56397870Y-50195807D01*
X57543339Y-48919180D01*
X57893427Y-48328401D01*
X57962859Y-47843599D01*
X60164699Y-47843599D01*
X60428281Y-48481515D01*
X60915918Y-48970004D01*
X61553373Y-49234699D01*
X62243599Y-49235301D01*
X62881515Y-48971719D01*
X63370004Y-48484082D01*
X63634699Y-47846627D01*
X63635301Y-47156401D01*
X63371719Y-46518485D01*
X62884082Y-46029996D01*
X62246627Y-45765301D01*
X61556401Y-45764699D01*
X60918485Y-46028281D01*
X60429996Y-46515918D01*
X60165301Y-47153373D01*
X60164699Y-47843599D01*
X57962859Y-47843599D01*
X57990784Y-47648619D01*
X57820590Y-46983326D01*
X57648654Y-46753909D01*
X57766540Y-46754012D01*
X58321729Y-46524612D01*
X58746870Y-46100213D01*
X58977238Y-45545425D01*
X58977240Y-45542790D01*
X64847238Y-45542790D01*
X65076638Y-46097979D01*
X65501037Y-46523120D01*
X66055825Y-46753488D01*
X66656540Y-46754012D01*
X67211729Y-46524612D01*
X67636870Y-46100213D01*
X67776321Y-45764376D01*
X68808145Y-45764376D01*
X69207528Y-46730957D01*
X69946404Y-47471123D01*
X70912285Y-47872192D01*
X71958126Y-47873105D01*
X72924707Y-47473722D01*
X73664873Y-46734846D01*
X74065942Y-45768965D01*
X74066855Y-44723124D01*
X73667472Y-43756543D01*
X72928596Y-43016377D01*
X71962715Y-42615308D01*
X70916874Y-42614395D01*
X69950293Y-43013778D01*
X69210127Y-43752654D01*
X68809058Y-44718535D01*
X68808145Y-45764376D01*
X67776321Y-45764376D01*
X67867238Y-45545425D01*
X67867762Y-44944710D01*
X67638362Y-44389521D01*
X67213963Y-43964380D01*
X66659175Y-43734012D01*
X66058460Y-43733488D01*
X65503271Y-43962888D01*
X65078130Y-44387287D01*
X64847762Y-44942075D01*
X64847238Y-45542790D01*
X58977240Y-45542790D01*
X58977762Y-44944710D01*
X58748362Y-44389521D01*
X58323963Y-43964380D01*
X57769175Y-43734012D01*
X57168460Y-43733488D01*
X56613271Y-43962888D01*
X56188130Y-44387287D01*
X55957762Y-44942075D01*
X55957238Y-45542790D01*
X56140664Y-45986714D01*
X56138193Y-45986360D01*
X55472899Y-46156554D01*
X54923379Y-46568391D01*
X53609804Y-48032372D01*
X53396315Y-48245489D01*
X53246330Y-48606692D01*
X53191571Y-48699100D01*
X53182942Y-48759348D01*
X53127807Y-48892129D01*
X53127586Y-49145869D01*
X53094214Y-49378881D01*
X51579419Y-49378881D01*
X51515602Y-49063299D01*
X51131272Y-48492047D01*
X50557590Y-48111356D01*
X50404518Y-48061402D01*
X50124022Y-48160064D01*
X50096785Y-48555003D01*
X49841626Y-48563059D01*
X49870624Y-48142588D01*
X49606328Y-48006354D01*
X49447846Y-48034822D01*
X48827335Y-48333154D01*
X48368224Y-48846237D01*
X48140409Y-49495959D01*
X48120409Y-49785959D01*
X48168029Y-49789243D01*
X48077330Y-50029379D01*
X46100000Y-50029379D01*
X46100000Y-46171469D01*
X46451037Y-46523120D01*
X47005825Y-46753488D01*
X47606540Y-46754012D01*
X48161729Y-46524612D01*
X48586870Y-46100213D01*
X48726321Y-45764376D01*
X49758145Y-45764376D01*
X50157528Y-46730957D01*
X50896404Y-47471123D01*
X51862285Y-47872192D01*
X52908126Y-47873105D01*
X53874707Y-47473722D01*
X54614873Y-46734846D01*
X55015942Y-45768965D01*
X55016855Y-44723124D01*
X54617472Y-43756543D01*
X53878596Y-43016377D01*
X52912715Y-42615308D01*
X51866874Y-42614395D01*
X50900293Y-43013778D01*
X50160127Y-43752654D01*
X49759058Y-44718535D01*
X49758145Y-45764376D01*
X48726321Y-45764376D01*
X48817238Y-45545425D01*
X48817762Y-44944710D01*
X48588362Y-44389521D01*
X48163963Y-43964380D01*
X47609175Y-43734012D01*
X47008460Y-43733488D01*
X46453271Y-43962888D01*
X46100000Y-44315542D01*
X46100000Y-40587000D01*
X75935000Y-40587000D01*
X75935000Y-41837000D01*
X76089028Y-42357349D01*
X76430460Y-42779145D01*
X76907316Y-43038173D01*
X76978815Y-43052318D01*
X77193000Y-42929656D01*
X77193000Y-40587000D01*
X77447000Y-40587000D01*
X77447000Y-42929656D01*
X77661185Y-43052318D01*
X77732684Y-43038173D01*
X78209540Y-42779145D01*
X78550972Y-42357349D01*
X78705000Y-41837000D01*
X78705000Y-40587000D01*
X83235000Y-40587000D01*
X83235000Y-41837000D01*
X83389028Y-42357349D01*
X83730460Y-42779145D01*
X84207316Y-43038173D01*
X84278815Y-43052318D01*
X84493000Y-42929656D01*
X84493000Y-40587000D01*
X84747000Y-40587000D01*
X84747000Y-42929656D01*
X84961185Y-43052318D01*
X85032684Y-43038173D01*
X85509540Y-42779145D01*
X85850972Y-42357349D01*
X86005000Y-41837000D01*
X86005000Y-41097114D01*
X115318066Y-41097114D01*
X115470529Y-41323000D01*
X116623000Y-41323000D01*
X116623000Y-39980085D01*
X116877000Y-39980085D01*
X116877000Y-41323000D01*
X118029471Y-41323000D01*
X118181934Y-41097114D01*
X118014428Y-40560774D01*
X117654424Y-40129363D01*
X117512462Y-40054971D01*
X118014821Y-40054971D01*
X118172058Y-40435515D01*
X118462954Y-40726919D01*
X118843223Y-40884820D01*
X119254971Y-40885179D01*
X119635515Y-40727942D01*
X119926919Y-40437046D01*
X120084820Y-40056777D01*
X120085179Y-39645029D01*
X119927942Y-39264485D01*
X119637046Y-38973081D01*
X119256777Y-38815180D01*
X118845029Y-38814821D01*
X118464485Y-38972058D01*
X118173081Y-39262954D01*
X118015180Y-39643223D01*
X118014821Y-40054971D01*
X117512462Y-40054971D01*
X117156730Y-39868558D01*
X117099039Y-39858096D01*
X116877000Y-39980085D01*
X116623000Y-39980085D01*
X116400961Y-39858096D01*
X116343270Y-39868558D01*
X115845576Y-40129363D01*
X115485572Y-40560774D01*
X115318066Y-41097114D01*
X86005000Y-41097114D01*
X86005000Y-40587000D01*
X84747000Y-40587000D01*
X84493000Y-40587000D01*
X83235000Y-40587000D01*
X78705000Y-40587000D01*
X77447000Y-40587000D01*
X77193000Y-40587000D01*
X75935000Y-40587000D01*
X46100000Y-40587000D01*
X46100000Y-40313498D01*
X46216672Y-39755997D01*
X46499621Y-39341522D01*
X46894987Y-39083000D01*
X75935000Y-39083000D01*
X75935000Y-40333000D01*
X77193000Y-40333000D01*
X77193000Y-37990344D01*
X77447000Y-37990344D01*
X77447000Y-40333000D01*
X78705000Y-40333000D01*
X78705000Y-39083000D01*
X83235000Y-39083000D01*
X83235000Y-40333000D01*
X84493000Y-40333000D01*
X84493000Y-37990344D01*
X84747000Y-37990344D01*
X84747000Y-40333000D01*
X86005000Y-40333000D01*
X86005000Y-39083000D01*
X85850972Y-38562651D01*
X85509540Y-38140855D01*
X85032684Y-37881827D01*
X84961185Y-37867682D01*
X84747000Y-37990344D01*
X84493000Y-37990344D01*
X84278815Y-37867682D01*
X84207316Y-37881827D01*
X83730460Y-38140855D01*
X83389028Y-38562651D01*
X83235000Y-39083000D01*
X78705000Y-39083000D01*
X78550972Y-38562651D01*
X78209540Y-38140855D01*
X77732684Y-37881827D01*
X77661185Y-37867682D01*
X77447000Y-37990344D01*
X77193000Y-37990344D01*
X76978815Y-37867682D01*
X76907316Y-37881827D01*
X76430460Y-38140855D01*
X76089028Y-38562651D01*
X75935000Y-39083000D01*
X46894987Y-39083000D01*
X46919646Y-39066876D01*
X47486363Y-38960000D01*
X75110000Y-38960000D01*
X75381705Y-38905954D01*
X75612046Y-38752046D01*
X77404092Y-36960000D01*
X84535908Y-36960000D01*
X86327954Y-38752046D01*
X86327954Y-38752046D01*
G37*
X86327954Y-38752046D02*
X86558295Y-38905954D01*
X86830000Y-38960000D01*
X114250000Y-38960000D01*
X114521705Y-38905954D01*
X114752046Y-38752046D01*
X116544092Y-36960000D01*
X121555908Y-36960000D01*
X123347954Y-38752046D01*
X123578295Y-38905954D01*
X123850000Y-38960000D01*
X133516502Y-38960000D01*
X134074003Y-39076672D01*
X134488478Y-39359621D01*
X134763124Y-39779646D01*
X134870000Y-40346363D01*
X134870000Y-44311022D01*
X134523963Y-43964380D01*
X133969175Y-43734012D01*
X133368460Y-43733488D01*
X132813271Y-43962888D01*
X132388130Y-44387287D01*
X132157762Y-44942075D01*
X132157238Y-45542790D01*
X132359391Y-46032037D01*
X131751573Y-46141645D01*
X131172335Y-46513829D01*
X130517334Y-47243829D01*
X130794075Y-47492138D01*
X130682049Y-47495675D01*
X130501181Y-47570593D01*
X130347703Y-47432883D01*
X129692703Y-48162882D01*
X129642985Y-48262499D01*
X129564727Y-48294371D01*
X129317330Y-48949379D01*
X129339425Y-49649201D01*
X129564727Y-50193129D01*
X129620591Y-50215880D01*
X129645115Y-50252278D01*
X129926965Y-50347002D01*
X131082505Y-49059150D01*
X131087500Y-49064145D01*
X131791462Y-48360183D01*
X131935198Y-48489152D01*
X131921841Y-48504038D01*
X131966630Y-48544225D01*
X131786762Y-48724093D01*
X131752211Y-48693092D01*
X131092494Y-49428349D01*
X131087500Y-49423355D01*
X130024158Y-50486697D01*
X130138121Y-50766523D01*
X130365751Y-50852499D01*
X130383094Y-50861632D01*
X130399227Y-50865143D01*
X130793129Y-51013920D01*
X131046152Y-51005931D01*
X131055850Y-51008042D01*
X131072096Y-51005112D01*
X131492951Y-50991825D01*
X132036879Y-50766523D01*
X132078608Y-50664061D01*
X132312663Y-50513671D01*
X132594515Y-50199547D01*
X132610273Y-50193129D01*
X132617543Y-50173882D01*
X132967664Y-49783671D01*
X132816242Y-49647806D01*
X132857670Y-49538121D01*
X132851353Y-49338053D01*
X133137295Y-49594617D01*
X133792295Y-48864618D01*
X134099753Y-48248576D01*
X134148058Y-47561769D01*
X133929856Y-46908757D01*
X133839883Y-46775222D01*
X133776279Y-46753846D01*
X133966540Y-46754012D01*
X134521729Y-46524612D01*
X134870000Y-46176949D01*
X134870000Y-63361022D01*
X134523963Y-63014380D01*
X133969175Y-62784012D01*
X133368460Y-62783488D01*
X132813271Y-63012888D01*
X132388130Y-63437287D01*
X132157762Y-63992075D01*
X132157238Y-64592790D01*
X132386638Y-65147979D01*
X132811037Y-65573120D01*
X133365825Y-65803488D01*
X133966540Y-65804012D01*
X134521729Y-65574612D01*
X134870000Y-65226949D01*
X134870000Y-82411022D01*
X134523963Y-82064380D01*
X133969175Y-81834012D01*
X133368460Y-81833488D01*
X132813271Y-82062888D01*
X132388130Y-82487287D01*
X132157762Y-83042075D01*
X132157238Y-83642790D01*
X132340664Y-84086714D01*
X132338193Y-84086360D01*
X131672899Y-84256554D01*
X131123379Y-84668391D01*
X129809804Y-86132372D01*
X129596315Y-86345489D01*
X129446330Y-86706692D01*
X129391571Y-86799100D01*
X129382942Y-86859348D01*
X129327807Y-86992129D01*
X129327586Y-87245869D01*
X129294214Y-87478881D01*
X129327269Y-87608096D01*
X129327196Y-87692300D01*
X129383945Y-87829644D01*
X129464408Y-88144175D01*
X129574731Y-88291381D01*
X129594575Y-88339407D01*
X129659367Y-88404312D01*
X129876244Y-88693695D01*
X130052524Y-88798156D01*
X130089239Y-88834935D01*
X130173942Y-88870107D01*
X130467024Y-89043783D01*
X130658108Y-89071150D01*
X130735879Y-89103443D01*
X130884497Y-89103573D01*
X131146805Y-89141140D01*
X131292266Y-89103929D01*
X131436050Y-89104054D01*
X131670575Y-89007150D01*
X131812099Y-88970946D01*
X131878335Y-88921306D01*
X132083157Y-88836675D01*
X132359965Y-88560349D01*
X132361619Y-88559110D01*
X132365159Y-88555165D01*
X132578685Y-88342011D01*
X132597870Y-88295807D01*
X133743339Y-87019180D01*
X134093427Y-86428401D01*
X134190784Y-85748619D01*
X134020590Y-85083326D01*
X133848654Y-84853909D01*
X133966540Y-84854012D01*
X134521729Y-84624612D01*
X134870000Y-84276949D01*
X134870000Y-88300000D01*
X134883055Y-88365631D01*
X134882299Y-88441578D01*
X135027647Y-89212295D01*
X135131109Y-89469278D01*
X135560334Y-90125704D01*
X135680136Y-90247913D01*
X135754264Y-90323531D01*
X136402020Y-90765734D01*
X136580763Y-90841864D01*
X136656893Y-90874289D01*
X137424564Y-91034945D01*
X137497986Y-91035675D01*
X137570000Y-91050000D01*
X143046502Y-91050000D01*
X143604003Y-91166672D01*
X144018478Y-91449621D01*
X144293124Y-91869646D01*
X144400000Y-92436363D01*
X144400000Y-101466031D01*
X144048963Y-101114380D01*
X143494175Y-100884012D01*
X142893460Y-100883488D01*
X142338271Y-101112888D01*
X141913130Y-101537287D01*
X141682762Y-102092075D01*
X141682238Y-102692790D01*
X141884391Y-103182037D01*
X141276573Y-103291645D01*
X140697335Y-103663829D01*
X140042334Y-104393829D01*
X140319075Y-104642138D01*
X140207049Y-104645675D01*
X140026181Y-104720593D01*
X139872703Y-104582883D01*
X139217703Y-105312882D01*
X139167985Y-105412499D01*
X139089727Y-105444371D01*
X138842330Y-106099379D01*
X138864425Y-106799201D01*
X139089727Y-107343129D01*
X139145591Y-107365880D01*
X139170115Y-107402278D01*
X139360410Y-107466232D01*
X139255566Y-107571076D01*
X139267961Y-107583471D01*
X138696256Y-108154178D01*
X138366876Y-108947414D01*
X138366175Y-109750000D01*
X123634176Y-109750000D01*
X123634874Y-108951183D01*
X123306878Y-108157373D01*
X122972390Y-107822300D01*
X124287196Y-107822300D01*
X124369508Y-108021511D01*
X124376222Y-108073884D01*
X124429785Y-108167392D01*
X124554575Y-108469407D01*
X124667694Y-108582724D01*
X124717553Y-108669765D01*
X124879545Y-108794944D01*
X125049239Y-108964935D01*
X125157931Y-109010068D01*
X125260936Y-109089665D01*
X125517326Y-109159301D01*
X125695879Y-109233443D01*
X125790608Y-109233526D01*
X125923645Y-109269659D01*
X126202716Y-109233885D01*
X126396050Y-109234054D01*
X126483600Y-109197879D01*
X126604790Y-109182344D01*
X126821168Y-109058399D01*
X127043157Y-108966675D01*
X127126448Y-108883529D01*
X127200671Y-108841013D01*
X127307416Y-108702877D01*
X127538685Y-108472011D01*
X127600087Y-108324137D01*
X127620571Y-108297630D01*
X127638491Y-108231651D01*
X127807193Y-107825371D01*
X127807446Y-107535142D01*
X127846093Y-106974761D01*
X127758778Y-106293617D01*
X127647516Y-106099379D01*
X129317330Y-106099379D01*
X129339425Y-106799201D01*
X129564727Y-107343129D01*
X129620591Y-107365880D01*
X129645115Y-107402278D01*
X129926965Y-107497002D01*
X131082505Y-106209150D01*
X131087500Y-106214145D01*
X131791462Y-105510183D01*
X131935198Y-105639152D01*
X131921841Y-105654038D01*
X131966630Y-105694225D01*
X131786762Y-105874093D01*
X131752211Y-105843092D01*
X131092494Y-106578349D01*
X131087500Y-106573355D01*
X130024158Y-107636697D01*
X130138121Y-107916523D01*
X130365751Y-108002499D01*
X130383094Y-108011632D01*
X130399227Y-108015143D01*
X130793129Y-108163920D01*
X131046152Y-108155931D01*
X131055850Y-108158042D01*
X131072096Y-108155112D01*
X131492951Y-108141825D01*
X132036879Y-107916523D01*
X132075252Y-107822300D01*
X133812196Y-107822300D01*
X133894508Y-108021511D01*
X133901222Y-108073884D01*
X133954785Y-108167392D01*
X134079575Y-108469407D01*
X134192694Y-108582724D01*
X134242553Y-108669765D01*
X134404545Y-108794944D01*
X134574239Y-108964935D01*
X134682931Y-109010068D01*
X134785936Y-109089665D01*
X135042326Y-109159301D01*
X135220879Y-109233443D01*
X135315608Y-109233526D01*
X135448645Y-109269659D01*
X135727716Y-109233885D01*
X135921050Y-109234054D01*
X136008600Y-109197879D01*
X136129790Y-109182344D01*
X136346168Y-109058399D01*
X136568157Y-108966675D01*
X136651448Y-108883529D01*
X136725671Y-108841013D01*
X136832416Y-108702877D01*
X137063685Y-108472011D01*
X137125087Y-108324137D01*
X137145571Y-108297630D01*
X137163491Y-108231651D01*
X137332193Y-107825371D01*
X137332446Y-107535142D01*
X137371093Y-106974761D01*
X137283778Y-106293617D01*
X136942447Y-105697735D01*
X136399064Y-105277835D01*
X135736355Y-105097841D01*
X135055210Y-105185156D01*
X134459329Y-105526487D01*
X134039429Y-106069870D01*
X133859435Y-106732579D01*
X133836506Y-107065056D01*
X133812807Y-107122129D01*
X133812196Y-107822300D01*
X132075252Y-107822300D01*
X132078608Y-107814061D01*
X132312663Y-107663671D01*
X132594515Y-107349547D01*
X132610273Y-107343129D01*
X132617543Y-107323882D01*
X132967664Y-106933671D01*
X132816242Y-106797806D01*
X132857670Y-106688121D01*
X132851353Y-106488053D01*
X133137295Y-106744617D01*
X133792295Y-106014618D01*
X134099753Y-105398576D01*
X134148058Y-104711769D01*
X133929856Y-104058757D01*
X133839883Y-103925222D01*
X133776279Y-103903846D01*
X133966540Y-103904012D01*
X134521729Y-103674612D01*
X134946870Y-103250213D01*
X135086321Y-102914376D01*
X135483145Y-102914376D01*
X135882528Y-103880957D01*
X136621404Y-104621123D01*
X137587285Y-105022192D01*
X138633126Y-105023105D01*
X139599707Y-104623722D01*
X140339873Y-103884846D01*
X140740942Y-102918965D01*
X140741855Y-101873124D01*
X140342472Y-100906543D01*
X139603596Y-100166377D01*
X138637715Y-99765308D01*
X137591874Y-99764395D01*
X136625293Y-100163778D01*
X135885127Y-100902654D01*
X135484058Y-101868535D01*
X135483145Y-102914376D01*
X135086321Y-102914376D01*
X135177238Y-102695425D01*
X135177762Y-102094710D01*
X134948362Y-101539521D01*
X134523963Y-101114380D01*
X133969175Y-100884012D01*
X133368460Y-100883488D01*
X133350643Y-100890850D01*
X133334175Y-100884012D01*
X132733460Y-100883488D01*
X132178271Y-101112888D01*
X131753130Y-101537287D01*
X131522762Y-102092075D01*
X131522238Y-102692790D01*
X131751638Y-103247979D01*
X131788568Y-103284974D01*
X131751573Y-103291645D01*
X131172335Y-103663829D01*
X130517334Y-104393829D01*
X130794075Y-104642138D01*
X130682049Y-104645675D01*
X130501181Y-104720593D01*
X130347703Y-104582883D01*
X129692703Y-105312882D01*
X129642985Y-105412499D01*
X129564727Y-105444371D01*
X129317330Y-106099379D01*
X127647516Y-106099379D01*
X127417447Y-105697735D01*
X126874064Y-105277835D01*
X126211355Y-105097841D01*
X125530210Y-105185156D01*
X124934329Y-105526487D01*
X124514429Y-106069870D01*
X124334435Y-106732579D01*
X124311506Y-107065056D01*
X124287807Y-107122129D01*
X124287196Y-107822300D01*
X122972390Y-107822300D01*
X122797822Y-107647427D01*
X122834965Y-107610349D01*
X122836619Y-107609110D01*
X122840159Y-107605165D01*
X123053685Y-107392011D01*
X123072870Y-107345807D01*
X124218339Y-106069180D01*
X124568427Y-105478401D01*
X124665784Y-104798619D01*
X124495590Y-104133326D01*
X124323654Y-103903909D01*
X124441540Y-103904012D01*
X124996729Y-103674612D01*
X125421870Y-103250213D01*
X125561321Y-102914376D01*
X125958145Y-102914376D01*
X126357528Y-103880957D01*
X127096404Y-104621123D01*
X128062285Y-105022192D01*
X129108126Y-105023105D01*
X130074707Y-104623722D01*
X130814873Y-103884846D01*
X131215942Y-102918965D01*
X131216855Y-101873124D01*
X130817472Y-100906543D01*
X130078596Y-100166377D01*
X129112715Y-99765308D01*
X128066874Y-99764395D01*
X127100293Y-100163778D01*
X126360127Y-100902654D01*
X125959058Y-101868535D01*
X125958145Y-102914376D01*
X125561321Y-102914376D01*
X125652238Y-102695425D01*
X125652762Y-102094710D01*
X125423362Y-101539521D01*
X124998963Y-101114380D01*
X124444175Y-100884012D01*
X123843460Y-100883488D01*
X123825643Y-100890850D01*
X123809175Y-100884012D01*
X123208460Y-100883488D01*
X122653271Y-101112888D01*
X122228130Y-101537287D01*
X121997762Y-102092075D01*
X121997238Y-102692790D01*
X122226638Y-103247979D01*
X122257199Y-103278593D01*
X122147899Y-103306554D01*
X121598379Y-103718391D01*
X120284804Y-105182372D01*
X120071315Y-105395489D01*
X119921330Y-105756692D01*
X119866571Y-105849100D01*
X119857942Y-105909348D01*
X119802807Y-106042129D01*
X119802586Y-106295869D01*
X119769214Y-106528881D01*
X119802269Y-106658096D01*
X119802196Y-106742300D01*
X119858945Y-106879644D01*
X119939408Y-107194175D01*
X120049731Y-107341381D01*
X120069575Y-107389407D01*
X120134367Y-107454312D01*
X120225514Y-107575931D01*
X119646256Y-108154178D01*
X119316876Y-108947414D01*
X119316175Y-109750000D01*
X118808176Y-109750000D01*
X118808874Y-108951183D01*
X118480878Y-108157373D01*
X118237670Y-107913740D01*
X118292670Y-107768121D01*
X118284414Y-107506613D01*
X118289591Y-107431541D01*
X118282027Y-107431019D01*
X118273971Y-107175861D01*
X118307067Y-107178143D01*
X118327067Y-106888143D01*
X118190602Y-106213299D01*
X117806272Y-105642047D01*
X117232590Y-105261356D01*
X117079518Y-105211402D01*
X116799022Y-105310064D01*
X116771785Y-105705003D01*
X116516626Y-105713059D01*
X116545624Y-105292588D01*
X116281328Y-105156354D01*
X116122846Y-105184822D01*
X115502335Y-105483154D01*
X115043224Y-105996237D01*
X114815409Y-106645959D01*
X114795409Y-106935959D01*
X114843029Y-106939243D01*
X114752330Y-107179379D01*
X114760586Y-107440884D01*
X114757933Y-107479357D01*
X114762517Y-107502024D01*
X114774425Y-107879201D01*
X114868412Y-108106106D01*
X114820256Y-108154178D01*
X114490876Y-108947414D01*
X114490175Y-109750000D01*
X99758176Y-109750000D01*
X99758874Y-108951183D01*
X99430878Y-108157373D01*
X99187670Y-107913740D01*
X99242670Y-107768121D01*
X99234414Y-107506613D01*
X99239591Y-107431541D01*
X99232027Y-107431019D01*
X99223971Y-107175861D01*
X99257067Y-107178143D01*
X99277067Y-106888143D01*
X99204419Y-106528881D01*
X100719214Y-106528881D01*
X100752269Y-106658096D01*
X100752196Y-106742300D01*
X100808945Y-106879644D01*
X100889408Y-107194175D01*
X100999731Y-107341381D01*
X101019575Y-107389407D01*
X101084367Y-107454312D01*
X101301244Y-107743695D01*
X101477524Y-107848156D01*
X101514239Y-107884935D01*
X101598942Y-107920107D01*
X101892024Y-108093783D01*
X102083108Y-108121150D01*
X102160879Y-108153443D01*
X102309497Y-108153573D01*
X102571805Y-108191140D01*
X102717266Y-108153929D01*
X102861050Y-108154054D01*
X103095575Y-108057150D01*
X103237099Y-108020946D01*
X103303335Y-107971306D01*
X103508157Y-107886675D01*
X103572644Y-107822300D01*
X105237196Y-107822300D01*
X105319508Y-108021511D01*
X105326222Y-108073884D01*
X105379785Y-108167392D01*
X105504575Y-108469407D01*
X105617694Y-108582724D01*
X105667553Y-108669765D01*
X105829545Y-108794944D01*
X105999239Y-108964935D01*
X106107931Y-109010068D01*
X106210936Y-109089665D01*
X106467326Y-109159301D01*
X106645879Y-109233443D01*
X106740608Y-109233526D01*
X106873645Y-109269659D01*
X107152716Y-109233885D01*
X107346050Y-109234054D01*
X107433600Y-109197879D01*
X107554790Y-109182344D01*
X107771168Y-109058399D01*
X107993157Y-108966675D01*
X108076448Y-108883529D01*
X108150671Y-108841013D01*
X108257416Y-108702877D01*
X108488685Y-108472011D01*
X108550087Y-108324137D01*
X108570571Y-108297630D01*
X108588491Y-108231651D01*
X108757193Y-107825371D01*
X108757446Y-107535142D01*
X108796093Y-106974761D01*
X108708778Y-106293617D01*
X108597516Y-106099379D01*
X110267330Y-106099379D01*
X110289425Y-106799201D01*
X110514727Y-107343129D01*
X110570591Y-107365880D01*
X110595115Y-107402278D01*
X110876965Y-107497002D01*
X112032505Y-106209150D01*
X112037500Y-106214145D01*
X112741462Y-105510183D01*
X112885198Y-105639152D01*
X112871841Y-105654038D01*
X112916630Y-105694225D01*
X112736762Y-105874093D01*
X112702211Y-105843092D01*
X112042494Y-106578349D01*
X112037500Y-106573355D01*
X110974158Y-107636697D01*
X111088121Y-107916523D01*
X111315751Y-108002499D01*
X111333094Y-108011632D01*
X111349227Y-108015143D01*
X111743129Y-108163920D01*
X111996152Y-108155931D01*
X112005850Y-108158042D01*
X112022096Y-108155112D01*
X112442951Y-108141825D01*
X112986879Y-107916523D01*
X113028608Y-107814061D01*
X113262663Y-107663671D01*
X113544515Y-107349547D01*
X113560273Y-107343129D01*
X113567543Y-107323882D01*
X113917664Y-106933671D01*
X113766242Y-106797806D01*
X113807670Y-106688121D01*
X113801353Y-106488053D01*
X114087295Y-106744617D01*
X114742295Y-106014618D01*
X115049753Y-105398576D01*
X115098058Y-104711769D01*
X114879856Y-104058757D01*
X114789883Y-103925222D01*
X114726279Y-103903846D01*
X114916540Y-103904012D01*
X115471729Y-103674612D01*
X115896870Y-103250213D01*
X116036321Y-102914376D01*
X116433145Y-102914376D01*
X116832528Y-103880957D01*
X117571404Y-104621123D01*
X118537285Y-105022192D01*
X119583126Y-105023105D01*
X120549707Y-104623722D01*
X121289873Y-103884846D01*
X121690942Y-102918965D01*
X121691855Y-101873124D01*
X121292472Y-100906543D01*
X120553596Y-100166377D01*
X119587715Y-99765308D01*
X118541874Y-99764395D01*
X117575293Y-100163778D01*
X116835127Y-100902654D01*
X116434058Y-101868535D01*
X116433145Y-102914376D01*
X116036321Y-102914376D01*
X116127238Y-102695425D01*
X116127762Y-102094710D01*
X115898362Y-101539521D01*
X115473963Y-101114380D01*
X114919175Y-100884012D01*
X114318460Y-100883488D01*
X114300643Y-100890850D01*
X114284175Y-100884012D01*
X113683460Y-100883488D01*
X113128271Y-101112888D01*
X112703130Y-101537287D01*
X112472762Y-102092075D01*
X112472238Y-102692790D01*
X112701638Y-103247979D01*
X112738568Y-103284974D01*
X112701573Y-103291645D01*
X112122335Y-103663829D01*
X111467334Y-104393829D01*
X111744075Y-104642138D01*
X111632049Y-104645675D01*
X111451181Y-104720593D01*
X111297703Y-104582883D01*
X110642703Y-105312882D01*
X110592985Y-105412499D01*
X110514727Y-105444371D01*
X110267330Y-106099379D01*
X108597516Y-106099379D01*
X108367447Y-105697735D01*
X107824064Y-105277835D01*
X107161355Y-105097841D01*
X106480210Y-105185156D01*
X105884329Y-105526487D01*
X105464429Y-106069870D01*
X105284435Y-106732579D01*
X105261506Y-107065056D01*
X105237807Y-107122129D01*
X105237196Y-107822300D01*
X103572644Y-107822300D01*
X103784965Y-107610349D01*
X103786619Y-107609110D01*
X103790159Y-107605165D01*
X104003685Y-107392011D01*
X104022870Y-107345807D01*
X105168339Y-106069180D01*
X105518427Y-105478401D01*
X105615784Y-104798619D01*
X105445590Y-104133326D01*
X105273654Y-103903909D01*
X105391540Y-103904012D01*
X105946729Y-103674612D01*
X106371870Y-103250213D01*
X106511321Y-102914376D01*
X106908145Y-102914376D01*
X107307528Y-103880957D01*
X108046404Y-104621123D01*
X109012285Y-105022192D01*
X110058126Y-105023105D01*
X111024707Y-104623722D01*
X111764873Y-103884846D01*
X112165942Y-102918965D01*
X112166855Y-101873124D01*
X111767472Y-100906543D01*
X111028596Y-100166377D01*
X110062715Y-99765308D01*
X109016874Y-99764395D01*
X108050293Y-100163778D01*
X107310127Y-100902654D01*
X106909058Y-101868535D01*
X106908145Y-102914376D01*
X106511321Y-102914376D01*
X106602238Y-102695425D01*
X106602762Y-102094710D01*
X106373362Y-101539521D01*
X105948963Y-101114380D01*
X105394175Y-100884012D01*
X104793460Y-100883488D01*
X104775643Y-100890850D01*
X104759175Y-100884012D01*
X104158460Y-100883488D01*
X103603271Y-101112888D01*
X103178130Y-101537287D01*
X102947762Y-102092075D01*
X102947238Y-102692790D01*
X103176638Y-103247979D01*
X103207199Y-103278593D01*
X103097899Y-103306554D01*
X102548379Y-103718391D01*
X101234804Y-105182372D01*
X101021315Y-105395489D01*
X100871330Y-105756692D01*
X100816571Y-105849100D01*
X100807942Y-105909348D01*
X100752807Y-106042129D01*
X100752586Y-106295869D01*
X100719214Y-106528881D01*
X99204419Y-106528881D01*
X99140602Y-106213299D01*
X98756272Y-105642047D01*
X98182590Y-105261356D01*
X98029518Y-105211402D01*
X97749022Y-105310064D01*
X97721785Y-105705003D01*
X97466626Y-105713059D01*
X97495624Y-105292588D01*
X97231328Y-105156354D01*
X97072846Y-105184822D01*
X96452335Y-105483154D01*
X95993224Y-105996237D01*
X95765409Y-106645959D01*
X95745409Y-106935959D01*
X95793029Y-106939243D01*
X95702330Y-107179379D01*
X95710586Y-107440884D01*
X95707933Y-107479357D01*
X95712517Y-107502024D01*
X95724425Y-107879201D01*
X95818412Y-108106106D01*
X95770256Y-108154178D01*
X95440876Y-108947414D01*
X95440175Y-109750000D01*
X95083498Y-109750000D01*
X94525997Y-109633328D01*
X94111523Y-109350380D01*
X93836876Y-108930354D01*
X93730000Y-108363638D01*
X93730000Y-103326478D01*
X94076037Y-103673120D01*
X94630825Y-103903488D01*
X95231540Y-103904012D01*
X95786729Y-103674612D01*
X96211870Y-103250213D01*
X96351321Y-102914376D01*
X97383145Y-102914376D01*
X97782528Y-103880957D01*
X98521404Y-104621123D01*
X99487285Y-105022192D01*
X100533126Y-105023105D01*
X101499707Y-104623722D01*
X102239873Y-103884846D01*
X102640942Y-102918965D01*
X102641855Y-101873124D01*
X102242472Y-100906543D01*
X101503596Y-100166377D01*
X100537715Y-99765308D01*
X99491874Y-99764395D01*
X98525293Y-100163778D01*
X97785127Y-100902654D01*
X97384058Y-101868535D01*
X97383145Y-102914376D01*
X96351321Y-102914376D01*
X96442238Y-102695425D01*
X96442762Y-102094710D01*
X96213362Y-101539521D01*
X95788963Y-101114380D01*
X95234175Y-100884012D01*
X94633460Y-100883488D01*
X94078271Y-101112888D01*
X93730000Y-101460551D01*
X93730000Y-94659376D01*
X94970145Y-94659376D01*
X95369528Y-95625957D01*
X96108404Y-96366123D01*
X97074285Y-96767192D01*
X98120126Y-96768105D01*
X99086707Y-96368722D01*
X99826873Y-95629846D01*
X100227942Y-94663965D01*
X100228178Y-94393599D01*
X107764699Y-94393599D01*
X108028281Y-95031515D01*
X108515918Y-95520004D01*
X109153373Y-95784699D01*
X109843599Y-95785301D01*
X110481515Y-95521719D01*
X110970004Y-95034082D01*
X111125595Y-94659376D01*
X114020145Y-94659376D01*
X114419528Y-95625957D01*
X115158404Y-96366123D01*
X116124285Y-96767192D01*
X117170126Y-96768105D01*
X118136707Y-96368722D01*
X118876873Y-95629846D01*
X119062461Y-95182901D01*
X119245528Y-95625957D01*
X119984404Y-96366123D01*
X120950285Y-96767192D01*
X121996126Y-96768105D01*
X122962707Y-96368722D01*
X123702873Y-95629846D01*
X124103942Y-94663965D01*
X124104134Y-94443599D01*
X126864699Y-94443599D01*
X127128281Y-95081515D01*
X127615918Y-95570004D01*
X128253373Y-95834699D01*
X128943599Y-95835301D01*
X129581515Y-95571719D01*
X130070004Y-95084082D01*
X130246357Y-94659376D01*
X137896145Y-94659376D01*
X138295528Y-95625957D01*
X139034404Y-96366123D01*
X140000285Y-96767192D01*
X141046126Y-96768105D01*
X142012707Y-96368722D01*
X142752873Y-95629846D01*
X143153942Y-94663965D01*
X143154855Y-93618124D01*
X142755472Y-92651543D01*
X142016596Y-91911377D01*
X141050715Y-91510308D01*
X140004874Y-91509395D01*
X139038293Y-91908778D01*
X138298127Y-92647654D01*
X137897058Y-93613535D01*
X137896145Y-94659376D01*
X130246357Y-94659376D01*
X130334699Y-94446627D01*
X130335301Y-93756401D01*
X130071719Y-93118485D01*
X129584082Y-92629996D01*
X128946627Y-92365301D01*
X128256401Y-92364699D01*
X127618485Y-92628281D01*
X127129996Y-93115918D01*
X126865301Y-93753373D01*
X126864699Y-94443599D01*
X124104134Y-94443599D01*
X124104855Y-93618124D01*
X123705472Y-92651543D01*
X122966596Y-91911377D01*
X122000715Y-91510308D01*
X120954874Y-91509395D01*
X119988293Y-91908778D01*
X119248127Y-92647654D01*
X119062539Y-93094599D01*
X118879472Y-92651543D01*
X118140596Y-91911377D01*
X117174715Y-91510308D01*
X116128874Y-91509395D01*
X115162293Y-91908778D01*
X114422127Y-92647654D01*
X114021058Y-93613535D01*
X114020145Y-94659376D01*
X111125595Y-94659376D01*
X111234699Y-94396627D01*
X111235301Y-93706401D01*
X110971719Y-93068485D01*
X110484082Y-92579996D01*
X109846627Y-92315301D01*
X109156401Y-92314699D01*
X108518485Y-92578281D01*
X108029996Y-93065918D01*
X107765301Y-93703373D01*
X107764699Y-94393599D01*
X100228178Y-94393599D01*
X100228855Y-93618124D01*
X99829472Y-92651543D01*
X99090596Y-91911377D01*
X98124715Y-91510308D01*
X97078874Y-91509395D01*
X96112293Y-91908778D01*
X95372127Y-92647654D01*
X94971058Y-93613535D01*
X94970145Y-94659376D01*
X93730000Y-94659376D01*
X93730000Y-92380000D01*
X93716945Y-92314369D01*
X93717701Y-92238422D01*
X93572353Y-91467706D01*
X93566774Y-91453848D01*
X93468891Y-91210722D01*
X93039666Y-90554296D01*
X92845736Y-90356469D01*
X92197980Y-89914267D01*
X92179552Y-89906418D01*
X91943107Y-89805711D01*
X91175436Y-89645055D01*
X91102014Y-89644325D01*
X91030000Y-89630000D01*
X89275510Y-89630000D01*
X89304434Y-89601076D01*
X89257972Y-89554614D01*
X89391750Y-89405108D01*
X89470273Y-89373129D01*
X89717670Y-88718121D01*
X89709414Y-88456613D01*
X89714591Y-88381541D01*
X89707027Y-88381019D01*
X89698971Y-88125861D01*
X89732067Y-88128143D01*
X89752067Y-87838143D01*
X89679419Y-87478881D01*
X91194214Y-87478881D01*
X91227269Y-87608096D01*
X91227196Y-87692300D01*
X91283945Y-87829644D01*
X91364408Y-88144175D01*
X91474731Y-88291381D01*
X91494575Y-88339407D01*
X91559367Y-88404312D01*
X91776244Y-88693695D01*
X91952524Y-88798156D01*
X91989239Y-88834935D01*
X92073942Y-88870107D01*
X92367024Y-89043783D01*
X92558108Y-89071150D01*
X92635879Y-89103443D01*
X92784497Y-89103573D01*
X93046805Y-89141140D01*
X93192266Y-89103929D01*
X93336050Y-89104054D01*
X93570575Y-89007150D01*
X93712099Y-88970946D01*
X93778335Y-88921306D01*
X93983157Y-88836675D01*
X94259965Y-88560349D01*
X94261619Y-88559110D01*
X94265159Y-88555165D01*
X94478685Y-88342011D01*
X94497870Y-88295807D01*
X94647199Y-88129379D01*
X105227330Y-88129379D01*
X105235586Y-88390884D01*
X105232933Y-88429357D01*
X105237517Y-88452024D01*
X105249425Y-88829201D01*
X105474727Y-89373129D01*
X105578862Y-89415539D01*
X105753728Y-89675453D01*
X106005866Y-89842770D01*
X106048121Y-89946523D01*
X106312952Y-90046550D01*
X106327410Y-90056144D01*
X106407892Y-90082409D01*
X106703129Y-90193920D01*
X106964627Y-90185664D01*
X107003109Y-90188318D01*
X107003376Y-90184440D01*
X107402951Y-90171825D01*
X107946879Y-89946523D01*
X107976714Y-89873266D01*
X108057665Y-89834346D01*
X108441750Y-89405108D01*
X108520273Y-89373129D01*
X108767670Y-88718121D01*
X108759414Y-88456613D01*
X108764591Y-88381541D01*
X108757027Y-88381019D01*
X108748971Y-88125861D01*
X108782067Y-88128143D01*
X108802067Y-87838143D01*
X108729419Y-87478881D01*
X110244214Y-87478881D01*
X110277269Y-87608096D01*
X110277196Y-87692300D01*
X110333945Y-87829644D01*
X110414408Y-88144175D01*
X110524731Y-88291381D01*
X110544575Y-88339407D01*
X110609367Y-88404312D01*
X110826244Y-88693695D01*
X111002524Y-88798156D01*
X111039239Y-88834935D01*
X111123942Y-88870107D01*
X111417024Y-89043783D01*
X111608108Y-89071150D01*
X111685879Y-89103443D01*
X111834497Y-89103573D01*
X112096805Y-89141140D01*
X112242266Y-89103929D01*
X112386050Y-89104054D01*
X112620575Y-89007150D01*
X112762099Y-88970946D01*
X112828335Y-88921306D01*
X113033157Y-88836675D01*
X113309965Y-88560349D01*
X113311619Y-88559110D01*
X113315159Y-88555165D01*
X113528685Y-88342011D01*
X113547870Y-88295807D01*
X113697199Y-88129379D01*
X124277330Y-88129379D01*
X124285586Y-88390884D01*
X124282933Y-88429357D01*
X124287517Y-88452024D01*
X124299425Y-88829201D01*
X124524727Y-89373129D01*
X124628862Y-89415539D01*
X124803728Y-89675453D01*
X125055866Y-89842770D01*
X125098121Y-89946523D01*
X125362952Y-90046550D01*
X125377410Y-90056144D01*
X125457892Y-90082409D01*
X125753129Y-90193920D01*
X126014627Y-90185664D01*
X126053109Y-90188318D01*
X126053376Y-90184440D01*
X126452951Y-90171825D01*
X126996879Y-89946523D01*
X127026714Y-89873266D01*
X127107665Y-89834346D01*
X127491750Y-89405108D01*
X127570273Y-89373129D01*
X127817670Y-88718121D01*
X127809414Y-88456613D01*
X127814591Y-88381541D01*
X127807027Y-88381019D01*
X127798971Y-88125861D01*
X127832067Y-88128143D01*
X127852067Y-87838143D01*
X127715602Y-87163299D01*
X127331272Y-86592047D01*
X126757590Y-86211356D01*
X126604518Y-86161402D01*
X126324022Y-86260064D01*
X126296785Y-86655003D01*
X126041626Y-86663059D01*
X126070624Y-86242588D01*
X125806328Y-86106354D01*
X125647846Y-86134822D01*
X125027335Y-86433154D01*
X124568224Y-86946237D01*
X124340409Y-87595959D01*
X124320409Y-87885959D01*
X124368029Y-87889243D01*
X124277330Y-88129379D01*
X113697199Y-88129379D01*
X114693339Y-87019180D01*
X115043427Y-86428401D01*
X115140784Y-85748619D01*
X114970590Y-85083326D01*
X114798654Y-84853909D01*
X114916540Y-84854012D01*
X115471729Y-84624612D01*
X115896870Y-84200213D01*
X116127238Y-83645425D01*
X116127240Y-83642790D01*
X121997238Y-83642790D01*
X122226638Y-84197979D01*
X122651037Y-84623120D01*
X123205825Y-84853488D01*
X123806540Y-84854012D01*
X124361729Y-84624612D01*
X124786870Y-84200213D01*
X124926321Y-83864376D01*
X125958145Y-83864376D01*
X126357528Y-84830957D01*
X127096404Y-85571123D01*
X128062285Y-85972192D01*
X129108126Y-85973105D01*
X130074707Y-85573722D01*
X130814873Y-84834846D01*
X131215942Y-83868965D01*
X131216855Y-82823124D01*
X130817472Y-81856543D01*
X130078596Y-81116377D01*
X129112715Y-80715308D01*
X128066874Y-80714395D01*
X127100293Y-81113778D01*
X126360127Y-81852654D01*
X125959058Y-82818535D01*
X125958145Y-83864376D01*
X124926321Y-83864376D01*
X125017238Y-83645425D01*
X125017762Y-83044710D01*
X124788362Y-82489521D01*
X124363963Y-82064380D01*
X123809175Y-81834012D01*
X123208460Y-81833488D01*
X122653271Y-82062888D01*
X122228130Y-82487287D01*
X121997762Y-83042075D01*
X121997238Y-83642790D01*
X116127240Y-83642790D01*
X116127762Y-83044710D01*
X115898362Y-82489521D01*
X115473963Y-82064380D01*
X114919175Y-81834012D01*
X114318460Y-81833488D01*
X113763271Y-82062888D01*
X113338130Y-82487287D01*
X113107762Y-83042075D01*
X113107238Y-83642790D01*
X113290664Y-84086714D01*
X113288193Y-84086360D01*
X112622899Y-84256554D01*
X112073379Y-84668391D01*
X110759804Y-86132372D01*
X110546315Y-86345489D01*
X110396330Y-86706692D01*
X110341571Y-86799100D01*
X110332942Y-86859348D01*
X110277807Y-86992129D01*
X110277586Y-87245869D01*
X110244214Y-87478881D01*
X108729419Y-87478881D01*
X108665602Y-87163299D01*
X108281272Y-86592047D01*
X107707590Y-86211356D01*
X107554518Y-86161402D01*
X107274022Y-86260064D01*
X107246785Y-86655003D01*
X106991626Y-86663059D01*
X107020624Y-86242588D01*
X106756328Y-86106354D01*
X106597846Y-86134822D01*
X105977335Y-86433154D01*
X105518224Y-86946237D01*
X105290409Y-87595959D01*
X105270409Y-87885959D01*
X105318029Y-87889243D01*
X105227330Y-88129379D01*
X94647199Y-88129379D01*
X95643339Y-87019180D01*
X95993427Y-86428401D01*
X96090784Y-85748619D01*
X95920590Y-85083326D01*
X95748654Y-84853909D01*
X95866540Y-84854012D01*
X96421729Y-84624612D01*
X96846870Y-84200213D01*
X97077238Y-83645425D01*
X97077240Y-83642790D01*
X102947238Y-83642790D01*
X103176638Y-84197979D01*
X103601037Y-84623120D01*
X104155825Y-84853488D01*
X104756540Y-84854012D01*
X105311729Y-84624612D01*
X105736870Y-84200213D01*
X105876321Y-83864376D01*
X106908145Y-83864376D01*
X107307528Y-84830957D01*
X108046404Y-85571123D01*
X109012285Y-85972192D01*
X110058126Y-85973105D01*
X111024707Y-85573722D01*
X111764873Y-84834846D01*
X112165942Y-83868965D01*
X112166855Y-82823124D01*
X111767472Y-81856543D01*
X111028596Y-81116377D01*
X110062715Y-80715308D01*
X109016874Y-80714395D01*
X108050293Y-81113778D01*
X107310127Y-81852654D01*
X106909058Y-82818535D01*
X106908145Y-83864376D01*
X105876321Y-83864376D01*
X105967238Y-83645425D01*
X105967762Y-83044710D01*
X105738362Y-82489521D01*
X105313963Y-82064380D01*
X104759175Y-81834012D01*
X104158460Y-81833488D01*
X103603271Y-82062888D01*
X103178130Y-82487287D01*
X102947762Y-83042075D01*
X102947238Y-83642790D01*
X97077240Y-83642790D01*
X97077762Y-83044710D01*
X96848362Y-82489521D01*
X96423963Y-82064380D01*
X95869175Y-81834012D01*
X95268460Y-81833488D01*
X94713271Y-82062888D01*
X94288130Y-82487287D01*
X94057762Y-83042075D01*
X94057238Y-83642790D01*
X94240664Y-84086714D01*
X94238193Y-84086360D01*
X93572899Y-84256554D01*
X93023379Y-84668391D01*
X91709804Y-86132372D01*
X91496315Y-86345489D01*
X91346330Y-86706692D01*
X91291571Y-86799100D01*
X91282942Y-86859348D01*
X91227807Y-86992129D01*
X91227586Y-87245869D01*
X91194214Y-87478881D01*
X89679419Y-87478881D01*
X89615602Y-87163299D01*
X89231272Y-86592047D01*
X88657590Y-86211356D01*
X88504518Y-86161402D01*
X88224022Y-86260064D01*
X88196785Y-86655003D01*
X87941626Y-86663059D01*
X87970624Y-86242588D01*
X87706328Y-86106354D01*
X87547846Y-86134822D01*
X86927335Y-86433154D01*
X86468224Y-86946237D01*
X86240409Y-87595959D01*
X86220409Y-87885959D01*
X86268029Y-87889243D01*
X86177330Y-88129379D01*
X86185586Y-88390884D01*
X86182933Y-88429357D01*
X86187517Y-88452024D01*
X86199425Y-88829201D01*
X86424727Y-89373129D01*
X86528862Y-89415539D01*
X86628301Y-89563341D01*
X86590566Y-89601076D01*
X86619490Y-89630000D01*
X70180333Y-89630000D01*
X70388685Y-89422011D01*
X70450087Y-89274137D01*
X70470571Y-89247630D01*
X70488491Y-89181651D01*
X70657193Y-88775371D01*
X70657446Y-88485142D01*
X70696093Y-87924761D01*
X70608778Y-87243617D01*
X70497516Y-87049379D01*
X72167330Y-87049379D01*
X72189425Y-87749201D01*
X72414727Y-88293129D01*
X72470591Y-88315880D01*
X72495115Y-88352278D01*
X72776965Y-88447002D01*
X73932505Y-87159150D01*
X73937500Y-87164145D01*
X74641462Y-86460183D01*
X74785198Y-86589152D01*
X74771841Y-86604038D01*
X74816630Y-86644225D01*
X74636762Y-86824093D01*
X74602211Y-86793092D01*
X73942494Y-87528349D01*
X73937500Y-87523355D01*
X72874158Y-88586697D01*
X72988121Y-88866523D01*
X73215751Y-88952499D01*
X73233094Y-88961632D01*
X73249227Y-88965143D01*
X73643129Y-89113920D01*
X73896152Y-89105931D01*
X73905850Y-89108042D01*
X73922096Y-89105112D01*
X74342951Y-89091825D01*
X74886879Y-88866523D01*
X74928608Y-88764061D01*
X75162663Y-88613671D01*
X75444515Y-88299547D01*
X75460273Y-88293129D01*
X75467543Y-88273882D01*
X75817664Y-87883671D01*
X75666242Y-87747806D01*
X75707670Y-87638121D01*
X75701353Y-87438053D01*
X75987295Y-87694617D01*
X76380048Y-87256892D01*
X77018514Y-87256892D01*
X77264817Y-87781358D01*
X77693076Y-88171645D01*
X78103110Y-88341476D01*
X78333000Y-88220155D01*
X78333000Y-87027000D01*
X77139181Y-87027000D01*
X77018514Y-87256892D01*
X76380048Y-87256892D01*
X76642295Y-86964618D01*
X76852664Y-86543108D01*
X77018514Y-86543108D01*
X77139181Y-86773000D01*
X78333000Y-86773000D01*
X78333000Y-85579845D01*
X78587000Y-85579845D01*
X78587000Y-86773000D01*
X78607000Y-86773000D01*
X78607000Y-87027000D01*
X78587000Y-87027000D01*
X78587000Y-88220155D01*
X78816890Y-88341476D01*
X79226924Y-88171645D01*
X79655183Y-87781358D01*
X79722298Y-87638447D01*
X79949946Y-87979147D01*
X80431715Y-88301054D01*
X81000000Y-88414093D01*
X81568285Y-88301054D01*
X82050054Y-87979147D01*
X82253385Y-87674840D01*
X82280344Y-87740086D01*
X82697717Y-88158188D01*
X83243319Y-88384742D01*
X83834089Y-88385257D01*
X84380086Y-88159656D01*
X84798188Y-87742283D01*
X85024742Y-87196681D01*
X85025257Y-86605911D01*
X84799656Y-86059914D01*
X84382283Y-85641812D01*
X83836681Y-85415258D01*
X83245911Y-85414743D01*
X82699914Y-85640344D01*
X82281812Y-86057717D01*
X82253645Y-86125550D01*
X82050054Y-85820853D01*
X81568285Y-85498946D01*
X81000000Y-85385907D01*
X80431715Y-85498946D01*
X79949946Y-85820853D01*
X79722298Y-86161553D01*
X79655183Y-86018642D01*
X79226924Y-85628355D01*
X78816890Y-85458524D01*
X78587000Y-85579845D01*
X78333000Y-85579845D01*
X78103110Y-85458524D01*
X77693076Y-85628355D01*
X77264817Y-86018642D01*
X77018514Y-86543108D01*
X76852664Y-86543108D01*
X76949753Y-86348576D01*
X76998058Y-85661769D01*
X76779856Y-85008757D01*
X76689883Y-84875222D01*
X76626279Y-84853846D01*
X76816540Y-84854012D01*
X77371729Y-84624612D01*
X77796870Y-84200213D01*
X78027238Y-83645425D01*
X78027240Y-83642790D01*
X83897238Y-83642790D01*
X84126638Y-84197979D01*
X84551037Y-84623120D01*
X85105825Y-84853488D01*
X85706540Y-84854012D01*
X86261729Y-84624612D01*
X86686870Y-84200213D01*
X86826321Y-83864376D01*
X87858145Y-83864376D01*
X88257528Y-84830957D01*
X88996404Y-85571123D01*
X89962285Y-85972192D01*
X91008126Y-85973105D01*
X91974707Y-85573722D01*
X92714873Y-84834846D01*
X93115942Y-83868965D01*
X93116855Y-82823124D01*
X92717472Y-81856543D01*
X91978596Y-81116377D01*
X91012715Y-80715308D01*
X89966874Y-80714395D01*
X89000293Y-81113778D01*
X88260127Y-81852654D01*
X87859058Y-82818535D01*
X87858145Y-83864376D01*
X86826321Y-83864376D01*
X86917238Y-83645425D01*
X86917762Y-83044710D01*
X86688362Y-82489521D01*
X86263963Y-82064380D01*
X85709175Y-81834012D01*
X85108460Y-81833488D01*
X84553271Y-82062888D01*
X84128130Y-82487287D01*
X83897762Y-83042075D01*
X83897238Y-83642790D01*
X78027240Y-83642790D01*
X78027762Y-83044710D01*
X77798362Y-82489521D01*
X77373963Y-82064380D01*
X76819175Y-81834012D01*
X76218460Y-81833488D01*
X75663271Y-82062888D01*
X75238130Y-82487287D01*
X75007762Y-83042075D01*
X75007238Y-83642790D01*
X75209391Y-84132037D01*
X74601573Y-84241645D01*
X74022335Y-84613829D01*
X73367334Y-85343829D01*
X73644075Y-85592138D01*
X73532049Y-85595675D01*
X73351181Y-85670593D01*
X73197703Y-85532883D01*
X72542703Y-86262882D01*
X72492985Y-86362499D01*
X72414727Y-86394371D01*
X72167330Y-87049379D01*
X70497516Y-87049379D01*
X70267447Y-86647735D01*
X69724064Y-86227835D01*
X69061355Y-86047841D01*
X68380210Y-86135156D01*
X67784329Y-86476487D01*
X67364429Y-87019870D01*
X67184435Y-87682579D01*
X67161506Y-88015056D01*
X67137807Y-88072129D01*
X67137196Y-88772300D01*
X67219508Y-88971511D01*
X67226222Y-89023884D01*
X67279785Y-89117392D01*
X67404575Y-89419407D01*
X67517694Y-89532724D01*
X67567553Y-89619765D01*
X67580798Y-89630000D01*
X51175510Y-89630000D01*
X51204434Y-89601076D01*
X51157972Y-89554614D01*
X51291750Y-89405108D01*
X51370273Y-89373129D01*
X51617670Y-88718121D01*
X51609414Y-88456613D01*
X51614591Y-88381541D01*
X51607027Y-88381019D01*
X51598971Y-88125861D01*
X51632067Y-88128143D01*
X51652067Y-87838143D01*
X51579419Y-87478881D01*
X53094214Y-87478881D01*
X53127269Y-87608096D01*
X53127196Y-87692300D01*
X53183945Y-87829644D01*
X53264408Y-88144175D01*
X53374731Y-88291381D01*
X53394575Y-88339407D01*
X53459367Y-88404312D01*
X53676244Y-88693695D01*
X53852524Y-88798156D01*
X53889239Y-88834935D01*
X53973942Y-88870107D01*
X54267024Y-89043783D01*
X54458108Y-89071150D01*
X54535879Y-89103443D01*
X54684497Y-89103573D01*
X54946805Y-89141140D01*
X55092266Y-89103929D01*
X55236050Y-89104054D01*
X55470575Y-89007150D01*
X55612099Y-88970946D01*
X55678335Y-88921306D01*
X55883157Y-88836675D01*
X56159965Y-88560349D01*
X56161619Y-88559110D01*
X56165159Y-88555165D01*
X56378685Y-88342011D01*
X56397870Y-88295807D01*
X57543339Y-87019180D01*
X57893427Y-86428401D01*
X57990784Y-85748619D01*
X57820590Y-85083326D01*
X57648654Y-84853909D01*
X57766540Y-84854012D01*
X58321729Y-84624612D01*
X58746870Y-84200213D01*
X58977238Y-83645425D01*
X58977240Y-83642790D01*
X64847238Y-83642790D01*
X65076638Y-84197979D01*
X65501037Y-84623120D01*
X66055825Y-84853488D01*
X66656540Y-84854012D01*
X67211729Y-84624612D01*
X67636870Y-84200213D01*
X67776321Y-83864376D01*
X68808145Y-83864376D01*
X69207528Y-84830957D01*
X69946404Y-85571123D01*
X70912285Y-85972192D01*
X71958126Y-85973105D01*
X72924707Y-85573722D01*
X73664873Y-84834846D01*
X74065942Y-83868965D01*
X74066855Y-82823124D01*
X73667472Y-81856543D01*
X72928596Y-81116377D01*
X71962715Y-80715308D01*
X70916874Y-80714395D01*
X69950293Y-81113778D01*
X69210127Y-81852654D01*
X68809058Y-82818535D01*
X68808145Y-83864376D01*
X67776321Y-83864376D01*
X67867238Y-83645425D01*
X67867762Y-83044710D01*
X67638362Y-82489521D01*
X67213963Y-82064380D01*
X66659175Y-81834012D01*
X66058460Y-81833488D01*
X65503271Y-82062888D01*
X65078130Y-82487287D01*
X64847762Y-83042075D01*
X64847238Y-83642790D01*
X58977240Y-83642790D01*
X58977762Y-83044710D01*
X58748362Y-82489521D01*
X58323963Y-82064380D01*
X57769175Y-81834012D01*
X57168460Y-81833488D01*
X56613271Y-82062888D01*
X56188130Y-82487287D01*
X55957762Y-83042075D01*
X55957238Y-83642790D01*
X56140664Y-84086714D01*
X56138193Y-84086360D01*
X55472899Y-84256554D01*
X54923379Y-84668391D01*
X53609804Y-86132372D01*
X53396315Y-86345489D01*
X53246330Y-86706692D01*
X53191571Y-86799100D01*
X53182942Y-86859348D01*
X53127807Y-86992129D01*
X53127586Y-87245869D01*
X53094214Y-87478881D01*
X51579419Y-87478881D01*
X51515602Y-87163299D01*
X51131272Y-86592047D01*
X50557590Y-86211356D01*
X50404518Y-86161402D01*
X50124022Y-86260064D01*
X50096785Y-86655003D01*
X49841626Y-86663059D01*
X49870624Y-86242588D01*
X49606328Y-86106354D01*
X49447846Y-86134822D01*
X48827335Y-86433154D01*
X48368224Y-86946237D01*
X48140409Y-87595959D01*
X48120409Y-87885959D01*
X48168029Y-87889243D01*
X48077330Y-88129379D01*
X48085586Y-88390884D01*
X48082933Y-88429357D01*
X48087517Y-88452024D01*
X48099425Y-88829201D01*
X48324727Y-89373129D01*
X48428862Y-89415539D01*
X48528301Y-89563341D01*
X48490566Y-89601076D01*
X48519490Y-89630000D01*
X47453498Y-89630000D01*
X46895997Y-89513328D01*
X46481523Y-89230380D01*
X46206876Y-88810354D01*
X46100000Y-88243638D01*
X46100000Y-84271469D01*
X46451037Y-84623120D01*
X47005825Y-84853488D01*
X47606540Y-84854012D01*
X48161729Y-84624612D01*
X48586870Y-84200213D01*
X48726321Y-83864376D01*
X49758145Y-83864376D01*
X50157528Y-84830957D01*
X50896404Y-85571123D01*
X51862285Y-85972192D01*
X52908126Y-85973105D01*
X53874707Y-85573722D01*
X54614873Y-84834846D01*
X55015942Y-83868965D01*
X55016855Y-82823124D01*
X54617472Y-81856543D01*
X54205248Y-81443599D01*
X60164699Y-81443599D01*
X60428281Y-82081515D01*
X60915918Y-82570004D01*
X61553373Y-82834699D01*
X62243599Y-82835301D01*
X62881515Y-82571719D01*
X63370004Y-82084082D01*
X63634699Y-81446627D01*
X63635301Y-80756401D01*
X63371719Y-80118485D01*
X62884082Y-79629996D01*
X62246627Y-79365301D01*
X61556401Y-79364699D01*
X60918485Y-79628281D01*
X60429996Y-80115918D01*
X60165301Y-80753373D01*
X60164699Y-81443599D01*
X54205248Y-81443599D01*
X53878596Y-81116377D01*
X52912715Y-80715308D01*
X51866874Y-80714395D01*
X50900293Y-81113778D01*
X50160127Y-81852654D01*
X49759058Y-82818535D01*
X49758145Y-83864376D01*
X48726321Y-83864376D01*
X48817238Y-83645425D01*
X48817762Y-83044710D01*
X48588362Y-82489521D01*
X48163963Y-82064380D01*
X47609175Y-81834012D01*
X47008460Y-81833488D01*
X46453271Y-82062888D01*
X46100000Y-82415542D01*
X46100000Y-68880000D01*
X59185907Y-68880000D01*
X59298946Y-69448285D01*
X59620853Y-69930054D01*
X59950026Y-70150000D01*
X59620853Y-70369946D01*
X59298946Y-70851715D01*
X59185907Y-71420000D01*
X59298946Y-71988285D01*
X59620853Y-72470054D01*
X59950026Y-72690000D01*
X59620853Y-72909946D01*
X59298946Y-73391715D01*
X59185907Y-73960000D01*
X59298946Y-74528285D01*
X59620853Y-75010054D01*
X59950026Y-75230000D01*
X59620853Y-75449946D01*
X59298946Y-75931715D01*
X59185907Y-76500000D01*
X59298946Y-77068285D01*
X59620853Y-77550054D01*
X60102622Y-77871961D01*
X60670907Y-77985000D01*
X60729093Y-77985000D01*
X61297378Y-77871961D01*
X61779147Y-77550054D01*
X61970000Y-77264422D01*
X62160853Y-77550054D01*
X62642622Y-77871961D01*
X63210907Y-77985000D01*
X63269093Y-77985000D01*
X63837378Y-77871961D01*
X64319147Y-77550054D01*
X64641054Y-77068285D01*
X64754093Y-76500000D01*
X64641054Y-75931715D01*
X64319147Y-75449946D01*
X63989974Y-75230000D01*
X64319147Y-75010054D01*
X64641054Y-74528285D01*
X64754093Y-73960000D01*
X64641054Y-73391715D01*
X64319147Y-72909946D01*
X63989974Y-72690000D01*
X64319147Y-72470054D01*
X64641054Y-71988285D01*
X64754093Y-71420000D01*
X64641054Y-70851715D01*
X64468915Y-70594089D01*
X89914743Y-70594089D01*
X90140344Y-71140086D01*
X90557717Y-71558188D01*
X91103319Y-71784742D01*
X91694089Y-71785257D01*
X92240086Y-71559656D01*
X92658188Y-71142283D01*
X92690229Y-71065120D01*
X92744817Y-71181358D01*
X93173076Y-71571645D01*
X93583110Y-71741476D01*
X93813000Y-71620155D01*
X93813000Y-70427000D01*
X94067000Y-70427000D01*
X94067000Y-71620155D01*
X94296890Y-71741476D01*
X94706924Y-71571645D01*
X95135183Y-71181358D01*
X95381486Y-70656892D01*
X95353153Y-70602911D01*
X96075258Y-70602911D01*
X96287490Y-71116553D01*
X96680130Y-71509879D01*
X97193400Y-71723007D01*
X97749161Y-71723492D01*
X97868672Y-71674111D01*
X97868545Y-71819591D01*
X98039874Y-72234240D01*
X98356841Y-72551761D01*
X98771191Y-72723814D01*
X99219841Y-72724205D01*
X99634490Y-72552876D01*
X99952011Y-72235909D01*
X100012436Y-72090389D01*
X100071874Y-72234240D01*
X100388841Y-72551761D01*
X100803191Y-72723814D01*
X101251841Y-72724205D01*
X101666490Y-72552876D01*
X101984011Y-72235909D01*
X102156064Y-71821559D01*
X102156192Y-71674338D01*
X102273400Y-71723007D01*
X102829161Y-71723492D01*
X103342803Y-71511260D01*
X103736129Y-71118620D01*
X103949257Y-70605350D01*
X103949742Y-70049589D01*
X103737510Y-69535947D01*
X103344870Y-69142621D01*
X103136988Y-69056301D01*
X103342803Y-68971260D01*
X103736129Y-68578620D01*
X103949257Y-68065350D01*
X103949742Y-67509589D01*
X103737510Y-66995947D01*
X103344870Y-66602621D01*
X102831600Y-66389493D01*
X102275839Y-66389008D01*
X101762197Y-66601240D01*
X101368871Y-66993880D01*
X101155743Y-67507150D01*
X101155258Y-68062911D01*
X101367490Y-68576553D01*
X101760130Y-68969879D01*
X101968012Y-69056199D01*
X101762197Y-69141240D01*
X101368871Y-69533880D01*
X101155743Y-70047150D01*
X101155375Y-70468600D01*
X100805159Y-70468295D01*
X100390510Y-70639624D01*
X100072989Y-70956591D01*
X100012564Y-71102111D01*
X99953126Y-70958260D01*
X99636159Y-70640739D01*
X99221809Y-70468686D01*
X98869377Y-70468379D01*
X98869742Y-70049589D01*
X98657510Y-69535947D01*
X98264870Y-69142621D01*
X98072773Y-69062855D01*
X98203643Y-69008647D01*
X98273108Y-68766463D01*
X97472500Y-67965855D01*
X96671892Y-68766463D01*
X96741357Y-69008647D01*
X96881818Y-69058759D01*
X96682197Y-69141240D01*
X96288871Y-69533880D01*
X96075743Y-70047150D01*
X96075258Y-70602911D01*
X95353153Y-70602911D01*
X95260819Y-70427000D01*
X94067000Y-70427000D01*
X93813000Y-70427000D01*
X93793000Y-70427000D01*
X93793000Y-70173000D01*
X93813000Y-70173000D01*
X93813000Y-68979845D01*
X94067000Y-68979845D01*
X94067000Y-70173000D01*
X95260819Y-70173000D01*
X95381486Y-69943108D01*
X95135183Y-69418642D01*
X94706924Y-69028355D01*
X94296890Y-68858524D01*
X94067000Y-68979845D01*
X93813000Y-68979845D01*
X93583110Y-68858524D01*
X93173076Y-69028355D01*
X92744817Y-69418642D01*
X92690443Y-69534424D01*
X92659656Y-69459914D01*
X92242283Y-69041812D01*
X91696681Y-68815258D01*
X91105911Y-68814743D01*
X90559914Y-69040344D01*
X90141812Y-69457717D01*
X89915258Y-70003319D01*
X89914743Y-70594089D01*
X64468915Y-70594089D01*
X64319147Y-70369946D01*
X64024730Y-70173223D01*
X64104353Y-69923958D01*
X63240000Y-69059605D01*
X62375647Y-69923958D01*
X62455270Y-70173223D01*
X62160853Y-70369946D01*
X61970000Y-70655578D01*
X61779147Y-70369946D01*
X61449974Y-70150000D01*
X61779147Y-69930054D01*
X61954732Y-69667271D01*
X62196042Y-69744353D01*
X63060395Y-68880000D01*
X63419605Y-68880000D01*
X64283958Y-69744353D01*
X64535259Y-69664080D01*
X64736718Y-69108721D01*
X64710315Y-68518542D01*
X64535259Y-68095920D01*
X64283958Y-68015647D01*
X63419605Y-68880000D01*
X63060395Y-68880000D01*
X62196042Y-68015647D01*
X61954732Y-68092729D01*
X61783221Y-67836042D01*
X62375647Y-67836042D01*
X63240000Y-68700395D01*
X64104353Y-67836042D01*
X64024080Y-67584741D01*
X64007019Y-67578552D01*
X96063356Y-67578552D01*
X96091138Y-68133618D01*
X96250103Y-68517393D01*
X96492287Y-68586858D01*
X97292895Y-67786250D01*
X97652105Y-67786250D01*
X98452713Y-68586858D01*
X98694897Y-68517393D01*
X98881644Y-67993948D01*
X98853862Y-67438882D01*
X98694897Y-67055107D01*
X98452713Y-66985642D01*
X97652105Y-67786250D01*
X97292895Y-67786250D01*
X96492287Y-66985642D01*
X96250103Y-67055107D01*
X96063356Y-67578552D01*
X64007019Y-67578552D01*
X63468721Y-67383282D01*
X62878542Y-67409685D01*
X62455920Y-67584741D01*
X62375647Y-67836042D01*
X61783221Y-67836042D01*
X61779147Y-67829946D01*
X61297378Y-67508039D01*
X60729093Y-67395000D01*
X60670907Y-67395000D01*
X60102622Y-67508039D01*
X59620853Y-67829946D01*
X59298946Y-68311715D01*
X59185907Y-68880000D01*
X46100000Y-68880000D01*
X46100000Y-65221469D01*
X46451037Y-65573120D01*
X47005825Y-65803488D01*
X47606540Y-65804012D01*
X48161729Y-65574612D01*
X48586870Y-65150213D01*
X48726321Y-64814376D01*
X49758145Y-64814376D01*
X50157528Y-65780957D01*
X50896404Y-66521123D01*
X51862285Y-66922192D01*
X52908126Y-66923105D01*
X53874707Y-66523722D01*
X54614873Y-65784846D01*
X55015942Y-64818965D01*
X55016139Y-64592790D01*
X55957238Y-64592790D01*
X56186638Y-65147979D01*
X56611037Y-65573120D01*
X57165825Y-65803488D01*
X57766540Y-65804012D01*
X58321729Y-65574612D01*
X58746870Y-65150213D01*
X58977238Y-64595425D01*
X58977240Y-64592790D01*
X64847238Y-64592790D01*
X65076638Y-65147979D01*
X65501037Y-65573120D01*
X66055825Y-65803488D01*
X66656540Y-65804012D01*
X67211729Y-65574612D01*
X67636870Y-65150213D01*
X67776321Y-64814376D01*
X68808145Y-64814376D01*
X69207528Y-65780957D01*
X69946404Y-66521123D01*
X70912285Y-66922192D01*
X71958126Y-66923105D01*
X72924707Y-66523722D01*
X73664873Y-65784846D01*
X74065942Y-64818965D01*
X74066139Y-64592790D01*
X75007238Y-64592790D01*
X75236638Y-65147979D01*
X75661037Y-65573120D01*
X76215825Y-65803488D01*
X76816540Y-65804012D01*
X77371729Y-65574612D01*
X77796870Y-65150213D01*
X78027238Y-64595425D01*
X78027240Y-64592790D01*
X83897238Y-64592790D01*
X84126638Y-65147979D01*
X84551037Y-65573120D01*
X85105825Y-65803488D01*
X85706540Y-65804012D01*
X86261729Y-65574612D01*
X86686870Y-65150213D01*
X86826321Y-64814376D01*
X87858145Y-64814376D01*
X88257528Y-65780957D01*
X88996404Y-66521123D01*
X89962285Y-66922192D01*
X91008126Y-66923105D01*
X91291452Y-66806037D01*
X96671892Y-66806037D01*
X97472500Y-67606645D01*
X98273108Y-66806037D01*
X98254122Y-66739843D01*
X98883274Y-66739843D01*
X99054797Y-67154959D01*
X99372121Y-67472837D01*
X99786937Y-67645084D01*
X100236093Y-67645476D01*
X100651209Y-67473953D01*
X100969087Y-67156629D01*
X101141334Y-66741813D01*
X101141726Y-66292657D01*
X100970203Y-65877541D01*
X100652879Y-65559663D01*
X100238063Y-65387416D01*
X99788907Y-65387024D01*
X99373791Y-65558547D01*
X99055913Y-65875871D01*
X98883666Y-66290687D01*
X98883274Y-66739843D01*
X98254122Y-66739843D01*
X98203643Y-66563853D01*
X97680198Y-66377106D01*
X97125132Y-66404888D01*
X96741357Y-66563853D01*
X96671892Y-66806037D01*
X91291452Y-66806037D01*
X91974707Y-66523722D01*
X92714873Y-65784846D01*
X93115942Y-64818965D01*
X93116139Y-64592790D01*
X94057238Y-64592790D01*
X94286638Y-65147979D01*
X94711037Y-65573120D01*
X95265825Y-65803488D01*
X95866540Y-65804012D01*
X96421729Y-65574612D01*
X96846870Y-65150213D01*
X97077238Y-64595425D01*
X97077240Y-64592790D01*
X102947238Y-64592790D01*
X103176638Y-65147979D01*
X103601037Y-65573120D01*
X104155825Y-65803488D01*
X104756540Y-65804012D01*
X105311729Y-65574612D01*
X105736870Y-65150213D01*
X105876321Y-64814376D01*
X106908145Y-64814376D01*
X107307528Y-65780957D01*
X108046404Y-66521123D01*
X109012285Y-66922192D01*
X110058126Y-66923105D01*
X111024707Y-66523722D01*
X111764873Y-65784846D01*
X112165942Y-64818965D01*
X112166139Y-64592790D01*
X113107238Y-64592790D01*
X113336638Y-65147979D01*
X113761037Y-65573120D01*
X114315825Y-65803488D01*
X114916540Y-65804012D01*
X115471729Y-65574612D01*
X115896870Y-65150213D01*
X116127238Y-64595425D01*
X116127240Y-64592790D01*
X121997238Y-64592790D01*
X122226638Y-65147979D01*
X122651037Y-65573120D01*
X123205825Y-65803488D01*
X123806540Y-65804012D01*
X124361729Y-65574612D01*
X124786870Y-65150213D01*
X124926321Y-64814376D01*
X125958145Y-64814376D01*
X126357528Y-65780957D01*
X127096404Y-66521123D01*
X128062285Y-66922192D01*
X129108126Y-66923105D01*
X130074707Y-66523722D01*
X130814873Y-65784846D01*
X131215942Y-64818965D01*
X131216855Y-63773124D01*
X130817472Y-62806543D01*
X130078596Y-62066377D01*
X129112715Y-61665308D01*
X128066874Y-61664395D01*
X127100293Y-62063778D01*
X126360127Y-62802654D01*
X125959058Y-63768535D01*
X125958145Y-64814376D01*
X124926321Y-64814376D01*
X125017238Y-64595425D01*
X125017762Y-63994710D01*
X124834336Y-63550786D01*
X124836807Y-63551140D01*
X125502101Y-63380946D01*
X126051621Y-62969110D01*
X127365196Y-61505128D01*
X127578685Y-61292011D01*
X127728668Y-60930810D01*
X127783429Y-60838401D01*
X127792058Y-60778151D01*
X127847193Y-60645371D01*
X127847414Y-60391631D01*
X127880786Y-60158619D01*
X127847731Y-60029404D01*
X127847804Y-59945200D01*
X127791054Y-59807855D01*
X127788881Y-59799357D01*
X129322933Y-59799357D01*
X129459398Y-60474201D01*
X129843728Y-61045453D01*
X130417410Y-61426144D01*
X130570482Y-61476098D01*
X130850978Y-61377436D01*
X130878215Y-60982497D01*
X131133374Y-60974441D01*
X131104376Y-61394912D01*
X131368672Y-61531146D01*
X131527154Y-61502678D01*
X132147665Y-61204346D01*
X132606776Y-60691263D01*
X132834591Y-60041541D01*
X132854591Y-59751541D01*
X132806971Y-59748257D01*
X132897670Y-59508121D01*
X132889414Y-59246616D01*
X132892067Y-59208143D01*
X132887483Y-59185476D01*
X132875575Y-58808299D01*
X132650273Y-58264371D01*
X132546138Y-58221961D01*
X132371272Y-57962047D01*
X132119134Y-57794730D01*
X132076879Y-57690977D01*
X131812048Y-57590950D01*
X131797590Y-57581356D01*
X131717108Y-57555091D01*
X131421871Y-57443580D01*
X131160373Y-57451836D01*
X131121891Y-57449182D01*
X131121624Y-57453060D01*
X130722049Y-57465675D01*
X130178121Y-57690977D01*
X130148286Y-57764234D01*
X130067335Y-57803154D01*
X129683250Y-58232392D01*
X129604727Y-58264371D01*
X129357330Y-58919379D01*
X129365586Y-59180887D01*
X129360409Y-59255959D01*
X129367973Y-59256481D01*
X129376029Y-59511639D01*
X129342933Y-59509357D01*
X129322933Y-59799357D01*
X127788881Y-59799357D01*
X127710592Y-59493326D01*
X127600270Y-59346121D01*
X127580425Y-59298093D01*
X127515630Y-59233184D01*
X127298755Y-58943805D01*
X127122477Y-58839345D01*
X127085761Y-58802565D01*
X127001056Y-58767393D01*
X126707976Y-58593717D01*
X126516892Y-58566350D01*
X126439121Y-58534057D01*
X126290503Y-58533927D01*
X126028195Y-58496360D01*
X125882734Y-58533571D01*
X125738950Y-58533446D01*
X125504425Y-58630350D01*
X125362901Y-58666554D01*
X125296665Y-58716194D01*
X125091843Y-58800825D01*
X124815031Y-59077155D01*
X124813381Y-59078391D01*
X124809850Y-59082326D01*
X124596315Y-59295489D01*
X124577129Y-59341694D01*
X123431661Y-60618320D01*
X123081573Y-61209100D01*
X122984216Y-61888881D01*
X123154410Y-62554175D01*
X123326345Y-62783591D01*
X123208460Y-62783488D01*
X122653271Y-63012888D01*
X122228130Y-63437287D01*
X121997762Y-63992075D01*
X121997238Y-64592790D01*
X116127240Y-64592790D01*
X116127762Y-63994710D01*
X115898362Y-63439521D01*
X115473963Y-63014380D01*
X114919175Y-62784012D01*
X114318460Y-62783488D01*
X113763271Y-63012888D01*
X113338130Y-63437287D01*
X113107762Y-63992075D01*
X113107238Y-64592790D01*
X112166139Y-64592790D01*
X112166855Y-63773124D01*
X111767472Y-62806543D01*
X111028596Y-62066377D01*
X110062715Y-61665308D01*
X109016874Y-61664395D01*
X108050293Y-62063778D01*
X107310127Y-62802654D01*
X106909058Y-63768535D01*
X106908145Y-64814376D01*
X105876321Y-64814376D01*
X105967238Y-64595425D01*
X105967762Y-63994710D01*
X105765609Y-63505463D01*
X106373427Y-63395855D01*
X106952665Y-63023671D01*
X107607666Y-62293671D01*
X107330925Y-62045362D01*
X107442951Y-62041825D01*
X107623819Y-61966907D01*
X107777297Y-62104617D01*
X108432297Y-61374618D01*
X108482015Y-61275001D01*
X108560273Y-61243129D01*
X108807670Y-60588121D01*
X108785575Y-59888299D01*
X108712856Y-59712739D01*
X110278907Y-59712739D01*
X110366222Y-60393884D01*
X110707553Y-60989765D01*
X111250936Y-61409665D01*
X111913645Y-61589659D01*
X112594790Y-61502344D01*
X113190671Y-61161013D01*
X113610571Y-60617630D01*
X113790565Y-59954921D01*
X113813494Y-59622444D01*
X113837193Y-59565371D01*
X113837804Y-58865200D01*
X113755491Y-58665988D01*
X113748778Y-58613617D01*
X113695216Y-58520111D01*
X113570425Y-58218093D01*
X113457305Y-58104776D01*
X113407447Y-58017735D01*
X113245455Y-57892556D01*
X113075761Y-57722565D01*
X112967069Y-57677432D01*
X112864064Y-57597835D01*
X112607674Y-57528199D01*
X112429121Y-57454057D01*
X112334392Y-57453974D01*
X112201355Y-57417841D01*
X111922284Y-57453615D01*
X111728950Y-57453446D01*
X111641400Y-57489621D01*
X111520210Y-57505156D01*
X111303832Y-57629101D01*
X111081843Y-57720825D01*
X110998552Y-57803971D01*
X110924329Y-57846487D01*
X110817584Y-57984623D01*
X110586315Y-58215489D01*
X110524913Y-58363363D01*
X110504429Y-58389870D01*
X110486509Y-58455849D01*
X110317807Y-58862129D01*
X110317554Y-59152358D01*
X110278907Y-59712739D01*
X108712856Y-59712739D01*
X108560273Y-59344371D01*
X108504409Y-59321620D01*
X108479885Y-59285222D01*
X108198035Y-59190498D01*
X107042495Y-60478350D01*
X107037500Y-60473355D01*
X106333538Y-61177317D01*
X106189802Y-61048348D01*
X106203159Y-61033462D01*
X106158370Y-60993275D01*
X106338238Y-60813407D01*
X106372789Y-60844408D01*
X107032506Y-60109151D01*
X107037500Y-60114145D01*
X108100842Y-59050803D01*
X107986879Y-58770977D01*
X107759249Y-58685001D01*
X107741906Y-58675868D01*
X107725773Y-58672357D01*
X107331871Y-58523580D01*
X107078848Y-58531569D01*
X107069150Y-58529458D01*
X107052904Y-58532388D01*
X106632049Y-58545675D01*
X106088121Y-58770977D01*
X106046392Y-58873439D01*
X105812337Y-59023829D01*
X105530485Y-59337953D01*
X105514727Y-59344371D01*
X105507457Y-59363618D01*
X105157336Y-59753829D01*
X105308758Y-59889694D01*
X105267330Y-59999379D01*
X105273647Y-60199447D01*
X104987705Y-59942883D01*
X104332705Y-60672882D01*
X104025247Y-61288924D01*
X103976942Y-61975731D01*
X104195144Y-62628743D01*
X104285117Y-62762278D01*
X104348721Y-62783654D01*
X104158460Y-62783488D01*
X103603271Y-63012888D01*
X103178130Y-63437287D01*
X102947762Y-63992075D01*
X102947238Y-64592790D01*
X97077240Y-64592790D01*
X97077762Y-63994710D01*
X96848362Y-63439521D01*
X96423963Y-63014380D01*
X95869175Y-62784012D01*
X95268460Y-62783488D01*
X94713271Y-63012888D01*
X94288130Y-63437287D01*
X94057762Y-63992075D01*
X94057238Y-64592790D01*
X93116139Y-64592790D01*
X93116855Y-63773124D01*
X92717472Y-62806543D01*
X91978596Y-62066377D01*
X91012715Y-61665308D01*
X89966874Y-61664395D01*
X89000293Y-62063778D01*
X88260127Y-62802654D01*
X87859058Y-63768535D01*
X87858145Y-64814376D01*
X86826321Y-64814376D01*
X86917238Y-64595425D01*
X86917762Y-63994710D01*
X86715609Y-63505463D01*
X87323427Y-63395855D01*
X87902665Y-63023671D01*
X88557666Y-62293671D01*
X88280925Y-62045362D01*
X88392951Y-62041825D01*
X88573819Y-61966907D01*
X88727297Y-62104617D01*
X89382297Y-61374618D01*
X89432015Y-61275001D01*
X89510273Y-61243129D01*
X89757670Y-60588121D01*
X89735575Y-59888299D01*
X89662856Y-59712739D01*
X91228907Y-59712739D01*
X91316222Y-60393884D01*
X91657553Y-60989765D01*
X92200936Y-61409665D01*
X92863645Y-61589659D01*
X93544790Y-61502344D01*
X94140671Y-61161013D01*
X94560571Y-60617630D01*
X94740565Y-59954921D01*
X94763494Y-59622444D01*
X94787193Y-59565371D01*
X94787804Y-58865200D01*
X94705491Y-58665988D01*
X94698778Y-58613617D01*
X94645216Y-58520111D01*
X94520425Y-58218093D01*
X94407305Y-58104776D01*
X94357447Y-58017735D01*
X94195455Y-57892556D01*
X94025761Y-57722565D01*
X93917069Y-57677432D01*
X93814064Y-57597835D01*
X93557674Y-57528199D01*
X93379121Y-57454057D01*
X93284392Y-57453974D01*
X93151355Y-57417841D01*
X92872284Y-57453615D01*
X92678950Y-57453446D01*
X92591400Y-57489621D01*
X92470210Y-57505156D01*
X92253832Y-57629101D01*
X92031843Y-57720825D01*
X91948552Y-57803971D01*
X91874329Y-57846487D01*
X91767584Y-57984623D01*
X91536315Y-58215489D01*
X91474913Y-58363363D01*
X91454429Y-58389870D01*
X91436509Y-58455849D01*
X91267807Y-58862129D01*
X91267554Y-59152358D01*
X91228907Y-59712739D01*
X89662856Y-59712739D01*
X89510273Y-59344371D01*
X89454409Y-59321620D01*
X89429885Y-59285222D01*
X89148035Y-59190498D01*
X87992495Y-60478350D01*
X87987500Y-60473355D01*
X87283538Y-61177317D01*
X87139802Y-61048348D01*
X87153159Y-61033462D01*
X87108370Y-60993275D01*
X87288238Y-60813407D01*
X87322789Y-60844408D01*
X87982506Y-60109151D01*
X87987500Y-60114145D01*
X89050842Y-59050803D01*
X88936879Y-58770977D01*
X88709249Y-58685001D01*
X88691906Y-58675868D01*
X88675773Y-58672357D01*
X88281871Y-58523580D01*
X88028848Y-58531569D01*
X88019150Y-58529458D01*
X88002904Y-58532388D01*
X87582049Y-58545675D01*
X87038121Y-58770977D01*
X86996392Y-58873439D01*
X86762337Y-59023829D01*
X86480485Y-59337953D01*
X86464727Y-59344371D01*
X86457457Y-59363618D01*
X86107336Y-59753829D01*
X86258758Y-59889694D01*
X86217330Y-59999379D01*
X86223647Y-60199447D01*
X85937705Y-59942883D01*
X85282705Y-60672882D01*
X84975247Y-61288924D01*
X84926942Y-61975731D01*
X85145144Y-62628743D01*
X85235117Y-62762278D01*
X85298721Y-62783654D01*
X85108460Y-62783488D01*
X84553271Y-63012888D01*
X84128130Y-63437287D01*
X83897762Y-63992075D01*
X83897238Y-64592790D01*
X78027240Y-64592790D01*
X78027762Y-63994710D01*
X77798362Y-63439521D01*
X77373963Y-63014380D01*
X76819175Y-62784012D01*
X76218460Y-62783488D01*
X75663271Y-63012888D01*
X75238130Y-63437287D01*
X75007762Y-63992075D01*
X75007238Y-64592790D01*
X74066139Y-64592790D01*
X74066855Y-63773124D01*
X73667472Y-62806543D01*
X72928596Y-62066377D01*
X71962715Y-61665308D01*
X70916874Y-61664395D01*
X69950293Y-62063778D01*
X69210127Y-62802654D01*
X68809058Y-63768535D01*
X68808145Y-64814376D01*
X67776321Y-64814376D01*
X67867238Y-64595425D01*
X67867762Y-63994710D01*
X67684336Y-63550786D01*
X67686807Y-63551140D01*
X68352101Y-63380946D01*
X68901621Y-62969110D01*
X70215196Y-61505128D01*
X70428685Y-61292011D01*
X70578668Y-60930810D01*
X70633429Y-60838401D01*
X70642058Y-60778151D01*
X70697193Y-60645371D01*
X70697414Y-60391631D01*
X70730786Y-60158619D01*
X70697731Y-60029404D01*
X70697804Y-59945200D01*
X70641054Y-59807855D01*
X70638881Y-59799357D01*
X72172933Y-59799357D01*
X72309398Y-60474201D01*
X72693728Y-61045453D01*
X73267410Y-61426144D01*
X73420482Y-61476098D01*
X73700978Y-61377436D01*
X73728215Y-60982497D01*
X73983374Y-60974441D01*
X73954376Y-61394912D01*
X74218672Y-61531146D01*
X74377154Y-61502678D01*
X74997665Y-61204346D01*
X75456776Y-60691263D01*
X75684591Y-60041541D01*
X75704591Y-59751541D01*
X75656971Y-59748257D01*
X75747670Y-59508121D01*
X75739414Y-59246616D01*
X75742067Y-59208143D01*
X75737483Y-59185476D01*
X75725575Y-58808299D01*
X75500273Y-58264371D01*
X75396138Y-58221961D01*
X75221272Y-57962047D01*
X74969134Y-57794730D01*
X74926879Y-57690977D01*
X74662048Y-57590950D01*
X74647590Y-57581356D01*
X74567108Y-57555091D01*
X74271871Y-57443580D01*
X74010373Y-57451836D01*
X73971891Y-57449182D01*
X73971624Y-57453060D01*
X73572049Y-57465675D01*
X73028121Y-57690977D01*
X72998286Y-57764234D01*
X72917335Y-57803154D01*
X72533250Y-58232392D01*
X72454727Y-58264371D01*
X72207330Y-58919379D01*
X72215586Y-59180887D01*
X72210409Y-59255959D01*
X72217973Y-59256481D01*
X72226029Y-59511639D01*
X72192933Y-59509357D01*
X72172933Y-59799357D01*
X70638881Y-59799357D01*
X70560592Y-59493326D01*
X70450270Y-59346121D01*
X70430425Y-59298093D01*
X70365630Y-59233184D01*
X70148755Y-58943805D01*
X69972477Y-58839345D01*
X69935761Y-58802565D01*
X69851056Y-58767393D01*
X69557976Y-58593717D01*
X69366892Y-58566350D01*
X69289121Y-58534057D01*
X69140503Y-58533927D01*
X68878195Y-58496360D01*
X68732734Y-58533571D01*
X68588950Y-58533446D01*
X68354425Y-58630350D01*
X68212901Y-58666554D01*
X68146665Y-58716194D01*
X67941843Y-58800825D01*
X67665031Y-59077155D01*
X67663381Y-59078391D01*
X67659850Y-59082326D01*
X67446315Y-59295489D01*
X67427129Y-59341694D01*
X66281661Y-60618320D01*
X65931573Y-61209100D01*
X65834216Y-61888881D01*
X66004410Y-62554175D01*
X66176345Y-62783591D01*
X66058460Y-62783488D01*
X65503271Y-63012888D01*
X65078130Y-63437287D01*
X64847762Y-63992075D01*
X64847238Y-64592790D01*
X58977240Y-64592790D01*
X58977762Y-63994710D01*
X58748362Y-63439521D01*
X58323963Y-63014380D01*
X57769175Y-62784012D01*
X57168460Y-62783488D01*
X56613271Y-63012888D01*
X56188130Y-63437287D01*
X55957762Y-63992075D01*
X55957238Y-64592790D01*
X55016139Y-64592790D01*
X55016855Y-63773124D01*
X54617472Y-62806543D01*
X53878596Y-62066377D01*
X52912715Y-61665308D01*
X51866874Y-61664395D01*
X50900293Y-62063778D01*
X50160127Y-62802654D01*
X49759058Y-63768535D01*
X49758145Y-64814376D01*
X48726321Y-64814376D01*
X48817238Y-64595425D01*
X48817762Y-63994710D01*
X48615609Y-63505463D01*
X49223427Y-63395855D01*
X49802665Y-63023671D01*
X50457666Y-62293671D01*
X50180925Y-62045362D01*
X50292951Y-62041825D01*
X50473819Y-61966907D01*
X50627297Y-62104617D01*
X51282297Y-61374618D01*
X51332015Y-61275001D01*
X51410273Y-61243129D01*
X51657670Y-60588121D01*
X51635575Y-59888299D01*
X51562856Y-59712739D01*
X53128907Y-59712739D01*
X53216222Y-60393884D01*
X53557553Y-60989765D01*
X54100936Y-61409665D01*
X54763645Y-61589659D01*
X55444790Y-61502344D01*
X56040671Y-61161013D01*
X56460571Y-60617630D01*
X56640565Y-59954921D01*
X56663494Y-59622444D01*
X56687193Y-59565371D01*
X56687804Y-58865200D01*
X56605491Y-58665988D01*
X56598778Y-58613617D01*
X56545216Y-58520111D01*
X56420425Y-58218093D01*
X56307305Y-58104776D01*
X56257447Y-58017735D01*
X56095455Y-57892556D01*
X55925761Y-57722565D01*
X55817069Y-57677432D01*
X55714064Y-57597835D01*
X55457674Y-57528199D01*
X55279121Y-57454057D01*
X55184392Y-57453974D01*
X55147997Y-57444089D01*
X57874743Y-57444089D01*
X58100344Y-57990086D01*
X58517717Y-58408188D01*
X59063319Y-58634742D01*
X59654089Y-58635257D01*
X60200086Y-58409656D01*
X60618188Y-57992283D01*
X60646355Y-57924450D01*
X60849946Y-58229147D01*
X61331715Y-58551054D01*
X61900000Y-58664093D01*
X62468285Y-58551054D01*
X62950054Y-58229147D01*
X63177702Y-57888447D01*
X63244817Y-58031358D01*
X63673076Y-58421645D01*
X64083110Y-58591476D01*
X64313000Y-58470155D01*
X64313000Y-57277000D01*
X64567000Y-57277000D01*
X64567000Y-58470155D01*
X64796890Y-58591476D01*
X65206924Y-58421645D01*
X65635183Y-58031358D01*
X65881486Y-57506892D01*
X65760819Y-57277000D01*
X64567000Y-57277000D01*
X64313000Y-57277000D01*
X64293000Y-57277000D01*
X64293000Y-57023000D01*
X64313000Y-57023000D01*
X64313000Y-55829845D01*
X64567000Y-55829845D01*
X64567000Y-57023000D01*
X65760819Y-57023000D01*
X65881486Y-56793108D01*
X65635183Y-56268642D01*
X65206924Y-55878355D01*
X64796890Y-55708524D01*
X64567000Y-55829845D01*
X64313000Y-55829845D01*
X64083110Y-55708524D01*
X63673076Y-55878355D01*
X63244817Y-56268642D01*
X63177702Y-56411553D01*
X62950054Y-56070853D01*
X62468285Y-55748946D01*
X61900000Y-55635907D01*
X61331715Y-55748946D01*
X60849946Y-56070853D01*
X60646615Y-56375160D01*
X60619656Y-56309914D01*
X60202283Y-55891812D01*
X59656681Y-55665258D01*
X59065911Y-55664743D01*
X58519914Y-55890344D01*
X58101812Y-56307717D01*
X57875258Y-56853319D01*
X57874743Y-57444089D01*
X55147997Y-57444089D01*
X55051355Y-57417841D01*
X54772284Y-57453615D01*
X54578950Y-57453446D01*
X54491400Y-57489621D01*
X54370210Y-57505156D01*
X54153832Y-57629101D01*
X53931843Y-57720825D01*
X53848552Y-57803971D01*
X53774329Y-57846487D01*
X53667584Y-57984623D01*
X53436315Y-58215489D01*
X53374913Y-58363363D01*
X53354429Y-58389870D01*
X53336509Y-58455849D01*
X53167807Y-58862129D01*
X53167554Y-59152358D01*
X53128907Y-59712739D01*
X51562856Y-59712739D01*
X51410273Y-59344371D01*
X51354409Y-59321620D01*
X51329885Y-59285222D01*
X51048035Y-59190498D01*
X49892495Y-60478350D01*
X49887500Y-60473355D01*
X49183538Y-61177317D01*
X49039802Y-61048348D01*
X49053159Y-61033462D01*
X49008370Y-60993275D01*
X49188238Y-60813407D01*
X49222789Y-60844408D01*
X49882506Y-60109151D01*
X49887500Y-60114145D01*
X50950842Y-59050803D01*
X50836879Y-58770977D01*
X50609249Y-58685001D01*
X50591906Y-58675868D01*
X50575773Y-58672357D01*
X50181871Y-58523580D01*
X49928848Y-58531569D01*
X49919150Y-58529458D01*
X49902904Y-58532388D01*
X49482049Y-58545675D01*
X48938121Y-58770977D01*
X48896392Y-58873439D01*
X48662337Y-59023829D01*
X48380485Y-59337953D01*
X48364727Y-59344371D01*
X48357457Y-59363618D01*
X48007336Y-59753829D01*
X48158758Y-59889694D01*
X48117330Y-59999379D01*
X48123647Y-60199447D01*
X47837705Y-59942883D01*
X47182705Y-60672882D01*
X46875247Y-61288924D01*
X46826942Y-61975731D01*
X47045144Y-62628743D01*
X47135117Y-62762278D01*
X47198721Y-62783654D01*
X47008460Y-62783488D01*
X46453271Y-63012888D01*
X46100000Y-63365542D01*
X46100000Y-55093599D01*
X107864699Y-55093599D01*
X108128281Y-55731515D01*
X108615918Y-56220004D01*
X109253373Y-56484699D01*
X109943599Y-56485301D01*
X110581515Y-56221719D01*
X111070004Y-55734082D01*
X111334699Y-55096627D01*
X111334701Y-55093599D01*
X126914699Y-55093599D01*
X127178281Y-55731515D01*
X127665918Y-56220004D01*
X128303373Y-56484699D01*
X128993599Y-56485301D01*
X129631515Y-56221719D01*
X130120004Y-55734082D01*
X130384699Y-55096627D01*
X130385301Y-54406401D01*
X130121719Y-53768485D01*
X129634082Y-53279996D01*
X128996627Y-53015301D01*
X128306401Y-53014699D01*
X127668485Y-53278281D01*
X127179996Y-53765918D01*
X126915301Y-54403373D01*
X126914699Y-55093599D01*
X111334701Y-55093599D01*
X111335301Y-54406401D01*
X111071719Y-53768485D01*
X110584082Y-53279996D01*
X109946627Y-53015301D01*
X109256401Y-53014699D01*
X108618485Y-53278281D01*
X108129996Y-53765918D01*
X107865301Y-54403373D01*
X107864699Y-55093599D01*
X46100000Y-55093599D01*
X46100000Y-50029379D01*
X48077330Y-50029379D01*
X48085586Y-50290884D01*
X48082933Y-50329357D01*
X48087517Y-50352024D01*
X48099425Y-50729201D01*
X48324727Y-51273129D01*
X48428862Y-51315539D01*
X48603728Y-51575453D01*
X48855866Y-51742770D01*
X48898121Y-51846523D01*
X49162952Y-51946550D01*
X49177410Y-51956144D01*
X49257892Y-51982409D01*
X49553129Y-52093920D01*
X49814627Y-52085664D01*
X49853109Y-52088318D01*
X49853376Y-52084440D01*
X50252951Y-52071825D01*
X50796879Y-51846523D01*
X50826714Y-51773266D01*
X50907665Y-51734346D01*
X51291750Y-51305108D01*
X51370273Y-51273129D01*
X51617670Y-50618121D01*
X51609414Y-50356613D01*
X51614591Y-50281541D01*
X51607027Y-50281019D01*
X51598971Y-50025861D01*
X51632067Y-50028143D01*
X51652067Y-49738143D01*
X51579419Y-49378881D01*
X53094214Y-49378881D01*
X53127269Y-49508096D01*
X53127196Y-49592300D01*
X53183945Y-49729644D01*
X53264408Y-50044175D01*
X53374731Y-50191381D01*
X53394575Y-50239407D01*
X53459367Y-50304312D01*
X53676244Y-50593695D01*
X53852524Y-50698156D01*
X53889239Y-50734935D01*
X53973942Y-50770107D01*
X54267024Y-50943783D01*
X54458108Y-50971150D01*
X54535879Y-51003443D01*
X54684497Y-51003573D01*
X54946805Y-51041140D01*
X55092266Y-51003929D01*
X55236050Y-51004054D01*
X55470575Y-50907150D01*
X55612099Y-50870946D01*
X55678335Y-50821306D01*
X55883157Y-50736675D01*
X55947644Y-50672300D01*
X67137196Y-50672300D01*
X67219508Y-50871511D01*
X67226222Y-50923884D01*
X67279785Y-51017392D01*
X67404575Y-51319407D01*
X67517694Y-51432724D01*
X67567553Y-51519765D01*
X67729545Y-51644944D01*
X67899239Y-51814935D01*
X68007931Y-51860068D01*
X68110936Y-51939665D01*
X68367326Y-52009301D01*
X68545879Y-52083443D01*
X68640608Y-52083526D01*
X68773645Y-52119659D01*
X69052716Y-52083885D01*
X69246050Y-52084054D01*
X69333600Y-52047879D01*
X69454790Y-52032344D01*
X69671168Y-51908399D01*
X69893157Y-51816675D01*
X69976448Y-51733529D01*
X70050671Y-51691013D01*
X70157416Y-51552877D01*
X70388685Y-51322011D01*
X70450087Y-51174137D01*
X70470571Y-51147630D01*
X70488491Y-51081651D01*
X70657193Y-50675371D01*
X70657446Y-50385142D01*
X70696093Y-49824761D01*
X70608778Y-49143617D01*
X70497516Y-48949379D01*
X72167330Y-48949379D01*
X72189425Y-49649201D01*
X72414727Y-50193129D01*
X72470591Y-50215880D01*
X72495115Y-50252278D01*
X72776965Y-50347002D01*
X73932505Y-49059150D01*
X73937500Y-49064145D01*
X74641462Y-48360183D01*
X74785198Y-48489152D01*
X74771841Y-48504038D01*
X74816630Y-48544225D01*
X74636762Y-48724093D01*
X74602211Y-48693092D01*
X73942494Y-49428349D01*
X73937500Y-49423355D01*
X72874158Y-50486697D01*
X72988121Y-50766523D01*
X73215751Y-50852499D01*
X73233094Y-50861632D01*
X73249227Y-50865143D01*
X73643129Y-51013920D01*
X73896152Y-51005931D01*
X73905850Y-51008042D01*
X73922096Y-51005112D01*
X74342951Y-50991825D01*
X74886879Y-50766523D01*
X74928608Y-50664061D01*
X75162663Y-50513671D01*
X75444515Y-50199547D01*
X75460273Y-50193129D01*
X75467543Y-50173882D01*
X75597199Y-50029379D01*
X86177330Y-50029379D01*
X86185586Y-50290884D01*
X86182933Y-50329357D01*
X86187517Y-50352024D01*
X86199425Y-50729201D01*
X86424727Y-51273129D01*
X86528862Y-51315539D01*
X86703728Y-51575453D01*
X86955866Y-51742770D01*
X86998121Y-51846523D01*
X87262952Y-51946550D01*
X87277410Y-51956144D01*
X87357892Y-51982409D01*
X87653129Y-52093920D01*
X87914627Y-52085664D01*
X87953109Y-52088318D01*
X87953376Y-52084440D01*
X88352951Y-52071825D01*
X88896879Y-51846523D01*
X88926714Y-51773266D01*
X89007665Y-51734346D01*
X89391750Y-51305108D01*
X89470273Y-51273129D01*
X89717670Y-50618121D01*
X89709414Y-50356613D01*
X89714591Y-50281541D01*
X89707027Y-50281019D01*
X89698971Y-50025861D01*
X89732067Y-50028143D01*
X89752067Y-49738143D01*
X89679419Y-49378881D01*
X91194214Y-49378881D01*
X91227269Y-49508096D01*
X91227196Y-49592300D01*
X91283945Y-49729644D01*
X91364408Y-50044175D01*
X91474731Y-50191381D01*
X91494575Y-50239407D01*
X91559367Y-50304312D01*
X91776244Y-50593695D01*
X91952524Y-50698156D01*
X91989239Y-50734935D01*
X92073942Y-50770107D01*
X92367024Y-50943783D01*
X92558108Y-50971150D01*
X92635879Y-51003443D01*
X92784497Y-51003573D01*
X93046805Y-51041140D01*
X93192266Y-51003929D01*
X93336050Y-51004054D01*
X93570575Y-50907150D01*
X93712099Y-50870946D01*
X93778335Y-50821306D01*
X93983157Y-50736675D01*
X94047644Y-50672300D01*
X105237196Y-50672300D01*
X105319508Y-50871511D01*
X105326222Y-50923884D01*
X105379785Y-51017392D01*
X105504575Y-51319407D01*
X105617694Y-51432724D01*
X105667553Y-51519765D01*
X105829545Y-51644944D01*
X105999239Y-51814935D01*
X106107931Y-51860068D01*
X106210936Y-51939665D01*
X106467326Y-52009301D01*
X106645879Y-52083443D01*
X106740608Y-52083526D01*
X106873645Y-52119659D01*
X107152716Y-52083885D01*
X107346050Y-52084054D01*
X107433600Y-52047879D01*
X107554790Y-52032344D01*
X107771168Y-51908399D01*
X107993157Y-51816675D01*
X108076448Y-51733529D01*
X108150671Y-51691013D01*
X108257416Y-51552877D01*
X108488685Y-51322011D01*
X108550087Y-51174137D01*
X108570571Y-51147630D01*
X108588491Y-51081651D01*
X108757193Y-50675371D01*
X108757446Y-50385142D01*
X108796093Y-49824761D01*
X108708778Y-49143617D01*
X108597516Y-48949379D01*
X110267330Y-48949379D01*
X110289425Y-49649201D01*
X110514727Y-50193129D01*
X110570591Y-50215880D01*
X110595115Y-50252278D01*
X110876965Y-50347002D01*
X112032505Y-49059150D01*
X112037500Y-49064145D01*
X112741462Y-48360183D01*
X112885198Y-48489152D01*
X112871841Y-48504038D01*
X112916630Y-48544225D01*
X112736762Y-48724093D01*
X112702211Y-48693092D01*
X112042494Y-49428349D01*
X112037500Y-49423355D01*
X110974158Y-50486697D01*
X111088121Y-50766523D01*
X111315751Y-50852499D01*
X111333094Y-50861632D01*
X111349227Y-50865143D01*
X111743129Y-51013920D01*
X111996152Y-51005931D01*
X112005850Y-51008042D01*
X112022096Y-51005112D01*
X112442951Y-50991825D01*
X112986879Y-50766523D01*
X113028608Y-50664061D01*
X113262663Y-50513671D01*
X113544515Y-50199547D01*
X113560273Y-50193129D01*
X113567543Y-50173882D01*
X113917664Y-49783671D01*
X113766242Y-49647806D01*
X113807670Y-49538121D01*
X113801353Y-49338053D01*
X114087295Y-49594617D01*
X114742295Y-48864618D01*
X115049753Y-48248576D01*
X115051905Y-48217968D01*
X115315000Y-48217968D01*
X115315000Y-48682032D01*
X115424233Y-49231183D01*
X115735302Y-49696730D01*
X116200849Y-50007799D01*
X116750000Y-50117032D01*
X117299151Y-50007799D01*
X117764698Y-49696730D01*
X118017779Y-49317968D01*
X119915000Y-49317968D01*
X119915000Y-49782032D01*
X120024233Y-50331183D01*
X120335302Y-50796730D01*
X120800849Y-51107799D01*
X121350000Y-51217032D01*
X121899151Y-51107799D01*
X122364698Y-50796730D01*
X122447839Y-50672300D01*
X124287196Y-50672300D01*
X124369508Y-50871511D01*
X124376222Y-50923884D01*
X124429785Y-51017392D01*
X124554575Y-51319407D01*
X124667694Y-51432724D01*
X124717553Y-51519765D01*
X124879545Y-51644944D01*
X125049239Y-51814935D01*
X125157931Y-51860068D01*
X125260936Y-51939665D01*
X125517326Y-52009301D01*
X125695879Y-52083443D01*
X125790608Y-52083526D01*
X125923645Y-52119659D01*
X126202716Y-52083885D01*
X126396050Y-52084054D01*
X126483600Y-52047879D01*
X126604790Y-52032344D01*
X126821168Y-51908399D01*
X127043157Y-51816675D01*
X127126448Y-51733529D01*
X127200671Y-51691013D01*
X127307416Y-51552877D01*
X127538685Y-51322011D01*
X127600087Y-51174137D01*
X127620571Y-51147630D01*
X127638491Y-51081651D01*
X127807193Y-50675371D01*
X127807446Y-50385142D01*
X127846093Y-49824761D01*
X127758778Y-49143617D01*
X127417447Y-48547735D01*
X126874064Y-48127835D01*
X126211355Y-47947841D01*
X125530210Y-48035156D01*
X124934329Y-48376487D01*
X124514429Y-48919870D01*
X124334435Y-49582579D01*
X124311506Y-49915056D01*
X124287807Y-49972129D01*
X124287196Y-50672300D01*
X122447839Y-50672300D01*
X122675767Y-50331183D01*
X122785000Y-49782032D01*
X122785000Y-49317968D01*
X122675767Y-48768817D01*
X122364698Y-48303270D01*
X121899151Y-47992201D01*
X121350000Y-47882968D01*
X120800849Y-47992201D01*
X120335302Y-48303270D01*
X120024233Y-48768817D01*
X119915000Y-49317968D01*
X118017779Y-49317968D01*
X118075767Y-49231183D01*
X118185000Y-48682032D01*
X118185000Y-48217968D01*
X118075767Y-47668817D01*
X117764698Y-47203270D01*
X117542754Y-47054971D01*
X118014821Y-47054971D01*
X118172058Y-47435515D01*
X118462954Y-47726919D01*
X118843223Y-47884820D01*
X119254971Y-47885179D01*
X119635515Y-47727942D01*
X119926919Y-47437046D01*
X120084820Y-47056777D01*
X120085179Y-46645029D01*
X119927942Y-46264485D01*
X119637046Y-45973081D01*
X119256777Y-45815180D01*
X118845029Y-45814821D01*
X118464485Y-45972058D01*
X118173081Y-46262954D01*
X118015180Y-46643223D01*
X118014821Y-47054971D01*
X117542754Y-47054971D01*
X117299151Y-46892201D01*
X116750000Y-46782968D01*
X116200849Y-46892201D01*
X115735302Y-47203270D01*
X115424233Y-47668817D01*
X115315000Y-48217968D01*
X115051905Y-48217968D01*
X115098058Y-47561769D01*
X114879856Y-46908757D01*
X114789883Y-46775222D01*
X114726279Y-46753846D01*
X114916540Y-46754012D01*
X115471729Y-46524612D01*
X115896870Y-46100213D01*
X115992931Y-45868872D01*
X116200849Y-46007799D01*
X116750000Y-46117032D01*
X117299151Y-46007799D01*
X117764698Y-45696730D01*
X117867557Y-45542790D01*
X121997238Y-45542790D01*
X122226638Y-46097979D01*
X122651037Y-46523120D01*
X123205825Y-46753488D01*
X123806540Y-46754012D01*
X124361729Y-46524612D01*
X124786870Y-46100213D01*
X124926321Y-45764376D01*
X125958145Y-45764376D01*
X126357528Y-46730957D01*
X127096404Y-47471123D01*
X128062285Y-47872192D01*
X129108126Y-47873105D01*
X130074707Y-47473722D01*
X130814873Y-46734846D01*
X131215942Y-45768965D01*
X131216855Y-44723124D01*
X130817472Y-43756543D01*
X130078596Y-43016377D01*
X129112715Y-42615308D01*
X128066874Y-42614395D01*
X127100293Y-43013778D01*
X126360127Y-43752654D01*
X125959058Y-44718535D01*
X125958145Y-45764376D01*
X124926321Y-45764376D01*
X125017238Y-45545425D01*
X125017762Y-44944710D01*
X124788362Y-44389521D01*
X124363963Y-43964380D01*
X123809175Y-43734012D01*
X123208460Y-43733488D01*
X122653271Y-43962888D01*
X122228130Y-44387287D01*
X121997762Y-44942075D01*
X121997238Y-45542790D01*
X117867557Y-45542790D01*
X118075767Y-45231183D01*
X118185000Y-44682032D01*
X118185000Y-44217968D01*
X118075767Y-43668817D01*
X117764698Y-43203270D01*
X117353343Y-42928411D01*
X117654424Y-42770637D01*
X118014428Y-42339226D01*
X118181934Y-41802886D01*
X118029471Y-41577000D01*
X116877000Y-41577000D01*
X116877000Y-41597000D01*
X116623000Y-41597000D01*
X116623000Y-41577000D01*
X115470529Y-41577000D01*
X115318066Y-41802886D01*
X115485572Y-42339226D01*
X115845576Y-42770637D01*
X116146657Y-42928411D01*
X115735302Y-43203270D01*
X115424233Y-43668817D01*
X115373721Y-43922756D01*
X114919175Y-43734012D01*
X114318460Y-43733488D01*
X113763271Y-43962888D01*
X113338130Y-44387287D01*
X113107762Y-44942075D01*
X113107238Y-45542790D01*
X113309391Y-46032037D01*
X112701573Y-46141645D01*
X112122335Y-46513829D01*
X111467334Y-47243829D01*
X111744075Y-47492138D01*
X111632049Y-47495675D01*
X111451181Y-47570593D01*
X111297703Y-47432883D01*
X110642703Y-48162882D01*
X110592985Y-48262499D01*
X110514727Y-48294371D01*
X110267330Y-48949379D01*
X108597516Y-48949379D01*
X108367447Y-48547735D01*
X107824064Y-48127835D01*
X107161355Y-47947841D01*
X106480210Y-48035156D01*
X105884329Y-48376487D01*
X105464429Y-48919870D01*
X105284435Y-49582579D01*
X105261506Y-49915056D01*
X105237807Y-49972129D01*
X105237196Y-50672300D01*
X94047644Y-50672300D01*
X94259965Y-50460349D01*
X94261619Y-50459110D01*
X94265159Y-50455165D01*
X94478685Y-50242011D01*
X94497870Y-50195807D01*
X95643339Y-48919180D01*
X95993427Y-48328401D01*
X96090784Y-47648619D01*
X95920590Y-46983326D01*
X95748654Y-46753909D01*
X95866540Y-46754012D01*
X96421729Y-46524612D01*
X96846870Y-46100213D01*
X97077238Y-45545425D01*
X97077240Y-45542790D01*
X102947238Y-45542790D01*
X103176638Y-46097979D01*
X103601037Y-46523120D01*
X104155825Y-46753488D01*
X104756540Y-46754012D01*
X105311729Y-46524612D01*
X105736870Y-46100213D01*
X105876321Y-45764376D01*
X106908145Y-45764376D01*
X107307528Y-46730957D01*
X108046404Y-47471123D01*
X109012285Y-47872192D01*
X110058126Y-47873105D01*
X111024707Y-47473722D01*
X111764873Y-46734846D01*
X112165942Y-45768965D01*
X112166855Y-44723124D01*
X111767472Y-43756543D01*
X111028596Y-43016377D01*
X110062715Y-42615308D01*
X109016874Y-42614395D01*
X108050293Y-43013778D01*
X107310127Y-43752654D01*
X106909058Y-44718535D01*
X106908145Y-45764376D01*
X105876321Y-45764376D01*
X105967238Y-45545425D01*
X105967762Y-44944710D01*
X105738362Y-44389521D01*
X105313963Y-43964380D01*
X104759175Y-43734012D01*
X104158460Y-43733488D01*
X103603271Y-43962888D01*
X103178130Y-44387287D01*
X102947762Y-44942075D01*
X102947238Y-45542790D01*
X97077240Y-45542790D01*
X97077762Y-44944710D01*
X96848362Y-44389521D01*
X96423963Y-43964380D01*
X95869175Y-43734012D01*
X95268460Y-43733488D01*
X94713271Y-43962888D01*
X94288130Y-44387287D01*
X94057762Y-44942075D01*
X94057238Y-45542790D01*
X94240664Y-45986714D01*
X94238193Y-45986360D01*
X93572899Y-46156554D01*
X93023379Y-46568391D01*
X91709804Y-48032372D01*
X91496315Y-48245489D01*
X91346330Y-48606692D01*
X91291571Y-48699100D01*
X91282942Y-48759348D01*
X91227807Y-48892129D01*
X91227586Y-49145869D01*
X91194214Y-49378881D01*
X89679419Y-49378881D01*
X89615602Y-49063299D01*
X89231272Y-48492047D01*
X88657590Y-48111356D01*
X88504518Y-48061402D01*
X88224022Y-48160064D01*
X88196785Y-48555003D01*
X87941626Y-48563059D01*
X87970624Y-48142588D01*
X87706328Y-48006354D01*
X87547846Y-48034822D01*
X86927335Y-48333154D01*
X86468224Y-48846237D01*
X86240409Y-49495959D01*
X86220409Y-49785959D01*
X86268029Y-49789243D01*
X86177330Y-50029379D01*
X75597199Y-50029379D01*
X75817664Y-49783671D01*
X75666242Y-49647806D01*
X75707670Y-49538121D01*
X75701353Y-49338053D01*
X75987295Y-49594617D01*
X76642295Y-48864618D01*
X76949753Y-48248576D01*
X76998058Y-47561769D01*
X76779856Y-46908757D01*
X76689883Y-46775222D01*
X76626279Y-46753846D01*
X76816540Y-46754012D01*
X77371729Y-46524612D01*
X77796870Y-46100213D01*
X78027238Y-45545425D01*
X78027240Y-45542790D01*
X83897238Y-45542790D01*
X84126638Y-46097979D01*
X84551037Y-46523120D01*
X85105825Y-46753488D01*
X85706540Y-46754012D01*
X86261729Y-46524612D01*
X86686870Y-46100213D01*
X86826321Y-45764376D01*
X87858145Y-45764376D01*
X88257528Y-46730957D01*
X88996404Y-47471123D01*
X89962285Y-47872192D01*
X91008126Y-47873105D01*
X91974707Y-47473722D01*
X92714873Y-46734846D01*
X93115942Y-45768965D01*
X93116855Y-44723124D01*
X92717472Y-43756543D01*
X91978596Y-43016377D01*
X91012715Y-42615308D01*
X89966874Y-42614395D01*
X89000293Y-43013778D01*
X88260127Y-43752654D01*
X87859058Y-44718535D01*
X87858145Y-45764376D01*
X86826321Y-45764376D01*
X86917238Y-45545425D01*
X86917762Y-44944710D01*
X86688362Y-44389521D01*
X86263963Y-43964380D01*
X85709175Y-43734012D01*
X85108460Y-43733488D01*
X84553271Y-43962888D01*
X84128130Y-44387287D01*
X83897762Y-44942075D01*
X83897238Y-45542790D01*
X78027240Y-45542790D01*
X78027762Y-44944710D01*
X77798362Y-44389521D01*
X77373963Y-43964380D01*
X76819175Y-43734012D01*
X76218460Y-43733488D01*
X75663271Y-43962888D01*
X75238130Y-44387287D01*
X75007762Y-44942075D01*
X75007238Y-45542790D01*
X75209391Y-46032037D01*
X74601573Y-46141645D01*
X74022335Y-46513829D01*
X73367334Y-47243829D01*
X73644075Y-47492138D01*
X73532049Y-47495675D01*
X73351181Y-47570593D01*
X73197703Y-47432883D01*
X72542703Y-48162882D01*
X72492985Y-48262499D01*
X72414727Y-48294371D01*
X72167330Y-48949379D01*
X70497516Y-48949379D01*
X70267447Y-48547735D01*
X69724064Y-48127835D01*
X69061355Y-47947841D01*
X68380210Y-48035156D01*
X67784329Y-48376487D01*
X67364429Y-48919870D01*
X67184435Y-49582579D01*
X67161506Y-49915056D01*
X67137807Y-49972129D01*
X67137196Y-50672300D01*
X55947644Y-50672300D01*
X56159965Y-50460349D01*
X56161619Y-50459110D01*
X56165159Y-50455165D01*
X56378685Y-50242011D01*
X56397870Y-50195807D01*
X57543339Y-48919180D01*
X57893427Y-48328401D01*
X57962859Y-47843599D01*
X60164699Y-47843599D01*
X60428281Y-48481515D01*
X60915918Y-48970004D01*
X61553373Y-49234699D01*
X62243599Y-49235301D01*
X62881515Y-48971719D01*
X63370004Y-48484082D01*
X63634699Y-47846627D01*
X63635301Y-47156401D01*
X63371719Y-46518485D01*
X62884082Y-46029996D01*
X62246627Y-45765301D01*
X61556401Y-45764699D01*
X60918485Y-46028281D01*
X60429996Y-46515918D01*
X60165301Y-47153373D01*
X60164699Y-47843599D01*
X57962859Y-47843599D01*
X57990784Y-47648619D01*
X57820590Y-46983326D01*
X57648654Y-46753909D01*
X57766540Y-46754012D01*
X58321729Y-46524612D01*
X58746870Y-46100213D01*
X58977238Y-45545425D01*
X58977240Y-45542790D01*
X64847238Y-45542790D01*
X65076638Y-46097979D01*
X65501037Y-46523120D01*
X66055825Y-46753488D01*
X66656540Y-46754012D01*
X67211729Y-46524612D01*
X67636870Y-46100213D01*
X67776321Y-45764376D01*
X68808145Y-45764376D01*
X69207528Y-46730957D01*
X69946404Y-47471123D01*
X70912285Y-47872192D01*
X71958126Y-47873105D01*
X72924707Y-47473722D01*
X73664873Y-46734846D01*
X74065942Y-45768965D01*
X74066855Y-44723124D01*
X73667472Y-43756543D01*
X72928596Y-43016377D01*
X71962715Y-42615308D01*
X70916874Y-42614395D01*
X69950293Y-43013778D01*
X69210127Y-43752654D01*
X68809058Y-44718535D01*
X68808145Y-45764376D01*
X67776321Y-45764376D01*
X67867238Y-45545425D01*
X67867762Y-44944710D01*
X67638362Y-44389521D01*
X67213963Y-43964380D01*
X66659175Y-43734012D01*
X66058460Y-43733488D01*
X65503271Y-43962888D01*
X65078130Y-44387287D01*
X64847762Y-44942075D01*
X64847238Y-45542790D01*
X58977240Y-45542790D01*
X58977762Y-44944710D01*
X58748362Y-44389521D01*
X58323963Y-43964380D01*
X57769175Y-43734012D01*
X57168460Y-43733488D01*
X56613271Y-43962888D01*
X56188130Y-44387287D01*
X55957762Y-44942075D01*
X55957238Y-45542790D01*
X56140664Y-45986714D01*
X56138193Y-45986360D01*
X55472899Y-46156554D01*
X54923379Y-46568391D01*
X53609804Y-48032372D01*
X53396315Y-48245489D01*
X53246330Y-48606692D01*
X53191571Y-48699100D01*
X53182942Y-48759348D01*
X53127807Y-48892129D01*
X53127586Y-49145869D01*
X53094214Y-49378881D01*
X51579419Y-49378881D01*
X51515602Y-49063299D01*
X51131272Y-48492047D01*
X50557590Y-48111356D01*
X50404518Y-48061402D01*
X50124022Y-48160064D01*
X50096785Y-48555003D01*
X49841626Y-48563059D01*
X49870624Y-48142588D01*
X49606328Y-48006354D01*
X49447846Y-48034822D01*
X48827335Y-48333154D01*
X48368224Y-48846237D01*
X48140409Y-49495959D01*
X48120409Y-49785959D01*
X48168029Y-49789243D01*
X48077330Y-50029379D01*
X46100000Y-50029379D01*
X46100000Y-46171469D01*
X46451037Y-46523120D01*
X47005825Y-46753488D01*
X47606540Y-46754012D01*
X48161729Y-46524612D01*
X48586870Y-46100213D01*
X48726321Y-45764376D01*
X49758145Y-45764376D01*
X50157528Y-46730957D01*
X50896404Y-47471123D01*
X51862285Y-47872192D01*
X52908126Y-47873105D01*
X53874707Y-47473722D01*
X54614873Y-46734846D01*
X55015942Y-45768965D01*
X55016855Y-44723124D01*
X54617472Y-43756543D01*
X53878596Y-43016377D01*
X52912715Y-42615308D01*
X51866874Y-42614395D01*
X50900293Y-43013778D01*
X50160127Y-43752654D01*
X49759058Y-44718535D01*
X49758145Y-45764376D01*
X48726321Y-45764376D01*
X48817238Y-45545425D01*
X48817762Y-44944710D01*
X48588362Y-44389521D01*
X48163963Y-43964380D01*
X47609175Y-43734012D01*
X47008460Y-43733488D01*
X46453271Y-43962888D01*
X46100000Y-44315542D01*
X46100000Y-40587000D01*
X75935000Y-40587000D01*
X75935000Y-41837000D01*
X76089028Y-42357349D01*
X76430460Y-42779145D01*
X76907316Y-43038173D01*
X76978815Y-43052318D01*
X77193000Y-42929656D01*
X77193000Y-40587000D01*
X77447000Y-40587000D01*
X77447000Y-42929656D01*
X77661185Y-43052318D01*
X77732684Y-43038173D01*
X78209540Y-42779145D01*
X78550972Y-42357349D01*
X78705000Y-41837000D01*
X78705000Y-40587000D01*
X83235000Y-40587000D01*
X83235000Y-41837000D01*
X83389028Y-42357349D01*
X83730460Y-42779145D01*
X84207316Y-43038173D01*
X84278815Y-43052318D01*
X84493000Y-42929656D01*
X84493000Y-40587000D01*
X84747000Y-40587000D01*
X84747000Y-42929656D01*
X84961185Y-43052318D01*
X85032684Y-43038173D01*
X85509540Y-42779145D01*
X85850972Y-42357349D01*
X86005000Y-41837000D01*
X86005000Y-41097114D01*
X115318066Y-41097114D01*
X115470529Y-41323000D01*
X116623000Y-41323000D01*
X116623000Y-39980085D01*
X116877000Y-39980085D01*
X116877000Y-41323000D01*
X118029471Y-41323000D01*
X118181934Y-41097114D01*
X118014428Y-40560774D01*
X117654424Y-40129363D01*
X117512462Y-40054971D01*
X118014821Y-40054971D01*
X118172058Y-40435515D01*
X118462954Y-40726919D01*
X118843223Y-40884820D01*
X119254971Y-40885179D01*
X119635515Y-40727942D01*
X119926919Y-40437046D01*
X120084820Y-40056777D01*
X120085179Y-39645029D01*
X119927942Y-39264485D01*
X119637046Y-38973081D01*
X119256777Y-38815180D01*
X118845029Y-38814821D01*
X118464485Y-38972058D01*
X118173081Y-39262954D01*
X118015180Y-39643223D01*
X118014821Y-40054971D01*
X117512462Y-40054971D01*
X117156730Y-39868558D01*
X117099039Y-39858096D01*
X116877000Y-39980085D01*
X116623000Y-39980085D01*
X116400961Y-39858096D01*
X116343270Y-39868558D01*
X115845576Y-40129363D01*
X115485572Y-40560774D01*
X115318066Y-41097114D01*
X86005000Y-41097114D01*
X86005000Y-40587000D01*
X84747000Y-40587000D01*
X84493000Y-40587000D01*
X83235000Y-40587000D01*
X78705000Y-40587000D01*
X77447000Y-40587000D01*
X77193000Y-40587000D01*
X75935000Y-40587000D01*
X46100000Y-40587000D01*
X46100000Y-40313498D01*
X46216672Y-39755997D01*
X46499621Y-39341522D01*
X46894987Y-39083000D01*
X75935000Y-39083000D01*
X75935000Y-40333000D01*
X77193000Y-40333000D01*
X77193000Y-37990344D01*
X77447000Y-37990344D01*
X77447000Y-40333000D01*
X78705000Y-40333000D01*
X78705000Y-39083000D01*
X83235000Y-39083000D01*
X83235000Y-40333000D01*
X84493000Y-40333000D01*
X84493000Y-37990344D01*
X84747000Y-37990344D01*
X84747000Y-40333000D01*
X86005000Y-40333000D01*
X86005000Y-39083000D01*
X85850972Y-38562651D01*
X85509540Y-38140855D01*
X85032684Y-37881827D01*
X84961185Y-37867682D01*
X84747000Y-37990344D01*
X84493000Y-37990344D01*
X84278815Y-37867682D01*
X84207316Y-37881827D01*
X83730460Y-38140855D01*
X83389028Y-38562651D01*
X83235000Y-39083000D01*
X78705000Y-39083000D01*
X78550972Y-38562651D01*
X78209540Y-38140855D01*
X77732684Y-37881827D01*
X77661185Y-37867682D01*
X77447000Y-37990344D01*
X77193000Y-37990344D01*
X76978815Y-37867682D01*
X76907316Y-37881827D01*
X76430460Y-38140855D01*
X76089028Y-38562651D01*
X75935000Y-39083000D01*
X46894987Y-39083000D01*
X46919646Y-39066876D01*
X47486363Y-38960000D01*
X75110000Y-38960000D01*
X75381705Y-38905954D01*
X75612046Y-38752046D01*
X77404092Y-36960000D01*
X84535908Y-36960000D01*
X86327954Y-38752046D01*
G36*
X144400000Y-108396502D02*
X144283328Y-108954003D01*
X144000380Y-109368477D01*
X143580354Y-109643124D01*
X143013638Y-109750000D01*
X142684176Y-109750000D01*
X142684874Y-108951183D01*
X142356878Y-108157373D01*
X141850148Y-107649757D01*
X142119515Y-107349547D01*
X142135273Y-107343129D01*
X142142543Y-107323882D01*
X142492664Y-106933671D01*
X142341242Y-106797806D01*
X142382670Y-106688121D01*
X142376353Y-106488053D01*
X142662295Y-106744617D01*
X143317295Y-106014618D01*
X143624753Y-105398576D01*
X143673058Y-104711769D01*
X143454856Y-104058757D01*
X143364883Y-103925222D01*
X143301279Y-103903846D01*
X143491540Y-103904012D01*
X144046729Y-103674612D01*
X144400000Y-103321958D01*
X144400000Y-108396502D01*
X144400000Y-108396502D01*
G37*
X144400000Y-108396502D02*
X144283328Y-108954003D01*
X144000380Y-109368477D01*
X143580354Y-109643124D01*
X143013638Y-109750000D01*
X142684176Y-109750000D01*
X142684874Y-108951183D01*
X142356878Y-108157373D01*
X141850148Y-107649757D01*
X142119515Y-107349547D01*
X142135273Y-107343129D01*
X142142543Y-107323882D01*
X142492664Y-106933671D01*
X142341242Y-106797806D01*
X142382670Y-106688121D01*
X142376353Y-106488053D01*
X142662295Y-106744617D01*
X143317295Y-106014618D01*
X143624753Y-105398576D01*
X143673058Y-104711769D01*
X143454856Y-104058757D01*
X143364883Y-103925222D01*
X143301279Y-103903846D01*
X143491540Y-103904012D01*
X144046729Y-103674612D01*
X144400000Y-103321958D01*
X144400000Y-108396502D01*
M02*
