G04 #@! TF.FileFunction,Paste,Bot*
%FSLAX46Y46*%
G04 Gerber Fmt 4.6, Leading zero omitted, Abs format (unit mm)*
G04 Created by KiCad (PCBNEW 4.0.7) date 06/06/18 20:30:53*
%MOMM*%
%LPD*%
G01*
G04 APERTURE LIST*
%ADD10C,0.100000*%
%ADD11R,0.550000X1.500000*%
%ADD12R,1.500000X0.550000*%
%ADD13R,1.560000X0.650000*%
%ADD14R,2.030000X2.650000*%
%ADD15R,1.200000X0.900000*%
%ADD16R,1.200000X0.750000*%
%ADD17R,0.750000X1.200000*%
%ADD18R,2.350000X0.800000*%
%ADD19R,0.500000X1.400000*%
%ADD20O,1.500000X4.000000*%
G04 APERTURE END LIST*
D10*
D11*
X84950000Y-79518750D03*
X84150000Y-79518750D03*
X83350000Y-79518750D03*
X82550000Y-79518750D03*
X81750000Y-79518750D03*
X80950000Y-79518750D03*
X80150000Y-79518750D03*
X79350000Y-79518750D03*
X78550000Y-79518750D03*
X77750000Y-79518750D03*
X76950000Y-79518750D03*
D12*
X75250000Y-77818750D03*
X75250000Y-77018750D03*
X75250000Y-76218750D03*
X75250000Y-75418750D03*
X75250000Y-74618750D03*
X75250000Y-73818750D03*
X75250000Y-73018750D03*
X75250000Y-72218750D03*
X75250000Y-71418750D03*
X75250000Y-70618750D03*
X75250000Y-69818750D03*
D11*
X76950000Y-68118750D03*
X77750000Y-68118750D03*
X78550000Y-68118750D03*
X79350000Y-68118750D03*
X80150000Y-68118750D03*
X80950000Y-68118750D03*
X81750000Y-68118750D03*
X82550000Y-68118750D03*
X83350000Y-68118750D03*
X84150000Y-68118750D03*
X84950000Y-68118750D03*
D12*
X86650000Y-69818750D03*
X86650000Y-70618750D03*
X86650000Y-71418750D03*
X86650000Y-72218750D03*
X86650000Y-73018750D03*
X86650000Y-73818750D03*
X86650000Y-74618750D03*
X86650000Y-75418750D03*
X86650000Y-76218750D03*
X86650000Y-77018750D03*
X86650000Y-77818750D03*
D13*
X69950000Y-69950000D03*
X69950000Y-69000000D03*
X69950000Y-68050000D03*
X72650000Y-68050000D03*
X72650000Y-69950000D03*
D14*
X61900000Y-64900000D03*
X61900000Y-60720000D03*
D15*
X82000000Y-60700000D03*
X84200000Y-60700000D03*
X82000000Y-62500000D03*
X84200000Y-62500000D03*
D16*
X83850000Y-65800000D03*
X81950000Y-65800000D03*
D17*
X88900000Y-74350000D03*
X88900000Y-72450000D03*
X71300000Y-71750000D03*
X71300000Y-73650000D03*
X72900000Y-71750000D03*
X72900000Y-73650000D03*
D16*
X78050000Y-81800000D03*
X79950000Y-81800000D03*
D18*
X83645000Y-37660000D03*
X78295000Y-37660000D03*
D19*
X79370000Y-42860000D03*
X80170000Y-42860000D03*
X80970000Y-42860000D03*
X81770000Y-42860000D03*
X82570000Y-42860000D03*
D20*
X77320000Y-40460000D03*
X84620000Y-40460000D03*
M02*
