M48
INCH,TZ
T1C0.028
T2C0.030
T3C0.035
T4C0.039
T5C0.058
%
G90
G05
T2
X3.8375Y-2.6687
X3.8375Y-2.7687
X4.0375Y-2.6687
X4.0375Y-2.7687
T4
X2.337Y-2.25
X2.3898Y-2.7118
X2.3898Y-2.8118
X2.3898Y-2.9118
X2.3898Y-3.0118
X2.437Y-2.25
X2.4898Y-2.7118
X2.4898Y-2.8118
X2.4898Y-2.9118
X2.4898Y-3.0118
X2.537Y-2.25
X3.089Y-3.4213
X3.189Y-3.4213
X3.289Y-3.4213
X3.5984Y-2.7677
X3.6984Y-2.7677
T5
X1.9125Y-2.4312
X1.9625Y-1.9812
X1.9625Y-3.4812
X1.9641Y-1.9584
X1.9641Y-2.3738
X1.9641Y-3.4584
X2.1609Y-1.9387
X2.1609Y-2.3541
X2.1609Y-3.4387
X2.1625Y-2.3312
X2.2125Y-1.8812
X2.2125Y-3.3813
X2.6625Y-2.4312
X2.7125Y-1.9812
X2.7125Y-3.4812
X2.7141Y-1.9584
X2.7141Y-2.3738
X2.7141Y-3.4584
X2.9109Y-1.9387
X2.9109Y-2.3541
X2.9109Y-3.4387
X2.9125Y-2.3312
X2.9625Y-1.8812
X2.9625Y-3.3813
X3.4125Y-2.4312
X3.4625Y-1.9812
X3.4625Y-3.4812
X3.4641Y-1.9584
X3.4641Y-2.3738
X3.4641Y-3.4584
X3.6609Y-1.9387
X3.6609Y-2.3541
X3.6609Y-3.4387
X3.6625Y-2.3312
X3.7125Y-1.8812
X3.7125Y-3.3813
X3.8375Y-4.2313
X3.8391Y-4.2084
X4.0359Y-4.1887
X4.0875Y-4.1312
X4.1625Y-2.4312
X4.2125Y-1.9812
X4.2125Y-3.4812
X4.2125Y-4.2313
X4.2141Y-1.9584
X4.2141Y-2.3738
X4.2141Y-3.4584
X4.2141Y-4.2084
X4.4109Y-1.9387
X4.4109Y-2.3541
X4.4109Y-3.4387
X4.4109Y-4.1887
X4.4125Y-2.3312
X4.4625Y-1.8812
X4.4625Y-3.3813
X4.4625Y-4.1312
X4.5875Y-4.2313
X4.5891Y-4.2084
X4.7859Y-4.1887
X4.8375Y-4.1312
X4.9125Y-2.4312
X4.9625Y-1.9812
X4.9625Y-3.4812
X4.9625Y-4.2313
X4.9641Y-1.9584
X4.9641Y-2.3738
X4.9641Y-3.4584
X4.9641Y-4.2084
X5.1609Y-1.9387
X5.1609Y-2.3541
X5.1609Y-3.4387
X5.1609Y-4.1887
X5.1625Y-2.3312
X5.2125Y-1.8812
X5.2125Y-3.3813
X5.2125Y-4.1312
X5.3375Y-4.2313
X5.3391Y-4.2084
X5.5359Y-4.1887
X5.5875Y-4.1312
T1
X3.0441Y-1.5437G85X3.0441Y-1.6421
G05
X3.3315Y-1.5437G85X3.3315Y-1.6421
G05
T3
X4.5965Y-1.6398G85X4.5965Y-1.624
G05
X4.5965Y-1.7579G85X4.5965Y-1.7421
G05
X4.5965Y-1.9154G85X4.5965Y-1.8996
G05
X4.7776Y-1.9587G85X4.7776Y-1.9429
G05
T0
M30
