M48
INCH,TZ
T1C0.031
T2C0.039
T3C0.039
T4C0.069
T5C0.087
T6C0.120
T7C0.157
%
G90
G05
T1
X4.687Y-1.5689
X4.687Y-1.8445
T2
X3.8975Y-2.8188
X3.9775Y-2.8188
T3
X3.9375Y-2.6187
T4
X1.8625Y-1.7812
X1.8625Y-2.5312
X1.8625Y-3.2812
X2.2625Y-1.7812
X2.2625Y-2.5312
X2.2625Y-3.2812
X2.6125Y-1.7812
X2.6125Y-2.5312
X2.6125Y-3.2812
X3.0125Y-1.7812
X3.0125Y-2.5312
X3.0125Y-3.2812
X3.3625Y-1.7812
X3.3625Y-2.5312
X3.3625Y-3.2812
X3.7375Y-4.0312
X3.7625Y-1.7812
X3.7625Y-2.5312
X3.7625Y-3.2812
X4.1125Y-1.7812
X4.1125Y-2.5312
X4.1125Y-3.2812
X4.1125Y-4.0312
X4.1375Y-4.0312
X4.4875Y-4.0312
X4.5125Y-1.7812
X4.5125Y-2.5312
X4.5125Y-3.2812
X4.5125Y-4.0312
X4.8625Y-1.7812
X4.8625Y-2.5312
X4.8625Y-3.2812
X4.8625Y-4.0312
X4.8875Y-4.0312
X5.2375Y-4.0312
X5.2625Y-1.7812
X5.2625Y-2.5312
X5.2625Y-3.2812
X5.2625Y-4.0312
X5.6375Y-4.0312
T5
X2.437Y-1.8701
X2.437Y-3.1929
X4.311Y-3.7028
X4.315Y-2.1555
X5.063Y-3.7047
X5.065Y-2.1555
T6
X3.8425Y-4.3062
X4.5925Y-4.3062
X4.7825Y-4.3062
X5.5325Y-4.3062
T7
X2.0625Y-1.7812
X2.0625Y-2.5312
X2.0625Y-3.2812
X2.8125Y-1.7812
X2.8125Y-2.5312
X2.8125Y-3.2812
X3.5625Y-1.7812
X3.5625Y-2.5312
X3.5625Y-3.2812
X3.8425Y-3.7062
X3.9375Y-4.0312
X4.3125Y-1.7812
X4.3125Y-2.5312
X4.3125Y-3.2812
X4.3125Y-4.0312
X4.5925Y-3.7062
X4.6875Y-4.0312
X4.7825Y-3.7062
X5.0625Y-1.7812
X5.0625Y-2.5312
X5.0625Y-3.2812
X5.0625Y-4.0312
X5.4375Y-4.0312
X5.5325Y-3.7062
T0
M30
