G04 #@! TF.FileFunction,Soldermask,Top*
%FSLAX46Y46*%
G04 Gerber Fmt 4.6, Leading zero omitted, Abs format (unit mm)*
G04 Created by KiCad (PCBNEW 4.0.7) date 06/11/18 00:32:22*
%MOMM*%
%LPD*%
G01*
G04 APERTURE LIST*
%ADD10C,0.100000*%
%ADD11C,2.600000*%
%ADD12O,1.900000X4.400000*%
%ADD13O,2.000000X2.400000*%
%ADD14C,1.200000*%
%ADD15C,2.100000*%
%ADD16O,2.100000X2.100000*%
%ADD17C,1.388060*%
%ADD18C,1.385520*%
%ADD19C,1.924000*%
%ADD20C,4.387800*%
%ADD21C,2.150000*%
%ADD22C,3.448000*%
G04 APERTURE END LIST*
D10*
D11*
X128600000Y-94100000D03*
X109500000Y-94050000D03*
X128650000Y-54750000D03*
X109600000Y-54750000D03*
X61900000Y-81100000D03*
X61900000Y-47500000D03*
D12*
X77320000Y-40460000D03*
X84620000Y-40460000D03*
D13*
X121350000Y-49550000D03*
X116750000Y-48450000D03*
X116750000Y-41450000D03*
D14*
X119050000Y-46850000D03*
X119050000Y-39850000D03*
D13*
X116750000Y-44450000D03*
D15*
X63240000Y-68880000D03*
D16*
X60700000Y-68880000D03*
X63240000Y-71420000D03*
X60700000Y-71420000D03*
X63240000Y-73960000D03*
X60700000Y-73960000D03*
X63240000Y-76500000D03*
X60700000Y-76500000D03*
D15*
X83540000Y-86900000D03*
D16*
X81000000Y-86900000D03*
X78460000Y-86900000D03*
D15*
X59360000Y-57150000D03*
D16*
X61900000Y-57150000D03*
X64440000Y-57150000D03*
D15*
X91400000Y-70300000D03*
D16*
X93940000Y-70300000D03*
D17*
X100012500Y-66516250D03*
D18*
X98996500Y-71596250D03*
X101028500Y-71596250D03*
D19*
X102552500Y-67786250D03*
X97472500Y-67786250D03*
X102552500Y-70326250D03*
X97472500Y-70326250D03*
D20*
X52387500Y-45243750D03*
D21*
X57467500Y-45243750D03*
X47307500Y-45243750D03*
D20*
X71437500Y-45243750D03*
D21*
X76517500Y-45243750D03*
X66357500Y-45243750D03*
D20*
X90487500Y-45243750D03*
D21*
X95567500Y-45243750D03*
X85407500Y-45243750D03*
D20*
X109537500Y-45243750D03*
D21*
X114617500Y-45243750D03*
X104457500Y-45243750D03*
D20*
X128587500Y-45243750D03*
D21*
X133667500Y-45243750D03*
X123507500Y-45243750D03*
D20*
X52387500Y-64293750D03*
D21*
X47307500Y-64293750D03*
X57467500Y-64293750D03*
D20*
X71437500Y-64293750D03*
D21*
X66357500Y-64293750D03*
X76517500Y-64293750D03*
D20*
X90487500Y-64293750D03*
D21*
X85407500Y-64293750D03*
X95567500Y-64293750D03*
D20*
X109537500Y-64293750D03*
D21*
X104457500Y-64293750D03*
X114617500Y-64293750D03*
D20*
X128587500Y-64293750D03*
D21*
X123507500Y-64293750D03*
X133667500Y-64293750D03*
D20*
X52387500Y-83343750D03*
D21*
X57467500Y-83343750D03*
X47307500Y-83343750D03*
D20*
X71437500Y-83343750D03*
D21*
X76517500Y-83343750D03*
X66357500Y-83343750D03*
D20*
X90487500Y-83343750D03*
D21*
X95567500Y-83343750D03*
X85407500Y-83343750D03*
D20*
X109537500Y-83343750D03*
D21*
X114617500Y-83343750D03*
X104457500Y-83343750D03*
D20*
X128587500Y-83343750D03*
D21*
X133667500Y-83343750D03*
X123507500Y-83343750D03*
D20*
X100012500Y-102393750D03*
D21*
X105092500Y-102393750D03*
X94932500Y-102393750D03*
D20*
X119062500Y-102393750D03*
D21*
X124142500Y-102393750D03*
X113982500Y-102393750D03*
D20*
X138112500Y-102393750D03*
D21*
X143192500Y-102393750D03*
X133032500Y-102393750D03*
D20*
X109537500Y-102393750D03*
D21*
X114617500Y-102393750D03*
X104457500Y-102393750D03*
D22*
X121475500Y-109378750D03*
X97599500Y-109378750D03*
D20*
X121475500Y-94138750D03*
X97599500Y-94138750D03*
X128587500Y-102393750D03*
D21*
X133667500Y-102393750D03*
X123507500Y-102393750D03*
D22*
X140525500Y-109378750D03*
X116649500Y-109378750D03*
D20*
X140525500Y-94138750D03*
X116649500Y-94138750D03*
M02*
