G04 #@! TF.FileFunction,Legend,Top*
%FSLAX46Y46*%
G04 Gerber Fmt 4.6, Leading zero omitted, Abs format (unit mm)*
G04 Created by KiCad (PCBNEW 4.0.7) date 03/15/18 20:04:12*
%MOMM*%
%LPD*%
G01*
G04 APERTURE LIST*
%ADD10C,0.100000*%
%ADD11C,0.300000*%
%ADD12C,0.381000*%
%ADD13C,0.010000*%
%ADD14C,2.900000*%
%ADD15C,2.400000*%
%ADD16O,2.000000X2.400000*%
%ADD17C,1.200000*%
%ADD18C,2.500000*%
%ADD19C,2.150000*%
%ADD20C,1.600000*%
%ADD21R,2.100000X2.100000*%
%ADD22O,2.100000X2.100000*%
%ADD23R,2.000000X2.000000*%
%ADD24C,2.000000*%
%ADD25R,2.152600X2.152600*%
%ADD26C,2.152600*%
%ADD27R,1.600000X1.900000*%
%ADD28R,1.900000X1.600000*%
%ADD29R,1.600000X1.600000*%
%ADD30C,6.800000*%
G04 APERTURE END LIST*
D10*
D11*
X71828572Y-82978571D02*
X71828572Y-84264286D01*
X71757143Y-84407143D01*
X71614286Y-84478571D01*
X71542858Y-84478571D01*
X71828572Y-82478571D02*
X71757143Y-82550000D01*
X71828572Y-82621429D01*
X71900000Y-82550000D01*
X71828572Y-82478571D01*
X71828572Y-82621429D01*
X72328572Y-82978571D02*
X72900001Y-82978571D01*
X72542858Y-82478571D02*
X72542858Y-83764286D01*
X72614286Y-83907143D01*
X72757144Y-83978571D01*
X72900001Y-83978571D01*
X74042858Y-83978571D02*
X74042858Y-83192857D01*
X73971429Y-83050000D01*
X73828572Y-82978571D01*
X73542858Y-82978571D01*
X73400001Y-83050000D01*
X74042858Y-83907143D02*
X73900001Y-83978571D01*
X73542858Y-83978571D01*
X73400001Y-83907143D01*
X73328572Y-83764286D01*
X73328572Y-83621429D01*
X73400001Y-83478571D01*
X73542858Y-83407143D01*
X73900001Y-83407143D01*
X74042858Y-83335714D01*
X74971430Y-83978571D02*
X74828572Y-83907143D01*
X74757144Y-83764286D01*
X74757144Y-82478571D01*
X75757144Y-83978571D02*
X75614286Y-83907143D01*
X75542858Y-83764286D01*
X75542858Y-82478571D01*
X76328572Y-83978571D02*
X76328572Y-82478571D01*
X76328572Y-83050000D02*
X76471429Y-82978571D01*
X76757143Y-82978571D01*
X76900000Y-83050000D01*
X76971429Y-83121429D01*
X77042858Y-83264286D01*
X77042858Y-83692857D01*
X76971429Y-83835714D01*
X76900000Y-83907143D01*
X76757143Y-83978571D01*
X76471429Y-83978571D01*
X76328572Y-83907143D01*
X78257143Y-83907143D02*
X78114286Y-83978571D01*
X77828572Y-83978571D01*
X77685715Y-83907143D01*
X77614286Y-83764286D01*
X77614286Y-83192857D01*
X77685715Y-83050000D01*
X77828572Y-82978571D01*
X78114286Y-82978571D01*
X78257143Y-83050000D01*
X78328572Y-83192857D01*
X78328572Y-83335714D01*
X77614286Y-83478571D01*
X79614286Y-83978571D02*
X79614286Y-83192857D01*
X79542857Y-83050000D01*
X79400000Y-82978571D01*
X79114286Y-82978571D01*
X78971429Y-83050000D01*
X79614286Y-83907143D02*
X79471429Y-83978571D01*
X79114286Y-83978571D01*
X78971429Y-83907143D01*
X78900000Y-83764286D01*
X78900000Y-83621429D01*
X78971429Y-83478571D01*
X79114286Y-83407143D01*
X79471429Y-83407143D01*
X79614286Y-83335714D01*
X80328572Y-82978571D02*
X80328572Y-83978571D01*
X80328572Y-83121429D02*
X80400000Y-83050000D01*
X80542858Y-82978571D01*
X80757143Y-82978571D01*
X80900000Y-83050000D01*
X80971429Y-83192857D01*
X80971429Y-83978571D01*
D12*
X82550000Y-83600000D02*
X85090000Y-83600000D01*
X82550000Y-81060000D02*
X82550000Y-83600000D01*
D13*
G36*
X132238640Y-103423741D02*
X132499445Y-103648456D01*
X132724010Y-104106549D01*
X132732834Y-104647018D01*
X132514815Y-105367864D01*
X132231961Y-106009732D01*
X131956990Y-106631043D01*
X131793004Y-107081793D01*
X131771891Y-107245780D01*
X131994246Y-107212764D01*
X132460871Y-107032321D01*
X132735123Y-106905923D01*
X133499746Y-106593771D01*
X134380840Y-106312035D01*
X134692172Y-106232494D01*
X135387067Y-106101146D01*
X135871669Y-106115941D01*
X136338153Y-106291766D01*
X136491701Y-106371883D01*
X137128509Y-106814001D01*
X137362985Y-107267797D01*
X137197595Y-107779606D01*
X136634802Y-108395759D01*
X136600992Y-108425955D01*
X135977983Y-108928626D01*
X135367818Y-109341890D01*
X135090574Y-109490314D01*
X134662692Y-109716754D01*
X134470771Y-109891530D01*
X134470000Y-109898545D01*
X134661774Y-110037039D01*
X135157802Y-110164228D01*
X135839137Y-110258087D01*
X136586836Y-110296589D01*
X136619923Y-110296667D01*
X137393631Y-110381717D01*
X138143082Y-110587971D01*
X138180965Y-110603366D01*
X138674167Y-110863974D01*
X138878304Y-111197836D01*
X138915000Y-111682610D01*
X138812863Y-112333365D01*
X138443584Y-112884948D01*
X138257615Y-113069244D01*
X137902084Y-113373202D01*
X137557615Y-113555956D01*
X137103863Y-113648087D01*
X136420486Y-113680177D01*
X135841103Y-113683333D01*
X134968901Y-113692145D01*
X134413557Y-113737119D01*
X134068675Y-113846064D01*
X133827861Y-114046790D01*
X133668269Y-114251260D01*
X133318794Y-114612640D01*
X132840119Y-114823223D01*
X132089808Y-114947392D01*
X131323994Y-114993938D01*
X130646873Y-114971998D01*
X130371730Y-114927617D01*
X130121592Y-114892962D01*
X129871741Y-114965443D01*
X129565176Y-115193680D01*
X129144898Y-115626289D01*
X128553907Y-116311888D01*
X128077379Y-116884589D01*
X127292000Y-117890622D01*
X126550910Y-118942503D01*
X125899937Y-119964458D01*
X125384911Y-120880711D01*
X125051658Y-121615487D01*
X124945000Y-122063848D01*
X125110730Y-122282957D01*
X125558648Y-122670773D01*
X126214844Y-123167079D01*
X126797083Y-123572844D01*
X127773041Y-124268339D01*
X128381952Y-124793709D01*
X128638411Y-125162027D01*
X128649167Y-125231940D01*
X128504809Y-125556193D01*
X128069402Y-125577018D01*
X127696667Y-125456262D01*
X127377658Y-125535186D01*
X126790778Y-125902395D01*
X125961451Y-126540908D01*
X125513677Y-126914143D01*
X124731057Y-127568091D01*
X124030436Y-128133293D01*
X123494809Y-128544018D01*
X123228128Y-128724264D01*
X122829250Y-129092766D01*
X122606931Y-129478107D01*
X122394406Y-129822505D01*
X122196975Y-129878084D01*
X121918029Y-129928279D01*
X121489465Y-130227930D01*
X121004814Y-130679957D01*
X120557609Y-131187279D01*
X120241382Y-131652815D01*
X120149666Y-131979484D01*
X120155103Y-131997430D01*
X120186171Y-132248071D01*
X119929987Y-132263104D01*
X119800471Y-132233447D01*
X119199308Y-132245346D01*
X118716118Y-132529092D01*
X118468647Y-132989253D01*
X118480484Y-133303266D01*
X118530046Y-133671345D01*
X118358984Y-133737089D01*
X118199883Y-133694789D01*
X117919547Y-133673978D01*
X117761987Y-133905629D01*
X117670701Y-134365817D01*
X117576272Y-135604162D01*
X117659061Y-136694757D01*
X117900360Y-137574359D01*
X118281457Y-138179728D01*
X118783644Y-138447622D01*
X118880491Y-138455065D01*
X119195354Y-138483192D01*
X119128104Y-138614464D01*
X118955736Y-138750062D01*
X118695523Y-139183939D01*
X118772776Y-139778051D01*
X119172131Y-140458702D01*
X119356663Y-140673307D01*
X119700929Y-141128160D01*
X119863146Y-141506638D01*
X119865000Y-141535442D01*
X119956155Y-141890774D01*
X120190238Y-142466538D01*
X120394167Y-142893334D01*
X120685772Y-143487600D01*
X120877965Y-143915337D01*
X120923333Y-144050464D01*
X120737954Y-144127280D01*
X120286407Y-144163009D01*
X120234096Y-144163334D01*
X119841849Y-144133696D01*
X119580900Y-143982047D01*
X119364196Y-143614277D01*
X119108261Y-142946250D01*
X118803314Y-142209533D01*
X118518562Y-141807780D01*
X118205113Y-141660888D01*
X117750728Y-141674303D01*
X116970760Y-141780081D01*
X115948444Y-141960684D01*
X114767016Y-142198576D01*
X113509711Y-142476217D01*
X112259764Y-142776071D01*
X111100411Y-143080598D01*
X110177346Y-143352356D01*
X109148592Y-143649566D01*
X108119720Y-143898843D01*
X107251486Y-144063056D01*
X106935915Y-144101015D01*
X105754330Y-144197355D01*
X105546718Y-143492428D01*
X105358635Y-143016329D01*
X105073924Y-142839716D01*
X104611636Y-142838409D01*
X104148282Y-142856610D01*
X104051685Y-142789638D01*
X104267398Y-142594712D01*
X104284600Y-142581459D01*
X104472222Y-142454172D01*
X106244238Y-142454172D01*
X106282795Y-142673066D01*
X106306790Y-142737083D01*
X106510475Y-143281347D01*
X106613965Y-143586449D01*
X106810708Y-143815444D01*
X107227494Y-143837807D01*
X107916776Y-143648310D01*
X108580861Y-143390393D01*
X109176618Y-143179774D01*
X110068600Y-142908087D01*
X111139869Y-142606494D01*
X112273485Y-142306160D01*
X113352511Y-142038249D01*
X114260009Y-141833922D01*
X114785000Y-141737025D01*
X116163506Y-141517814D01*
X117154925Y-141323481D01*
X117794145Y-141145014D01*
X118116054Y-140973399D01*
X118171667Y-140862142D01*
X118085341Y-140497176D01*
X117872031Y-139954662D01*
X117814963Y-139831348D01*
X117513181Y-139326850D01*
X117158967Y-139116784D01*
X116770468Y-139083334D01*
X115798351Y-139171971D01*
X114484979Y-139431116D01*
X112871944Y-139850617D01*
X111000840Y-140420323D01*
X110172398Y-140693732D01*
X108786067Y-141165354D01*
X107755446Y-141532358D01*
X107033245Y-141819744D01*
X106572171Y-142052509D01*
X106324933Y-142255653D01*
X106244238Y-142454172D01*
X104472222Y-142454172D01*
X104684992Y-142309825D01*
X104897205Y-142202876D01*
X104974821Y-141982683D01*
X104907250Y-141528647D01*
X104738033Y-140985865D01*
X104510711Y-140499431D01*
X104308839Y-140242223D01*
X104030747Y-139852264D01*
X103967587Y-139664919D01*
X105337170Y-139664919D01*
X105351804Y-140055296D01*
X105614003Y-140909162D01*
X105884552Y-141450169D01*
X106118715Y-141623334D01*
X106392323Y-141554966D01*
X106986383Y-141366953D01*
X107823721Y-141084926D01*
X108827166Y-140734519D01*
X109266738Y-140577732D01*
X110856992Y-140027649D01*
X112364359Y-139544988D01*
X113721873Y-139148602D01*
X114862566Y-138857343D01*
X115719473Y-138690063D01*
X116090266Y-138656759D01*
X116736904Y-138567025D01*
X117019782Y-138281758D01*
X116969107Y-137760353D01*
X116899969Y-137568300D01*
X116664310Y-137007499D01*
X116435377Y-136668764D01*
X116117816Y-136521583D01*
X115616270Y-136535446D01*
X114835383Y-136679842D01*
X114407358Y-136770753D01*
X113440031Y-136982323D01*
X112620158Y-137177663D01*
X111842332Y-137387303D01*
X111001144Y-137641776D01*
X109991189Y-137971612D01*
X108707058Y-138407343D01*
X108435000Y-138500633D01*
X107454815Y-138835601D01*
X106594920Y-139126746D01*
X105949226Y-139342452D01*
X105614698Y-139450200D01*
X105337170Y-139664919D01*
X103967587Y-139664919D01*
X103961778Y-139647689D01*
X103716748Y-139355118D01*
X103083919Y-139027361D01*
X102324789Y-138745997D01*
X101490297Y-138452900D01*
X100745701Y-138169369D01*
X100240073Y-137952420D01*
X100208122Y-137936444D01*
X99534998Y-137673335D01*
X98533394Y-137385396D01*
X97296032Y-137090232D01*
X95915631Y-136805448D01*
X94484914Y-136548649D01*
X93096602Y-136337438D01*
X91843415Y-136189421D01*
X90818075Y-136122203D01*
X90641190Y-136120000D01*
X90087191Y-136118484D01*
X89708955Y-136073090D01*
X89493964Y-135922545D01*
X89429700Y-135605580D01*
X89430827Y-135597272D01*
X90020000Y-135597272D01*
X90159971Y-135677028D01*
X90609358Y-135682344D01*
X91412372Y-135612338D01*
X91864248Y-135560438D01*
X92499143Y-135466022D01*
X92792099Y-135353230D01*
X92823711Y-135177653D01*
X92771150Y-135060701D01*
X92753567Y-134969302D01*
X93282087Y-134969302D01*
X93437770Y-135410200D01*
X93779370Y-135619005D01*
X94331243Y-135654360D01*
X94465000Y-135646077D01*
X95205833Y-135590834D01*
X95205833Y-133582689D01*
X95731435Y-133582689D01*
X95736964Y-134488626D01*
X95775922Y-135101036D01*
X95872646Y-135484686D01*
X96051471Y-135704341D01*
X96336732Y-135824768D01*
X96752766Y-135910733D01*
X97110833Y-135980055D01*
X97653210Y-136025342D01*
X97893665Y-135829915D01*
X97918684Y-135463578D01*
X97889792Y-135051593D01*
X97841395Y-134326245D01*
X97780699Y-133396658D01*
X97726360Y-132551550D01*
X97646457Y-131466171D01*
X97559044Y-130720666D01*
X97446787Y-130231690D01*
X97307479Y-129946817D01*
X98057809Y-129946817D01*
X98152627Y-130863825D01*
X98206196Y-131469357D01*
X98273673Y-132357333D01*
X98344742Y-133387559D01*
X98386301Y-134039775D01*
X98525158Y-136298716D01*
X99299662Y-136504982D01*
X100092588Y-136697792D01*
X100555745Y-136730774D01*
X100763308Y-136570758D01*
X100789448Y-136184578D01*
X100752255Y-135855417D01*
X100673972Y-135253465D01*
X100672371Y-135240852D01*
X101228107Y-135240852D01*
X101249663Y-135690774D01*
X101349908Y-136279983D01*
X101502121Y-136877032D01*
X101679583Y-137350471D01*
X101817504Y-137548750D01*
X102282123Y-137804736D01*
X102547034Y-137758226D01*
X102549131Y-137607563D01*
X103194794Y-137607563D01*
X103266724Y-137841742D01*
X103429042Y-138002009D01*
X103521635Y-137842596D01*
X103523220Y-137512155D01*
X103482882Y-137447327D01*
X103279315Y-137398007D01*
X103194794Y-137607563D01*
X102549131Y-137607563D01*
X102551639Y-137427495D01*
X102519307Y-137337084D01*
X102494463Y-137279826D01*
X104201667Y-137279826D01*
X104286760Y-137668693D01*
X104493697Y-138188904D01*
X104749961Y-138690913D01*
X104983033Y-139025167D01*
X105076193Y-139083334D01*
X105320280Y-139019305D01*
X105897486Y-138841694D01*
X106739800Y-138572216D01*
X107779209Y-138232584D01*
X108762303Y-137906483D01*
X110077113Y-137481307D01*
X111409875Y-137074408D01*
X112644302Y-136719658D01*
X113664107Y-136450929D01*
X114118231Y-136346403D01*
X115949167Y-135963174D01*
X115907316Y-135071192D01*
X115816069Y-134300575D01*
X115579475Y-133879850D01*
X115116947Y-133740561D01*
X114414864Y-133803358D01*
X113178445Y-134035828D01*
X111829425Y-134349933D01*
X110428112Y-134725147D01*
X109034813Y-135140942D01*
X107709833Y-135576789D01*
X106513478Y-136012161D01*
X105506057Y-136426531D01*
X104747875Y-136799370D01*
X104299238Y-137110151D01*
X104201667Y-137279826D01*
X102494463Y-137279826D01*
X102229425Y-136669017D01*
X101903565Y-136002276D01*
X101599986Y-135446657D01*
X101376946Y-135111956D01*
X101311957Y-135061667D01*
X101228107Y-135240852D01*
X100672371Y-135240852D01*
X100562235Y-134373475D01*
X100435015Y-133357605D01*
X100362216Y-132770274D01*
X100224926Y-131735882D01*
X100172754Y-131477932D01*
X100850488Y-131477932D01*
X100899510Y-132193633D01*
X101034288Y-133155642D01*
X101283628Y-134020673D01*
X101706700Y-134975805D01*
X101896967Y-135347318D01*
X102381927Y-136190560D01*
X102772761Y-136707021D01*
X103048029Y-136881819D01*
X103186292Y-136700073D01*
X103177986Y-136236502D01*
X103186443Y-135828799D01*
X103336736Y-135791212D01*
X103482989Y-135710585D01*
X103555518Y-135300345D01*
X103554672Y-134647682D01*
X103480799Y-133839784D01*
X103334248Y-132963841D01*
X103325263Y-132920974D01*
X103190293Y-132165604D01*
X103111912Y-131494316D01*
X103103085Y-131224122D01*
X103067153Y-130905728D01*
X103850480Y-130905728D01*
X103852568Y-131112170D01*
X103895370Y-131606736D01*
X103933140Y-131959242D01*
X103973764Y-132383739D01*
X104027471Y-132672102D01*
X104160884Y-132834440D01*
X104440625Y-132880860D01*
X104933315Y-132821469D01*
X105705577Y-132666375D01*
X106824032Y-132425686D01*
X106900417Y-132409421D01*
X107797605Y-132191229D01*
X108385959Y-131991577D01*
X108639172Y-131827580D01*
X108530939Y-131716351D01*
X108034955Y-131675003D01*
X108029305Y-131675000D01*
X107561340Y-131749911D01*
X107330140Y-131920412D01*
X107105984Y-131988297D01*
X106534778Y-131861095D01*
X105603940Y-131535959D01*
X105566251Y-131521556D01*
X104801883Y-131233287D01*
X104210554Y-131018799D01*
X103885163Y-130911435D01*
X103850480Y-130905728D01*
X103067153Y-130905728D01*
X103060993Y-130851150D01*
X102823329Y-130653595D01*
X102302976Y-130536394D01*
X101565396Y-130454281D01*
X101114778Y-130539761D01*
X100895138Y-130858941D01*
X100850488Y-131477932D01*
X100172754Y-131477932D01*
X100084472Y-131041450D01*
X99892051Y-130606069D01*
X99598856Y-130348833D01*
X99156083Y-130188836D01*
X98748488Y-130095118D01*
X98057809Y-129946817D01*
X97307479Y-129946817D01*
X97292358Y-129915897D01*
X97143180Y-129746966D01*
X96897282Y-129460635D01*
X96912171Y-129339166D01*
X96899597Y-129249896D01*
X96593044Y-129045081D01*
X96584323Y-129040237D01*
X96151029Y-128859894D01*
X95896406Y-128848563D01*
X95841614Y-129083529D01*
X95794793Y-129667961D01*
X95759376Y-130528019D01*
X95738799Y-131589860D01*
X95735000Y-132318459D01*
X95731435Y-133582689D01*
X95205833Y-133582689D01*
X95205833Y-128605834D01*
X94705171Y-128534996D01*
X94316617Y-128524179D01*
X94059923Y-128671802D01*
X93897774Y-129049784D01*
X93792853Y-129730045D01*
X93734931Y-130405000D01*
X93647001Y-131394109D01*
X93534108Y-132407657D01*
X93431051Y-133156667D01*
X93287966Y-134237671D01*
X93282087Y-134969302D01*
X92753567Y-134969302D01*
X92683732Y-134606301D01*
X92711167Y-133862495D01*
X92763547Y-133448840D01*
X92884602Y-132561018D01*
X93009555Y-131503074D01*
X93096996Y-130651813D01*
X93165524Y-129857914D01*
X93173497Y-129399926D01*
X93101128Y-129192393D01*
X92928629Y-129149859D01*
X92753904Y-129170146D01*
X92527140Y-129247846D01*
X92332589Y-129454017D01*
X92136429Y-129858793D01*
X91904838Y-130532304D01*
X91603994Y-131544685D01*
X91596953Y-131569167D01*
X91282073Y-132595546D01*
X90953270Y-133552794D01*
X90654683Y-134317963D01*
X90473816Y-134697688D01*
X90196645Y-135207238D01*
X90036077Y-135542743D01*
X90020000Y-135597272D01*
X89430827Y-135597272D01*
X89503643Y-135060922D01*
X89703276Y-134227301D01*
X90014124Y-133050834D01*
X90246961Y-132113733D01*
X90412866Y-131330267D01*
X90495216Y-130787894D01*
X90484080Y-130578106D01*
X90212890Y-130424028D01*
X89645842Y-130165209D01*
X88884550Y-129842601D01*
X88030628Y-129497156D01*
X87185692Y-129169826D01*
X86451355Y-128901563D01*
X85929233Y-128733319D01*
X85865728Y-128716841D01*
X85203956Y-128556375D01*
X85073818Y-129639438D01*
X84995337Y-130428114D01*
X84947967Y-131164703D01*
X84941840Y-131410417D01*
X84768804Y-132184575D01*
X84270074Y-132698772D01*
X83469015Y-132932566D01*
X83187930Y-132945000D01*
X82312964Y-132835575D01*
X81675075Y-132462031D01*
X81177443Y-131756468D01*
X81021648Y-131425785D01*
X80780914Y-130876185D01*
X80621785Y-130519608D01*
X80590730Y-130454131D01*
X80403845Y-130501432D01*
X79992333Y-130692641D01*
X79944409Y-130717410D01*
X79300466Y-130983034D01*
X78762986Y-130980003D01*
X78141316Y-130698628D01*
X78007916Y-130618987D01*
X77477840Y-130182828D01*
X77282016Y-129693894D01*
X77429122Y-129111505D01*
X77927835Y-128394984D01*
X78642917Y-127642079D01*
X79269702Y-127027898D01*
X79619711Y-126656792D01*
X79720607Y-126477683D01*
X79600054Y-126439494D01*
X79285717Y-126491146D01*
X79263936Y-126495463D01*
X78370494Y-126493509D01*
X77579960Y-126165937D01*
X77019617Y-125567560D01*
X76992518Y-125517364D01*
X76743124Y-124917899D01*
X76743832Y-124904135D01*
X77743333Y-124904135D01*
X77871954Y-125343944D01*
X78113750Y-125730501D01*
X78352426Y-125978015D01*
X78622641Y-126081130D01*
X79054623Y-126056484D01*
X79710625Y-125934513D01*
X80392706Y-125784753D01*
X80752491Y-125641136D01*
X80883592Y-125430872D01*
X80879621Y-125081173D01*
X80874791Y-125029313D01*
X80899594Y-124529621D01*
X81114524Y-124372500D01*
X81114771Y-124372500D01*
X81398690Y-124579485D01*
X81641566Y-125184217D01*
X81834910Y-126162366D01*
X81890051Y-126595000D01*
X82055330Y-127378882D01*
X82345724Y-128238625D01*
X82483998Y-128552917D01*
X82721404Y-129109606D01*
X82816056Y-129474720D01*
X82781229Y-129558334D01*
X82604710Y-129382617D01*
X82334703Y-128939650D01*
X82033759Y-128355709D01*
X81764432Y-127757068D01*
X81589274Y-127270004D01*
X81555401Y-127083742D01*
X81444787Y-126775361D01*
X81102218Y-126753584D01*
X80500516Y-127022398D01*
X80030772Y-127307439D01*
X79153349Y-127986645D01*
X78537076Y-128700570D01*
X78211644Y-129389807D01*
X78206744Y-129994947D01*
X78483107Y-130404121D01*
X78896561Y-130496541D01*
X79489079Y-130227693D01*
X80270004Y-129592657D01*
X80564199Y-129308331D01*
X81106541Y-128832297D01*
X81454251Y-128707201D01*
X81631769Y-128949654D01*
X81663540Y-129576268D01*
X81632781Y-130034584D01*
X81582956Y-130778750D01*
X81623449Y-131255779D01*
X81794272Y-131618865D01*
X82135437Y-132021204D01*
X82157980Y-132045417D01*
X82660187Y-132531911D01*
X83018892Y-132703580D01*
X83339383Y-132588113D01*
X83540733Y-132409029D01*
X83862823Y-131846772D01*
X84077929Y-130956325D01*
X84168120Y-129823360D01*
X84167490Y-129414532D01*
X84173365Y-128797888D01*
X84280174Y-128412968D01*
X84574888Y-128160538D01*
X85144476Y-127941365D01*
X85575000Y-127808554D01*
X85884889Y-127850862D01*
X86492054Y-128037439D01*
X87308065Y-128338078D01*
X88220833Y-128712397D01*
X90549167Y-129712367D01*
X90732485Y-129191228D01*
X90791362Y-128666018D01*
X90678243Y-128484125D01*
X92600569Y-128484125D01*
X92702745Y-128677131D01*
X92877500Y-128711667D01*
X93140934Y-128604267D01*
X93154430Y-128484125D01*
X92935910Y-128265439D01*
X92877500Y-128256584D01*
X92629314Y-128421370D01*
X92600569Y-128484125D01*
X90678243Y-128484125D01*
X90626652Y-128401168D01*
X90331226Y-128205112D01*
X89746654Y-127872177D01*
X88964881Y-127449830D01*
X88829066Y-127378741D01*
X90575493Y-127378741D01*
X90866667Y-127408246D01*
X91167155Y-127374982D01*
X91131250Y-127301484D01*
X90697895Y-127273528D01*
X90602083Y-127301484D01*
X90575493Y-127378741D01*
X88829066Y-127378741D01*
X88125477Y-127010467D01*
X92946149Y-127010467D01*
X93440991Y-127202905D01*
X94042569Y-127442651D01*
X94465000Y-127615845D01*
X95001341Y-127812440D01*
X95217193Y-127800406D01*
X95165775Y-127569994D01*
X95126883Y-127494584D01*
X94828032Y-127083220D01*
X94431519Y-126663864D01*
X94070822Y-126361422D01*
X93816326Y-126339136D01*
X93467408Y-126585492D01*
X93440991Y-126607014D01*
X92946149Y-127010467D01*
X88125477Y-127010467D01*
X88077848Y-126985537D01*
X87177498Y-126526766D01*
X86355774Y-126120982D01*
X85704620Y-125815651D01*
X85315977Y-125658241D01*
X85310417Y-125656610D01*
X84981363Y-125377386D01*
X84907688Y-124896071D01*
X85786667Y-124896071D01*
X85954718Y-125061655D01*
X86354695Y-125310519D01*
X86830332Y-125557063D01*
X87225365Y-125715690D01*
X87317825Y-125734796D01*
X87336692Y-125574768D01*
X87199362Y-125156774D01*
X87112436Y-124954584D01*
X86873838Y-124438525D01*
X86716111Y-124113868D01*
X86693825Y-124073937D01*
X86522555Y-124127121D01*
X86217869Y-124368399D01*
X85924425Y-124666671D01*
X85786880Y-124890837D01*
X85786667Y-124896071D01*
X84907688Y-124896071D01*
X84904205Y-124873321D01*
X85062608Y-124247088D01*
X85440239Y-123601357D01*
X85680833Y-123328278D01*
X86236682Y-122594930D01*
X86431434Y-121901155D01*
X86258498Y-121303760D01*
X85951236Y-120997836D01*
X85398608Y-120719832D01*
X84891548Y-120753658D01*
X84330901Y-121122515D01*
X83980959Y-121458863D01*
X83498263Y-122025627D01*
X83299702Y-122482344D01*
X83300478Y-122844016D01*
X83302028Y-123314173D01*
X83191097Y-123560178D01*
X82894496Y-123631192D01*
X82299815Y-123703366D01*
X81531998Y-123761767D01*
X81480138Y-123764672D01*
X80103494Y-123857335D01*
X79098013Y-123972851D01*
X78411582Y-124127113D01*
X77992088Y-124336009D01*
X77787420Y-124615433D01*
X77743333Y-124904135D01*
X76743832Y-124904135D01*
X76765847Y-124476450D01*
X77100977Y-124070206D01*
X77584583Y-123712711D01*
X78049820Y-123422075D01*
X78485452Y-123238285D01*
X79013034Y-123134193D01*
X79754119Y-123082650D01*
X80495000Y-123062701D01*
X81427179Y-123040094D01*
X82018051Y-123001605D01*
X82349580Y-122924124D01*
X82503732Y-122784544D01*
X82562469Y-122559756D01*
X82573178Y-122476794D01*
X82811925Y-121904377D01*
X83319599Y-121288548D01*
X83972828Y-120744987D01*
X84648236Y-120389373D01*
X84860779Y-120331876D01*
X85849444Y-120301084D01*
X86723188Y-120560665D01*
X87109583Y-120823464D01*
X87417732Y-121037827D01*
X87686702Y-120957039D01*
X87894664Y-120782012D01*
X88405361Y-120467757D01*
X88990089Y-120267516D01*
X89474203Y-120115215D01*
X89726491Y-119934217D01*
X89731109Y-119922059D01*
X89638742Y-119655928D01*
X89336465Y-119202418D01*
X89089590Y-118895437D01*
X88387811Y-118075040D01*
X87165238Y-118532464D01*
X86505087Y-118750911D01*
X86011608Y-118861252D01*
X85811749Y-118847632D01*
X85834838Y-118660849D01*
X85901715Y-118625450D01*
X86178140Y-118474928D01*
X86696018Y-118154776D01*
X87346185Y-117732595D01*
X87383381Y-117707912D01*
X88244313Y-117188493D01*
X88889072Y-116909279D01*
X89280080Y-116882481D01*
X89385000Y-117057508D01*
X89231054Y-117343934D01*
X89171710Y-117388504D01*
X89126603Y-117618490D01*
X89315589Y-117877246D01*
X89670164Y-118300967D01*
X90081181Y-118888192D01*
X90470007Y-119512816D01*
X90758011Y-120048734D01*
X90866667Y-120364765D01*
X90681479Y-120563235D01*
X90211682Y-120784035D01*
X89911215Y-120880826D01*
X88955868Y-121321100D01*
X88347383Y-121841244D01*
X87983485Y-122299917D01*
X87839786Y-122689440D01*
X87868409Y-123204158D01*
X87927767Y-123544566D01*
X88321312Y-124754864D01*
X88997066Y-125651358D01*
X89966078Y-126245334D01*
X90805014Y-126483490D01*
X91494095Y-126478483D01*
X92244892Y-126273213D01*
X92928935Y-125928661D01*
X93417758Y-125505805D01*
X93580138Y-125166250D01*
X93732766Y-124856359D01*
X93991195Y-124679229D01*
X94206616Y-124704868D01*
X94253333Y-124849546D01*
X94401488Y-125114813D01*
X94793153Y-125576228D01*
X95349130Y-126155951D01*
X95990218Y-126776141D01*
X96637220Y-127358957D01*
X97210936Y-127826560D01*
X97462979Y-128004136D01*
X98209341Y-128472046D01*
X98834861Y-128818627D01*
X99457159Y-129091912D01*
X100193858Y-129339938D01*
X101162577Y-129610739D01*
X101812977Y-129780616D01*
X102962772Y-130058451D01*
X103951289Y-130241906D01*
X104938217Y-130350642D01*
X106083249Y-130404319D01*
X106998810Y-130419096D01*
X108078079Y-130417160D01*
X109028329Y-130393855D01*
X109756730Y-130352980D01*
X110170453Y-130298333D01*
X110202718Y-130287985D01*
X110494776Y-130242290D01*
X110523092Y-130506019D01*
X110518174Y-130532866D01*
X110421389Y-130739993D01*
X110168947Y-130876523D01*
X109674451Y-130967464D01*
X108851500Y-131037824D01*
X108750456Y-131044518D01*
X107941938Y-131104769D01*
X107511358Y-131162034D01*
X107413621Y-131229276D01*
X107603631Y-131319456D01*
X107694167Y-131348127D01*
X108247253Y-131453483D01*
X109032553Y-131529203D01*
X109705000Y-131555276D01*
X110605632Y-131522997D01*
X111300033Y-131371224D01*
X111999544Y-131050086D01*
X112112910Y-130987084D01*
X112764892Y-130624777D01*
X113125469Y-130456663D01*
X113271414Y-130467988D01*
X113279496Y-130643996D01*
X113259695Y-130766691D01*
X113289818Y-130993938D01*
X113551298Y-131081352D01*
X114075549Y-131069560D01*
X114649692Y-131076152D01*
X115023352Y-131163810D01*
X115075380Y-131207785D01*
X114934363Y-131315591D01*
X114448559Y-131442905D01*
X113694905Y-131572369D01*
X113138997Y-131644692D01*
X112416427Y-131751527D01*
X111456128Y-131925745D01*
X110333406Y-132150209D01*
X109123564Y-132407781D01*
X107901909Y-132681324D01*
X106743744Y-132953700D01*
X105724376Y-133207772D01*
X104919109Y-133426401D01*
X104403247Y-133592452D01*
X104256695Y-133666083D01*
X104201243Y-133923337D01*
X104175825Y-134452426D01*
X104178090Y-135103092D01*
X104205693Y-135725076D01*
X104256284Y-136168121D01*
X104297642Y-136286531D01*
X104522767Y-136255868D01*
X105052130Y-136095928D01*
X105797135Y-135835208D01*
X106361586Y-135622673D01*
X108033476Y-135007097D01*
X109677866Y-134457748D01*
X111209643Y-133999720D01*
X112543695Y-133658106D01*
X113594909Y-133458000D01*
X113780495Y-133435382D01*
X114605369Y-133332501D01*
X115144671Y-133178765D01*
X115445302Y-132897634D01*
X115462381Y-132821528D01*
X117341710Y-132821528D01*
X117380627Y-133096063D01*
X117452882Y-133099340D01*
X117503410Y-132816048D01*
X117469592Y-132693646D01*
X117375605Y-132613471D01*
X117341710Y-132821528D01*
X115462381Y-132821528D01*
X115554162Y-132412564D01*
X115518152Y-131647013D01*
X115414899Y-130768031D01*
X115338841Y-130236574D01*
X116087787Y-130236574D01*
X116098352Y-130484717D01*
X116129147Y-130616667D01*
X116248596Y-131205776D01*
X116297651Y-131569167D01*
X116341240Y-131673942D01*
X116403997Y-131409263D01*
X116421793Y-131277668D01*
X116411559Y-130715505D01*
X116264443Y-130336264D01*
X116253289Y-130325168D01*
X116087787Y-130236574D01*
X115338841Y-130236574D01*
X115253090Y-129637398D01*
X115078419Y-128898200D01*
X114852252Y-128519325D01*
X114535956Y-128469660D01*
X114090899Y-128718093D01*
X113493109Y-129220318D01*
X112699391Y-129857620D01*
X112010893Y-130264886D01*
X111491564Y-130410426D01*
X111253130Y-130330353D01*
X111293887Y-130165240D01*
X111580075Y-129810010D01*
X112129551Y-129246802D01*
X112960176Y-128457760D01*
X114089805Y-127425024D01*
X114209015Y-127317894D01*
X115511422Y-127317894D01*
X115523578Y-127898940D01*
X115758832Y-128613036D01*
X115771973Y-128640810D01*
X116160833Y-129452500D01*
X116226410Y-128421061D01*
X116232097Y-128197397D01*
X116650966Y-128197397D01*
X116716814Y-128870787D01*
X116731627Y-128978970D01*
X116881176Y-129746663D01*
X117104447Y-130545572D01*
X117365012Y-131280339D01*
X117626441Y-131855606D01*
X117852304Y-132176015D01*
X117963034Y-132202292D01*
X118077707Y-131955121D01*
X118150695Y-131639478D01*
X118619686Y-131639478D01*
X118650763Y-131824579D01*
X118806667Y-131780834D01*
X118990839Y-131478762D01*
X119015092Y-131292092D01*
X118980838Y-131055210D01*
X118834510Y-131209073D01*
X118806667Y-131251667D01*
X118619686Y-131639478D01*
X118150695Y-131639478D01*
X118198347Y-131433409D01*
X118248484Y-131118079D01*
X118298477Y-130480808D01*
X118205150Y-129975377D01*
X117953578Y-129476909D01*
X119080263Y-129476909D01*
X119115725Y-130146281D01*
X119250401Y-130569305D01*
X119267932Y-130598749D01*
X119520326Y-130936138D01*
X119660178Y-131040000D01*
X119858116Y-130900680D01*
X120256136Y-130538177D01*
X120690637Y-130108928D01*
X121604415Y-129177856D01*
X120583475Y-127901994D01*
X120084609Y-127309460D01*
X119681321Y-126887355D01*
X119446246Y-126710243D01*
X119424005Y-126711749D01*
X119342030Y-126948396D01*
X119247921Y-127500209D01*
X119158976Y-128260047D01*
X119138920Y-128477432D01*
X119080263Y-129476909D01*
X117953578Y-129476909D01*
X117919156Y-129408706D01*
X117737255Y-129117736D01*
X117217188Y-128339213D01*
X116878132Y-127928433D01*
X116697065Y-127882220D01*
X116650966Y-128197397D01*
X116232097Y-128197397D01*
X116243381Y-127753619D01*
X116211535Y-127239318D01*
X116180137Y-127098144D01*
X115952818Y-126824578D01*
X115694718Y-126924704D01*
X115511422Y-127317894D01*
X114209015Y-127317894D01*
X114766248Y-126817129D01*
X115425902Y-126181803D01*
X116427784Y-126181803D01*
X116948328Y-126970485D01*
X117367365Y-127615354D01*
X117753024Y-128224411D01*
X117825148Y-128341250D01*
X118124382Y-128743931D01*
X118361664Y-128922793D01*
X118370153Y-128923334D01*
X118478481Y-128729336D01*
X118593291Y-128216109D01*
X118692650Y-127486801D01*
X118707576Y-127336534D01*
X118770070Y-126447349D01*
X118748051Y-125854235D01*
X118630183Y-125436298D01*
X118509090Y-125219867D01*
X118354362Y-125040807D01*
X119390637Y-125040807D01*
X120612091Y-126876237D01*
X121139254Y-127636031D01*
X121599922Y-128240875D01*
X121935106Y-128616643D01*
X122066356Y-128703719D01*
X122350280Y-128570602D01*
X122817808Y-128239574D01*
X123120952Y-127992293D01*
X123942737Y-127288814D01*
X122101901Y-124476017D01*
X121330759Y-123319675D01*
X120746171Y-122516895D01*
X120317565Y-122057832D01*
X120014367Y-121932637D01*
X119806005Y-122131464D01*
X119661904Y-122644467D01*
X119551493Y-123461797D01*
X119532040Y-123648320D01*
X119390637Y-125040807D01*
X118354362Y-125040807D01*
X118161963Y-124818153D01*
X117815682Y-124758208D01*
X117395079Y-125051829D01*
X117035142Y-125451183D01*
X116427784Y-126181803D01*
X115425902Y-126181803D01*
X116254855Y-125383423D01*
X117385250Y-124044599D01*
X117606891Y-123685134D01*
X118640264Y-123685134D01*
X118702147Y-124014141D01*
X118878563Y-124197144D01*
X118996967Y-124174039D01*
X119105826Y-123900153D01*
X119075950Y-123617468D01*
X118914658Y-123330288D01*
X118750216Y-123391784D01*
X118640264Y-123685134D01*
X117606891Y-123685134D01*
X118191649Y-122736755D01*
X118708269Y-121395991D01*
X118736977Y-121237900D01*
X120868987Y-121237900D01*
X120975799Y-121546048D01*
X121271938Y-122041751D01*
X121624229Y-122577760D01*
X122225261Y-123511307D01*
X122876530Y-124564522D01*
X123360089Y-125377917D01*
X123757481Y-126050594D01*
X124070270Y-126552964D01*
X124242898Y-126796544D01*
X124257184Y-126806667D01*
X124449868Y-126690758D01*
X124886527Y-126387003D01*
X125467811Y-125964695D01*
X126066117Y-125507953D01*
X126520658Y-125133592D01*
X126726574Y-124930132D01*
X126631999Y-124716053D01*
X126269436Y-124340770D01*
X125723545Y-123890380D01*
X125019183Y-123326050D01*
X124355706Y-122740946D01*
X123979494Y-122369157D01*
X123415915Y-121830692D01*
X122720110Y-121258993D01*
X122436075Y-121050685D01*
X121894317Y-120685095D01*
X121572146Y-120542495D01*
X121344687Y-120599792D01*
X121114612Y-120806314D01*
X120924319Y-121022818D01*
X120868987Y-121237900D01*
X118736977Y-121237900D01*
X118969324Y-119958403D01*
X119018333Y-118875844D01*
X119058304Y-117934939D01*
X119185022Y-117395286D01*
X119408693Y-117241781D01*
X119739526Y-117459321D01*
X119873882Y-117609870D01*
X120337038Y-117852284D01*
X120891425Y-117874453D01*
X121359644Y-117788147D01*
X121687239Y-117558047D01*
X121996343Y-117079012D01*
X122139042Y-116800426D01*
X122485497Y-115849027D01*
X122663557Y-114809954D01*
X122661375Y-113831694D01*
X122467104Y-113062734D01*
X122441329Y-113011737D01*
X121970666Y-112441244D01*
X121317463Y-112026953D01*
X120600603Y-111805164D01*
X119938972Y-111812176D01*
X119451453Y-112084289D01*
X119441667Y-112095834D01*
X119046705Y-112339789D01*
X118543587Y-112404886D01*
X118136765Y-112276836D01*
X118060103Y-112192395D01*
X118062397Y-111865698D01*
X118178192Y-111664637D01*
X118326069Y-111226089D01*
X118364303Y-110429653D01*
X118345133Y-109980576D01*
X118311171Y-109233558D01*
X118341779Y-108816052D01*
X118455713Y-108636725D01*
X118627936Y-108603334D01*
X118912952Y-108793031D01*
X119178666Y-109276934D01*
X119372048Y-109927265D01*
X119440486Y-110561250D01*
X119523795Y-110794593D01*
X119837655Y-110905491D01*
X120415094Y-110931667D01*
X121635700Y-111111182D01*
X122673157Y-111625428D01*
X123341656Y-112284371D01*
X123755439Y-112940965D01*
X123948731Y-113573336D01*
X123929418Y-114299943D01*
X123705386Y-115239250D01*
X123567613Y-115678448D01*
X123318838Y-116476098D01*
X123133217Y-117138980D01*
X123043585Y-117547894D01*
X123040000Y-117593704D01*
X122847068Y-117995293D01*
X122342718Y-118323816D01*
X121638615Y-118520702D01*
X121213598Y-118551667D01*
X120328058Y-118551667D01*
X120180636Y-119623552D01*
X120108241Y-120396946D01*
X120159965Y-120766454D01*
X120336592Y-120733160D01*
X120567956Y-120400236D01*
X122616667Y-120400236D01*
X122779941Y-120650323D01*
X123183915Y-120982713D01*
X123298132Y-121058235D01*
X123725131Y-121291194D01*
X124058525Y-121329015D01*
X124370488Y-121125781D01*
X124733194Y-120635574D01*
X125197599Y-119849782D01*
X125998628Y-118491087D01*
X126748775Y-117311550D01*
X127411113Y-116364752D01*
X127948715Y-115704272D01*
X128241082Y-115433775D01*
X128821830Y-115016391D01*
X129319747Y-114651461D01*
X129830302Y-114387944D01*
X130502728Y-114290535D01*
X131027236Y-114297403D01*
X131773091Y-114296322D01*
X132262790Y-114179972D01*
X132656905Y-113907575D01*
X132692695Y-113874462D01*
X133048816Y-113421070D01*
X133199958Y-112992738D01*
X133200000Y-112987413D01*
X133259170Y-112718919D01*
X133515859Y-112662036D01*
X133887917Y-112726434D01*
X134469254Y-112821716D01*
X135277916Y-112916884D01*
X135973321Y-112978268D01*
X136958798Y-112986842D01*
X137600374Y-112819594D01*
X137952007Y-112445333D01*
X138067655Y-111832868D01*
X138068333Y-111767247D01*
X138044090Y-111439048D01*
X137919980Y-111218794D01*
X137618935Y-111072529D01*
X137063888Y-110966299D01*
X136177769Y-110866150D01*
X135977811Y-110846213D01*
X135071359Y-110678068D01*
X134392365Y-110403006D01*
X133978232Y-110065946D01*
X133866364Y-109711808D01*
X134094165Y-109385509D01*
X134577890Y-109165046D01*
X135300112Y-108915886D01*
X135758389Y-108633928D01*
X136105435Y-108211502D01*
X136238391Y-107994354D01*
X136480297Y-107492023D01*
X136470311Y-107164019D01*
X136371224Y-107011284D01*
X135911866Y-106763605D01*
X135214306Y-106741778D01*
X134385439Y-106926461D01*
X133532160Y-107298313D01*
X133037651Y-107614448D01*
X132363636Y-108111720D01*
X132905432Y-108833777D01*
X133260359Y-109361768D01*
X133641422Y-110012197D01*
X133993893Y-110678614D01*
X134263045Y-111254567D01*
X134394151Y-111633606D01*
X134388570Y-111718653D01*
X134247148Y-111587642D01*
X133927175Y-111171800D01*
X133480672Y-110541328D01*
X133106541Y-109988630D01*
X132586604Y-109234510D01*
X132138337Y-108634474D01*
X131819776Y-108263408D01*
X131704893Y-108180000D01*
X131548592Y-108221207D01*
X131547360Y-108397873D01*
X131723302Y-108789571D01*
X132031640Y-109356350D01*
X132347165Y-109964246D01*
X132447695Y-110251845D01*
X132364117Y-110243455D01*
X132127319Y-109963383D01*
X131768190Y-109435937D01*
X131432668Y-108884979D01*
X131006018Y-108087804D01*
X130811475Y-107562074D01*
X130844353Y-107350214D01*
X131092112Y-107021887D01*
X131346522Y-106415133D01*
X131562856Y-105671732D01*
X131696389Y-104933461D01*
X131718333Y-104579742D01*
X131667263Y-104022934D01*
X131468063Y-103747590D01*
X131246829Y-103661073D01*
X130650005Y-103699145D01*
X130064229Y-104034948D01*
X129651214Y-104570599D01*
X129620193Y-104645653D01*
X129521628Y-105047474D01*
X129396256Y-105755780D01*
X129263062Y-106656207D01*
X129181636Y-107287436D01*
X129005199Y-108473030D01*
X128806299Y-109340008D01*
X128596604Y-109838944D01*
X128571578Y-109871374D01*
X128344418Y-110095300D01*
X128083442Y-110174877D01*
X127658138Y-110118686D01*
X127068455Y-109970189D01*
X126026775Y-109732684D01*
X125302963Y-109680443D01*
X124828622Y-109825500D01*
X124535352Y-110179886D01*
X124437177Y-110433113D01*
X124439316Y-110971423D01*
X124817841Y-111344603D01*
X125554136Y-111539786D01*
X126077188Y-111566667D01*
X126941899Y-111645075D01*
X127585031Y-111857121D01*
X127665022Y-111906993D01*
X127994016Y-112170303D01*
X127999907Y-112389603D01*
X127749892Y-112700743D01*
X127259081Y-113316658D01*
X126646152Y-114173392D01*
X125998180Y-115143730D01*
X125402238Y-116100457D01*
X125275683Y-116315542D01*
X124841339Y-117016456D01*
X124269888Y-117876080D01*
X123680191Y-118715940D01*
X123643051Y-118766980D01*
X123167318Y-119444975D01*
X122808671Y-120005560D01*
X122627431Y-120352747D01*
X122616667Y-120400236D01*
X120567956Y-120400236D01*
X120638904Y-120298145D01*
X120652141Y-120275007D01*
X121058276Y-119772810D01*
X121556714Y-119611919D01*
X121593261Y-119611338D01*
X122109872Y-119427317D01*
X122744182Y-118916941D01*
X123439534Y-118139615D01*
X124139275Y-117154747D01*
X124489280Y-116574672D01*
X124929712Y-115859521D01*
X125514198Y-114987541D01*
X126124615Y-114134282D01*
X126192052Y-114044074D01*
X126684670Y-113368649D01*
X127059735Y-112816137D01*
X127257247Y-112476446D01*
X127273333Y-112423799D01*
X127088511Y-112329336D01*
X126629560Y-112321371D01*
X126479583Y-112335831D01*
X125666497Y-112265782D01*
X124823036Y-111934627D01*
X124111759Y-111424746D01*
X123752157Y-110953676D01*
X123625321Y-110273581D01*
X123837100Y-109605787D01*
X124329601Y-109110887D01*
X124436328Y-109055842D01*
X125245998Y-108853266D01*
X126161396Y-108863379D01*
X126960365Y-109079694D01*
X127061667Y-109132500D01*
X127491173Y-109354758D01*
X127733168Y-109442500D01*
X127902492Y-109248061D01*
X128102058Y-108681747D01*
X128317912Y-107792703D01*
X128536101Y-106630073D01*
X128542367Y-106592500D01*
X128702653Y-105766130D01*
X128882910Y-105042593D01*
X129038579Y-104592265D01*
X129480088Y-104034113D01*
X130136613Y-103606615D01*
X130892390Y-103341340D01*
X131631654Y-103269859D01*
X132238640Y-103423741D01*
X132238640Y-103423741D01*
G37*
X132238640Y-103423741D02*
X132499445Y-103648456D01*
X132724010Y-104106549D01*
X132732834Y-104647018D01*
X132514815Y-105367864D01*
X132231961Y-106009732D01*
X131956990Y-106631043D01*
X131793004Y-107081793D01*
X131771891Y-107245780D01*
X131994246Y-107212764D01*
X132460871Y-107032321D01*
X132735123Y-106905923D01*
X133499746Y-106593771D01*
X134380840Y-106312035D01*
X134692172Y-106232494D01*
X135387067Y-106101146D01*
X135871669Y-106115941D01*
X136338153Y-106291766D01*
X136491701Y-106371883D01*
X137128509Y-106814001D01*
X137362985Y-107267797D01*
X137197595Y-107779606D01*
X136634802Y-108395759D01*
X136600992Y-108425955D01*
X135977983Y-108928626D01*
X135367818Y-109341890D01*
X135090574Y-109490314D01*
X134662692Y-109716754D01*
X134470771Y-109891530D01*
X134470000Y-109898545D01*
X134661774Y-110037039D01*
X135157802Y-110164228D01*
X135839137Y-110258087D01*
X136586836Y-110296589D01*
X136619923Y-110296667D01*
X137393631Y-110381717D01*
X138143082Y-110587971D01*
X138180965Y-110603366D01*
X138674167Y-110863974D01*
X138878304Y-111197836D01*
X138915000Y-111682610D01*
X138812863Y-112333365D01*
X138443584Y-112884948D01*
X138257615Y-113069244D01*
X137902084Y-113373202D01*
X137557615Y-113555956D01*
X137103863Y-113648087D01*
X136420486Y-113680177D01*
X135841103Y-113683333D01*
X134968901Y-113692145D01*
X134413557Y-113737119D01*
X134068675Y-113846064D01*
X133827861Y-114046790D01*
X133668269Y-114251260D01*
X133318794Y-114612640D01*
X132840119Y-114823223D01*
X132089808Y-114947392D01*
X131323994Y-114993938D01*
X130646873Y-114971998D01*
X130371730Y-114927617D01*
X130121592Y-114892962D01*
X129871741Y-114965443D01*
X129565176Y-115193680D01*
X129144898Y-115626289D01*
X128553907Y-116311888D01*
X128077379Y-116884589D01*
X127292000Y-117890622D01*
X126550910Y-118942503D01*
X125899937Y-119964458D01*
X125384911Y-120880711D01*
X125051658Y-121615487D01*
X124945000Y-122063848D01*
X125110730Y-122282957D01*
X125558648Y-122670773D01*
X126214844Y-123167079D01*
X126797083Y-123572844D01*
X127773041Y-124268339D01*
X128381952Y-124793709D01*
X128638411Y-125162027D01*
X128649167Y-125231940D01*
X128504809Y-125556193D01*
X128069402Y-125577018D01*
X127696667Y-125456262D01*
X127377658Y-125535186D01*
X126790778Y-125902395D01*
X125961451Y-126540908D01*
X125513677Y-126914143D01*
X124731057Y-127568091D01*
X124030436Y-128133293D01*
X123494809Y-128544018D01*
X123228128Y-128724264D01*
X122829250Y-129092766D01*
X122606931Y-129478107D01*
X122394406Y-129822505D01*
X122196975Y-129878084D01*
X121918029Y-129928279D01*
X121489465Y-130227930D01*
X121004814Y-130679957D01*
X120557609Y-131187279D01*
X120241382Y-131652815D01*
X120149666Y-131979484D01*
X120155103Y-131997430D01*
X120186171Y-132248071D01*
X119929987Y-132263104D01*
X119800471Y-132233447D01*
X119199308Y-132245346D01*
X118716118Y-132529092D01*
X118468647Y-132989253D01*
X118480484Y-133303266D01*
X118530046Y-133671345D01*
X118358984Y-133737089D01*
X118199883Y-133694789D01*
X117919547Y-133673978D01*
X117761987Y-133905629D01*
X117670701Y-134365817D01*
X117576272Y-135604162D01*
X117659061Y-136694757D01*
X117900360Y-137574359D01*
X118281457Y-138179728D01*
X118783644Y-138447622D01*
X118880491Y-138455065D01*
X119195354Y-138483192D01*
X119128104Y-138614464D01*
X118955736Y-138750062D01*
X118695523Y-139183939D01*
X118772776Y-139778051D01*
X119172131Y-140458702D01*
X119356663Y-140673307D01*
X119700929Y-141128160D01*
X119863146Y-141506638D01*
X119865000Y-141535442D01*
X119956155Y-141890774D01*
X120190238Y-142466538D01*
X120394167Y-142893334D01*
X120685772Y-143487600D01*
X120877965Y-143915337D01*
X120923333Y-144050464D01*
X120737954Y-144127280D01*
X120286407Y-144163009D01*
X120234096Y-144163334D01*
X119841849Y-144133696D01*
X119580900Y-143982047D01*
X119364196Y-143614277D01*
X119108261Y-142946250D01*
X118803314Y-142209533D01*
X118518562Y-141807780D01*
X118205113Y-141660888D01*
X117750728Y-141674303D01*
X116970760Y-141780081D01*
X115948444Y-141960684D01*
X114767016Y-142198576D01*
X113509711Y-142476217D01*
X112259764Y-142776071D01*
X111100411Y-143080598D01*
X110177346Y-143352356D01*
X109148592Y-143649566D01*
X108119720Y-143898843D01*
X107251486Y-144063056D01*
X106935915Y-144101015D01*
X105754330Y-144197355D01*
X105546718Y-143492428D01*
X105358635Y-143016329D01*
X105073924Y-142839716D01*
X104611636Y-142838409D01*
X104148282Y-142856610D01*
X104051685Y-142789638D01*
X104267398Y-142594712D01*
X104284600Y-142581459D01*
X104472222Y-142454172D01*
X106244238Y-142454172D01*
X106282795Y-142673066D01*
X106306790Y-142737083D01*
X106510475Y-143281347D01*
X106613965Y-143586449D01*
X106810708Y-143815444D01*
X107227494Y-143837807D01*
X107916776Y-143648310D01*
X108580861Y-143390393D01*
X109176618Y-143179774D01*
X110068600Y-142908087D01*
X111139869Y-142606494D01*
X112273485Y-142306160D01*
X113352511Y-142038249D01*
X114260009Y-141833922D01*
X114785000Y-141737025D01*
X116163506Y-141517814D01*
X117154925Y-141323481D01*
X117794145Y-141145014D01*
X118116054Y-140973399D01*
X118171667Y-140862142D01*
X118085341Y-140497176D01*
X117872031Y-139954662D01*
X117814963Y-139831348D01*
X117513181Y-139326850D01*
X117158967Y-139116784D01*
X116770468Y-139083334D01*
X115798351Y-139171971D01*
X114484979Y-139431116D01*
X112871944Y-139850617D01*
X111000840Y-140420323D01*
X110172398Y-140693732D01*
X108786067Y-141165354D01*
X107755446Y-141532358D01*
X107033245Y-141819744D01*
X106572171Y-142052509D01*
X106324933Y-142255653D01*
X106244238Y-142454172D01*
X104472222Y-142454172D01*
X104684992Y-142309825D01*
X104897205Y-142202876D01*
X104974821Y-141982683D01*
X104907250Y-141528647D01*
X104738033Y-140985865D01*
X104510711Y-140499431D01*
X104308839Y-140242223D01*
X104030747Y-139852264D01*
X103967587Y-139664919D01*
X105337170Y-139664919D01*
X105351804Y-140055296D01*
X105614003Y-140909162D01*
X105884552Y-141450169D01*
X106118715Y-141623334D01*
X106392323Y-141554966D01*
X106986383Y-141366953D01*
X107823721Y-141084926D01*
X108827166Y-140734519D01*
X109266738Y-140577732D01*
X110856992Y-140027649D01*
X112364359Y-139544988D01*
X113721873Y-139148602D01*
X114862566Y-138857343D01*
X115719473Y-138690063D01*
X116090266Y-138656759D01*
X116736904Y-138567025D01*
X117019782Y-138281758D01*
X116969107Y-137760353D01*
X116899969Y-137568300D01*
X116664310Y-137007499D01*
X116435377Y-136668764D01*
X116117816Y-136521583D01*
X115616270Y-136535446D01*
X114835383Y-136679842D01*
X114407358Y-136770753D01*
X113440031Y-136982323D01*
X112620158Y-137177663D01*
X111842332Y-137387303D01*
X111001144Y-137641776D01*
X109991189Y-137971612D01*
X108707058Y-138407343D01*
X108435000Y-138500633D01*
X107454815Y-138835601D01*
X106594920Y-139126746D01*
X105949226Y-139342452D01*
X105614698Y-139450200D01*
X105337170Y-139664919D01*
X103967587Y-139664919D01*
X103961778Y-139647689D01*
X103716748Y-139355118D01*
X103083919Y-139027361D01*
X102324789Y-138745997D01*
X101490297Y-138452900D01*
X100745701Y-138169369D01*
X100240073Y-137952420D01*
X100208122Y-137936444D01*
X99534998Y-137673335D01*
X98533394Y-137385396D01*
X97296032Y-137090232D01*
X95915631Y-136805448D01*
X94484914Y-136548649D01*
X93096602Y-136337438D01*
X91843415Y-136189421D01*
X90818075Y-136122203D01*
X90641190Y-136120000D01*
X90087191Y-136118484D01*
X89708955Y-136073090D01*
X89493964Y-135922545D01*
X89429700Y-135605580D01*
X89430827Y-135597272D01*
X90020000Y-135597272D01*
X90159971Y-135677028D01*
X90609358Y-135682344D01*
X91412372Y-135612338D01*
X91864248Y-135560438D01*
X92499143Y-135466022D01*
X92792099Y-135353230D01*
X92823711Y-135177653D01*
X92771150Y-135060701D01*
X92753567Y-134969302D01*
X93282087Y-134969302D01*
X93437770Y-135410200D01*
X93779370Y-135619005D01*
X94331243Y-135654360D01*
X94465000Y-135646077D01*
X95205833Y-135590834D01*
X95205833Y-133582689D01*
X95731435Y-133582689D01*
X95736964Y-134488626D01*
X95775922Y-135101036D01*
X95872646Y-135484686D01*
X96051471Y-135704341D01*
X96336732Y-135824768D01*
X96752766Y-135910733D01*
X97110833Y-135980055D01*
X97653210Y-136025342D01*
X97893665Y-135829915D01*
X97918684Y-135463578D01*
X97889792Y-135051593D01*
X97841395Y-134326245D01*
X97780699Y-133396658D01*
X97726360Y-132551550D01*
X97646457Y-131466171D01*
X97559044Y-130720666D01*
X97446787Y-130231690D01*
X97307479Y-129946817D01*
X98057809Y-129946817D01*
X98152627Y-130863825D01*
X98206196Y-131469357D01*
X98273673Y-132357333D01*
X98344742Y-133387559D01*
X98386301Y-134039775D01*
X98525158Y-136298716D01*
X99299662Y-136504982D01*
X100092588Y-136697792D01*
X100555745Y-136730774D01*
X100763308Y-136570758D01*
X100789448Y-136184578D01*
X100752255Y-135855417D01*
X100673972Y-135253465D01*
X100672371Y-135240852D01*
X101228107Y-135240852D01*
X101249663Y-135690774D01*
X101349908Y-136279983D01*
X101502121Y-136877032D01*
X101679583Y-137350471D01*
X101817504Y-137548750D01*
X102282123Y-137804736D01*
X102547034Y-137758226D01*
X102549131Y-137607563D01*
X103194794Y-137607563D01*
X103266724Y-137841742D01*
X103429042Y-138002009D01*
X103521635Y-137842596D01*
X103523220Y-137512155D01*
X103482882Y-137447327D01*
X103279315Y-137398007D01*
X103194794Y-137607563D01*
X102549131Y-137607563D01*
X102551639Y-137427495D01*
X102519307Y-137337084D01*
X102494463Y-137279826D01*
X104201667Y-137279826D01*
X104286760Y-137668693D01*
X104493697Y-138188904D01*
X104749961Y-138690913D01*
X104983033Y-139025167D01*
X105076193Y-139083334D01*
X105320280Y-139019305D01*
X105897486Y-138841694D01*
X106739800Y-138572216D01*
X107779209Y-138232584D01*
X108762303Y-137906483D01*
X110077113Y-137481307D01*
X111409875Y-137074408D01*
X112644302Y-136719658D01*
X113664107Y-136450929D01*
X114118231Y-136346403D01*
X115949167Y-135963174D01*
X115907316Y-135071192D01*
X115816069Y-134300575D01*
X115579475Y-133879850D01*
X115116947Y-133740561D01*
X114414864Y-133803358D01*
X113178445Y-134035828D01*
X111829425Y-134349933D01*
X110428112Y-134725147D01*
X109034813Y-135140942D01*
X107709833Y-135576789D01*
X106513478Y-136012161D01*
X105506057Y-136426531D01*
X104747875Y-136799370D01*
X104299238Y-137110151D01*
X104201667Y-137279826D01*
X102494463Y-137279826D01*
X102229425Y-136669017D01*
X101903565Y-136002276D01*
X101599986Y-135446657D01*
X101376946Y-135111956D01*
X101311957Y-135061667D01*
X101228107Y-135240852D01*
X100672371Y-135240852D01*
X100562235Y-134373475D01*
X100435015Y-133357605D01*
X100362216Y-132770274D01*
X100224926Y-131735882D01*
X100172754Y-131477932D01*
X100850488Y-131477932D01*
X100899510Y-132193633D01*
X101034288Y-133155642D01*
X101283628Y-134020673D01*
X101706700Y-134975805D01*
X101896967Y-135347318D01*
X102381927Y-136190560D01*
X102772761Y-136707021D01*
X103048029Y-136881819D01*
X103186292Y-136700073D01*
X103177986Y-136236502D01*
X103186443Y-135828799D01*
X103336736Y-135791212D01*
X103482989Y-135710585D01*
X103555518Y-135300345D01*
X103554672Y-134647682D01*
X103480799Y-133839784D01*
X103334248Y-132963841D01*
X103325263Y-132920974D01*
X103190293Y-132165604D01*
X103111912Y-131494316D01*
X103103085Y-131224122D01*
X103067153Y-130905728D01*
X103850480Y-130905728D01*
X103852568Y-131112170D01*
X103895370Y-131606736D01*
X103933140Y-131959242D01*
X103973764Y-132383739D01*
X104027471Y-132672102D01*
X104160884Y-132834440D01*
X104440625Y-132880860D01*
X104933315Y-132821469D01*
X105705577Y-132666375D01*
X106824032Y-132425686D01*
X106900417Y-132409421D01*
X107797605Y-132191229D01*
X108385959Y-131991577D01*
X108639172Y-131827580D01*
X108530939Y-131716351D01*
X108034955Y-131675003D01*
X108029305Y-131675000D01*
X107561340Y-131749911D01*
X107330140Y-131920412D01*
X107105984Y-131988297D01*
X106534778Y-131861095D01*
X105603940Y-131535959D01*
X105566251Y-131521556D01*
X104801883Y-131233287D01*
X104210554Y-131018799D01*
X103885163Y-130911435D01*
X103850480Y-130905728D01*
X103067153Y-130905728D01*
X103060993Y-130851150D01*
X102823329Y-130653595D01*
X102302976Y-130536394D01*
X101565396Y-130454281D01*
X101114778Y-130539761D01*
X100895138Y-130858941D01*
X100850488Y-131477932D01*
X100172754Y-131477932D01*
X100084472Y-131041450D01*
X99892051Y-130606069D01*
X99598856Y-130348833D01*
X99156083Y-130188836D01*
X98748488Y-130095118D01*
X98057809Y-129946817D01*
X97307479Y-129946817D01*
X97292358Y-129915897D01*
X97143180Y-129746966D01*
X96897282Y-129460635D01*
X96912171Y-129339166D01*
X96899597Y-129249896D01*
X96593044Y-129045081D01*
X96584323Y-129040237D01*
X96151029Y-128859894D01*
X95896406Y-128848563D01*
X95841614Y-129083529D01*
X95794793Y-129667961D01*
X95759376Y-130528019D01*
X95738799Y-131589860D01*
X95735000Y-132318459D01*
X95731435Y-133582689D01*
X95205833Y-133582689D01*
X95205833Y-128605834D01*
X94705171Y-128534996D01*
X94316617Y-128524179D01*
X94059923Y-128671802D01*
X93897774Y-129049784D01*
X93792853Y-129730045D01*
X93734931Y-130405000D01*
X93647001Y-131394109D01*
X93534108Y-132407657D01*
X93431051Y-133156667D01*
X93287966Y-134237671D01*
X93282087Y-134969302D01*
X92753567Y-134969302D01*
X92683732Y-134606301D01*
X92711167Y-133862495D01*
X92763547Y-133448840D01*
X92884602Y-132561018D01*
X93009555Y-131503074D01*
X93096996Y-130651813D01*
X93165524Y-129857914D01*
X93173497Y-129399926D01*
X93101128Y-129192393D01*
X92928629Y-129149859D01*
X92753904Y-129170146D01*
X92527140Y-129247846D01*
X92332589Y-129454017D01*
X92136429Y-129858793D01*
X91904838Y-130532304D01*
X91603994Y-131544685D01*
X91596953Y-131569167D01*
X91282073Y-132595546D01*
X90953270Y-133552794D01*
X90654683Y-134317963D01*
X90473816Y-134697688D01*
X90196645Y-135207238D01*
X90036077Y-135542743D01*
X90020000Y-135597272D01*
X89430827Y-135597272D01*
X89503643Y-135060922D01*
X89703276Y-134227301D01*
X90014124Y-133050834D01*
X90246961Y-132113733D01*
X90412866Y-131330267D01*
X90495216Y-130787894D01*
X90484080Y-130578106D01*
X90212890Y-130424028D01*
X89645842Y-130165209D01*
X88884550Y-129842601D01*
X88030628Y-129497156D01*
X87185692Y-129169826D01*
X86451355Y-128901563D01*
X85929233Y-128733319D01*
X85865728Y-128716841D01*
X85203956Y-128556375D01*
X85073818Y-129639438D01*
X84995337Y-130428114D01*
X84947967Y-131164703D01*
X84941840Y-131410417D01*
X84768804Y-132184575D01*
X84270074Y-132698772D01*
X83469015Y-132932566D01*
X83187930Y-132945000D01*
X82312964Y-132835575D01*
X81675075Y-132462031D01*
X81177443Y-131756468D01*
X81021648Y-131425785D01*
X80780914Y-130876185D01*
X80621785Y-130519608D01*
X80590730Y-130454131D01*
X80403845Y-130501432D01*
X79992333Y-130692641D01*
X79944409Y-130717410D01*
X79300466Y-130983034D01*
X78762986Y-130980003D01*
X78141316Y-130698628D01*
X78007916Y-130618987D01*
X77477840Y-130182828D01*
X77282016Y-129693894D01*
X77429122Y-129111505D01*
X77927835Y-128394984D01*
X78642917Y-127642079D01*
X79269702Y-127027898D01*
X79619711Y-126656792D01*
X79720607Y-126477683D01*
X79600054Y-126439494D01*
X79285717Y-126491146D01*
X79263936Y-126495463D01*
X78370494Y-126493509D01*
X77579960Y-126165937D01*
X77019617Y-125567560D01*
X76992518Y-125517364D01*
X76743124Y-124917899D01*
X76743832Y-124904135D01*
X77743333Y-124904135D01*
X77871954Y-125343944D01*
X78113750Y-125730501D01*
X78352426Y-125978015D01*
X78622641Y-126081130D01*
X79054623Y-126056484D01*
X79710625Y-125934513D01*
X80392706Y-125784753D01*
X80752491Y-125641136D01*
X80883592Y-125430872D01*
X80879621Y-125081173D01*
X80874791Y-125029313D01*
X80899594Y-124529621D01*
X81114524Y-124372500D01*
X81114771Y-124372500D01*
X81398690Y-124579485D01*
X81641566Y-125184217D01*
X81834910Y-126162366D01*
X81890051Y-126595000D01*
X82055330Y-127378882D01*
X82345724Y-128238625D01*
X82483998Y-128552917D01*
X82721404Y-129109606D01*
X82816056Y-129474720D01*
X82781229Y-129558334D01*
X82604710Y-129382617D01*
X82334703Y-128939650D01*
X82033759Y-128355709D01*
X81764432Y-127757068D01*
X81589274Y-127270004D01*
X81555401Y-127083742D01*
X81444787Y-126775361D01*
X81102218Y-126753584D01*
X80500516Y-127022398D01*
X80030772Y-127307439D01*
X79153349Y-127986645D01*
X78537076Y-128700570D01*
X78211644Y-129389807D01*
X78206744Y-129994947D01*
X78483107Y-130404121D01*
X78896561Y-130496541D01*
X79489079Y-130227693D01*
X80270004Y-129592657D01*
X80564199Y-129308331D01*
X81106541Y-128832297D01*
X81454251Y-128707201D01*
X81631769Y-128949654D01*
X81663540Y-129576268D01*
X81632781Y-130034584D01*
X81582956Y-130778750D01*
X81623449Y-131255779D01*
X81794272Y-131618865D01*
X82135437Y-132021204D01*
X82157980Y-132045417D01*
X82660187Y-132531911D01*
X83018892Y-132703580D01*
X83339383Y-132588113D01*
X83540733Y-132409029D01*
X83862823Y-131846772D01*
X84077929Y-130956325D01*
X84168120Y-129823360D01*
X84167490Y-129414532D01*
X84173365Y-128797888D01*
X84280174Y-128412968D01*
X84574888Y-128160538D01*
X85144476Y-127941365D01*
X85575000Y-127808554D01*
X85884889Y-127850862D01*
X86492054Y-128037439D01*
X87308065Y-128338078D01*
X88220833Y-128712397D01*
X90549167Y-129712367D01*
X90732485Y-129191228D01*
X90791362Y-128666018D01*
X90678243Y-128484125D01*
X92600569Y-128484125D01*
X92702745Y-128677131D01*
X92877500Y-128711667D01*
X93140934Y-128604267D01*
X93154430Y-128484125D01*
X92935910Y-128265439D01*
X92877500Y-128256584D01*
X92629314Y-128421370D01*
X92600569Y-128484125D01*
X90678243Y-128484125D01*
X90626652Y-128401168D01*
X90331226Y-128205112D01*
X89746654Y-127872177D01*
X88964881Y-127449830D01*
X88829066Y-127378741D01*
X90575493Y-127378741D01*
X90866667Y-127408246D01*
X91167155Y-127374982D01*
X91131250Y-127301484D01*
X90697895Y-127273528D01*
X90602083Y-127301484D01*
X90575493Y-127378741D01*
X88829066Y-127378741D01*
X88125477Y-127010467D01*
X92946149Y-127010467D01*
X93440991Y-127202905D01*
X94042569Y-127442651D01*
X94465000Y-127615845D01*
X95001341Y-127812440D01*
X95217193Y-127800406D01*
X95165775Y-127569994D01*
X95126883Y-127494584D01*
X94828032Y-127083220D01*
X94431519Y-126663864D01*
X94070822Y-126361422D01*
X93816326Y-126339136D01*
X93467408Y-126585492D01*
X93440991Y-126607014D01*
X92946149Y-127010467D01*
X88125477Y-127010467D01*
X88077848Y-126985537D01*
X87177498Y-126526766D01*
X86355774Y-126120982D01*
X85704620Y-125815651D01*
X85315977Y-125658241D01*
X85310417Y-125656610D01*
X84981363Y-125377386D01*
X84907688Y-124896071D01*
X85786667Y-124896071D01*
X85954718Y-125061655D01*
X86354695Y-125310519D01*
X86830332Y-125557063D01*
X87225365Y-125715690D01*
X87317825Y-125734796D01*
X87336692Y-125574768D01*
X87199362Y-125156774D01*
X87112436Y-124954584D01*
X86873838Y-124438525D01*
X86716111Y-124113868D01*
X86693825Y-124073937D01*
X86522555Y-124127121D01*
X86217869Y-124368399D01*
X85924425Y-124666671D01*
X85786880Y-124890837D01*
X85786667Y-124896071D01*
X84907688Y-124896071D01*
X84904205Y-124873321D01*
X85062608Y-124247088D01*
X85440239Y-123601357D01*
X85680833Y-123328278D01*
X86236682Y-122594930D01*
X86431434Y-121901155D01*
X86258498Y-121303760D01*
X85951236Y-120997836D01*
X85398608Y-120719832D01*
X84891548Y-120753658D01*
X84330901Y-121122515D01*
X83980959Y-121458863D01*
X83498263Y-122025627D01*
X83299702Y-122482344D01*
X83300478Y-122844016D01*
X83302028Y-123314173D01*
X83191097Y-123560178D01*
X82894496Y-123631192D01*
X82299815Y-123703366D01*
X81531998Y-123761767D01*
X81480138Y-123764672D01*
X80103494Y-123857335D01*
X79098013Y-123972851D01*
X78411582Y-124127113D01*
X77992088Y-124336009D01*
X77787420Y-124615433D01*
X77743333Y-124904135D01*
X76743832Y-124904135D01*
X76765847Y-124476450D01*
X77100977Y-124070206D01*
X77584583Y-123712711D01*
X78049820Y-123422075D01*
X78485452Y-123238285D01*
X79013034Y-123134193D01*
X79754119Y-123082650D01*
X80495000Y-123062701D01*
X81427179Y-123040094D01*
X82018051Y-123001605D01*
X82349580Y-122924124D01*
X82503732Y-122784544D01*
X82562469Y-122559756D01*
X82573178Y-122476794D01*
X82811925Y-121904377D01*
X83319599Y-121288548D01*
X83972828Y-120744987D01*
X84648236Y-120389373D01*
X84860779Y-120331876D01*
X85849444Y-120301084D01*
X86723188Y-120560665D01*
X87109583Y-120823464D01*
X87417732Y-121037827D01*
X87686702Y-120957039D01*
X87894664Y-120782012D01*
X88405361Y-120467757D01*
X88990089Y-120267516D01*
X89474203Y-120115215D01*
X89726491Y-119934217D01*
X89731109Y-119922059D01*
X89638742Y-119655928D01*
X89336465Y-119202418D01*
X89089590Y-118895437D01*
X88387811Y-118075040D01*
X87165238Y-118532464D01*
X86505087Y-118750911D01*
X86011608Y-118861252D01*
X85811749Y-118847632D01*
X85834838Y-118660849D01*
X85901715Y-118625450D01*
X86178140Y-118474928D01*
X86696018Y-118154776D01*
X87346185Y-117732595D01*
X87383381Y-117707912D01*
X88244313Y-117188493D01*
X88889072Y-116909279D01*
X89280080Y-116882481D01*
X89385000Y-117057508D01*
X89231054Y-117343934D01*
X89171710Y-117388504D01*
X89126603Y-117618490D01*
X89315589Y-117877246D01*
X89670164Y-118300967D01*
X90081181Y-118888192D01*
X90470007Y-119512816D01*
X90758011Y-120048734D01*
X90866667Y-120364765D01*
X90681479Y-120563235D01*
X90211682Y-120784035D01*
X89911215Y-120880826D01*
X88955868Y-121321100D01*
X88347383Y-121841244D01*
X87983485Y-122299917D01*
X87839786Y-122689440D01*
X87868409Y-123204158D01*
X87927767Y-123544566D01*
X88321312Y-124754864D01*
X88997066Y-125651358D01*
X89966078Y-126245334D01*
X90805014Y-126483490D01*
X91494095Y-126478483D01*
X92244892Y-126273213D01*
X92928935Y-125928661D01*
X93417758Y-125505805D01*
X93580138Y-125166250D01*
X93732766Y-124856359D01*
X93991195Y-124679229D01*
X94206616Y-124704868D01*
X94253333Y-124849546D01*
X94401488Y-125114813D01*
X94793153Y-125576228D01*
X95349130Y-126155951D01*
X95990218Y-126776141D01*
X96637220Y-127358957D01*
X97210936Y-127826560D01*
X97462979Y-128004136D01*
X98209341Y-128472046D01*
X98834861Y-128818627D01*
X99457159Y-129091912D01*
X100193858Y-129339938D01*
X101162577Y-129610739D01*
X101812977Y-129780616D01*
X102962772Y-130058451D01*
X103951289Y-130241906D01*
X104938217Y-130350642D01*
X106083249Y-130404319D01*
X106998810Y-130419096D01*
X108078079Y-130417160D01*
X109028329Y-130393855D01*
X109756730Y-130352980D01*
X110170453Y-130298333D01*
X110202718Y-130287985D01*
X110494776Y-130242290D01*
X110523092Y-130506019D01*
X110518174Y-130532866D01*
X110421389Y-130739993D01*
X110168947Y-130876523D01*
X109674451Y-130967464D01*
X108851500Y-131037824D01*
X108750456Y-131044518D01*
X107941938Y-131104769D01*
X107511358Y-131162034D01*
X107413621Y-131229276D01*
X107603631Y-131319456D01*
X107694167Y-131348127D01*
X108247253Y-131453483D01*
X109032553Y-131529203D01*
X109705000Y-131555276D01*
X110605632Y-131522997D01*
X111300033Y-131371224D01*
X111999544Y-131050086D01*
X112112910Y-130987084D01*
X112764892Y-130624777D01*
X113125469Y-130456663D01*
X113271414Y-130467988D01*
X113279496Y-130643996D01*
X113259695Y-130766691D01*
X113289818Y-130993938D01*
X113551298Y-131081352D01*
X114075549Y-131069560D01*
X114649692Y-131076152D01*
X115023352Y-131163810D01*
X115075380Y-131207785D01*
X114934363Y-131315591D01*
X114448559Y-131442905D01*
X113694905Y-131572369D01*
X113138997Y-131644692D01*
X112416427Y-131751527D01*
X111456128Y-131925745D01*
X110333406Y-132150209D01*
X109123564Y-132407781D01*
X107901909Y-132681324D01*
X106743744Y-132953700D01*
X105724376Y-133207772D01*
X104919109Y-133426401D01*
X104403247Y-133592452D01*
X104256695Y-133666083D01*
X104201243Y-133923337D01*
X104175825Y-134452426D01*
X104178090Y-135103092D01*
X104205693Y-135725076D01*
X104256284Y-136168121D01*
X104297642Y-136286531D01*
X104522767Y-136255868D01*
X105052130Y-136095928D01*
X105797135Y-135835208D01*
X106361586Y-135622673D01*
X108033476Y-135007097D01*
X109677866Y-134457748D01*
X111209643Y-133999720D01*
X112543695Y-133658106D01*
X113594909Y-133458000D01*
X113780495Y-133435382D01*
X114605369Y-133332501D01*
X115144671Y-133178765D01*
X115445302Y-132897634D01*
X115462381Y-132821528D01*
X117341710Y-132821528D01*
X117380627Y-133096063D01*
X117452882Y-133099340D01*
X117503410Y-132816048D01*
X117469592Y-132693646D01*
X117375605Y-132613471D01*
X117341710Y-132821528D01*
X115462381Y-132821528D01*
X115554162Y-132412564D01*
X115518152Y-131647013D01*
X115414899Y-130768031D01*
X115338841Y-130236574D01*
X116087787Y-130236574D01*
X116098352Y-130484717D01*
X116129147Y-130616667D01*
X116248596Y-131205776D01*
X116297651Y-131569167D01*
X116341240Y-131673942D01*
X116403997Y-131409263D01*
X116421793Y-131277668D01*
X116411559Y-130715505D01*
X116264443Y-130336264D01*
X116253289Y-130325168D01*
X116087787Y-130236574D01*
X115338841Y-130236574D01*
X115253090Y-129637398D01*
X115078419Y-128898200D01*
X114852252Y-128519325D01*
X114535956Y-128469660D01*
X114090899Y-128718093D01*
X113493109Y-129220318D01*
X112699391Y-129857620D01*
X112010893Y-130264886D01*
X111491564Y-130410426D01*
X111253130Y-130330353D01*
X111293887Y-130165240D01*
X111580075Y-129810010D01*
X112129551Y-129246802D01*
X112960176Y-128457760D01*
X114089805Y-127425024D01*
X114209015Y-127317894D01*
X115511422Y-127317894D01*
X115523578Y-127898940D01*
X115758832Y-128613036D01*
X115771973Y-128640810D01*
X116160833Y-129452500D01*
X116226410Y-128421061D01*
X116232097Y-128197397D01*
X116650966Y-128197397D01*
X116716814Y-128870787D01*
X116731627Y-128978970D01*
X116881176Y-129746663D01*
X117104447Y-130545572D01*
X117365012Y-131280339D01*
X117626441Y-131855606D01*
X117852304Y-132176015D01*
X117963034Y-132202292D01*
X118077707Y-131955121D01*
X118150695Y-131639478D01*
X118619686Y-131639478D01*
X118650763Y-131824579D01*
X118806667Y-131780834D01*
X118990839Y-131478762D01*
X119015092Y-131292092D01*
X118980838Y-131055210D01*
X118834510Y-131209073D01*
X118806667Y-131251667D01*
X118619686Y-131639478D01*
X118150695Y-131639478D01*
X118198347Y-131433409D01*
X118248484Y-131118079D01*
X118298477Y-130480808D01*
X118205150Y-129975377D01*
X117953578Y-129476909D01*
X119080263Y-129476909D01*
X119115725Y-130146281D01*
X119250401Y-130569305D01*
X119267932Y-130598749D01*
X119520326Y-130936138D01*
X119660178Y-131040000D01*
X119858116Y-130900680D01*
X120256136Y-130538177D01*
X120690637Y-130108928D01*
X121604415Y-129177856D01*
X120583475Y-127901994D01*
X120084609Y-127309460D01*
X119681321Y-126887355D01*
X119446246Y-126710243D01*
X119424005Y-126711749D01*
X119342030Y-126948396D01*
X119247921Y-127500209D01*
X119158976Y-128260047D01*
X119138920Y-128477432D01*
X119080263Y-129476909D01*
X117953578Y-129476909D01*
X117919156Y-129408706D01*
X117737255Y-129117736D01*
X117217188Y-128339213D01*
X116878132Y-127928433D01*
X116697065Y-127882220D01*
X116650966Y-128197397D01*
X116232097Y-128197397D01*
X116243381Y-127753619D01*
X116211535Y-127239318D01*
X116180137Y-127098144D01*
X115952818Y-126824578D01*
X115694718Y-126924704D01*
X115511422Y-127317894D01*
X114209015Y-127317894D01*
X114766248Y-126817129D01*
X115425902Y-126181803D01*
X116427784Y-126181803D01*
X116948328Y-126970485D01*
X117367365Y-127615354D01*
X117753024Y-128224411D01*
X117825148Y-128341250D01*
X118124382Y-128743931D01*
X118361664Y-128922793D01*
X118370153Y-128923334D01*
X118478481Y-128729336D01*
X118593291Y-128216109D01*
X118692650Y-127486801D01*
X118707576Y-127336534D01*
X118770070Y-126447349D01*
X118748051Y-125854235D01*
X118630183Y-125436298D01*
X118509090Y-125219867D01*
X118354362Y-125040807D01*
X119390637Y-125040807D01*
X120612091Y-126876237D01*
X121139254Y-127636031D01*
X121599922Y-128240875D01*
X121935106Y-128616643D01*
X122066356Y-128703719D01*
X122350280Y-128570602D01*
X122817808Y-128239574D01*
X123120952Y-127992293D01*
X123942737Y-127288814D01*
X122101901Y-124476017D01*
X121330759Y-123319675D01*
X120746171Y-122516895D01*
X120317565Y-122057832D01*
X120014367Y-121932637D01*
X119806005Y-122131464D01*
X119661904Y-122644467D01*
X119551493Y-123461797D01*
X119532040Y-123648320D01*
X119390637Y-125040807D01*
X118354362Y-125040807D01*
X118161963Y-124818153D01*
X117815682Y-124758208D01*
X117395079Y-125051829D01*
X117035142Y-125451183D01*
X116427784Y-126181803D01*
X115425902Y-126181803D01*
X116254855Y-125383423D01*
X117385250Y-124044599D01*
X117606891Y-123685134D01*
X118640264Y-123685134D01*
X118702147Y-124014141D01*
X118878563Y-124197144D01*
X118996967Y-124174039D01*
X119105826Y-123900153D01*
X119075950Y-123617468D01*
X118914658Y-123330288D01*
X118750216Y-123391784D01*
X118640264Y-123685134D01*
X117606891Y-123685134D01*
X118191649Y-122736755D01*
X118708269Y-121395991D01*
X118736977Y-121237900D01*
X120868987Y-121237900D01*
X120975799Y-121546048D01*
X121271938Y-122041751D01*
X121624229Y-122577760D01*
X122225261Y-123511307D01*
X122876530Y-124564522D01*
X123360089Y-125377917D01*
X123757481Y-126050594D01*
X124070270Y-126552964D01*
X124242898Y-126796544D01*
X124257184Y-126806667D01*
X124449868Y-126690758D01*
X124886527Y-126387003D01*
X125467811Y-125964695D01*
X126066117Y-125507953D01*
X126520658Y-125133592D01*
X126726574Y-124930132D01*
X126631999Y-124716053D01*
X126269436Y-124340770D01*
X125723545Y-123890380D01*
X125019183Y-123326050D01*
X124355706Y-122740946D01*
X123979494Y-122369157D01*
X123415915Y-121830692D01*
X122720110Y-121258993D01*
X122436075Y-121050685D01*
X121894317Y-120685095D01*
X121572146Y-120542495D01*
X121344687Y-120599792D01*
X121114612Y-120806314D01*
X120924319Y-121022818D01*
X120868987Y-121237900D01*
X118736977Y-121237900D01*
X118969324Y-119958403D01*
X119018333Y-118875844D01*
X119058304Y-117934939D01*
X119185022Y-117395286D01*
X119408693Y-117241781D01*
X119739526Y-117459321D01*
X119873882Y-117609870D01*
X120337038Y-117852284D01*
X120891425Y-117874453D01*
X121359644Y-117788147D01*
X121687239Y-117558047D01*
X121996343Y-117079012D01*
X122139042Y-116800426D01*
X122485497Y-115849027D01*
X122663557Y-114809954D01*
X122661375Y-113831694D01*
X122467104Y-113062734D01*
X122441329Y-113011737D01*
X121970666Y-112441244D01*
X121317463Y-112026953D01*
X120600603Y-111805164D01*
X119938972Y-111812176D01*
X119451453Y-112084289D01*
X119441667Y-112095834D01*
X119046705Y-112339789D01*
X118543587Y-112404886D01*
X118136765Y-112276836D01*
X118060103Y-112192395D01*
X118062397Y-111865698D01*
X118178192Y-111664637D01*
X118326069Y-111226089D01*
X118364303Y-110429653D01*
X118345133Y-109980576D01*
X118311171Y-109233558D01*
X118341779Y-108816052D01*
X118455713Y-108636725D01*
X118627936Y-108603334D01*
X118912952Y-108793031D01*
X119178666Y-109276934D01*
X119372048Y-109927265D01*
X119440486Y-110561250D01*
X119523795Y-110794593D01*
X119837655Y-110905491D01*
X120415094Y-110931667D01*
X121635700Y-111111182D01*
X122673157Y-111625428D01*
X123341656Y-112284371D01*
X123755439Y-112940965D01*
X123948731Y-113573336D01*
X123929418Y-114299943D01*
X123705386Y-115239250D01*
X123567613Y-115678448D01*
X123318838Y-116476098D01*
X123133217Y-117138980D01*
X123043585Y-117547894D01*
X123040000Y-117593704D01*
X122847068Y-117995293D01*
X122342718Y-118323816D01*
X121638615Y-118520702D01*
X121213598Y-118551667D01*
X120328058Y-118551667D01*
X120180636Y-119623552D01*
X120108241Y-120396946D01*
X120159965Y-120766454D01*
X120336592Y-120733160D01*
X120567956Y-120400236D01*
X122616667Y-120400236D01*
X122779941Y-120650323D01*
X123183915Y-120982713D01*
X123298132Y-121058235D01*
X123725131Y-121291194D01*
X124058525Y-121329015D01*
X124370488Y-121125781D01*
X124733194Y-120635574D01*
X125197599Y-119849782D01*
X125998628Y-118491087D01*
X126748775Y-117311550D01*
X127411113Y-116364752D01*
X127948715Y-115704272D01*
X128241082Y-115433775D01*
X128821830Y-115016391D01*
X129319747Y-114651461D01*
X129830302Y-114387944D01*
X130502728Y-114290535D01*
X131027236Y-114297403D01*
X131773091Y-114296322D01*
X132262790Y-114179972D01*
X132656905Y-113907575D01*
X132692695Y-113874462D01*
X133048816Y-113421070D01*
X133199958Y-112992738D01*
X133200000Y-112987413D01*
X133259170Y-112718919D01*
X133515859Y-112662036D01*
X133887917Y-112726434D01*
X134469254Y-112821716D01*
X135277916Y-112916884D01*
X135973321Y-112978268D01*
X136958798Y-112986842D01*
X137600374Y-112819594D01*
X137952007Y-112445333D01*
X138067655Y-111832868D01*
X138068333Y-111767247D01*
X138044090Y-111439048D01*
X137919980Y-111218794D01*
X137618935Y-111072529D01*
X137063888Y-110966299D01*
X136177769Y-110866150D01*
X135977811Y-110846213D01*
X135071359Y-110678068D01*
X134392365Y-110403006D01*
X133978232Y-110065946D01*
X133866364Y-109711808D01*
X134094165Y-109385509D01*
X134577890Y-109165046D01*
X135300112Y-108915886D01*
X135758389Y-108633928D01*
X136105435Y-108211502D01*
X136238391Y-107994354D01*
X136480297Y-107492023D01*
X136470311Y-107164019D01*
X136371224Y-107011284D01*
X135911866Y-106763605D01*
X135214306Y-106741778D01*
X134385439Y-106926461D01*
X133532160Y-107298313D01*
X133037651Y-107614448D01*
X132363636Y-108111720D01*
X132905432Y-108833777D01*
X133260359Y-109361768D01*
X133641422Y-110012197D01*
X133993893Y-110678614D01*
X134263045Y-111254567D01*
X134394151Y-111633606D01*
X134388570Y-111718653D01*
X134247148Y-111587642D01*
X133927175Y-111171800D01*
X133480672Y-110541328D01*
X133106541Y-109988630D01*
X132586604Y-109234510D01*
X132138337Y-108634474D01*
X131819776Y-108263408D01*
X131704893Y-108180000D01*
X131548592Y-108221207D01*
X131547360Y-108397873D01*
X131723302Y-108789571D01*
X132031640Y-109356350D01*
X132347165Y-109964246D01*
X132447695Y-110251845D01*
X132364117Y-110243455D01*
X132127319Y-109963383D01*
X131768190Y-109435937D01*
X131432668Y-108884979D01*
X131006018Y-108087804D01*
X130811475Y-107562074D01*
X130844353Y-107350214D01*
X131092112Y-107021887D01*
X131346522Y-106415133D01*
X131562856Y-105671732D01*
X131696389Y-104933461D01*
X131718333Y-104579742D01*
X131667263Y-104022934D01*
X131468063Y-103747590D01*
X131246829Y-103661073D01*
X130650005Y-103699145D01*
X130064229Y-104034948D01*
X129651214Y-104570599D01*
X129620193Y-104645653D01*
X129521628Y-105047474D01*
X129396256Y-105755780D01*
X129263062Y-106656207D01*
X129181636Y-107287436D01*
X129005199Y-108473030D01*
X128806299Y-109340008D01*
X128596604Y-109838944D01*
X128571578Y-109871374D01*
X128344418Y-110095300D01*
X128083442Y-110174877D01*
X127658138Y-110118686D01*
X127068455Y-109970189D01*
X126026775Y-109732684D01*
X125302963Y-109680443D01*
X124828622Y-109825500D01*
X124535352Y-110179886D01*
X124437177Y-110433113D01*
X124439316Y-110971423D01*
X124817841Y-111344603D01*
X125554136Y-111539786D01*
X126077188Y-111566667D01*
X126941899Y-111645075D01*
X127585031Y-111857121D01*
X127665022Y-111906993D01*
X127994016Y-112170303D01*
X127999907Y-112389603D01*
X127749892Y-112700743D01*
X127259081Y-113316658D01*
X126646152Y-114173392D01*
X125998180Y-115143730D01*
X125402238Y-116100457D01*
X125275683Y-116315542D01*
X124841339Y-117016456D01*
X124269888Y-117876080D01*
X123680191Y-118715940D01*
X123643051Y-118766980D01*
X123167318Y-119444975D01*
X122808671Y-120005560D01*
X122627431Y-120352747D01*
X122616667Y-120400236D01*
X120567956Y-120400236D01*
X120638904Y-120298145D01*
X120652141Y-120275007D01*
X121058276Y-119772810D01*
X121556714Y-119611919D01*
X121593261Y-119611338D01*
X122109872Y-119427317D01*
X122744182Y-118916941D01*
X123439534Y-118139615D01*
X124139275Y-117154747D01*
X124489280Y-116574672D01*
X124929712Y-115859521D01*
X125514198Y-114987541D01*
X126124615Y-114134282D01*
X126192052Y-114044074D01*
X126684670Y-113368649D01*
X127059735Y-112816137D01*
X127257247Y-112476446D01*
X127273333Y-112423799D01*
X127088511Y-112329336D01*
X126629560Y-112321371D01*
X126479583Y-112335831D01*
X125666497Y-112265782D01*
X124823036Y-111934627D01*
X124111759Y-111424746D01*
X123752157Y-110953676D01*
X123625321Y-110273581D01*
X123837100Y-109605787D01*
X124329601Y-109110887D01*
X124436328Y-109055842D01*
X125245998Y-108853266D01*
X126161396Y-108863379D01*
X126960365Y-109079694D01*
X127061667Y-109132500D01*
X127491173Y-109354758D01*
X127733168Y-109442500D01*
X127902492Y-109248061D01*
X128102058Y-108681747D01*
X128317912Y-107792703D01*
X128536101Y-106630073D01*
X128542367Y-106592500D01*
X128702653Y-105766130D01*
X128882910Y-105042593D01*
X129038579Y-104592265D01*
X129480088Y-104034113D01*
X130136613Y-103606615D01*
X130892390Y-103341340D01*
X131631654Y-103269859D01*
X132238640Y-103423741D01*
G36*
X113507789Y-117128152D02*
X114020285Y-117352388D01*
X114611427Y-117976903D01*
X115014881Y-118894860D01*
X115236686Y-120023299D01*
X115282884Y-121279257D01*
X115159515Y-122579773D01*
X114872620Y-123841885D01*
X114428239Y-124982631D01*
X113832413Y-125919051D01*
X113362826Y-126381969D01*
X112922507Y-126609945D01*
X112208112Y-126859281D01*
X111363012Y-127080996D01*
X111237445Y-127108088D01*
X109913839Y-127395361D01*
X108934216Y-127635263D01*
X108224920Y-127849626D01*
X107712297Y-128060280D01*
X107376667Y-128252407D01*
X106135336Y-128838424D01*
X104730660Y-129111188D01*
X103291041Y-129064198D01*
X101944878Y-128690950D01*
X101632920Y-128543262D01*
X100621860Y-127827499D01*
X99981450Y-126914199D01*
X99694589Y-125774907D01*
X99678482Y-125378284D01*
X103788373Y-125378284D01*
X103842292Y-125809205D01*
X104016672Y-126082850D01*
X104225376Y-126249117D01*
X104926388Y-126518692D01*
X105878304Y-126574510D01*
X106966481Y-126416326D01*
X107528019Y-126256179D01*
X108621054Y-125745991D01*
X109434646Y-125063936D01*
X109730272Y-124640092D01*
X109789347Y-124207177D01*
X109568562Y-123571390D01*
X109503962Y-123440835D01*
X108819899Y-122501510D01*
X107910126Y-121844069D01*
X107179012Y-121591886D01*
X106737445Y-121536631D01*
X106612220Y-121644230D01*
X106649946Y-121792952D01*
X106649395Y-122002847D01*
X106388816Y-122122870D01*
X105787300Y-122189812D01*
X105775463Y-122190588D01*
X104941133Y-122364064D01*
X104363708Y-122789618D01*
X104004995Y-123515496D01*
X103826800Y-124589946D01*
X103821575Y-124658772D01*
X103788373Y-125378284D01*
X99678482Y-125378284D01*
X99674670Y-125284438D01*
X99823019Y-124065761D01*
X100270204Y-122966198D01*
X101044994Y-121950610D01*
X102176163Y-120983857D01*
X103692480Y-120030800D01*
X104201667Y-119755474D01*
X106168652Y-118794446D01*
X108022455Y-118029654D01*
X109723172Y-117470862D01*
X111230902Y-117127837D01*
X112505742Y-117010345D01*
X113507789Y-117128152D01*
X113507789Y-117128152D01*
G37*
X113507789Y-117128152D02*
X114020285Y-117352388D01*
X114611427Y-117976903D01*
X115014881Y-118894860D01*
X115236686Y-120023299D01*
X115282884Y-121279257D01*
X115159515Y-122579773D01*
X114872620Y-123841885D01*
X114428239Y-124982631D01*
X113832413Y-125919051D01*
X113362826Y-126381969D01*
X112922507Y-126609945D01*
X112208112Y-126859281D01*
X111363012Y-127080996D01*
X111237445Y-127108088D01*
X109913839Y-127395361D01*
X108934216Y-127635263D01*
X108224920Y-127849626D01*
X107712297Y-128060280D01*
X107376667Y-128252407D01*
X106135336Y-128838424D01*
X104730660Y-129111188D01*
X103291041Y-129064198D01*
X101944878Y-128690950D01*
X101632920Y-128543262D01*
X100621860Y-127827499D01*
X99981450Y-126914199D01*
X99694589Y-125774907D01*
X99678482Y-125378284D01*
X103788373Y-125378284D01*
X103842292Y-125809205D01*
X104016672Y-126082850D01*
X104225376Y-126249117D01*
X104926388Y-126518692D01*
X105878304Y-126574510D01*
X106966481Y-126416326D01*
X107528019Y-126256179D01*
X108621054Y-125745991D01*
X109434646Y-125063936D01*
X109730272Y-124640092D01*
X109789347Y-124207177D01*
X109568562Y-123571390D01*
X109503962Y-123440835D01*
X108819899Y-122501510D01*
X107910126Y-121844069D01*
X107179012Y-121591886D01*
X106737445Y-121536631D01*
X106612220Y-121644230D01*
X106649946Y-121792952D01*
X106649395Y-122002847D01*
X106388816Y-122122870D01*
X105787300Y-122189812D01*
X105775463Y-122190588D01*
X104941133Y-122364064D01*
X104363708Y-122789618D01*
X104004995Y-123515496D01*
X103826800Y-124589946D01*
X103821575Y-124658772D01*
X103788373Y-125378284D01*
X99678482Y-125378284D01*
X99674670Y-125284438D01*
X99823019Y-124065761D01*
X100270204Y-122966198D01*
X101044994Y-121950610D01*
X102176163Y-120983857D01*
X103692480Y-120030800D01*
X104201667Y-119755474D01*
X106168652Y-118794446D01*
X108022455Y-118029654D01*
X109723172Y-117470862D01*
X111230902Y-117127837D01*
X112505742Y-117010345D01*
X113507789Y-117128152D01*
G36*
X92041351Y-117409125D02*
X91925000Y-117599167D01*
X91606286Y-117865974D01*
X91449832Y-117916667D01*
X91385315Y-117789209D01*
X91501667Y-117599167D01*
X91820380Y-117332360D01*
X91976835Y-117281667D01*
X92041351Y-117409125D01*
X92041351Y-117409125D01*
G37*
X92041351Y-117409125D02*
X91925000Y-117599167D01*
X91606286Y-117865974D01*
X91449832Y-117916667D01*
X91385315Y-117789209D01*
X91501667Y-117599167D01*
X91820380Y-117332360D01*
X91976835Y-117281667D01*
X92041351Y-117409125D01*
G36*
X106519824Y-113546757D02*
X107340423Y-113871397D01*
X107969304Y-114431515D01*
X108335204Y-115130883D01*
X108366860Y-115873272D01*
X108333993Y-115996460D01*
X108101411Y-116328456D01*
X107638045Y-116765125D01*
X107313082Y-117016929D01*
X106240555Y-117571655D01*
X105070901Y-117815535D01*
X103948525Y-117720482D01*
X103845058Y-117691438D01*
X103061224Y-117304302D01*
X102404878Y-116708763D01*
X101979186Y-116018790D01*
X101873333Y-115513315D01*
X102020892Y-114668543D01*
X102458772Y-114128884D01*
X103179781Y-113902133D01*
X103367002Y-113895000D01*
X103933568Y-113952996D01*
X104193778Y-114098238D01*
X104101521Y-114287607D01*
X103896500Y-114390145D01*
X103565659Y-114643090D01*
X103236338Y-115049040D01*
X103011170Y-115694715D01*
X103140306Y-116291845D01*
X103554953Y-116777621D01*
X104186321Y-117089234D01*
X104965620Y-117163874D01*
X105454994Y-117074782D01*
X106366271Y-116665310D01*
X106935836Y-116092697D01*
X107143977Y-115415242D01*
X106970985Y-114691245D01*
X106477083Y-114051757D01*
X105789167Y-113403668D01*
X106519824Y-113546757D01*
X106519824Y-113546757D01*
G37*
X106519824Y-113546757D02*
X107340423Y-113871397D01*
X107969304Y-114431515D01*
X108335204Y-115130883D01*
X108366860Y-115873272D01*
X108333993Y-115996460D01*
X108101411Y-116328456D01*
X107638045Y-116765125D01*
X107313082Y-117016929D01*
X106240555Y-117571655D01*
X105070901Y-117815535D01*
X103948525Y-117720482D01*
X103845058Y-117691438D01*
X103061224Y-117304302D01*
X102404878Y-116708763D01*
X101979186Y-116018790D01*
X101873333Y-115513315D01*
X102020892Y-114668543D01*
X102458772Y-114128884D01*
X103179781Y-113902133D01*
X103367002Y-113895000D01*
X103933568Y-113952996D01*
X104193778Y-114098238D01*
X104101521Y-114287607D01*
X103896500Y-114390145D01*
X103565659Y-114643090D01*
X103236338Y-115049040D01*
X103011170Y-115694715D01*
X103140306Y-116291845D01*
X103554953Y-116777621D01*
X104186321Y-117089234D01*
X104965620Y-117163874D01*
X105454994Y-117074782D01*
X106366271Y-116665310D01*
X106935836Y-116092697D01*
X107143977Y-115415242D01*
X106970985Y-114691245D01*
X106477083Y-114051757D01*
X105789167Y-113403668D01*
X106519824Y-113546757D01*
G36*
X84269899Y-114198271D02*
X84477664Y-114297460D01*
X84901158Y-114461640D01*
X85587615Y-114665593D01*
X86354238Y-114857051D01*
X87136406Y-115038261D01*
X87790041Y-115196152D01*
X88167917Y-115294967D01*
X88520327Y-115504075D01*
X88518318Y-115784605D01*
X88218330Y-116105969D01*
X87676803Y-116437578D01*
X86950176Y-116748846D01*
X86094889Y-117009182D01*
X85167383Y-117187999D01*
X84569583Y-117245127D01*
X83709041Y-117262899D01*
X83184060Y-117209461D01*
X83035000Y-117109953D01*
X83117210Y-116967815D01*
X83407055Y-116844475D01*
X83969354Y-116722991D01*
X84868927Y-116586422D01*
X85217265Y-116539580D01*
X85836166Y-116420512D01*
X86102609Y-116243045D01*
X86013863Y-115962431D01*
X85567192Y-115533923D01*
X85135049Y-115193905D01*
X84566451Y-114730529D01*
X84211174Y-114380741D01*
X84101547Y-114188627D01*
X84269899Y-114198271D01*
X84269899Y-114198271D01*
G37*
X84269899Y-114198271D02*
X84477664Y-114297460D01*
X84901158Y-114461640D01*
X85587615Y-114665593D01*
X86354238Y-114857051D01*
X87136406Y-115038261D01*
X87790041Y-115196152D01*
X88167917Y-115294967D01*
X88520327Y-115504075D01*
X88518318Y-115784605D01*
X88218330Y-116105969D01*
X87676803Y-116437578D01*
X86950176Y-116748846D01*
X86094889Y-117009182D01*
X85167383Y-117187999D01*
X84569583Y-117245127D01*
X83709041Y-117262899D01*
X83184060Y-117209461D01*
X83035000Y-117109953D01*
X83117210Y-116967815D01*
X83407055Y-116844475D01*
X83969354Y-116722991D01*
X84868927Y-116586422D01*
X85217265Y-116539580D01*
X85836166Y-116420512D01*
X86102609Y-116243045D01*
X86013863Y-115962431D01*
X85567192Y-115533923D01*
X85135049Y-115193905D01*
X84566451Y-114730529D01*
X84211174Y-114380741D01*
X84101547Y-114188627D01*
X84269899Y-114198271D01*
G36*
X91676217Y-116011398D02*
X91685346Y-116033539D01*
X91603583Y-116347085D01*
X91384503Y-116575293D01*
X90941313Y-116834576D01*
X90773915Y-116803034D01*
X90919951Y-116513753D01*
X91090158Y-116316580D01*
X91474024Y-115990810D01*
X91676217Y-116011398D01*
X91676217Y-116011398D01*
G37*
X91676217Y-116011398D02*
X91685346Y-116033539D01*
X91603583Y-116347085D01*
X91384503Y-116575293D01*
X90941313Y-116834576D01*
X90773915Y-116803034D01*
X90919951Y-116513753D01*
X91090158Y-116316580D01*
X91474024Y-115990810D01*
X91676217Y-116011398D01*
G36*
X83918671Y-111342138D02*
X83948906Y-111361418D01*
X84332377Y-111604536D01*
X84971509Y-112005393D01*
X85762112Y-112498757D01*
X86267458Y-112813050D01*
X87020620Y-113303828D01*
X87601132Y-113726436D01*
X87938310Y-114026620D01*
X87991058Y-114135967D01*
X87648880Y-114302280D01*
X87021314Y-114180825D01*
X86128292Y-113777074D01*
X85604975Y-113480898D01*
X84418804Y-112728958D01*
X83619395Y-112117705D01*
X83209753Y-111649888D01*
X83192882Y-111328251D01*
X83218111Y-111298889D01*
X83507095Y-111168804D01*
X83918671Y-111342138D01*
X83918671Y-111342138D01*
G37*
X83918671Y-111342138D02*
X83948906Y-111361418D01*
X84332377Y-111604536D01*
X84971509Y-112005393D01*
X85762112Y-112498757D01*
X86267458Y-112813050D01*
X87020620Y-113303828D01*
X87601132Y-113726436D01*
X87938310Y-114026620D01*
X87991058Y-114135967D01*
X87648880Y-114302280D01*
X87021314Y-114180825D01*
X86128292Y-113777074D01*
X85604975Y-113480898D01*
X84418804Y-112728958D01*
X83619395Y-112117705D01*
X83209753Y-111649888D01*
X83192882Y-111328251D01*
X83218111Y-111298889D01*
X83507095Y-111168804D01*
X83918671Y-111342138D01*
G36*
X100751642Y-109903848D02*
X101218027Y-110355505D01*
X101639116Y-110982706D01*
X101952693Y-111710955D01*
X102093281Y-112413334D01*
X102088804Y-113221970D01*
X101932191Y-113635785D01*
X101628573Y-113652995D01*
X101183080Y-113271815D01*
X100846673Y-112846799D01*
X100401387Y-112112135D01*
X100062089Y-111326805D01*
X99933332Y-110859391D01*
X100673715Y-110859391D01*
X100681949Y-111172533D01*
X100833754Y-111674651D01*
X100841363Y-111693354D01*
X101028552Y-112066079D01*
X101144100Y-112056553D01*
X101179198Y-111948176D01*
X101150140Y-111492612D01*
X101004585Y-111102073D01*
X100788208Y-110810735D01*
X100673715Y-110859391D01*
X99933332Y-110859391D01*
X99862291Y-110601500D01*
X99835507Y-110046913D01*
X99931840Y-109825160D01*
X100302175Y-109702233D01*
X100751642Y-109903848D01*
X100751642Y-109903848D01*
G37*
X100751642Y-109903848D02*
X101218027Y-110355505D01*
X101639116Y-110982706D01*
X101952693Y-111710955D01*
X102093281Y-112413334D01*
X102088804Y-113221970D01*
X101932191Y-113635785D01*
X101628573Y-113652995D01*
X101183080Y-113271815D01*
X100846673Y-112846799D01*
X100401387Y-112112135D01*
X100062089Y-111326805D01*
X99933332Y-110859391D01*
X100673715Y-110859391D01*
X100681949Y-111172533D01*
X100833754Y-111674651D01*
X100841363Y-111693354D01*
X101028552Y-112066079D01*
X101144100Y-112056553D01*
X101179198Y-111948176D01*
X101150140Y-111492612D01*
X101004585Y-111102073D01*
X100788208Y-110810735D01*
X100673715Y-110859391D01*
X99933332Y-110859391D01*
X99862291Y-110601500D01*
X99835507Y-110046913D01*
X99931840Y-109825160D01*
X100302175Y-109702233D01*
X100751642Y-109903848D01*
G36*
X105465824Y-108439688D02*
X105760108Y-108652820D01*
X106033743Y-109134666D01*
X106124264Y-109334650D01*
X106324716Y-109972762D01*
X106455441Y-110749276D01*
X106510276Y-111539438D01*
X106483057Y-112218496D01*
X106367620Y-112661697D01*
X106292833Y-112746594D01*
X106098338Y-112639856D01*
X105757262Y-112257370D01*
X105367615Y-111717063D01*
X104739543Y-110524772D01*
X104553172Y-109767500D01*
X105317499Y-109767500D01*
X105462133Y-110140713D01*
X105538219Y-110349584D01*
X105714134Y-110663880D01*
X105862302Y-110695028D01*
X105895000Y-110548789D01*
X105774429Y-110268548D01*
X105561803Y-109966706D01*
X105347230Y-109734428D01*
X105317499Y-109767500D01*
X104553172Y-109767500D01*
X104484052Y-109486653D01*
X104354367Y-108391667D01*
X105030752Y-108391667D01*
X105465824Y-108439688D01*
X105465824Y-108439688D01*
G37*
X105465824Y-108439688D02*
X105760108Y-108652820D01*
X106033743Y-109134666D01*
X106124264Y-109334650D01*
X106324716Y-109972762D01*
X106455441Y-110749276D01*
X106510276Y-111539438D01*
X106483057Y-112218496D01*
X106367620Y-112661697D01*
X106292833Y-112746594D01*
X106098338Y-112639856D01*
X105757262Y-112257370D01*
X105367615Y-111717063D01*
X104739543Y-110524772D01*
X104553172Y-109767500D01*
X105317499Y-109767500D01*
X105462133Y-110140713D01*
X105538219Y-110349584D01*
X105714134Y-110663880D01*
X105862302Y-110695028D01*
X105895000Y-110548789D01*
X105774429Y-110268548D01*
X105561803Y-109966706D01*
X105347230Y-109734428D01*
X105317499Y-109767500D01*
X104553172Y-109767500D01*
X104484052Y-109486653D01*
X104354367Y-108391667D01*
X105030752Y-108391667D01*
X105465824Y-108439688D01*
G36*
X86299661Y-105740861D02*
X86648106Y-106101836D01*
X87089895Y-106707090D01*
X87585478Y-107485455D01*
X88095308Y-108365759D01*
X88579836Y-109276833D01*
X88999513Y-110147507D01*
X89314789Y-110906610D01*
X89486118Y-111482972D01*
X89476904Y-111800872D01*
X89154214Y-112018308D01*
X88749792Y-111903289D01*
X88368326Y-111503438D01*
X88227523Y-111232530D01*
X87991973Y-110640656D01*
X87683791Y-109829505D01*
X87383166Y-109011693D01*
X87047473Y-108132857D01*
X86690417Y-107278212D01*
X86412051Y-106679485D01*
X86171647Y-106141198D01*
X86070172Y-105772427D01*
X86084108Y-105695337D01*
X86299661Y-105740861D01*
X86299661Y-105740861D01*
G37*
X86299661Y-105740861D02*
X86648106Y-106101836D01*
X87089895Y-106707090D01*
X87585478Y-107485455D01*
X88095308Y-108365759D01*
X88579836Y-109276833D01*
X88999513Y-110147507D01*
X89314789Y-110906610D01*
X89486118Y-111482972D01*
X89476904Y-111800872D01*
X89154214Y-112018308D01*
X88749792Y-111903289D01*
X88368326Y-111503438D01*
X88227523Y-111232530D01*
X87991973Y-110640656D01*
X87683791Y-109829505D01*
X87383166Y-109011693D01*
X87047473Y-108132857D01*
X86690417Y-107278212D01*
X86412051Y-106679485D01*
X86171647Y-106141198D01*
X86070172Y-105772427D01*
X86084108Y-105695337D01*
X86299661Y-105740861D01*
G36*
X120193016Y-107482640D02*
X121029008Y-107583138D01*
X121260170Y-107628126D01*
X122140607Y-107832275D01*
X122668070Y-108010074D01*
X122908427Y-108196669D01*
X122927546Y-108427203D01*
X122902276Y-108504279D01*
X122593794Y-108728739D01*
X121903274Y-108785486D01*
X120828166Y-108674538D01*
X119970833Y-108522231D01*
X119249418Y-108361846D01*
X118680014Y-108203461D01*
X118432797Y-108105009D01*
X118225044Y-107870555D01*
X118368338Y-107679091D01*
X118791531Y-107542616D01*
X119423474Y-107473133D01*
X120193016Y-107482640D01*
X120193016Y-107482640D01*
G37*
X120193016Y-107482640D02*
X121029008Y-107583138D01*
X121260170Y-107628126D01*
X122140607Y-107832275D01*
X122668070Y-108010074D01*
X122908427Y-108196669D01*
X122927546Y-108427203D01*
X122902276Y-108504279D01*
X122593794Y-108728739D01*
X121903274Y-108785486D01*
X120828166Y-108674538D01*
X119970833Y-108522231D01*
X119249418Y-108361846D01*
X118680014Y-108203461D01*
X118432797Y-108105009D01*
X118225044Y-107870555D01*
X118368338Y-107679091D01*
X118791531Y-107542616D01*
X119423474Y-107473133D01*
X120193016Y-107482640D01*
G36*
X107306929Y-101107256D02*
X108162035Y-101406455D01*
X108986064Y-101809458D01*
X109564114Y-102211556D01*
X109920420Y-102621288D01*
X110240981Y-103126451D01*
X110451884Y-103589986D01*
X110479215Y-103874832D01*
X110468550Y-103888673D01*
X110258009Y-103831266D01*
X109855631Y-103554922D01*
X109628266Y-103365610D01*
X109025724Y-102919070D01*
X108236849Y-102439099D01*
X107671559Y-102145976D01*
X106440803Y-101563735D01*
X105040196Y-102014831D01*
X103956631Y-102449873D01*
X103189611Y-102985592D01*
X102632855Y-103701987D01*
X102516102Y-103914742D01*
X102372825Y-104151386D01*
X102181314Y-104288882D01*
X101847523Y-104342883D01*
X101277402Y-104329038D01*
X100408353Y-104265488D01*
X98557403Y-104118990D01*
X97992868Y-104789902D01*
X97638351Y-105257438D01*
X97442135Y-105605993D01*
X97428333Y-105667853D01*
X97339516Y-106032625D01*
X97119672Y-106561100D01*
X96838712Y-107115984D01*
X96566546Y-107559982D01*
X96373084Y-107755799D01*
X96364710Y-107756667D01*
X96179021Y-107590372D01*
X96167624Y-107492084D01*
X96240998Y-107132468D01*
X96411010Y-106575137D01*
X96460181Y-106433750D01*
X96618963Y-105864063D01*
X96564233Y-105651302D01*
X96298478Y-105800745D01*
X96204194Y-105890472D01*
X95920196Y-106037236D01*
X95814005Y-106001227D01*
X95845288Y-105763602D01*
X96177489Y-105368336D01*
X96743779Y-104867486D01*
X97477329Y-104313113D01*
X98311312Y-103757275D01*
X99178899Y-103252031D01*
X99650833Y-103012354D01*
X100521958Y-102604708D01*
X101298505Y-102255513D01*
X101869039Y-102014208D01*
X102058590Y-101944130D01*
X102422839Y-101865342D01*
X102456671Y-101948313D01*
X102202707Y-102154669D01*
X101703570Y-102446034D01*
X101252224Y-102670161D01*
X100665663Y-102973672D01*
X100276207Y-103230343D01*
X100180000Y-103347849D01*
X100342158Y-103525343D01*
X100753762Y-103510936D01*
X101302511Y-103332608D01*
X101876099Y-103018338D01*
X102066355Y-102877866D01*
X102761763Y-102415651D01*
X103668443Y-101943669D01*
X104657601Y-101515550D01*
X105600445Y-101184926D01*
X106368182Y-101005427D01*
X106604848Y-100987982D01*
X107306929Y-101107256D01*
X107306929Y-101107256D01*
G37*
X107306929Y-101107256D02*
X108162035Y-101406455D01*
X108986064Y-101809458D01*
X109564114Y-102211556D01*
X109920420Y-102621288D01*
X110240981Y-103126451D01*
X110451884Y-103589986D01*
X110479215Y-103874832D01*
X110468550Y-103888673D01*
X110258009Y-103831266D01*
X109855631Y-103554922D01*
X109628266Y-103365610D01*
X109025724Y-102919070D01*
X108236849Y-102439099D01*
X107671559Y-102145976D01*
X106440803Y-101563735D01*
X105040196Y-102014831D01*
X103956631Y-102449873D01*
X103189611Y-102985592D01*
X102632855Y-103701987D01*
X102516102Y-103914742D01*
X102372825Y-104151386D01*
X102181314Y-104288882D01*
X101847523Y-104342883D01*
X101277402Y-104329038D01*
X100408353Y-104265488D01*
X98557403Y-104118990D01*
X97992868Y-104789902D01*
X97638351Y-105257438D01*
X97442135Y-105605993D01*
X97428333Y-105667853D01*
X97339516Y-106032625D01*
X97119672Y-106561100D01*
X96838712Y-107115984D01*
X96566546Y-107559982D01*
X96373084Y-107755799D01*
X96364710Y-107756667D01*
X96179021Y-107590372D01*
X96167624Y-107492084D01*
X96240998Y-107132468D01*
X96411010Y-106575137D01*
X96460181Y-106433750D01*
X96618963Y-105864063D01*
X96564233Y-105651302D01*
X96298478Y-105800745D01*
X96204194Y-105890472D01*
X95920196Y-106037236D01*
X95814005Y-106001227D01*
X95845288Y-105763602D01*
X96177489Y-105368336D01*
X96743779Y-104867486D01*
X97477329Y-104313113D01*
X98311312Y-103757275D01*
X99178899Y-103252031D01*
X99650833Y-103012354D01*
X100521958Y-102604708D01*
X101298505Y-102255513D01*
X101869039Y-102014208D01*
X102058590Y-101944130D01*
X102422839Y-101865342D01*
X102456671Y-101948313D01*
X102202707Y-102154669D01*
X101703570Y-102446034D01*
X101252224Y-102670161D01*
X100665663Y-102973672D01*
X100276207Y-103230343D01*
X100180000Y-103347849D01*
X100342158Y-103525343D01*
X100753762Y-103510936D01*
X101302511Y-103332608D01*
X101876099Y-103018338D01*
X102066355Y-102877866D01*
X102761763Y-102415651D01*
X103668443Y-101943669D01*
X104657601Y-101515550D01*
X105600445Y-101184926D01*
X106368182Y-101005427D01*
X106604848Y-100987982D01*
X107306929Y-101107256D01*
G36*
X98110595Y-102425196D02*
X97795557Y-102813870D01*
X97175152Y-103473599D01*
X96972194Y-103682084D01*
X96234026Y-104487220D01*
X95510627Y-105360672D01*
X94930511Y-106145110D01*
X94810917Y-106327917D01*
X94293475Y-107079966D01*
X93913511Y-107476008D01*
X93684441Y-107505969D01*
X93618333Y-107223294D01*
X93767496Y-106717213D01*
X94169399Y-106019095D01*
X94755666Y-105212755D01*
X95457921Y-104382009D01*
X96207787Y-103610672D01*
X96936887Y-102982560D01*
X97265377Y-102752763D01*
X97841317Y-102407917D01*
X98124452Y-102294303D01*
X98110595Y-102425196D01*
X98110595Y-102425196D01*
G37*
X98110595Y-102425196D02*
X97795557Y-102813870D01*
X97175152Y-103473599D01*
X96972194Y-103682084D01*
X96234026Y-104487220D01*
X95510627Y-105360672D01*
X94930511Y-106145110D01*
X94810917Y-106327917D01*
X94293475Y-107079966D01*
X93913511Y-107476008D01*
X93684441Y-107505969D01*
X93618333Y-107223294D01*
X93767496Y-106717213D01*
X94169399Y-106019095D01*
X94755666Y-105212755D01*
X95457921Y-104382009D01*
X96207787Y-103610672D01*
X96936887Y-102982560D01*
X97265377Y-102752763D01*
X97841317Y-102407917D01*
X98124452Y-102294303D01*
X98110595Y-102425196D01*
G36*
X101228896Y-88039736D02*
X101427759Y-88359826D01*
X101568198Y-88948635D01*
X101676845Y-89865333D01*
X101738955Y-90611667D01*
X101860785Y-92050246D01*
X101994990Y-93382257D01*
X102133671Y-94549080D01*
X102268931Y-95492095D01*
X102392873Y-96152681D01*
X102497598Y-96472218D01*
X102531149Y-96491877D01*
X102791087Y-96323647D01*
X103311570Y-95928428D01*
X104038128Y-95351776D01*
X104916292Y-94639245D01*
X105891591Y-93836392D01*
X106909556Y-92988773D01*
X107915717Y-92141943D01*
X108855603Y-91341458D01*
X109674746Y-90632873D01*
X110318675Y-90061745D01*
X110732920Y-89673628D01*
X110863184Y-89523405D01*
X111151004Y-89262561D01*
X111697688Y-89074374D01*
X112341349Y-88984856D01*
X112920097Y-89020014D01*
X113216054Y-89145398D01*
X113416680Y-89389513D01*
X113294246Y-89654794D01*
X113212178Y-89748781D01*
X112940501Y-90152664D01*
X112574129Y-90843341D01*
X112141010Y-91752124D01*
X111669088Y-92810324D01*
X111186310Y-93949252D01*
X110720621Y-95100219D01*
X110299967Y-96194535D01*
X109952294Y-97163513D01*
X109705548Y-97938463D01*
X109587675Y-98450695D01*
X109601943Y-98622499D01*
X109826654Y-98590157D01*
X110341357Y-98420980D01*
X111048380Y-98148206D01*
X111294234Y-98046592D01*
X112173411Y-97694549D01*
X113292574Y-97270708D01*
X114489570Y-96835532D01*
X115328321Y-96542368D01*
X116344589Y-96175302D01*
X117270599Y-95805874D01*
X117999141Y-95478994D01*
X118402736Y-95254517D01*
X118923977Y-94963501D01*
X119471877Y-94889063D01*
X119981993Y-94941443D01*
X120652705Y-95122644D01*
X120912591Y-95403868D01*
X120761634Y-95785693D01*
X120199820Y-96268698D01*
X119942923Y-96438627D01*
X119544281Y-96744515D01*
X118959279Y-97260836D01*
X118249116Y-97926131D01*
X117474992Y-98678941D01*
X116698107Y-99457807D01*
X115979660Y-100201269D01*
X115380852Y-100847869D01*
X114962881Y-101336148D01*
X114786949Y-101604647D01*
X114785000Y-101618396D01*
X114979196Y-101635992D01*
X115505379Y-101587946D01*
X116278942Y-101483850D01*
X117047950Y-101361809D01*
X118716885Y-101093046D01*
X120140934Y-100888596D01*
X121279047Y-100753252D01*
X122090168Y-100691805D01*
X122533245Y-100709044D01*
X122563750Y-100718078D01*
X122752111Y-100918531D01*
X122844602Y-101216867D01*
X122783021Y-101401729D01*
X122753369Y-101406667D01*
X122528310Y-101437001D01*
X121963648Y-101520152D01*
X121138159Y-101644339D01*
X120130617Y-101797782D01*
X119842953Y-101841876D01*
X118645242Y-102005708D01*
X117455455Y-102133799D01*
X116407948Y-102213747D01*
X115637074Y-102233153D01*
X115611591Y-102232421D01*
X114855283Y-102232404D01*
X114254201Y-102276309D01*
X113957092Y-102347573D01*
X113718443Y-102451076D01*
X113647361Y-102343790D01*
X113755905Y-101989395D01*
X114056132Y-101351572D01*
X114560102Y-100394000D01*
X114677830Y-100176697D01*
X115140098Y-99306986D01*
X115515616Y-98564052D01*
X115763401Y-98031462D01*
X115843333Y-97800159D01*
X115791041Y-97685775D01*
X115598978Y-97671421D01*
X115214364Y-97773597D01*
X114584418Y-98008803D01*
X113656360Y-98393538D01*
X112880000Y-98726544D01*
X111777980Y-99174023D01*
X110918895Y-99445937D01*
X110177835Y-99576249D01*
X109662667Y-99601402D01*
X108765836Y-99545052D01*
X108237686Y-99371569D01*
X108093853Y-99090619D01*
X108300440Y-98759322D01*
X108564025Y-98289265D01*
X108646667Y-97828861D01*
X108668446Y-97522092D01*
X108744130Y-97101358D01*
X108889239Y-96507467D01*
X109119290Y-95681231D01*
X109449804Y-94563459D01*
X109837484Y-93287074D01*
X110025341Y-92558060D01*
X110021787Y-92190939D01*
X109817472Y-92165420D01*
X109441714Y-92428257D01*
X108370856Y-93346662D01*
X107187293Y-94386347D01*
X105997775Y-95451618D01*
X104909052Y-96446785D01*
X104027875Y-97276155D01*
X103954512Y-97347035D01*
X103274315Y-97992126D01*
X102802446Y-98384849D01*
X102451996Y-98576229D01*
X102136056Y-98617288D01*
X101858019Y-98577854D01*
X101152594Y-98359365D01*
X100766140Y-97990781D01*
X100615915Y-97366935D01*
X100603333Y-96983113D01*
X100572691Y-96198837D01*
X100491162Y-95231196D01*
X100374346Y-94204244D01*
X100237839Y-93242038D01*
X100097241Y-92468631D01*
X99981977Y-92041327D01*
X99884151Y-91883346D01*
X99752777Y-91914006D01*
X99555529Y-92179884D01*
X99260081Y-92727558D01*
X98834107Y-93603607D01*
X98697236Y-93892500D01*
X97870626Y-95692881D01*
X97184756Y-97314211D01*
X96565120Y-98941967D01*
X95937211Y-100761624D01*
X95933876Y-100771667D01*
X95643957Y-101625511D01*
X95430332Y-102152950D01*
X95238654Y-102430250D01*
X95014574Y-102533676D01*
X94703747Y-102539495D01*
X94675099Y-102538108D01*
X94184335Y-102451779D01*
X93728558Y-102206666D01*
X93242160Y-101744878D01*
X92659528Y-101008521D01*
X92193390Y-100348334D01*
X91246894Y-98972500D01*
X91377586Y-100771667D01*
X91499429Y-102453690D01*
X91591318Y-103763814D01*
X91653525Y-104752392D01*
X91686319Y-105469778D01*
X91689971Y-105966326D01*
X91664751Y-106292389D01*
X91610930Y-106498322D01*
X91528778Y-106634478D01*
X91418566Y-106751210D01*
X91409739Y-106760023D01*
X90928623Y-107049897D01*
X90574539Y-107121667D01*
X90428559Y-107112551D01*
X90313676Y-107052717D01*
X90223347Y-106893432D01*
X90151028Y-106585966D01*
X90090176Y-106081586D01*
X90034250Y-105331563D01*
X89976707Y-104287163D01*
X89911003Y-102899657D01*
X89861842Y-101813389D01*
X89800399Y-100346385D01*
X89753367Y-99012311D01*
X89722165Y-97871712D01*
X89708213Y-96985129D01*
X89712931Y-96413106D01*
X89730727Y-96223601D01*
X89987955Y-95952848D01*
X90462179Y-95684031D01*
X90486925Y-95673610D01*
X90946437Y-95551881D01*
X91308061Y-95663294D01*
X91639654Y-96062813D01*
X92009072Y-96805405D01*
X92077056Y-96961667D01*
X92527051Y-97976063D01*
X92976585Y-98933770D01*
X93388238Y-99760834D01*
X93724589Y-100383305D01*
X93948217Y-100727230D01*
X94004989Y-100771667D01*
X94146547Y-100590371D01*
X94422796Y-100094591D01*
X94796043Y-99356485D01*
X95228594Y-98448215D01*
X95304162Y-98284584D01*
X95819373Y-97174016D01*
X96450602Y-95828627D01*
X97128969Y-94394414D01*
X97785593Y-93017374D01*
X97994513Y-92582200D01*
X98501109Y-91500278D01*
X98924958Y-90539192D01*
X99237693Y-89767946D01*
X99410948Y-89255546D01*
X99432694Y-89083626D01*
X99468386Y-88655647D01*
X99836719Y-88262654D01*
X100450246Y-87991933D01*
X100549350Y-87969043D01*
X100944971Y-87929198D01*
X101228896Y-88039736D01*
X101228896Y-88039736D01*
G37*
X101228896Y-88039736D02*
X101427759Y-88359826D01*
X101568198Y-88948635D01*
X101676845Y-89865333D01*
X101738955Y-90611667D01*
X101860785Y-92050246D01*
X101994990Y-93382257D01*
X102133671Y-94549080D01*
X102268931Y-95492095D01*
X102392873Y-96152681D01*
X102497598Y-96472218D01*
X102531149Y-96491877D01*
X102791087Y-96323647D01*
X103311570Y-95928428D01*
X104038128Y-95351776D01*
X104916292Y-94639245D01*
X105891591Y-93836392D01*
X106909556Y-92988773D01*
X107915717Y-92141943D01*
X108855603Y-91341458D01*
X109674746Y-90632873D01*
X110318675Y-90061745D01*
X110732920Y-89673628D01*
X110863184Y-89523405D01*
X111151004Y-89262561D01*
X111697688Y-89074374D01*
X112341349Y-88984856D01*
X112920097Y-89020014D01*
X113216054Y-89145398D01*
X113416680Y-89389513D01*
X113294246Y-89654794D01*
X113212178Y-89748781D01*
X112940501Y-90152664D01*
X112574129Y-90843341D01*
X112141010Y-91752124D01*
X111669088Y-92810324D01*
X111186310Y-93949252D01*
X110720621Y-95100219D01*
X110299967Y-96194535D01*
X109952294Y-97163513D01*
X109705548Y-97938463D01*
X109587675Y-98450695D01*
X109601943Y-98622499D01*
X109826654Y-98590157D01*
X110341357Y-98420980D01*
X111048380Y-98148206D01*
X111294234Y-98046592D01*
X112173411Y-97694549D01*
X113292574Y-97270708D01*
X114489570Y-96835532D01*
X115328321Y-96542368D01*
X116344589Y-96175302D01*
X117270599Y-95805874D01*
X117999141Y-95478994D01*
X118402736Y-95254517D01*
X118923977Y-94963501D01*
X119471877Y-94889063D01*
X119981993Y-94941443D01*
X120652705Y-95122644D01*
X120912591Y-95403868D01*
X120761634Y-95785693D01*
X120199820Y-96268698D01*
X119942923Y-96438627D01*
X119544281Y-96744515D01*
X118959279Y-97260836D01*
X118249116Y-97926131D01*
X117474992Y-98678941D01*
X116698107Y-99457807D01*
X115979660Y-100201269D01*
X115380852Y-100847869D01*
X114962881Y-101336148D01*
X114786949Y-101604647D01*
X114785000Y-101618396D01*
X114979196Y-101635992D01*
X115505379Y-101587946D01*
X116278942Y-101483850D01*
X117047950Y-101361809D01*
X118716885Y-101093046D01*
X120140934Y-100888596D01*
X121279047Y-100753252D01*
X122090168Y-100691805D01*
X122533245Y-100709044D01*
X122563750Y-100718078D01*
X122752111Y-100918531D01*
X122844602Y-101216867D01*
X122783021Y-101401729D01*
X122753369Y-101406667D01*
X122528310Y-101437001D01*
X121963648Y-101520152D01*
X121138159Y-101644339D01*
X120130617Y-101797782D01*
X119842953Y-101841876D01*
X118645242Y-102005708D01*
X117455455Y-102133799D01*
X116407948Y-102213747D01*
X115637074Y-102233153D01*
X115611591Y-102232421D01*
X114855283Y-102232404D01*
X114254201Y-102276309D01*
X113957092Y-102347573D01*
X113718443Y-102451076D01*
X113647361Y-102343790D01*
X113755905Y-101989395D01*
X114056132Y-101351572D01*
X114560102Y-100394000D01*
X114677830Y-100176697D01*
X115140098Y-99306986D01*
X115515616Y-98564052D01*
X115763401Y-98031462D01*
X115843333Y-97800159D01*
X115791041Y-97685775D01*
X115598978Y-97671421D01*
X115214364Y-97773597D01*
X114584418Y-98008803D01*
X113656360Y-98393538D01*
X112880000Y-98726544D01*
X111777980Y-99174023D01*
X110918895Y-99445937D01*
X110177835Y-99576249D01*
X109662667Y-99601402D01*
X108765836Y-99545052D01*
X108237686Y-99371569D01*
X108093853Y-99090619D01*
X108300440Y-98759322D01*
X108564025Y-98289265D01*
X108646667Y-97828861D01*
X108668446Y-97522092D01*
X108744130Y-97101358D01*
X108889239Y-96507467D01*
X109119290Y-95681231D01*
X109449804Y-94563459D01*
X109837484Y-93287074D01*
X110025341Y-92558060D01*
X110021787Y-92190939D01*
X109817472Y-92165420D01*
X109441714Y-92428257D01*
X108370856Y-93346662D01*
X107187293Y-94386347D01*
X105997775Y-95451618D01*
X104909052Y-96446785D01*
X104027875Y-97276155D01*
X103954512Y-97347035D01*
X103274315Y-97992126D01*
X102802446Y-98384849D01*
X102451996Y-98576229D01*
X102136056Y-98617288D01*
X101858019Y-98577854D01*
X101152594Y-98359365D01*
X100766140Y-97990781D01*
X100615915Y-97366935D01*
X100603333Y-96983113D01*
X100572691Y-96198837D01*
X100491162Y-95231196D01*
X100374346Y-94204244D01*
X100237839Y-93242038D01*
X100097241Y-92468631D01*
X99981977Y-92041327D01*
X99884151Y-91883346D01*
X99752777Y-91914006D01*
X99555529Y-92179884D01*
X99260081Y-92727558D01*
X98834107Y-93603607D01*
X98697236Y-93892500D01*
X97870626Y-95692881D01*
X97184756Y-97314211D01*
X96565120Y-98941967D01*
X95937211Y-100761624D01*
X95933876Y-100771667D01*
X95643957Y-101625511D01*
X95430332Y-102152950D01*
X95238654Y-102430250D01*
X95014574Y-102533676D01*
X94703747Y-102539495D01*
X94675099Y-102538108D01*
X94184335Y-102451779D01*
X93728558Y-102206666D01*
X93242160Y-101744878D01*
X92659528Y-101008521D01*
X92193390Y-100348334D01*
X91246894Y-98972500D01*
X91377586Y-100771667D01*
X91499429Y-102453690D01*
X91591318Y-103763814D01*
X91653525Y-104752392D01*
X91686319Y-105469778D01*
X91689971Y-105966326D01*
X91664751Y-106292389D01*
X91610930Y-106498322D01*
X91528778Y-106634478D01*
X91418566Y-106751210D01*
X91409739Y-106760023D01*
X90928623Y-107049897D01*
X90574539Y-107121667D01*
X90428559Y-107112551D01*
X90313676Y-107052717D01*
X90223347Y-106893432D01*
X90151028Y-106585966D01*
X90090176Y-106081586D01*
X90034250Y-105331563D01*
X89976707Y-104287163D01*
X89911003Y-102899657D01*
X89861842Y-101813389D01*
X89800399Y-100346385D01*
X89753367Y-99012311D01*
X89722165Y-97871712D01*
X89708213Y-96985129D01*
X89712931Y-96413106D01*
X89730727Y-96223601D01*
X89987955Y-95952848D01*
X90462179Y-95684031D01*
X90486925Y-95673610D01*
X90946437Y-95551881D01*
X91308061Y-95663294D01*
X91639654Y-96062813D01*
X92009072Y-96805405D01*
X92077056Y-96961667D01*
X92527051Y-97976063D01*
X92976585Y-98933770D01*
X93388238Y-99760834D01*
X93724589Y-100383305D01*
X93948217Y-100727230D01*
X94004989Y-100771667D01*
X94146547Y-100590371D01*
X94422796Y-100094591D01*
X94796043Y-99356485D01*
X95228594Y-98448215D01*
X95304162Y-98284584D01*
X95819373Y-97174016D01*
X96450602Y-95828627D01*
X97128969Y-94394414D01*
X97785593Y-93017374D01*
X97994513Y-92582200D01*
X98501109Y-91500278D01*
X98924958Y-90539192D01*
X99237693Y-89767946D01*
X99410948Y-89255546D01*
X99432694Y-89083626D01*
X99468386Y-88655647D01*
X99836719Y-88262654D01*
X100450246Y-87991933D01*
X100549350Y-87969043D01*
X100944971Y-87929198D01*
X101228896Y-88039736D01*
G36*
X123148355Y-103970921D02*
X123370874Y-104047040D01*
X123452341Y-104180184D01*
X123463333Y-104343911D01*
X123442149Y-104538493D01*
X123330148Y-104666773D01*
X123054664Y-104742367D01*
X122543025Y-104778891D01*
X121722563Y-104789961D01*
X121082083Y-104790092D01*
X120095564Y-104771978D01*
X119248749Y-104725367D01*
X118641473Y-104657680D01*
X118389463Y-104589935D01*
X118187473Y-104400402D01*
X118277212Y-104253748D01*
X118689758Y-104142568D01*
X119456188Y-104059461D01*
X120607579Y-103997023D01*
X120929642Y-103984825D01*
X121998223Y-103949803D01*
X122714299Y-103941839D01*
X123148355Y-103970921D01*
X123148355Y-103970921D01*
G37*
X123148355Y-103970921D02*
X123370874Y-104047040D01*
X123452341Y-104180184D01*
X123463333Y-104343911D01*
X123442149Y-104538493D01*
X123330148Y-104666773D01*
X123054664Y-104742367D01*
X122543025Y-104778891D01*
X121722563Y-104789961D01*
X121082083Y-104790092D01*
X120095564Y-104771978D01*
X119248749Y-104725367D01*
X118641473Y-104657680D01*
X118389463Y-104589935D01*
X118187473Y-104400402D01*
X118277212Y-104253748D01*
X118689758Y-104142568D01*
X119456188Y-104059461D01*
X120607579Y-103997023D01*
X120929642Y-103984825D01*
X121998223Y-103949803D01*
X122714299Y-103941839D01*
X123148355Y-103970921D01*
G36*
X133623333Y-111884167D02*
X133517500Y-111990000D01*
X133411667Y-111884167D01*
X133517500Y-111778334D01*
X133623333Y-111884167D01*
X133623333Y-111884167D01*
G37*
X133623333Y-111884167D02*
X133517500Y-111990000D01*
X133411667Y-111884167D01*
X133517500Y-111778334D01*
X133623333Y-111884167D01*
G36*
X132776667Y-110825834D02*
X132670833Y-110931667D01*
X132565000Y-110825834D01*
X132670833Y-110720000D01*
X132776667Y-110825834D01*
X132776667Y-110825834D01*
G37*
X132776667Y-110825834D02*
X132670833Y-110931667D01*
X132565000Y-110825834D01*
X132670833Y-110720000D01*
X132776667Y-110825834D01*
G36*
X130809458Y-136459171D02*
X130851841Y-136581404D01*
X130857090Y-136800496D01*
X130827341Y-137137698D01*
X130764735Y-137614261D01*
X130741315Y-137777590D01*
X130678474Y-138249087D01*
X130629285Y-138692764D01*
X130597741Y-139066429D01*
X130587838Y-139327887D01*
X130589717Y-139378591D01*
X130604188Y-139507973D01*
X130627213Y-139545116D01*
X130664806Y-139474607D01*
X130722980Y-139281032D01*
X130807747Y-138948975D01*
X130890581Y-138607334D01*
X130995813Y-138160040D01*
X131089776Y-137744592D01*
X131121706Y-137596097D01*
X131876562Y-137596097D01*
X131879749Y-137612500D01*
X131913455Y-137791052D01*
X131964075Y-138074640D01*
X132019589Y-138395667D01*
X132076731Y-138701754D01*
X132131167Y-138943648D01*
X132171483Y-139070871D01*
X132172727Y-139073000D01*
X132197452Y-139036330D01*
X132219847Y-138871791D01*
X132238336Y-138620846D01*
X132251345Y-138324958D01*
X132257297Y-138025590D01*
X132254620Y-137764205D01*
X132241736Y-137582266D01*
X132231165Y-137534534D01*
X132121292Y-137442287D01*
X132014378Y-137422000D01*
X131887436Y-137458414D01*
X131876562Y-137596097D01*
X131121706Y-137596097D01*
X131163343Y-137402467D01*
X131207388Y-137175140D01*
X131211790Y-137147513D01*
X131258752Y-136830693D01*
X132673209Y-136875470D01*
X133434353Y-136901621D01*
X134042979Y-136927782D01*
X134515895Y-136955573D01*
X134869910Y-136986616D01*
X135121831Y-137022532D01*
X135288466Y-137064940D01*
X135386625Y-137115463D01*
X135411517Y-137139543D01*
X135471502Y-137299583D01*
X135427423Y-137407930D01*
X135347677Y-137482602D01*
X135203214Y-137520692D01*
X134954732Y-137528524D01*
X134726334Y-137520734D01*
X134115002Y-137492467D01*
X134170612Y-138071067D01*
X134220031Y-138576757D01*
X134258318Y-138939695D01*
X134289396Y-139185794D01*
X134317189Y-139340965D01*
X134345620Y-139431120D01*
X134378614Y-139482171D01*
X134385354Y-139489221D01*
X134513105Y-139542559D01*
X134741195Y-139583052D01*
X135012480Y-139607018D01*
X135269814Y-139610777D01*
X135456052Y-139590646D01*
X135512672Y-139561850D01*
X135532860Y-139449929D01*
X135550899Y-139205092D01*
X135559623Y-138990732D01*
X136042176Y-138990732D01*
X136045049Y-139255913D01*
X136056864Y-139420573D01*
X136069804Y-139454000D01*
X136158668Y-139397754D01*
X136313918Y-139255900D01*
X136389232Y-139178834D01*
X136645422Y-138872639D01*
X136785651Y-138597453D01*
X136837122Y-138293853D01*
X136839334Y-138195711D01*
X136807889Y-137930107D01*
X136690681Y-137746840D01*
X136616249Y-137682145D01*
X136376449Y-137536837D01*
X136202539Y-137521562D01*
X136121265Y-137612500D01*
X136096860Y-137756506D01*
X136075587Y-138007917D01*
X136058607Y-138325149D01*
X136047082Y-138666615D01*
X136042176Y-138990732D01*
X135559623Y-138990732D01*
X135564792Y-138863756D01*
X135572436Y-138472955D01*
X135580727Y-137959838D01*
X135596699Y-137590983D01*
X135624926Y-137341350D01*
X135669982Y-137185896D01*
X135736441Y-137099579D01*
X135828875Y-137057358D01*
X135831090Y-137056773D01*
X136081683Y-137048488D01*
X136410643Y-137109637D01*
X136752355Y-137220530D01*
X137041203Y-137361480D01*
X137167422Y-137457768D01*
X137342914Y-137746315D01*
X137396877Y-138113039D01*
X137336249Y-138525794D01*
X137167965Y-138952436D01*
X136898961Y-139360819D01*
X136713044Y-139563621D01*
X136537467Y-139765958D01*
X136430857Y-139950176D01*
X136416000Y-140015537D01*
X136475371Y-140145075D01*
X136632370Y-140350584D01*
X136855328Y-140598693D01*
X137112575Y-140856031D01*
X137372441Y-141089228D01*
X137599006Y-141262095D01*
X137896569Y-141380279D01*
X138246072Y-141405651D01*
X138580676Y-141341927D01*
X138832849Y-141193515D01*
X138998046Y-140976768D01*
X139024083Y-140780452D01*
X138903616Y-140588470D01*
X138739177Y-140466334D01*
X139547129Y-140466334D01*
X139564120Y-140755304D01*
X139619153Y-140957116D01*
X139707835Y-141047418D01*
X139825773Y-141001857D01*
X139867190Y-140956834D01*
X139984138Y-140695322D01*
X140025748Y-140315268D01*
X139989124Y-139851182D01*
X139969513Y-139737150D01*
X139900915Y-139429070D01*
X139838143Y-139289489D01*
X139773586Y-139318107D01*
X139699638Y-139514623D01*
X139644845Y-139724326D01*
X139572573Y-140114557D01*
X139547129Y-140466334D01*
X138739177Y-140466334D01*
X138629303Y-140384726D01*
X138407082Y-140260189D01*
X137996106Y-140015046D01*
X137723776Y-139774660D01*
X137562418Y-139511960D01*
X137522914Y-139395163D01*
X137506604Y-139246908D01*
X138024667Y-139246908D01*
X138097515Y-139424190D01*
X138284556Y-139618129D01*
X138538538Y-139794305D01*
X138812209Y-139918298D01*
X138998334Y-139956146D01*
X139055752Y-139882195D01*
X139140913Y-139679418D01*
X139240102Y-139383169D01*
X139299084Y-139180899D01*
X139411359Y-138721560D01*
X139450867Y-138394200D01*
X139414366Y-138176396D01*
X139298614Y-138045725D01*
X139126131Y-137984507D01*
X138860174Y-138011362D01*
X138588381Y-138169288D01*
X138340782Y-138423865D01*
X138147411Y-138740672D01*
X138038300Y-139085288D01*
X138024667Y-139246908D01*
X137506604Y-139246908D01*
X137487150Y-139070083D01*
X137569034Y-138730069D01*
X137778632Y-138336704D01*
X137814793Y-138281143D01*
X138152378Y-137891907D01*
X138543594Y-137661445D01*
X138952924Y-137591333D01*
X139270576Y-137629346D01*
X139528372Y-137758433D01*
X139751813Y-138001170D01*
X139966401Y-138380130D01*
X140050036Y-138562517D01*
X140212150Y-138898788D01*
X140333263Y-139083359D01*
X140408260Y-139114842D01*
X140432028Y-138991850D01*
X140399452Y-138712996D01*
X140388782Y-138654411D01*
X140351303Y-138346458D01*
X140390965Y-138171604D01*
X140519166Y-138106895D01*
X140657512Y-138113332D01*
X140770374Y-138159151D01*
X140877584Y-138281141D01*
X140999071Y-138508873D01*
X141133112Y-138819000D01*
X141347435Y-139329282D01*
X141506665Y-139683439D01*
X141612476Y-139884878D01*
X141666543Y-139937008D01*
X141673693Y-139919667D01*
X141679588Y-139804787D01*
X141686125Y-139559022D01*
X141692430Y-139220811D01*
X141696787Y-138903667D01*
X141707667Y-137972334D01*
X141919334Y-137972334D01*
X142051141Y-137989786D01*
X142117272Y-138072274D01*
X142145116Y-138264993D01*
X142150213Y-138353334D01*
X142163629Y-138572782D01*
X142187612Y-138920161D01*
X142219226Y-139354608D01*
X142255533Y-139835260D01*
X142271911Y-140046667D01*
X142316959Y-140639210D01*
X142347028Y-141085826D01*
X142362196Y-141409249D01*
X142362543Y-141632214D01*
X142348147Y-141777457D01*
X142319087Y-141867712D01*
X142278419Y-141922781D01*
X142145050Y-141998285D01*
X142007205Y-141949909D01*
X141856264Y-141767331D01*
X141683610Y-141440230D01*
X141487300Y-140975248D01*
X141339180Y-140612909D01*
X141207986Y-140316731D01*
X141108147Y-140117674D01*
X141054663Y-140046667D01*
X141027649Y-140125575D01*
X141005892Y-140339309D01*
X140991906Y-140653383D01*
X140988000Y-140961067D01*
X140979689Y-141439334D01*
X140949919Y-141768016D01*
X140891435Y-141966261D01*
X140796982Y-142053220D01*
X140659304Y-142048044D01*
X140585834Y-142022594D01*
X140517898Y-141909448D01*
X140483390Y-141652325D01*
X140480000Y-141508915D01*
X140480000Y-141037940D01*
X140281552Y-141252069D01*
X140029960Y-141458985D01*
X139789561Y-141542053D01*
X139595388Y-141489494D01*
X139589549Y-141484796D01*
X139470264Y-141436734D01*
X139319919Y-141504722D01*
X139258936Y-141550347D01*
X138835497Y-141779067D01*
X138333770Y-141873644D01*
X137786274Y-141827976D01*
X137782687Y-141827218D01*
X137534782Y-141764539D01*
X137333662Y-141679079D01*
X137134883Y-141542550D01*
X136894000Y-141326665D01*
X136704336Y-141140876D01*
X136449006Y-140892253D01*
X136237385Y-140696161D01*
X136098283Y-140578767D01*
X136061474Y-140556984D01*
X136022716Y-140630274D01*
X135999545Y-140814909D01*
X135997556Y-140872167D01*
X135987946Y-141147927D01*
X135972348Y-141387952D01*
X135971083Y-141401334D01*
X135950334Y-141613000D01*
X135010759Y-141613000D01*
X134531919Y-141604981D01*
X134201538Y-141579476D01*
X133999433Y-141534312D01*
X133931259Y-141496800D01*
X133876810Y-141428452D01*
X133837614Y-141310752D01*
X133810965Y-141117820D01*
X133794157Y-140823777D01*
X133785802Y-140459958D01*
X134265853Y-140459958D01*
X134267866Y-140735628D01*
X134274650Y-140797077D01*
X134321629Y-141147334D01*
X134855818Y-141147334D01*
X135142038Y-141134559D01*
X135355840Y-141101277D01*
X135443552Y-141060696D01*
X135484928Y-140928566D01*
X135525822Y-140698418D01*
X135538832Y-140594527D01*
X135556912Y-140388051D01*
X135534800Y-140258587D01*
X135441336Y-140182901D01*
X135245363Y-140137759D01*
X134915722Y-140099928D01*
X134869097Y-140095126D01*
X134591728Y-140072023D01*
X134435309Y-140083899D01*
X134352955Y-140143258D01*
X134304099Y-140245800D01*
X134265853Y-140459958D01*
X133785802Y-140459958D01*
X133784487Y-140402744D01*
X133780817Y-140057467D01*
X133768165Y-139241420D01*
X133744224Y-138589529D01*
X133708565Y-138096964D01*
X133660759Y-137758898D01*
X133600375Y-137570501D01*
X133555613Y-137526462D01*
X133503804Y-137545030D01*
X133477093Y-137660107D01*
X133473122Y-137896340D01*
X133487397Y-138239482D01*
X133503319Y-138596839D01*
X133519589Y-139070792D01*
X133534639Y-139608618D01*
X133546900Y-140157590D01*
X133550584Y-140363133D01*
X133555740Y-140943296D01*
X133546863Y-141371274D01*
X133520196Y-141663903D01*
X133471983Y-141838019D01*
X133398468Y-141910457D01*
X133295895Y-141898054D01*
X133217503Y-141856052D01*
X133170679Y-141827221D01*
X133133818Y-141793811D01*
X133105199Y-141736524D01*
X133083102Y-141636060D01*
X133065806Y-141473119D01*
X133051590Y-141228404D01*
X133038732Y-140882614D01*
X133025512Y-140416451D01*
X133010210Y-139810615D01*
X133000599Y-139423614D01*
X132983104Y-138779796D01*
X132965700Y-138288233D01*
X132946728Y-137931854D01*
X132924530Y-137693590D01*
X132897445Y-137556372D01*
X132863815Y-137503129D01*
X132821981Y-137516792D01*
X132815820Y-137522625D01*
X132800732Y-137616658D01*
X132783486Y-137854688D01*
X132765311Y-138211414D01*
X132747432Y-138661534D01*
X132731079Y-139179746D01*
X132725798Y-139378236D01*
X132709038Y-139986240D01*
X132692091Y-140447605D01*
X132672652Y-140785013D01*
X132648420Y-141021147D01*
X132617092Y-141178688D01*
X132576363Y-141280318D01*
X132525929Y-141346697D01*
X132323950Y-141459564D01*
X132198502Y-141448693D01*
X132106245Y-141403532D01*
X132038805Y-141314866D01*
X131984184Y-141149452D01*
X131930380Y-140874048D01*
X131883424Y-140575834D01*
X131840717Y-140350897D01*
X131770061Y-140247054D01*
X131621331Y-140217521D01*
X131497891Y-140216000D01*
X131269695Y-140215143D01*
X131119799Y-140213019D01*
X131103167Y-140212372D01*
X131058404Y-140287003D01*
X131002368Y-140486041D01*
X130947833Y-140762817D01*
X130895372Y-141072606D01*
X130850901Y-141255400D01*
X130791629Y-141350717D01*
X130694767Y-141398076D01*
X130562521Y-141430938D01*
X130435028Y-141451586D01*
X130333624Y-141431406D01*
X130249652Y-141350223D01*
X130174459Y-141187863D01*
X130099389Y-140924154D01*
X130015787Y-140538920D01*
X129914998Y-140011989D01*
X129885627Y-139853176D01*
X129826801Y-139587911D01*
X131186950Y-139587911D01*
X131197662Y-139666651D01*
X131305593Y-139753749D01*
X131487716Y-139795915D01*
X131651268Y-139776508D01*
X131685027Y-139754085D01*
X131694287Y-139655271D01*
X131678661Y-139440710D01*
X131645333Y-139160919D01*
X131601488Y-138866420D01*
X131554312Y-138607732D01*
X131510989Y-138435375D01*
X131491897Y-138396153D01*
X131455804Y-138381503D01*
X131419255Y-138433425D01*
X131372842Y-138579112D01*
X131307155Y-138845759D01*
X131250045Y-139095151D01*
X131201595Y-139369417D01*
X131186950Y-139587911D01*
X129826801Y-139587911D01*
X129826526Y-139586673D01*
X129769279Y-139418836D01*
X129725338Y-139382235D01*
X129721867Y-139387509D01*
X129693204Y-139512643D01*
X129660374Y-139767261D01*
X129627836Y-140111733D01*
X129604865Y-140427667D01*
X129574072Y-140812117D01*
X129536271Y-141135048D01*
X129496679Y-141358265D01*
X129466600Y-141440038D01*
X129367633Y-141482186D01*
X129272218Y-141397574D01*
X129179144Y-141180331D01*
X129087195Y-140824585D01*
X128995157Y-140324464D01*
X128901818Y-139674098D01*
X128805964Y-138867615D01*
X128706380Y-137899143D01*
X128682081Y-137645035D01*
X128641624Y-137188578D01*
X128621721Y-136873750D01*
X128622700Y-136674061D01*
X128644889Y-136563019D01*
X128688617Y-136514133D01*
X128696155Y-136510864D01*
X128836366Y-136531493D01*
X128883454Y-136579844D01*
X128943823Y-136744964D01*
X129008088Y-137025203D01*
X129067213Y-137366843D01*
X129112161Y-137716164D01*
X129133897Y-138019447D01*
X129134667Y-138073285D01*
X129147191Y-138381256D01*
X129178354Y-138726120D01*
X129189355Y-138813357D01*
X129236329Y-139045020D01*
X129286832Y-139119208D01*
X129334454Y-139047486D01*
X129372783Y-138841423D01*
X129395410Y-138512583D01*
X129397388Y-138438000D01*
X129415691Y-137984941D01*
X129453678Y-137676732D01*
X129518862Y-137489326D01*
X129618759Y-137398678D01*
X129728165Y-137379667D01*
X129857235Y-137398997D01*
X129934645Y-137485085D01*
X129988518Y-137680077D01*
X130010621Y-137803000D01*
X130080084Y-138160394D01*
X130141436Y-138374484D01*
X130190762Y-138438650D01*
X130224146Y-138346273D01*
X130235963Y-138184000D01*
X130254835Y-137909658D01*
X130293237Y-137543342D01*
X130343202Y-137160166D01*
X130348098Y-137126716D01*
X130407269Y-136776144D01*
X130465417Y-136562408D01*
X130534174Y-136453486D01*
X130604731Y-136420276D01*
X130727800Y-136412545D01*
X130809458Y-136459171D01*
X130809458Y-136459171D01*
G37*
X130809458Y-136459171D02*
X130851841Y-136581404D01*
X130857090Y-136800496D01*
X130827341Y-137137698D01*
X130764735Y-137614261D01*
X130741315Y-137777590D01*
X130678474Y-138249087D01*
X130629285Y-138692764D01*
X130597741Y-139066429D01*
X130587838Y-139327887D01*
X130589717Y-139378591D01*
X130604188Y-139507973D01*
X130627213Y-139545116D01*
X130664806Y-139474607D01*
X130722980Y-139281032D01*
X130807747Y-138948975D01*
X130890581Y-138607334D01*
X130995813Y-138160040D01*
X131089776Y-137744592D01*
X131121706Y-137596097D01*
X131876562Y-137596097D01*
X131879749Y-137612500D01*
X131913455Y-137791052D01*
X131964075Y-138074640D01*
X132019589Y-138395667D01*
X132076731Y-138701754D01*
X132131167Y-138943648D01*
X132171483Y-139070871D01*
X132172727Y-139073000D01*
X132197452Y-139036330D01*
X132219847Y-138871791D01*
X132238336Y-138620846D01*
X132251345Y-138324958D01*
X132257297Y-138025590D01*
X132254620Y-137764205D01*
X132241736Y-137582266D01*
X132231165Y-137534534D01*
X132121292Y-137442287D01*
X132014378Y-137422000D01*
X131887436Y-137458414D01*
X131876562Y-137596097D01*
X131121706Y-137596097D01*
X131163343Y-137402467D01*
X131207388Y-137175140D01*
X131211790Y-137147513D01*
X131258752Y-136830693D01*
X132673209Y-136875470D01*
X133434353Y-136901621D01*
X134042979Y-136927782D01*
X134515895Y-136955573D01*
X134869910Y-136986616D01*
X135121831Y-137022532D01*
X135288466Y-137064940D01*
X135386625Y-137115463D01*
X135411517Y-137139543D01*
X135471502Y-137299583D01*
X135427423Y-137407930D01*
X135347677Y-137482602D01*
X135203214Y-137520692D01*
X134954732Y-137528524D01*
X134726334Y-137520734D01*
X134115002Y-137492467D01*
X134170612Y-138071067D01*
X134220031Y-138576757D01*
X134258318Y-138939695D01*
X134289396Y-139185794D01*
X134317189Y-139340965D01*
X134345620Y-139431120D01*
X134378614Y-139482171D01*
X134385354Y-139489221D01*
X134513105Y-139542559D01*
X134741195Y-139583052D01*
X135012480Y-139607018D01*
X135269814Y-139610777D01*
X135456052Y-139590646D01*
X135512672Y-139561850D01*
X135532860Y-139449929D01*
X135550899Y-139205092D01*
X135559623Y-138990732D01*
X136042176Y-138990732D01*
X136045049Y-139255913D01*
X136056864Y-139420573D01*
X136069804Y-139454000D01*
X136158668Y-139397754D01*
X136313918Y-139255900D01*
X136389232Y-139178834D01*
X136645422Y-138872639D01*
X136785651Y-138597453D01*
X136837122Y-138293853D01*
X136839334Y-138195711D01*
X136807889Y-137930107D01*
X136690681Y-137746840D01*
X136616249Y-137682145D01*
X136376449Y-137536837D01*
X136202539Y-137521562D01*
X136121265Y-137612500D01*
X136096860Y-137756506D01*
X136075587Y-138007917D01*
X136058607Y-138325149D01*
X136047082Y-138666615D01*
X136042176Y-138990732D01*
X135559623Y-138990732D01*
X135564792Y-138863756D01*
X135572436Y-138472955D01*
X135580727Y-137959838D01*
X135596699Y-137590983D01*
X135624926Y-137341350D01*
X135669982Y-137185896D01*
X135736441Y-137099579D01*
X135828875Y-137057358D01*
X135831090Y-137056773D01*
X136081683Y-137048488D01*
X136410643Y-137109637D01*
X136752355Y-137220530D01*
X137041203Y-137361480D01*
X137167422Y-137457768D01*
X137342914Y-137746315D01*
X137396877Y-138113039D01*
X137336249Y-138525794D01*
X137167965Y-138952436D01*
X136898961Y-139360819D01*
X136713044Y-139563621D01*
X136537467Y-139765958D01*
X136430857Y-139950176D01*
X136416000Y-140015537D01*
X136475371Y-140145075D01*
X136632370Y-140350584D01*
X136855328Y-140598693D01*
X137112575Y-140856031D01*
X137372441Y-141089228D01*
X137599006Y-141262095D01*
X137896569Y-141380279D01*
X138246072Y-141405651D01*
X138580676Y-141341927D01*
X138832849Y-141193515D01*
X138998046Y-140976768D01*
X139024083Y-140780452D01*
X138903616Y-140588470D01*
X138739177Y-140466334D01*
X139547129Y-140466334D01*
X139564120Y-140755304D01*
X139619153Y-140957116D01*
X139707835Y-141047418D01*
X139825773Y-141001857D01*
X139867190Y-140956834D01*
X139984138Y-140695322D01*
X140025748Y-140315268D01*
X139989124Y-139851182D01*
X139969513Y-139737150D01*
X139900915Y-139429070D01*
X139838143Y-139289489D01*
X139773586Y-139318107D01*
X139699638Y-139514623D01*
X139644845Y-139724326D01*
X139572573Y-140114557D01*
X139547129Y-140466334D01*
X138739177Y-140466334D01*
X138629303Y-140384726D01*
X138407082Y-140260189D01*
X137996106Y-140015046D01*
X137723776Y-139774660D01*
X137562418Y-139511960D01*
X137522914Y-139395163D01*
X137506604Y-139246908D01*
X138024667Y-139246908D01*
X138097515Y-139424190D01*
X138284556Y-139618129D01*
X138538538Y-139794305D01*
X138812209Y-139918298D01*
X138998334Y-139956146D01*
X139055752Y-139882195D01*
X139140913Y-139679418D01*
X139240102Y-139383169D01*
X139299084Y-139180899D01*
X139411359Y-138721560D01*
X139450867Y-138394200D01*
X139414366Y-138176396D01*
X139298614Y-138045725D01*
X139126131Y-137984507D01*
X138860174Y-138011362D01*
X138588381Y-138169288D01*
X138340782Y-138423865D01*
X138147411Y-138740672D01*
X138038300Y-139085288D01*
X138024667Y-139246908D01*
X137506604Y-139246908D01*
X137487150Y-139070083D01*
X137569034Y-138730069D01*
X137778632Y-138336704D01*
X137814793Y-138281143D01*
X138152378Y-137891907D01*
X138543594Y-137661445D01*
X138952924Y-137591333D01*
X139270576Y-137629346D01*
X139528372Y-137758433D01*
X139751813Y-138001170D01*
X139966401Y-138380130D01*
X140050036Y-138562517D01*
X140212150Y-138898788D01*
X140333263Y-139083359D01*
X140408260Y-139114842D01*
X140432028Y-138991850D01*
X140399452Y-138712996D01*
X140388782Y-138654411D01*
X140351303Y-138346458D01*
X140390965Y-138171604D01*
X140519166Y-138106895D01*
X140657512Y-138113332D01*
X140770374Y-138159151D01*
X140877584Y-138281141D01*
X140999071Y-138508873D01*
X141133112Y-138819000D01*
X141347435Y-139329282D01*
X141506665Y-139683439D01*
X141612476Y-139884878D01*
X141666543Y-139937008D01*
X141673693Y-139919667D01*
X141679588Y-139804787D01*
X141686125Y-139559022D01*
X141692430Y-139220811D01*
X141696787Y-138903667D01*
X141707667Y-137972334D01*
X141919334Y-137972334D01*
X142051141Y-137989786D01*
X142117272Y-138072274D01*
X142145116Y-138264993D01*
X142150213Y-138353334D01*
X142163629Y-138572782D01*
X142187612Y-138920161D01*
X142219226Y-139354608D01*
X142255533Y-139835260D01*
X142271911Y-140046667D01*
X142316959Y-140639210D01*
X142347028Y-141085826D01*
X142362196Y-141409249D01*
X142362543Y-141632214D01*
X142348147Y-141777457D01*
X142319087Y-141867712D01*
X142278419Y-141922781D01*
X142145050Y-141998285D01*
X142007205Y-141949909D01*
X141856264Y-141767331D01*
X141683610Y-141440230D01*
X141487300Y-140975248D01*
X141339180Y-140612909D01*
X141207986Y-140316731D01*
X141108147Y-140117674D01*
X141054663Y-140046667D01*
X141027649Y-140125575D01*
X141005892Y-140339309D01*
X140991906Y-140653383D01*
X140988000Y-140961067D01*
X140979689Y-141439334D01*
X140949919Y-141768016D01*
X140891435Y-141966261D01*
X140796982Y-142053220D01*
X140659304Y-142048044D01*
X140585834Y-142022594D01*
X140517898Y-141909448D01*
X140483390Y-141652325D01*
X140480000Y-141508915D01*
X140480000Y-141037940D01*
X140281552Y-141252069D01*
X140029960Y-141458985D01*
X139789561Y-141542053D01*
X139595388Y-141489494D01*
X139589549Y-141484796D01*
X139470264Y-141436734D01*
X139319919Y-141504722D01*
X139258936Y-141550347D01*
X138835497Y-141779067D01*
X138333770Y-141873644D01*
X137786274Y-141827976D01*
X137782687Y-141827218D01*
X137534782Y-141764539D01*
X137333662Y-141679079D01*
X137134883Y-141542550D01*
X136894000Y-141326665D01*
X136704336Y-141140876D01*
X136449006Y-140892253D01*
X136237385Y-140696161D01*
X136098283Y-140578767D01*
X136061474Y-140556984D01*
X136022716Y-140630274D01*
X135999545Y-140814909D01*
X135997556Y-140872167D01*
X135987946Y-141147927D01*
X135972348Y-141387952D01*
X135971083Y-141401334D01*
X135950334Y-141613000D01*
X135010759Y-141613000D01*
X134531919Y-141604981D01*
X134201538Y-141579476D01*
X133999433Y-141534312D01*
X133931259Y-141496800D01*
X133876810Y-141428452D01*
X133837614Y-141310752D01*
X133810965Y-141117820D01*
X133794157Y-140823777D01*
X133785802Y-140459958D01*
X134265853Y-140459958D01*
X134267866Y-140735628D01*
X134274650Y-140797077D01*
X134321629Y-141147334D01*
X134855818Y-141147334D01*
X135142038Y-141134559D01*
X135355840Y-141101277D01*
X135443552Y-141060696D01*
X135484928Y-140928566D01*
X135525822Y-140698418D01*
X135538832Y-140594527D01*
X135556912Y-140388051D01*
X135534800Y-140258587D01*
X135441336Y-140182901D01*
X135245363Y-140137759D01*
X134915722Y-140099928D01*
X134869097Y-140095126D01*
X134591728Y-140072023D01*
X134435309Y-140083899D01*
X134352955Y-140143258D01*
X134304099Y-140245800D01*
X134265853Y-140459958D01*
X133785802Y-140459958D01*
X133784487Y-140402744D01*
X133780817Y-140057467D01*
X133768165Y-139241420D01*
X133744224Y-138589529D01*
X133708565Y-138096964D01*
X133660759Y-137758898D01*
X133600375Y-137570501D01*
X133555613Y-137526462D01*
X133503804Y-137545030D01*
X133477093Y-137660107D01*
X133473122Y-137896340D01*
X133487397Y-138239482D01*
X133503319Y-138596839D01*
X133519589Y-139070792D01*
X133534639Y-139608618D01*
X133546900Y-140157590D01*
X133550584Y-140363133D01*
X133555740Y-140943296D01*
X133546863Y-141371274D01*
X133520196Y-141663903D01*
X133471983Y-141838019D01*
X133398468Y-141910457D01*
X133295895Y-141898054D01*
X133217503Y-141856052D01*
X133170679Y-141827221D01*
X133133818Y-141793811D01*
X133105199Y-141736524D01*
X133083102Y-141636060D01*
X133065806Y-141473119D01*
X133051590Y-141228404D01*
X133038732Y-140882614D01*
X133025512Y-140416451D01*
X133010210Y-139810615D01*
X133000599Y-139423614D01*
X132983104Y-138779796D01*
X132965700Y-138288233D01*
X132946728Y-137931854D01*
X132924530Y-137693590D01*
X132897445Y-137556372D01*
X132863815Y-137503129D01*
X132821981Y-137516792D01*
X132815820Y-137522625D01*
X132800732Y-137616658D01*
X132783486Y-137854688D01*
X132765311Y-138211414D01*
X132747432Y-138661534D01*
X132731079Y-139179746D01*
X132725798Y-139378236D01*
X132709038Y-139986240D01*
X132692091Y-140447605D01*
X132672652Y-140785013D01*
X132648420Y-141021147D01*
X132617092Y-141178688D01*
X132576363Y-141280318D01*
X132525929Y-141346697D01*
X132323950Y-141459564D01*
X132198502Y-141448693D01*
X132106245Y-141403532D01*
X132038805Y-141314866D01*
X131984184Y-141149452D01*
X131930380Y-140874048D01*
X131883424Y-140575834D01*
X131840717Y-140350897D01*
X131770061Y-140247054D01*
X131621331Y-140217521D01*
X131497891Y-140216000D01*
X131269695Y-140215143D01*
X131119799Y-140213019D01*
X131103167Y-140212372D01*
X131058404Y-140287003D01*
X131002368Y-140486041D01*
X130947833Y-140762817D01*
X130895372Y-141072606D01*
X130850901Y-141255400D01*
X130791629Y-141350717D01*
X130694767Y-141398076D01*
X130562521Y-141430938D01*
X130435028Y-141451586D01*
X130333624Y-141431406D01*
X130249652Y-141350223D01*
X130174459Y-141187863D01*
X130099389Y-140924154D01*
X130015787Y-140538920D01*
X129914998Y-140011989D01*
X129885627Y-139853176D01*
X129826801Y-139587911D01*
X131186950Y-139587911D01*
X131197662Y-139666651D01*
X131305593Y-139753749D01*
X131487716Y-139795915D01*
X131651268Y-139776508D01*
X131685027Y-139754085D01*
X131694287Y-139655271D01*
X131678661Y-139440710D01*
X131645333Y-139160919D01*
X131601488Y-138866420D01*
X131554312Y-138607732D01*
X131510989Y-138435375D01*
X131491897Y-138396153D01*
X131455804Y-138381503D01*
X131419255Y-138433425D01*
X131372842Y-138579112D01*
X131307155Y-138845759D01*
X131250045Y-139095151D01*
X131201595Y-139369417D01*
X131186950Y-139587911D01*
X129826801Y-139587911D01*
X129826526Y-139586673D01*
X129769279Y-139418836D01*
X129725338Y-139382235D01*
X129721867Y-139387509D01*
X129693204Y-139512643D01*
X129660374Y-139767261D01*
X129627836Y-140111733D01*
X129604865Y-140427667D01*
X129574072Y-140812117D01*
X129536271Y-141135048D01*
X129496679Y-141358265D01*
X129466600Y-141440038D01*
X129367633Y-141482186D01*
X129272218Y-141397574D01*
X129179144Y-141180331D01*
X129087195Y-140824585D01*
X128995157Y-140324464D01*
X128901818Y-139674098D01*
X128805964Y-138867615D01*
X128706380Y-137899143D01*
X128682081Y-137645035D01*
X128641624Y-137188578D01*
X128621721Y-136873750D01*
X128622700Y-136674061D01*
X128644889Y-136563019D01*
X128688617Y-136514133D01*
X128696155Y-136510864D01*
X128836366Y-136531493D01*
X128883454Y-136579844D01*
X128943823Y-136744964D01*
X129008088Y-137025203D01*
X129067213Y-137366843D01*
X129112161Y-137716164D01*
X129133897Y-138019447D01*
X129134667Y-138073285D01*
X129147191Y-138381256D01*
X129178354Y-138726120D01*
X129189355Y-138813357D01*
X129236329Y-139045020D01*
X129286832Y-139119208D01*
X129334454Y-139047486D01*
X129372783Y-138841423D01*
X129395410Y-138512583D01*
X129397388Y-138438000D01*
X129415691Y-137984941D01*
X129453678Y-137676732D01*
X129518862Y-137489326D01*
X129618759Y-137398678D01*
X129728165Y-137379667D01*
X129857235Y-137398997D01*
X129934645Y-137485085D01*
X129988518Y-137680077D01*
X130010621Y-137803000D01*
X130080084Y-138160394D01*
X130141436Y-138374484D01*
X130190762Y-138438650D01*
X130224146Y-138346273D01*
X130235963Y-138184000D01*
X130254835Y-137909658D01*
X130293237Y-137543342D01*
X130343202Y-137160166D01*
X130348098Y-137126716D01*
X130407269Y-136776144D01*
X130465417Y-136562408D01*
X130534174Y-136453486D01*
X130604731Y-136420276D01*
X130727800Y-136412545D01*
X130809458Y-136459171D01*
%LPC*%
G36*
X96422072Y-155401189D02*
X96702281Y-155427606D01*
X96981778Y-155474253D01*
X96997560Y-155477498D01*
X97255216Y-155541256D01*
X97509094Y-155624424D01*
X97757662Y-155726214D01*
X97999385Y-155845839D01*
X98232731Y-155982513D01*
X98456166Y-156135449D01*
X98668156Y-156303861D01*
X98751820Y-156377574D01*
X98880344Y-156498716D01*
X98995829Y-156617560D01*
X99103774Y-156740124D01*
X99209680Y-156872429D01*
X99237375Y-156908920D01*
X99397427Y-157138117D01*
X99538679Y-157374839D01*
X99661348Y-157619571D01*
X99765652Y-157872797D01*
X99851809Y-158135001D01*
X99920038Y-158406669D01*
X99927939Y-158444349D01*
X99972923Y-158713043D01*
X99998432Y-158983734D01*
X100004477Y-159254760D01*
X99991067Y-159524460D01*
X99958214Y-159791174D01*
X99918490Y-159998805D01*
X99897275Y-160089136D01*
X99872748Y-160185222D01*
X99846617Y-160280842D01*
X99820588Y-160369774D01*
X99796371Y-160445799D01*
X99793325Y-160454760D01*
X99768762Y-160521831D01*
X99737753Y-160599542D01*
X99702162Y-160683783D01*
X99663850Y-160770446D01*
X99624684Y-160855423D01*
X99586524Y-160934603D01*
X99551237Y-161003880D01*
X99520684Y-161059144D01*
X99514523Y-161069440D01*
X99487607Y-161113496D01*
X99455489Y-161165976D01*
X99423610Y-161217995D01*
X99411899Y-161237080D01*
X99388129Y-161273897D01*
X99354945Y-161322646D01*
X99315296Y-161379134D01*
X99272132Y-161439165D01*
X99228400Y-161498545D01*
X99223142Y-161505577D01*
X99110194Y-161646934D01*
X98982705Y-161789896D01*
X98845437Y-161929705D01*
X98703145Y-162061601D01*
X98560591Y-162180826D01*
X98505577Y-162223142D01*
X98446566Y-162266740D01*
X98386389Y-162310133D01*
X98329241Y-162350371D01*
X98279317Y-162384506D01*
X98240811Y-162409590D01*
X98237080Y-162411899D01*
X98187811Y-162442114D01*
X98134445Y-162474791D01*
X98085870Y-162504492D01*
X98069440Y-162514523D01*
X98026697Y-162538779D01*
X97969065Y-162568823D01*
X97900473Y-162602778D01*
X97824848Y-162638766D01*
X97746119Y-162674908D01*
X97668216Y-162709326D01*
X97612240Y-162733067D01*
X97426737Y-162802496D01*
X97226841Y-162863300D01*
X97016982Y-162914509D01*
X96801592Y-162955149D01*
X96585101Y-162984249D01*
X96398120Y-162999487D01*
X96328624Y-163003258D01*
X96273462Y-163005889D01*
X96227429Y-163007376D01*
X96185321Y-163007713D01*
X96141935Y-163006897D01*
X96092066Y-163004921D01*
X96030511Y-163001781D01*
X95981560Y-162999103D01*
X95733547Y-162977123D01*
X95488867Y-162938472D01*
X95245406Y-162882613D01*
X95001053Y-162809004D01*
X94753695Y-162717109D01*
X94574400Y-162640154D01*
X94448848Y-162578740D01*
X94314795Y-162504829D01*
X94176883Y-162421422D01*
X94039754Y-162331521D01*
X93908050Y-162238126D01*
X93786414Y-162144238D01*
X93715880Y-162085177D01*
X93515945Y-161898597D01*
X93330091Y-161698787D01*
X93159055Y-161486987D01*
X93003573Y-161264442D01*
X92864382Y-161032393D01*
X92742219Y-160792082D01*
X92637822Y-160544752D01*
X92551926Y-160291645D01*
X92485270Y-160034004D01*
X92477498Y-159997560D01*
X92429705Y-159718121D01*
X92402144Y-159437937D01*
X92396315Y-159215160D01*
X93072303Y-159215160D01*
X93076835Y-159376576D01*
X93087466Y-159534864D01*
X93104129Y-159684418D01*
X93107473Y-159708000D01*
X93146511Y-159912477D01*
X93203587Y-160120207D01*
X93277399Y-160328217D01*
X93366642Y-160533533D01*
X93470013Y-160733183D01*
X93586208Y-160924192D01*
X93713924Y-161103589D01*
X93726579Y-161119882D01*
X93890448Y-161312881D01*
X94068465Y-161491566D01*
X94259709Y-161655253D01*
X94463258Y-161803259D01*
X94678188Y-161934897D01*
X94903579Y-162049486D01*
X95080694Y-162124511D01*
X95215203Y-162172037D01*
X95362087Y-162215558D01*
X95514361Y-162253372D01*
X95665039Y-162283776D01*
X95807135Y-162305068D01*
X95834240Y-162308118D01*
X95882119Y-162313189D01*
X95925463Y-162317816D01*
X95958364Y-162321367D01*
X95971400Y-162322803D01*
X96005902Y-162325205D01*
X96056280Y-162326783D01*
X96118107Y-162327571D01*
X96186957Y-162327605D01*
X96258402Y-162326917D01*
X96328017Y-162325543D01*
X96391374Y-162323517D01*
X96444048Y-162320873D01*
X96469240Y-162318952D01*
X96720779Y-162285687D01*
X96968699Y-162232859D01*
X97211406Y-162160948D01*
X97447309Y-162070433D01*
X97674818Y-161961794D01*
X97702149Y-161947200D01*
X97779545Y-161902671D01*
X97866723Y-161847940D01*
X97958505Y-161786558D01*
X98049711Y-161722073D01*
X98135165Y-161658037D01*
X98201520Y-161604853D01*
X98389294Y-161435257D01*
X98561308Y-161253134D01*
X98717153Y-161059266D01*
X98856424Y-160854434D01*
X98978714Y-160639421D01*
X99083617Y-160415008D01*
X99170724Y-160181977D01*
X99239632Y-159941111D01*
X99289931Y-159693192D01*
X99319925Y-159453945D01*
X99324610Y-159378703D01*
X99326963Y-159289408D01*
X99327107Y-159191427D01*
X99325168Y-159090128D01*
X99321268Y-158990878D01*
X99315530Y-158899045D01*
X99308080Y-158819996D01*
X99304710Y-158793600D01*
X99273655Y-158609267D01*
X99232882Y-158426650D01*
X99183870Y-158251607D01*
X99128101Y-158089994D01*
X99124511Y-158080694D01*
X99025152Y-157852026D01*
X98908940Y-157633053D01*
X98776803Y-157424718D01*
X98629667Y-157227964D01*
X98468461Y-157043733D01*
X98294111Y-156872969D01*
X98107545Y-156716615D01*
X97909689Y-156575613D01*
X97701472Y-156450906D01*
X97483821Y-156343437D01*
X97368400Y-156295141D01*
X97219827Y-156239021D01*
X97082837Y-156192725D01*
X96953185Y-156155465D01*
X96826624Y-156126448D01*
X96698910Y-156104886D01*
X96565797Y-156089987D01*
X96423039Y-156080962D01*
X96266392Y-156077020D01*
X96194920Y-156076691D01*
X96081748Y-156077333D01*
X95984639Y-156079392D01*
X95899361Y-156083234D01*
X95821683Y-156089228D01*
X95747374Y-156097741D01*
X95672202Y-156109143D01*
X95591938Y-156123801D01*
X95544680Y-156133263D01*
X95439775Y-156158066D01*
X95323113Y-156191330D01*
X95200369Y-156231078D01*
X95077219Y-156275330D01*
X94959338Y-156322107D01*
X94852402Y-156369430D01*
X94814345Y-156387880D01*
X94640115Y-156482488D01*
X94467555Y-156590819D01*
X94300491Y-156709995D01*
X94142747Y-156837137D01*
X93998149Y-156969367D01*
X93885404Y-157086991D01*
X93720769Y-157285509D01*
X93573837Y-157492933D01*
X93444939Y-157708559D01*
X93334403Y-157931687D01*
X93242560Y-158161615D01*
X93169738Y-158397641D01*
X93116268Y-158639062D01*
X93095991Y-158768200D01*
X93081813Y-158905366D01*
X93073940Y-159056222D01*
X93072303Y-159215160D01*
X92396315Y-159215160D01*
X92394808Y-159157596D01*
X92407690Y-158877691D01*
X92440782Y-158598811D01*
X92494078Y-158321548D01*
X92497697Y-158305920D01*
X92559195Y-158080283D01*
X92638445Y-157851785D01*
X92733941Y-157624046D01*
X92844175Y-157400686D01*
X92956310Y-157203824D01*
X93083439Y-157011283D01*
X93228250Y-156821270D01*
X93388104Y-156636601D01*
X93560366Y-156460092D01*
X93742398Y-156294558D01*
X93931563Y-156142815D01*
X93990464Y-156099572D01*
X94201076Y-155959375D01*
X94423536Y-155832255D01*
X94654634Y-155719681D01*
X94891159Y-155623122D01*
X95129901Y-155544048D01*
X95305920Y-155497697D01*
X95583074Y-155443259D01*
X95861878Y-155409023D01*
X96141741Y-155394998D01*
X96422072Y-155401189D01*
X96422072Y-155401189D01*
G37*
X96422072Y-155401189D02*
X96702281Y-155427606D01*
X96981778Y-155474253D01*
X96997560Y-155477498D01*
X97255216Y-155541256D01*
X97509094Y-155624424D01*
X97757662Y-155726214D01*
X97999385Y-155845839D01*
X98232731Y-155982513D01*
X98456166Y-156135449D01*
X98668156Y-156303861D01*
X98751820Y-156377574D01*
X98880344Y-156498716D01*
X98995829Y-156617560D01*
X99103774Y-156740124D01*
X99209680Y-156872429D01*
X99237375Y-156908920D01*
X99397427Y-157138117D01*
X99538679Y-157374839D01*
X99661348Y-157619571D01*
X99765652Y-157872797D01*
X99851809Y-158135001D01*
X99920038Y-158406669D01*
X99927939Y-158444349D01*
X99972923Y-158713043D01*
X99998432Y-158983734D01*
X100004477Y-159254760D01*
X99991067Y-159524460D01*
X99958214Y-159791174D01*
X99918490Y-159998805D01*
X99897275Y-160089136D01*
X99872748Y-160185222D01*
X99846617Y-160280842D01*
X99820588Y-160369774D01*
X99796371Y-160445799D01*
X99793325Y-160454760D01*
X99768762Y-160521831D01*
X99737753Y-160599542D01*
X99702162Y-160683783D01*
X99663850Y-160770446D01*
X99624684Y-160855423D01*
X99586524Y-160934603D01*
X99551237Y-161003880D01*
X99520684Y-161059144D01*
X99514523Y-161069440D01*
X99487607Y-161113496D01*
X99455489Y-161165976D01*
X99423610Y-161217995D01*
X99411899Y-161237080D01*
X99388129Y-161273897D01*
X99354945Y-161322646D01*
X99315296Y-161379134D01*
X99272132Y-161439165D01*
X99228400Y-161498545D01*
X99223142Y-161505577D01*
X99110194Y-161646934D01*
X98982705Y-161789896D01*
X98845437Y-161929705D01*
X98703145Y-162061601D01*
X98560591Y-162180826D01*
X98505577Y-162223142D01*
X98446566Y-162266740D01*
X98386389Y-162310133D01*
X98329241Y-162350371D01*
X98279317Y-162384506D01*
X98240811Y-162409590D01*
X98237080Y-162411899D01*
X98187811Y-162442114D01*
X98134445Y-162474791D01*
X98085870Y-162504492D01*
X98069440Y-162514523D01*
X98026697Y-162538779D01*
X97969065Y-162568823D01*
X97900473Y-162602778D01*
X97824848Y-162638766D01*
X97746119Y-162674908D01*
X97668216Y-162709326D01*
X97612240Y-162733067D01*
X97426737Y-162802496D01*
X97226841Y-162863300D01*
X97016982Y-162914509D01*
X96801592Y-162955149D01*
X96585101Y-162984249D01*
X96398120Y-162999487D01*
X96328624Y-163003258D01*
X96273462Y-163005889D01*
X96227429Y-163007376D01*
X96185321Y-163007713D01*
X96141935Y-163006897D01*
X96092066Y-163004921D01*
X96030511Y-163001781D01*
X95981560Y-162999103D01*
X95733547Y-162977123D01*
X95488867Y-162938472D01*
X95245406Y-162882613D01*
X95001053Y-162809004D01*
X94753695Y-162717109D01*
X94574400Y-162640154D01*
X94448848Y-162578740D01*
X94314795Y-162504829D01*
X94176883Y-162421422D01*
X94039754Y-162331521D01*
X93908050Y-162238126D01*
X93786414Y-162144238D01*
X93715880Y-162085177D01*
X93515945Y-161898597D01*
X93330091Y-161698787D01*
X93159055Y-161486987D01*
X93003573Y-161264442D01*
X92864382Y-161032393D01*
X92742219Y-160792082D01*
X92637822Y-160544752D01*
X92551926Y-160291645D01*
X92485270Y-160034004D01*
X92477498Y-159997560D01*
X92429705Y-159718121D01*
X92402144Y-159437937D01*
X92396315Y-159215160D01*
X93072303Y-159215160D01*
X93076835Y-159376576D01*
X93087466Y-159534864D01*
X93104129Y-159684418D01*
X93107473Y-159708000D01*
X93146511Y-159912477D01*
X93203587Y-160120207D01*
X93277399Y-160328217D01*
X93366642Y-160533533D01*
X93470013Y-160733183D01*
X93586208Y-160924192D01*
X93713924Y-161103589D01*
X93726579Y-161119882D01*
X93890448Y-161312881D01*
X94068465Y-161491566D01*
X94259709Y-161655253D01*
X94463258Y-161803259D01*
X94678188Y-161934897D01*
X94903579Y-162049486D01*
X95080694Y-162124511D01*
X95215203Y-162172037D01*
X95362087Y-162215558D01*
X95514361Y-162253372D01*
X95665039Y-162283776D01*
X95807135Y-162305068D01*
X95834240Y-162308118D01*
X95882119Y-162313189D01*
X95925463Y-162317816D01*
X95958364Y-162321367D01*
X95971400Y-162322803D01*
X96005902Y-162325205D01*
X96056280Y-162326783D01*
X96118107Y-162327571D01*
X96186957Y-162327605D01*
X96258402Y-162326917D01*
X96328017Y-162325543D01*
X96391374Y-162323517D01*
X96444048Y-162320873D01*
X96469240Y-162318952D01*
X96720779Y-162285687D01*
X96968699Y-162232859D01*
X97211406Y-162160948D01*
X97447309Y-162070433D01*
X97674818Y-161961794D01*
X97702149Y-161947200D01*
X97779545Y-161902671D01*
X97866723Y-161847940D01*
X97958505Y-161786558D01*
X98049711Y-161722073D01*
X98135165Y-161658037D01*
X98201520Y-161604853D01*
X98389294Y-161435257D01*
X98561308Y-161253134D01*
X98717153Y-161059266D01*
X98856424Y-160854434D01*
X98978714Y-160639421D01*
X99083617Y-160415008D01*
X99170724Y-160181977D01*
X99239632Y-159941111D01*
X99289931Y-159693192D01*
X99319925Y-159453945D01*
X99324610Y-159378703D01*
X99326963Y-159289408D01*
X99327107Y-159191427D01*
X99325168Y-159090128D01*
X99321268Y-158990878D01*
X99315530Y-158899045D01*
X99308080Y-158819996D01*
X99304710Y-158793600D01*
X99273655Y-158609267D01*
X99232882Y-158426650D01*
X99183870Y-158251607D01*
X99128101Y-158089994D01*
X99124511Y-158080694D01*
X99025152Y-157852026D01*
X98908940Y-157633053D01*
X98776803Y-157424718D01*
X98629667Y-157227964D01*
X98468461Y-157043733D01*
X98294111Y-156872969D01*
X98107545Y-156716615D01*
X97909689Y-156575613D01*
X97701472Y-156450906D01*
X97483821Y-156343437D01*
X97368400Y-156295141D01*
X97219827Y-156239021D01*
X97082837Y-156192725D01*
X96953185Y-156155465D01*
X96826624Y-156126448D01*
X96698910Y-156104886D01*
X96565797Y-156089987D01*
X96423039Y-156080962D01*
X96266392Y-156077020D01*
X96194920Y-156076691D01*
X96081748Y-156077333D01*
X95984639Y-156079392D01*
X95899361Y-156083234D01*
X95821683Y-156089228D01*
X95747374Y-156097741D01*
X95672202Y-156109143D01*
X95591938Y-156123801D01*
X95544680Y-156133263D01*
X95439775Y-156158066D01*
X95323113Y-156191330D01*
X95200369Y-156231078D01*
X95077219Y-156275330D01*
X94959338Y-156322107D01*
X94852402Y-156369430D01*
X94814345Y-156387880D01*
X94640115Y-156482488D01*
X94467555Y-156590819D01*
X94300491Y-156709995D01*
X94142747Y-156837137D01*
X93998149Y-156969367D01*
X93885404Y-157086991D01*
X93720769Y-157285509D01*
X93573837Y-157492933D01*
X93444939Y-157708559D01*
X93334403Y-157931687D01*
X93242560Y-158161615D01*
X93169738Y-158397641D01*
X93116268Y-158639062D01*
X93095991Y-158768200D01*
X93081813Y-158905366D01*
X93073940Y-159056222D01*
X93072303Y-159215160D01*
X92396315Y-159215160D01*
X92394808Y-159157596D01*
X92407690Y-158877691D01*
X92440782Y-158598811D01*
X92494078Y-158321548D01*
X92497697Y-158305920D01*
X92559195Y-158080283D01*
X92638445Y-157851785D01*
X92733941Y-157624046D01*
X92844175Y-157400686D01*
X92956310Y-157203824D01*
X93083439Y-157011283D01*
X93228250Y-156821270D01*
X93388104Y-156636601D01*
X93560366Y-156460092D01*
X93742398Y-156294558D01*
X93931563Y-156142815D01*
X93990464Y-156099572D01*
X94201076Y-155959375D01*
X94423536Y-155832255D01*
X94654634Y-155719681D01*
X94891159Y-155623122D01*
X95129901Y-155544048D01*
X95305920Y-155497697D01*
X95583074Y-155443259D01*
X95861878Y-155409023D01*
X96141741Y-155394998D01*
X96422072Y-155401189D01*
G36*
X97896720Y-158854560D02*
X97216000Y-158854560D01*
X97216000Y-158173840D01*
X96875504Y-158173840D01*
X96535009Y-158173839D01*
X96537684Y-158516740D01*
X96540360Y-158859640D01*
X96878180Y-158862316D01*
X97216000Y-158864993D01*
X97216000Y-159535280D01*
X96535280Y-159535280D01*
X96535280Y-160896720D01*
X95864864Y-160896720D01*
X95859640Y-159540360D01*
X95516740Y-159537684D01*
X95173840Y-159535009D01*
X95173840Y-160896720D01*
X94503280Y-160896720D01*
X94503280Y-158512371D01*
X95173840Y-158512371D01*
X95174040Y-158593414D01*
X95174607Y-158667918D01*
X95175495Y-158733462D01*
X95176653Y-158787626D01*
X95178035Y-158827990D01*
X95179590Y-158852135D01*
X95180748Y-158858081D01*
X95192211Y-158859658D01*
X95221563Y-158860949D01*
X95266373Y-158861924D01*
X95324210Y-158862554D01*
X95392644Y-158862808D01*
X95469245Y-158862656D01*
X95523648Y-158862314D01*
X95859640Y-158859640D01*
X95859640Y-158178920D01*
X95516740Y-158176244D01*
X95173840Y-158173569D01*
X95173840Y-158512371D01*
X94503280Y-158512371D01*
X94503280Y-157503280D01*
X97896720Y-157503280D01*
X97896720Y-158854560D01*
X97896720Y-158854560D01*
G37*
X97896720Y-158854560D02*
X97216000Y-158854560D01*
X97216000Y-158173840D01*
X96875504Y-158173840D01*
X96535009Y-158173839D01*
X96537684Y-158516740D01*
X96540360Y-158859640D01*
X96878180Y-158862316D01*
X97216000Y-158864993D01*
X97216000Y-159535280D01*
X96535280Y-159535280D01*
X96535280Y-160896720D01*
X95864864Y-160896720D01*
X95859640Y-159540360D01*
X95516740Y-159537684D01*
X95173840Y-159535009D01*
X95173840Y-160896720D01*
X94503280Y-160896720D01*
X94503280Y-158512371D01*
X95173840Y-158512371D01*
X95174040Y-158593414D01*
X95174607Y-158667918D01*
X95175495Y-158733462D01*
X95176653Y-158787626D01*
X95178035Y-158827990D01*
X95179590Y-158852135D01*
X95180748Y-158858081D01*
X95192211Y-158859658D01*
X95221563Y-158860949D01*
X95266373Y-158861924D01*
X95324210Y-158862554D01*
X95392644Y-158862808D01*
X95469245Y-158862656D01*
X95523648Y-158862314D01*
X95859640Y-158859640D01*
X95859640Y-158178920D01*
X95516740Y-158176244D01*
X95173840Y-158173569D01*
X95173840Y-158512371D01*
X94503280Y-158512371D01*
X94503280Y-157503280D01*
X97896720Y-157503280D01*
X97896720Y-158854560D01*
G36*
X97896720Y-160896720D02*
X97215855Y-160896720D01*
X97218467Y-160218540D01*
X97221080Y-159540360D01*
X97896720Y-159535006D01*
X97896720Y-160896720D01*
X97896720Y-160896720D01*
G37*
X97896720Y-160896720D02*
X97215855Y-160896720D01*
X97218467Y-160218540D01*
X97221080Y-159540360D01*
X97896720Y-159535006D01*
X97896720Y-160896720D01*
D14*
X135889999Y-128270000D02*
X135850001Y-128850000D01*
D15*
X135850000Y-128850000D03*
X135890000Y-128270000D03*
X130850000Y-129350000D03*
X129540000Y-130810000D03*
X135850000Y-129350000D03*
X137160000Y-130810000D03*
X130850000Y-128850000D03*
X130810000Y-128270000D03*
D14*
X129540005Y-130810004D02*
X130849995Y-129349996D01*
X130810001Y-128270000D02*
X130849999Y-128850000D01*
X137159995Y-130810004D02*
X135850005Y-129349996D01*
D16*
X125100000Y-92500000D03*
X120500000Y-91400000D03*
X120500000Y-84400000D03*
D17*
X122800000Y-89800000D03*
X122800000Y-82800000D03*
D16*
X120500000Y-87400000D03*
X122500000Y-92500000D03*
X127100000Y-91400000D03*
X127100000Y-84400000D03*
D17*
X124800000Y-89800000D03*
X124800000Y-82800000D03*
D16*
X127100000Y-87400000D03*
D18*
X91590000Y-86790000D03*
D19*
X92600000Y-84300000D03*
X97600000Y-84300000D03*
D18*
X98600000Y-86790000D03*
D20*
X95100000Y-83090000D03*
D21*
X115400000Y-82400000D03*
D22*
X112860000Y-82400000D03*
X110320000Y-82400000D03*
X107780000Y-82400000D03*
D21*
X86900000Y-107800000D03*
X68300000Y-129700000D03*
D22*
X68300000Y-132240000D03*
X68300000Y-134780000D03*
D21*
X87000000Y-82350000D03*
D22*
X89540000Y-82350000D03*
D21*
X63800000Y-82300000D03*
D22*
X61260000Y-82300000D03*
X63800000Y-84840000D03*
X61260000Y-84840000D03*
X63800000Y-87380000D03*
X61260000Y-87380000D03*
D23*
X67700000Y-123600000D03*
D24*
X65700000Y-123600000D03*
D25*
X83820000Y-82330000D03*
D26*
X83820000Y-84870000D03*
X83820000Y-87410000D03*
X83820000Y-89950000D03*
X83820000Y-92490000D03*
X83820000Y-95030000D03*
X83820000Y-97570000D03*
X83820000Y-100110000D03*
X83820000Y-102650000D03*
X83820000Y-105190000D03*
X83820000Y-107730000D03*
X68580000Y-110270000D03*
X68580000Y-107730000D03*
X68580000Y-105190000D03*
X68580000Y-102650000D03*
X68580000Y-100110000D03*
X68580000Y-97570000D03*
X68580000Y-95030000D03*
X68580000Y-92490000D03*
X68580000Y-89950000D03*
X68580000Y-87410000D03*
X68580000Y-84870000D03*
X83820000Y-110270000D03*
X68580000Y-82330000D03*
D27*
X68500000Y-115250000D03*
X68500000Y-117950000D03*
D24*
X68500000Y-112700000D03*
X68500000Y-120500000D03*
D28*
X115650000Y-106000000D03*
X112950000Y-106000000D03*
D24*
X118200000Y-106000000D03*
X110400000Y-106000000D03*
D28*
X96650000Y-106000000D03*
X93950000Y-106000000D03*
D24*
X99200000Y-106000000D03*
X91400000Y-106000000D03*
D29*
X141089664Y-93675406D03*
X141089664Y-96825406D03*
D24*
X141089664Y-91350406D03*
D23*
X141089664Y-99150406D03*
D29*
X103584375Y-93675000D03*
X103584375Y-96825000D03*
D24*
X103584375Y-91350000D03*
D23*
X103584375Y-99150000D03*
D29*
X105965625Y-93675000D03*
X105965625Y-96825000D03*
D24*
X105965625Y-91350000D03*
D23*
X105965625Y-99150000D03*
D29*
X86915625Y-93675000D03*
X86915625Y-96825000D03*
D24*
X86915625Y-91350000D03*
D23*
X86915625Y-99150000D03*
D29*
X65484375Y-93675000D03*
X65484375Y-96825000D03*
D24*
X65484375Y-91350000D03*
D23*
X65484375Y-99150000D03*
D29*
X96440625Y-149212500D03*
X96440625Y-146062500D03*
D24*
X96440625Y-151537500D03*
D23*
X96440625Y-143737500D03*
D29*
X113493750Y-144065625D03*
X110343750Y-144065625D03*
D24*
X115818750Y-144065625D03*
D23*
X108018750Y-144065625D03*
D29*
X137306250Y-144065625D03*
X134156250Y-144065625D03*
D24*
X139631250Y-144065625D03*
D23*
X131831250Y-144065625D03*
D29*
X65484654Y-129394309D03*
X65484654Y-132544309D03*
D24*
X65484654Y-127069309D03*
D23*
X65484654Y-134869309D03*
D29*
X86915625Y-131775000D03*
X86915625Y-134925000D03*
D24*
X86915625Y-129450000D03*
D23*
X86915625Y-137250000D03*
D29*
X103584375Y-131775000D03*
X103584375Y-134925000D03*
D24*
X103584375Y-129450000D03*
D23*
X103584375Y-137250000D03*
D29*
X105965625Y-131775000D03*
X105965625Y-134925000D03*
D24*
X105965625Y-129450000D03*
D23*
X105965625Y-137250000D03*
D29*
X124718501Y-129394309D03*
X124718501Y-132544309D03*
D24*
X124718501Y-127069309D03*
D23*
X124718501Y-134869309D03*
D29*
X65484375Y-112725000D03*
X65484375Y-115875000D03*
D24*
X65484375Y-110400000D03*
D23*
X65484375Y-118200000D03*
D29*
X86915625Y-112725000D03*
X86915625Y-115875000D03*
D24*
X86915625Y-110400000D03*
D23*
X86915625Y-118200000D03*
D29*
X103584375Y-112725000D03*
X103584375Y-115875000D03*
D24*
X103584375Y-110400000D03*
D23*
X103584375Y-118200000D03*
D29*
X105965625Y-112725000D03*
X105965625Y-115875000D03*
D24*
X105965625Y-110400000D03*
D23*
X105965625Y-118200000D03*
D29*
X125016158Y-112725488D03*
X125016158Y-115875488D03*
D24*
X125016158Y-110400488D03*
D23*
X125016158Y-118200488D03*
D14*
X59689999Y-90170000D02*
X59650001Y-90750000D01*
D15*
X59650000Y-90750000D03*
X59690000Y-90170000D03*
X54650000Y-91250000D03*
X53340000Y-92710000D03*
X59650000Y-91250000D03*
X60960000Y-92710000D03*
X54650000Y-90750000D03*
X54610000Y-90170000D03*
D14*
X53340005Y-92710004D02*
X54649995Y-91249996D01*
X54610001Y-90170000D02*
X54649999Y-90750000D01*
X60959995Y-92710004D02*
X59650005Y-91249996D01*
X78739999Y-90170000D02*
X78700001Y-90750000D01*
D15*
X78700000Y-90750000D03*
X78740000Y-90170000D03*
X73700000Y-91250000D03*
X72390000Y-92710000D03*
X78700000Y-91250000D03*
X80010000Y-92710000D03*
X73700000Y-90750000D03*
X73660000Y-90170000D03*
D14*
X72390005Y-92710004D02*
X73699995Y-91249996D01*
X73660001Y-90170000D02*
X73699999Y-90750000D01*
X80009995Y-92710004D02*
X78700005Y-91249996D01*
X97789999Y-90170000D02*
X97750001Y-90750000D01*
D15*
X97750000Y-90750000D03*
X97790000Y-90170000D03*
X92750000Y-91250000D03*
X91440000Y-92710000D03*
X97750000Y-91250000D03*
X99060000Y-92710000D03*
X92750000Y-90750000D03*
X92710000Y-90170000D03*
D14*
X91440005Y-92710004D02*
X92749995Y-91249996D01*
X92710001Y-90170000D02*
X92749999Y-90750000D01*
X99059995Y-92710004D02*
X97750005Y-91249996D01*
X135889999Y-90170000D02*
X135850001Y-90750000D01*
D15*
X135850000Y-90750000D03*
X135890000Y-90170000D03*
X130850000Y-91250000D03*
X129540000Y-92710000D03*
X135850000Y-91250000D03*
X137160000Y-92710000D03*
X130850000Y-90750000D03*
X130810000Y-90170000D03*
D14*
X129540005Y-92710004D02*
X130849995Y-91249996D01*
X130810001Y-90170000D02*
X130849999Y-90750000D01*
X137159995Y-92710004D02*
X135850005Y-91249996D01*
X59689999Y-109220000D02*
X59650001Y-109800000D01*
D15*
X59650000Y-109800000D03*
X59690000Y-109220000D03*
X54650000Y-110300000D03*
X53340000Y-111760000D03*
X59650000Y-110300000D03*
X60960000Y-111760000D03*
X54650000Y-109800000D03*
X54610000Y-109220000D03*
D14*
X53340005Y-111760004D02*
X54649995Y-110299996D01*
X54610001Y-109220000D02*
X54649999Y-109800000D01*
X60959995Y-111760004D02*
X59650005Y-110299996D01*
X78739999Y-109220000D02*
X78700001Y-109800000D01*
D15*
X78700000Y-109800000D03*
X78740000Y-109220000D03*
X73700000Y-110300000D03*
X72390000Y-111760000D03*
X78700000Y-110300000D03*
X80010000Y-111760000D03*
X73700000Y-109800000D03*
X73660000Y-109220000D03*
D14*
X72390005Y-111760004D02*
X73699995Y-110299996D01*
X73660001Y-109220000D02*
X73699999Y-109800000D01*
X80009995Y-111760004D02*
X78700005Y-110299996D01*
X97789999Y-109220000D02*
X97750001Y-109800000D01*
D15*
X97750000Y-109800000D03*
X97790000Y-109220000D03*
X92750000Y-110300000D03*
X91440000Y-111760000D03*
X97750000Y-110300000D03*
X99060000Y-111760000D03*
X92750000Y-109800000D03*
X92710000Y-109220000D03*
D14*
X91440005Y-111760004D02*
X92749995Y-110299996D01*
X92710001Y-109220000D02*
X92749999Y-109800000D01*
X99059995Y-111760004D02*
X97750005Y-110299996D01*
X59689999Y-128270000D02*
X59650001Y-128850000D01*
D15*
X59650000Y-128850000D03*
X59690000Y-128270000D03*
X54650000Y-129350000D03*
X53340000Y-130810000D03*
X59650000Y-129350000D03*
X60960000Y-130810000D03*
X54650000Y-128850000D03*
X54610000Y-128270000D03*
D14*
X53340005Y-130810004D02*
X54649995Y-129349996D01*
X54610001Y-128270000D02*
X54649999Y-128850000D01*
X60959995Y-130810004D02*
X59650005Y-129349996D01*
X78739999Y-128270000D02*
X78700001Y-128850000D01*
D15*
X78700000Y-128850000D03*
X78740000Y-128270000D03*
X73700000Y-129350000D03*
X72390000Y-130810000D03*
X78700000Y-129350000D03*
X80010000Y-130810000D03*
X73700000Y-128850000D03*
X73660000Y-128270000D03*
D14*
X72390005Y-130810004D02*
X73699995Y-129349996D01*
X73660001Y-128270000D02*
X73699999Y-128850000D01*
X80009995Y-130810004D02*
X78700005Y-129349996D01*
X97789999Y-128270000D02*
X97750001Y-128850000D01*
D15*
X97750000Y-128850000D03*
X97790000Y-128270000D03*
X92750000Y-129350000D03*
X91440000Y-130810000D03*
X97750000Y-129350000D03*
X99060000Y-130810000D03*
X92750000Y-128850000D03*
X92710000Y-128270000D03*
D14*
X91440005Y-130810004D02*
X92749995Y-129349996D01*
X92710001Y-128270000D02*
X92749999Y-128850000D01*
X99059995Y-130810004D02*
X97750005Y-129349996D01*
X145414999Y-147320000D02*
X145375001Y-147900000D01*
D15*
X145375000Y-147900000D03*
X145415000Y-147320000D03*
X140375000Y-148400000D03*
X139065000Y-149860000D03*
X145375000Y-148400000D03*
X146685000Y-149860000D03*
X140375000Y-147900000D03*
X140335000Y-147320000D03*
D14*
X139065005Y-149860004D02*
X140374995Y-148399996D01*
X140335001Y-147320000D02*
X140374999Y-147900000D01*
X146684995Y-149860004D02*
X145375005Y-148399996D01*
D15*
X118110000Y-154900000D03*
D14*
X110490007Y-154939998D02*
X111799993Y-156400002D01*
X111760229Y-157480016D02*
X111799771Y-156899984D01*
D15*
X110490000Y-154900000D03*
X116800000Y-156400000D03*
X116840000Y-157480000D03*
X116800000Y-156900000D03*
X111760000Y-157480000D03*
X111800000Y-156400000D03*
X111800000Y-156900000D03*
D14*
X118109993Y-154939998D02*
X116800007Y-156400002D01*
X116839771Y-157480016D02*
X116800229Y-156899984D01*
D15*
X137160000Y-154900000D03*
D14*
X129540007Y-154939998D02*
X130849993Y-156400002D01*
X130810229Y-157480016D02*
X130849771Y-156899984D01*
D15*
X129540000Y-154900000D03*
X135850000Y-156400000D03*
X135890000Y-157480000D03*
X135850000Y-156900000D03*
X130810000Y-157480000D03*
X130850000Y-156400000D03*
X130850000Y-156900000D03*
D14*
X137159993Y-154939998D02*
X135850007Y-156400002D01*
X135889771Y-157480016D02*
X135850229Y-156899984D01*
D30*
X56000000Y-84600000D03*
X137600000Y-84600000D03*
X66800000Y-139600000D03*
X123800000Y-139600000D03*
D14*
X116839999Y-90170000D02*
X116800001Y-90750000D01*
D15*
X116800000Y-90750000D03*
X116840000Y-90170000D03*
X111800000Y-91250000D03*
X110490000Y-92710000D03*
X116800000Y-91250000D03*
X118110000Y-92710000D03*
X111800000Y-90750000D03*
X111760000Y-90170000D03*
D14*
X110490005Y-92710004D02*
X111799995Y-91249996D01*
X111760001Y-90170000D02*
X111799999Y-90750000D01*
X118109995Y-92710004D02*
X116800005Y-91249996D01*
X116839999Y-109220000D02*
X116800001Y-109800000D01*
D15*
X116800000Y-109800000D03*
X116840000Y-109220000D03*
X111800000Y-110300000D03*
X110490000Y-111760000D03*
X116800000Y-110300000D03*
X118110000Y-111760000D03*
X111800000Y-109800000D03*
X111760000Y-109220000D03*
D14*
X110490005Y-111760004D02*
X111799995Y-110299996D01*
X111760001Y-109220000D02*
X111799999Y-109800000D01*
X118109995Y-111760004D02*
X116800005Y-110299996D01*
X135889999Y-109220000D02*
X135850001Y-109800000D01*
D15*
X135850000Y-109800000D03*
X135890000Y-109220000D03*
X130850000Y-110300000D03*
X129540000Y-111760000D03*
X135850000Y-110300000D03*
X137160000Y-111760000D03*
X130850000Y-109800000D03*
X130810000Y-109220000D03*
D14*
X129540005Y-111760004D02*
X130849995Y-110299996D01*
X130810001Y-109220000D02*
X130849999Y-109800000D01*
X137159995Y-111760004D02*
X135850005Y-110299996D01*
X116839999Y-128270000D02*
X116800001Y-128850000D01*
D15*
X116800000Y-128850000D03*
X116840000Y-128270000D03*
X111800000Y-129350000D03*
X110490000Y-130810000D03*
X116800000Y-129350000D03*
X118110000Y-130810000D03*
X111800000Y-128850000D03*
X111760000Y-128270000D03*
D14*
X110490005Y-130810004D02*
X111799995Y-129349996D01*
X111760001Y-128270000D02*
X111799999Y-128850000D01*
X118109995Y-130810004D02*
X116800005Y-129349996D01*
X107314999Y-147320000D02*
X107275001Y-147900000D01*
D15*
X107275000Y-147900000D03*
X107315000Y-147320000D03*
X102275000Y-148400000D03*
X100965000Y-149860000D03*
X107275000Y-148400000D03*
X108585000Y-149860000D03*
X102275000Y-147900000D03*
X102235000Y-147320000D03*
D14*
X100965005Y-149860004D02*
X102274995Y-148399996D01*
X102235001Y-147320000D02*
X102274999Y-147900000D01*
X108584995Y-149860004D02*
X107275005Y-148399996D01*
X126364999Y-147320000D02*
X126325001Y-147900000D01*
D15*
X126325000Y-147900000D03*
X126365000Y-147320000D03*
X121325000Y-148400000D03*
X120015000Y-149860000D03*
X126325000Y-148400000D03*
X127635000Y-149860000D03*
X121325000Y-147900000D03*
X121285000Y-147320000D03*
D14*
X120015005Y-149860004D02*
X121324995Y-148399996D01*
X121285001Y-147320000D02*
X121324999Y-147900000D01*
X127634995Y-149860004D02*
X126325005Y-148399996D01*
M02*
