M48
INCH,TZ
T1C0.016
T2C0.031
T3C0.035
T4C0.039
T5C0.039
T6C0.043
T7C0.051
T8C0.059
T9C0.060
T10C0.126
%
G90
G05
T1
X2.0591Y-4.8661
X2.1457Y-3.8504
X2.563Y-3.2953
X2.5984Y-3.4921
X2.6142Y-3.3386
X2.622Y-3.9921
X2.6339Y-3.2402
X2.748Y-4.8189
X2.7913Y-4.9409
X2.7953Y-5.3504
X2.8071Y-3.9685
X2.8268Y-3.4646
X2.9921Y-4.9409
X3.0866Y-3.9685
X3.2106Y-3.8445
X3.2559Y-5.3661
X3.3858Y-3.9685
X3.4213Y-5.5827
X3.4528Y-3.7362
X3.4567Y-4.0591
X3.4882Y-3.5394
X3.4882Y-4.0551
X3.4961Y-3.4213
X3.5157Y-3.7992
X3.5197Y-4.0551
X3.5984Y-3.9685
X3.6772Y-5.5787
X3.7244Y-3.315
X3.9724Y-3.3346
X4.0079Y-5.5472
X4.0709Y-5.5748
X4.2441Y-3.3898
X4.2441Y-3.5551
X4.2441Y-3.6929
X4.311Y-4.0827
X4.3425Y-3.4134
X4.3819Y-4.0827
X4.4134Y-5.8976
X4.4409Y-3.4331
X4.5433Y-3.4409
X4.563Y-5.8622
X4.5945Y-4.0276
X4.6417Y-5.6181
X4.7953Y-4.0591
X4.8228Y-4.0787
X4.8543Y-4.1024
X4.8622Y-5.1929
X4.9685Y-5.1575
X5.0118Y-5.2008
X5.1417Y-5.7717
X5.3189Y-4.0276
X5.374Y-5.5551
X5.5276Y-5.6142
T2
X2.5866Y-4.8661
X2.6654Y-4.8661
T4
X3.6457Y-3.3189
X3.8425Y-3.3189
T5
X2.4118Y-3.2402
X2.4118Y-3.3402
X2.4118Y-3.4402
X2.5118Y-3.2402
X2.5118Y-3.3402
X2.5118Y-3.4402
X2.5781Y-3.5965
X2.5781Y-3.9035
X2.5781Y-4.3465
X2.5781Y-4.6535
X2.5781Y-5.0027
X2.5781Y-5.3098
X2.689Y-5.1063
X2.689Y-5.2063
X2.689Y-5.3063
X2.6969Y-4.437
X2.6969Y-4.7441
X3.4213Y-4.2441
X3.4219Y-3.5965
X3.4219Y-3.9035
X3.4219Y-4.3465
X3.4219Y-4.6535
X3.4219Y-5.0965
X3.4219Y-5.4035
X3.4252Y-3.2421
X3.5252Y-3.2421
X3.5984Y-4.1732
X3.7969Y-5.659
X3.7969Y-5.966
X3.9055Y-4.1732
X4.0781Y-3.5965
X4.0781Y-3.9035
X4.0781Y-4.3465
X4.0781Y-4.6535
X4.0781Y-5.0965
X4.0781Y-5.4035
X4.1719Y-3.5965
X4.1719Y-3.9035
X4.1719Y-4.3465
X4.1719Y-4.6535
X4.1719Y-5.0965
X4.1719Y-5.4035
X4.2433Y-3.2441
X4.2527Y-5.6719
X4.3433Y-3.2441
X4.3465Y-4.1732
X4.4433Y-3.2441
X4.5433Y-3.2441
X4.5598Y-5.6719
X4.6535Y-4.1732
X4.9102Y-5.0027
X4.9102Y-5.3098
X4.9219Y-4.3465
X4.9219Y-4.6536
X5.1902Y-5.6719
X5.4973Y-5.6719
X5.5547Y-3.5965
X5.5547Y-3.9036
T6
X2.7Y-3.2413
X2.7Y-3.3413
X2.7Y-3.4413
X2.7Y-3.5413
X2.7Y-3.6413
X2.7Y-3.7413
X2.7Y-3.8413
X2.7Y-3.9413
X2.7Y-4.0413
X2.7Y-4.1413
X2.7Y-4.2413
X2.7Y-4.3413
X3.3Y-3.2413
X3.3Y-3.3413
X3.3Y-3.4413
X3.3Y-3.5413
X3.3Y-3.6413
X3.3Y-3.7413
X3.3Y-3.8413
X3.3Y-3.9413
X3.3Y-4.0413
X3.3Y-4.1413
X3.3Y-4.2413
X3.3Y-4.3413
T7
X3.6059Y-3.4169
X3.8819Y-3.4169
T8
X2.1Y-3.65
X2.1Y-4.4
X2.1Y-5.15
X2.15Y-3.55
X2.15Y-4.3
X2.15Y-5.05
X2.1516Y-3.5728
X2.1516Y-3.5925
X2.1516Y-4.3228
X2.1516Y-4.3425
X2.1516Y-5.0728
X2.1516Y-5.0925
X2.3484Y-3.5728
X2.3484Y-3.5925
X2.3484Y-4.3228
X2.3484Y-4.3425
X2.3484Y-5.0728
X2.3484Y-5.0925
X2.35Y-3.55
X2.35Y-4.3
X2.35Y-5.05
X2.4Y-3.65
X2.4Y-4.4
X2.4Y-5.15
X2.85Y-3.65
X2.85Y-4.4
X2.85Y-5.15
X2.9Y-3.55
X2.9Y-4.3
X2.9Y-5.05
X2.9016Y-3.5728
X2.9016Y-3.5925
X2.9016Y-4.3228
X2.9016Y-4.3425
X2.9016Y-5.0728
X2.9016Y-5.0925
X3.0984Y-3.5728
X3.0984Y-3.5925
X3.0984Y-4.3228
X3.0984Y-4.3425
X3.0984Y-5.0728
X3.0984Y-5.0925
X3.1Y-3.55
X3.1Y-4.3
X3.1Y-5.05
X3.15Y-3.65
X3.15Y-4.4
X3.15Y-5.15
X3.6Y-3.65
X3.6Y-4.4
X3.6Y-5.15
X3.65Y-3.55
X3.65Y-4.3
X3.65Y-5.05
X3.6516Y-3.5728
X3.6516Y-3.5925
X3.6516Y-4.3228
X3.6516Y-4.3425
X3.6516Y-5.0728
X3.6516Y-5.0925
X3.8484Y-3.5728
X3.8484Y-3.5925
X3.8484Y-4.3228
X3.8484Y-4.3425
X3.8484Y-5.0728
X3.8484Y-5.0925
X3.85Y-3.55
X3.85Y-4.3
X3.85Y-5.05
X3.9Y-3.65
X3.9Y-4.4
X3.9Y-5.15
X3.975Y-5.9
X4.025Y-5.8
X4.0266Y-5.8228
X4.0266Y-5.8425
X4.2234Y-5.8228
X4.2234Y-5.8425
X4.225Y-5.8
X4.275Y-5.9
X4.35Y-3.65
X4.35Y-4.4
X4.35Y-5.15
X4.4Y-3.55
X4.4Y-4.3
X4.4Y-5.05
X4.4016Y-3.5728
X4.4016Y-3.5925
X4.4016Y-4.3228
X4.4016Y-4.3425
X4.4016Y-5.0728
X4.4016Y-5.0925
X4.5984Y-3.5728
X4.5984Y-3.5925
X4.5984Y-4.3228
X4.5984Y-4.3425
X4.5984Y-5.0728
X4.5984Y-5.0925
X4.6Y-3.55
X4.6Y-4.3
X4.6Y-5.05
X4.65Y-3.65
X4.65Y-4.4
X4.65Y-5.15
X4.725Y-5.9
X4.775Y-5.8
X4.7766Y-5.8228
X4.7766Y-5.8425
X4.9734Y-5.8228
X4.9734Y-5.8425
X4.975Y-5.8
X5.025Y-5.9
X5.1Y-3.65
X5.1Y-4.4
X5.1Y-5.15
X5.15Y-3.55
X5.15Y-4.3
X5.15Y-5.05
X5.1516Y-3.5728
X5.1516Y-3.5925
X5.1516Y-4.3228
X5.1516Y-4.3425
X5.1516Y-5.0728
X5.1516Y-5.0925
X5.3484Y-3.5728
X5.3484Y-3.5925
X5.3484Y-4.3228
X5.3484Y-4.3425
X5.3484Y-5.0728
X5.3484Y-5.0925
X5.35Y-3.55
X5.35Y-4.3
X5.35Y-5.05
X5.4Y-3.65
X5.4Y-4.4
X5.4Y-5.15
X5.475Y-5.9
X5.525Y-5.8
X5.5266Y-5.8228
X5.5266Y-5.8425
X5.7234Y-5.8228
X5.7234Y-5.8425
X5.725Y-5.8
X5.775Y-5.9
T9
X4.35Y-6.0984
X4.4Y-6.2
X4.4016Y-6.1575
X4.4016Y-6.1772
X4.5984Y-6.1575
X4.5984Y-6.1772
X4.6Y-6.2
X4.65Y-6.0984
X5.1Y-6.0984
X5.15Y-6.2
X5.1516Y-6.1575
X5.1516Y-6.1772
X5.3484Y-6.1575
X5.3484Y-6.1772
X5.35Y-6.2
X5.4Y-6.0984
T10
X2.2047Y-3.3307
X2.6299Y-5.4961
X4.874Y-5.4961
X5.4173Y-3.3307
T3
X4.7441Y-3.3307G85X4.7441Y-3.315
G05
X4.7441Y-3.4488G85X4.7441Y-3.4331
G05
X4.7441Y-3.6063G85X4.7441Y-3.5906
G05
X4.8228Y-3.6339G85X4.8228Y-3.6496
G05
X4.9252Y-3.6496G85X4.9252Y-3.6339
G05
X5.0039Y-3.315G85X5.0039Y-3.3307
G05
X5.0039Y-3.4331G85X5.0039Y-3.4488
G05
X5.0039Y-3.5906G85X5.0039Y-3.6063
G05
T0
M30
