G04 #@! TF.FileFunction,Soldermask,Bot*
%FSLAX46Y46*%
G04 Gerber Fmt 4.6, Leading zero omitted, Abs format (unit mm)*
G04 Created by KiCad (PCBNEW 4.0.7) date 03/15/18 20:04:12*
%MOMM*%
%LPD*%
G01*
G04 APERTURE LIST*
%ADD10C,0.100000*%
%ADD11C,0.010000*%
%ADD12C,2.400000*%
%ADD13C,2.900000*%
%ADD14O,2.000000X2.400000*%
%ADD15C,1.200000*%
%ADD16C,2.500000*%
%ADD17C,2.150000*%
%ADD18C,1.600000*%
%ADD19R,2.100000X2.100000*%
%ADD20O,2.100000X2.100000*%
%ADD21R,2.000000X2.000000*%
%ADD22C,2.000000*%
%ADD23R,2.152600X2.152600*%
%ADD24C,2.152600*%
%ADD25R,1.600000X1.900000*%
%ADD26R,1.900000X1.600000*%
%ADD27R,1.600000X1.600000*%
%ADD28C,6.800000*%
G04 APERTURE END LIST*
D10*
D11*
G36*
X95977928Y-155401189D02*
X95697719Y-155427606D01*
X95418222Y-155474253D01*
X95402440Y-155477498D01*
X95144784Y-155541256D01*
X94890906Y-155624424D01*
X94642338Y-155726214D01*
X94400615Y-155845839D01*
X94167269Y-155982513D01*
X93943834Y-156135449D01*
X93731844Y-156303861D01*
X93648180Y-156377574D01*
X93519656Y-156498716D01*
X93404171Y-156617560D01*
X93296226Y-156740124D01*
X93190320Y-156872429D01*
X93162625Y-156908920D01*
X93002573Y-157138117D01*
X92861321Y-157374839D01*
X92738652Y-157619571D01*
X92634348Y-157872797D01*
X92548191Y-158135001D01*
X92479962Y-158406669D01*
X92472061Y-158444349D01*
X92427077Y-158713043D01*
X92401568Y-158983734D01*
X92395523Y-159254760D01*
X92408933Y-159524460D01*
X92441786Y-159791174D01*
X92481510Y-159998805D01*
X92502725Y-160089136D01*
X92527252Y-160185222D01*
X92553383Y-160280842D01*
X92579412Y-160369774D01*
X92603629Y-160445799D01*
X92606675Y-160454760D01*
X92631238Y-160521831D01*
X92662247Y-160599542D01*
X92697838Y-160683783D01*
X92736150Y-160770446D01*
X92775316Y-160855423D01*
X92813476Y-160934603D01*
X92848763Y-161003880D01*
X92879316Y-161059144D01*
X92885477Y-161069440D01*
X92912393Y-161113496D01*
X92944511Y-161165976D01*
X92976390Y-161217995D01*
X92988101Y-161237080D01*
X93011871Y-161273897D01*
X93045055Y-161322646D01*
X93084704Y-161379134D01*
X93127868Y-161439165D01*
X93171600Y-161498545D01*
X93176858Y-161505577D01*
X93289806Y-161646934D01*
X93417295Y-161789896D01*
X93554563Y-161929705D01*
X93696855Y-162061601D01*
X93839409Y-162180826D01*
X93894423Y-162223142D01*
X93953434Y-162266740D01*
X94013611Y-162310133D01*
X94070759Y-162350371D01*
X94120683Y-162384506D01*
X94159189Y-162409590D01*
X94162920Y-162411899D01*
X94212189Y-162442114D01*
X94265555Y-162474791D01*
X94314130Y-162504492D01*
X94330560Y-162514523D01*
X94373303Y-162538779D01*
X94430935Y-162568823D01*
X94499527Y-162602778D01*
X94575152Y-162638766D01*
X94653881Y-162674908D01*
X94731784Y-162709326D01*
X94787760Y-162733067D01*
X94973263Y-162802496D01*
X95173159Y-162863300D01*
X95383018Y-162914509D01*
X95598408Y-162955149D01*
X95814899Y-162984249D01*
X96001880Y-162999487D01*
X96071376Y-163003258D01*
X96126538Y-163005889D01*
X96172571Y-163007376D01*
X96214679Y-163007713D01*
X96258065Y-163006897D01*
X96307934Y-163004921D01*
X96369489Y-163001781D01*
X96418440Y-162999103D01*
X96666453Y-162977123D01*
X96911133Y-162938472D01*
X97154594Y-162882613D01*
X97398947Y-162809004D01*
X97646305Y-162717109D01*
X97825600Y-162640154D01*
X97951152Y-162578740D01*
X98085205Y-162504829D01*
X98223117Y-162421422D01*
X98360246Y-162331521D01*
X98491950Y-162238126D01*
X98613586Y-162144238D01*
X98684120Y-162085177D01*
X98884055Y-161898597D01*
X99069909Y-161698787D01*
X99240945Y-161486987D01*
X99396427Y-161264442D01*
X99535618Y-161032393D01*
X99657781Y-160792082D01*
X99762178Y-160544752D01*
X99848074Y-160291645D01*
X99914730Y-160034004D01*
X99922502Y-159997560D01*
X99970295Y-159718121D01*
X99997856Y-159437937D01*
X100003685Y-159215160D01*
X99327697Y-159215160D01*
X99323165Y-159376576D01*
X99312534Y-159534864D01*
X99295871Y-159684418D01*
X99292527Y-159708000D01*
X99253489Y-159912477D01*
X99196413Y-160120207D01*
X99122601Y-160328217D01*
X99033358Y-160533533D01*
X98929987Y-160733183D01*
X98813792Y-160924192D01*
X98686076Y-161103589D01*
X98673421Y-161119882D01*
X98509552Y-161312881D01*
X98331535Y-161491566D01*
X98140291Y-161655253D01*
X97936742Y-161803259D01*
X97721812Y-161934897D01*
X97496421Y-162049486D01*
X97319306Y-162124511D01*
X97184797Y-162172037D01*
X97037913Y-162215558D01*
X96885639Y-162253372D01*
X96734961Y-162283776D01*
X96592865Y-162305068D01*
X96565760Y-162308118D01*
X96517881Y-162313189D01*
X96474537Y-162317816D01*
X96441636Y-162321367D01*
X96428600Y-162322803D01*
X96394098Y-162325205D01*
X96343720Y-162326783D01*
X96281893Y-162327571D01*
X96213043Y-162327605D01*
X96141598Y-162326917D01*
X96071983Y-162325543D01*
X96008626Y-162323517D01*
X95955952Y-162320873D01*
X95930760Y-162318952D01*
X95679221Y-162285687D01*
X95431301Y-162232859D01*
X95188594Y-162160948D01*
X94952691Y-162070433D01*
X94725182Y-161961794D01*
X94697851Y-161947200D01*
X94620455Y-161902671D01*
X94533277Y-161847940D01*
X94441495Y-161786558D01*
X94350289Y-161722073D01*
X94264835Y-161658037D01*
X94198480Y-161604853D01*
X94010706Y-161435257D01*
X93838692Y-161253134D01*
X93682847Y-161059266D01*
X93543576Y-160854434D01*
X93421286Y-160639421D01*
X93316383Y-160415008D01*
X93229276Y-160181977D01*
X93160368Y-159941111D01*
X93110069Y-159693192D01*
X93080075Y-159453945D01*
X93075390Y-159378703D01*
X93073037Y-159289408D01*
X93072893Y-159191427D01*
X93074832Y-159090128D01*
X93078732Y-158990878D01*
X93084470Y-158899045D01*
X93091920Y-158819996D01*
X93095290Y-158793600D01*
X93126345Y-158609267D01*
X93167118Y-158426650D01*
X93216130Y-158251607D01*
X93271899Y-158089994D01*
X93275489Y-158080694D01*
X93374848Y-157852026D01*
X93491060Y-157633053D01*
X93623197Y-157424718D01*
X93770333Y-157227964D01*
X93931539Y-157043733D01*
X94105889Y-156872969D01*
X94292455Y-156716615D01*
X94490311Y-156575613D01*
X94698528Y-156450906D01*
X94916179Y-156343437D01*
X95031600Y-156295141D01*
X95180173Y-156239021D01*
X95317163Y-156192725D01*
X95446815Y-156155465D01*
X95573376Y-156126448D01*
X95701090Y-156104886D01*
X95834203Y-156089987D01*
X95976961Y-156080962D01*
X96133608Y-156077020D01*
X96205080Y-156076691D01*
X96318252Y-156077333D01*
X96415361Y-156079392D01*
X96500639Y-156083234D01*
X96578317Y-156089228D01*
X96652626Y-156097741D01*
X96727798Y-156109143D01*
X96808062Y-156123801D01*
X96855320Y-156133263D01*
X96960225Y-156158066D01*
X97076887Y-156191330D01*
X97199631Y-156231078D01*
X97322781Y-156275330D01*
X97440662Y-156322107D01*
X97547598Y-156369430D01*
X97585655Y-156387880D01*
X97759885Y-156482488D01*
X97932445Y-156590819D01*
X98099509Y-156709995D01*
X98257253Y-156837137D01*
X98401851Y-156969367D01*
X98514596Y-157086991D01*
X98679231Y-157285509D01*
X98826163Y-157492933D01*
X98955061Y-157708559D01*
X99065597Y-157931687D01*
X99157440Y-158161615D01*
X99230262Y-158397641D01*
X99283732Y-158639062D01*
X99304009Y-158768200D01*
X99318187Y-158905366D01*
X99326060Y-159056222D01*
X99327697Y-159215160D01*
X100003685Y-159215160D01*
X100005192Y-159157596D01*
X99992310Y-158877691D01*
X99959218Y-158598811D01*
X99905922Y-158321548D01*
X99902303Y-158305920D01*
X99840805Y-158080283D01*
X99761555Y-157851785D01*
X99666059Y-157624046D01*
X99555825Y-157400686D01*
X99443690Y-157203824D01*
X99316561Y-157011283D01*
X99171750Y-156821270D01*
X99011896Y-156636601D01*
X98839634Y-156460092D01*
X98657602Y-156294558D01*
X98468437Y-156142815D01*
X98409536Y-156099572D01*
X98198924Y-155959375D01*
X97976464Y-155832255D01*
X97745366Y-155719681D01*
X97508841Y-155623122D01*
X97270099Y-155544048D01*
X97094080Y-155497697D01*
X96816926Y-155443259D01*
X96538122Y-155409023D01*
X96258259Y-155394998D01*
X95977928Y-155401189D01*
X95977928Y-155401189D01*
G37*
X95977928Y-155401189D02*
X95697719Y-155427606D01*
X95418222Y-155474253D01*
X95402440Y-155477498D01*
X95144784Y-155541256D01*
X94890906Y-155624424D01*
X94642338Y-155726214D01*
X94400615Y-155845839D01*
X94167269Y-155982513D01*
X93943834Y-156135449D01*
X93731844Y-156303861D01*
X93648180Y-156377574D01*
X93519656Y-156498716D01*
X93404171Y-156617560D01*
X93296226Y-156740124D01*
X93190320Y-156872429D01*
X93162625Y-156908920D01*
X93002573Y-157138117D01*
X92861321Y-157374839D01*
X92738652Y-157619571D01*
X92634348Y-157872797D01*
X92548191Y-158135001D01*
X92479962Y-158406669D01*
X92472061Y-158444349D01*
X92427077Y-158713043D01*
X92401568Y-158983734D01*
X92395523Y-159254760D01*
X92408933Y-159524460D01*
X92441786Y-159791174D01*
X92481510Y-159998805D01*
X92502725Y-160089136D01*
X92527252Y-160185222D01*
X92553383Y-160280842D01*
X92579412Y-160369774D01*
X92603629Y-160445799D01*
X92606675Y-160454760D01*
X92631238Y-160521831D01*
X92662247Y-160599542D01*
X92697838Y-160683783D01*
X92736150Y-160770446D01*
X92775316Y-160855423D01*
X92813476Y-160934603D01*
X92848763Y-161003880D01*
X92879316Y-161059144D01*
X92885477Y-161069440D01*
X92912393Y-161113496D01*
X92944511Y-161165976D01*
X92976390Y-161217995D01*
X92988101Y-161237080D01*
X93011871Y-161273897D01*
X93045055Y-161322646D01*
X93084704Y-161379134D01*
X93127868Y-161439165D01*
X93171600Y-161498545D01*
X93176858Y-161505577D01*
X93289806Y-161646934D01*
X93417295Y-161789896D01*
X93554563Y-161929705D01*
X93696855Y-162061601D01*
X93839409Y-162180826D01*
X93894423Y-162223142D01*
X93953434Y-162266740D01*
X94013611Y-162310133D01*
X94070759Y-162350371D01*
X94120683Y-162384506D01*
X94159189Y-162409590D01*
X94162920Y-162411899D01*
X94212189Y-162442114D01*
X94265555Y-162474791D01*
X94314130Y-162504492D01*
X94330560Y-162514523D01*
X94373303Y-162538779D01*
X94430935Y-162568823D01*
X94499527Y-162602778D01*
X94575152Y-162638766D01*
X94653881Y-162674908D01*
X94731784Y-162709326D01*
X94787760Y-162733067D01*
X94973263Y-162802496D01*
X95173159Y-162863300D01*
X95383018Y-162914509D01*
X95598408Y-162955149D01*
X95814899Y-162984249D01*
X96001880Y-162999487D01*
X96071376Y-163003258D01*
X96126538Y-163005889D01*
X96172571Y-163007376D01*
X96214679Y-163007713D01*
X96258065Y-163006897D01*
X96307934Y-163004921D01*
X96369489Y-163001781D01*
X96418440Y-162999103D01*
X96666453Y-162977123D01*
X96911133Y-162938472D01*
X97154594Y-162882613D01*
X97398947Y-162809004D01*
X97646305Y-162717109D01*
X97825600Y-162640154D01*
X97951152Y-162578740D01*
X98085205Y-162504829D01*
X98223117Y-162421422D01*
X98360246Y-162331521D01*
X98491950Y-162238126D01*
X98613586Y-162144238D01*
X98684120Y-162085177D01*
X98884055Y-161898597D01*
X99069909Y-161698787D01*
X99240945Y-161486987D01*
X99396427Y-161264442D01*
X99535618Y-161032393D01*
X99657781Y-160792082D01*
X99762178Y-160544752D01*
X99848074Y-160291645D01*
X99914730Y-160034004D01*
X99922502Y-159997560D01*
X99970295Y-159718121D01*
X99997856Y-159437937D01*
X100003685Y-159215160D01*
X99327697Y-159215160D01*
X99323165Y-159376576D01*
X99312534Y-159534864D01*
X99295871Y-159684418D01*
X99292527Y-159708000D01*
X99253489Y-159912477D01*
X99196413Y-160120207D01*
X99122601Y-160328217D01*
X99033358Y-160533533D01*
X98929987Y-160733183D01*
X98813792Y-160924192D01*
X98686076Y-161103589D01*
X98673421Y-161119882D01*
X98509552Y-161312881D01*
X98331535Y-161491566D01*
X98140291Y-161655253D01*
X97936742Y-161803259D01*
X97721812Y-161934897D01*
X97496421Y-162049486D01*
X97319306Y-162124511D01*
X97184797Y-162172037D01*
X97037913Y-162215558D01*
X96885639Y-162253372D01*
X96734961Y-162283776D01*
X96592865Y-162305068D01*
X96565760Y-162308118D01*
X96517881Y-162313189D01*
X96474537Y-162317816D01*
X96441636Y-162321367D01*
X96428600Y-162322803D01*
X96394098Y-162325205D01*
X96343720Y-162326783D01*
X96281893Y-162327571D01*
X96213043Y-162327605D01*
X96141598Y-162326917D01*
X96071983Y-162325543D01*
X96008626Y-162323517D01*
X95955952Y-162320873D01*
X95930760Y-162318952D01*
X95679221Y-162285687D01*
X95431301Y-162232859D01*
X95188594Y-162160948D01*
X94952691Y-162070433D01*
X94725182Y-161961794D01*
X94697851Y-161947200D01*
X94620455Y-161902671D01*
X94533277Y-161847940D01*
X94441495Y-161786558D01*
X94350289Y-161722073D01*
X94264835Y-161658037D01*
X94198480Y-161604853D01*
X94010706Y-161435257D01*
X93838692Y-161253134D01*
X93682847Y-161059266D01*
X93543576Y-160854434D01*
X93421286Y-160639421D01*
X93316383Y-160415008D01*
X93229276Y-160181977D01*
X93160368Y-159941111D01*
X93110069Y-159693192D01*
X93080075Y-159453945D01*
X93075390Y-159378703D01*
X93073037Y-159289408D01*
X93072893Y-159191427D01*
X93074832Y-159090128D01*
X93078732Y-158990878D01*
X93084470Y-158899045D01*
X93091920Y-158819996D01*
X93095290Y-158793600D01*
X93126345Y-158609267D01*
X93167118Y-158426650D01*
X93216130Y-158251607D01*
X93271899Y-158089994D01*
X93275489Y-158080694D01*
X93374848Y-157852026D01*
X93491060Y-157633053D01*
X93623197Y-157424718D01*
X93770333Y-157227964D01*
X93931539Y-157043733D01*
X94105889Y-156872969D01*
X94292455Y-156716615D01*
X94490311Y-156575613D01*
X94698528Y-156450906D01*
X94916179Y-156343437D01*
X95031600Y-156295141D01*
X95180173Y-156239021D01*
X95317163Y-156192725D01*
X95446815Y-156155465D01*
X95573376Y-156126448D01*
X95701090Y-156104886D01*
X95834203Y-156089987D01*
X95976961Y-156080962D01*
X96133608Y-156077020D01*
X96205080Y-156076691D01*
X96318252Y-156077333D01*
X96415361Y-156079392D01*
X96500639Y-156083234D01*
X96578317Y-156089228D01*
X96652626Y-156097741D01*
X96727798Y-156109143D01*
X96808062Y-156123801D01*
X96855320Y-156133263D01*
X96960225Y-156158066D01*
X97076887Y-156191330D01*
X97199631Y-156231078D01*
X97322781Y-156275330D01*
X97440662Y-156322107D01*
X97547598Y-156369430D01*
X97585655Y-156387880D01*
X97759885Y-156482488D01*
X97932445Y-156590819D01*
X98099509Y-156709995D01*
X98257253Y-156837137D01*
X98401851Y-156969367D01*
X98514596Y-157086991D01*
X98679231Y-157285509D01*
X98826163Y-157492933D01*
X98955061Y-157708559D01*
X99065597Y-157931687D01*
X99157440Y-158161615D01*
X99230262Y-158397641D01*
X99283732Y-158639062D01*
X99304009Y-158768200D01*
X99318187Y-158905366D01*
X99326060Y-159056222D01*
X99327697Y-159215160D01*
X100003685Y-159215160D01*
X100005192Y-159157596D01*
X99992310Y-158877691D01*
X99959218Y-158598811D01*
X99905922Y-158321548D01*
X99902303Y-158305920D01*
X99840805Y-158080283D01*
X99761555Y-157851785D01*
X99666059Y-157624046D01*
X99555825Y-157400686D01*
X99443690Y-157203824D01*
X99316561Y-157011283D01*
X99171750Y-156821270D01*
X99011896Y-156636601D01*
X98839634Y-156460092D01*
X98657602Y-156294558D01*
X98468437Y-156142815D01*
X98409536Y-156099572D01*
X98198924Y-155959375D01*
X97976464Y-155832255D01*
X97745366Y-155719681D01*
X97508841Y-155623122D01*
X97270099Y-155544048D01*
X97094080Y-155497697D01*
X96816926Y-155443259D01*
X96538122Y-155409023D01*
X96258259Y-155394998D01*
X95977928Y-155401189D01*
G36*
X94503280Y-158854560D02*
X95184000Y-158854560D01*
X95184000Y-158173840D01*
X95524496Y-158173840D01*
X95864991Y-158173839D01*
X95862316Y-158516740D01*
X95859640Y-158859640D01*
X95521820Y-158862316D01*
X95184000Y-158864993D01*
X95184000Y-159535280D01*
X95864720Y-159535280D01*
X95864720Y-160896720D01*
X96535136Y-160896720D01*
X96540360Y-159540360D01*
X96883260Y-159537684D01*
X97226160Y-159535009D01*
X97226160Y-160896720D01*
X97896720Y-160896720D01*
X97896720Y-158512371D01*
X97226160Y-158512371D01*
X97225960Y-158593414D01*
X97225393Y-158667918D01*
X97224505Y-158733462D01*
X97223347Y-158787626D01*
X97221965Y-158827990D01*
X97220410Y-158852135D01*
X97219252Y-158858081D01*
X97207789Y-158859658D01*
X97178437Y-158860949D01*
X97133627Y-158861924D01*
X97075790Y-158862554D01*
X97007356Y-158862808D01*
X96930755Y-158862656D01*
X96876352Y-158862314D01*
X96540360Y-158859640D01*
X96540360Y-158178920D01*
X96883260Y-158176244D01*
X97226160Y-158173569D01*
X97226160Y-158512371D01*
X97896720Y-158512371D01*
X97896720Y-157503280D01*
X94503280Y-157503280D01*
X94503280Y-158854560D01*
X94503280Y-158854560D01*
G37*
X94503280Y-158854560D02*
X95184000Y-158854560D01*
X95184000Y-158173840D01*
X95524496Y-158173840D01*
X95864991Y-158173839D01*
X95862316Y-158516740D01*
X95859640Y-158859640D01*
X95521820Y-158862316D01*
X95184000Y-158864993D01*
X95184000Y-159535280D01*
X95864720Y-159535280D01*
X95864720Y-160896720D01*
X96535136Y-160896720D01*
X96540360Y-159540360D01*
X96883260Y-159537684D01*
X97226160Y-159535009D01*
X97226160Y-160896720D01*
X97896720Y-160896720D01*
X97896720Y-158512371D01*
X97226160Y-158512371D01*
X97225960Y-158593414D01*
X97225393Y-158667918D01*
X97224505Y-158733462D01*
X97223347Y-158787626D01*
X97221965Y-158827990D01*
X97220410Y-158852135D01*
X97219252Y-158858081D01*
X97207789Y-158859658D01*
X97178437Y-158860949D01*
X97133627Y-158861924D01*
X97075790Y-158862554D01*
X97007356Y-158862808D01*
X96930755Y-158862656D01*
X96876352Y-158862314D01*
X96540360Y-158859640D01*
X96540360Y-158178920D01*
X96883260Y-158176244D01*
X97226160Y-158173569D01*
X97226160Y-158512371D01*
X97896720Y-158512371D01*
X97896720Y-157503280D01*
X94503280Y-157503280D01*
X94503280Y-158854560D01*
G36*
X94503280Y-160896720D02*
X95184145Y-160896720D01*
X95181533Y-160218540D01*
X95178920Y-159540360D01*
X94503280Y-159535006D01*
X94503280Y-160896720D01*
X94503280Y-160896720D01*
G37*
X94503280Y-160896720D02*
X95184145Y-160896720D01*
X95181533Y-160218540D01*
X95178920Y-159540360D01*
X94503280Y-159535006D01*
X94503280Y-160896720D01*
D12*
X135850000Y-128850000D03*
X135890000Y-128270000D03*
X130850000Y-129350000D03*
X129540000Y-130810000D03*
D13*
X137159995Y-130810004D02*
X135850005Y-129349996D01*
X129540005Y-130810004D02*
X130849995Y-129349996D01*
D12*
X135850000Y-129350000D03*
X137160000Y-130810000D03*
D13*
X130810001Y-128270000D02*
X130849999Y-128850000D01*
D12*
X130850000Y-128850000D03*
X130810000Y-128270000D03*
D13*
X135889999Y-128270000D02*
X135850001Y-128850000D01*
D14*
X125100000Y-92500000D03*
X120500000Y-91400000D03*
X120500000Y-84400000D03*
D15*
X122800000Y-89800000D03*
X122800000Y-82800000D03*
D14*
X120500000Y-87400000D03*
X122500000Y-92500000D03*
X127100000Y-91400000D03*
X127100000Y-84400000D03*
D15*
X124800000Y-89800000D03*
X124800000Y-82800000D03*
D14*
X127100000Y-87400000D03*
D16*
X91590000Y-86790000D03*
D17*
X92600000Y-84300000D03*
X97600000Y-84300000D03*
D16*
X98600000Y-86790000D03*
D18*
X95100000Y-83090000D03*
D19*
X115400000Y-82400000D03*
D20*
X112860000Y-82400000D03*
X110320000Y-82400000D03*
X107780000Y-82400000D03*
D19*
X86900000Y-107800000D03*
X68300000Y-129700000D03*
D20*
X68300000Y-132240000D03*
X68300000Y-134780000D03*
D19*
X87000000Y-82350000D03*
D20*
X89540000Y-82350000D03*
D19*
X63800000Y-82300000D03*
D20*
X61260000Y-82300000D03*
X63800000Y-84840000D03*
X61260000Y-84840000D03*
X63800000Y-87380000D03*
X61260000Y-87380000D03*
D21*
X67700000Y-123600000D03*
D22*
X65700000Y-123600000D03*
D23*
X83820000Y-82330000D03*
D24*
X83820000Y-84870000D03*
X83820000Y-87410000D03*
X83820000Y-89950000D03*
X83820000Y-92490000D03*
X83820000Y-95030000D03*
X83820000Y-97570000D03*
X83820000Y-100110000D03*
X83820000Y-102650000D03*
X83820000Y-105190000D03*
X83820000Y-107730000D03*
X68580000Y-110270000D03*
X68580000Y-107730000D03*
X68580000Y-105190000D03*
X68580000Y-102650000D03*
X68580000Y-100110000D03*
X68580000Y-97570000D03*
X68580000Y-95030000D03*
X68580000Y-92490000D03*
X68580000Y-89950000D03*
X68580000Y-87410000D03*
X68580000Y-84870000D03*
X83820000Y-110270000D03*
X68580000Y-82330000D03*
D25*
X68500000Y-117950000D03*
X68500000Y-115250000D03*
D22*
X68500000Y-112700000D03*
X68500000Y-120500000D03*
D26*
X112950000Y-106000000D03*
X115650000Y-106000000D03*
D22*
X118200000Y-106000000D03*
X110400000Y-106000000D03*
D26*
X93950000Y-106000000D03*
X96650000Y-106000000D03*
D22*
X99200000Y-106000000D03*
X91400000Y-106000000D03*
D27*
X141089664Y-96825406D03*
X141089664Y-93675406D03*
D22*
X141089664Y-91350406D03*
D21*
X141089664Y-99150406D03*
D27*
X103584375Y-96825000D03*
X103584375Y-93675000D03*
D22*
X103584375Y-91350000D03*
D21*
X103584375Y-99150000D03*
D27*
X105965625Y-96825000D03*
X105965625Y-93675000D03*
D22*
X105965625Y-91350000D03*
D21*
X105965625Y-99150000D03*
D27*
X86915625Y-96825000D03*
X86915625Y-93675000D03*
D22*
X86915625Y-91350000D03*
D21*
X86915625Y-99150000D03*
D27*
X65484375Y-96825000D03*
X65484375Y-93675000D03*
D22*
X65484375Y-91350000D03*
D21*
X65484375Y-99150000D03*
D27*
X96440625Y-146062500D03*
X96440625Y-149212500D03*
D22*
X96440625Y-151537500D03*
D21*
X96440625Y-143737500D03*
D27*
X110343750Y-144065625D03*
X113493750Y-144065625D03*
D22*
X115818750Y-144065625D03*
D21*
X108018750Y-144065625D03*
D27*
X134156250Y-144065625D03*
X137306250Y-144065625D03*
D22*
X139631250Y-144065625D03*
D21*
X131831250Y-144065625D03*
D27*
X65484654Y-132544309D03*
X65484654Y-129394309D03*
D22*
X65484654Y-127069309D03*
D21*
X65484654Y-134869309D03*
D27*
X86915625Y-134925000D03*
X86915625Y-131775000D03*
D22*
X86915625Y-129450000D03*
D21*
X86915625Y-137250000D03*
D27*
X103584375Y-134925000D03*
X103584375Y-131775000D03*
D22*
X103584375Y-129450000D03*
D21*
X103584375Y-137250000D03*
D27*
X105965625Y-134925000D03*
X105965625Y-131775000D03*
D22*
X105965625Y-129450000D03*
D21*
X105965625Y-137250000D03*
D27*
X124718501Y-132544309D03*
X124718501Y-129394309D03*
D22*
X124718501Y-127069309D03*
D21*
X124718501Y-134869309D03*
D27*
X65484375Y-115875000D03*
X65484375Y-112725000D03*
D22*
X65484375Y-110400000D03*
D21*
X65484375Y-118200000D03*
D27*
X86915625Y-115875000D03*
X86915625Y-112725000D03*
D22*
X86915625Y-110400000D03*
D21*
X86915625Y-118200000D03*
D27*
X103584375Y-115875000D03*
X103584375Y-112725000D03*
D22*
X103584375Y-110400000D03*
D21*
X103584375Y-118200000D03*
D27*
X105965625Y-115875000D03*
X105965625Y-112725000D03*
D22*
X105965625Y-110400000D03*
D21*
X105965625Y-118200000D03*
D27*
X125016158Y-115875488D03*
X125016158Y-112725488D03*
D22*
X125016158Y-110400488D03*
D21*
X125016158Y-118200488D03*
D12*
X59650000Y-90750000D03*
X59690000Y-90170000D03*
X54650000Y-91250000D03*
X53340000Y-92710000D03*
D13*
X60959995Y-92710004D02*
X59650005Y-91249996D01*
X53340005Y-92710004D02*
X54649995Y-91249996D01*
D12*
X59650000Y-91250000D03*
X60960000Y-92710000D03*
D13*
X54610001Y-90170000D02*
X54649999Y-90750000D01*
D12*
X54650000Y-90750000D03*
X54610000Y-90170000D03*
D13*
X59689999Y-90170000D02*
X59650001Y-90750000D01*
D12*
X78700000Y-90750000D03*
X78740000Y-90170000D03*
X73700000Y-91250000D03*
X72390000Y-92710000D03*
D13*
X80009995Y-92710004D02*
X78700005Y-91249996D01*
X72390005Y-92710004D02*
X73699995Y-91249996D01*
D12*
X78700000Y-91250000D03*
X80010000Y-92710000D03*
D13*
X73660001Y-90170000D02*
X73699999Y-90750000D01*
D12*
X73700000Y-90750000D03*
X73660000Y-90170000D03*
D13*
X78739999Y-90170000D02*
X78700001Y-90750000D01*
D12*
X97750000Y-90750000D03*
X97790000Y-90170000D03*
X92750000Y-91250000D03*
X91440000Y-92710000D03*
D13*
X99059995Y-92710004D02*
X97750005Y-91249996D01*
X91440005Y-92710004D02*
X92749995Y-91249996D01*
D12*
X97750000Y-91250000D03*
X99060000Y-92710000D03*
D13*
X92710001Y-90170000D02*
X92749999Y-90750000D01*
D12*
X92750000Y-90750000D03*
X92710000Y-90170000D03*
D13*
X97789999Y-90170000D02*
X97750001Y-90750000D01*
D12*
X135850000Y-90750000D03*
X135890000Y-90170000D03*
X130850000Y-91250000D03*
X129540000Y-92710000D03*
D13*
X137159995Y-92710004D02*
X135850005Y-91249996D01*
X129540005Y-92710004D02*
X130849995Y-91249996D01*
D12*
X135850000Y-91250000D03*
X137160000Y-92710000D03*
D13*
X130810001Y-90170000D02*
X130849999Y-90750000D01*
D12*
X130850000Y-90750000D03*
X130810000Y-90170000D03*
D13*
X135889999Y-90170000D02*
X135850001Y-90750000D01*
D12*
X59650000Y-109800000D03*
X59690000Y-109220000D03*
X54650000Y-110300000D03*
X53340000Y-111760000D03*
D13*
X60959995Y-111760004D02*
X59650005Y-110299996D01*
X53340005Y-111760004D02*
X54649995Y-110299996D01*
D12*
X59650000Y-110300000D03*
X60960000Y-111760000D03*
D13*
X54610001Y-109220000D02*
X54649999Y-109800000D01*
D12*
X54650000Y-109800000D03*
X54610000Y-109220000D03*
D13*
X59689999Y-109220000D02*
X59650001Y-109800000D01*
D12*
X78700000Y-109800000D03*
X78740000Y-109220000D03*
X73700000Y-110300000D03*
X72390000Y-111760000D03*
D13*
X80009995Y-111760004D02*
X78700005Y-110299996D01*
X72390005Y-111760004D02*
X73699995Y-110299996D01*
D12*
X78700000Y-110300000D03*
X80010000Y-111760000D03*
D13*
X73660001Y-109220000D02*
X73699999Y-109800000D01*
D12*
X73700000Y-109800000D03*
X73660000Y-109220000D03*
D13*
X78739999Y-109220000D02*
X78700001Y-109800000D01*
D12*
X97750000Y-109800000D03*
X97790000Y-109220000D03*
X92750000Y-110300000D03*
X91440000Y-111760000D03*
D13*
X99059995Y-111760004D02*
X97750005Y-110299996D01*
X91440005Y-111760004D02*
X92749995Y-110299996D01*
D12*
X97750000Y-110300000D03*
X99060000Y-111760000D03*
D13*
X92710001Y-109220000D02*
X92749999Y-109800000D01*
D12*
X92750000Y-109800000D03*
X92710000Y-109220000D03*
D13*
X97789999Y-109220000D02*
X97750001Y-109800000D01*
D12*
X59650000Y-128850000D03*
X59690000Y-128270000D03*
X54650000Y-129350000D03*
X53340000Y-130810000D03*
D13*
X60959995Y-130810004D02*
X59650005Y-129349996D01*
X53340005Y-130810004D02*
X54649995Y-129349996D01*
D12*
X59650000Y-129350000D03*
X60960000Y-130810000D03*
D13*
X54610001Y-128270000D02*
X54649999Y-128850000D01*
D12*
X54650000Y-128850000D03*
X54610000Y-128270000D03*
D13*
X59689999Y-128270000D02*
X59650001Y-128850000D01*
D12*
X78700000Y-128850000D03*
X78740000Y-128270000D03*
X73700000Y-129350000D03*
X72390000Y-130810000D03*
D13*
X80009995Y-130810004D02*
X78700005Y-129349996D01*
X72390005Y-130810004D02*
X73699995Y-129349996D01*
D12*
X78700000Y-129350000D03*
X80010000Y-130810000D03*
D13*
X73660001Y-128270000D02*
X73699999Y-128850000D01*
D12*
X73700000Y-128850000D03*
X73660000Y-128270000D03*
D13*
X78739999Y-128270000D02*
X78700001Y-128850000D01*
D12*
X97750000Y-128850000D03*
X97790000Y-128270000D03*
X92750000Y-129350000D03*
X91440000Y-130810000D03*
D13*
X99059995Y-130810004D02*
X97750005Y-129349996D01*
X91440005Y-130810004D02*
X92749995Y-129349996D01*
D12*
X97750000Y-129350000D03*
X99060000Y-130810000D03*
D13*
X92710001Y-128270000D02*
X92749999Y-128850000D01*
D12*
X92750000Y-128850000D03*
X92710000Y-128270000D03*
D13*
X97789999Y-128270000D02*
X97750001Y-128850000D01*
D12*
X145375000Y-147900000D03*
X145415000Y-147320000D03*
X140375000Y-148400000D03*
X139065000Y-149860000D03*
D13*
X146684995Y-149860004D02*
X145375005Y-148399996D01*
X139065005Y-149860004D02*
X140374995Y-148399996D01*
D12*
X145375000Y-148400000D03*
X146685000Y-149860000D03*
D13*
X140335001Y-147320000D02*
X140374999Y-147900000D01*
D12*
X140375000Y-147900000D03*
X140335000Y-147320000D03*
D13*
X145414999Y-147320000D02*
X145375001Y-147900000D01*
D12*
X118110000Y-154900000D03*
D13*
X118109993Y-154939998D02*
X116800007Y-156400002D01*
D12*
X110490000Y-154900000D03*
X116800000Y-156400000D03*
X116840000Y-157480000D03*
X116800000Y-156900000D03*
X111760000Y-157480000D03*
X111800000Y-156400000D03*
X111800000Y-156900000D03*
D13*
X116839771Y-157480016D02*
X116800229Y-156899984D01*
X111760229Y-157480016D02*
X111799771Y-156899984D01*
X110490007Y-154939998D02*
X111799993Y-156400002D01*
D12*
X137160000Y-154900000D03*
D13*
X137159993Y-154939998D02*
X135850007Y-156400002D01*
D12*
X129540000Y-154900000D03*
X135850000Y-156400000D03*
X135890000Y-157480000D03*
X135850000Y-156900000D03*
X130810000Y-157480000D03*
X130850000Y-156400000D03*
X130850000Y-156900000D03*
D13*
X135889771Y-157480016D02*
X135850229Y-156899984D01*
X130810229Y-157480016D02*
X130849771Y-156899984D01*
X129540007Y-154939998D02*
X130849993Y-156400002D01*
D28*
X56000000Y-84600000D03*
X137600000Y-84600000D03*
X66800000Y-139600000D03*
X123800000Y-139600000D03*
D12*
X116800000Y-90750000D03*
X116840000Y-90170000D03*
X111800000Y-91250000D03*
X110490000Y-92710000D03*
D13*
X118109995Y-92710004D02*
X116800005Y-91249996D01*
X110490005Y-92710004D02*
X111799995Y-91249996D01*
D12*
X116800000Y-91250000D03*
X118110000Y-92710000D03*
D13*
X111760001Y-90170000D02*
X111799999Y-90750000D01*
D12*
X111800000Y-90750000D03*
X111760000Y-90170000D03*
D13*
X116839999Y-90170000D02*
X116800001Y-90750000D01*
D12*
X116800000Y-109800000D03*
X116840000Y-109220000D03*
X111800000Y-110300000D03*
X110490000Y-111760000D03*
D13*
X118109995Y-111760004D02*
X116800005Y-110299996D01*
X110490005Y-111760004D02*
X111799995Y-110299996D01*
D12*
X116800000Y-110300000D03*
X118110000Y-111760000D03*
D13*
X111760001Y-109220000D02*
X111799999Y-109800000D01*
D12*
X111800000Y-109800000D03*
X111760000Y-109220000D03*
D13*
X116839999Y-109220000D02*
X116800001Y-109800000D01*
D12*
X135850000Y-109800000D03*
X135890000Y-109220000D03*
X130850000Y-110300000D03*
X129540000Y-111760000D03*
D13*
X137159995Y-111760004D02*
X135850005Y-110299996D01*
X129540005Y-111760004D02*
X130849995Y-110299996D01*
D12*
X135850000Y-110300000D03*
X137160000Y-111760000D03*
D13*
X130810001Y-109220000D02*
X130849999Y-109800000D01*
D12*
X130850000Y-109800000D03*
X130810000Y-109220000D03*
D13*
X135889999Y-109220000D02*
X135850001Y-109800000D01*
D12*
X116800000Y-128850000D03*
X116840000Y-128270000D03*
X111800000Y-129350000D03*
X110490000Y-130810000D03*
D13*
X118109995Y-130810004D02*
X116800005Y-129349996D01*
X110490005Y-130810004D02*
X111799995Y-129349996D01*
D12*
X116800000Y-129350000D03*
X118110000Y-130810000D03*
D13*
X111760001Y-128270000D02*
X111799999Y-128850000D01*
D12*
X111800000Y-128850000D03*
X111760000Y-128270000D03*
D13*
X116839999Y-128270000D02*
X116800001Y-128850000D01*
D12*
X107275000Y-147900000D03*
X107315000Y-147320000D03*
X102275000Y-148400000D03*
X100965000Y-149860000D03*
D13*
X108584995Y-149860004D02*
X107275005Y-148399996D01*
X100965005Y-149860004D02*
X102274995Y-148399996D01*
D12*
X107275000Y-148400000D03*
X108585000Y-149860000D03*
D13*
X102235001Y-147320000D02*
X102274999Y-147900000D01*
D12*
X102275000Y-147900000D03*
X102235000Y-147320000D03*
D13*
X107314999Y-147320000D02*
X107275001Y-147900000D01*
D12*
X126325000Y-147900000D03*
X126365000Y-147320000D03*
X121325000Y-148400000D03*
X120015000Y-149860000D03*
D13*
X127634995Y-149860004D02*
X126325005Y-148399996D01*
X120015005Y-149860004D02*
X121324995Y-148399996D01*
D12*
X126325000Y-148400000D03*
X127635000Y-149860000D03*
D13*
X121285001Y-147320000D02*
X121324999Y-147900000D01*
D12*
X121325000Y-147900000D03*
X121285000Y-147320000D03*
D13*
X126364999Y-147320000D02*
X126325001Y-147900000D01*
M02*
