G04 #@! TF.FileFunction,Soldermask,Top*
%FSLAX46Y46*%
G04 Gerber Fmt 4.6, Leading zero omitted, Abs format (unit mm)*
G04 Created by KiCad (PCBNEW 4.0.7) date 03/15/18 20:04:12*
%MOMM*%
%LPD*%
G01*
G04 APERTURE LIST*
%ADD10C,0.100000*%
%ADD11C,0.010000*%
%ADD12C,2.900000*%
%ADD13C,2.400000*%
%ADD14O,2.000000X2.400000*%
%ADD15C,1.200000*%
%ADD16C,2.500000*%
%ADD17C,2.150000*%
%ADD18C,1.600000*%
%ADD19R,2.100000X2.100000*%
%ADD20O,2.100000X2.100000*%
%ADD21R,2.000000X2.000000*%
%ADD22C,2.000000*%
%ADD23R,2.152600X2.152600*%
%ADD24C,2.152600*%
%ADD25R,1.600000X1.900000*%
%ADD26R,1.900000X1.600000*%
%ADD27R,1.600000X1.600000*%
%ADD28C,6.800000*%
G04 APERTURE END LIST*
D10*
D11*
G36*
X96422072Y-155401189D02*
X96702281Y-155427606D01*
X96981778Y-155474253D01*
X96997560Y-155477498D01*
X97255216Y-155541256D01*
X97509094Y-155624424D01*
X97757662Y-155726214D01*
X97999385Y-155845839D01*
X98232731Y-155982513D01*
X98456166Y-156135449D01*
X98668156Y-156303861D01*
X98751820Y-156377574D01*
X98880344Y-156498716D01*
X98995829Y-156617560D01*
X99103774Y-156740124D01*
X99209680Y-156872429D01*
X99237375Y-156908920D01*
X99397427Y-157138117D01*
X99538679Y-157374839D01*
X99661348Y-157619571D01*
X99765652Y-157872797D01*
X99851809Y-158135001D01*
X99920038Y-158406669D01*
X99927939Y-158444349D01*
X99972923Y-158713043D01*
X99998432Y-158983734D01*
X100004477Y-159254760D01*
X99991067Y-159524460D01*
X99958214Y-159791174D01*
X99918490Y-159998805D01*
X99897275Y-160089136D01*
X99872748Y-160185222D01*
X99846617Y-160280842D01*
X99820588Y-160369774D01*
X99796371Y-160445799D01*
X99793325Y-160454760D01*
X99768762Y-160521831D01*
X99737753Y-160599542D01*
X99702162Y-160683783D01*
X99663850Y-160770446D01*
X99624684Y-160855423D01*
X99586524Y-160934603D01*
X99551237Y-161003880D01*
X99520684Y-161059144D01*
X99514523Y-161069440D01*
X99487607Y-161113496D01*
X99455489Y-161165976D01*
X99423610Y-161217995D01*
X99411899Y-161237080D01*
X99388129Y-161273897D01*
X99354945Y-161322646D01*
X99315296Y-161379134D01*
X99272132Y-161439165D01*
X99228400Y-161498545D01*
X99223142Y-161505577D01*
X99110194Y-161646934D01*
X98982705Y-161789896D01*
X98845437Y-161929705D01*
X98703145Y-162061601D01*
X98560591Y-162180826D01*
X98505577Y-162223142D01*
X98446566Y-162266740D01*
X98386389Y-162310133D01*
X98329241Y-162350371D01*
X98279317Y-162384506D01*
X98240811Y-162409590D01*
X98237080Y-162411899D01*
X98187811Y-162442114D01*
X98134445Y-162474791D01*
X98085870Y-162504492D01*
X98069440Y-162514523D01*
X98026697Y-162538779D01*
X97969065Y-162568823D01*
X97900473Y-162602778D01*
X97824848Y-162638766D01*
X97746119Y-162674908D01*
X97668216Y-162709326D01*
X97612240Y-162733067D01*
X97426737Y-162802496D01*
X97226841Y-162863300D01*
X97016982Y-162914509D01*
X96801592Y-162955149D01*
X96585101Y-162984249D01*
X96398120Y-162999487D01*
X96328624Y-163003258D01*
X96273462Y-163005889D01*
X96227429Y-163007376D01*
X96185321Y-163007713D01*
X96141935Y-163006897D01*
X96092066Y-163004921D01*
X96030511Y-163001781D01*
X95981560Y-162999103D01*
X95733547Y-162977123D01*
X95488867Y-162938472D01*
X95245406Y-162882613D01*
X95001053Y-162809004D01*
X94753695Y-162717109D01*
X94574400Y-162640154D01*
X94448848Y-162578740D01*
X94314795Y-162504829D01*
X94176883Y-162421422D01*
X94039754Y-162331521D01*
X93908050Y-162238126D01*
X93786414Y-162144238D01*
X93715880Y-162085177D01*
X93515945Y-161898597D01*
X93330091Y-161698787D01*
X93159055Y-161486987D01*
X93003573Y-161264442D01*
X92864382Y-161032393D01*
X92742219Y-160792082D01*
X92637822Y-160544752D01*
X92551926Y-160291645D01*
X92485270Y-160034004D01*
X92477498Y-159997560D01*
X92429705Y-159718121D01*
X92402144Y-159437937D01*
X92396315Y-159215160D01*
X93072303Y-159215160D01*
X93076835Y-159376576D01*
X93087466Y-159534864D01*
X93104129Y-159684418D01*
X93107473Y-159708000D01*
X93146511Y-159912477D01*
X93203587Y-160120207D01*
X93277399Y-160328217D01*
X93366642Y-160533533D01*
X93470013Y-160733183D01*
X93586208Y-160924192D01*
X93713924Y-161103589D01*
X93726579Y-161119882D01*
X93890448Y-161312881D01*
X94068465Y-161491566D01*
X94259709Y-161655253D01*
X94463258Y-161803259D01*
X94678188Y-161934897D01*
X94903579Y-162049486D01*
X95080694Y-162124511D01*
X95215203Y-162172037D01*
X95362087Y-162215558D01*
X95514361Y-162253372D01*
X95665039Y-162283776D01*
X95807135Y-162305068D01*
X95834240Y-162308118D01*
X95882119Y-162313189D01*
X95925463Y-162317816D01*
X95958364Y-162321367D01*
X95971400Y-162322803D01*
X96005902Y-162325205D01*
X96056280Y-162326783D01*
X96118107Y-162327571D01*
X96186957Y-162327605D01*
X96258402Y-162326917D01*
X96328017Y-162325543D01*
X96391374Y-162323517D01*
X96444048Y-162320873D01*
X96469240Y-162318952D01*
X96720779Y-162285687D01*
X96968699Y-162232859D01*
X97211406Y-162160948D01*
X97447309Y-162070433D01*
X97674818Y-161961794D01*
X97702149Y-161947200D01*
X97779545Y-161902671D01*
X97866723Y-161847940D01*
X97958505Y-161786558D01*
X98049711Y-161722073D01*
X98135165Y-161658037D01*
X98201520Y-161604853D01*
X98389294Y-161435257D01*
X98561308Y-161253134D01*
X98717153Y-161059266D01*
X98856424Y-160854434D01*
X98978714Y-160639421D01*
X99083617Y-160415008D01*
X99170724Y-160181977D01*
X99239632Y-159941111D01*
X99289931Y-159693192D01*
X99319925Y-159453945D01*
X99324610Y-159378703D01*
X99326963Y-159289408D01*
X99327107Y-159191427D01*
X99325168Y-159090128D01*
X99321268Y-158990878D01*
X99315530Y-158899045D01*
X99308080Y-158819996D01*
X99304710Y-158793600D01*
X99273655Y-158609267D01*
X99232882Y-158426650D01*
X99183870Y-158251607D01*
X99128101Y-158089994D01*
X99124511Y-158080694D01*
X99025152Y-157852026D01*
X98908940Y-157633053D01*
X98776803Y-157424718D01*
X98629667Y-157227964D01*
X98468461Y-157043733D01*
X98294111Y-156872969D01*
X98107545Y-156716615D01*
X97909689Y-156575613D01*
X97701472Y-156450906D01*
X97483821Y-156343437D01*
X97368400Y-156295141D01*
X97219827Y-156239021D01*
X97082837Y-156192725D01*
X96953185Y-156155465D01*
X96826624Y-156126448D01*
X96698910Y-156104886D01*
X96565797Y-156089987D01*
X96423039Y-156080962D01*
X96266392Y-156077020D01*
X96194920Y-156076691D01*
X96081748Y-156077333D01*
X95984639Y-156079392D01*
X95899361Y-156083234D01*
X95821683Y-156089228D01*
X95747374Y-156097741D01*
X95672202Y-156109143D01*
X95591938Y-156123801D01*
X95544680Y-156133263D01*
X95439775Y-156158066D01*
X95323113Y-156191330D01*
X95200369Y-156231078D01*
X95077219Y-156275330D01*
X94959338Y-156322107D01*
X94852402Y-156369430D01*
X94814345Y-156387880D01*
X94640115Y-156482488D01*
X94467555Y-156590819D01*
X94300491Y-156709995D01*
X94142747Y-156837137D01*
X93998149Y-156969367D01*
X93885404Y-157086991D01*
X93720769Y-157285509D01*
X93573837Y-157492933D01*
X93444939Y-157708559D01*
X93334403Y-157931687D01*
X93242560Y-158161615D01*
X93169738Y-158397641D01*
X93116268Y-158639062D01*
X93095991Y-158768200D01*
X93081813Y-158905366D01*
X93073940Y-159056222D01*
X93072303Y-159215160D01*
X92396315Y-159215160D01*
X92394808Y-159157596D01*
X92407690Y-158877691D01*
X92440782Y-158598811D01*
X92494078Y-158321548D01*
X92497697Y-158305920D01*
X92559195Y-158080283D01*
X92638445Y-157851785D01*
X92733941Y-157624046D01*
X92844175Y-157400686D01*
X92956310Y-157203824D01*
X93083439Y-157011283D01*
X93228250Y-156821270D01*
X93388104Y-156636601D01*
X93560366Y-156460092D01*
X93742398Y-156294558D01*
X93931563Y-156142815D01*
X93990464Y-156099572D01*
X94201076Y-155959375D01*
X94423536Y-155832255D01*
X94654634Y-155719681D01*
X94891159Y-155623122D01*
X95129901Y-155544048D01*
X95305920Y-155497697D01*
X95583074Y-155443259D01*
X95861878Y-155409023D01*
X96141741Y-155394998D01*
X96422072Y-155401189D01*
X96422072Y-155401189D01*
G37*
X96422072Y-155401189D02*
X96702281Y-155427606D01*
X96981778Y-155474253D01*
X96997560Y-155477498D01*
X97255216Y-155541256D01*
X97509094Y-155624424D01*
X97757662Y-155726214D01*
X97999385Y-155845839D01*
X98232731Y-155982513D01*
X98456166Y-156135449D01*
X98668156Y-156303861D01*
X98751820Y-156377574D01*
X98880344Y-156498716D01*
X98995829Y-156617560D01*
X99103774Y-156740124D01*
X99209680Y-156872429D01*
X99237375Y-156908920D01*
X99397427Y-157138117D01*
X99538679Y-157374839D01*
X99661348Y-157619571D01*
X99765652Y-157872797D01*
X99851809Y-158135001D01*
X99920038Y-158406669D01*
X99927939Y-158444349D01*
X99972923Y-158713043D01*
X99998432Y-158983734D01*
X100004477Y-159254760D01*
X99991067Y-159524460D01*
X99958214Y-159791174D01*
X99918490Y-159998805D01*
X99897275Y-160089136D01*
X99872748Y-160185222D01*
X99846617Y-160280842D01*
X99820588Y-160369774D01*
X99796371Y-160445799D01*
X99793325Y-160454760D01*
X99768762Y-160521831D01*
X99737753Y-160599542D01*
X99702162Y-160683783D01*
X99663850Y-160770446D01*
X99624684Y-160855423D01*
X99586524Y-160934603D01*
X99551237Y-161003880D01*
X99520684Y-161059144D01*
X99514523Y-161069440D01*
X99487607Y-161113496D01*
X99455489Y-161165976D01*
X99423610Y-161217995D01*
X99411899Y-161237080D01*
X99388129Y-161273897D01*
X99354945Y-161322646D01*
X99315296Y-161379134D01*
X99272132Y-161439165D01*
X99228400Y-161498545D01*
X99223142Y-161505577D01*
X99110194Y-161646934D01*
X98982705Y-161789896D01*
X98845437Y-161929705D01*
X98703145Y-162061601D01*
X98560591Y-162180826D01*
X98505577Y-162223142D01*
X98446566Y-162266740D01*
X98386389Y-162310133D01*
X98329241Y-162350371D01*
X98279317Y-162384506D01*
X98240811Y-162409590D01*
X98237080Y-162411899D01*
X98187811Y-162442114D01*
X98134445Y-162474791D01*
X98085870Y-162504492D01*
X98069440Y-162514523D01*
X98026697Y-162538779D01*
X97969065Y-162568823D01*
X97900473Y-162602778D01*
X97824848Y-162638766D01*
X97746119Y-162674908D01*
X97668216Y-162709326D01*
X97612240Y-162733067D01*
X97426737Y-162802496D01*
X97226841Y-162863300D01*
X97016982Y-162914509D01*
X96801592Y-162955149D01*
X96585101Y-162984249D01*
X96398120Y-162999487D01*
X96328624Y-163003258D01*
X96273462Y-163005889D01*
X96227429Y-163007376D01*
X96185321Y-163007713D01*
X96141935Y-163006897D01*
X96092066Y-163004921D01*
X96030511Y-163001781D01*
X95981560Y-162999103D01*
X95733547Y-162977123D01*
X95488867Y-162938472D01*
X95245406Y-162882613D01*
X95001053Y-162809004D01*
X94753695Y-162717109D01*
X94574400Y-162640154D01*
X94448848Y-162578740D01*
X94314795Y-162504829D01*
X94176883Y-162421422D01*
X94039754Y-162331521D01*
X93908050Y-162238126D01*
X93786414Y-162144238D01*
X93715880Y-162085177D01*
X93515945Y-161898597D01*
X93330091Y-161698787D01*
X93159055Y-161486987D01*
X93003573Y-161264442D01*
X92864382Y-161032393D01*
X92742219Y-160792082D01*
X92637822Y-160544752D01*
X92551926Y-160291645D01*
X92485270Y-160034004D01*
X92477498Y-159997560D01*
X92429705Y-159718121D01*
X92402144Y-159437937D01*
X92396315Y-159215160D01*
X93072303Y-159215160D01*
X93076835Y-159376576D01*
X93087466Y-159534864D01*
X93104129Y-159684418D01*
X93107473Y-159708000D01*
X93146511Y-159912477D01*
X93203587Y-160120207D01*
X93277399Y-160328217D01*
X93366642Y-160533533D01*
X93470013Y-160733183D01*
X93586208Y-160924192D01*
X93713924Y-161103589D01*
X93726579Y-161119882D01*
X93890448Y-161312881D01*
X94068465Y-161491566D01*
X94259709Y-161655253D01*
X94463258Y-161803259D01*
X94678188Y-161934897D01*
X94903579Y-162049486D01*
X95080694Y-162124511D01*
X95215203Y-162172037D01*
X95362087Y-162215558D01*
X95514361Y-162253372D01*
X95665039Y-162283776D01*
X95807135Y-162305068D01*
X95834240Y-162308118D01*
X95882119Y-162313189D01*
X95925463Y-162317816D01*
X95958364Y-162321367D01*
X95971400Y-162322803D01*
X96005902Y-162325205D01*
X96056280Y-162326783D01*
X96118107Y-162327571D01*
X96186957Y-162327605D01*
X96258402Y-162326917D01*
X96328017Y-162325543D01*
X96391374Y-162323517D01*
X96444048Y-162320873D01*
X96469240Y-162318952D01*
X96720779Y-162285687D01*
X96968699Y-162232859D01*
X97211406Y-162160948D01*
X97447309Y-162070433D01*
X97674818Y-161961794D01*
X97702149Y-161947200D01*
X97779545Y-161902671D01*
X97866723Y-161847940D01*
X97958505Y-161786558D01*
X98049711Y-161722073D01*
X98135165Y-161658037D01*
X98201520Y-161604853D01*
X98389294Y-161435257D01*
X98561308Y-161253134D01*
X98717153Y-161059266D01*
X98856424Y-160854434D01*
X98978714Y-160639421D01*
X99083617Y-160415008D01*
X99170724Y-160181977D01*
X99239632Y-159941111D01*
X99289931Y-159693192D01*
X99319925Y-159453945D01*
X99324610Y-159378703D01*
X99326963Y-159289408D01*
X99327107Y-159191427D01*
X99325168Y-159090128D01*
X99321268Y-158990878D01*
X99315530Y-158899045D01*
X99308080Y-158819996D01*
X99304710Y-158793600D01*
X99273655Y-158609267D01*
X99232882Y-158426650D01*
X99183870Y-158251607D01*
X99128101Y-158089994D01*
X99124511Y-158080694D01*
X99025152Y-157852026D01*
X98908940Y-157633053D01*
X98776803Y-157424718D01*
X98629667Y-157227964D01*
X98468461Y-157043733D01*
X98294111Y-156872969D01*
X98107545Y-156716615D01*
X97909689Y-156575613D01*
X97701472Y-156450906D01*
X97483821Y-156343437D01*
X97368400Y-156295141D01*
X97219827Y-156239021D01*
X97082837Y-156192725D01*
X96953185Y-156155465D01*
X96826624Y-156126448D01*
X96698910Y-156104886D01*
X96565797Y-156089987D01*
X96423039Y-156080962D01*
X96266392Y-156077020D01*
X96194920Y-156076691D01*
X96081748Y-156077333D01*
X95984639Y-156079392D01*
X95899361Y-156083234D01*
X95821683Y-156089228D01*
X95747374Y-156097741D01*
X95672202Y-156109143D01*
X95591938Y-156123801D01*
X95544680Y-156133263D01*
X95439775Y-156158066D01*
X95323113Y-156191330D01*
X95200369Y-156231078D01*
X95077219Y-156275330D01*
X94959338Y-156322107D01*
X94852402Y-156369430D01*
X94814345Y-156387880D01*
X94640115Y-156482488D01*
X94467555Y-156590819D01*
X94300491Y-156709995D01*
X94142747Y-156837137D01*
X93998149Y-156969367D01*
X93885404Y-157086991D01*
X93720769Y-157285509D01*
X93573837Y-157492933D01*
X93444939Y-157708559D01*
X93334403Y-157931687D01*
X93242560Y-158161615D01*
X93169738Y-158397641D01*
X93116268Y-158639062D01*
X93095991Y-158768200D01*
X93081813Y-158905366D01*
X93073940Y-159056222D01*
X93072303Y-159215160D01*
X92396315Y-159215160D01*
X92394808Y-159157596D01*
X92407690Y-158877691D01*
X92440782Y-158598811D01*
X92494078Y-158321548D01*
X92497697Y-158305920D01*
X92559195Y-158080283D01*
X92638445Y-157851785D01*
X92733941Y-157624046D01*
X92844175Y-157400686D01*
X92956310Y-157203824D01*
X93083439Y-157011283D01*
X93228250Y-156821270D01*
X93388104Y-156636601D01*
X93560366Y-156460092D01*
X93742398Y-156294558D01*
X93931563Y-156142815D01*
X93990464Y-156099572D01*
X94201076Y-155959375D01*
X94423536Y-155832255D01*
X94654634Y-155719681D01*
X94891159Y-155623122D01*
X95129901Y-155544048D01*
X95305920Y-155497697D01*
X95583074Y-155443259D01*
X95861878Y-155409023D01*
X96141741Y-155394998D01*
X96422072Y-155401189D01*
G36*
X97896720Y-158854560D02*
X97216000Y-158854560D01*
X97216000Y-158173840D01*
X96875504Y-158173840D01*
X96535009Y-158173839D01*
X96537684Y-158516740D01*
X96540360Y-158859640D01*
X96878180Y-158862316D01*
X97216000Y-158864993D01*
X97216000Y-159535280D01*
X96535280Y-159535280D01*
X96535280Y-160896720D01*
X95864864Y-160896720D01*
X95859640Y-159540360D01*
X95516740Y-159537684D01*
X95173840Y-159535009D01*
X95173840Y-160896720D01*
X94503280Y-160896720D01*
X94503280Y-158512371D01*
X95173840Y-158512371D01*
X95174040Y-158593414D01*
X95174607Y-158667918D01*
X95175495Y-158733462D01*
X95176653Y-158787626D01*
X95178035Y-158827990D01*
X95179590Y-158852135D01*
X95180748Y-158858081D01*
X95192211Y-158859658D01*
X95221563Y-158860949D01*
X95266373Y-158861924D01*
X95324210Y-158862554D01*
X95392644Y-158862808D01*
X95469245Y-158862656D01*
X95523648Y-158862314D01*
X95859640Y-158859640D01*
X95859640Y-158178920D01*
X95516740Y-158176244D01*
X95173840Y-158173569D01*
X95173840Y-158512371D01*
X94503280Y-158512371D01*
X94503280Y-157503280D01*
X97896720Y-157503280D01*
X97896720Y-158854560D01*
X97896720Y-158854560D01*
G37*
X97896720Y-158854560D02*
X97216000Y-158854560D01*
X97216000Y-158173840D01*
X96875504Y-158173840D01*
X96535009Y-158173839D01*
X96537684Y-158516740D01*
X96540360Y-158859640D01*
X96878180Y-158862316D01*
X97216000Y-158864993D01*
X97216000Y-159535280D01*
X96535280Y-159535280D01*
X96535280Y-160896720D01*
X95864864Y-160896720D01*
X95859640Y-159540360D01*
X95516740Y-159537684D01*
X95173840Y-159535009D01*
X95173840Y-160896720D01*
X94503280Y-160896720D01*
X94503280Y-158512371D01*
X95173840Y-158512371D01*
X95174040Y-158593414D01*
X95174607Y-158667918D01*
X95175495Y-158733462D01*
X95176653Y-158787626D01*
X95178035Y-158827990D01*
X95179590Y-158852135D01*
X95180748Y-158858081D01*
X95192211Y-158859658D01*
X95221563Y-158860949D01*
X95266373Y-158861924D01*
X95324210Y-158862554D01*
X95392644Y-158862808D01*
X95469245Y-158862656D01*
X95523648Y-158862314D01*
X95859640Y-158859640D01*
X95859640Y-158178920D01*
X95516740Y-158176244D01*
X95173840Y-158173569D01*
X95173840Y-158512371D01*
X94503280Y-158512371D01*
X94503280Y-157503280D01*
X97896720Y-157503280D01*
X97896720Y-158854560D01*
G36*
X97896720Y-160896720D02*
X97215855Y-160896720D01*
X97218467Y-160218540D01*
X97221080Y-159540360D01*
X97896720Y-159535006D01*
X97896720Y-160896720D01*
X97896720Y-160896720D01*
G37*
X97896720Y-160896720D02*
X97215855Y-160896720D01*
X97218467Y-160218540D01*
X97221080Y-159540360D01*
X97896720Y-159535006D01*
X97896720Y-160896720D01*
D12*
X135889999Y-128270000D02*
X135850001Y-128850000D01*
D13*
X135850000Y-128850000D03*
X135890000Y-128270000D03*
X130850000Y-129350000D03*
X129540000Y-130810000D03*
X135850000Y-129350000D03*
X137160000Y-130810000D03*
X130850000Y-128850000D03*
X130810000Y-128270000D03*
D12*
X129540005Y-130810004D02*
X130849995Y-129349996D01*
X130810001Y-128270000D02*
X130849999Y-128850000D01*
X137159995Y-130810004D02*
X135850005Y-129349996D01*
D14*
X125100000Y-92500000D03*
X120500000Y-91400000D03*
X120500000Y-84400000D03*
D15*
X122800000Y-89800000D03*
X122800000Y-82800000D03*
D14*
X120500000Y-87400000D03*
X122500000Y-92500000D03*
X127100000Y-91400000D03*
X127100000Y-84400000D03*
D15*
X124800000Y-89800000D03*
X124800000Y-82800000D03*
D14*
X127100000Y-87400000D03*
D16*
X91590000Y-86790000D03*
D17*
X92600000Y-84300000D03*
X97600000Y-84300000D03*
D16*
X98600000Y-86790000D03*
D18*
X95100000Y-83090000D03*
D19*
X115400000Y-82400000D03*
D20*
X112860000Y-82400000D03*
X110320000Y-82400000D03*
X107780000Y-82400000D03*
D19*
X86900000Y-107800000D03*
X68300000Y-129700000D03*
D20*
X68300000Y-132240000D03*
X68300000Y-134780000D03*
D19*
X87000000Y-82350000D03*
D20*
X89540000Y-82350000D03*
D19*
X63800000Y-82300000D03*
D20*
X61260000Y-82300000D03*
X63800000Y-84840000D03*
X61260000Y-84840000D03*
X63800000Y-87380000D03*
X61260000Y-87380000D03*
D21*
X67700000Y-123600000D03*
D22*
X65700000Y-123600000D03*
D23*
X83820000Y-82330000D03*
D24*
X83820000Y-84870000D03*
X83820000Y-87410000D03*
X83820000Y-89950000D03*
X83820000Y-92490000D03*
X83820000Y-95030000D03*
X83820000Y-97570000D03*
X83820000Y-100110000D03*
X83820000Y-102650000D03*
X83820000Y-105190000D03*
X83820000Y-107730000D03*
X68580000Y-110270000D03*
X68580000Y-107730000D03*
X68580000Y-105190000D03*
X68580000Y-102650000D03*
X68580000Y-100110000D03*
X68580000Y-97570000D03*
X68580000Y-95030000D03*
X68580000Y-92490000D03*
X68580000Y-89950000D03*
X68580000Y-87410000D03*
X68580000Y-84870000D03*
X83820000Y-110270000D03*
X68580000Y-82330000D03*
D25*
X68500000Y-115250000D03*
X68500000Y-117950000D03*
D22*
X68500000Y-112700000D03*
X68500000Y-120500000D03*
D26*
X115650000Y-106000000D03*
X112950000Y-106000000D03*
D22*
X118200000Y-106000000D03*
X110400000Y-106000000D03*
D26*
X96650000Y-106000000D03*
X93950000Y-106000000D03*
D22*
X99200000Y-106000000D03*
X91400000Y-106000000D03*
D27*
X141089664Y-93675406D03*
X141089664Y-96825406D03*
D22*
X141089664Y-91350406D03*
D21*
X141089664Y-99150406D03*
D27*
X103584375Y-93675000D03*
X103584375Y-96825000D03*
D22*
X103584375Y-91350000D03*
D21*
X103584375Y-99150000D03*
D27*
X105965625Y-93675000D03*
X105965625Y-96825000D03*
D22*
X105965625Y-91350000D03*
D21*
X105965625Y-99150000D03*
D27*
X86915625Y-93675000D03*
X86915625Y-96825000D03*
D22*
X86915625Y-91350000D03*
D21*
X86915625Y-99150000D03*
D27*
X65484375Y-93675000D03*
X65484375Y-96825000D03*
D22*
X65484375Y-91350000D03*
D21*
X65484375Y-99150000D03*
D27*
X96440625Y-149212500D03*
X96440625Y-146062500D03*
D22*
X96440625Y-151537500D03*
D21*
X96440625Y-143737500D03*
D27*
X113493750Y-144065625D03*
X110343750Y-144065625D03*
D22*
X115818750Y-144065625D03*
D21*
X108018750Y-144065625D03*
D27*
X137306250Y-144065625D03*
X134156250Y-144065625D03*
D22*
X139631250Y-144065625D03*
D21*
X131831250Y-144065625D03*
D27*
X65484654Y-129394309D03*
X65484654Y-132544309D03*
D22*
X65484654Y-127069309D03*
D21*
X65484654Y-134869309D03*
D27*
X86915625Y-131775000D03*
X86915625Y-134925000D03*
D22*
X86915625Y-129450000D03*
D21*
X86915625Y-137250000D03*
D27*
X103584375Y-131775000D03*
X103584375Y-134925000D03*
D22*
X103584375Y-129450000D03*
D21*
X103584375Y-137250000D03*
D27*
X105965625Y-131775000D03*
X105965625Y-134925000D03*
D22*
X105965625Y-129450000D03*
D21*
X105965625Y-137250000D03*
D27*
X124718501Y-129394309D03*
X124718501Y-132544309D03*
D22*
X124718501Y-127069309D03*
D21*
X124718501Y-134869309D03*
D27*
X65484375Y-112725000D03*
X65484375Y-115875000D03*
D22*
X65484375Y-110400000D03*
D21*
X65484375Y-118200000D03*
D27*
X86915625Y-112725000D03*
X86915625Y-115875000D03*
D22*
X86915625Y-110400000D03*
D21*
X86915625Y-118200000D03*
D27*
X103584375Y-112725000D03*
X103584375Y-115875000D03*
D22*
X103584375Y-110400000D03*
D21*
X103584375Y-118200000D03*
D27*
X105965625Y-112725000D03*
X105965625Y-115875000D03*
D22*
X105965625Y-110400000D03*
D21*
X105965625Y-118200000D03*
D27*
X125016158Y-112725488D03*
X125016158Y-115875488D03*
D22*
X125016158Y-110400488D03*
D21*
X125016158Y-118200488D03*
D12*
X59689999Y-90170000D02*
X59650001Y-90750000D01*
D13*
X59650000Y-90750000D03*
X59690000Y-90170000D03*
X54650000Y-91250000D03*
X53340000Y-92710000D03*
X59650000Y-91250000D03*
X60960000Y-92710000D03*
X54650000Y-90750000D03*
X54610000Y-90170000D03*
D12*
X53340005Y-92710004D02*
X54649995Y-91249996D01*
X54610001Y-90170000D02*
X54649999Y-90750000D01*
X60959995Y-92710004D02*
X59650005Y-91249996D01*
X78739999Y-90170000D02*
X78700001Y-90750000D01*
D13*
X78700000Y-90750000D03*
X78740000Y-90170000D03*
X73700000Y-91250000D03*
X72390000Y-92710000D03*
X78700000Y-91250000D03*
X80010000Y-92710000D03*
X73700000Y-90750000D03*
X73660000Y-90170000D03*
D12*
X72390005Y-92710004D02*
X73699995Y-91249996D01*
X73660001Y-90170000D02*
X73699999Y-90750000D01*
X80009995Y-92710004D02*
X78700005Y-91249996D01*
X97789999Y-90170000D02*
X97750001Y-90750000D01*
D13*
X97750000Y-90750000D03*
X97790000Y-90170000D03*
X92750000Y-91250000D03*
X91440000Y-92710000D03*
X97750000Y-91250000D03*
X99060000Y-92710000D03*
X92750000Y-90750000D03*
X92710000Y-90170000D03*
D12*
X91440005Y-92710004D02*
X92749995Y-91249996D01*
X92710001Y-90170000D02*
X92749999Y-90750000D01*
X99059995Y-92710004D02*
X97750005Y-91249996D01*
X135889999Y-90170000D02*
X135850001Y-90750000D01*
D13*
X135850000Y-90750000D03*
X135890000Y-90170000D03*
X130850000Y-91250000D03*
X129540000Y-92710000D03*
X135850000Y-91250000D03*
X137160000Y-92710000D03*
X130850000Y-90750000D03*
X130810000Y-90170000D03*
D12*
X129540005Y-92710004D02*
X130849995Y-91249996D01*
X130810001Y-90170000D02*
X130849999Y-90750000D01*
X137159995Y-92710004D02*
X135850005Y-91249996D01*
X59689999Y-109220000D02*
X59650001Y-109800000D01*
D13*
X59650000Y-109800000D03*
X59690000Y-109220000D03*
X54650000Y-110300000D03*
X53340000Y-111760000D03*
X59650000Y-110300000D03*
X60960000Y-111760000D03*
X54650000Y-109800000D03*
X54610000Y-109220000D03*
D12*
X53340005Y-111760004D02*
X54649995Y-110299996D01*
X54610001Y-109220000D02*
X54649999Y-109800000D01*
X60959995Y-111760004D02*
X59650005Y-110299996D01*
X78739999Y-109220000D02*
X78700001Y-109800000D01*
D13*
X78700000Y-109800000D03*
X78740000Y-109220000D03*
X73700000Y-110300000D03*
X72390000Y-111760000D03*
X78700000Y-110300000D03*
X80010000Y-111760000D03*
X73700000Y-109800000D03*
X73660000Y-109220000D03*
D12*
X72390005Y-111760004D02*
X73699995Y-110299996D01*
X73660001Y-109220000D02*
X73699999Y-109800000D01*
X80009995Y-111760004D02*
X78700005Y-110299996D01*
X97789999Y-109220000D02*
X97750001Y-109800000D01*
D13*
X97750000Y-109800000D03*
X97790000Y-109220000D03*
X92750000Y-110300000D03*
X91440000Y-111760000D03*
X97750000Y-110300000D03*
X99060000Y-111760000D03*
X92750000Y-109800000D03*
X92710000Y-109220000D03*
D12*
X91440005Y-111760004D02*
X92749995Y-110299996D01*
X92710001Y-109220000D02*
X92749999Y-109800000D01*
X99059995Y-111760004D02*
X97750005Y-110299996D01*
X59689999Y-128270000D02*
X59650001Y-128850000D01*
D13*
X59650000Y-128850000D03*
X59690000Y-128270000D03*
X54650000Y-129350000D03*
X53340000Y-130810000D03*
X59650000Y-129350000D03*
X60960000Y-130810000D03*
X54650000Y-128850000D03*
X54610000Y-128270000D03*
D12*
X53340005Y-130810004D02*
X54649995Y-129349996D01*
X54610001Y-128270000D02*
X54649999Y-128850000D01*
X60959995Y-130810004D02*
X59650005Y-129349996D01*
X78739999Y-128270000D02*
X78700001Y-128850000D01*
D13*
X78700000Y-128850000D03*
X78740000Y-128270000D03*
X73700000Y-129350000D03*
X72390000Y-130810000D03*
X78700000Y-129350000D03*
X80010000Y-130810000D03*
X73700000Y-128850000D03*
X73660000Y-128270000D03*
D12*
X72390005Y-130810004D02*
X73699995Y-129349996D01*
X73660001Y-128270000D02*
X73699999Y-128850000D01*
X80009995Y-130810004D02*
X78700005Y-129349996D01*
X97789999Y-128270000D02*
X97750001Y-128850000D01*
D13*
X97750000Y-128850000D03*
X97790000Y-128270000D03*
X92750000Y-129350000D03*
X91440000Y-130810000D03*
X97750000Y-129350000D03*
X99060000Y-130810000D03*
X92750000Y-128850000D03*
X92710000Y-128270000D03*
D12*
X91440005Y-130810004D02*
X92749995Y-129349996D01*
X92710001Y-128270000D02*
X92749999Y-128850000D01*
X99059995Y-130810004D02*
X97750005Y-129349996D01*
X145414999Y-147320000D02*
X145375001Y-147900000D01*
D13*
X145375000Y-147900000D03*
X145415000Y-147320000D03*
X140375000Y-148400000D03*
X139065000Y-149860000D03*
X145375000Y-148400000D03*
X146685000Y-149860000D03*
X140375000Y-147900000D03*
X140335000Y-147320000D03*
D12*
X139065005Y-149860004D02*
X140374995Y-148399996D01*
X140335001Y-147320000D02*
X140374999Y-147900000D01*
X146684995Y-149860004D02*
X145375005Y-148399996D01*
D13*
X118110000Y-154900000D03*
D12*
X110490007Y-154939998D02*
X111799993Y-156400002D01*
X111760229Y-157480016D02*
X111799771Y-156899984D01*
D13*
X110490000Y-154900000D03*
X116800000Y-156400000D03*
X116840000Y-157480000D03*
X116800000Y-156900000D03*
X111760000Y-157480000D03*
X111800000Y-156400000D03*
X111800000Y-156900000D03*
D12*
X118109993Y-154939998D02*
X116800007Y-156400002D01*
X116839771Y-157480016D02*
X116800229Y-156899984D01*
D13*
X137160000Y-154900000D03*
D12*
X129540007Y-154939998D02*
X130849993Y-156400002D01*
X130810229Y-157480016D02*
X130849771Y-156899984D01*
D13*
X129540000Y-154900000D03*
X135850000Y-156400000D03*
X135890000Y-157480000D03*
X135850000Y-156900000D03*
X130810000Y-157480000D03*
X130850000Y-156400000D03*
X130850000Y-156900000D03*
D12*
X137159993Y-154939998D02*
X135850007Y-156400002D01*
X135889771Y-157480016D02*
X135850229Y-156899984D01*
D28*
X56000000Y-84600000D03*
X137600000Y-84600000D03*
X66800000Y-139600000D03*
X123800000Y-139600000D03*
D12*
X116839999Y-90170000D02*
X116800001Y-90750000D01*
D13*
X116800000Y-90750000D03*
X116840000Y-90170000D03*
X111800000Y-91250000D03*
X110490000Y-92710000D03*
X116800000Y-91250000D03*
X118110000Y-92710000D03*
X111800000Y-90750000D03*
X111760000Y-90170000D03*
D12*
X110490005Y-92710004D02*
X111799995Y-91249996D01*
X111760001Y-90170000D02*
X111799999Y-90750000D01*
X118109995Y-92710004D02*
X116800005Y-91249996D01*
X116839999Y-109220000D02*
X116800001Y-109800000D01*
D13*
X116800000Y-109800000D03*
X116840000Y-109220000D03*
X111800000Y-110300000D03*
X110490000Y-111760000D03*
X116800000Y-110300000D03*
X118110000Y-111760000D03*
X111800000Y-109800000D03*
X111760000Y-109220000D03*
D12*
X110490005Y-111760004D02*
X111799995Y-110299996D01*
X111760001Y-109220000D02*
X111799999Y-109800000D01*
X118109995Y-111760004D02*
X116800005Y-110299996D01*
X135889999Y-109220000D02*
X135850001Y-109800000D01*
D13*
X135850000Y-109800000D03*
X135890000Y-109220000D03*
X130850000Y-110300000D03*
X129540000Y-111760000D03*
X135850000Y-110300000D03*
X137160000Y-111760000D03*
X130850000Y-109800000D03*
X130810000Y-109220000D03*
D12*
X129540005Y-111760004D02*
X130849995Y-110299996D01*
X130810001Y-109220000D02*
X130849999Y-109800000D01*
X137159995Y-111760004D02*
X135850005Y-110299996D01*
X116839999Y-128270000D02*
X116800001Y-128850000D01*
D13*
X116800000Y-128850000D03*
X116840000Y-128270000D03*
X111800000Y-129350000D03*
X110490000Y-130810000D03*
X116800000Y-129350000D03*
X118110000Y-130810000D03*
X111800000Y-128850000D03*
X111760000Y-128270000D03*
D12*
X110490005Y-130810004D02*
X111799995Y-129349996D01*
X111760001Y-128270000D02*
X111799999Y-128850000D01*
X118109995Y-130810004D02*
X116800005Y-129349996D01*
X107314999Y-147320000D02*
X107275001Y-147900000D01*
D13*
X107275000Y-147900000D03*
X107315000Y-147320000D03*
X102275000Y-148400000D03*
X100965000Y-149860000D03*
X107275000Y-148400000D03*
X108585000Y-149860000D03*
X102275000Y-147900000D03*
X102235000Y-147320000D03*
D12*
X100965005Y-149860004D02*
X102274995Y-148399996D01*
X102235001Y-147320000D02*
X102274999Y-147900000D01*
X108584995Y-149860004D02*
X107275005Y-148399996D01*
X126364999Y-147320000D02*
X126325001Y-147900000D01*
D13*
X126325000Y-147900000D03*
X126365000Y-147320000D03*
X121325000Y-148400000D03*
X120015000Y-149860000D03*
X126325000Y-148400000D03*
X127635000Y-149860000D03*
X121325000Y-147900000D03*
X121285000Y-147320000D03*
D12*
X120015005Y-149860004D02*
X121324995Y-148399996D01*
X121285001Y-147320000D02*
X121324999Y-147900000D01*
X127634995Y-149860004D02*
X126325005Y-148399996D01*
M02*
