M48
INCH,TZ
T1C0.031
T2C0.047
T3C0.071
T4C0.120
T5C0.157
%
G90
G05
T1
X4.8346Y-3.2598
X4.8346Y-3.5354
X4.9134Y-3.2598
X4.9134Y-3.5354
T2
X3.7441Y-3.2713
T3
X2.05Y-3.75
X2.05Y-4.5
X2.05Y-5.25
X2.45Y-3.75
X2.45Y-4.5
X2.45Y-5.25
X2.8Y-3.75
X2.8Y-4.5
X2.8Y-5.25
X3.2Y-3.75
X3.2Y-4.5
X3.2Y-5.25
X3.55Y-3.75
X3.55Y-4.5
X3.55Y-5.25
X3.925Y-6.
X3.95Y-3.75
X3.95Y-4.5
X3.95Y-5.25
X4.3Y-3.75
X4.3Y-4.5
X4.3Y-5.25
X4.3Y-6.
X4.325Y-6.
X4.675Y-6.
X4.7Y-3.75
X4.7Y-4.5
X4.7Y-5.25
X4.7Y-6.
X5.05Y-3.75
X5.05Y-4.5
X5.05Y-5.25
X5.05Y-6.
X5.075Y-6.
X5.425Y-6.
X5.45Y-3.75
X5.45Y-4.5
X5.45Y-5.25
X5.45Y-6.
X5.825Y-6.
T4
X4.03Y-6.275
X4.78Y-6.275
X4.97Y-6.275
X5.72Y-6.275
T5
X2.25Y-3.75
X2.25Y-4.5
X2.25Y-5.25
X3.Y-3.75
X3.Y-4.5
X3.Y-5.25
X3.75Y-3.75
X3.75Y-4.5
X3.75Y-5.25
X4.03Y-5.675
X4.125Y-6.
X4.5Y-3.75
X4.5Y-4.5
X4.5Y-5.25
X4.5Y-6.
X4.78Y-5.675
X4.875Y-6.
X4.97Y-5.675
X5.25Y-3.75
X5.25Y-4.5
X5.25Y-5.25
X5.25Y-6.
X5.625Y-6.
X5.72Y-5.675
T0
M30
