<?xml version="1.0"?>
<!-- Generated by SVGo -->
<svg width="114.777mm" height="86.202mm"
     viewBox="0.000 0.000 114.777 86.202"
     xmlns="http://www.w3.org/2000/svg" 
     xmlns:xlink="http://www.w3.org/1999/xlink">
<polygon points="109.777,81.202 5.001,81.202 5.001,5.001 109.777,5.001" style="fill:none;stroke-width:0.050000mm;stroke:black"/>
<polygon points="55.151,64.676 55.151,65.275 54.351,65.275 54.351,78.076 55.151,78.076 55.151,78.676 58.126,78.676 58.126,79.646 61.426,79.646 61.426,78.676 77.176,78.676 77.176,79.646 80.476,79.646 80.476,78.676 81.926,78.676 81.926,79.646 85.226,79.646 85.226,78.676 100.976,78.676 100.976,79.646 104.276,79.646 104.276,78.676 107.251,78.676 107.251,78.076 108.051,78.076 108.051,65.275 107.251,65.275 107.251,64.676" style="fill:none;stroke-width:0.050000mm;stroke:black"/>
<polygon points="7.526,45.626 7.526,46.226 6.726,46.226 6.726,59.026 7.526,59.026 7.526,59.626 21.526,59.626 21.526,59.026 22.326,59.026 22.326,46.226 21.526,46.226 21.526,45.626" style="fill:none;stroke-width:0.050000mm;stroke:black"/>
<polygon points="26.576,45.626 26.576,46.226 25.776,46.226 25.776,59.026 26.576,59.026 26.576,59.626 40.576,59.626 40.576,59.026 41.376,59.026 41.376,46.226 40.576,46.226 40.576,45.626" style="fill:none;stroke-width:0.050000mm;stroke:black"/>
<polygon points="45.626,45.626 45.626,46.226 44.826,46.226 44.826,59.026 45.626,59.026 45.626,59.626 59.626,59.626 59.626,59.026 60.426,59.026 60.426,46.226 59.626,46.226 59.626,45.626" style="fill:none;stroke-width:0.050000mm;stroke:black"/>
<polygon points="64.676,45.626 64.676,46.226 63.876,46.226 63.876,59.026 64.676,59.026 64.676,59.626 78.676,59.626 78.676,59.026 79.476,59.026 79.476,46.226 78.676,46.226 78.676,45.626" style="fill:none;stroke-width:0.050000mm;stroke:black"/>
<polygon points="83.726,45.626 83.726,46.226 82.926,46.226 82.926,59.026 83.726,59.026 83.726,59.626 97.726,59.626 97.726,59.026 98.525,59.026 98.525,46.226 97.726,46.226 97.726,45.626" style="fill:none;stroke-width:0.050000mm;stroke:black"/>
<polygon points="7.526,26.576 7.526,27.176 6.726,27.176 6.726,39.976 7.526,39.976 7.526,40.576 21.526,40.576 21.526,39.976 22.326,39.976 22.326,27.176 21.526,27.176 21.526,26.576" style="fill:none;stroke-width:0.050000mm;stroke:black"/>
<polygon points="26.576,26.576 26.576,27.176 25.776,27.176 25.776,39.976 26.576,39.976 26.576,40.576 40.576,40.576 40.576,39.976 41.376,39.976 41.376,27.176 40.576,27.176 40.576,26.576" style="fill:none;stroke-width:0.050000mm;stroke:black"/>
<polygon points="45.626,26.576 45.626,27.176 44.826,27.176 44.826,39.976 45.626,39.976 45.626,40.576 59.626,40.576 59.626,39.976 60.426,39.976 60.426,27.176 59.626,27.176 59.626,26.576" style="fill:none;stroke-width:0.050000mm;stroke:black"/>
<polygon points="64.676,26.576 64.676,27.176 63.876,27.176 63.876,39.976 64.676,39.976 64.676,40.576 78.676,40.576 78.676,39.976 79.476,39.976 79.476,27.176 78.676,27.176 78.676,26.576" style="fill:none;stroke-width:0.050000mm;stroke:black"/>
<polygon points="83.726,26.576 83.726,27.176 82.926,27.176 82.926,39.976 83.726,39.976 83.726,40.576 97.726,40.576 97.726,39.976 98.525,39.976 98.525,27.176 97.726,27.176 97.726,26.576" style="fill:none;stroke-width:0.050000mm;stroke:black"/>
<polygon points="7.526,7.526 7.526,8.126 6.726,8.126 6.726,20.926 7.526,20.926 7.526,21.526 21.526,21.526 21.526,20.926 22.326,20.926 22.326,8.126 21.526,8.126 21.526,7.526" style="fill:none;stroke-width:0.050000mm;stroke:black"/>
<polygon points="26.576,7.526 26.576,8.126 25.776,8.126 25.776,20.926 26.576,20.926 26.576,21.526 40.576,21.526 40.576,20.926 41.376,20.926 41.376,8.126 40.576,8.126 40.576,7.526" style="fill:none;stroke-width:0.050000mm;stroke:black"/>
<polygon points="45.626,7.526 45.626,8.126 44.826,8.126 44.826,20.926 45.626,20.926 45.626,21.526 59.626,21.526 59.626,20.926 60.426,20.926 60.426,8.126 59.626,8.126 59.626,7.526" style="fill:none;stroke-width:0.050000mm;stroke:black"/>
<polygon points="64.676,7.526 64.676,8.126 63.876,8.126 63.876,20.926 64.676,20.926 64.676,21.526 78.676,21.526 78.676,20.926 79.476,20.926 79.476,8.126 78.676,8.126 78.676,7.526" style="fill:none;stroke-width:0.050000mm;stroke:black"/>
<polygon points="83.726,7.526 83.726,8.126 82.926,8.126 82.926,20.926 83.726,20.926 83.726,21.526 97.726,21.526 97.726,20.926 98.525,20.926 98.525,8.126 97.726,8.126 97.726,7.526" style="fill:none;stroke-width:0.050000mm;stroke:black"/>
</svg>
