<?xml version="1.0"?>
<!-- Generated by SVGo -->
<svg width="114.777mm" height="86.202mm"
     viewBox="0.000 0.000 114.777 86.202"
     xmlns="http://www.w3.org/2000/svg" 
     xmlns:xlink="http://www.w3.org/1999/xlink">
<polygon points="109.777,81.202 5.001,81.202 5.001,5.001 109.777,5.001" style="fill:none;stroke-width:0.050000mm;stroke:black"/>
<polygon points="58.125,63.706 58.126,64.676 55.151,64.676 55.151,65.676 54.351,65.676 54.351,68.775 55.151,68.775 55.151,74.576 54.351,74.576 54.351,77.676 55.151,77.676 55.151,78.676 107.251,78.676 107.251,77.676 108.051,77.676 108.051,74.576 107.251,74.576 107.251,68.775 108.051,68.775 108.051,65.676 107.251,65.676 107.251,64.676 104.276,64.676 104.276,63.706 100.976,63.706 100.976,64.676 85.226,64.676 85.226,63.706 81.926,63.706 81.926,64.676 80.476,64.676 80.476,63.706 77.176,63.706 77.176,64.676 61.426,64.676 61.426,63.706" style="fill:none;stroke-width:0.050000mm;stroke:black"/>
<polygon points="7.526,45.626 7.526,46.626 6.726,46.626 6.726,49.726 7.526,49.726 7.526,55.526 6.726,55.526 6.726,58.626 7.526,58.626 7.526,59.626 21.526,59.626 21.526,58.626 22.326,58.626 22.326,55.526 21.526,55.526 21.526,49.726 22.326,49.726 22.326,46.626 21.526,46.626 21.526,45.626" style="fill:none;stroke-width:0.050000mm;stroke:black"/>
<polygon points="26.576,45.626 26.576,46.626 25.776,46.626 25.776,49.726 26.576,49.726 26.576,55.526 25.776,55.526 25.776,58.626 26.576,58.626 26.576,59.626 40.576,59.626 40.576,58.626 41.376,58.626 41.376,55.526 40.576,55.526 40.576,49.726 41.376,49.726 41.376,46.626 40.576,46.626 40.576,45.626" style="fill:none;stroke-width:0.050000mm;stroke:black"/>
<polygon points="45.626,45.626 45.626,46.626 44.826,46.626 44.826,49.726 45.626,49.726 45.626,55.526 44.826,55.526 44.826,58.626 45.626,58.626 45.626,59.626 59.626,59.626 59.626,58.626 60.426,58.626 60.426,55.526 59.626,55.526 59.626,49.726 60.426,49.726 60.426,46.626 59.626,46.626 59.626,45.626" style="fill:none;stroke-width:0.050000mm;stroke:black"/>
<polygon points="64.676,45.626 64.676,46.626 63.876,46.626 63.876,49.726 64.676,49.726 64.676,55.526 63.876,55.526 63.876,58.626 64.676,58.626 64.676,59.626 78.676,59.626 78.676,58.626 79.476,58.626 79.476,55.526 78.676,55.526 78.676,49.726 79.476,49.726 79.476,46.626 78.676,46.626 78.676,45.626" style="fill:none;stroke-width:0.050000mm;stroke:black"/>
<polygon points="83.726,45.626 83.726,46.626 82.926,46.626 82.926,49.726 83.726,49.726 83.726,55.526 82.926,55.526 82.926,58.626 83.726,58.626 83.726,59.626 97.726,59.626 97.726,58.626 98.525,58.626 98.525,55.526 97.726,55.526 97.726,49.726 98.525,49.726 98.525,46.626 97.726,46.626 97.726,45.626" style="fill:none;stroke-width:0.050000mm;stroke:black"/>
<polygon points="7.526,26.576 7.526,27.576 6.726,27.576 6.726,30.676 7.526,30.676 7.526,36.476 6.726,36.476 6.726,39.576 7.526,39.576 7.526,40.576 21.526,40.576 21.526,39.576 22.326,39.576 22.326,36.476 21.526,36.476 21.526,30.676 22.326,30.676 22.326,27.576 21.526,27.576 21.526,26.576" style="fill:none;stroke-width:0.050000mm;stroke:black"/>
<polygon points="26.576,26.576 26.576,27.576 25.776,27.576 25.776,30.676 26.576,30.676 26.576,36.476 25.776,36.476 25.776,39.576 26.576,39.576 26.576,40.576 40.576,40.576 40.576,39.576 41.376,39.576 41.376,36.476 40.576,36.476 40.576,30.676 41.376,30.676 41.376,27.576 40.576,27.576 40.576,26.576" style="fill:none;stroke-width:0.050000mm;stroke:black"/>
<polygon points="45.626,26.576 45.626,27.576 44.826,27.576 44.826,30.676 45.626,30.676 45.626,36.476 44.826,36.476 44.826,39.576 45.626,39.576 45.626,40.576 59.626,40.576 59.626,39.576 60.426,39.576 60.426,36.476 59.626,36.476 59.626,30.676 60.426,30.676 60.426,27.576 59.626,27.576 59.626,26.576" style="fill:none;stroke-width:0.050000mm;stroke:black"/>
<polygon points="64.676,26.576 64.676,27.576 63.876,27.576 63.876,30.676 64.676,30.676 64.676,36.476 63.876,36.476 63.876,39.576 64.676,39.576 64.676,40.576 78.676,40.576 78.676,39.576 79.476,39.576 79.476,36.476 78.676,36.476 78.676,30.676 79.476,30.676 79.476,27.576 78.676,27.576 78.676,26.576" style="fill:none;stroke-width:0.050000mm;stroke:black"/>
<polygon points="83.726,26.576 83.726,27.576 82.926,27.576 82.926,30.676 83.726,30.676 83.726,36.476 82.926,36.476 82.926,39.576 83.726,39.576 83.726,40.576 97.726,40.576 97.726,39.576 98.525,39.576 98.525,36.476 97.726,36.476 97.726,30.676 98.525,30.676 98.525,27.576 97.726,27.576 97.726,26.576" style="fill:none;stroke-width:0.050000mm;stroke:black"/>
<polygon points="7.526,7.526 7.526,8.526 6.726,8.526 6.726,11.626 7.526,11.626 7.526,17.426 6.726,17.426 6.726,20.526 7.526,20.526 7.526,21.526 21.526,21.526 21.526,20.526 22.326,20.526 22.326,17.426 21.526,17.426 21.526,11.626 22.326,11.626 22.326,8.526 21.526,8.526 21.526,7.526" style="fill:none;stroke-width:0.050000mm;stroke:black"/>
<polygon points="26.576,7.526 26.576,8.526 25.776,8.526 25.776,11.626 26.576,11.626 26.576,17.426 25.776,17.426 25.776,20.526 26.576,20.526 26.576,21.526 40.576,21.526 40.576,20.526 41.376,20.526 41.376,17.426 40.576,17.426 40.576,11.626 41.376,11.626 41.376,8.526 40.576,8.526 40.576,7.526" style="fill:none;stroke-width:0.050000mm;stroke:black"/>
<polygon points="45.626,7.526 45.626,8.526 44.826,8.526 44.826,11.626 45.626,11.626 45.626,17.426 44.826,17.426 44.826,20.526 45.626,20.526 45.626,21.526 59.626,21.526 59.626,20.526 60.426,20.526 60.426,17.426 59.626,17.426 59.626,11.626 60.426,11.626 60.426,8.526 59.626,8.526 59.626,7.526" style="fill:none;stroke-width:0.050000mm;stroke:black"/>
<polygon points="64.676,7.526 64.676,8.526 63.876,8.526 63.876,11.626 64.676,11.626 64.676,17.426 63.876,17.426 63.876,20.526 64.676,20.526 64.676,21.526 78.676,21.526 78.676,20.526 79.476,20.526 79.476,17.426 78.676,17.426 78.676,11.626 79.476,11.626 79.476,8.526 78.676,8.526 78.676,7.526" style="fill:none;stroke-width:0.050000mm;stroke:black"/>
<polygon points="83.726,7.526 83.726,8.526 82.926,8.526 82.926,11.626 83.726,11.626 83.726,17.426 82.926,17.426 82.926,20.526 83.726,20.526 83.726,21.526 97.726,21.526 97.726,20.526 98.525,20.526 98.525,17.426 97.726,17.426 97.726,11.626 98.525,11.626 98.525,8.526 97.726,8.526 97.726,7.526" style="fill:none;stroke-width:0.050000mm;stroke:black"/>
</svg>
