  0
SECTION
  2
HEADER
  9
$ACADVER
  1
AC1009
  9
$EXTMIN
 10
0.0
 20
0.0
 30
0.0
  9
$EXTMAX
 10
1000.0
 20
1000.0
 30
0.0
  9
$FILLMODE
 70
 0
  9
$SPLFRAME
 70
 1
  0
ENDSEC
  0
SECTION
  2
TABLES
  0
TABLE
  2
LAYER
 70
1
  0
LAYER
  2
0
 70
     0
 62
     7
  6
CONTINUOUS
  0
ENDTAB
  0
ENDSEC
  0
SECTION
  2
ENTITIES
  0
LINE
  8
0
 62
     0
 10
0.0950846
 20
76.2801
 30
0.0
 11
104.87
 21
76.2801
 31
0.0
  0
LINE
  8
0
 62
     0
 10
104.87
 20
76.2801
 30
0.0
 11
104.87
 21
0.0799264
 31
0.0
  0
LINE
  8
0
 62
     0
 10
104.87
 20
0.0799264
 30
0.0
 11
0.0950846
 21
0.0799264
 31
0.0
  0
LINE
  8
0
 62
     0
 10
0.0950846
 20
0.0799264
 30
0.0
 11
0.0950846
 21
76.2801
 31
0.0
  0
LINE
  8
0
 62
     0
 10
49.4453
 20
16.0059
 30
0.0
 11
49.4453
 21
3.20532
 31
0.0
  0
LINE
  8
0
 62
     0
 10
49.4453
 20
3.20532
 30
0.0
 11
51.3401
 21
3.20532
 31
0.0
  0
LINE
  8
0
 62
     0
 10
51.3401
 20
3.20532
 30
0.0
 11
51.3401
 21
0.525032
 31
0.0
  0
LINE
  8
0
 62
     0
 10
51.3401
 20
0.525032
 30
0.0
 11
54.0067
 21
0.525032
 31
0.0
  0
LINE
  8
0
 62
     0
 10
54.0067
 20
0.525032
 30
0.0
 11
54.0067
 21
3.20532
 31
0.0
  0
LINE
  8
0
 62
     0
 10
54.0067
 20
3.20532
 30
0.0
 11
70.3901
 21
3.20532
 31
0.0
  0
LINE
  8
0
 62
     0
 10
70.3901
 20
3.20532
 30
0.0
 11
70.3901
 21
0.525032
 31
0.0
  0
LINE
  8
0
 62
     0
 10
70.3901
 20
0.525032
 30
0.0
 11
73.0567
 21
0.525032
 31
0.0
  0
LINE
  8
0
 62
     0
 10
73.0567
 20
0.525032
 30
0.0
 11
73.0567
 21
3.20532
 31
0.0
  0
LINE
  8
0
 62
     0
 10
73.0567
 20
3.20532
 30
0.0
 11
79.532
 21
3.20532
 31
0.0
  0
LINE
  8
0
 62
     0
 10
79.532
 20
3.20532
 30
0.0
 11
79.532
 21
0.525032
 31
0.0
  0
LINE
  8
0
 62
     0
 10
79.532
 20
0.525032
 30
0.0
 11
82.1986
 21
0.525032
 31
0.0
  0
LINE
  8
0
 62
     0
 10
82.1986
 20
0.525032
 30
0.0
 11
82.1986
 21
3.20532
 31
0.0
  0
LINE
  8
0
 62
     0
 10
82.1986
 20
3.20532
 30
0.0
 11
98.582
 21
3.20532
 31
0.0
  0
LINE
  8
0
 62
     0
 10
98.582
 20
3.20532
 30
0.0
 11
98.582
 21
0.525032
 31
0.0
  0
LINE
  8
0
 62
     0
 10
98.582
 20
0.525032
 30
0.0
 11
101.249
 21
0.525032
 31
0.0
  0
LINE
  8
0
 62
     0
 10
101.249
 20
0.525032
 30
0.0
 11
101.249
 21
3.20532
 31
0.0
  0
LINE
  8
0
 62
     0
 10
101.249
 20
3.20532
 30
0.0
 11
103.145
 21
3.20532
 31
0.0
  0
LINE
  8
0
 62
     0
 10
103.145
 20
3.20532
 30
0.0
 11
103.145
 21
16.0059
 31
0.0
  0
LINE
  8
0
 62
     0
 10
103.145
 20
16.0059
 30
0.0
 11
49.4453
 21
16.0059
 31
0.0
  0
LINE
  8
0
 62
     0
 10
1.82039
 20
35.0559
 30
0.0
 11
17.4198
 21
35.0559
 31
0.0
  0
LINE
  8
0
 62
     0
 10
17.4198
 20
35.0559
 30
0.0
 11
17.4198
 21
22.2553
 31
0.0
  0
LINE
  8
0
 62
     0
 10
17.4198
 20
22.2553
 30
0.0
 11
1.82039
 21
22.2553
 31
0.0
  0
LINE
  8
0
 62
     0
 10
1.82039
 20
22.2553
 30
0.0
 11
1.82039
 21
35.0559
 31
0.0
  0
LINE
  8
0
 62
     0
 10
20.8704
 20
35.0559
 30
0.0
 11
36.4698
 21
35.0559
 31
0.0
  0
LINE
  8
0
 62
     0
 10
36.4698
 20
35.0559
 30
0.0
 11
36.4698
 21
22.2553
 31
0.0
  0
LINE
  8
0
 62
     0
 10
36.4698
 20
22.2553
 30
0.0
 11
20.8704
 21
22.2553
 31
0.0
  0
LINE
  8
0
 62
     0
 10
20.8704
 20
22.2553
 30
0.0
 11
20.8704
 21
35.0559
 31
0.0
  0
LINE
  8
0
 62
     0
 10
39.9203
 20
35.0559
 30
0.0
 11
55.5198
 21
35.0559
 31
0.0
  0
LINE
  8
0
 62
     0
 10
55.5198
 20
35.0559
 30
0.0
 11
55.5198
 21
22.2553
 31
0.0
  0
LINE
  8
0
 62
     0
 10
55.5198
 20
22.2553
 30
0.0
 11
39.9203
 21
22.2553
 31
0.0
  0
LINE
  8
0
 62
     0
 10
39.9203
 20
22.2553
 30
0.0
 11
39.9203
 21
35.0559
 31
0.0
  0
LINE
  8
0
 62
     0
 10
58.9703
 20
35.0559
 30
0.0
 11
74.5698
 21
35.0559
 31
0.0
  0
LINE
  8
0
 62
     0
 10
74.5698
 20
35.0559
 30
0.0
 11
74.5698
 21
22.2553
 31
0.0
  0
LINE
  8
0
 62
     0
 10
74.5698
 20
22.2553
 30
0.0
 11
58.9703
 21
22.2553
 31
0.0
  0
LINE
  8
0
 62
     0
 10
58.9703
 20
22.2553
 30
0.0
 11
58.9703
 21
35.0559
 31
0.0
  0
LINE
  8
0
 62
     0
 10
78.0203
 20
35.0559
 30
0.0
 11
93.6184
 21
35.0559
 31
0.0
  0
LINE
  8
0
 62
     0
 10
93.6184
 20
35.0559
 30
0.0
 11
93.6184
 21
22.2553
 31
0.0
  0
LINE
  8
0
 62
     0
 10
93.6184
 20
22.2553
 30
0.0
 11
78.0203
 21
22.2553
 31
0.0
  0
LINE
  8
0
 62
     0
 10
78.0203
 20
22.2553
 30
0.0
 11
78.0203
 21
35.0559
 31
0.0
  0
LINE
  8
0
 62
     0
 10
1.82039
 20
54.1059
 30
0.0
 11
17.4198
 21
54.1059
 31
0.0
  0
LINE
  8
0
 62
     0
 10
17.4198
 20
54.1059
 30
0.0
 11
17.4198
 21
41.3053
 31
0.0
  0
LINE
  8
0
 62
     0
 10
17.4198
 20
41.3053
 30
0.0
 11
1.82039
 21
41.3053
 31
0.0
  0
LINE
  8
0
 62
     0
 10
1.82039
 20
41.3053
 30
0.0
 11
1.82039
 21
54.1059
 31
0.0
  0
LINE
  8
0
 62
     0
 10
20.8704
 20
54.1059
 30
0.0
 11
36.4698
 21
54.1059
 31
0.0
  0
LINE
  8
0
 62
     0
 10
36.4698
 20
54.1059
 30
0.0
 11
36.4698
 21
41.3053
 31
0.0
  0
LINE
  8
0
 62
     0
 10
36.4698
 20
41.3053
 30
0.0
 11
20.8704
 21
41.3053
 31
0.0
  0
LINE
  8
0
 62
     0
 10
20.8704
 20
41.3053
 30
0.0
 11
20.8704
 21
54.1059
 31
0.0
  0
LINE
  8
0
 62
     0
 10
39.9203
 20
54.1059
 30
0.0
 11
55.5198
 21
54.1059
 31
0.0
  0
LINE
  8
0
 62
     0
 10
55.5198
 20
54.1059
 30
0.0
 11
55.5198
 21
41.3053
 31
0.0
  0
LINE
  8
0
 62
     0
 10
55.5198
 20
41.3053
 30
0.0
 11
39.9203
 21
41.3053
 31
0.0
  0
LINE
  8
0
 62
     0
 10
39.9203
 20
41.3053
 30
0.0
 11
39.9203
 21
54.1059
 31
0.0
  0
LINE
  8
0
 62
     0
 10
58.9703
 20
54.1059
 30
0.0
 11
74.5698
 21
54.1059
 31
0.0
  0
LINE
  8
0
 62
     0
 10
74.5698
 20
54.1059
 30
0.0
 11
74.5698
 21
41.3053
 31
0.0
  0
LINE
  8
0
 62
     0
 10
74.5698
 20
41.3053
 30
0.0
 11
58.9703
 21
41.3053
 31
0.0
  0
LINE
  8
0
 62
     0
 10
58.9703
 20
41.3053
 30
0.0
 11
58.9703
 21
54.1059
 31
0.0
  0
LINE
  8
0
 62
     0
 10
78.0203
 20
54.1059
 30
0.0
 11
93.6184
 21
54.1059
 31
0.0
  0
LINE
  8
0
 62
     0
 10
93.6184
 20
54.1059
 30
0.0
 11
93.6184
 21
41.3053
 31
0.0
  0
LINE
  8
0
 62
     0
 10
93.6184
 20
41.3053
 30
0.0
 11
78.0203
 21
41.3053
 31
0.0
  0
LINE
  8
0
 62
     0
 10
78.0203
 20
41.3053
 30
0.0
 11
78.0203
 21
54.1059
 31
0.0
  0
LINE
  8
0
 62
     0
 10
1.82039
 20
73.1559
 30
0.0
 11
17.4198
 21
73.1559
 31
0.0
  0
LINE
  8
0
 62
     0
 10
17.4198
 20
73.1559
 30
0.0
 11
17.4198
 21
60.3553
 31
0.0
  0
LINE
  8
0
 62
     0
 10
17.4198
 20
60.3553
 30
0.0
 11
1.82039
 21
60.3553
 31
0.0
  0
LINE
  8
0
 62
     0
 10
1.82039
 20
60.3553
 30
0.0
 11
1.82039
 21
73.1559
 31
0.0
  0
LINE
  8
0
 62
     0
 10
20.8704
 20
73.1559
 30
0.0
 11
36.4698
 21
73.1559
 31
0.0
  0
LINE
  8
0
 62
     0
 10
36.4698
 20
73.1559
 30
0.0
 11
36.4698
 21
60.3553
 31
0.0
  0
LINE
  8
0
 62
     0
 10
36.4698
 20
60.3553
 30
0.0
 11
20.8704
 21
60.3553
 31
0.0
  0
LINE
  8
0
 62
     0
 10
20.8704
 20
60.3553
 30
0.0
 11
20.8704
 21
73.1559
 31
0.0
  0
LINE
  8
0
 62
     0
 10
39.9203
 20
73.1559
 30
0.0
 11
55.5198
 21
73.1559
 31
0.0
  0
LINE
  8
0
 62
     0
 10
55.5198
 20
73.1559
 30
0.0
 11
55.5198
 21
60.3553
 31
0.0
  0
LINE
  8
0
 62
     0
 10
55.5198
 20
60.3553
 30
0.0
 11
39.9203
 21
60.3553
 31
0.0
  0
LINE
  8
0
 62
     0
 10
39.9203
 20
60.3553
 30
0.0
 11
39.9203
 21
73.1559
 31
0.0
  0
LINE
  8
0
 62
     0
 10
58.9703
 20
73.1559
 30
0.0
 11
74.5698
 21
73.1559
 31
0.0
  0
LINE
  8
0
 62
     0
 10
74.5698
 20
73.1559
 30
0.0
 11
74.5698
 21
60.3553
 31
0.0
  0
LINE
  8
0
 62
     0
 10
74.5698
 20
60.3553
 30
0.0
 11
58.9703
 21
60.3553
 31
0.0
  0
LINE
  8
0
 62
     0
 10
58.9703
 20
60.3553
 30
0.0
 11
58.9703
 21
73.1559
 31
0.0
  0
LINE
  8
0
 62
     0
 10
78.0203
 20
73.1559
 30
0.0
 11
93.6184
 21
73.1559
 31
0.0
  0
LINE
  8
0
 62
     0
 10
93.6184
 20
73.1559
 30
0.0
 11
93.6184
 21
60.3553
 31
0.0
  0
LINE
  8
0
 62
     0
 10
93.6184
 20
60.3553
 30
0.0
 11
78.0203
 21
60.3553
 31
0.0
  0
LINE
  8
0
 62
     0
 10
78.0203
 20
60.3553
 30
0.0
 11
78.0203
 21
73.1559
 31
0.0
  0
ENDSEC
  0
EOF
