<?xml version="1.0"?>
<!-- Generated by SVGo -->
<svg width="114.777mm" height="86.202mm"
     viewBox="0.000 0.000 114.777 86.202"
     xmlns="http://www.w3.org/2000/svg" 
     xmlns:xlink="http://www.w3.org/1999/xlink">
<polygon points="109.777,81.202 5.001,81.202 5.001,5.001 109.777,5.001" style="fill:none;stroke-width:0.050000mm;stroke:black"/>
<polygon points="54.351,65.275 54.351,78.076 56.246,78.076 56.246,80.756 58.913,80.756 58.913,78.076 75.297,78.076 75.297,80.756 77.963,80.756 77.963,78.076 84.439,78.076 84.439,80.756 87.105,80.756 87.105,78.076 103.489,78.076 103.489,80.756 106.155,80.756 106.155,78.076 108.051,78.076 108.051,65.275" style="fill:none;stroke-width:0.050000mm;stroke:black"/>
<polygon points="6.726,46.226 6.726,59.026 22.326,59.026 22.326,46.226" style="fill:none;stroke-width:0.050000mm;stroke:black"/>
<polygon points="25.776,46.226 25.776,59.026 41.376,59.026 41.376,46.226" style="fill:none;stroke-width:0.050000mm;stroke:black"/>
<polygon points="44.826,46.226 44.826,59.026 60.426,59.026 60.426,46.226" style="fill:none;stroke-width:0.050000mm;stroke:black"/>
<polygon points="63.876,46.226 63.876,59.026 79.476,59.026 79.476,46.226" style="fill:none;stroke-width:0.050000mm;stroke:black"/>
<polygon points="82.926,46.226 82.926,59.026 98.525,59.026 98.525,46.226" style="fill:none;stroke-width:0.050000mm;stroke:black"/>
<polygon points="6.726,27.176 6.726,39.976 22.326,39.976 22.326,27.176" style="fill:none;stroke-width:0.050000mm;stroke:black"/>
<polygon points="25.776,27.176 25.776,39.976 41.376,39.976 41.376,27.176" style="fill:none;stroke-width:0.050000mm;stroke:black"/>
<polygon points="44.826,27.176 44.826,39.976 60.426,39.976 60.426,27.176" style="fill:none;stroke-width:0.050000mm;stroke:black"/>
<polygon points="63.876,27.176 63.876,39.976 79.476,39.976 79.476,27.176" style="fill:none;stroke-width:0.050000mm;stroke:black"/>
<polygon points="82.926,27.176 82.926,39.976 98.525,39.976 98.525,27.176" style="fill:none;stroke-width:0.050000mm;stroke:black"/>
<polygon points="6.726,8.126 6.726,20.926 22.326,20.926 22.326,8.126" style="fill:none;stroke-width:0.050000mm;stroke:black"/>
<polygon points="25.776,8.126 25.776,20.926 41.376,20.926 41.376,8.126" style="fill:none;stroke-width:0.050000mm;stroke:black"/>
<polygon points="44.826,8.126 44.826,20.926 60.426,20.926 60.426,8.126" style="fill:none;stroke-width:0.050000mm;stroke:black"/>
<polygon points="63.876,8.126 63.876,20.926 79.476,20.926 79.476,8.126" style="fill:none;stroke-width:0.050000mm;stroke:black"/>
<polygon points="82.926,8.126 82.926,20.926 98.525,20.926 98.525,8.126" style="fill:none;stroke-width:0.050000mm;stroke:black"/>
</svg>
