  0
SECTION
  2
HEADER
  9
$ACADVER
  1
AC1009
  9
$EXTMIN
 10
0.0
 20
0.0
 30
0.0
  9
$EXTMAX
 10
1000.0
 20
1000.0
 30
0.0
  9
$FILLMODE
 70
 0
  9
$SPLFRAME
 70
 1
  0
ENDSEC
  0
SECTION
  2
TABLES
  0
TABLE
  2
LAYER
 70
1
  0
LAYER
  2
0
 70
     0
 62
     7
  6
CONTINUOUS
  0
ENDTAB
  0
ENDSEC
  0
SECTION
  2
ENTITIES
  0
LINE
  8
0
 62
     0
 10
0.0950846
 20
76.2801
 30
0.0
 11
104.87
 21
76.2801
 31
0.0
  0
LINE
  8
0
 62
     0
 10
104.87
 20
76.2801
 30
0.0
 11
104.87
 21
0.0799264
 31
0.0
  0
LINE
  8
0
 62
     0
 10
104.87
 20
0.0799264
 30
0.0
 11
0.0950846
 21
0.0799264
 31
0.0
  0
LINE
  8
0
 62
     0
 10
0.0950846
 20
0.0799264
 30
0.0
 11
0.0950846
 21
76.2801
 31
0.0
  0
LINE
  8
0
 62
     0
 10
50.2447
 20
16.6054
 30
0.0
 11
50.2447
 21
16.0059
 31
0.0
  0
LINE
  8
0
 62
     0
 10
50.2447
 20
16.0059
 30
0.0
 11
49.4453
 21
16.0059
 31
0.0
  0
LINE
  8
0
 62
     0
 10
49.4453
 20
16.0059
 30
0.0
 11
49.4453
 21
3.20532
 31
0.0
  0
LINE
  8
0
 62
     0
 10
49.4453
 20
3.20532
 30
0.0
 11
50.2447
 21
3.20532
 31
0.0
  0
LINE
  8
0
 62
     0
 10
50.2447
 20
3.20532
 30
0.0
 11
50.2447
 21
2.60587
 31
0.0
  0
LINE
  8
0
 62
     0
 10
50.2447
 20
2.60587
 30
0.0
 11
53.2197
 21
2.60587
 31
0.0
  0
LINE
  8
0
 62
     0
 10
53.2197
 20
2.60587
 30
0.0
 11
53.2197
 21
1.63573
 31
0.0
  0
LINE
  8
0
 62
     0
 10
53.2197
 20
1.63573
 30
0.0
 11
56.5203
 21
1.63573
 31
0.0
  0
LINE
  8
0
 62
     0
 10
56.5203
 20
1.63573
 30
0.0
 11
56.5203
 21
2.60587
 31
0.0
  0
LINE
  8
0
 62
     0
 10
56.5203
 20
2.60587
 30
0.0
 11
72.2697
 21
2.60587
 31
0.0
  0
LINE
  8
0
 62
     0
 10
72.2697
 20
2.60587
 30
0.0
 11
72.2697
 21
1.63573
 31
0.0
  0
LINE
  8
0
 62
     0
 10
72.2697
 20
1.63573
 30
0.0
 11
75.5703
 21
1.63573
 31
0.0
  0
LINE
  8
0
 62
     0
 10
75.5703
 20
1.63573
 30
0.0
 11
75.5703
 21
2.60587
 31
0.0
  0
LINE
  8
0
 62
     0
 10
75.5703
 20
2.60587
 30
0.0
 11
77.0199
 21
2.60587
 31
0.0
  0
LINE
  8
0
 62
     0
 10
77.0199
 20
2.60587
 30
0.0
 11
77.0199
 21
1.63573
 31
0.0
  0
LINE
  8
0
 62
     0
 10
77.0199
 20
1.63573
 30
0.0
 11
80.3204
 21
1.63573
 31
0.0
  0
LINE
  8
0
 62
     0
 10
80.3204
 20
1.63573
 30
0.0
 11
80.3204
 21
2.60587
 31
0.0
  0
LINE
  8
0
 62
     0
 10
80.3204
 20
2.60587
 30
0.0
 11
96.0699
 21
2.60587
 31
0.0
  0
LINE
  8
0
 62
     0
 10
96.0699
 20
2.60587
 30
0.0
 11
96.0699
 21
1.63573
 31
0.0
  0
LINE
  8
0
 62
     0
 10
96.0699
 20
1.63573
 30
0.0
 11
99.3704
 21
1.63573
 31
0.0
  0
LINE
  8
0
 62
     0
 10
99.3704
 20
1.63573
 30
0.0
 11
99.3704
 21
2.60587
 31
0.0
  0
LINE
  8
0
 62
     0
 10
99.3704
 20
2.60587
 30
0.0
 11
102.344
 21
2.60587
 31
0.0
  0
LINE
  8
0
 62
     0
 10
102.344
 20
2.60587
 30
0.0
 11
102.344
 21
3.20532
 31
0.0
  0
LINE
  8
0
 62
     0
 10
102.344
 20
3.20532
 30
0.0
 11
103.145
 21
3.20532
 31
0.0
  0
LINE
  8
0
 62
     0
 10
103.145
 20
3.20532
 30
0.0
 11
103.145
 21
16.0059
 31
0.0
  0
LINE
  8
0
 62
     0
 10
103.145
 20
16.0059
 30
0.0
 11
102.344
 21
16.0059
 31
0.0
  0
LINE
  8
0
 62
     0
 10
102.344
 20
16.0059
 30
0.0
 11
102.344
 21
16.6054
 31
0.0
  0
LINE
  8
0
 62
     0
 10
102.344
 20
16.6054
 30
0.0
 11
50.2447
 21
16.6054
 31
0.0
  0
LINE
  8
0
 62
     0
 10
2.61965
 20
35.6553
 30
0.0
 11
2.61965
 21
35.0559
 31
0.0
  0
LINE
  8
0
 62
     0
 10
2.61965
 20
35.0559
 30
0.0
 11
1.82039
 21
35.0559
 31
0.0
  0
LINE
  8
0
 62
     0
 10
1.82039
 20
35.0559
 30
0.0
 11
1.82039
 21
22.2553
 31
0.0
  0
LINE
  8
0
 62
     0
 10
1.82039
 20
22.2553
 30
0.0
 11
2.61965
 21
22.2553
 31
0.0
  0
LINE
  8
0
 62
     0
 10
2.61965
 20
22.2553
 30
0.0
 11
2.61965
 21
21.6559
 31
0.0
  0
LINE
  8
0
 62
     0
 10
2.61965
 20
21.6559
 30
0.0
 11
16.6192
 21
21.6559
 31
0.0
  0
LINE
  8
0
 62
     0
 10
16.6192
 20
21.6559
 30
0.0
 11
16.6192
 21
22.2553
 31
0.0
  0
LINE
  8
0
 62
     0
 10
16.6192
 20
22.2553
 30
0.0
 11
17.4198
 21
22.2553
 31
0.0
  0
LINE
  8
0
 62
     0
 10
17.4198
 20
22.2553
 30
0.0
 11
17.4198
 21
35.0559
 31
0.0
  0
LINE
  8
0
 62
     0
 10
17.4198
 20
35.0559
 30
0.0
 11
16.6192
 21
35.0559
 31
0.0
  0
LINE
  8
0
 62
     0
 10
16.6192
 20
35.0559
 30
0.0
 11
16.6192
 21
35.6553
 31
0.0
  0
LINE
  8
0
 62
     0
 10
16.6192
 20
35.6553
 30
0.0
 11
2.61965
 21
35.6553
 31
0.0
  0
LINE
  8
0
 62
     0
 10
21.6697
 20
35.6553
 30
0.0
 11
21.6697
 21
35.0559
 31
0.0
  0
LINE
  8
0
 62
     0
 10
21.6697
 20
35.0559
 30
0.0
 11
20.8704
 21
35.0559
 31
0.0
  0
LINE
  8
0
 62
     0
 10
20.8704
 20
35.0559
 30
0.0
 11
20.8704
 21
22.2553
 31
0.0
  0
LINE
  8
0
 62
     0
 10
20.8704
 20
22.2553
 30
0.0
 11
21.6697
 21
22.2553
 31
0.0
  0
LINE
  8
0
 62
     0
 10
21.6697
 20
22.2553
 30
0.0
 11
21.6697
 21
21.6559
 31
0.0
  0
LINE
  8
0
 62
     0
 10
21.6697
 20
21.6559
 30
0.0
 11
35.669
 21
21.6559
 31
0.0
  0
LINE
  8
0
 62
     0
 10
35.669
 20
21.6559
 30
0.0
 11
35.669
 21
22.2553
 31
0.0
  0
LINE
  8
0
 62
     0
 10
35.669
 20
22.2553
 30
0.0
 11
36.4698
 21
22.2553
 31
0.0
  0
LINE
  8
0
 62
     0
 10
36.4698
 20
22.2553
 30
0.0
 11
36.4698
 21
35.0559
 31
0.0
  0
LINE
  8
0
 62
     0
 10
36.4698
 20
35.0559
 30
0.0
 11
35.669
 21
35.0559
 31
0.0
  0
LINE
  8
0
 62
     0
 10
35.669
 20
35.0559
 30
0.0
 11
35.669
 21
35.6553
 31
0.0
  0
LINE
  8
0
 62
     0
 10
35.669
 20
35.6553
 30
0.0
 11
21.6697
 21
35.6553
 31
0.0
  0
LINE
  8
0
 62
     0
 10
40.7197
 20
35.6553
 30
0.0
 11
40.7197
 21
35.0559
 31
0.0
  0
LINE
  8
0
 62
     0
 10
40.7197
 20
35.0559
 30
0.0
 11
39.9203
 21
35.0559
 31
0.0
  0
LINE
  8
0
 62
     0
 10
39.9203
 20
35.0559
 30
0.0
 11
39.9203
 21
22.2553
 31
0.0
  0
LINE
  8
0
 62
     0
 10
39.9203
 20
22.2553
 30
0.0
 11
40.7197
 21
22.2553
 31
0.0
  0
LINE
  8
0
 62
     0
 10
40.7197
 20
22.2553
 30
0.0
 11
40.7197
 21
21.6559
 31
0.0
  0
LINE
  8
0
 62
     0
 10
40.7197
 20
21.6559
 30
0.0
 11
54.719
 21
21.6559
 31
0.0
  0
LINE
  8
0
 62
     0
 10
54.719
 20
21.6559
 30
0.0
 11
54.719
 21
22.2553
 31
0.0
  0
LINE
  8
0
 62
     0
 10
54.719
 20
22.2553
 30
0.0
 11
55.5198
 21
22.2553
 31
0.0
  0
LINE
  8
0
 62
     0
 10
55.5198
 20
22.2553
 30
0.0
 11
55.5198
 21
35.0559
 31
0.0
  0
LINE
  8
0
 62
     0
 10
55.5198
 20
35.0559
 30
0.0
 11
54.719
 21
35.0559
 31
0.0
  0
LINE
  8
0
 62
     0
 10
54.719
 20
35.0559
 30
0.0
 11
54.719
 21
35.6553
 31
0.0
  0
LINE
  8
0
 62
     0
 10
54.719
 20
35.6553
 30
0.0
 11
40.7197
 21
35.6553
 31
0.0
  0
LINE
  8
0
 62
     0
 10
59.7697
 20
35.6553
 30
0.0
 11
59.7697
 21
35.0559
 31
0.0
  0
LINE
  8
0
 62
     0
 10
59.7697
 20
35.0559
 30
0.0
 11
58.9703
 21
35.0559
 31
0.0
  0
LINE
  8
0
 62
     0
 10
58.9703
 20
35.0559
 30
0.0
 11
58.9703
 21
22.2553
 31
0.0
  0
LINE
  8
0
 62
     0
 10
58.9703
 20
22.2553
 30
0.0
 11
59.7697
 21
22.2553
 31
0.0
  0
LINE
  8
0
 62
     0
 10
59.7697
 20
22.2553
 30
0.0
 11
59.7697
 21
21.6559
 31
0.0
  0
LINE
  8
0
 62
     0
 10
59.7697
 20
21.6559
 30
0.0
 11
73.769
 21
21.6559
 31
0.0
  0
LINE
  8
0
 62
     0
 10
73.769
 20
21.6559
 30
0.0
 11
73.769
 21
22.2553
 31
0.0
  0
LINE
  8
0
 62
     0
 10
73.769
 20
22.2553
 30
0.0
 11
74.5698
 21
22.2553
 31
0.0
  0
LINE
  8
0
 62
     0
 10
74.5698
 20
22.2553
 30
0.0
 11
74.5698
 21
35.0559
 31
0.0
  0
LINE
  8
0
 62
     0
 10
74.5698
 20
35.0559
 30
0.0
 11
73.769
 21
35.0559
 31
0.0
  0
LINE
  8
0
 62
     0
 10
73.769
 20
35.0559
 30
0.0
 11
73.769
 21
35.6553
 31
0.0
  0
LINE
  8
0
 62
     0
 10
73.769
 20
35.6553
 30
0.0
 11
59.7697
 21
35.6553
 31
0.0
  0
LINE
  8
0
 62
     0
 10
78.8197
 20
35.6553
 30
0.0
 11
78.8197
 21
35.0559
 31
0.0
  0
LINE
  8
0
 62
     0
 10
78.8197
 20
35.0559
 30
0.0
 11
78.0203
 21
35.0559
 31
0.0
  0
LINE
  8
0
 62
     0
 10
78.0203
 20
35.0559
 30
0.0
 11
78.0203
 21
22.2553
 31
0.0
  0
LINE
  8
0
 62
     0
 10
78.0203
 20
22.2553
 30
0.0
 11
78.8197
 21
22.2553
 31
0.0
  0
LINE
  8
0
 62
     0
 10
78.8197
 20
22.2553
 30
0.0
 11
78.8197
 21
21.6559
 31
0.0
  0
LINE
  8
0
 62
     0
 10
78.8197
 20
21.6559
 30
0.0
 11
92.819
 21
21.6559
 31
0.0
  0
LINE
  8
0
 62
     0
 10
92.819
 20
21.6559
 30
0.0
 11
92.819
 21
22.2553
 31
0.0
  0
LINE
  8
0
 62
     0
 10
92.819
 20
22.2553
 30
0.0
 11
93.6184
 21
22.2553
 31
0.0
  0
LINE
  8
0
 62
     0
 10
93.6184
 20
22.2553
 30
0.0
 11
93.6184
 21
35.0559
 31
0.0
  0
LINE
  8
0
 62
     0
 10
93.6184
 20
35.0559
 30
0.0
 11
92.819
 21
35.0559
 31
0.0
  0
LINE
  8
0
 62
     0
 10
92.819
 20
35.0559
 30
0.0
 11
92.819
 21
35.6553
 31
0.0
  0
LINE
  8
0
 62
     0
 10
92.819
 20
35.6553
 30
0.0
 11
78.8197
 21
35.6553
 31
0.0
  0
LINE
  8
0
 62
     0
 10
2.61965
 20
54.7053
 30
0.0
 11
2.61965
 21
54.1059
 31
0.0
  0
LINE
  8
0
 62
     0
 10
2.61965
 20
54.1059
 30
0.0
 11
1.82039
 21
54.1059
 31
0.0
  0
LINE
  8
0
 62
     0
 10
1.82039
 20
54.1059
 30
0.0
 11
1.82039
 21
41.3053
 31
0.0
  0
LINE
  8
0
 62
     0
 10
1.82039
 20
41.3053
 30
0.0
 11
2.61965
 21
41.3053
 31
0.0
  0
LINE
  8
0
 62
     0
 10
2.61965
 20
41.3053
 30
0.0
 11
2.61965
 21
40.706
 31
0.0
  0
LINE
  8
0
 62
     0
 10
2.61965
 20
40.706
 30
0.0
 11
16.6192
 21
40.706
 31
0.0
  0
LINE
  8
0
 62
     0
 10
16.6192
 20
40.706
 30
0.0
 11
16.6192
 21
41.3053
 31
0.0
  0
LINE
  8
0
 62
     0
 10
16.6192
 20
41.3053
 30
0.0
 11
17.4198
 21
41.3053
 31
0.0
  0
LINE
  8
0
 62
     0
 10
17.4198
 20
41.3053
 30
0.0
 11
17.4198
 21
54.1059
 31
0.0
  0
LINE
  8
0
 62
     0
 10
17.4198
 20
54.1059
 30
0.0
 11
16.6192
 21
54.1059
 31
0.0
  0
LINE
  8
0
 62
     0
 10
16.6192
 20
54.1059
 30
0.0
 11
16.6192
 21
54.7053
 31
0.0
  0
LINE
  8
0
 62
     0
 10
16.6192
 20
54.7053
 30
0.0
 11
2.61965
 21
54.7053
 31
0.0
  0
LINE
  8
0
 62
     0
 10
21.6697
 20
54.7053
 30
0.0
 11
21.6697
 21
54.1059
 31
0.0
  0
LINE
  8
0
 62
     0
 10
21.6697
 20
54.1059
 30
0.0
 11
20.8704
 21
54.1059
 31
0.0
  0
LINE
  8
0
 62
     0
 10
20.8704
 20
54.1059
 30
0.0
 11
20.8704
 21
41.3053
 31
0.0
  0
LINE
  8
0
 62
     0
 10
20.8704
 20
41.3053
 30
0.0
 11
21.6697
 21
41.3053
 31
0.0
  0
LINE
  8
0
 62
     0
 10
21.6697
 20
41.3053
 30
0.0
 11
21.6697
 21
40.706
 31
0.0
  0
LINE
  8
0
 62
     0
 10
21.6697
 20
40.706
 30
0.0
 11
35.669
 21
40.706
 31
0.0
  0
LINE
  8
0
 62
     0
 10
35.669
 20
40.706
 30
0.0
 11
35.669
 21
41.3053
 31
0.0
  0
LINE
  8
0
 62
     0
 10
35.669
 20
41.3053
 30
0.0
 11
36.4698
 21
41.3053
 31
0.0
  0
LINE
  8
0
 62
     0
 10
36.4698
 20
41.3053
 30
0.0
 11
36.4698
 21
54.1059
 31
0.0
  0
LINE
  8
0
 62
     0
 10
36.4698
 20
54.1059
 30
0.0
 11
35.669
 21
54.1059
 31
0.0
  0
LINE
  8
0
 62
     0
 10
35.669
 20
54.1059
 30
0.0
 11
35.669
 21
54.7053
 31
0.0
  0
LINE
  8
0
 62
     0
 10
35.669
 20
54.7053
 30
0.0
 11
21.6697
 21
54.7053
 31
0.0
  0
LINE
  8
0
 62
     0
 10
40.7197
 20
54.7053
 30
0.0
 11
40.7197
 21
54.1059
 31
0.0
  0
LINE
  8
0
 62
     0
 10
40.7197
 20
54.1059
 30
0.0
 11
39.9203
 21
54.1059
 31
0.0
  0
LINE
  8
0
 62
     0
 10
39.9203
 20
54.1059
 30
0.0
 11
39.9203
 21
41.3053
 31
0.0
  0
LINE
  8
0
 62
     0
 10
39.9203
 20
41.3053
 30
0.0
 11
40.7197
 21
41.3053
 31
0.0
  0
LINE
  8
0
 62
     0
 10
40.7197
 20
41.3053
 30
0.0
 11
40.7197
 21
40.706
 31
0.0
  0
LINE
  8
0
 62
     0
 10
40.7197
 20
40.706
 30
0.0
 11
54.719
 21
40.706
 31
0.0
  0
LINE
  8
0
 62
     0
 10
54.719
 20
40.706
 30
0.0
 11
54.719
 21
41.3053
 31
0.0
  0
LINE
  8
0
 62
     0
 10
54.719
 20
41.3053
 30
0.0
 11
55.5198
 21
41.3053
 31
0.0
  0
LINE
  8
0
 62
     0
 10
55.5198
 20
41.3053
 30
0.0
 11
55.5198
 21
54.1059
 31
0.0
  0
LINE
  8
0
 62
     0
 10
55.5198
 20
54.1059
 30
0.0
 11
54.719
 21
54.1059
 31
0.0
  0
LINE
  8
0
 62
     0
 10
54.719
 20
54.1059
 30
0.0
 11
54.719
 21
54.7053
 31
0.0
  0
LINE
  8
0
 62
     0
 10
54.719
 20
54.7053
 30
0.0
 11
40.7197
 21
54.7053
 31
0.0
  0
LINE
  8
0
 62
     0
 10
59.7697
 20
54.7053
 30
0.0
 11
59.7697
 21
54.1059
 31
0.0
  0
LINE
  8
0
 62
     0
 10
59.7697
 20
54.1059
 30
0.0
 11
58.9703
 21
54.1059
 31
0.0
  0
LINE
  8
0
 62
     0
 10
58.9703
 20
54.1059
 30
0.0
 11
58.9703
 21
41.3053
 31
0.0
  0
LINE
  8
0
 62
     0
 10
58.9703
 20
41.3053
 30
0.0
 11
59.7697
 21
41.3053
 31
0.0
  0
LINE
  8
0
 62
     0
 10
59.7697
 20
41.3053
 30
0.0
 11
59.7697
 21
40.706
 31
0.0
  0
LINE
  8
0
 62
     0
 10
59.7697
 20
40.706
 30
0.0
 11
73.769
 21
40.706
 31
0.0
  0
LINE
  8
0
 62
     0
 10
73.769
 20
40.706
 30
0.0
 11
73.769
 21
41.3053
 31
0.0
  0
LINE
  8
0
 62
     0
 10
73.769
 20
41.3053
 30
0.0
 11
74.5698
 21
41.3053
 31
0.0
  0
LINE
  8
0
 62
     0
 10
74.5698
 20
41.3053
 30
0.0
 11
74.5698
 21
54.1059
 31
0.0
  0
LINE
  8
0
 62
     0
 10
74.5698
 20
54.1059
 30
0.0
 11
73.769
 21
54.1059
 31
0.0
  0
LINE
  8
0
 62
     0
 10
73.769
 20
54.1059
 30
0.0
 11
73.769
 21
54.7053
 31
0.0
  0
LINE
  8
0
 62
     0
 10
73.769
 20
54.7053
 30
0.0
 11
59.7697
 21
54.7053
 31
0.0
  0
LINE
  8
0
 62
     0
 10
78.8197
 20
54.7053
 30
0.0
 11
78.8197
 21
54.1059
 31
0.0
  0
LINE
  8
0
 62
     0
 10
78.8197
 20
54.1059
 30
0.0
 11
78.0203
 21
54.1059
 31
0.0
  0
LINE
  8
0
 62
     0
 10
78.0203
 20
54.1059
 30
0.0
 11
78.0203
 21
41.3053
 31
0.0
  0
LINE
  8
0
 62
     0
 10
78.0203
 20
41.3053
 30
0.0
 11
78.8197
 21
41.3053
 31
0.0
  0
LINE
  8
0
 62
     0
 10
78.8197
 20
41.3053
 30
0.0
 11
78.8197
 21
40.706
 31
0.0
  0
LINE
  8
0
 62
     0
 10
78.8197
 20
40.706
 30
0.0
 11
92.819
 21
40.706
 31
0.0
  0
LINE
  8
0
 62
     0
 10
92.819
 20
40.706
 30
0.0
 11
92.819
 21
41.3053
 31
0.0
  0
LINE
  8
0
 62
     0
 10
92.819
 20
41.3053
 30
0.0
 11
93.6184
 21
41.3053
 31
0.0
  0
LINE
  8
0
 62
     0
 10
93.6184
 20
41.3053
 30
0.0
 11
93.6184
 21
54.1059
 31
0.0
  0
LINE
  8
0
 62
     0
 10
93.6184
 20
54.1059
 30
0.0
 11
92.819
 21
54.1059
 31
0.0
  0
LINE
  8
0
 62
     0
 10
92.819
 20
54.1059
 30
0.0
 11
92.819
 21
54.7053
 31
0.0
  0
LINE
  8
0
 62
     0
 10
92.819
 20
54.7053
 30
0.0
 11
78.8197
 21
54.7053
 31
0.0
  0
LINE
  8
0
 62
     0
 10
2.61965
 20
73.7553
 30
0.0
 11
2.61965
 21
73.1559
 31
0.0
  0
LINE
  8
0
 62
     0
 10
2.61965
 20
73.1559
 30
0.0
 11
1.82039
 21
73.1559
 31
0.0
  0
LINE
  8
0
 62
     0
 10
1.82039
 20
73.1559
 30
0.0
 11
1.82039
 21
60.3553
 31
0.0
  0
LINE
  8
0
 62
     0
 10
1.82039
 20
60.3553
 30
0.0
 11
2.61965
 21
60.3553
 31
0.0
  0
LINE
  8
0
 62
     0
 10
2.61965
 20
60.3553
 30
0.0
 11
2.61965
 21
59.756
 31
0.0
  0
LINE
  8
0
 62
     0
 10
2.61965
 20
59.756
 30
0.0
 11
16.6192
 21
59.756
 31
0.0
  0
LINE
  8
0
 62
     0
 10
16.6192
 20
59.756
 30
0.0
 11
16.6192
 21
60.3553
 31
0.0
  0
LINE
  8
0
 62
     0
 10
16.6192
 20
60.3553
 30
0.0
 11
17.4198
 21
60.3553
 31
0.0
  0
LINE
  8
0
 62
     0
 10
17.4198
 20
60.3553
 30
0.0
 11
17.4198
 21
73.1559
 31
0.0
  0
LINE
  8
0
 62
     0
 10
17.4198
 20
73.1559
 30
0.0
 11
16.6192
 21
73.1559
 31
0.0
  0
LINE
  8
0
 62
     0
 10
16.6192
 20
73.1559
 30
0.0
 11
16.6192
 21
73.7553
 31
0.0
  0
LINE
  8
0
 62
     0
 10
16.6192
 20
73.7553
 30
0.0
 11
2.61965
 21
73.7553
 31
0.0
  0
LINE
  8
0
 62
     0
 10
21.6697
 20
73.7553
 30
0.0
 11
21.6697
 21
73.1559
 31
0.0
  0
LINE
  8
0
 62
     0
 10
21.6697
 20
73.1559
 30
0.0
 11
20.8704
 21
73.1559
 31
0.0
  0
LINE
  8
0
 62
     0
 10
20.8704
 20
73.1559
 30
0.0
 11
20.8704
 21
60.3553
 31
0.0
  0
LINE
  8
0
 62
     0
 10
20.8704
 20
60.3553
 30
0.0
 11
21.6697
 21
60.3553
 31
0.0
  0
LINE
  8
0
 62
     0
 10
21.6697
 20
60.3553
 30
0.0
 11
21.6697
 21
59.756
 31
0.0
  0
LINE
  8
0
 62
     0
 10
21.6697
 20
59.756
 30
0.0
 11
35.669
 21
59.756
 31
0.0
  0
LINE
  8
0
 62
     0
 10
35.669
 20
59.756
 30
0.0
 11
35.669
 21
60.3553
 31
0.0
  0
LINE
  8
0
 62
     0
 10
35.669
 20
60.3553
 30
0.0
 11
36.4698
 21
60.3553
 31
0.0
  0
LINE
  8
0
 62
     0
 10
36.4698
 20
60.3553
 30
0.0
 11
36.4698
 21
73.1559
 31
0.0
  0
LINE
  8
0
 62
     0
 10
36.4698
 20
73.1559
 30
0.0
 11
35.669
 21
73.1559
 31
0.0
  0
LINE
  8
0
 62
     0
 10
35.669
 20
73.1559
 30
0.0
 11
35.669
 21
73.7553
 31
0.0
  0
LINE
  8
0
 62
     0
 10
35.669
 20
73.7553
 30
0.0
 11
21.6697
 21
73.7553
 31
0.0
  0
LINE
  8
0
 62
     0
 10
40.7197
 20
73.7553
 30
0.0
 11
40.7197
 21
73.1559
 31
0.0
  0
LINE
  8
0
 62
     0
 10
40.7197
 20
73.1559
 30
0.0
 11
39.9203
 21
73.1559
 31
0.0
  0
LINE
  8
0
 62
     0
 10
39.9203
 20
73.1559
 30
0.0
 11
39.9203
 21
60.3553
 31
0.0
  0
LINE
  8
0
 62
     0
 10
39.9203
 20
60.3553
 30
0.0
 11
40.7197
 21
60.3553
 31
0.0
  0
LINE
  8
0
 62
     0
 10
40.7197
 20
60.3553
 30
0.0
 11
40.7197
 21
59.756
 31
0.0
  0
LINE
  8
0
 62
     0
 10
40.7197
 20
59.756
 30
0.0
 11
54.719
 21
59.756
 31
0.0
  0
LINE
  8
0
 62
     0
 10
54.719
 20
59.756
 30
0.0
 11
54.719
 21
60.3553
 31
0.0
  0
LINE
  8
0
 62
     0
 10
54.719
 20
60.3553
 30
0.0
 11
55.5198
 21
60.3553
 31
0.0
  0
LINE
  8
0
 62
     0
 10
55.5198
 20
60.3553
 30
0.0
 11
55.5198
 21
73.1559
 31
0.0
  0
LINE
  8
0
 62
     0
 10
55.5198
 20
73.1559
 30
0.0
 11
54.719
 21
73.1559
 31
0.0
  0
LINE
  8
0
 62
     0
 10
54.719
 20
73.1559
 30
0.0
 11
54.719
 21
73.7553
 31
0.0
  0
LINE
  8
0
 62
     0
 10
54.719
 20
73.7553
 30
0.0
 11
40.7197
 21
73.7553
 31
0.0
  0
LINE
  8
0
 62
     0
 10
59.7697
 20
73.7553
 30
0.0
 11
59.7697
 21
73.1559
 31
0.0
  0
LINE
  8
0
 62
     0
 10
59.7697
 20
73.1559
 30
0.0
 11
58.9703
 21
73.1559
 31
0.0
  0
LINE
  8
0
 62
     0
 10
58.9703
 20
73.1559
 30
0.0
 11
58.9703
 21
60.3553
 31
0.0
  0
LINE
  8
0
 62
     0
 10
58.9703
 20
60.3553
 30
0.0
 11
59.7697
 21
60.3553
 31
0.0
  0
LINE
  8
0
 62
     0
 10
59.7697
 20
60.3553
 30
0.0
 11
59.7697
 21
59.756
 31
0.0
  0
LINE
  8
0
 62
     0
 10
59.7697
 20
59.756
 30
0.0
 11
73.769
 21
59.756
 31
0.0
  0
LINE
  8
0
 62
     0
 10
73.769
 20
59.756
 30
0.0
 11
73.769
 21
60.3553
 31
0.0
  0
LINE
  8
0
 62
     0
 10
73.769
 20
60.3553
 30
0.0
 11
74.5698
 21
60.3553
 31
0.0
  0
LINE
  8
0
 62
     0
 10
74.5698
 20
60.3553
 30
0.0
 11
74.5698
 21
73.1559
 31
0.0
  0
LINE
  8
0
 62
     0
 10
74.5698
 20
73.1559
 30
0.0
 11
73.769
 21
73.1559
 31
0.0
  0
LINE
  8
0
 62
     0
 10
73.769
 20
73.1559
 30
0.0
 11
73.769
 21
73.7553
 31
0.0
  0
LINE
  8
0
 62
     0
 10
73.769
 20
73.7553
 30
0.0
 11
59.7697
 21
73.7553
 31
0.0
  0
LINE
  8
0
 62
     0
 10
78.8197
 20
73.7553
 30
0.0
 11
78.8197
 21
73.1559
 31
0.0
  0
LINE
  8
0
 62
     0
 10
78.8197
 20
73.1559
 30
0.0
 11
78.0203
 21
73.1559
 31
0.0
  0
LINE
  8
0
 62
     0
 10
78.0203
 20
73.1559
 30
0.0
 11
78.0203
 21
60.3553
 31
0.0
  0
LINE
  8
0
 62
     0
 10
78.0203
 20
60.3553
 30
0.0
 11
78.8197
 21
60.3553
 31
0.0
  0
LINE
  8
0
 62
     0
 10
78.8197
 20
60.3553
 30
0.0
 11
78.8197
 21
59.756
 31
0.0
  0
LINE
  8
0
 62
     0
 10
78.8197
 20
59.756
 30
0.0
 11
92.819
 21
59.756
 31
0.0
  0
LINE
  8
0
 62
     0
 10
92.819
 20
59.756
 30
0.0
 11
92.819
 21
60.3553
 31
0.0
  0
LINE
  8
0
 62
     0
 10
92.819
 20
60.3553
 30
0.0
 11
93.6184
 21
60.3553
 31
0.0
  0
LINE
  8
0
 62
     0
 10
93.6184
 20
60.3553
 30
0.0
 11
93.6184
 21
73.1559
 31
0.0
  0
LINE
  8
0
 62
     0
 10
93.6184
 20
73.1559
 30
0.0
 11
92.819
 21
73.1559
 31
0.0
  0
LINE
  8
0
 62
     0
 10
92.819
 20
73.1559
 30
0.0
 11
92.819
 21
73.7553
 31
0.0
  0
LINE
  8
0
 62
     0
 10
92.819
 20
73.7553
 30
0.0
 11
78.8197
 21
73.7553
 31
0.0
  0
ENDSEC
  0
EOF
