M48
INCH,TZ
T1C0.031
T2C0.039
T3C0.039
T4C0.069
T5C0.087
T6C0.120
T7C0.157
%
G90
G05
T1
X2.8091Y-1.8406
X2.8091Y-2.1161
T2
X5.0191Y-3.0909
X5.0991Y-3.0909
T3
X5.0591Y-2.8909
T4
X1.8586Y-4.3029
X2.2336Y-2.0529
X2.2336Y-2.8029
X2.2336Y-3.5529
X2.2336Y-4.3029
X2.2586Y-4.3029
X2.6086Y-4.3029
X2.6336Y-2.0529
X2.6336Y-2.8029
X2.6336Y-3.5529
X2.6336Y-4.3029
X2.9836Y-2.0529
X2.9836Y-2.8029
X2.9836Y-3.5529
X2.9836Y-4.3029
X3.0086Y-4.3029
X3.3586Y-4.3029
X3.3836Y-2.0529
X3.3836Y-2.8029
X3.3836Y-3.5529
X3.3836Y-4.3029
X3.7336Y-2.0529
X3.7336Y-2.8029
X3.7336Y-3.5529
X3.7586Y-4.3029
X4.1336Y-2.0529
X4.1336Y-2.8029
X4.1336Y-3.5529
X4.4836Y-2.0529
X4.4836Y-2.8029
X4.4836Y-3.5529
X4.8836Y-2.0529
X4.8836Y-2.8029
X4.8836Y-3.5529
X5.2336Y-2.0529
X5.2336Y-2.8029
X5.2336Y-3.5529
X5.6336Y-2.0529
X5.6336Y-2.8029
X5.6336Y-3.5529
T5
X2.4311Y-2.4272
X2.4331Y-3.9764
X3.1811Y-2.4272
X3.185Y-3.9744
X5.0591Y-2.1417
X5.0591Y-3.4646
T6
X1.9636Y-4.5779
X2.7136Y-4.5779
X2.9036Y-4.5779
X3.6536Y-4.5779
T7
X1.9636Y-3.9779
X2.0586Y-4.3029
X2.4336Y-2.0529
X2.4336Y-2.8029
X2.4336Y-3.5529
X2.4336Y-4.3029
X2.7136Y-3.9779
X2.8086Y-4.3029
X2.9036Y-3.9779
X3.1836Y-2.0529
X3.1836Y-2.8029
X3.1836Y-3.5529
X3.1836Y-4.3029
X3.5586Y-4.3029
X3.6536Y-3.9779
X3.9336Y-2.0529
X3.9336Y-2.8029
X3.9336Y-3.5529
X4.6836Y-2.0529
X4.6836Y-2.8029
X4.6836Y-3.5529
X5.4336Y-2.0529
X5.4336Y-2.8029
X5.4336Y-3.5529
T0
M30
