G04 #@! TF.FileFunction,Soldermask,Bot*
%FSLAX46Y46*%
G04 Gerber Fmt 4.6, Leading zero omitted, Abs format (unit mm)*
G04 Created by KiCad (PCBNEW 4.0.7) date 06/12/18 21:15:04*
%MOMM*%
%LPD*%
G01*
G04 APERTURE LIST*
%ADD10C,0.100000*%
%ADD11C,0.010000*%
%ADD12C,2.100000*%
%ADD13O,2.100000X2.100000*%
%ADD14O,2.000000X2.400000*%
%ADD15C,1.200000*%
%ADD16C,2.650000*%
%ADD17C,2.650000*%
%ADD18C,4.387800*%
%ADD19C,2.150000*%
%ADD20R,2.750000X1.200000*%
%ADD21R,0.900000X1.800000*%
%ADD22O,1.900000X4.400000*%
%ADD23C,3.448000*%
%ADD24R,0.950000X1.900000*%
%ADD25R,1.900000X0.950000*%
%ADD26R,1.600000X1.150000*%
%ADD27R,1.960000X1.050000*%
%ADD28C,1.184860*%
%ADD29C,1.388060*%
%ADD30C,1.385520*%
%ADD31C,1.924000*%
%ADD32R,1.150000X1.600000*%
%ADD33R,1.600000X1.300000*%
%ADD34R,2.430000X3.050000*%
%ADD35C,2.600000*%
G04 APERTURE END LIST*
D10*
D11*
G36*
X109247928Y-76941189D02*
X108967719Y-76967606D01*
X108688222Y-77014253D01*
X108672440Y-77017498D01*
X108414784Y-77081256D01*
X108160906Y-77164424D01*
X107912338Y-77266214D01*
X107670615Y-77385839D01*
X107437269Y-77522513D01*
X107213834Y-77675449D01*
X107001844Y-77843861D01*
X106918180Y-77917574D01*
X106789656Y-78038716D01*
X106674171Y-78157560D01*
X106566226Y-78280124D01*
X106460320Y-78412429D01*
X106432625Y-78448920D01*
X106272573Y-78678117D01*
X106131321Y-78914839D01*
X106008652Y-79159571D01*
X105904348Y-79412797D01*
X105818191Y-79675001D01*
X105749962Y-79946669D01*
X105742061Y-79984349D01*
X105697077Y-80253043D01*
X105671568Y-80523734D01*
X105665523Y-80794760D01*
X105678933Y-81064460D01*
X105711786Y-81331174D01*
X105751510Y-81538805D01*
X105772725Y-81629136D01*
X105797252Y-81725222D01*
X105823383Y-81820842D01*
X105849412Y-81909774D01*
X105873629Y-81985799D01*
X105876675Y-81994760D01*
X105901238Y-82061831D01*
X105932247Y-82139542D01*
X105967838Y-82223783D01*
X106006150Y-82310446D01*
X106045316Y-82395423D01*
X106083476Y-82474603D01*
X106118763Y-82543880D01*
X106149316Y-82599144D01*
X106155477Y-82609440D01*
X106182393Y-82653496D01*
X106214511Y-82705976D01*
X106246390Y-82757995D01*
X106258101Y-82777080D01*
X106281871Y-82813897D01*
X106315055Y-82862646D01*
X106354704Y-82919134D01*
X106397868Y-82979165D01*
X106441600Y-83038545D01*
X106446858Y-83045577D01*
X106559806Y-83186934D01*
X106687295Y-83329896D01*
X106824563Y-83469705D01*
X106966855Y-83601601D01*
X107109409Y-83720826D01*
X107164423Y-83763142D01*
X107223434Y-83806740D01*
X107283611Y-83850133D01*
X107340759Y-83890371D01*
X107390683Y-83924506D01*
X107429189Y-83949590D01*
X107432920Y-83951899D01*
X107482189Y-83982114D01*
X107535555Y-84014791D01*
X107584130Y-84044492D01*
X107600560Y-84054523D01*
X107643303Y-84078779D01*
X107700935Y-84108823D01*
X107769527Y-84142778D01*
X107845152Y-84178766D01*
X107923881Y-84214908D01*
X108001784Y-84249326D01*
X108057760Y-84273067D01*
X108243263Y-84342496D01*
X108443159Y-84403300D01*
X108653018Y-84454509D01*
X108868408Y-84495149D01*
X109084899Y-84524249D01*
X109271880Y-84539487D01*
X109341376Y-84543258D01*
X109396538Y-84545889D01*
X109442571Y-84547376D01*
X109484679Y-84547713D01*
X109528065Y-84546897D01*
X109577934Y-84544921D01*
X109639489Y-84541781D01*
X109688440Y-84539103D01*
X109936453Y-84517123D01*
X110181133Y-84478472D01*
X110424594Y-84422613D01*
X110668947Y-84349004D01*
X110916305Y-84257109D01*
X111095600Y-84180154D01*
X111221152Y-84118740D01*
X111355205Y-84044829D01*
X111493117Y-83961422D01*
X111630246Y-83871521D01*
X111761950Y-83778126D01*
X111883586Y-83684238D01*
X111954120Y-83625177D01*
X112154055Y-83438597D01*
X112339909Y-83238787D01*
X112510945Y-83026987D01*
X112666427Y-82804442D01*
X112805618Y-82572393D01*
X112927781Y-82332082D01*
X113032178Y-82084752D01*
X113118074Y-81831645D01*
X113184730Y-81574004D01*
X113192502Y-81537560D01*
X113240295Y-81258121D01*
X113267856Y-80977937D01*
X113273685Y-80755160D01*
X112597697Y-80755160D01*
X112593165Y-80916576D01*
X112582534Y-81074864D01*
X112565871Y-81224418D01*
X112562527Y-81248000D01*
X112523489Y-81452477D01*
X112466413Y-81660207D01*
X112392601Y-81868217D01*
X112303358Y-82073533D01*
X112199987Y-82273183D01*
X112083792Y-82464192D01*
X111956076Y-82643589D01*
X111943421Y-82659882D01*
X111779552Y-82852881D01*
X111601535Y-83031566D01*
X111410291Y-83195253D01*
X111206742Y-83343259D01*
X110991812Y-83474897D01*
X110766421Y-83589486D01*
X110589306Y-83664511D01*
X110454797Y-83712037D01*
X110307913Y-83755558D01*
X110155639Y-83793372D01*
X110004961Y-83823776D01*
X109862865Y-83845068D01*
X109835760Y-83848118D01*
X109787881Y-83853189D01*
X109744537Y-83857816D01*
X109711636Y-83861367D01*
X109698600Y-83862803D01*
X109664098Y-83865205D01*
X109613720Y-83866783D01*
X109551893Y-83867571D01*
X109483043Y-83867605D01*
X109411598Y-83866917D01*
X109341983Y-83865543D01*
X109278626Y-83863517D01*
X109225952Y-83860873D01*
X109200760Y-83858952D01*
X108949221Y-83825687D01*
X108701301Y-83772859D01*
X108458594Y-83700948D01*
X108222691Y-83610433D01*
X107995182Y-83501794D01*
X107967851Y-83487200D01*
X107890455Y-83442671D01*
X107803277Y-83387940D01*
X107711495Y-83326558D01*
X107620289Y-83262073D01*
X107534835Y-83198037D01*
X107468480Y-83144853D01*
X107280706Y-82975257D01*
X107108692Y-82793134D01*
X106952847Y-82599266D01*
X106813576Y-82394434D01*
X106691286Y-82179421D01*
X106586383Y-81955008D01*
X106499276Y-81721977D01*
X106430368Y-81481111D01*
X106380069Y-81233192D01*
X106350075Y-80993945D01*
X106345390Y-80918703D01*
X106343037Y-80829408D01*
X106342893Y-80731427D01*
X106344832Y-80630128D01*
X106348732Y-80530878D01*
X106354470Y-80439045D01*
X106361920Y-80359996D01*
X106365290Y-80333600D01*
X106396345Y-80149267D01*
X106437118Y-79966650D01*
X106486130Y-79791607D01*
X106541899Y-79629994D01*
X106545489Y-79620694D01*
X106644848Y-79392026D01*
X106761060Y-79173053D01*
X106893197Y-78964718D01*
X107040333Y-78767964D01*
X107201539Y-78583733D01*
X107375889Y-78412969D01*
X107562455Y-78256615D01*
X107760311Y-78115613D01*
X107968528Y-77990906D01*
X108186179Y-77883437D01*
X108301600Y-77835141D01*
X108450173Y-77779021D01*
X108587163Y-77732725D01*
X108716815Y-77695465D01*
X108843376Y-77666448D01*
X108971090Y-77644886D01*
X109104203Y-77629987D01*
X109246961Y-77620962D01*
X109403608Y-77617020D01*
X109475080Y-77616691D01*
X109588252Y-77617333D01*
X109685361Y-77619392D01*
X109770639Y-77623234D01*
X109848317Y-77629228D01*
X109922626Y-77637741D01*
X109997798Y-77649143D01*
X110078062Y-77663801D01*
X110125320Y-77673263D01*
X110230225Y-77698066D01*
X110346887Y-77731330D01*
X110469631Y-77771078D01*
X110592781Y-77815330D01*
X110710662Y-77862107D01*
X110817598Y-77909430D01*
X110855655Y-77927880D01*
X111029885Y-78022488D01*
X111202445Y-78130819D01*
X111369509Y-78249995D01*
X111527253Y-78377137D01*
X111671851Y-78509367D01*
X111784596Y-78626991D01*
X111949231Y-78825509D01*
X112096163Y-79032933D01*
X112225061Y-79248559D01*
X112335597Y-79471687D01*
X112427440Y-79701615D01*
X112500262Y-79937641D01*
X112553732Y-80179062D01*
X112574009Y-80308200D01*
X112588187Y-80445366D01*
X112596060Y-80596222D01*
X112597697Y-80755160D01*
X113273685Y-80755160D01*
X113275192Y-80697596D01*
X113262310Y-80417691D01*
X113229218Y-80138811D01*
X113175922Y-79861548D01*
X113172303Y-79845920D01*
X113110805Y-79620283D01*
X113031555Y-79391785D01*
X112936059Y-79164046D01*
X112825825Y-78940686D01*
X112713690Y-78743824D01*
X112586561Y-78551283D01*
X112441750Y-78361270D01*
X112281896Y-78176601D01*
X112109634Y-78000092D01*
X111927602Y-77834558D01*
X111738437Y-77682815D01*
X111679536Y-77639572D01*
X111468924Y-77499375D01*
X111246464Y-77372255D01*
X111015366Y-77259681D01*
X110778841Y-77163122D01*
X110540099Y-77084048D01*
X110364080Y-77037697D01*
X110086926Y-76983259D01*
X109808122Y-76949023D01*
X109528259Y-76934998D01*
X109247928Y-76941189D01*
X109247928Y-76941189D01*
G37*
X109247928Y-76941189D02*
X108967719Y-76967606D01*
X108688222Y-77014253D01*
X108672440Y-77017498D01*
X108414784Y-77081256D01*
X108160906Y-77164424D01*
X107912338Y-77266214D01*
X107670615Y-77385839D01*
X107437269Y-77522513D01*
X107213834Y-77675449D01*
X107001844Y-77843861D01*
X106918180Y-77917574D01*
X106789656Y-78038716D01*
X106674171Y-78157560D01*
X106566226Y-78280124D01*
X106460320Y-78412429D01*
X106432625Y-78448920D01*
X106272573Y-78678117D01*
X106131321Y-78914839D01*
X106008652Y-79159571D01*
X105904348Y-79412797D01*
X105818191Y-79675001D01*
X105749962Y-79946669D01*
X105742061Y-79984349D01*
X105697077Y-80253043D01*
X105671568Y-80523734D01*
X105665523Y-80794760D01*
X105678933Y-81064460D01*
X105711786Y-81331174D01*
X105751510Y-81538805D01*
X105772725Y-81629136D01*
X105797252Y-81725222D01*
X105823383Y-81820842D01*
X105849412Y-81909774D01*
X105873629Y-81985799D01*
X105876675Y-81994760D01*
X105901238Y-82061831D01*
X105932247Y-82139542D01*
X105967838Y-82223783D01*
X106006150Y-82310446D01*
X106045316Y-82395423D01*
X106083476Y-82474603D01*
X106118763Y-82543880D01*
X106149316Y-82599144D01*
X106155477Y-82609440D01*
X106182393Y-82653496D01*
X106214511Y-82705976D01*
X106246390Y-82757995D01*
X106258101Y-82777080D01*
X106281871Y-82813897D01*
X106315055Y-82862646D01*
X106354704Y-82919134D01*
X106397868Y-82979165D01*
X106441600Y-83038545D01*
X106446858Y-83045577D01*
X106559806Y-83186934D01*
X106687295Y-83329896D01*
X106824563Y-83469705D01*
X106966855Y-83601601D01*
X107109409Y-83720826D01*
X107164423Y-83763142D01*
X107223434Y-83806740D01*
X107283611Y-83850133D01*
X107340759Y-83890371D01*
X107390683Y-83924506D01*
X107429189Y-83949590D01*
X107432920Y-83951899D01*
X107482189Y-83982114D01*
X107535555Y-84014791D01*
X107584130Y-84044492D01*
X107600560Y-84054523D01*
X107643303Y-84078779D01*
X107700935Y-84108823D01*
X107769527Y-84142778D01*
X107845152Y-84178766D01*
X107923881Y-84214908D01*
X108001784Y-84249326D01*
X108057760Y-84273067D01*
X108243263Y-84342496D01*
X108443159Y-84403300D01*
X108653018Y-84454509D01*
X108868408Y-84495149D01*
X109084899Y-84524249D01*
X109271880Y-84539487D01*
X109341376Y-84543258D01*
X109396538Y-84545889D01*
X109442571Y-84547376D01*
X109484679Y-84547713D01*
X109528065Y-84546897D01*
X109577934Y-84544921D01*
X109639489Y-84541781D01*
X109688440Y-84539103D01*
X109936453Y-84517123D01*
X110181133Y-84478472D01*
X110424594Y-84422613D01*
X110668947Y-84349004D01*
X110916305Y-84257109D01*
X111095600Y-84180154D01*
X111221152Y-84118740D01*
X111355205Y-84044829D01*
X111493117Y-83961422D01*
X111630246Y-83871521D01*
X111761950Y-83778126D01*
X111883586Y-83684238D01*
X111954120Y-83625177D01*
X112154055Y-83438597D01*
X112339909Y-83238787D01*
X112510945Y-83026987D01*
X112666427Y-82804442D01*
X112805618Y-82572393D01*
X112927781Y-82332082D01*
X113032178Y-82084752D01*
X113118074Y-81831645D01*
X113184730Y-81574004D01*
X113192502Y-81537560D01*
X113240295Y-81258121D01*
X113267856Y-80977937D01*
X113273685Y-80755160D01*
X112597697Y-80755160D01*
X112593165Y-80916576D01*
X112582534Y-81074864D01*
X112565871Y-81224418D01*
X112562527Y-81248000D01*
X112523489Y-81452477D01*
X112466413Y-81660207D01*
X112392601Y-81868217D01*
X112303358Y-82073533D01*
X112199987Y-82273183D01*
X112083792Y-82464192D01*
X111956076Y-82643589D01*
X111943421Y-82659882D01*
X111779552Y-82852881D01*
X111601535Y-83031566D01*
X111410291Y-83195253D01*
X111206742Y-83343259D01*
X110991812Y-83474897D01*
X110766421Y-83589486D01*
X110589306Y-83664511D01*
X110454797Y-83712037D01*
X110307913Y-83755558D01*
X110155639Y-83793372D01*
X110004961Y-83823776D01*
X109862865Y-83845068D01*
X109835760Y-83848118D01*
X109787881Y-83853189D01*
X109744537Y-83857816D01*
X109711636Y-83861367D01*
X109698600Y-83862803D01*
X109664098Y-83865205D01*
X109613720Y-83866783D01*
X109551893Y-83867571D01*
X109483043Y-83867605D01*
X109411598Y-83866917D01*
X109341983Y-83865543D01*
X109278626Y-83863517D01*
X109225952Y-83860873D01*
X109200760Y-83858952D01*
X108949221Y-83825687D01*
X108701301Y-83772859D01*
X108458594Y-83700948D01*
X108222691Y-83610433D01*
X107995182Y-83501794D01*
X107967851Y-83487200D01*
X107890455Y-83442671D01*
X107803277Y-83387940D01*
X107711495Y-83326558D01*
X107620289Y-83262073D01*
X107534835Y-83198037D01*
X107468480Y-83144853D01*
X107280706Y-82975257D01*
X107108692Y-82793134D01*
X106952847Y-82599266D01*
X106813576Y-82394434D01*
X106691286Y-82179421D01*
X106586383Y-81955008D01*
X106499276Y-81721977D01*
X106430368Y-81481111D01*
X106380069Y-81233192D01*
X106350075Y-80993945D01*
X106345390Y-80918703D01*
X106343037Y-80829408D01*
X106342893Y-80731427D01*
X106344832Y-80630128D01*
X106348732Y-80530878D01*
X106354470Y-80439045D01*
X106361920Y-80359996D01*
X106365290Y-80333600D01*
X106396345Y-80149267D01*
X106437118Y-79966650D01*
X106486130Y-79791607D01*
X106541899Y-79629994D01*
X106545489Y-79620694D01*
X106644848Y-79392026D01*
X106761060Y-79173053D01*
X106893197Y-78964718D01*
X107040333Y-78767964D01*
X107201539Y-78583733D01*
X107375889Y-78412969D01*
X107562455Y-78256615D01*
X107760311Y-78115613D01*
X107968528Y-77990906D01*
X108186179Y-77883437D01*
X108301600Y-77835141D01*
X108450173Y-77779021D01*
X108587163Y-77732725D01*
X108716815Y-77695465D01*
X108843376Y-77666448D01*
X108971090Y-77644886D01*
X109104203Y-77629987D01*
X109246961Y-77620962D01*
X109403608Y-77617020D01*
X109475080Y-77616691D01*
X109588252Y-77617333D01*
X109685361Y-77619392D01*
X109770639Y-77623234D01*
X109848317Y-77629228D01*
X109922626Y-77637741D01*
X109997798Y-77649143D01*
X110078062Y-77663801D01*
X110125320Y-77673263D01*
X110230225Y-77698066D01*
X110346887Y-77731330D01*
X110469631Y-77771078D01*
X110592781Y-77815330D01*
X110710662Y-77862107D01*
X110817598Y-77909430D01*
X110855655Y-77927880D01*
X111029885Y-78022488D01*
X111202445Y-78130819D01*
X111369509Y-78249995D01*
X111527253Y-78377137D01*
X111671851Y-78509367D01*
X111784596Y-78626991D01*
X111949231Y-78825509D01*
X112096163Y-79032933D01*
X112225061Y-79248559D01*
X112335597Y-79471687D01*
X112427440Y-79701615D01*
X112500262Y-79937641D01*
X112553732Y-80179062D01*
X112574009Y-80308200D01*
X112588187Y-80445366D01*
X112596060Y-80596222D01*
X112597697Y-80755160D01*
X113273685Y-80755160D01*
X113275192Y-80697596D01*
X113262310Y-80417691D01*
X113229218Y-80138811D01*
X113175922Y-79861548D01*
X113172303Y-79845920D01*
X113110805Y-79620283D01*
X113031555Y-79391785D01*
X112936059Y-79164046D01*
X112825825Y-78940686D01*
X112713690Y-78743824D01*
X112586561Y-78551283D01*
X112441750Y-78361270D01*
X112281896Y-78176601D01*
X112109634Y-78000092D01*
X111927602Y-77834558D01*
X111738437Y-77682815D01*
X111679536Y-77639572D01*
X111468924Y-77499375D01*
X111246464Y-77372255D01*
X111015366Y-77259681D01*
X110778841Y-77163122D01*
X110540099Y-77084048D01*
X110364080Y-77037697D01*
X110086926Y-76983259D01*
X109808122Y-76949023D01*
X109528259Y-76934998D01*
X109247928Y-76941189D01*
G36*
X107773280Y-80394560D02*
X108454000Y-80394560D01*
X108454000Y-79713840D01*
X108794496Y-79713840D01*
X109134991Y-79713839D01*
X109132316Y-80056740D01*
X109129640Y-80399640D01*
X108791820Y-80402316D01*
X108454000Y-80404993D01*
X108454000Y-81075280D01*
X109134720Y-81075280D01*
X109134720Y-82436720D01*
X109805136Y-82436720D01*
X109810360Y-81080360D01*
X110153260Y-81077684D01*
X110496160Y-81075009D01*
X110496160Y-82436720D01*
X111166720Y-82436720D01*
X111166720Y-80052371D01*
X110496160Y-80052371D01*
X110495960Y-80133414D01*
X110495393Y-80207918D01*
X110494505Y-80273462D01*
X110493347Y-80327626D01*
X110491965Y-80367990D01*
X110490410Y-80392135D01*
X110489252Y-80398081D01*
X110477789Y-80399658D01*
X110448437Y-80400949D01*
X110403627Y-80401924D01*
X110345790Y-80402554D01*
X110277356Y-80402808D01*
X110200755Y-80402656D01*
X110146352Y-80402314D01*
X109810360Y-80399640D01*
X109810360Y-79718920D01*
X110153260Y-79716244D01*
X110496160Y-79713569D01*
X110496160Y-80052371D01*
X111166720Y-80052371D01*
X111166720Y-79043280D01*
X107773280Y-79043280D01*
X107773280Y-80394560D01*
X107773280Y-80394560D01*
G37*
X107773280Y-80394560D02*
X108454000Y-80394560D01*
X108454000Y-79713840D01*
X108794496Y-79713840D01*
X109134991Y-79713839D01*
X109132316Y-80056740D01*
X109129640Y-80399640D01*
X108791820Y-80402316D01*
X108454000Y-80404993D01*
X108454000Y-81075280D01*
X109134720Y-81075280D01*
X109134720Y-82436720D01*
X109805136Y-82436720D01*
X109810360Y-81080360D01*
X110153260Y-81077684D01*
X110496160Y-81075009D01*
X110496160Y-82436720D01*
X111166720Y-82436720D01*
X111166720Y-80052371D01*
X110496160Y-80052371D01*
X110495960Y-80133414D01*
X110495393Y-80207918D01*
X110494505Y-80273462D01*
X110493347Y-80327626D01*
X110491965Y-80367990D01*
X110490410Y-80392135D01*
X110489252Y-80398081D01*
X110477789Y-80399658D01*
X110448437Y-80400949D01*
X110403627Y-80401924D01*
X110345790Y-80402554D01*
X110277356Y-80402808D01*
X110200755Y-80402656D01*
X110146352Y-80402314D01*
X109810360Y-80399640D01*
X109810360Y-79718920D01*
X110153260Y-79716244D01*
X110496160Y-79713569D01*
X110496160Y-80052371D01*
X111166720Y-80052371D01*
X111166720Y-79043280D01*
X107773280Y-79043280D01*
X107773280Y-80394560D01*
G36*
X107773280Y-82436720D02*
X108454145Y-82436720D01*
X108451533Y-81758540D01*
X108448920Y-81080360D01*
X107773280Y-81075006D01*
X107773280Y-82436720D01*
X107773280Y-82436720D01*
G37*
X107773280Y-82436720D02*
X108454145Y-82436720D01*
X108451533Y-81758540D01*
X108448920Y-81080360D01*
X107773280Y-81075006D01*
X107773280Y-82436720D01*
D12*
X139300000Y-75720000D03*
D13*
X136760000Y-75720000D03*
X139300000Y-78260000D03*
X136760000Y-78260000D03*
X139300000Y-80800000D03*
X136760000Y-80800000D03*
X139300000Y-83340000D03*
X136760000Y-83340000D03*
D14*
X73650000Y-56450000D03*
X69050000Y-55350000D03*
X69050000Y-48350000D03*
D15*
X71350000Y-53750000D03*
X71350000Y-46750000D03*
D14*
X69050000Y-51350000D03*
D16*
X59312500Y-56643750D02*
X59272500Y-57223750D01*
D17*
X59272500Y-57223750D03*
D16*
X65622500Y-54683750D02*
X64312498Y-56143750D01*
D18*
X61812500Y-52143750D03*
D17*
X64312500Y-56143750D03*
D19*
X66892500Y-52143750D03*
X56732500Y-52143750D03*
D16*
X64312500Y-66693750D02*
X64352500Y-66113750D01*
D17*
X64352500Y-66113750D03*
D16*
X58002500Y-68653750D02*
X59312502Y-67193750D01*
D18*
X61812500Y-71193750D03*
D17*
X59312500Y-67193750D03*
D19*
X56732500Y-71193750D03*
X66892500Y-71193750D03*
D16*
X78362500Y-56643750D02*
X78322500Y-57223750D01*
D17*
X78322500Y-57223750D03*
D16*
X84672500Y-54683750D02*
X83362498Y-56143750D01*
D18*
X80862500Y-52143750D03*
D17*
X83362500Y-56143750D03*
D19*
X85942500Y-52143750D03*
X75782500Y-52143750D03*
D16*
X83362500Y-66693750D02*
X83402500Y-66113750D01*
D17*
X83402500Y-66113750D03*
D16*
X77052500Y-68653750D02*
X78362502Y-67193750D01*
D18*
X80862500Y-71193750D03*
D17*
X78362500Y-67193750D03*
D19*
X75782500Y-71193750D03*
X85942500Y-71193750D03*
D16*
X97412500Y-56643750D02*
X97372500Y-57223750D01*
D17*
X97372500Y-57223750D03*
D16*
X103722500Y-54683750D02*
X102412498Y-56143750D01*
D18*
X99912500Y-52143750D03*
D17*
X102412500Y-56143750D03*
D19*
X104992500Y-52143750D03*
X94832500Y-52143750D03*
D16*
X102412500Y-66693750D02*
X102452500Y-66113750D01*
D17*
X102452500Y-66113750D03*
D16*
X96102500Y-68653750D02*
X97412502Y-67193750D01*
D18*
X99912500Y-71193750D03*
D17*
X97412500Y-67193750D03*
D19*
X94832500Y-71193750D03*
X104992500Y-71193750D03*
D16*
X116462500Y-56643750D02*
X116422500Y-57223750D01*
D17*
X116422500Y-57223750D03*
D16*
X122772500Y-54683750D02*
X121462498Y-56143750D01*
D18*
X118962500Y-52143750D03*
D17*
X121462500Y-56143750D03*
D19*
X124042500Y-52143750D03*
X113882500Y-52143750D03*
D16*
X121462500Y-66693750D02*
X121502500Y-66113750D01*
D17*
X121502500Y-66113750D03*
D16*
X115152500Y-68653750D02*
X116462502Y-67193750D01*
D18*
X118962500Y-71193750D03*
D17*
X116462500Y-67193750D03*
D19*
X113882500Y-71193750D03*
X124042500Y-71193750D03*
D16*
X135512500Y-56643750D02*
X135472500Y-57223750D01*
D17*
X135472500Y-57223750D03*
D16*
X141822500Y-54683750D02*
X140512498Y-56143750D01*
D18*
X138012500Y-52143750D03*
D17*
X140512500Y-56143750D03*
D19*
X143092500Y-52143750D03*
X132932500Y-52143750D03*
D16*
X140512500Y-66693750D02*
X140552500Y-66113750D01*
D17*
X140552500Y-66113750D03*
D16*
X134202500Y-68653750D02*
X135512502Y-67193750D01*
D18*
X138012500Y-71193750D03*
D17*
X135512500Y-67193750D03*
D19*
X132932500Y-71193750D03*
X143092500Y-71193750D03*
D20*
X112105000Y-44560000D03*
X106755000Y-44560000D03*
D21*
X107830000Y-49760000D03*
X108630000Y-49760000D03*
X109430000Y-49760000D03*
X110230000Y-49760000D03*
X111030000Y-49760000D03*
D22*
X105780000Y-47360000D03*
X113080000Y-47360000D03*
D16*
X59312500Y-94743750D02*
X59272500Y-95323750D01*
D17*
X59272500Y-95323750D03*
D16*
X65622500Y-92783750D02*
X64312498Y-94243750D01*
D18*
X61812500Y-90243750D03*
D17*
X64312500Y-94243750D03*
D19*
X66892500Y-90243750D03*
X56732500Y-90243750D03*
D16*
X78362500Y-94743750D02*
X78322500Y-95323750D01*
D17*
X78322500Y-95323750D03*
D16*
X84672500Y-92783750D02*
X83362498Y-94243750D01*
D18*
X80862500Y-90243750D03*
D17*
X83362500Y-94243750D03*
D19*
X85942500Y-90243750D03*
X75782500Y-90243750D03*
D16*
X97412500Y-94743750D02*
X97372500Y-95323750D01*
D17*
X97372500Y-95323750D03*
D16*
X103722500Y-92783750D02*
X102412498Y-94243750D01*
D18*
X99912500Y-90243750D03*
D17*
X102412500Y-94243750D03*
D19*
X104992500Y-90243750D03*
X94832500Y-90243750D03*
D16*
X116462500Y-94743750D02*
X116422500Y-95323750D01*
D17*
X116422500Y-95323750D03*
D16*
X122772500Y-92783750D02*
X121462498Y-94243750D01*
D18*
X118962500Y-90243750D03*
D17*
X121462500Y-94243750D03*
D19*
X124042500Y-90243750D03*
X113882500Y-90243750D03*
D16*
X135512500Y-94743750D02*
X135472500Y-95323750D01*
D17*
X135472500Y-95323750D03*
D16*
X141822500Y-92783750D02*
X140512498Y-94243750D01*
D18*
X138012500Y-90243750D03*
D17*
X140512500Y-94243750D03*
D19*
X143092500Y-90243750D03*
X132932500Y-90243750D03*
D16*
X49787500Y-113793750D02*
X49747500Y-114373750D01*
D17*
X49747500Y-114373750D03*
D16*
X56097500Y-111833750D02*
X54787498Y-113293750D01*
D18*
X52287500Y-109293750D03*
D17*
X54787500Y-113293750D03*
D19*
X57367500Y-109293750D03*
X47207500Y-109293750D03*
D16*
X78362500Y-113793750D02*
X78322500Y-114373750D01*
D17*
X78322500Y-114373750D03*
D16*
X84672500Y-111833750D02*
X83362498Y-113293750D01*
D18*
X80862500Y-109293750D03*
D17*
X83362500Y-113293750D03*
D19*
X85942500Y-109293750D03*
X75782500Y-109293750D03*
D23*
X92800500Y-116278750D03*
X68924500Y-116278750D03*
D18*
X92800500Y-101038750D03*
X68924500Y-101038750D03*
D16*
X87887500Y-113793750D02*
X87847500Y-114373750D01*
D17*
X87847500Y-114373750D03*
D16*
X94197500Y-111833750D02*
X92887498Y-113293750D01*
D18*
X90387500Y-109293750D03*
D17*
X92887500Y-113293750D03*
D19*
X95467500Y-109293750D03*
X85307500Y-109293750D03*
D16*
X59312500Y-113793750D02*
X59272500Y-114373750D01*
D17*
X59272500Y-114373750D03*
D16*
X65622500Y-111833750D02*
X64312498Y-113293750D01*
D18*
X61812500Y-109293750D03*
D17*
X64312500Y-113293750D03*
D19*
X66892500Y-109293750D03*
X56732500Y-109293750D03*
D23*
X73750500Y-116278750D03*
X49874500Y-116278750D03*
D18*
X73750500Y-101038750D03*
X49874500Y-101038750D03*
D16*
X68837500Y-113793750D02*
X68797500Y-114373750D01*
D17*
X68797500Y-114373750D03*
D16*
X75147500Y-111833750D02*
X73837498Y-113293750D01*
D18*
X71337500Y-109293750D03*
D17*
X73837500Y-113293750D03*
D19*
X76417500Y-109293750D03*
X66257500Y-109293750D03*
D24*
X113450000Y-86418750D03*
X112650000Y-86418750D03*
X111850000Y-86418750D03*
X111050000Y-86418750D03*
X110250000Y-86418750D03*
X109450000Y-86418750D03*
X108650000Y-86418750D03*
X107850000Y-86418750D03*
X107050000Y-86418750D03*
X106250000Y-86418750D03*
X105450000Y-86418750D03*
D25*
X103750000Y-84718750D03*
X103750000Y-83918750D03*
X103750000Y-83118750D03*
X103750000Y-82318750D03*
X103750000Y-81518750D03*
X103750000Y-80718750D03*
X103750000Y-79918750D03*
X103750000Y-79118750D03*
X103750000Y-78318750D03*
X103750000Y-77518750D03*
X103750000Y-76718750D03*
D24*
X105450000Y-75018750D03*
X106250000Y-75018750D03*
X107050000Y-75018750D03*
X107850000Y-75018750D03*
X108650000Y-75018750D03*
X109450000Y-75018750D03*
X110250000Y-75018750D03*
X111050000Y-75018750D03*
X111850000Y-75018750D03*
X112650000Y-75018750D03*
X113450000Y-75018750D03*
D25*
X115150000Y-76718750D03*
X115150000Y-77518750D03*
X115150000Y-78318750D03*
X115150000Y-79118750D03*
X115150000Y-79918750D03*
X115150000Y-80718750D03*
X115150000Y-81518750D03*
X115150000Y-82318750D03*
X115150000Y-83118750D03*
X115150000Y-83918750D03*
X115150000Y-84718750D03*
D26*
X106500000Y-88750000D03*
X108400000Y-88750000D03*
D12*
X91730000Y-75760000D03*
D13*
X89190000Y-75760000D03*
X91730000Y-78300000D03*
X89190000Y-78300000D03*
X91730000Y-80840000D03*
X89190000Y-80840000D03*
X91730000Y-83380000D03*
X89190000Y-83380000D03*
D27*
X98450000Y-76850000D03*
X98450000Y-75900000D03*
X98450000Y-74950000D03*
X101150000Y-74950000D03*
X101150000Y-76850000D03*
D28*
X129135000Y-74700000D03*
X127865000Y-74700000D03*
X129135000Y-77240000D03*
X127865000Y-77240000D03*
D29*
X128500000Y-73430000D03*
D30*
X127484000Y-78510000D03*
X129516000Y-78510000D03*
D31*
X131040000Y-74700000D03*
X125960000Y-74700000D03*
X131040000Y-77240000D03*
X125960000Y-77240000D03*
D32*
X99800000Y-78600000D03*
X99800000Y-80500000D03*
X101500000Y-78600000D03*
X101500000Y-80500000D03*
X117500000Y-81300000D03*
X117500000Y-79400000D03*
D26*
X112400000Y-72700000D03*
X110500000Y-72700000D03*
D33*
X110400000Y-69400000D03*
X112600000Y-69400000D03*
X110400000Y-67600000D03*
X112600000Y-67600000D03*
D34*
X90330000Y-71870000D03*
X90330000Y-67690000D03*
D12*
X119900000Y-77200000D03*
D13*
X122440000Y-77200000D03*
D35*
X61800000Y-101000000D03*
X80900000Y-100950000D03*
X128500000Y-88000000D03*
X128500000Y-54400000D03*
X80800000Y-61650000D03*
X61750000Y-61650000D03*
M02*
