G04 #@! TF.FileFunction,Copper,L1,Top,Signal*
%FSLAX46Y46*%
G04 Gerber Fmt 4.6, Leading zero omitted, Abs format (unit mm)*
G04 Created by KiCad (PCBNEW 4.0.7) date 06/12/18 21:15:04*
%MOMM*%
%LPD*%
G01*
G04 APERTURE LIST*
%ADD10C,0.100000*%
%ADD11C,1.700000*%
%ADD12O,1.700000X1.700000*%
%ADD13O,1.600000X2.000000*%
%ADD14C,2.250000*%
%ADD15C,2.250000*%
%ADD16O,1.500000X4.000000*%
%ADD17C,1.524000*%
%ADD18C,0.600000*%
%ADD19C,0.381000*%
%ADD20C,0.254000*%
G04 APERTURE END LIST*
D10*
D11*
X139300000Y-75720000D03*
D12*
X136760000Y-75720000D03*
X139300000Y-78260000D03*
X136760000Y-78260000D03*
X139300000Y-80800000D03*
X136760000Y-80800000D03*
X139300000Y-83340000D03*
X136760000Y-83340000D03*
D13*
X73650000Y-56450000D03*
X69050000Y-55350000D03*
X69050000Y-48350000D03*
X69050000Y-51350000D03*
D14*
X59312500Y-56643750D02*
X59272500Y-57223750D01*
D15*
X59272500Y-57223750D03*
D14*
X65622500Y-54683750D02*
X64312498Y-56143750D01*
D15*
X64312500Y-56143750D03*
D14*
X64312500Y-66693750D02*
X64352500Y-66113750D01*
D15*
X64352500Y-66113750D03*
D14*
X58002500Y-68653750D02*
X59312502Y-67193750D01*
D15*
X59312500Y-67193750D03*
D14*
X78362500Y-56643750D02*
X78322500Y-57223750D01*
D15*
X78322500Y-57223750D03*
D14*
X84672500Y-54683750D02*
X83362498Y-56143750D01*
D15*
X83362500Y-56143750D03*
D14*
X83362500Y-66693750D02*
X83402500Y-66113750D01*
D15*
X83402500Y-66113750D03*
D14*
X77052500Y-68653750D02*
X78362502Y-67193750D01*
D15*
X78362500Y-67193750D03*
D14*
X97412500Y-56643750D02*
X97372500Y-57223750D01*
D15*
X97372500Y-57223750D03*
D14*
X103722500Y-54683750D02*
X102412498Y-56143750D01*
D15*
X102412500Y-56143750D03*
D14*
X102412500Y-66693750D02*
X102452500Y-66113750D01*
D15*
X102452500Y-66113750D03*
D14*
X96102500Y-68653750D02*
X97412502Y-67193750D01*
D15*
X97412500Y-67193750D03*
D14*
X116462500Y-56643750D02*
X116422500Y-57223750D01*
D15*
X116422500Y-57223750D03*
D14*
X122772500Y-54683750D02*
X121462498Y-56143750D01*
D15*
X121462500Y-56143750D03*
D14*
X121462500Y-66693750D02*
X121502500Y-66113750D01*
D15*
X121502500Y-66113750D03*
D14*
X115152500Y-68653750D02*
X116462502Y-67193750D01*
D15*
X116462500Y-67193750D03*
D14*
X135512500Y-56643750D02*
X135472500Y-57223750D01*
D15*
X135472500Y-57223750D03*
D14*
X141822500Y-54683750D02*
X140512498Y-56143750D01*
D15*
X140512500Y-56143750D03*
D14*
X140512500Y-66693750D02*
X140552500Y-66113750D01*
D15*
X140552500Y-66113750D03*
D14*
X134202500Y-68653750D02*
X135512502Y-67193750D01*
D15*
X135512500Y-67193750D03*
D16*
X105780000Y-47360000D03*
X113080000Y-47360000D03*
D14*
X59312500Y-94743750D02*
X59272500Y-95323750D01*
D15*
X59272500Y-95323750D03*
D14*
X65622500Y-92783750D02*
X64312498Y-94243750D01*
D15*
X64312500Y-94243750D03*
D14*
X78362500Y-94743750D02*
X78322500Y-95323750D01*
D15*
X78322500Y-95323750D03*
D14*
X84672500Y-92783750D02*
X83362498Y-94243750D01*
D15*
X83362500Y-94243750D03*
D14*
X97412500Y-94743750D02*
X97372500Y-95323750D01*
D15*
X97372500Y-95323750D03*
D14*
X103722500Y-92783750D02*
X102412498Y-94243750D01*
D15*
X102412500Y-94243750D03*
D14*
X116462500Y-94743750D02*
X116422500Y-95323750D01*
D15*
X116422500Y-95323750D03*
D14*
X122772500Y-92783750D02*
X121462498Y-94243750D01*
D15*
X121462500Y-94243750D03*
D14*
X135512500Y-94743750D02*
X135472500Y-95323750D01*
D15*
X135472500Y-95323750D03*
D14*
X141822500Y-92783750D02*
X140512498Y-94243750D01*
D15*
X140512500Y-94243750D03*
D14*
X49787500Y-113793750D02*
X49747500Y-114373750D01*
D15*
X49747500Y-114373750D03*
D14*
X56097500Y-111833750D02*
X54787498Y-113293750D01*
D15*
X54787500Y-113293750D03*
D14*
X78362500Y-113793750D02*
X78322500Y-114373750D01*
D15*
X78322500Y-114373750D03*
D14*
X84672500Y-111833750D02*
X83362498Y-113293750D01*
D15*
X83362500Y-113293750D03*
D14*
X87887500Y-113793750D02*
X87847500Y-114373750D01*
D15*
X87847500Y-114373750D03*
D14*
X94197500Y-111833750D02*
X92887498Y-113293750D01*
D15*
X92887500Y-113293750D03*
D14*
X59312500Y-113793750D02*
X59272500Y-114373750D01*
D15*
X59272500Y-114373750D03*
D14*
X65622500Y-111833750D02*
X64312498Y-113293750D01*
D15*
X64312500Y-113293750D03*
D14*
X68837500Y-113793750D02*
X68797500Y-114373750D01*
D15*
X68797500Y-114373750D03*
D14*
X75147500Y-111833750D02*
X73837498Y-113293750D01*
D15*
X73837500Y-113293750D03*
D11*
X91730000Y-75760000D03*
D12*
X89190000Y-75760000D03*
X91730000Y-78300000D03*
X89190000Y-78300000D03*
X91730000Y-80840000D03*
X89190000Y-80840000D03*
X91730000Y-83380000D03*
X89190000Y-83380000D03*
D17*
X131040000Y-74700000D03*
X125960000Y-74700000D03*
X131040000Y-77240000D03*
X125960000Y-77240000D03*
D11*
X119900000Y-77200000D03*
D12*
X122440000Y-77200000D03*
D18*
X103070000Y-48521351D03*
X103068015Y-50085389D03*
X107452119Y-52069910D03*
X111487949Y-52070079D03*
X103910000Y-48521351D03*
X103915802Y-50087527D03*
X107440000Y-51270000D03*
X111491677Y-51270085D03*
D19*
X94197500Y-113097500D02*
X95150000Y-114050000D01*
X94197500Y-111833750D02*
X94197500Y-113097500D01*
X92733750Y-111833750D02*
X92400000Y-111500000D01*
X94197500Y-111833750D02*
X92733750Y-111833750D01*
X103068015Y-50085389D02*
X103068015Y-48523336D01*
X103068015Y-48523336D02*
X103070000Y-48521351D01*
X111487949Y-52070079D02*
X107452288Y-52070079D01*
X107452288Y-52070079D02*
X107452119Y-52069910D01*
X103915802Y-50087527D02*
X103915802Y-48527153D01*
X103915802Y-48527153D02*
X103910000Y-48521351D01*
X111491677Y-51270085D02*
X107440085Y-51270085D01*
X107440085Y-51270085D02*
X107440000Y-51270000D01*
D20*
G36*
X75647954Y-45652046D02*
X75878295Y-45805954D01*
X76150000Y-45860000D01*
X103570000Y-45860000D01*
X103841705Y-45805954D01*
X104072046Y-45652046D01*
X105864092Y-43860000D01*
X112995908Y-43860000D01*
X114787954Y-45652046D01*
X115018295Y-45805954D01*
X115290000Y-45860000D01*
X142913638Y-45860000D01*
X143480354Y-45966876D01*
X143900380Y-46241523D01*
X144183328Y-46655997D01*
X144300000Y-47213498D01*
X144300000Y-51216031D01*
X143948963Y-50864380D01*
X143394175Y-50634012D01*
X142793460Y-50633488D01*
X142238271Y-50862888D01*
X141813130Y-51287287D01*
X141582762Y-51842075D01*
X141582238Y-52442790D01*
X141784391Y-52932037D01*
X141176573Y-53041645D01*
X140597335Y-53413829D01*
X139942334Y-54143829D01*
X140219075Y-54392138D01*
X140107049Y-54395675D01*
X139926181Y-54470593D01*
X139772703Y-54332883D01*
X139117703Y-55062882D01*
X139067985Y-55162499D01*
X138989727Y-55194371D01*
X138742330Y-55849379D01*
X138764425Y-56549201D01*
X138989727Y-57093129D01*
X139045591Y-57115880D01*
X139070115Y-57152278D01*
X139351965Y-57247002D01*
X140507505Y-55959150D01*
X140512500Y-55964145D01*
X141216462Y-55260183D01*
X141360198Y-55389152D01*
X141346841Y-55404038D01*
X141391630Y-55444225D01*
X141211762Y-55624093D01*
X141177211Y-55593092D01*
X140517494Y-56328349D01*
X140512500Y-56323355D01*
X139449158Y-57386697D01*
X139563121Y-57666523D01*
X139790751Y-57752499D01*
X139808094Y-57761632D01*
X139824227Y-57765143D01*
X140218129Y-57913920D01*
X140471152Y-57905931D01*
X140480850Y-57908042D01*
X140497096Y-57905112D01*
X140917951Y-57891825D01*
X141461879Y-57666523D01*
X141503608Y-57564061D01*
X141737663Y-57413671D01*
X142019515Y-57099547D01*
X142035273Y-57093129D01*
X142042543Y-57073882D01*
X142392664Y-56683671D01*
X142241242Y-56547806D01*
X142282670Y-56438121D01*
X142276353Y-56238053D01*
X142562295Y-56494617D01*
X143217295Y-55764618D01*
X143524753Y-55148576D01*
X143573058Y-54461769D01*
X143354856Y-53808757D01*
X143264883Y-53675222D01*
X143201279Y-53653846D01*
X143391540Y-53654012D01*
X143946729Y-53424612D01*
X144300000Y-53071958D01*
X144300000Y-70266031D01*
X143948963Y-69914380D01*
X143394175Y-69684012D01*
X142793460Y-69683488D01*
X142238271Y-69912888D01*
X141813130Y-70337287D01*
X141582762Y-70892075D01*
X141582238Y-71492790D01*
X141811638Y-72047979D01*
X142236037Y-72473120D01*
X142790825Y-72703488D01*
X143391540Y-72704012D01*
X143946729Y-72474612D01*
X144300000Y-72121958D01*
X144300000Y-89316031D01*
X143948963Y-88964380D01*
X143394175Y-88734012D01*
X142793460Y-88733488D01*
X142238271Y-88962888D01*
X141813130Y-89387287D01*
X141582762Y-89942075D01*
X141582238Y-90542790D01*
X141784391Y-91032037D01*
X141176573Y-91141645D01*
X140597335Y-91513829D01*
X139942334Y-92243829D01*
X140219075Y-92492138D01*
X140107049Y-92495675D01*
X139926181Y-92570593D01*
X139772703Y-92432883D01*
X139117703Y-93162882D01*
X139067985Y-93262499D01*
X138989727Y-93294371D01*
X138742330Y-93949379D01*
X138764425Y-94649201D01*
X138989727Y-95193129D01*
X139045591Y-95215880D01*
X139070115Y-95252278D01*
X139351965Y-95347002D01*
X140507505Y-94059150D01*
X140512500Y-94064145D01*
X141216462Y-93360183D01*
X141360198Y-93489152D01*
X141346841Y-93504038D01*
X141391630Y-93544225D01*
X141211762Y-93724093D01*
X141177211Y-93693092D01*
X140517494Y-94428349D01*
X140512500Y-94423355D01*
X139449158Y-95486697D01*
X139563121Y-95766523D01*
X139790751Y-95852499D01*
X139808094Y-95861632D01*
X139824227Y-95865143D01*
X140218129Y-96013920D01*
X140471152Y-96005931D01*
X140480850Y-96008042D01*
X140497096Y-96005112D01*
X140917951Y-95991825D01*
X141461879Y-95766523D01*
X141503608Y-95664061D01*
X141737663Y-95513671D01*
X142019515Y-95199547D01*
X142035273Y-95193129D01*
X142042543Y-95173882D01*
X142392664Y-94783671D01*
X142241242Y-94647806D01*
X142282670Y-94538121D01*
X142276353Y-94338053D01*
X142562295Y-94594617D01*
X143217295Y-93864618D01*
X143524753Y-93248576D01*
X143573058Y-92561769D01*
X143354856Y-91908757D01*
X143264883Y-91775222D01*
X143201279Y-91753846D01*
X143391540Y-91754012D01*
X143946729Y-91524612D01*
X144300000Y-91171958D01*
X144300000Y-95143637D01*
X144193124Y-95710354D01*
X143918478Y-96130379D01*
X143504003Y-96413328D01*
X142946502Y-96530000D01*
X136755333Y-96530000D01*
X136963685Y-96322011D01*
X137025087Y-96174137D01*
X137045571Y-96147630D01*
X137063491Y-96081651D01*
X137232193Y-95675371D01*
X137232446Y-95385142D01*
X137271093Y-94824761D01*
X137183778Y-94143617D01*
X136842447Y-93547735D01*
X136299064Y-93127835D01*
X135636355Y-92947841D01*
X134955210Y-93035156D01*
X134359329Y-93376487D01*
X133939429Y-93919870D01*
X133759435Y-94582579D01*
X133736506Y-94915056D01*
X133712807Y-94972129D01*
X133712196Y-95672300D01*
X133794508Y-95871511D01*
X133801222Y-95923884D01*
X133854785Y-96017392D01*
X133979575Y-96319407D01*
X134092694Y-96432724D01*
X134142553Y-96519765D01*
X134155798Y-96530000D01*
X117750510Y-96530000D01*
X117779434Y-96501076D01*
X117732972Y-96454614D01*
X117866750Y-96305108D01*
X117945273Y-96273129D01*
X118192670Y-95618121D01*
X118184414Y-95356613D01*
X118189591Y-95281541D01*
X118182027Y-95281019D01*
X118173971Y-95025861D01*
X118207067Y-95028143D01*
X118227067Y-94738143D01*
X118154419Y-94378881D01*
X119669214Y-94378881D01*
X119702269Y-94508096D01*
X119702196Y-94592300D01*
X119758945Y-94729644D01*
X119839408Y-95044175D01*
X119949731Y-95191381D01*
X119969575Y-95239407D01*
X120034367Y-95304312D01*
X120251244Y-95593695D01*
X120427524Y-95698156D01*
X120464239Y-95734935D01*
X120548942Y-95770107D01*
X120842024Y-95943783D01*
X121033108Y-95971150D01*
X121110879Y-96003443D01*
X121259497Y-96003573D01*
X121521805Y-96041140D01*
X121667266Y-96003929D01*
X121811050Y-96004054D01*
X122045575Y-95907150D01*
X122187099Y-95870946D01*
X122253335Y-95821306D01*
X122458157Y-95736675D01*
X122734965Y-95460349D01*
X122736619Y-95459110D01*
X122740159Y-95455165D01*
X122953685Y-95242011D01*
X122972870Y-95195807D01*
X124118339Y-93919180D01*
X124468427Y-93328401D01*
X124565784Y-92648619D01*
X124395590Y-91983326D01*
X124223654Y-91753909D01*
X124341540Y-91754012D01*
X124896729Y-91524612D01*
X125321870Y-91100213D01*
X125552238Y-90545425D01*
X125552240Y-90542790D01*
X131422238Y-90542790D01*
X131651638Y-91097979D01*
X132076037Y-91523120D01*
X132630825Y-91753488D01*
X133231540Y-91754012D01*
X133786729Y-91524612D01*
X134211870Y-91100213D01*
X134351321Y-90764376D01*
X135383145Y-90764376D01*
X135782528Y-91730957D01*
X136521404Y-92471123D01*
X137487285Y-92872192D01*
X138533126Y-92873105D01*
X139499707Y-92473722D01*
X140239873Y-91734846D01*
X140640942Y-90768965D01*
X140641855Y-89723124D01*
X140242472Y-88756543D01*
X139503596Y-88016377D01*
X138537715Y-87615308D01*
X137491874Y-87614395D01*
X136525293Y-88013778D01*
X135785127Y-88752654D01*
X135384058Y-89718535D01*
X135383145Y-90764376D01*
X134351321Y-90764376D01*
X134442238Y-90545425D01*
X134442762Y-89944710D01*
X134213362Y-89389521D01*
X133788963Y-88964380D01*
X133234175Y-88734012D01*
X132633460Y-88733488D01*
X132078271Y-88962888D01*
X131653130Y-89387287D01*
X131422762Y-89942075D01*
X131422238Y-90542790D01*
X125552240Y-90542790D01*
X125552762Y-89944710D01*
X125323362Y-89389521D01*
X124898963Y-88964380D01*
X124344175Y-88734012D01*
X123743460Y-88733488D01*
X123188271Y-88962888D01*
X122763130Y-89387287D01*
X122532762Y-89942075D01*
X122532238Y-90542790D01*
X122715664Y-90986714D01*
X122713193Y-90986360D01*
X122047899Y-91156554D01*
X121498379Y-91568391D01*
X120184804Y-93032372D01*
X119971315Y-93245489D01*
X119821330Y-93606692D01*
X119766571Y-93699100D01*
X119757942Y-93759348D01*
X119702807Y-93892129D01*
X119702586Y-94145869D01*
X119669214Y-94378881D01*
X118154419Y-94378881D01*
X118090602Y-94063299D01*
X117706272Y-93492047D01*
X117132590Y-93111356D01*
X116979518Y-93061402D01*
X116699022Y-93160064D01*
X116671785Y-93555003D01*
X116416626Y-93563059D01*
X116445624Y-93142588D01*
X116181328Y-93006354D01*
X116022846Y-93034822D01*
X115402335Y-93333154D01*
X114943224Y-93846237D01*
X114715409Y-94495959D01*
X114695409Y-94785959D01*
X114743029Y-94789243D01*
X114652330Y-95029379D01*
X114660586Y-95290884D01*
X114657933Y-95329357D01*
X114662517Y-95352024D01*
X114674425Y-95729201D01*
X114899727Y-96273129D01*
X115003862Y-96315539D01*
X115103301Y-96463341D01*
X115065566Y-96501076D01*
X115094490Y-96530000D01*
X99370000Y-96530000D01*
X99297986Y-96544325D01*
X99224564Y-96545055D01*
X98458609Y-96705352D01*
X98816750Y-96305108D01*
X98895273Y-96273129D01*
X99142670Y-95618121D01*
X99134414Y-95356613D01*
X99139591Y-95281541D01*
X99132027Y-95281019D01*
X99123971Y-95025861D01*
X99157067Y-95028143D01*
X99177067Y-94738143D01*
X99104419Y-94378881D01*
X100619214Y-94378881D01*
X100652269Y-94508096D01*
X100652196Y-94592300D01*
X100708945Y-94729644D01*
X100789408Y-95044175D01*
X100899731Y-95191381D01*
X100919575Y-95239407D01*
X100984367Y-95304312D01*
X101201244Y-95593695D01*
X101377524Y-95698156D01*
X101414239Y-95734935D01*
X101498942Y-95770107D01*
X101792024Y-95943783D01*
X101983108Y-95971150D01*
X102060879Y-96003443D01*
X102209497Y-96003573D01*
X102471805Y-96041140D01*
X102617266Y-96003929D01*
X102761050Y-96004054D01*
X102995575Y-95907150D01*
X103137099Y-95870946D01*
X103203335Y-95821306D01*
X103408157Y-95736675D01*
X103684965Y-95460349D01*
X103686619Y-95459110D01*
X103690159Y-95455165D01*
X103903685Y-95242011D01*
X103922870Y-95195807D01*
X105068339Y-93919180D01*
X105418427Y-93328401D01*
X105515784Y-92648619D01*
X105345590Y-91983326D01*
X105173654Y-91753909D01*
X105291540Y-91754012D01*
X105846729Y-91524612D01*
X106271870Y-91100213D01*
X106502238Y-90545425D01*
X106502240Y-90542790D01*
X112372238Y-90542790D01*
X112601638Y-91097979D01*
X113026037Y-91523120D01*
X113580825Y-91753488D01*
X114181540Y-91754012D01*
X114736729Y-91524612D01*
X115161870Y-91100213D01*
X115301321Y-90764376D01*
X116333145Y-90764376D01*
X116732528Y-91730957D01*
X117471404Y-92471123D01*
X118437285Y-92872192D01*
X119483126Y-92873105D01*
X120449707Y-92473722D01*
X121189873Y-91734846D01*
X121590942Y-90768965D01*
X121591855Y-89723124D01*
X121192472Y-88756543D01*
X120780248Y-88343599D01*
X126764699Y-88343599D01*
X127028281Y-88981515D01*
X127515918Y-89470004D01*
X128153373Y-89734699D01*
X128843599Y-89735301D01*
X129481515Y-89471719D01*
X129970004Y-88984082D01*
X130234699Y-88346627D01*
X130235301Y-87656401D01*
X129971719Y-87018485D01*
X129484082Y-86529996D01*
X128846627Y-86265301D01*
X128156401Y-86264699D01*
X127518485Y-86528281D01*
X127029996Y-87015918D01*
X126765301Y-87653373D01*
X126764699Y-88343599D01*
X120780248Y-88343599D01*
X120453596Y-88016377D01*
X119487715Y-87615308D01*
X118441874Y-87614395D01*
X117475293Y-88013778D01*
X116735127Y-88752654D01*
X116334058Y-89718535D01*
X116333145Y-90764376D01*
X115301321Y-90764376D01*
X115392238Y-90545425D01*
X115392762Y-89944710D01*
X115163362Y-89389521D01*
X114738963Y-88964380D01*
X114184175Y-88734012D01*
X113583460Y-88733488D01*
X113028271Y-88962888D01*
X112603130Y-89387287D01*
X112372762Y-89942075D01*
X112372238Y-90542790D01*
X106502240Y-90542790D01*
X106502762Y-89944710D01*
X106273362Y-89389521D01*
X105848963Y-88964380D01*
X105294175Y-88734012D01*
X104693460Y-88733488D01*
X104138271Y-88962888D01*
X103713130Y-89387287D01*
X103482762Y-89942075D01*
X103482238Y-90542790D01*
X103665664Y-90986714D01*
X103663193Y-90986360D01*
X102997899Y-91156554D01*
X102448379Y-91568391D01*
X101134804Y-93032372D01*
X100921315Y-93245489D01*
X100771330Y-93606692D01*
X100716571Y-93699100D01*
X100707942Y-93759348D01*
X100652807Y-93892129D01*
X100652586Y-94145869D01*
X100619214Y-94378881D01*
X99104419Y-94378881D01*
X99040602Y-94063299D01*
X98656272Y-93492047D01*
X98082590Y-93111356D01*
X97929518Y-93061402D01*
X97649022Y-93160064D01*
X97621785Y-93555003D01*
X97366626Y-93563059D01*
X97395624Y-93142588D01*
X97131328Y-93006354D01*
X96972846Y-93034822D01*
X96352335Y-93333154D01*
X95893224Y-93846237D01*
X95665409Y-94495959D01*
X95645409Y-94785959D01*
X95693029Y-94789243D01*
X95602330Y-95029379D01*
X95610586Y-95290884D01*
X95607933Y-95329357D01*
X95612517Y-95352024D01*
X95624425Y-95729201D01*
X95849727Y-96273129D01*
X95953862Y-96315539D01*
X96128728Y-96575453D01*
X96380866Y-96742770D01*
X96423121Y-96846523D01*
X96687952Y-96946550D01*
X96702410Y-96956144D01*
X96782892Y-96982409D01*
X97078129Y-97093920D01*
X97339627Y-97085664D01*
X97378109Y-97088318D01*
X97378376Y-97084440D01*
X97777951Y-97071825D01*
X97896927Y-97022544D01*
X97554264Y-97256469D01*
X97541904Y-97269078D01*
X97360334Y-97454296D01*
X96931109Y-98110722D01*
X96833226Y-98353848D01*
X96827647Y-98367705D01*
X96682299Y-99138422D01*
X96683055Y-99214369D01*
X96670000Y-99280000D01*
X96670000Y-108361022D01*
X96323963Y-108014380D01*
X95769175Y-107784012D01*
X95168460Y-107783488D01*
X94613271Y-108012888D01*
X94188130Y-108437287D01*
X93957762Y-108992075D01*
X93957238Y-109592790D01*
X94159391Y-110082037D01*
X93551573Y-110191645D01*
X92972335Y-110563829D01*
X92317334Y-111293829D01*
X92594075Y-111542138D01*
X92482049Y-111545675D01*
X92301181Y-111620593D01*
X92147703Y-111482883D01*
X91492703Y-112212882D01*
X91442985Y-112312499D01*
X91364727Y-112344371D01*
X91117330Y-112999379D01*
X91139425Y-113699201D01*
X91364727Y-114243129D01*
X91420591Y-114265880D01*
X91445115Y-114302278D01*
X91635410Y-114366232D01*
X91530566Y-114471076D01*
X91542961Y-114483471D01*
X90971256Y-115054178D01*
X90641876Y-115847414D01*
X90641175Y-116650000D01*
X75909176Y-116650000D01*
X75909874Y-115851183D01*
X75581878Y-115057373D01*
X75075148Y-114549757D01*
X75344515Y-114249547D01*
X75360273Y-114243129D01*
X75367543Y-114223882D01*
X75497199Y-114079379D01*
X76552330Y-114079379D01*
X76560586Y-114340884D01*
X76557933Y-114379357D01*
X76562517Y-114402024D01*
X76574425Y-114779201D01*
X76799727Y-115323129D01*
X76903862Y-115365539D01*
X77078728Y-115625453D01*
X77330866Y-115792770D01*
X77373121Y-115896523D01*
X77637952Y-115996550D01*
X77652410Y-116006144D01*
X77732892Y-116032409D01*
X78028129Y-116143920D01*
X78289627Y-116135664D01*
X78328109Y-116138318D01*
X78328376Y-116134440D01*
X78727951Y-116121825D01*
X79271879Y-115896523D01*
X79301714Y-115823266D01*
X79382665Y-115784346D01*
X79766750Y-115355108D01*
X79845273Y-115323129D01*
X80092670Y-114668121D01*
X80084414Y-114406613D01*
X80089591Y-114331541D01*
X80082027Y-114331019D01*
X80073971Y-114075861D01*
X80107067Y-114078143D01*
X80127067Y-113788143D01*
X80054419Y-113428881D01*
X81569214Y-113428881D01*
X81602269Y-113558096D01*
X81602196Y-113642300D01*
X81658945Y-113779644D01*
X81739408Y-114094175D01*
X81849731Y-114241381D01*
X81869575Y-114289407D01*
X81934367Y-114354312D01*
X82151244Y-114643695D01*
X82327524Y-114748156D01*
X82364239Y-114784935D01*
X82448942Y-114820107D01*
X82742024Y-114993783D01*
X82933108Y-115021150D01*
X83010879Y-115053443D01*
X83159497Y-115053573D01*
X83421805Y-115091140D01*
X83567266Y-115053929D01*
X83711050Y-115054054D01*
X83945575Y-114957150D01*
X84087099Y-114920946D01*
X84153335Y-114871306D01*
X84358157Y-114786675D01*
X84422644Y-114722300D01*
X86087196Y-114722300D01*
X86169508Y-114921511D01*
X86176222Y-114973884D01*
X86229785Y-115067392D01*
X86354575Y-115369407D01*
X86467694Y-115482724D01*
X86517553Y-115569765D01*
X86679545Y-115694944D01*
X86849239Y-115864935D01*
X86957931Y-115910068D01*
X87060936Y-115989665D01*
X87317326Y-116059301D01*
X87495879Y-116133443D01*
X87590608Y-116133526D01*
X87723645Y-116169659D01*
X88002716Y-116133885D01*
X88196050Y-116134054D01*
X88283600Y-116097879D01*
X88404790Y-116082344D01*
X88621168Y-115958399D01*
X88843157Y-115866675D01*
X88926448Y-115783529D01*
X89000671Y-115741013D01*
X89107416Y-115602877D01*
X89338685Y-115372011D01*
X89400087Y-115224137D01*
X89420571Y-115197630D01*
X89438491Y-115131651D01*
X89607193Y-114725371D01*
X89607446Y-114435142D01*
X89646093Y-113874761D01*
X89558778Y-113193617D01*
X89217447Y-112597735D01*
X88674064Y-112177835D01*
X88011355Y-111997841D01*
X87330210Y-112085156D01*
X86734329Y-112426487D01*
X86314429Y-112969870D01*
X86134435Y-113632579D01*
X86111506Y-113965056D01*
X86087807Y-114022129D01*
X86087196Y-114722300D01*
X84422644Y-114722300D01*
X84634965Y-114510349D01*
X84636619Y-114509110D01*
X84640159Y-114505165D01*
X84853685Y-114292011D01*
X84872870Y-114245807D01*
X86018339Y-112969180D01*
X86368427Y-112378401D01*
X86465784Y-111698619D01*
X86295590Y-111033326D01*
X86123654Y-110803909D01*
X86241540Y-110804012D01*
X86796729Y-110574612D01*
X87221870Y-110150213D01*
X87361321Y-109814376D01*
X87758145Y-109814376D01*
X88157528Y-110780957D01*
X88896404Y-111521123D01*
X89862285Y-111922192D01*
X90908126Y-111923105D01*
X91874707Y-111523722D01*
X92614873Y-110784846D01*
X93015942Y-109818965D01*
X93016855Y-108773124D01*
X92617472Y-107806543D01*
X91878596Y-107066377D01*
X90912715Y-106665308D01*
X89866874Y-106664395D01*
X88900293Y-107063778D01*
X88160127Y-107802654D01*
X87759058Y-108768535D01*
X87758145Y-109814376D01*
X87361321Y-109814376D01*
X87452238Y-109595425D01*
X87452762Y-108994710D01*
X87223362Y-108439521D01*
X86798963Y-108014380D01*
X86244175Y-107784012D01*
X85643460Y-107783488D01*
X85625643Y-107790850D01*
X85609175Y-107784012D01*
X85008460Y-107783488D01*
X84453271Y-108012888D01*
X84028130Y-108437287D01*
X83797762Y-108992075D01*
X83797238Y-109592790D01*
X84026638Y-110147979D01*
X84057199Y-110178593D01*
X83947899Y-110206554D01*
X83398379Y-110618391D01*
X82084804Y-112082372D01*
X81871315Y-112295489D01*
X81721330Y-112656692D01*
X81666571Y-112749100D01*
X81657942Y-112809348D01*
X81602807Y-112942129D01*
X81602586Y-113195869D01*
X81569214Y-113428881D01*
X80054419Y-113428881D01*
X79990602Y-113113299D01*
X79606272Y-112542047D01*
X79032590Y-112161356D01*
X78879518Y-112111402D01*
X78599022Y-112210064D01*
X78571785Y-112605003D01*
X78316626Y-112613059D01*
X78345624Y-112192588D01*
X78081328Y-112056354D01*
X77922846Y-112084822D01*
X77302335Y-112383154D01*
X76843224Y-112896237D01*
X76615409Y-113545959D01*
X76595409Y-113835959D01*
X76643029Y-113839243D01*
X76552330Y-114079379D01*
X75497199Y-114079379D01*
X75717664Y-113833671D01*
X75566242Y-113697806D01*
X75607670Y-113588121D01*
X75601353Y-113388053D01*
X75887295Y-113644617D01*
X76542295Y-112914618D01*
X76849753Y-112298576D01*
X76898058Y-111611769D01*
X76679856Y-110958757D01*
X76589883Y-110825222D01*
X76526279Y-110803846D01*
X76716540Y-110804012D01*
X77271729Y-110574612D01*
X77696870Y-110150213D01*
X77836321Y-109814376D01*
X78233145Y-109814376D01*
X78632528Y-110780957D01*
X79371404Y-111521123D01*
X80337285Y-111922192D01*
X81383126Y-111923105D01*
X82349707Y-111523722D01*
X83089873Y-110784846D01*
X83490942Y-109818965D01*
X83491855Y-108773124D01*
X83092472Y-107806543D01*
X82353596Y-107066377D01*
X81387715Y-106665308D01*
X80341874Y-106664395D01*
X79375293Y-107063778D01*
X78635127Y-107802654D01*
X78234058Y-108768535D01*
X78233145Y-109814376D01*
X77836321Y-109814376D01*
X77927238Y-109595425D01*
X77927762Y-108994710D01*
X77698362Y-108439521D01*
X77273963Y-108014380D01*
X76719175Y-107784012D01*
X76118460Y-107783488D01*
X76100643Y-107790850D01*
X76084175Y-107784012D01*
X75483460Y-107783488D01*
X74928271Y-108012888D01*
X74503130Y-108437287D01*
X74272762Y-108992075D01*
X74272238Y-109592790D01*
X74501638Y-110147979D01*
X74538568Y-110184974D01*
X74501573Y-110191645D01*
X73922335Y-110563829D01*
X73267334Y-111293829D01*
X73544075Y-111542138D01*
X73432049Y-111545675D01*
X73251181Y-111620593D01*
X73097703Y-111482883D01*
X72442703Y-112212882D01*
X72392985Y-112312499D01*
X72314727Y-112344371D01*
X72067330Y-112999379D01*
X72089425Y-113699201D01*
X72314727Y-114243129D01*
X72370591Y-114265880D01*
X72395115Y-114302278D01*
X72585410Y-114366232D01*
X72480566Y-114471076D01*
X72492961Y-114483471D01*
X71921256Y-115054178D01*
X71591876Y-115847414D01*
X71591175Y-116650000D01*
X71083176Y-116650000D01*
X71083874Y-115851183D01*
X70755878Y-115057373D01*
X70518199Y-114819279D01*
X70557193Y-114725371D01*
X70557446Y-114435142D01*
X70596093Y-113874761D01*
X70508778Y-113193617D01*
X70167447Y-112597735D01*
X69624064Y-112177835D01*
X68961355Y-111997841D01*
X68280210Y-112085156D01*
X67684329Y-112426487D01*
X67264429Y-112969870D01*
X67084435Y-113632579D01*
X67061506Y-113965056D01*
X67037807Y-114022129D01*
X67037196Y-114722300D01*
X67119508Y-114921511D01*
X67126222Y-114973884D01*
X67144218Y-115005301D01*
X67095256Y-115054178D01*
X66765876Y-115847414D01*
X66765175Y-116650000D01*
X52033176Y-116650000D01*
X52033874Y-115851183D01*
X51705878Y-115057373D01*
X51462670Y-114813740D01*
X51517670Y-114668121D01*
X51509414Y-114406613D01*
X51514591Y-114331541D01*
X51507027Y-114331019D01*
X51498971Y-114075861D01*
X51532067Y-114078143D01*
X51552067Y-113788143D01*
X51479419Y-113428881D01*
X52994214Y-113428881D01*
X53027269Y-113558096D01*
X53027196Y-113642300D01*
X53083945Y-113779644D01*
X53164408Y-114094175D01*
X53274731Y-114241381D01*
X53294575Y-114289407D01*
X53359367Y-114354312D01*
X53576244Y-114643695D01*
X53752524Y-114748156D01*
X53789239Y-114784935D01*
X53873942Y-114820107D01*
X54167024Y-114993783D01*
X54358108Y-115021150D01*
X54435879Y-115053443D01*
X54584497Y-115053573D01*
X54846805Y-115091140D01*
X54992266Y-115053929D01*
X55136050Y-115054054D01*
X55370575Y-114957150D01*
X55512099Y-114920946D01*
X55578335Y-114871306D01*
X55783157Y-114786675D01*
X56059965Y-114510349D01*
X56061619Y-114509110D01*
X56065159Y-114505165D01*
X56278685Y-114292011D01*
X56297870Y-114245807D01*
X56447199Y-114079379D01*
X57502330Y-114079379D01*
X57510586Y-114340884D01*
X57507933Y-114379357D01*
X57512517Y-114402024D01*
X57524425Y-114779201D01*
X57749727Y-115323129D01*
X57853862Y-115365539D01*
X58028728Y-115625453D01*
X58280866Y-115792770D01*
X58323121Y-115896523D01*
X58587952Y-115996550D01*
X58602410Y-116006144D01*
X58682892Y-116032409D01*
X58978129Y-116143920D01*
X59239627Y-116135664D01*
X59278109Y-116138318D01*
X59278376Y-116134440D01*
X59677951Y-116121825D01*
X60221879Y-115896523D01*
X60251714Y-115823266D01*
X60332665Y-115784346D01*
X60716750Y-115355108D01*
X60795273Y-115323129D01*
X61042670Y-114668121D01*
X61034414Y-114406613D01*
X61039591Y-114331541D01*
X61032027Y-114331019D01*
X61023971Y-114075861D01*
X61057067Y-114078143D01*
X61077067Y-113788143D01*
X61004419Y-113428881D01*
X62519214Y-113428881D01*
X62552269Y-113558096D01*
X62552196Y-113642300D01*
X62608945Y-113779644D01*
X62689408Y-114094175D01*
X62799731Y-114241381D01*
X62819575Y-114289407D01*
X62884367Y-114354312D01*
X63101244Y-114643695D01*
X63277524Y-114748156D01*
X63314239Y-114784935D01*
X63398942Y-114820107D01*
X63692024Y-114993783D01*
X63883108Y-115021150D01*
X63960879Y-115053443D01*
X64109497Y-115053573D01*
X64371805Y-115091140D01*
X64517266Y-115053929D01*
X64661050Y-115054054D01*
X64895575Y-114957150D01*
X65037099Y-114920946D01*
X65103335Y-114871306D01*
X65308157Y-114786675D01*
X65584965Y-114510349D01*
X65586619Y-114509110D01*
X65590159Y-114505165D01*
X65803685Y-114292011D01*
X65822870Y-114245807D01*
X66968339Y-112969180D01*
X67318427Y-112378401D01*
X67415784Y-111698619D01*
X67245590Y-111033326D01*
X67073654Y-110803909D01*
X67191540Y-110804012D01*
X67746729Y-110574612D01*
X68171870Y-110150213D01*
X68311321Y-109814376D01*
X68708145Y-109814376D01*
X69107528Y-110780957D01*
X69846404Y-111521123D01*
X70812285Y-111922192D01*
X71858126Y-111923105D01*
X72824707Y-111523722D01*
X73564873Y-110784846D01*
X73965942Y-109818965D01*
X73966855Y-108773124D01*
X73567472Y-107806543D01*
X72828596Y-107066377D01*
X71862715Y-106665308D01*
X70816874Y-106664395D01*
X69850293Y-107063778D01*
X69110127Y-107802654D01*
X68709058Y-108768535D01*
X68708145Y-109814376D01*
X68311321Y-109814376D01*
X68402238Y-109595425D01*
X68402762Y-108994710D01*
X68173362Y-108439521D01*
X67748963Y-108014380D01*
X67194175Y-107784012D01*
X66593460Y-107783488D01*
X66575643Y-107790850D01*
X66559175Y-107784012D01*
X65958460Y-107783488D01*
X65403271Y-108012888D01*
X64978130Y-108437287D01*
X64747762Y-108992075D01*
X64747238Y-109592790D01*
X64976638Y-110147979D01*
X65007199Y-110178593D01*
X64897899Y-110206554D01*
X64348379Y-110618391D01*
X63034804Y-112082372D01*
X62821315Y-112295489D01*
X62671330Y-112656692D01*
X62616571Y-112749100D01*
X62607942Y-112809348D01*
X62552807Y-112942129D01*
X62552586Y-113195869D01*
X62519214Y-113428881D01*
X61004419Y-113428881D01*
X60940602Y-113113299D01*
X60556272Y-112542047D01*
X59982590Y-112161356D01*
X59829518Y-112111402D01*
X59549022Y-112210064D01*
X59521785Y-112605003D01*
X59266626Y-112613059D01*
X59295624Y-112192588D01*
X59031328Y-112056354D01*
X58872846Y-112084822D01*
X58252335Y-112383154D01*
X57793224Y-112896237D01*
X57565409Y-113545959D01*
X57545409Y-113835959D01*
X57593029Y-113839243D01*
X57502330Y-114079379D01*
X56447199Y-114079379D01*
X57443339Y-112969180D01*
X57793427Y-112378401D01*
X57890784Y-111698619D01*
X57720590Y-111033326D01*
X57548654Y-110803909D01*
X57666540Y-110804012D01*
X58221729Y-110574612D01*
X58646870Y-110150213D01*
X58786321Y-109814376D01*
X59183145Y-109814376D01*
X59582528Y-110780957D01*
X60321404Y-111521123D01*
X61287285Y-111922192D01*
X62333126Y-111923105D01*
X63299707Y-111523722D01*
X64039873Y-110784846D01*
X64440942Y-109818965D01*
X64441855Y-108773124D01*
X64042472Y-107806543D01*
X63303596Y-107066377D01*
X62337715Y-106665308D01*
X61291874Y-106664395D01*
X60325293Y-107063778D01*
X59585127Y-107802654D01*
X59184058Y-108768535D01*
X59183145Y-109814376D01*
X58786321Y-109814376D01*
X58877238Y-109595425D01*
X58877762Y-108994710D01*
X58648362Y-108439521D01*
X58223963Y-108014380D01*
X57669175Y-107784012D01*
X57068460Y-107783488D01*
X57050643Y-107790850D01*
X57034175Y-107784012D01*
X56433460Y-107783488D01*
X55878271Y-108012888D01*
X55453130Y-108437287D01*
X55222762Y-108992075D01*
X55222238Y-109592790D01*
X55451638Y-110147979D01*
X55482199Y-110178593D01*
X55372899Y-110206554D01*
X54823379Y-110618391D01*
X53509804Y-112082372D01*
X53296315Y-112295489D01*
X53146330Y-112656692D01*
X53091571Y-112749100D01*
X53082942Y-112809348D01*
X53027807Y-112942129D01*
X53027586Y-113195869D01*
X52994214Y-113428881D01*
X51479419Y-113428881D01*
X51415602Y-113113299D01*
X51031272Y-112542047D01*
X50457590Y-112161356D01*
X50304518Y-112111402D01*
X50024022Y-112210064D01*
X49996785Y-112605003D01*
X49741626Y-112613059D01*
X49770624Y-112192588D01*
X49506328Y-112056354D01*
X49347846Y-112084822D01*
X48727335Y-112383154D01*
X48268224Y-112896237D01*
X48040409Y-113545959D01*
X48020409Y-113835959D01*
X48068029Y-113839243D01*
X47977330Y-114079379D01*
X47985586Y-114340884D01*
X47982933Y-114379357D01*
X47987517Y-114402024D01*
X47999425Y-114779201D01*
X48093412Y-115006106D01*
X48045256Y-115054178D01*
X47715876Y-115847414D01*
X47715175Y-116650000D01*
X47386363Y-116650000D01*
X46819646Y-116543124D01*
X46399621Y-116268478D01*
X46116672Y-115854003D01*
X46000000Y-115296502D01*
X46000000Y-110221469D01*
X46351037Y-110573120D01*
X46905825Y-110803488D01*
X47506540Y-110804012D01*
X48061729Y-110574612D01*
X48486870Y-110150213D01*
X48626321Y-109814376D01*
X49658145Y-109814376D01*
X50057528Y-110780957D01*
X50796404Y-111521123D01*
X51762285Y-111922192D01*
X52808126Y-111923105D01*
X53774707Y-111523722D01*
X54514873Y-110784846D01*
X54915942Y-109818965D01*
X54916855Y-108773124D01*
X54517472Y-107806543D01*
X53778596Y-107066377D01*
X52812715Y-106665308D01*
X51766874Y-106664395D01*
X50800293Y-107063778D01*
X50060127Y-107802654D01*
X49659058Y-108768535D01*
X49658145Y-109814376D01*
X48626321Y-109814376D01*
X48717238Y-109595425D01*
X48717762Y-108994710D01*
X48488362Y-108439521D01*
X48063963Y-108014380D01*
X47509175Y-107784012D01*
X46908460Y-107783488D01*
X46353271Y-108012888D01*
X46000000Y-108365542D01*
X46000000Y-101559376D01*
X47245145Y-101559376D01*
X47644528Y-102525957D01*
X48383404Y-103266123D01*
X49349285Y-103667192D01*
X50395126Y-103668105D01*
X51361707Y-103268722D01*
X52101873Y-102529846D01*
X52502942Y-101563965D01*
X52503134Y-101343599D01*
X60064699Y-101343599D01*
X60328281Y-101981515D01*
X60815918Y-102470004D01*
X61453373Y-102734699D01*
X62143599Y-102735301D01*
X62781515Y-102471719D01*
X63270004Y-101984082D01*
X63446357Y-101559376D01*
X66295145Y-101559376D01*
X66694528Y-102525957D01*
X67433404Y-103266123D01*
X68399285Y-103667192D01*
X69445126Y-103668105D01*
X70411707Y-103268722D01*
X71151873Y-102529846D01*
X71337461Y-102082901D01*
X71520528Y-102525957D01*
X72259404Y-103266123D01*
X73225285Y-103667192D01*
X74271126Y-103668105D01*
X75237707Y-103268722D01*
X75977873Y-102529846D01*
X76378942Y-101563965D01*
X76379178Y-101293599D01*
X79164699Y-101293599D01*
X79428281Y-101931515D01*
X79915918Y-102420004D01*
X80553373Y-102684699D01*
X81243599Y-102685301D01*
X81881515Y-102421719D01*
X82370004Y-101934082D01*
X82525595Y-101559376D01*
X90171145Y-101559376D01*
X90570528Y-102525957D01*
X91309404Y-103266123D01*
X92275285Y-103667192D01*
X93321126Y-103668105D01*
X94287707Y-103268722D01*
X95027873Y-102529846D01*
X95428942Y-101563965D01*
X95429855Y-100518124D01*
X95030472Y-99551543D01*
X94291596Y-98811377D01*
X93325715Y-98410308D01*
X92279874Y-98409395D01*
X91313293Y-98808778D01*
X90573127Y-99547654D01*
X90172058Y-100513535D01*
X90171145Y-101559376D01*
X82525595Y-101559376D01*
X82634699Y-101296627D01*
X82635301Y-100606401D01*
X82371719Y-99968485D01*
X81884082Y-99479996D01*
X81246627Y-99215301D01*
X80556401Y-99214699D01*
X79918485Y-99478281D01*
X79429996Y-99965918D01*
X79165301Y-100603373D01*
X79164699Y-101293599D01*
X76379178Y-101293599D01*
X76379855Y-100518124D01*
X75980472Y-99551543D01*
X75241596Y-98811377D01*
X74275715Y-98410308D01*
X73229874Y-98409395D01*
X72263293Y-98808778D01*
X71523127Y-99547654D01*
X71337539Y-99994599D01*
X71154472Y-99551543D01*
X70415596Y-98811377D01*
X69449715Y-98410308D01*
X68403874Y-98409395D01*
X67437293Y-98808778D01*
X66697127Y-99547654D01*
X66296058Y-100513535D01*
X66295145Y-101559376D01*
X63446357Y-101559376D01*
X63534699Y-101346627D01*
X63535301Y-100656401D01*
X63271719Y-100018485D01*
X62784082Y-99529996D01*
X62146627Y-99265301D01*
X61456401Y-99264699D01*
X60818485Y-99528281D01*
X60329996Y-100015918D01*
X60065301Y-100653373D01*
X60064699Y-101343599D01*
X52503134Y-101343599D01*
X52503855Y-100518124D01*
X52104472Y-99551543D01*
X51365596Y-98811377D01*
X50399715Y-98410308D01*
X49353874Y-98409395D01*
X48387293Y-98808778D01*
X47647127Y-99547654D01*
X47246058Y-100513535D01*
X47245145Y-101559376D01*
X46000000Y-101559376D01*
X46000000Y-99336362D01*
X46106876Y-98769646D01*
X46381523Y-98349620D01*
X46795997Y-98066672D01*
X47353498Y-97950000D01*
X52830000Y-97950000D01*
X52902014Y-97935675D01*
X52975436Y-97934945D01*
X53743107Y-97774289D01*
X53997980Y-97665733D01*
X54645736Y-97223531D01*
X54722566Y-97145157D01*
X54839666Y-97025704D01*
X55268891Y-96369278D01*
X55372353Y-96112295D01*
X55372353Y-96112294D01*
X55517701Y-95341578D01*
X55516945Y-95265631D01*
X55530000Y-95200000D01*
X55530000Y-95029379D01*
X57502330Y-95029379D01*
X57510586Y-95290884D01*
X57507933Y-95329357D01*
X57512517Y-95352024D01*
X57524425Y-95729201D01*
X57749727Y-96273129D01*
X57853862Y-96315539D01*
X58028728Y-96575453D01*
X58280866Y-96742770D01*
X58323121Y-96846523D01*
X58587952Y-96946550D01*
X58602410Y-96956144D01*
X58682892Y-96982409D01*
X58978129Y-97093920D01*
X59239627Y-97085664D01*
X59278109Y-97088318D01*
X59278376Y-97084440D01*
X59677951Y-97071825D01*
X60221879Y-96846523D01*
X60251714Y-96773266D01*
X60332665Y-96734346D01*
X60716750Y-96305108D01*
X60795273Y-96273129D01*
X61042670Y-95618121D01*
X61034414Y-95356613D01*
X61039591Y-95281541D01*
X61032027Y-95281019D01*
X61023971Y-95025861D01*
X61057067Y-95028143D01*
X61077067Y-94738143D01*
X61004419Y-94378881D01*
X62519214Y-94378881D01*
X62552269Y-94508096D01*
X62552196Y-94592300D01*
X62608945Y-94729644D01*
X62689408Y-95044175D01*
X62799731Y-95191381D01*
X62819575Y-95239407D01*
X62884367Y-95304312D01*
X63101244Y-95593695D01*
X63277524Y-95698156D01*
X63314239Y-95734935D01*
X63398942Y-95770107D01*
X63692024Y-95943783D01*
X63883108Y-95971150D01*
X63960879Y-96003443D01*
X64109497Y-96003573D01*
X64371805Y-96041140D01*
X64517266Y-96003929D01*
X64661050Y-96004054D01*
X64895575Y-95907150D01*
X65037099Y-95870946D01*
X65103335Y-95821306D01*
X65308157Y-95736675D01*
X65372644Y-95672300D01*
X76562196Y-95672300D01*
X76644508Y-95871511D01*
X76651222Y-95923884D01*
X76704785Y-96017392D01*
X76829575Y-96319407D01*
X76942694Y-96432724D01*
X76992553Y-96519765D01*
X77154545Y-96644944D01*
X77324239Y-96814935D01*
X77432931Y-96860068D01*
X77535936Y-96939665D01*
X77792326Y-97009301D01*
X77970879Y-97083443D01*
X78065608Y-97083526D01*
X78198645Y-97119659D01*
X78477716Y-97083885D01*
X78671050Y-97084054D01*
X78758600Y-97047879D01*
X78879790Y-97032344D01*
X79096168Y-96908399D01*
X79318157Y-96816675D01*
X79401448Y-96733529D01*
X79475671Y-96691013D01*
X79582416Y-96552877D01*
X79813685Y-96322011D01*
X79875087Y-96174137D01*
X79895571Y-96147630D01*
X79913491Y-96081651D01*
X80082193Y-95675371D01*
X80082446Y-95385142D01*
X80121093Y-94824761D01*
X80033778Y-94143617D01*
X79922516Y-93949379D01*
X81592330Y-93949379D01*
X81614425Y-94649201D01*
X81839727Y-95193129D01*
X81895591Y-95215880D01*
X81920115Y-95252278D01*
X82201965Y-95347002D01*
X83357505Y-94059150D01*
X83362500Y-94064145D01*
X84066462Y-93360183D01*
X84210198Y-93489152D01*
X84196841Y-93504038D01*
X84241630Y-93544225D01*
X84061762Y-93724093D01*
X84027211Y-93693092D01*
X83367494Y-94428349D01*
X83362500Y-94423355D01*
X82299158Y-95486697D01*
X82413121Y-95766523D01*
X82640751Y-95852499D01*
X82658094Y-95861632D01*
X82674227Y-95865143D01*
X83068129Y-96013920D01*
X83321152Y-96005931D01*
X83330850Y-96008042D01*
X83347096Y-96005112D01*
X83767951Y-95991825D01*
X84311879Y-95766523D01*
X84353608Y-95664061D01*
X84587663Y-95513671D01*
X84869515Y-95199547D01*
X84885273Y-95193129D01*
X84892543Y-95173882D01*
X85242664Y-94783671D01*
X85091242Y-94647806D01*
X85132670Y-94538121D01*
X85126353Y-94338053D01*
X85412295Y-94594617D01*
X86067295Y-93864618D01*
X86374753Y-93248576D01*
X86423058Y-92561769D01*
X86204856Y-91908757D01*
X86114883Y-91775222D01*
X86051279Y-91753846D01*
X86241540Y-91754012D01*
X86796729Y-91524612D01*
X87221870Y-91100213D01*
X87452238Y-90545425D01*
X87452240Y-90542790D01*
X93322238Y-90542790D01*
X93551638Y-91097979D01*
X93976037Y-91523120D01*
X94530825Y-91753488D01*
X95131540Y-91754012D01*
X95686729Y-91524612D01*
X96111870Y-91100213D01*
X96251321Y-90764376D01*
X97283145Y-90764376D01*
X97682528Y-91730957D01*
X98421404Y-92471123D01*
X99387285Y-92872192D01*
X100433126Y-92873105D01*
X101399707Y-92473722D01*
X102139873Y-91734846D01*
X102540942Y-90768965D01*
X102541855Y-89723124D01*
X102142472Y-88756543D01*
X101403596Y-88016377D01*
X100437715Y-87615308D01*
X99391874Y-87614395D01*
X98425293Y-88013778D01*
X97685127Y-88752654D01*
X97284058Y-89718535D01*
X97283145Y-90764376D01*
X96251321Y-90764376D01*
X96342238Y-90545425D01*
X96342762Y-89944710D01*
X96113362Y-89389521D01*
X95688963Y-88964380D01*
X95134175Y-88734012D01*
X94533460Y-88733488D01*
X93978271Y-88962888D01*
X93553130Y-89387287D01*
X93322762Y-89942075D01*
X93322238Y-90542790D01*
X87452240Y-90542790D01*
X87452762Y-89944710D01*
X87223362Y-89389521D01*
X86798963Y-88964380D01*
X86244175Y-88734012D01*
X85643460Y-88733488D01*
X85088271Y-88962888D01*
X84663130Y-89387287D01*
X84432762Y-89942075D01*
X84432238Y-90542790D01*
X84634391Y-91032037D01*
X84026573Y-91141645D01*
X83447335Y-91513829D01*
X82792334Y-92243829D01*
X83069075Y-92492138D01*
X82957049Y-92495675D01*
X82776181Y-92570593D01*
X82622703Y-92432883D01*
X81967703Y-93162882D01*
X81917985Y-93262499D01*
X81839727Y-93294371D01*
X81592330Y-93949379D01*
X79922516Y-93949379D01*
X79692447Y-93547735D01*
X79149064Y-93127835D01*
X78486355Y-92947841D01*
X77805210Y-93035156D01*
X77209329Y-93376487D01*
X76789429Y-93919870D01*
X76609435Y-94582579D01*
X76586506Y-94915056D01*
X76562807Y-94972129D01*
X76562196Y-95672300D01*
X65372644Y-95672300D01*
X65584965Y-95460349D01*
X65586619Y-95459110D01*
X65590159Y-95455165D01*
X65803685Y-95242011D01*
X65822870Y-95195807D01*
X66968339Y-93919180D01*
X67318427Y-93328401D01*
X67415784Y-92648619D01*
X67245590Y-91983326D01*
X67073654Y-91753909D01*
X67191540Y-91754012D01*
X67746729Y-91524612D01*
X68171870Y-91100213D01*
X68402238Y-90545425D01*
X68402240Y-90542790D01*
X74272238Y-90542790D01*
X74501638Y-91097979D01*
X74926037Y-91523120D01*
X75480825Y-91753488D01*
X76081540Y-91754012D01*
X76636729Y-91524612D01*
X77061870Y-91100213D01*
X77201321Y-90764376D01*
X78233145Y-90764376D01*
X78632528Y-91730957D01*
X79371404Y-92471123D01*
X80337285Y-92872192D01*
X81383126Y-92873105D01*
X82349707Y-92473722D01*
X83089873Y-91734846D01*
X83490942Y-90768965D01*
X83491855Y-89723124D01*
X83092472Y-88756543D01*
X82353596Y-88016377D01*
X81387715Y-87615308D01*
X80341874Y-87614395D01*
X79375293Y-88013778D01*
X78635127Y-88752654D01*
X78234058Y-89718535D01*
X78233145Y-90764376D01*
X77201321Y-90764376D01*
X77292238Y-90545425D01*
X77292762Y-89944710D01*
X77063362Y-89389521D01*
X76638963Y-88964380D01*
X76084175Y-88734012D01*
X75483460Y-88733488D01*
X74928271Y-88962888D01*
X74503130Y-89387287D01*
X74272762Y-89942075D01*
X74272238Y-90542790D01*
X68402240Y-90542790D01*
X68402762Y-89944710D01*
X68173362Y-89389521D01*
X67748963Y-88964380D01*
X67194175Y-88734012D01*
X66593460Y-88733488D01*
X66038271Y-88962888D01*
X65613130Y-89387287D01*
X65382762Y-89942075D01*
X65382238Y-90542790D01*
X65565664Y-90986714D01*
X65563193Y-90986360D01*
X64897899Y-91156554D01*
X64348379Y-91568391D01*
X63034804Y-93032372D01*
X62821315Y-93245489D01*
X62671330Y-93606692D01*
X62616571Y-93699100D01*
X62607942Y-93759348D01*
X62552807Y-93892129D01*
X62552586Y-94145869D01*
X62519214Y-94378881D01*
X61004419Y-94378881D01*
X60940602Y-94063299D01*
X60556272Y-93492047D01*
X59982590Y-93111356D01*
X59829518Y-93061402D01*
X59549022Y-93160064D01*
X59521785Y-93555003D01*
X59266626Y-93563059D01*
X59295624Y-93142588D01*
X59031328Y-93006354D01*
X58872846Y-93034822D01*
X58252335Y-93333154D01*
X57793224Y-93846237D01*
X57565409Y-94495959D01*
X57545409Y-94785959D01*
X57593029Y-94789243D01*
X57502330Y-95029379D01*
X55530000Y-95029379D01*
X55530000Y-91176478D01*
X55876037Y-91523120D01*
X56430825Y-91753488D01*
X57031540Y-91754012D01*
X57586729Y-91524612D01*
X58011870Y-91100213D01*
X58151321Y-90764376D01*
X59183145Y-90764376D01*
X59582528Y-91730957D01*
X60321404Y-92471123D01*
X61287285Y-92872192D01*
X62333126Y-92873105D01*
X63299707Y-92473722D01*
X64039873Y-91734846D01*
X64440942Y-90768965D01*
X64441855Y-89723124D01*
X64042472Y-88756543D01*
X63303596Y-88016377D01*
X62337715Y-87615308D01*
X61291874Y-87614395D01*
X60325293Y-88013778D01*
X59585127Y-88752654D01*
X59184058Y-89718535D01*
X59183145Y-90764376D01*
X58151321Y-90764376D01*
X58242238Y-90545425D01*
X58242762Y-89944710D01*
X58013362Y-89389521D01*
X57588963Y-88964380D01*
X57034175Y-88734012D01*
X56433460Y-88733488D01*
X55878271Y-88962888D01*
X55530000Y-89310551D01*
X55530000Y-75760000D01*
X87675907Y-75760000D01*
X87788946Y-76328285D01*
X88110853Y-76810054D01*
X88440026Y-77030000D01*
X88110853Y-77249946D01*
X87788946Y-77731715D01*
X87675907Y-78300000D01*
X87788946Y-78868285D01*
X88110853Y-79350054D01*
X88440026Y-79570000D01*
X88110853Y-79789946D01*
X87788946Y-80271715D01*
X87675907Y-80840000D01*
X87788946Y-81408285D01*
X88110853Y-81890054D01*
X88440026Y-82110000D01*
X88110853Y-82329946D01*
X87788946Y-82811715D01*
X87675907Y-83380000D01*
X87788946Y-83948285D01*
X88110853Y-84430054D01*
X88592622Y-84751961D01*
X89160907Y-84865000D01*
X89219093Y-84865000D01*
X89787378Y-84751961D01*
X90269147Y-84430054D01*
X90460000Y-84144422D01*
X90650853Y-84430054D01*
X91132622Y-84751961D01*
X91700907Y-84865000D01*
X91759093Y-84865000D01*
X92327378Y-84751961D01*
X92809147Y-84430054D01*
X93131054Y-83948285D01*
X93244093Y-83380000D01*
X93131054Y-82811715D01*
X92809147Y-82329946D01*
X92479974Y-82110000D01*
X92809147Y-81890054D01*
X93131054Y-81408285D01*
X93244093Y-80840000D01*
X93131054Y-80271715D01*
X92809147Y-79789946D01*
X92479974Y-79570000D01*
X92809147Y-79350054D01*
X93131054Y-78868285D01*
X93244093Y-78300000D01*
X93131054Y-77731715D01*
X92972278Y-77494089D01*
X118414743Y-77494089D01*
X118640344Y-78040086D01*
X119057717Y-78458188D01*
X119603319Y-78684742D01*
X120194089Y-78685257D01*
X120740086Y-78459656D01*
X121158188Y-78042283D01*
X121190229Y-77965120D01*
X121244817Y-78081358D01*
X121673076Y-78471645D01*
X122083110Y-78641476D01*
X122313000Y-78520155D01*
X122313000Y-77327000D01*
X122567000Y-77327000D01*
X122567000Y-78520155D01*
X122796890Y-78641476D01*
X123206924Y-78471645D01*
X123635183Y-78081358D01*
X123881486Y-77556892D01*
X123860370Y-77516661D01*
X124562758Y-77516661D01*
X124774990Y-78030303D01*
X125167630Y-78423629D01*
X125680900Y-78636757D01*
X126236661Y-78637242D01*
X126356172Y-78587861D01*
X126356045Y-78733341D01*
X126527374Y-79147990D01*
X126844341Y-79465511D01*
X127258691Y-79637564D01*
X127707341Y-79637955D01*
X128121990Y-79466626D01*
X128439511Y-79149659D01*
X128499936Y-79004139D01*
X128559374Y-79147990D01*
X128876341Y-79465511D01*
X129290691Y-79637564D01*
X129739341Y-79637955D01*
X130153990Y-79466626D01*
X130471511Y-79149659D01*
X130643564Y-78735309D01*
X130643692Y-78588088D01*
X130760900Y-78636757D01*
X131316661Y-78637242D01*
X131830303Y-78425010D01*
X132223629Y-78032370D01*
X132436757Y-77519100D01*
X132437242Y-76963339D01*
X132225010Y-76449697D01*
X131832370Y-76056371D01*
X131624488Y-75970051D01*
X131830303Y-75885010D01*
X131995601Y-75720000D01*
X135245907Y-75720000D01*
X135358946Y-76288285D01*
X135680853Y-76770054D01*
X136010026Y-76990000D01*
X135680853Y-77209946D01*
X135358946Y-77691715D01*
X135245907Y-78260000D01*
X135358946Y-78828285D01*
X135680853Y-79310054D01*
X136010026Y-79530000D01*
X135680853Y-79749946D01*
X135358946Y-80231715D01*
X135245907Y-80800000D01*
X135358946Y-81368285D01*
X135680853Y-81850054D01*
X136010026Y-82070000D01*
X135680853Y-82289946D01*
X135358946Y-82771715D01*
X135245907Y-83340000D01*
X135358946Y-83908285D01*
X135680853Y-84390054D01*
X136162622Y-84711961D01*
X136730907Y-84825000D01*
X136789093Y-84825000D01*
X137357378Y-84711961D01*
X137839147Y-84390054D01*
X138030000Y-84104422D01*
X138220853Y-84390054D01*
X138702622Y-84711961D01*
X139270907Y-84825000D01*
X139329093Y-84825000D01*
X139897378Y-84711961D01*
X140379147Y-84390054D01*
X140701054Y-83908285D01*
X140814093Y-83340000D01*
X140701054Y-82771715D01*
X140379147Y-82289946D01*
X140049974Y-82070000D01*
X140379147Y-81850054D01*
X140701054Y-81368285D01*
X140814093Y-80800000D01*
X140701054Y-80231715D01*
X140379147Y-79749946D01*
X140049974Y-79530000D01*
X140379147Y-79310054D01*
X140701054Y-78828285D01*
X140814093Y-78260000D01*
X140701054Y-77691715D01*
X140379147Y-77209946D01*
X140084730Y-77013223D01*
X140164353Y-76763958D01*
X139300000Y-75899605D01*
X138435647Y-76763958D01*
X138515270Y-77013223D01*
X138220853Y-77209946D01*
X138030000Y-77495578D01*
X137839147Y-77209946D01*
X137509974Y-76990000D01*
X137839147Y-76770054D01*
X138014732Y-76507271D01*
X138256042Y-76584353D01*
X139120395Y-75720000D01*
X139479605Y-75720000D01*
X140343958Y-76584353D01*
X140595259Y-76504080D01*
X140796718Y-75948721D01*
X140770315Y-75358542D01*
X140595259Y-74935920D01*
X140343958Y-74855647D01*
X139479605Y-75720000D01*
X139120395Y-75720000D01*
X138256042Y-74855647D01*
X138014732Y-74932729D01*
X137843221Y-74676042D01*
X138435647Y-74676042D01*
X139300000Y-75540395D01*
X140164353Y-74676042D01*
X140084080Y-74424741D01*
X139528721Y-74223282D01*
X138938542Y-74249685D01*
X138515920Y-74424741D01*
X138435647Y-74676042D01*
X137843221Y-74676042D01*
X137839147Y-74669946D01*
X137357378Y-74348039D01*
X136789093Y-74235000D01*
X136730907Y-74235000D01*
X136162622Y-74348039D01*
X135680853Y-74669946D01*
X135358946Y-75151715D01*
X135245907Y-75720000D01*
X131995601Y-75720000D01*
X132223629Y-75492370D01*
X132436757Y-74979100D01*
X132437242Y-74423339D01*
X132225010Y-73909697D01*
X131832370Y-73516371D01*
X131319100Y-73303243D01*
X130763339Y-73302758D01*
X130249697Y-73514990D01*
X129856371Y-73907630D01*
X129643243Y-74420900D01*
X129642758Y-74976661D01*
X129854990Y-75490303D01*
X130247630Y-75883629D01*
X130455512Y-75969949D01*
X130249697Y-76054990D01*
X129856371Y-76447630D01*
X129643243Y-76960900D01*
X129642875Y-77382350D01*
X129292659Y-77382045D01*
X128878010Y-77553374D01*
X128560489Y-77870341D01*
X128500064Y-78015861D01*
X128440626Y-77872010D01*
X128123659Y-77554489D01*
X127709309Y-77382436D01*
X127356877Y-77382129D01*
X127357242Y-76963339D01*
X127145010Y-76449697D01*
X126752370Y-76056371D01*
X126560273Y-75976605D01*
X126691143Y-75922397D01*
X126760608Y-75680213D01*
X125960000Y-74879605D01*
X125159392Y-75680213D01*
X125228857Y-75922397D01*
X125369318Y-75972509D01*
X125169697Y-76054990D01*
X124776371Y-76447630D01*
X124563243Y-76960900D01*
X124562758Y-77516661D01*
X123860370Y-77516661D01*
X123760819Y-77327000D01*
X122567000Y-77327000D01*
X122313000Y-77327000D01*
X122293000Y-77327000D01*
X122293000Y-77073000D01*
X122313000Y-77073000D01*
X122313000Y-75879845D01*
X122567000Y-75879845D01*
X122567000Y-77073000D01*
X123760819Y-77073000D01*
X123881486Y-76843108D01*
X123635183Y-76318642D01*
X123206924Y-75928355D01*
X122796890Y-75758524D01*
X122567000Y-75879845D01*
X122313000Y-75879845D01*
X122083110Y-75758524D01*
X121673076Y-75928355D01*
X121244817Y-76318642D01*
X121190443Y-76434424D01*
X121159656Y-76359914D01*
X120742283Y-75941812D01*
X120196681Y-75715258D01*
X119605911Y-75714743D01*
X119059914Y-75940344D01*
X118641812Y-76357717D01*
X118415258Y-76903319D01*
X118414743Y-77494089D01*
X92972278Y-77494089D01*
X92809147Y-77249946D01*
X92514730Y-77053223D01*
X92594353Y-76803958D01*
X91730000Y-75939605D01*
X90865647Y-76803958D01*
X90945270Y-77053223D01*
X90650853Y-77249946D01*
X90460000Y-77535578D01*
X90269147Y-77249946D01*
X89939974Y-77030000D01*
X90269147Y-76810054D01*
X90444732Y-76547271D01*
X90686042Y-76624353D01*
X91550395Y-75760000D01*
X91909605Y-75760000D01*
X92773958Y-76624353D01*
X93025259Y-76544080D01*
X93226718Y-75988721D01*
X93200315Y-75398542D01*
X93025259Y-74975920D01*
X92773958Y-74895647D01*
X91909605Y-75760000D01*
X91550395Y-75760000D01*
X90686042Y-74895647D01*
X90444732Y-74972729D01*
X90273221Y-74716042D01*
X90865647Y-74716042D01*
X91730000Y-75580395D01*
X92594353Y-74716042D01*
X92522884Y-74492302D01*
X124550856Y-74492302D01*
X124578638Y-75047368D01*
X124737603Y-75431143D01*
X124979787Y-75500608D01*
X125780395Y-74700000D01*
X126139605Y-74700000D01*
X126940213Y-75500608D01*
X127182397Y-75431143D01*
X127369144Y-74907698D01*
X127341362Y-74352632D01*
X127182397Y-73968857D01*
X126940213Y-73899392D01*
X126139605Y-74700000D01*
X125780395Y-74700000D01*
X124979787Y-73899392D01*
X124737603Y-73968857D01*
X124550856Y-74492302D01*
X92522884Y-74492302D01*
X92514080Y-74464741D01*
X91958721Y-74263282D01*
X91368542Y-74289685D01*
X90945920Y-74464741D01*
X90865647Y-74716042D01*
X90273221Y-74716042D01*
X90269147Y-74709946D01*
X89787378Y-74388039D01*
X89219093Y-74275000D01*
X89160907Y-74275000D01*
X88592622Y-74388039D01*
X88110853Y-74709946D01*
X87788946Y-75191715D01*
X87675907Y-75760000D01*
X55530000Y-75760000D01*
X55530000Y-72126478D01*
X55876037Y-72473120D01*
X56430825Y-72703488D01*
X57031540Y-72704012D01*
X57586729Y-72474612D01*
X58011870Y-72050213D01*
X58151321Y-71714376D01*
X59183145Y-71714376D01*
X59582528Y-72680957D01*
X60321404Y-73421123D01*
X61287285Y-73822192D01*
X62333126Y-73823105D01*
X63299707Y-73423722D01*
X64039873Y-72684846D01*
X64440942Y-71718965D01*
X64441139Y-71492790D01*
X65382238Y-71492790D01*
X65611638Y-72047979D01*
X66036037Y-72473120D01*
X66590825Y-72703488D01*
X67191540Y-72704012D01*
X67746729Y-72474612D01*
X68171870Y-72050213D01*
X68402238Y-71495425D01*
X68402240Y-71492790D01*
X74272238Y-71492790D01*
X74501638Y-72047979D01*
X74926037Y-72473120D01*
X75480825Y-72703488D01*
X76081540Y-72704012D01*
X76636729Y-72474612D01*
X77061870Y-72050213D01*
X77201321Y-71714376D01*
X78233145Y-71714376D01*
X78632528Y-72680957D01*
X79371404Y-73421123D01*
X80337285Y-73822192D01*
X81383126Y-73823105D01*
X82349707Y-73423722D01*
X83089873Y-72684846D01*
X83490942Y-71718965D01*
X83491139Y-71492790D01*
X84432238Y-71492790D01*
X84661638Y-72047979D01*
X85086037Y-72473120D01*
X85640825Y-72703488D01*
X86241540Y-72704012D01*
X86796729Y-72474612D01*
X87221870Y-72050213D01*
X87452238Y-71495425D01*
X87452240Y-71492790D01*
X93322238Y-71492790D01*
X93551638Y-72047979D01*
X93976037Y-72473120D01*
X94530825Y-72703488D01*
X95131540Y-72704012D01*
X95686729Y-72474612D01*
X96111870Y-72050213D01*
X96251321Y-71714376D01*
X97283145Y-71714376D01*
X97682528Y-72680957D01*
X98421404Y-73421123D01*
X99387285Y-73822192D01*
X100433126Y-73823105D01*
X101399707Y-73423722D01*
X102139873Y-72684846D01*
X102540942Y-71718965D01*
X102541139Y-71492790D01*
X103482238Y-71492790D01*
X103711638Y-72047979D01*
X104136037Y-72473120D01*
X104690825Y-72703488D01*
X105291540Y-72704012D01*
X105846729Y-72474612D01*
X106271870Y-72050213D01*
X106502238Y-71495425D01*
X106502240Y-71492790D01*
X112372238Y-71492790D01*
X112601638Y-72047979D01*
X113026037Y-72473120D01*
X113580825Y-72703488D01*
X114181540Y-72704012D01*
X114736729Y-72474612D01*
X115161870Y-72050213D01*
X115301321Y-71714376D01*
X116333145Y-71714376D01*
X116732528Y-72680957D01*
X117471404Y-73421123D01*
X118437285Y-73822192D01*
X119483126Y-73823105D01*
X119733174Y-73719787D01*
X125159392Y-73719787D01*
X125960000Y-74520395D01*
X126760608Y-73719787D01*
X126741622Y-73653593D01*
X127370774Y-73653593D01*
X127542297Y-74068709D01*
X127859621Y-74386587D01*
X128274437Y-74558834D01*
X128723593Y-74559226D01*
X129138709Y-74387703D01*
X129456587Y-74070379D01*
X129628834Y-73655563D01*
X129629226Y-73206407D01*
X129457703Y-72791291D01*
X129140379Y-72473413D01*
X128725563Y-72301166D01*
X128276407Y-72300774D01*
X127861291Y-72472297D01*
X127543413Y-72789621D01*
X127371166Y-73204437D01*
X127370774Y-73653593D01*
X126741622Y-73653593D01*
X126691143Y-73477603D01*
X126167698Y-73290856D01*
X125612632Y-73318638D01*
X125228857Y-73477603D01*
X125159392Y-73719787D01*
X119733174Y-73719787D01*
X120449707Y-73423722D01*
X121189873Y-72684846D01*
X121590942Y-71718965D01*
X121591139Y-71492790D01*
X122532238Y-71492790D01*
X122761638Y-72047979D01*
X123186037Y-72473120D01*
X123740825Y-72703488D01*
X124341540Y-72704012D01*
X124896729Y-72474612D01*
X125321870Y-72050213D01*
X125552238Y-71495425D01*
X125552240Y-71492790D01*
X131422238Y-71492790D01*
X131651638Y-72047979D01*
X132076037Y-72473120D01*
X132630825Y-72703488D01*
X133231540Y-72704012D01*
X133786729Y-72474612D01*
X134211870Y-72050213D01*
X134351321Y-71714376D01*
X135383145Y-71714376D01*
X135782528Y-72680957D01*
X136521404Y-73421123D01*
X137487285Y-73822192D01*
X138533126Y-73823105D01*
X139499707Y-73423722D01*
X140239873Y-72684846D01*
X140640942Y-71718965D01*
X140641855Y-70673124D01*
X140242472Y-69706543D01*
X139503596Y-68966377D01*
X138537715Y-68565308D01*
X137491874Y-68564395D01*
X136525293Y-68963778D01*
X135785127Y-69702654D01*
X135384058Y-70668535D01*
X135383145Y-71714376D01*
X134351321Y-71714376D01*
X134442238Y-71495425D01*
X134442762Y-70894710D01*
X134240609Y-70405463D01*
X134848427Y-70295855D01*
X135427665Y-69923671D01*
X136082666Y-69193671D01*
X135805925Y-68945362D01*
X135917951Y-68941825D01*
X136098819Y-68866907D01*
X136252297Y-69004617D01*
X136907297Y-68274618D01*
X136957015Y-68175001D01*
X137035273Y-68143129D01*
X137282670Y-67488121D01*
X137260575Y-66788299D01*
X137187856Y-66612739D01*
X138753907Y-66612739D01*
X138841222Y-67293884D01*
X139182553Y-67889765D01*
X139725936Y-68309665D01*
X140388645Y-68489659D01*
X141069790Y-68402344D01*
X141665671Y-68061013D01*
X142085571Y-67517630D01*
X142265565Y-66854921D01*
X142288494Y-66522444D01*
X142312193Y-66465371D01*
X142312804Y-65765200D01*
X142230491Y-65565988D01*
X142223778Y-65513617D01*
X142170216Y-65420111D01*
X142045425Y-65118093D01*
X141932305Y-65004776D01*
X141882447Y-64917735D01*
X141720455Y-64792556D01*
X141550761Y-64622565D01*
X141442069Y-64577432D01*
X141339064Y-64497835D01*
X141082674Y-64428199D01*
X140904121Y-64354057D01*
X140809392Y-64353974D01*
X140676355Y-64317841D01*
X140397284Y-64353615D01*
X140203950Y-64353446D01*
X140116400Y-64389621D01*
X139995210Y-64405156D01*
X139778832Y-64529101D01*
X139556843Y-64620825D01*
X139473552Y-64703971D01*
X139399329Y-64746487D01*
X139292584Y-64884623D01*
X139061315Y-65115489D01*
X138999913Y-65263363D01*
X138979429Y-65289870D01*
X138961509Y-65355849D01*
X138792807Y-65762129D01*
X138792554Y-66052358D01*
X138753907Y-66612739D01*
X137187856Y-66612739D01*
X137035273Y-66244371D01*
X136979409Y-66221620D01*
X136954885Y-66185222D01*
X136673035Y-66090498D01*
X135517495Y-67378350D01*
X135512500Y-67373355D01*
X134808538Y-68077317D01*
X134664802Y-67948348D01*
X134678159Y-67933462D01*
X134633370Y-67893275D01*
X134813238Y-67713407D01*
X134847789Y-67744408D01*
X135507506Y-67009151D01*
X135512500Y-67014145D01*
X136575842Y-65950803D01*
X136461879Y-65670977D01*
X136234249Y-65585001D01*
X136216906Y-65575868D01*
X136200773Y-65572357D01*
X135806871Y-65423580D01*
X135553848Y-65431569D01*
X135544150Y-65429458D01*
X135527904Y-65432388D01*
X135107049Y-65445675D01*
X134563121Y-65670977D01*
X134521392Y-65773439D01*
X134287337Y-65923829D01*
X134005485Y-66237953D01*
X133989727Y-66244371D01*
X133982457Y-66263618D01*
X133632336Y-66653829D01*
X133783758Y-66789694D01*
X133742330Y-66899379D01*
X133748647Y-67099447D01*
X133462705Y-66842883D01*
X132807705Y-67572882D01*
X132500247Y-68188924D01*
X132451942Y-68875731D01*
X132670144Y-69528743D01*
X132760117Y-69662278D01*
X132823721Y-69683654D01*
X132633460Y-69683488D01*
X132078271Y-69912888D01*
X131653130Y-70337287D01*
X131422762Y-70892075D01*
X131422238Y-71492790D01*
X125552240Y-71492790D01*
X125552762Y-70894710D01*
X125323362Y-70339521D01*
X124898963Y-69914380D01*
X124344175Y-69684012D01*
X123743460Y-69683488D01*
X123188271Y-69912888D01*
X122763130Y-70337287D01*
X122532762Y-70892075D01*
X122532238Y-71492790D01*
X121591139Y-71492790D01*
X121591855Y-70673124D01*
X121192472Y-69706543D01*
X120453596Y-68966377D01*
X119487715Y-68565308D01*
X118441874Y-68564395D01*
X117475293Y-68963778D01*
X116735127Y-69702654D01*
X116334058Y-70668535D01*
X116333145Y-71714376D01*
X115301321Y-71714376D01*
X115392238Y-71495425D01*
X115392762Y-70894710D01*
X115190609Y-70405463D01*
X115798427Y-70295855D01*
X116377665Y-69923671D01*
X117032666Y-69193671D01*
X116755925Y-68945362D01*
X116867951Y-68941825D01*
X117048819Y-68866907D01*
X117202297Y-69004617D01*
X117857297Y-68274618D01*
X117907015Y-68175001D01*
X117985273Y-68143129D01*
X118232670Y-67488121D01*
X118210575Y-66788299D01*
X118137856Y-66612739D01*
X119703907Y-66612739D01*
X119791222Y-67293884D01*
X120132553Y-67889765D01*
X120675936Y-68309665D01*
X121338645Y-68489659D01*
X122019790Y-68402344D01*
X122615671Y-68061013D01*
X123035571Y-67517630D01*
X123215565Y-66854921D01*
X123238494Y-66522444D01*
X123262193Y-66465371D01*
X123262804Y-65765200D01*
X123180491Y-65565988D01*
X123173778Y-65513617D01*
X123120216Y-65420111D01*
X122995425Y-65118093D01*
X122882305Y-65004776D01*
X122832447Y-64917735D01*
X122670455Y-64792556D01*
X122500761Y-64622565D01*
X122392069Y-64577432D01*
X122289064Y-64497835D01*
X122032674Y-64428199D01*
X121854121Y-64354057D01*
X121759392Y-64353974D01*
X121626355Y-64317841D01*
X121347284Y-64353615D01*
X121153950Y-64353446D01*
X121066400Y-64389621D01*
X120945210Y-64405156D01*
X120728832Y-64529101D01*
X120506843Y-64620825D01*
X120423552Y-64703971D01*
X120349329Y-64746487D01*
X120242584Y-64884623D01*
X120011315Y-65115489D01*
X119949913Y-65263363D01*
X119929429Y-65289870D01*
X119911509Y-65355849D01*
X119742807Y-65762129D01*
X119742554Y-66052358D01*
X119703907Y-66612739D01*
X118137856Y-66612739D01*
X117985273Y-66244371D01*
X117929409Y-66221620D01*
X117904885Y-66185222D01*
X117623035Y-66090498D01*
X116467495Y-67378350D01*
X116462500Y-67373355D01*
X115758538Y-68077317D01*
X115614802Y-67948348D01*
X115628159Y-67933462D01*
X115583370Y-67893275D01*
X115763238Y-67713407D01*
X115797789Y-67744408D01*
X116457506Y-67009151D01*
X116462500Y-67014145D01*
X117525842Y-65950803D01*
X117411879Y-65670977D01*
X117184249Y-65585001D01*
X117166906Y-65575868D01*
X117150773Y-65572357D01*
X116756871Y-65423580D01*
X116503848Y-65431569D01*
X116494150Y-65429458D01*
X116477904Y-65432388D01*
X116057049Y-65445675D01*
X115513121Y-65670977D01*
X115471392Y-65773439D01*
X115237337Y-65923829D01*
X114955485Y-66237953D01*
X114939727Y-66244371D01*
X114932457Y-66263618D01*
X114582336Y-66653829D01*
X114733758Y-66789694D01*
X114692330Y-66899379D01*
X114698647Y-67099447D01*
X114412705Y-66842883D01*
X113757705Y-67572882D01*
X113450247Y-68188924D01*
X113401942Y-68875731D01*
X113620144Y-69528743D01*
X113710117Y-69662278D01*
X113773721Y-69683654D01*
X113583460Y-69683488D01*
X113028271Y-69912888D01*
X112603130Y-70337287D01*
X112372762Y-70892075D01*
X112372238Y-71492790D01*
X106502240Y-71492790D01*
X106502762Y-70894710D01*
X106273362Y-70339521D01*
X105848963Y-69914380D01*
X105294175Y-69684012D01*
X104693460Y-69683488D01*
X104138271Y-69912888D01*
X103713130Y-70337287D01*
X103482762Y-70892075D01*
X103482238Y-71492790D01*
X102541139Y-71492790D01*
X102541855Y-70673124D01*
X102142472Y-69706543D01*
X101403596Y-68966377D01*
X100437715Y-68565308D01*
X99391874Y-68564395D01*
X98425293Y-68963778D01*
X97685127Y-69702654D01*
X97284058Y-70668535D01*
X97283145Y-71714376D01*
X96251321Y-71714376D01*
X96342238Y-71495425D01*
X96342762Y-70894710D01*
X96159336Y-70450786D01*
X96161807Y-70451140D01*
X96827101Y-70280946D01*
X97376621Y-69869110D01*
X98690196Y-68405128D01*
X98903685Y-68192011D01*
X99053668Y-67830810D01*
X99108429Y-67738401D01*
X99117058Y-67678151D01*
X99172193Y-67545371D01*
X99172414Y-67291631D01*
X99205786Y-67058619D01*
X99172731Y-66929404D01*
X99172804Y-66845200D01*
X99116054Y-66707855D01*
X99113881Y-66699357D01*
X100647933Y-66699357D01*
X100784398Y-67374201D01*
X101168728Y-67945453D01*
X101742410Y-68326144D01*
X101895482Y-68376098D01*
X102175978Y-68277436D01*
X102203215Y-67882497D01*
X102458374Y-67874441D01*
X102429376Y-68294912D01*
X102693672Y-68431146D01*
X102852154Y-68402678D01*
X103472665Y-68104346D01*
X103931776Y-67591263D01*
X104159591Y-66941541D01*
X104179591Y-66651541D01*
X104131971Y-66648257D01*
X104222670Y-66408121D01*
X104214414Y-66146616D01*
X104217067Y-66108143D01*
X104212483Y-66085476D01*
X104200575Y-65708299D01*
X103975273Y-65164371D01*
X103871138Y-65121961D01*
X103696272Y-64862047D01*
X103444134Y-64694730D01*
X103401879Y-64590977D01*
X103137048Y-64490950D01*
X103122590Y-64481356D01*
X103042108Y-64455091D01*
X102746871Y-64343580D01*
X102485373Y-64351836D01*
X102446891Y-64349182D01*
X102446624Y-64353060D01*
X102047049Y-64365675D01*
X101503121Y-64590977D01*
X101473286Y-64664234D01*
X101392335Y-64703154D01*
X101008250Y-65132392D01*
X100929727Y-65164371D01*
X100682330Y-65819379D01*
X100690586Y-66080887D01*
X100685409Y-66155959D01*
X100692973Y-66156481D01*
X100701029Y-66411639D01*
X100667933Y-66409357D01*
X100647933Y-66699357D01*
X99113881Y-66699357D01*
X99035592Y-66393326D01*
X98925270Y-66246121D01*
X98905425Y-66198093D01*
X98840630Y-66133184D01*
X98623755Y-65843805D01*
X98447477Y-65739345D01*
X98410761Y-65702565D01*
X98326056Y-65667393D01*
X98032976Y-65493717D01*
X97841892Y-65466350D01*
X97764121Y-65434057D01*
X97615503Y-65433927D01*
X97353195Y-65396360D01*
X97207734Y-65433571D01*
X97063950Y-65433446D01*
X96829425Y-65530350D01*
X96687901Y-65566554D01*
X96621665Y-65616194D01*
X96416843Y-65700825D01*
X96140031Y-65977155D01*
X96138381Y-65978391D01*
X96134850Y-65982326D01*
X95921315Y-66195489D01*
X95902129Y-66241694D01*
X94756661Y-67518320D01*
X94406573Y-68109100D01*
X94309216Y-68788881D01*
X94479410Y-69454175D01*
X94651345Y-69683591D01*
X94533460Y-69683488D01*
X93978271Y-69912888D01*
X93553130Y-70337287D01*
X93322762Y-70892075D01*
X93322238Y-71492790D01*
X87452240Y-71492790D01*
X87452762Y-70894710D01*
X87223362Y-70339521D01*
X86798963Y-69914380D01*
X86244175Y-69684012D01*
X85643460Y-69683488D01*
X85088271Y-69912888D01*
X84663130Y-70337287D01*
X84432762Y-70892075D01*
X84432238Y-71492790D01*
X83491139Y-71492790D01*
X83491855Y-70673124D01*
X83092472Y-69706543D01*
X82353596Y-68966377D01*
X81387715Y-68565308D01*
X80341874Y-68564395D01*
X79375293Y-68963778D01*
X78635127Y-69702654D01*
X78234058Y-70668535D01*
X78233145Y-71714376D01*
X77201321Y-71714376D01*
X77292238Y-71495425D01*
X77292762Y-70894710D01*
X77090609Y-70405463D01*
X77698427Y-70295855D01*
X78277665Y-69923671D01*
X78932666Y-69193671D01*
X78655925Y-68945362D01*
X78767951Y-68941825D01*
X78948819Y-68866907D01*
X79102297Y-69004617D01*
X79757297Y-68274618D01*
X79807015Y-68175001D01*
X79885273Y-68143129D01*
X80132670Y-67488121D01*
X80110575Y-66788299D01*
X80037856Y-66612739D01*
X81603907Y-66612739D01*
X81691222Y-67293884D01*
X82032553Y-67889765D01*
X82575936Y-68309665D01*
X83238645Y-68489659D01*
X83919790Y-68402344D01*
X84515671Y-68061013D01*
X84935571Y-67517630D01*
X85115565Y-66854921D01*
X85138494Y-66522444D01*
X85162193Y-66465371D01*
X85162804Y-65765200D01*
X85080491Y-65565988D01*
X85073778Y-65513617D01*
X85020216Y-65420111D01*
X84895425Y-65118093D01*
X84782305Y-65004776D01*
X84732447Y-64917735D01*
X84570455Y-64792556D01*
X84400761Y-64622565D01*
X84292069Y-64577432D01*
X84189064Y-64497835D01*
X83932674Y-64428199D01*
X83754121Y-64354057D01*
X83659392Y-64353974D01*
X83526355Y-64317841D01*
X83247284Y-64353615D01*
X83053950Y-64353446D01*
X82966400Y-64389621D01*
X82845210Y-64405156D01*
X82628832Y-64529101D01*
X82406843Y-64620825D01*
X82323552Y-64703971D01*
X82249329Y-64746487D01*
X82142584Y-64884623D01*
X81911315Y-65115489D01*
X81849913Y-65263363D01*
X81829429Y-65289870D01*
X81811509Y-65355849D01*
X81642807Y-65762129D01*
X81642554Y-66052358D01*
X81603907Y-66612739D01*
X80037856Y-66612739D01*
X79885273Y-66244371D01*
X79829409Y-66221620D01*
X79804885Y-66185222D01*
X79523035Y-66090498D01*
X78367495Y-67378350D01*
X78362500Y-67373355D01*
X77658538Y-68077317D01*
X77514802Y-67948348D01*
X77528159Y-67933462D01*
X77483370Y-67893275D01*
X77663238Y-67713407D01*
X77697789Y-67744408D01*
X78357506Y-67009151D01*
X78362500Y-67014145D01*
X79425842Y-65950803D01*
X79311879Y-65670977D01*
X79084249Y-65585001D01*
X79066906Y-65575868D01*
X79050773Y-65572357D01*
X78656871Y-65423580D01*
X78403848Y-65431569D01*
X78394150Y-65429458D01*
X78377904Y-65432388D01*
X77957049Y-65445675D01*
X77413121Y-65670977D01*
X77371392Y-65773439D01*
X77137337Y-65923829D01*
X76855485Y-66237953D01*
X76839727Y-66244371D01*
X76832457Y-66263618D01*
X76482336Y-66653829D01*
X76633758Y-66789694D01*
X76592330Y-66899379D01*
X76598647Y-67099447D01*
X76312705Y-66842883D01*
X75657705Y-67572882D01*
X75350247Y-68188924D01*
X75301942Y-68875731D01*
X75520144Y-69528743D01*
X75610117Y-69662278D01*
X75673721Y-69683654D01*
X75483460Y-69683488D01*
X74928271Y-69912888D01*
X74503130Y-70337287D01*
X74272762Y-70892075D01*
X74272238Y-71492790D01*
X68402240Y-71492790D01*
X68402762Y-70894710D01*
X68173362Y-70339521D01*
X67748963Y-69914380D01*
X67194175Y-69684012D01*
X66593460Y-69683488D01*
X66038271Y-69912888D01*
X65613130Y-70337287D01*
X65382762Y-70892075D01*
X65382238Y-71492790D01*
X64441139Y-71492790D01*
X64441855Y-70673124D01*
X64042472Y-69706543D01*
X63303596Y-68966377D01*
X62337715Y-68565308D01*
X61291874Y-68564395D01*
X60325293Y-68963778D01*
X59585127Y-69702654D01*
X59184058Y-70668535D01*
X59183145Y-71714376D01*
X58151321Y-71714376D01*
X58242238Y-71495425D01*
X58242762Y-70894710D01*
X58040609Y-70405463D01*
X58648427Y-70295855D01*
X59227665Y-69923671D01*
X59882666Y-69193671D01*
X59605925Y-68945362D01*
X59717951Y-68941825D01*
X59898819Y-68866907D01*
X60052297Y-69004617D01*
X60707297Y-68274618D01*
X60757015Y-68175001D01*
X60835273Y-68143129D01*
X61082670Y-67488121D01*
X61060575Y-66788299D01*
X60987856Y-66612739D01*
X62553907Y-66612739D01*
X62641222Y-67293884D01*
X62982553Y-67889765D01*
X63525936Y-68309665D01*
X64188645Y-68489659D01*
X64869790Y-68402344D01*
X65465671Y-68061013D01*
X65885571Y-67517630D01*
X66065565Y-66854921D01*
X66088494Y-66522444D01*
X66112193Y-66465371D01*
X66112804Y-65765200D01*
X66030491Y-65565988D01*
X66023778Y-65513617D01*
X65970216Y-65420111D01*
X65845425Y-65118093D01*
X65732305Y-65004776D01*
X65682447Y-64917735D01*
X65520455Y-64792556D01*
X65350761Y-64622565D01*
X65242069Y-64577432D01*
X65139064Y-64497835D01*
X64882674Y-64428199D01*
X64704121Y-64354057D01*
X64609392Y-64353974D01*
X64476355Y-64317841D01*
X64197284Y-64353615D01*
X64003950Y-64353446D01*
X63916400Y-64389621D01*
X63795210Y-64405156D01*
X63578832Y-64529101D01*
X63356843Y-64620825D01*
X63273552Y-64703971D01*
X63199329Y-64746487D01*
X63092584Y-64884623D01*
X62861315Y-65115489D01*
X62799913Y-65263363D01*
X62779429Y-65289870D01*
X62761509Y-65355849D01*
X62592807Y-65762129D01*
X62592554Y-66052358D01*
X62553907Y-66612739D01*
X60987856Y-66612739D01*
X60835273Y-66244371D01*
X60779409Y-66221620D01*
X60754885Y-66185222D01*
X60473035Y-66090498D01*
X59317495Y-67378350D01*
X59312500Y-67373355D01*
X58608538Y-68077317D01*
X58464802Y-67948348D01*
X58478159Y-67933462D01*
X58433370Y-67893275D01*
X58613238Y-67713407D01*
X58647789Y-67744408D01*
X59307506Y-67009151D01*
X59312500Y-67014145D01*
X60375842Y-65950803D01*
X60261879Y-65670977D01*
X60034249Y-65585001D01*
X60016906Y-65575868D01*
X60000773Y-65572357D01*
X59606871Y-65423580D01*
X59353848Y-65431569D01*
X59344150Y-65429458D01*
X59327904Y-65432388D01*
X58907049Y-65445675D01*
X58363121Y-65670977D01*
X58321392Y-65773439D01*
X58087337Y-65923829D01*
X57805485Y-66237953D01*
X57789727Y-66244371D01*
X57782457Y-66263618D01*
X57432336Y-66653829D01*
X57583758Y-66789694D01*
X57542330Y-66899379D01*
X57548647Y-67099447D01*
X57262705Y-66842883D01*
X56607705Y-67572882D01*
X56300247Y-68188924D01*
X56251942Y-68875731D01*
X56470144Y-69528743D01*
X56560117Y-69662278D01*
X56623721Y-69683654D01*
X56433460Y-69683488D01*
X55878271Y-69912888D01*
X55530000Y-70260551D01*
X55530000Y-61993599D01*
X60014699Y-61993599D01*
X60278281Y-62631515D01*
X60765918Y-63120004D01*
X61403373Y-63384699D01*
X62093599Y-63385301D01*
X62731515Y-63121719D01*
X63220004Y-62634082D01*
X63484699Y-61996627D01*
X63484701Y-61993599D01*
X79064699Y-61993599D01*
X79328281Y-62631515D01*
X79815918Y-63120004D01*
X80453373Y-63384699D01*
X81143599Y-63385301D01*
X81781515Y-63121719D01*
X82270004Y-62634082D01*
X82534699Y-61996627D01*
X82535301Y-61306401D01*
X82271719Y-60668485D01*
X81784082Y-60179996D01*
X81146627Y-59915301D01*
X80456401Y-59914699D01*
X79818485Y-60178281D01*
X79329996Y-60665918D01*
X79065301Y-61303373D01*
X79064699Y-61993599D01*
X63484701Y-61993599D01*
X63485301Y-61306401D01*
X63221719Y-60668485D01*
X62734082Y-60179996D01*
X62096627Y-59915301D01*
X61406401Y-59914699D01*
X60768485Y-60178281D01*
X60279996Y-60665918D01*
X60015301Y-61303373D01*
X60014699Y-61993599D01*
X55530000Y-61993599D01*
X55530000Y-56929379D01*
X57502330Y-56929379D01*
X57510586Y-57190884D01*
X57507933Y-57229357D01*
X57512517Y-57252024D01*
X57524425Y-57629201D01*
X57749727Y-58173129D01*
X57853862Y-58215539D01*
X58028728Y-58475453D01*
X58280866Y-58642770D01*
X58323121Y-58746523D01*
X58587952Y-58846550D01*
X58602410Y-58856144D01*
X58682892Y-58882409D01*
X58978129Y-58993920D01*
X59239627Y-58985664D01*
X59278109Y-58988318D01*
X59278376Y-58984440D01*
X59677951Y-58971825D01*
X60221879Y-58746523D01*
X60251714Y-58673266D01*
X60332665Y-58634346D01*
X60716750Y-58205108D01*
X60795273Y-58173129D01*
X61042670Y-57518121D01*
X61034414Y-57256613D01*
X61039591Y-57181541D01*
X61032027Y-57181019D01*
X61023971Y-56925861D01*
X61057067Y-56928143D01*
X61077067Y-56638143D01*
X61004419Y-56278881D01*
X62519214Y-56278881D01*
X62552269Y-56408096D01*
X62552196Y-56492300D01*
X62608945Y-56629644D01*
X62689408Y-56944175D01*
X62799731Y-57091381D01*
X62819575Y-57139407D01*
X62884367Y-57204312D01*
X63101244Y-57493695D01*
X63277524Y-57598156D01*
X63314239Y-57634935D01*
X63398942Y-57670107D01*
X63692024Y-57843783D01*
X63883108Y-57871150D01*
X63960879Y-57903443D01*
X64109497Y-57903573D01*
X64371805Y-57941140D01*
X64517266Y-57903929D01*
X64661050Y-57904054D01*
X64895575Y-57807150D01*
X65037099Y-57770946D01*
X65103335Y-57721306D01*
X65308157Y-57636675D01*
X65584965Y-57360349D01*
X65586619Y-57359110D01*
X65590159Y-57355165D01*
X65803685Y-57142011D01*
X65822870Y-57095807D01*
X66968339Y-55819180D01*
X67318427Y-55228401D01*
X67334242Y-55117968D01*
X67615000Y-55117968D01*
X67615000Y-55582032D01*
X67724233Y-56131183D01*
X68035302Y-56596730D01*
X68500849Y-56907799D01*
X69050000Y-57017032D01*
X69599151Y-56907799D01*
X70064698Y-56596730D01*
X70317779Y-56217968D01*
X72215000Y-56217968D01*
X72215000Y-56682032D01*
X72324233Y-57231183D01*
X72635302Y-57696730D01*
X73100849Y-58007799D01*
X73650000Y-58117032D01*
X74199151Y-58007799D01*
X74664698Y-57696730D01*
X74975767Y-57231183D01*
X75035799Y-56929379D01*
X76552330Y-56929379D01*
X76560586Y-57190884D01*
X76557933Y-57229357D01*
X76562517Y-57252024D01*
X76574425Y-57629201D01*
X76799727Y-58173129D01*
X76903862Y-58215539D01*
X77078728Y-58475453D01*
X77330866Y-58642770D01*
X77373121Y-58746523D01*
X77637952Y-58846550D01*
X77652410Y-58856144D01*
X77732892Y-58882409D01*
X78028129Y-58993920D01*
X78289627Y-58985664D01*
X78328109Y-58988318D01*
X78328376Y-58984440D01*
X78727951Y-58971825D01*
X79271879Y-58746523D01*
X79301714Y-58673266D01*
X79382665Y-58634346D01*
X79766750Y-58205108D01*
X79845273Y-58173129D01*
X80092670Y-57518121D01*
X80084414Y-57256613D01*
X80089591Y-57181541D01*
X80082027Y-57181019D01*
X80073971Y-56925861D01*
X80107067Y-56928143D01*
X80127067Y-56638143D01*
X80054419Y-56278881D01*
X81569214Y-56278881D01*
X81602269Y-56408096D01*
X81602196Y-56492300D01*
X81658945Y-56629644D01*
X81739408Y-56944175D01*
X81849731Y-57091381D01*
X81869575Y-57139407D01*
X81934367Y-57204312D01*
X82151244Y-57493695D01*
X82327524Y-57598156D01*
X82364239Y-57634935D01*
X82448942Y-57670107D01*
X82742024Y-57843783D01*
X82933108Y-57871150D01*
X83010879Y-57903443D01*
X83159497Y-57903573D01*
X83421805Y-57941140D01*
X83567266Y-57903929D01*
X83711050Y-57904054D01*
X83945575Y-57807150D01*
X84087099Y-57770946D01*
X84153335Y-57721306D01*
X84358157Y-57636675D01*
X84422644Y-57572300D01*
X95612196Y-57572300D01*
X95694508Y-57771511D01*
X95701222Y-57823884D01*
X95754785Y-57917392D01*
X95879575Y-58219407D01*
X95992694Y-58332724D01*
X96042553Y-58419765D01*
X96204545Y-58544944D01*
X96374239Y-58714935D01*
X96482931Y-58760068D01*
X96585936Y-58839665D01*
X96842326Y-58909301D01*
X97020879Y-58983443D01*
X97115608Y-58983526D01*
X97248645Y-59019659D01*
X97527716Y-58983885D01*
X97721050Y-58984054D01*
X97808600Y-58947879D01*
X97929790Y-58932344D01*
X98146168Y-58808399D01*
X98368157Y-58716675D01*
X98451448Y-58633529D01*
X98525671Y-58591013D01*
X98632416Y-58452877D01*
X98863685Y-58222011D01*
X98925087Y-58074137D01*
X98945571Y-58047630D01*
X98963491Y-57981651D01*
X99132193Y-57575371D01*
X99132446Y-57285142D01*
X99171093Y-56724761D01*
X99083778Y-56043617D01*
X98972516Y-55849379D01*
X100642330Y-55849379D01*
X100664425Y-56549201D01*
X100889727Y-57093129D01*
X100945591Y-57115880D01*
X100970115Y-57152278D01*
X101251965Y-57247002D01*
X102407505Y-55959150D01*
X102412500Y-55964145D01*
X103116462Y-55260183D01*
X103260198Y-55389152D01*
X103246841Y-55404038D01*
X103291630Y-55444225D01*
X103111762Y-55624093D01*
X103077211Y-55593092D01*
X102417494Y-56328349D01*
X102412500Y-56323355D01*
X101349158Y-57386697D01*
X101463121Y-57666523D01*
X101690751Y-57752499D01*
X101708094Y-57761632D01*
X101724227Y-57765143D01*
X102118129Y-57913920D01*
X102371152Y-57905931D01*
X102380850Y-57908042D01*
X102397096Y-57905112D01*
X102817951Y-57891825D01*
X103361879Y-57666523D01*
X103403608Y-57564061D01*
X103637663Y-57413671D01*
X103919515Y-57099547D01*
X103935273Y-57093129D01*
X103942543Y-57073882D01*
X104072199Y-56929379D01*
X114652330Y-56929379D01*
X114660586Y-57190884D01*
X114657933Y-57229357D01*
X114662517Y-57252024D01*
X114674425Y-57629201D01*
X114899727Y-58173129D01*
X115003862Y-58215539D01*
X115178728Y-58475453D01*
X115430866Y-58642770D01*
X115473121Y-58746523D01*
X115737952Y-58846550D01*
X115752410Y-58856144D01*
X115832892Y-58882409D01*
X116128129Y-58993920D01*
X116389627Y-58985664D01*
X116428109Y-58988318D01*
X116428376Y-58984440D01*
X116827951Y-58971825D01*
X117371879Y-58746523D01*
X117401714Y-58673266D01*
X117482665Y-58634346D01*
X117866750Y-58205108D01*
X117945273Y-58173129D01*
X118192670Y-57518121D01*
X118184414Y-57256613D01*
X118189591Y-57181541D01*
X118182027Y-57181019D01*
X118173971Y-56925861D01*
X118207067Y-56928143D01*
X118227067Y-56638143D01*
X118154419Y-56278881D01*
X119669214Y-56278881D01*
X119702269Y-56408096D01*
X119702196Y-56492300D01*
X119758945Y-56629644D01*
X119839408Y-56944175D01*
X119949731Y-57091381D01*
X119969575Y-57139407D01*
X120034367Y-57204312D01*
X120251244Y-57493695D01*
X120427524Y-57598156D01*
X120464239Y-57634935D01*
X120548942Y-57670107D01*
X120842024Y-57843783D01*
X121033108Y-57871150D01*
X121110879Y-57903443D01*
X121259497Y-57903573D01*
X121521805Y-57941140D01*
X121667266Y-57903929D01*
X121811050Y-57904054D01*
X122045575Y-57807150D01*
X122187099Y-57770946D01*
X122253335Y-57721306D01*
X122458157Y-57636675D01*
X122522644Y-57572300D01*
X133712196Y-57572300D01*
X133794508Y-57771511D01*
X133801222Y-57823884D01*
X133854785Y-57917392D01*
X133979575Y-58219407D01*
X134092694Y-58332724D01*
X134142553Y-58419765D01*
X134304545Y-58544944D01*
X134474239Y-58714935D01*
X134582931Y-58760068D01*
X134685936Y-58839665D01*
X134942326Y-58909301D01*
X135120879Y-58983443D01*
X135215608Y-58983526D01*
X135348645Y-59019659D01*
X135627716Y-58983885D01*
X135821050Y-58984054D01*
X135908600Y-58947879D01*
X136029790Y-58932344D01*
X136246168Y-58808399D01*
X136468157Y-58716675D01*
X136551448Y-58633529D01*
X136625671Y-58591013D01*
X136732416Y-58452877D01*
X136963685Y-58222011D01*
X137025087Y-58074137D01*
X137045571Y-58047630D01*
X137063491Y-57981651D01*
X137232193Y-57575371D01*
X137232446Y-57285142D01*
X137271093Y-56724761D01*
X137183778Y-56043617D01*
X136842447Y-55447735D01*
X136299064Y-55027835D01*
X135636355Y-54847841D01*
X134955210Y-54935156D01*
X134359329Y-55276487D01*
X133939429Y-55819870D01*
X133759435Y-56482579D01*
X133736506Y-56815056D01*
X133712807Y-56872129D01*
X133712196Y-57572300D01*
X122522644Y-57572300D01*
X122734965Y-57360349D01*
X122736619Y-57359110D01*
X122740159Y-57355165D01*
X122953685Y-57142011D01*
X122972870Y-57095807D01*
X124118339Y-55819180D01*
X124468427Y-55228401D01*
X124537859Y-54743599D01*
X126764699Y-54743599D01*
X127028281Y-55381515D01*
X127515918Y-55870004D01*
X128153373Y-56134699D01*
X128843599Y-56135301D01*
X129481515Y-55871719D01*
X129970004Y-55384082D01*
X130234699Y-54746627D01*
X130235301Y-54056401D01*
X129971719Y-53418485D01*
X129484082Y-52929996D01*
X128846627Y-52665301D01*
X128156401Y-52664699D01*
X127518485Y-52928281D01*
X127029996Y-53415918D01*
X126765301Y-54053373D01*
X126764699Y-54743599D01*
X124537859Y-54743599D01*
X124565784Y-54548619D01*
X124395590Y-53883326D01*
X124223654Y-53653909D01*
X124341540Y-53654012D01*
X124896729Y-53424612D01*
X125321870Y-53000213D01*
X125552238Y-52445425D01*
X125552240Y-52442790D01*
X131422238Y-52442790D01*
X131651638Y-52997979D01*
X132076037Y-53423120D01*
X132630825Y-53653488D01*
X133231540Y-53654012D01*
X133786729Y-53424612D01*
X134211870Y-53000213D01*
X134351321Y-52664376D01*
X135383145Y-52664376D01*
X135782528Y-53630957D01*
X136521404Y-54371123D01*
X137487285Y-54772192D01*
X138533126Y-54773105D01*
X139499707Y-54373722D01*
X140239873Y-53634846D01*
X140640942Y-52668965D01*
X140641855Y-51623124D01*
X140242472Y-50656543D01*
X139503596Y-49916377D01*
X138537715Y-49515308D01*
X137491874Y-49514395D01*
X136525293Y-49913778D01*
X135785127Y-50652654D01*
X135384058Y-51618535D01*
X135383145Y-52664376D01*
X134351321Y-52664376D01*
X134442238Y-52445425D01*
X134442762Y-51844710D01*
X134213362Y-51289521D01*
X133788963Y-50864380D01*
X133234175Y-50634012D01*
X132633460Y-50633488D01*
X132078271Y-50862888D01*
X131653130Y-51287287D01*
X131422762Y-51842075D01*
X131422238Y-52442790D01*
X125552240Y-52442790D01*
X125552762Y-51844710D01*
X125323362Y-51289521D01*
X124898963Y-50864380D01*
X124344175Y-50634012D01*
X123743460Y-50633488D01*
X123188271Y-50862888D01*
X122763130Y-51287287D01*
X122532762Y-51842075D01*
X122532238Y-52442790D01*
X122715664Y-52886714D01*
X122713193Y-52886360D01*
X122047899Y-53056554D01*
X121498379Y-53468391D01*
X120184804Y-54932372D01*
X119971315Y-55145489D01*
X119821330Y-55506692D01*
X119766571Y-55599100D01*
X119757942Y-55659348D01*
X119702807Y-55792129D01*
X119702586Y-56045869D01*
X119669214Y-56278881D01*
X118154419Y-56278881D01*
X118090602Y-55963299D01*
X117706272Y-55392047D01*
X117132590Y-55011356D01*
X116979518Y-54961402D01*
X116699022Y-55060064D01*
X116671785Y-55455003D01*
X116416626Y-55463059D01*
X116445624Y-55042588D01*
X116181328Y-54906354D01*
X116022846Y-54934822D01*
X115402335Y-55233154D01*
X114943224Y-55746237D01*
X114715409Y-56395959D01*
X114695409Y-56685959D01*
X114743029Y-56689243D01*
X114652330Y-56929379D01*
X104072199Y-56929379D01*
X104292664Y-56683671D01*
X104141242Y-56547806D01*
X104182670Y-56438121D01*
X104176353Y-56238053D01*
X104462295Y-56494617D01*
X105117295Y-55764618D01*
X105424753Y-55148576D01*
X105473058Y-54461769D01*
X105254856Y-53808757D01*
X105164883Y-53675222D01*
X105101279Y-53653846D01*
X105291540Y-53654012D01*
X105846729Y-53424612D01*
X106271870Y-53000213D01*
X106502238Y-52445425D01*
X106502762Y-51844710D01*
X106341806Y-51455167D01*
X106504838Y-51455167D01*
X106599674Y-51684688D01*
X106517281Y-51883111D01*
X106516957Y-52255077D01*
X106659002Y-52598853D01*
X106921792Y-52862102D01*
X107265320Y-53004748D01*
X107637286Y-53005072D01*
X107902280Y-52895579D01*
X111037836Y-52895579D01*
X111301150Y-53004917D01*
X111673116Y-53005241D01*
X112016892Y-52863196D01*
X112280141Y-52600406D01*
X112372294Y-52378478D01*
X112372238Y-52442790D01*
X112601638Y-52997979D01*
X113026037Y-53423120D01*
X113580825Y-53653488D01*
X114181540Y-53654012D01*
X114736729Y-53424612D01*
X115161870Y-53000213D01*
X115301321Y-52664376D01*
X116333145Y-52664376D01*
X116732528Y-53630957D01*
X117471404Y-54371123D01*
X118437285Y-54772192D01*
X119483126Y-54773105D01*
X120449707Y-54373722D01*
X121189873Y-53634846D01*
X121590942Y-52668965D01*
X121591855Y-51623124D01*
X121192472Y-50656543D01*
X120453596Y-49916377D01*
X119487715Y-49515308D01*
X118441874Y-49514395D01*
X117475293Y-49913778D01*
X116735127Y-50652654D01*
X116334058Y-51618535D01*
X116333145Y-52664376D01*
X115301321Y-52664376D01*
X115392238Y-52445425D01*
X115392762Y-51844710D01*
X115163362Y-51289521D01*
X114738963Y-50864380D01*
X114184175Y-50634012D01*
X113583460Y-50633488D01*
X113028271Y-50862888D01*
X112603130Y-51287287D01*
X112389127Y-51802664D01*
X112336162Y-51674478D01*
X112426515Y-51456884D01*
X112426839Y-51084918D01*
X112284794Y-50741142D01*
X112022004Y-50477893D01*
X111678476Y-50335247D01*
X111306510Y-50334923D01*
X111041107Y-50444585D01*
X107890318Y-50444585D01*
X107626799Y-50335162D01*
X107254833Y-50334838D01*
X106911057Y-50476883D01*
X106647808Y-50739673D01*
X106505162Y-51083201D01*
X106504838Y-51455167D01*
X106341806Y-51455167D01*
X106273362Y-51289521D01*
X105848963Y-50864380D01*
X105294175Y-50634012D01*
X104693460Y-50633488D01*
X104691537Y-50634283D01*
X104707994Y-50617854D01*
X104850640Y-50274326D01*
X104850964Y-49902360D01*
X104741302Y-49636957D01*
X104741302Y-49494879D01*
X104890460Y-49679145D01*
X105367316Y-49938173D01*
X105438815Y-49952318D01*
X105653000Y-49829656D01*
X105653000Y-47487000D01*
X105907000Y-47487000D01*
X105907000Y-49829656D01*
X106121185Y-49952318D01*
X106192684Y-49938173D01*
X106669540Y-49679145D01*
X107010972Y-49257349D01*
X107165000Y-48737000D01*
X107165000Y-47487000D01*
X111695000Y-47487000D01*
X111695000Y-48737000D01*
X111849028Y-49257349D01*
X112190460Y-49679145D01*
X112667316Y-49938173D01*
X112738815Y-49952318D01*
X112953000Y-49829656D01*
X112953000Y-47487000D01*
X113207000Y-47487000D01*
X113207000Y-49829656D01*
X113421185Y-49952318D01*
X113492684Y-49938173D01*
X113969540Y-49679145D01*
X114310972Y-49257349D01*
X114465000Y-48737000D01*
X114465000Y-47487000D01*
X113207000Y-47487000D01*
X112953000Y-47487000D01*
X111695000Y-47487000D01*
X107165000Y-47487000D01*
X105907000Y-47487000D01*
X105653000Y-47487000D01*
X104395000Y-47487000D01*
X104395000Y-47710337D01*
X104096799Y-47586513D01*
X103724833Y-47586189D01*
X103489846Y-47683283D01*
X103256799Y-47586513D01*
X102884833Y-47586189D01*
X102541057Y-47728234D01*
X102277808Y-47991024D01*
X102135162Y-48334552D01*
X102134838Y-48706518D01*
X102242515Y-48967117D01*
X102242515Y-49635276D01*
X102133177Y-49898590D01*
X102132853Y-50270556D01*
X102274898Y-50614332D01*
X102537688Y-50877581D01*
X102881216Y-51020227D01*
X103253182Y-51020551D01*
X103489491Y-50922910D01*
X103729003Y-51022365D01*
X103978298Y-51022582D01*
X103713130Y-51287287D01*
X103482762Y-51842075D01*
X103482238Y-52442790D01*
X103684391Y-52932037D01*
X103076573Y-53041645D01*
X102497335Y-53413829D01*
X101842334Y-54143829D01*
X102119075Y-54392138D01*
X102007049Y-54395675D01*
X101826181Y-54470593D01*
X101672703Y-54332883D01*
X101017703Y-55062882D01*
X100967985Y-55162499D01*
X100889727Y-55194371D01*
X100642330Y-55849379D01*
X98972516Y-55849379D01*
X98742447Y-55447735D01*
X98199064Y-55027835D01*
X97536355Y-54847841D01*
X96855210Y-54935156D01*
X96259329Y-55276487D01*
X95839429Y-55819870D01*
X95659435Y-56482579D01*
X95636506Y-56815056D01*
X95612807Y-56872129D01*
X95612196Y-57572300D01*
X84422644Y-57572300D01*
X84634965Y-57360349D01*
X84636619Y-57359110D01*
X84640159Y-57355165D01*
X84853685Y-57142011D01*
X84872870Y-57095807D01*
X86018339Y-55819180D01*
X86368427Y-55228401D01*
X86465784Y-54548619D01*
X86295590Y-53883326D01*
X86123654Y-53653909D01*
X86241540Y-53654012D01*
X86796729Y-53424612D01*
X87221870Y-53000213D01*
X87452238Y-52445425D01*
X87452240Y-52442790D01*
X93322238Y-52442790D01*
X93551638Y-52997979D01*
X93976037Y-53423120D01*
X94530825Y-53653488D01*
X95131540Y-53654012D01*
X95686729Y-53424612D01*
X96111870Y-53000213D01*
X96251321Y-52664376D01*
X97283145Y-52664376D01*
X97682528Y-53630957D01*
X98421404Y-54371123D01*
X99387285Y-54772192D01*
X100433126Y-54773105D01*
X101399707Y-54373722D01*
X102139873Y-53634846D01*
X102540942Y-52668965D01*
X102541855Y-51623124D01*
X102142472Y-50656543D01*
X101403596Y-49916377D01*
X100437715Y-49515308D01*
X99391874Y-49514395D01*
X98425293Y-49913778D01*
X97685127Y-50652654D01*
X97284058Y-51618535D01*
X97283145Y-52664376D01*
X96251321Y-52664376D01*
X96342238Y-52445425D01*
X96342762Y-51844710D01*
X96113362Y-51289521D01*
X95688963Y-50864380D01*
X95134175Y-50634012D01*
X94533460Y-50633488D01*
X93978271Y-50862888D01*
X93553130Y-51287287D01*
X93322762Y-51842075D01*
X93322238Y-52442790D01*
X87452240Y-52442790D01*
X87452762Y-51844710D01*
X87223362Y-51289521D01*
X86798963Y-50864380D01*
X86244175Y-50634012D01*
X85643460Y-50633488D01*
X85088271Y-50862888D01*
X84663130Y-51287287D01*
X84432762Y-51842075D01*
X84432238Y-52442790D01*
X84615664Y-52886714D01*
X84613193Y-52886360D01*
X83947899Y-53056554D01*
X83398379Y-53468391D01*
X82084804Y-54932372D01*
X81871315Y-55145489D01*
X81721330Y-55506692D01*
X81666571Y-55599100D01*
X81657942Y-55659348D01*
X81602807Y-55792129D01*
X81602586Y-56045869D01*
X81569214Y-56278881D01*
X80054419Y-56278881D01*
X79990602Y-55963299D01*
X79606272Y-55392047D01*
X79032590Y-55011356D01*
X78879518Y-54961402D01*
X78599022Y-55060064D01*
X78571785Y-55455003D01*
X78316626Y-55463059D01*
X78345624Y-55042588D01*
X78081328Y-54906354D01*
X77922846Y-54934822D01*
X77302335Y-55233154D01*
X76843224Y-55746237D01*
X76615409Y-56395959D01*
X76595409Y-56685959D01*
X76643029Y-56689243D01*
X76552330Y-56929379D01*
X75035799Y-56929379D01*
X75085000Y-56682032D01*
X75085000Y-56217968D01*
X74975767Y-55668817D01*
X74664698Y-55203270D01*
X74199151Y-54892201D01*
X73650000Y-54782968D01*
X73100849Y-54892201D01*
X72635302Y-55203270D01*
X72324233Y-55668817D01*
X72215000Y-56217968D01*
X70317779Y-56217968D01*
X70375767Y-56131183D01*
X70485000Y-55582032D01*
X70485000Y-55117968D01*
X70375767Y-54568817D01*
X70064698Y-54103270D01*
X69842754Y-53954971D01*
X70314821Y-53954971D01*
X70472058Y-54335515D01*
X70762954Y-54626919D01*
X71143223Y-54784820D01*
X71554971Y-54785179D01*
X71935515Y-54627942D01*
X72226919Y-54337046D01*
X72384820Y-53956777D01*
X72385179Y-53545029D01*
X72227942Y-53164485D01*
X71937046Y-52873081D01*
X71556777Y-52715180D01*
X71145029Y-52714821D01*
X70764485Y-52872058D01*
X70473081Y-53162954D01*
X70315180Y-53543223D01*
X70314821Y-53954971D01*
X69842754Y-53954971D01*
X69599151Y-53792201D01*
X69050000Y-53682968D01*
X68500849Y-53792201D01*
X68035302Y-54103270D01*
X67724233Y-54568817D01*
X67615000Y-55117968D01*
X67334242Y-55117968D01*
X67415784Y-54548619D01*
X67245590Y-53883326D01*
X67073654Y-53653909D01*
X67191540Y-53654012D01*
X67746729Y-53424612D01*
X68171870Y-53000213D01*
X68273361Y-52755796D01*
X68500849Y-52907799D01*
X69050000Y-53017032D01*
X69599151Y-52907799D01*
X70064698Y-52596730D01*
X70167557Y-52442790D01*
X74272238Y-52442790D01*
X74501638Y-52997979D01*
X74926037Y-53423120D01*
X75480825Y-53653488D01*
X76081540Y-53654012D01*
X76636729Y-53424612D01*
X77061870Y-53000213D01*
X77201321Y-52664376D01*
X78233145Y-52664376D01*
X78632528Y-53630957D01*
X79371404Y-54371123D01*
X80337285Y-54772192D01*
X81383126Y-54773105D01*
X82349707Y-54373722D01*
X83089873Y-53634846D01*
X83490942Y-52668965D01*
X83491855Y-51623124D01*
X83092472Y-50656543D01*
X82353596Y-49916377D01*
X81387715Y-49515308D01*
X80341874Y-49514395D01*
X79375293Y-49913778D01*
X78635127Y-50652654D01*
X78234058Y-51618535D01*
X78233145Y-52664376D01*
X77201321Y-52664376D01*
X77292238Y-52445425D01*
X77292762Y-51844710D01*
X77063362Y-51289521D01*
X76638963Y-50864380D01*
X76084175Y-50634012D01*
X75483460Y-50633488D01*
X74928271Y-50862888D01*
X74503130Y-51287287D01*
X74272762Y-51842075D01*
X74272238Y-52442790D01*
X70167557Y-52442790D01*
X70375767Y-52131183D01*
X70485000Y-51582032D01*
X70485000Y-51117968D01*
X70375767Y-50568817D01*
X70064698Y-50103270D01*
X69653343Y-49828411D01*
X69954424Y-49670637D01*
X70314428Y-49239226D01*
X70481934Y-48702886D01*
X70329471Y-48477000D01*
X69177000Y-48477000D01*
X69177000Y-48497000D01*
X68923000Y-48497000D01*
X68923000Y-48477000D01*
X67770529Y-48477000D01*
X67618066Y-48702886D01*
X67785572Y-49239226D01*
X68145576Y-49670637D01*
X68446657Y-49828411D01*
X68035302Y-50103270D01*
X67724233Y-50568817D01*
X67671814Y-50832345D01*
X67194175Y-50634012D01*
X66593460Y-50633488D01*
X66038271Y-50862888D01*
X65613130Y-51287287D01*
X65382762Y-51842075D01*
X65382238Y-52442790D01*
X65565664Y-52886714D01*
X65563193Y-52886360D01*
X64897899Y-53056554D01*
X64348379Y-53468391D01*
X63034804Y-54932372D01*
X62821315Y-55145489D01*
X62671330Y-55506692D01*
X62616571Y-55599100D01*
X62607942Y-55659348D01*
X62552807Y-55792129D01*
X62552586Y-56045869D01*
X62519214Y-56278881D01*
X61004419Y-56278881D01*
X60940602Y-55963299D01*
X60556272Y-55392047D01*
X59982590Y-55011356D01*
X59829518Y-54961402D01*
X59549022Y-55060064D01*
X59521785Y-55455003D01*
X59266626Y-55463059D01*
X59295624Y-55042588D01*
X59031328Y-54906354D01*
X58872846Y-54934822D01*
X58252335Y-55233154D01*
X57793224Y-55746237D01*
X57565409Y-56395959D01*
X57545409Y-56685959D01*
X57593029Y-56689243D01*
X57502330Y-56929379D01*
X55530000Y-56929379D01*
X55530000Y-53076478D01*
X55876037Y-53423120D01*
X56430825Y-53653488D01*
X57031540Y-53654012D01*
X57586729Y-53424612D01*
X58011870Y-53000213D01*
X58151321Y-52664376D01*
X59183145Y-52664376D01*
X59582528Y-53630957D01*
X60321404Y-54371123D01*
X61287285Y-54772192D01*
X62333126Y-54773105D01*
X63299707Y-54373722D01*
X64039873Y-53634846D01*
X64440942Y-52668965D01*
X64441855Y-51623124D01*
X64042472Y-50656543D01*
X63303596Y-49916377D01*
X62337715Y-49515308D01*
X61291874Y-49514395D01*
X60325293Y-49913778D01*
X59585127Y-50652654D01*
X59184058Y-51618535D01*
X59183145Y-52664376D01*
X58151321Y-52664376D01*
X58242238Y-52445425D01*
X58242762Y-51844710D01*
X58013362Y-51289521D01*
X57588963Y-50864380D01*
X57034175Y-50634012D01*
X56433460Y-50633488D01*
X55878271Y-50862888D01*
X55530000Y-51210551D01*
X55530000Y-47997114D01*
X67618066Y-47997114D01*
X67770529Y-48223000D01*
X68923000Y-48223000D01*
X68923000Y-46880085D01*
X69177000Y-46880085D01*
X69177000Y-48223000D01*
X70329471Y-48223000D01*
X70481934Y-47997114D01*
X70314428Y-47460774D01*
X69954424Y-47029363D01*
X69812462Y-46954971D01*
X70314821Y-46954971D01*
X70472058Y-47335515D01*
X70762954Y-47626919D01*
X71143223Y-47784820D01*
X71554971Y-47785179D01*
X71935515Y-47627942D01*
X72226919Y-47337046D01*
X72384820Y-46956777D01*
X72385179Y-46545029D01*
X72227942Y-46164485D01*
X72046774Y-45983000D01*
X104395000Y-45983000D01*
X104395000Y-47233000D01*
X105653000Y-47233000D01*
X105653000Y-44890344D01*
X105907000Y-44890344D01*
X105907000Y-47233000D01*
X107165000Y-47233000D01*
X107165000Y-45983000D01*
X111695000Y-45983000D01*
X111695000Y-47233000D01*
X112953000Y-47233000D01*
X112953000Y-44890344D01*
X113207000Y-44890344D01*
X113207000Y-47233000D01*
X114465000Y-47233000D01*
X114465000Y-45983000D01*
X114310972Y-45462651D01*
X113969540Y-45040855D01*
X113492684Y-44781827D01*
X113421185Y-44767682D01*
X113207000Y-44890344D01*
X112953000Y-44890344D01*
X112738815Y-44767682D01*
X112667316Y-44781827D01*
X112190460Y-45040855D01*
X111849028Y-45462651D01*
X111695000Y-45983000D01*
X107165000Y-45983000D01*
X107010972Y-45462651D01*
X106669540Y-45040855D01*
X106192684Y-44781827D01*
X106121185Y-44767682D01*
X105907000Y-44890344D01*
X105653000Y-44890344D01*
X105438815Y-44767682D01*
X105367316Y-44781827D01*
X104890460Y-45040855D01*
X104549028Y-45462651D01*
X104395000Y-45983000D01*
X72046774Y-45983000D01*
X71937046Y-45873081D01*
X71556777Y-45715180D01*
X71145029Y-45714821D01*
X70764485Y-45872058D01*
X70473081Y-46162954D01*
X70315180Y-46543223D01*
X70314821Y-46954971D01*
X69812462Y-46954971D01*
X69456730Y-46768558D01*
X69399039Y-46758096D01*
X69177000Y-46880085D01*
X68923000Y-46880085D01*
X68700961Y-46758096D01*
X68643270Y-46768558D01*
X68145576Y-47029363D01*
X67785572Y-47460774D01*
X67618066Y-47997114D01*
X55530000Y-47997114D01*
X55530000Y-47246362D01*
X55636876Y-46679646D01*
X55911523Y-46259620D01*
X56325997Y-45976672D01*
X56883498Y-45860000D01*
X66550000Y-45860000D01*
X66821705Y-45805954D01*
X67052046Y-45652046D01*
X68844092Y-43860000D01*
X73855908Y-43860000D01*
X75647954Y-45652046D01*
X75647954Y-45652046D01*
G37*
X75647954Y-45652046D02*
X75878295Y-45805954D01*
X76150000Y-45860000D01*
X103570000Y-45860000D01*
X103841705Y-45805954D01*
X104072046Y-45652046D01*
X105864092Y-43860000D01*
X112995908Y-43860000D01*
X114787954Y-45652046D01*
X115018295Y-45805954D01*
X115290000Y-45860000D01*
X142913638Y-45860000D01*
X143480354Y-45966876D01*
X143900380Y-46241523D01*
X144183328Y-46655997D01*
X144300000Y-47213498D01*
X144300000Y-51216031D01*
X143948963Y-50864380D01*
X143394175Y-50634012D01*
X142793460Y-50633488D01*
X142238271Y-50862888D01*
X141813130Y-51287287D01*
X141582762Y-51842075D01*
X141582238Y-52442790D01*
X141784391Y-52932037D01*
X141176573Y-53041645D01*
X140597335Y-53413829D01*
X139942334Y-54143829D01*
X140219075Y-54392138D01*
X140107049Y-54395675D01*
X139926181Y-54470593D01*
X139772703Y-54332883D01*
X139117703Y-55062882D01*
X139067985Y-55162499D01*
X138989727Y-55194371D01*
X138742330Y-55849379D01*
X138764425Y-56549201D01*
X138989727Y-57093129D01*
X139045591Y-57115880D01*
X139070115Y-57152278D01*
X139351965Y-57247002D01*
X140507505Y-55959150D01*
X140512500Y-55964145D01*
X141216462Y-55260183D01*
X141360198Y-55389152D01*
X141346841Y-55404038D01*
X141391630Y-55444225D01*
X141211762Y-55624093D01*
X141177211Y-55593092D01*
X140517494Y-56328349D01*
X140512500Y-56323355D01*
X139449158Y-57386697D01*
X139563121Y-57666523D01*
X139790751Y-57752499D01*
X139808094Y-57761632D01*
X139824227Y-57765143D01*
X140218129Y-57913920D01*
X140471152Y-57905931D01*
X140480850Y-57908042D01*
X140497096Y-57905112D01*
X140917951Y-57891825D01*
X141461879Y-57666523D01*
X141503608Y-57564061D01*
X141737663Y-57413671D01*
X142019515Y-57099547D01*
X142035273Y-57093129D01*
X142042543Y-57073882D01*
X142392664Y-56683671D01*
X142241242Y-56547806D01*
X142282670Y-56438121D01*
X142276353Y-56238053D01*
X142562295Y-56494617D01*
X143217295Y-55764618D01*
X143524753Y-55148576D01*
X143573058Y-54461769D01*
X143354856Y-53808757D01*
X143264883Y-53675222D01*
X143201279Y-53653846D01*
X143391540Y-53654012D01*
X143946729Y-53424612D01*
X144300000Y-53071958D01*
X144300000Y-70266031D01*
X143948963Y-69914380D01*
X143394175Y-69684012D01*
X142793460Y-69683488D01*
X142238271Y-69912888D01*
X141813130Y-70337287D01*
X141582762Y-70892075D01*
X141582238Y-71492790D01*
X141811638Y-72047979D01*
X142236037Y-72473120D01*
X142790825Y-72703488D01*
X143391540Y-72704012D01*
X143946729Y-72474612D01*
X144300000Y-72121958D01*
X144300000Y-89316031D01*
X143948963Y-88964380D01*
X143394175Y-88734012D01*
X142793460Y-88733488D01*
X142238271Y-88962888D01*
X141813130Y-89387287D01*
X141582762Y-89942075D01*
X141582238Y-90542790D01*
X141784391Y-91032037D01*
X141176573Y-91141645D01*
X140597335Y-91513829D01*
X139942334Y-92243829D01*
X140219075Y-92492138D01*
X140107049Y-92495675D01*
X139926181Y-92570593D01*
X139772703Y-92432883D01*
X139117703Y-93162882D01*
X139067985Y-93262499D01*
X138989727Y-93294371D01*
X138742330Y-93949379D01*
X138764425Y-94649201D01*
X138989727Y-95193129D01*
X139045591Y-95215880D01*
X139070115Y-95252278D01*
X139351965Y-95347002D01*
X140507505Y-94059150D01*
X140512500Y-94064145D01*
X141216462Y-93360183D01*
X141360198Y-93489152D01*
X141346841Y-93504038D01*
X141391630Y-93544225D01*
X141211762Y-93724093D01*
X141177211Y-93693092D01*
X140517494Y-94428349D01*
X140512500Y-94423355D01*
X139449158Y-95486697D01*
X139563121Y-95766523D01*
X139790751Y-95852499D01*
X139808094Y-95861632D01*
X139824227Y-95865143D01*
X140218129Y-96013920D01*
X140471152Y-96005931D01*
X140480850Y-96008042D01*
X140497096Y-96005112D01*
X140917951Y-95991825D01*
X141461879Y-95766523D01*
X141503608Y-95664061D01*
X141737663Y-95513671D01*
X142019515Y-95199547D01*
X142035273Y-95193129D01*
X142042543Y-95173882D01*
X142392664Y-94783671D01*
X142241242Y-94647806D01*
X142282670Y-94538121D01*
X142276353Y-94338053D01*
X142562295Y-94594617D01*
X143217295Y-93864618D01*
X143524753Y-93248576D01*
X143573058Y-92561769D01*
X143354856Y-91908757D01*
X143264883Y-91775222D01*
X143201279Y-91753846D01*
X143391540Y-91754012D01*
X143946729Y-91524612D01*
X144300000Y-91171958D01*
X144300000Y-95143637D01*
X144193124Y-95710354D01*
X143918478Y-96130379D01*
X143504003Y-96413328D01*
X142946502Y-96530000D01*
X136755333Y-96530000D01*
X136963685Y-96322011D01*
X137025087Y-96174137D01*
X137045571Y-96147630D01*
X137063491Y-96081651D01*
X137232193Y-95675371D01*
X137232446Y-95385142D01*
X137271093Y-94824761D01*
X137183778Y-94143617D01*
X136842447Y-93547735D01*
X136299064Y-93127835D01*
X135636355Y-92947841D01*
X134955210Y-93035156D01*
X134359329Y-93376487D01*
X133939429Y-93919870D01*
X133759435Y-94582579D01*
X133736506Y-94915056D01*
X133712807Y-94972129D01*
X133712196Y-95672300D01*
X133794508Y-95871511D01*
X133801222Y-95923884D01*
X133854785Y-96017392D01*
X133979575Y-96319407D01*
X134092694Y-96432724D01*
X134142553Y-96519765D01*
X134155798Y-96530000D01*
X117750510Y-96530000D01*
X117779434Y-96501076D01*
X117732972Y-96454614D01*
X117866750Y-96305108D01*
X117945273Y-96273129D01*
X118192670Y-95618121D01*
X118184414Y-95356613D01*
X118189591Y-95281541D01*
X118182027Y-95281019D01*
X118173971Y-95025861D01*
X118207067Y-95028143D01*
X118227067Y-94738143D01*
X118154419Y-94378881D01*
X119669214Y-94378881D01*
X119702269Y-94508096D01*
X119702196Y-94592300D01*
X119758945Y-94729644D01*
X119839408Y-95044175D01*
X119949731Y-95191381D01*
X119969575Y-95239407D01*
X120034367Y-95304312D01*
X120251244Y-95593695D01*
X120427524Y-95698156D01*
X120464239Y-95734935D01*
X120548942Y-95770107D01*
X120842024Y-95943783D01*
X121033108Y-95971150D01*
X121110879Y-96003443D01*
X121259497Y-96003573D01*
X121521805Y-96041140D01*
X121667266Y-96003929D01*
X121811050Y-96004054D01*
X122045575Y-95907150D01*
X122187099Y-95870946D01*
X122253335Y-95821306D01*
X122458157Y-95736675D01*
X122734965Y-95460349D01*
X122736619Y-95459110D01*
X122740159Y-95455165D01*
X122953685Y-95242011D01*
X122972870Y-95195807D01*
X124118339Y-93919180D01*
X124468427Y-93328401D01*
X124565784Y-92648619D01*
X124395590Y-91983326D01*
X124223654Y-91753909D01*
X124341540Y-91754012D01*
X124896729Y-91524612D01*
X125321870Y-91100213D01*
X125552238Y-90545425D01*
X125552240Y-90542790D01*
X131422238Y-90542790D01*
X131651638Y-91097979D01*
X132076037Y-91523120D01*
X132630825Y-91753488D01*
X133231540Y-91754012D01*
X133786729Y-91524612D01*
X134211870Y-91100213D01*
X134351321Y-90764376D01*
X135383145Y-90764376D01*
X135782528Y-91730957D01*
X136521404Y-92471123D01*
X137487285Y-92872192D01*
X138533126Y-92873105D01*
X139499707Y-92473722D01*
X140239873Y-91734846D01*
X140640942Y-90768965D01*
X140641855Y-89723124D01*
X140242472Y-88756543D01*
X139503596Y-88016377D01*
X138537715Y-87615308D01*
X137491874Y-87614395D01*
X136525293Y-88013778D01*
X135785127Y-88752654D01*
X135384058Y-89718535D01*
X135383145Y-90764376D01*
X134351321Y-90764376D01*
X134442238Y-90545425D01*
X134442762Y-89944710D01*
X134213362Y-89389521D01*
X133788963Y-88964380D01*
X133234175Y-88734012D01*
X132633460Y-88733488D01*
X132078271Y-88962888D01*
X131653130Y-89387287D01*
X131422762Y-89942075D01*
X131422238Y-90542790D01*
X125552240Y-90542790D01*
X125552762Y-89944710D01*
X125323362Y-89389521D01*
X124898963Y-88964380D01*
X124344175Y-88734012D01*
X123743460Y-88733488D01*
X123188271Y-88962888D01*
X122763130Y-89387287D01*
X122532762Y-89942075D01*
X122532238Y-90542790D01*
X122715664Y-90986714D01*
X122713193Y-90986360D01*
X122047899Y-91156554D01*
X121498379Y-91568391D01*
X120184804Y-93032372D01*
X119971315Y-93245489D01*
X119821330Y-93606692D01*
X119766571Y-93699100D01*
X119757942Y-93759348D01*
X119702807Y-93892129D01*
X119702586Y-94145869D01*
X119669214Y-94378881D01*
X118154419Y-94378881D01*
X118090602Y-94063299D01*
X117706272Y-93492047D01*
X117132590Y-93111356D01*
X116979518Y-93061402D01*
X116699022Y-93160064D01*
X116671785Y-93555003D01*
X116416626Y-93563059D01*
X116445624Y-93142588D01*
X116181328Y-93006354D01*
X116022846Y-93034822D01*
X115402335Y-93333154D01*
X114943224Y-93846237D01*
X114715409Y-94495959D01*
X114695409Y-94785959D01*
X114743029Y-94789243D01*
X114652330Y-95029379D01*
X114660586Y-95290884D01*
X114657933Y-95329357D01*
X114662517Y-95352024D01*
X114674425Y-95729201D01*
X114899727Y-96273129D01*
X115003862Y-96315539D01*
X115103301Y-96463341D01*
X115065566Y-96501076D01*
X115094490Y-96530000D01*
X99370000Y-96530000D01*
X99297986Y-96544325D01*
X99224564Y-96545055D01*
X98458609Y-96705352D01*
X98816750Y-96305108D01*
X98895273Y-96273129D01*
X99142670Y-95618121D01*
X99134414Y-95356613D01*
X99139591Y-95281541D01*
X99132027Y-95281019D01*
X99123971Y-95025861D01*
X99157067Y-95028143D01*
X99177067Y-94738143D01*
X99104419Y-94378881D01*
X100619214Y-94378881D01*
X100652269Y-94508096D01*
X100652196Y-94592300D01*
X100708945Y-94729644D01*
X100789408Y-95044175D01*
X100899731Y-95191381D01*
X100919575Y-95239407D01*
X100984367Y-95304312D01*
X101201244Y-95593695D01*
X101377524Y-95698156D01*
X101414239Y-95734935D01*
X101498942Y-95770107D01*
X101792024Y-95943783D01*
X101983108Y-95971150D01*
X102060879Y-96003443D01*
X102209497Y-96003573D01*
X102471805Y-96041140D01*
X102617266Y-96003929D01*
X102761050Y-96004054D01*
X102995575Y-95907150D01*
X103137099Y-95870946D01*
X103203335Y-95821306D01*
X103408157Y-95736675D01*
X103684965Y-95460349D01*
X103686619Y-95459110D01*
X103690159Y-95455165D01*
X103903685Y-95242011D01*
X103922870Y-95195807D01*
X105068339Y-93919180D01*
X105418427Y-93328401D01*
X105515784Y-92648619D01*
X105345590Y-91983326D01*
X105173654Y-91753909D01*
X105291540Y-91754012D01*
X105846729Y-91524612D01*
X106271870Y-91100213D01*
X106502238Y-90545425D01*
X106502240Y-90542790D01*
X112372238Y-90542790D01*
X112601638Y-91097979D01*
X113026037Y-91523120D01*
X113580825Y-91753488D01*
X114181540Y-91754012D01*
X114736729Y-91524612D01*
X115161870Y-91100213D01*
X115301321Y-90764376D01*
X116333145Y-90764376D01*
X116732528Y-91730957D01*
X117471404Y-92471123D01*
X118437285Y-92872192D01*
X119483126Y-92873105D01*
X120449707Y-92473722D01*
X121189873Y-91734846D01*
X121590942Y-90768965D01*
X121591855Y-89723124D01*
X121192472Y-88756543D01*
X120780248Y-88343599D01*
X126764699Y-88343599D01*
X127028281Y-88981515D01*
X127515918Y-89470004D01*
X128153373Y-89734699D01*
X128843599Y-89735301D01*
X129481515Y-89471719D01*
X129970004Y-88984082D01*
X130234699Y-88346627D01*
X130235301Y-87656401D01*
X129971719Y-87018485D01*
X129484082Y-86529996D01*
X128846627Y-86265301D01*
X128156401Y-86264699D01*
X127518485Y-86528281D01*
X127029996Y-87015918D01*
X126765301Y-87653373D01*
X126764699Y-88343599D01*
X120780248Y-88343599D01*
X120453596Y-88016377D01*
X119487715Y-87615308D01*
X118441874Y-87614395D01*
X117475293Y-88013778D01*
X116735127Y-88752654D01*
X116334058Y-89718535D01*
X116333145Y-90764376D01*
X115301321Y-90764376D01*
X115392238Y-90545425D01*
X115392762Y-89944710D01*
X115163362Y-89389521D01*
X114738963Y-88964380D01*
X114184175Y-88734012D01*
X113583460Y-88733488D01*
X113028271Y-88962888D01*
X112603130Y-89387287D01*
X112372762Y-89942075D01*
X112372238Y-90542790D01*
X106502240Y-90542790D01*
X106502762Y-89944710D01*
X106273362Y-89389521D01*
X105848963Y-88964380D01*
X105294175Y-88734012D01*
X104693460Y-88733488D01*
X104138271Y-88962888D01*
X103713130Y-89387287D01*
X103482762Y-89942075D01*
X103482238Y-90542790D01*
X103665664Y-90986714D01*
X103663193Y-90986360D01*
X102997899Y-91156554D01*
X102448379Y-91568391D01*
X101134804Y-93032372D01*
X100921315Y-93245489D01*
X100771330Y-93606692D01*
X100716571Y-93699100D01*
X100707942Y-93759348D01*
X100652807Y-93892129D01*
X100652586Y-94145869D01*
X100619214Y-94378881D01*
X99104419Y-94378881D01*
X99040602Y-94063299D01*
X98656272Y-93492047D01*
X98082590Y-93111356D01*
X97929518Y-93061402D01*
X97649022Y-93160064D01*
X97621785Y-93555003D01*
X97366626Y-93563059D01*
X97395624Y-93142588D01*
X97131328Y-93006354D01*
X96972846Y-93034822D01*
X96352335Y-93333154D01*
X95893224Y-93846237D01*
X95665409Y-94495959D01*
X95645409Y-94785959D01*
X95693029Y-94789243D01*
X95602330Y-95029379D01*
X95610586Y-95290884D01*
X95607933Y-95329357D01*
X95612517Y-95352024D01*
X95624425Y-95729201D01*
X95849727Y-96273129D01*
X95953862Y-96315539D01*
X96128728Y-96575453D01*
X96380866Y-96742770D01*
X96423121Y-96846523D01*
X96687952Y-96946550D01*
X96702410Y-96956144D01*
X96782892Y-96982409D01*
X97078129Y-97093920D01*
X97339627Y-97085664D01*
X97378109Y-97088318D01*
X97378376Y-97084440D01*
X97777951Y-97071825D01*
X97896927Y-97022544D01*
X97554264Y-97256469D01*
X97541904Y-97269078D01*
X97360334Y-97454296D01*
X96931109Y-98110722D01*
X96833226Y-98353848D01*
X96827647Y-98367705D01*
X96682299Y-99138422D01*
X96683055Y-99214369D01*
X96670000Y-99280000D01*
X96670000Y-108361022D01*
X96323963Y-108014380D01*
X95769175Y-107784012D01*
X95168460Y-107783488D01*
X94613271Y-108012888D01*
X94188130Y-108437287D01*
X93957762Y-108992075D01*
X93957238Y-109592790D01*
X94159391Y-110082037D01*
X93551573Y-110191645D01*
X92972335Y-110563829D01*
X92317334Y-111293829D01*
X92594075Y-111542138D01*
X92482049Y-111545675D01*
X92301181Y-111620593D01*
X92147703Y-111482883D01*
X91492703Y-112212882D01*
X91442985Y-112312499D01*
X91364727Y-112344371D01*
X91117330Y-112999379D01*
X91139425Y-113699201D01*
X91364727Y-114243129D01*
X91420591Y-114265880D01*
X91445115Y-114302278D01*
X91635410Y-114366232D01*
X91530566Y-114471076D01*
X91542961Y-114483471D01*
X90971256Y-115054178D01*
X90641876Y-115847414D01*
X90641175Y-116650000D01*
X75909176Y-116650000D01*
X75909874Y-115851183D01*
X75581878Y-115057373D01*
X75075148Y-114549757D01*
X75344515Y-114249547D01*
X75360273Y-114243129D01*
X75367543Y-114223882D01*
X75497199Y-114079379D01*
X76552330Y-114079379D01*
X76560586Y-114340884D01*
X76557933Y-114379357D01*
X76562517Y-114402024D01*
X76574425Y-114779201D01*
X76799727Y-115323129D01*
X76903862Y-115365539D01*
X77078728Y-115625453D01*
X77330866Y-115792770D01*
X77373121Y-115896523D01*
X77637952Y-115996550D01*
X77652410Y-116006144D01*
X77732892Y-116032409D01*
X78028129Y-116143920D01*
X78289627Y-116135664D01*
X78328109Y-116138318D01*
X78328376Y-116134440D01*
X78727951Y-116121825D01*
X79271879Y-115896523D01*
X79301714Y-115823266D01*
X79382665Y-115784346D01*
X79766750Y-115355108D01*
X79845273Y-115323129D01*
X80092670Y-114668121D01*
X80084414Y-114406613D01*
X80089591Y-114331541D01*
X80082027Y-114331019D01*
X80073971Y-114075861D01*
X80107067Y-114078143D01*
X80127067Y-113788143D01*
X80054419Y-113428881D01*
X81569214Y-113428881D01*
X81602269Y-113558096D01*
X81602196Y-113642300D01*
X81658945Y-113779644D01*
X81739408Y-114094175D01*
X81849731Y-114241381D01*
X81869575Y-114289407D01*
X81934367Y-114354312D01*
X82151244Y-114643695D01*
X82327524Y-114748156D01*
X82364239Y-114784935D01*
X82448942Y-114820107D01*
X82742024Y-114993783D01*
X82933108Y-115021150D01*
X83010879Y-115053443D01*
X83159497Y-115053573D01*
X83421805Y-115091140D01*
X83567266Y-115053929D01*
X83711050Y-115054054D01*
X83945575Y-114957150D01*
X84087099Y-114920946D01*
X84153335Y-114871306D01*
X84358157Y-114786675D01*
X84422644Y-114722300D01*
X86087196Y-114722300D01*
X86169508Y-114921511D01*
X86176222Y-114973884D01*
X86229785Y-115067392D01*
X86354575Y-115369407D01*
X86467694Y-115482724D01*
X86517553Y-115569765D01*
X86679545Y-115694944D01*
X86849239Y-115864935D01*
X86957931Y-115910068D01*
X87060936Y-115989665D01*
X87317326Y-116059301D01*
X87495879Y-116133443D01*
X87590608Y-116133526D01*
X87723645Y-116169659D01*
X88002716Y-116133885D01*
X88196050Y-116134054D01*
X88283600Y-116097879D01*
X88404790Y-116082344D01*
X88621168Y-115958399D01*
X88843157Y-115866675D01*
X88926448Y-115783529D01*
X89000671Y-115741013D01*
X89107416Y-115602877D01*
X89338685Y-115372011D01*
X89400087Y-115224137D01*
X89420571Y-115197630D01*
X89438491Y-115131651D01*
X89607193Y-114725371D01*
X89607446Y-114435142D01*
X89646093Y-113874761D01*
X89558778Y-113193617D01*
X89217447Y-112597735D01*
X88674064Y-112177835D01*
X88011355Y-111997841D01*
X87330210Y-112085156D01*
X86734329Y-112426487D01*
X86314429Y-112969870D01*
X86134435Y-113632579D01*
X86111506Y-113965056D01*
X86087807Y-114022129D01*
X86087196Y-114722300D01*
X84422644Y-114722300D01*
X84634965Y-114510349D01*
X84636619Y-114509110D01*
X84640159Y-114505165D01*
X84853685Y-114292011D01*
X84872870Y-114245807D01*
X86018339Y-112969180D01*
X86368427Y-112378401D01*
X86465784Y-111698619D01*
X86295590Y-111033326D01*
X86123654Y-110803909D01*
X86241540Y-110804012D01*
X86796729Y-110574612D01*
X87221870Y-110150213D01*
X87361321Y-109814376D01*
X87758145Y-109814376D01*
X88157528Y-110780957D01*
X88896404Y-111521123D01*
X89862285Y-111922192D01*
X90908126Y-111923105D01*
X91874707Y-111523722D01*
X92614873Y-110784846D01*
X93015942Y-109818965D01*
X93016855Y-108773124D01*
X92617472Y-107806543D01*
X91878596Y-107066377D01*
X90912715Y-106665308D01*
X89866874Y-106664395D01*
X88900293Y-107063778D01*
X88160127Y-107802654D01*
X87759058Y-108768535D01*
X87758145Y-109814376D01*
X87361321Y-109814376D01*
X87452238Y-109595425D01*
X87452762Y-108994710D01*
X87223362Y-108439521D01*
X86798963Y-108014380D01*
X86244175Y-107784012D01*
X85643460Y-107783488D01*
X85625643Y-107790850D01*
X85609175Y-107784012D01*
X85008460Y-107783488D01*
X84453271Y-108012888D01*
X84028130Y-108437287D01*
X83797762Y-108992075D01*
X83797238Y-109592790D01*
X84026638Y-110147979D01*
X84057199Y-110178593D01*
X83947899Y-110206554D01*
X83398379Y-110618391D01*
X82084804Y-112082372D01*
X81871315Y-112295489D01*
X81721330Y-112656692D01*
X81666571Y-112749100D01*
X81657942Y-112809348D01*
X81602807Y-112942129D01*
X81602586Y-113195869D01*
X81569214Y-113428881D01*
X80054419Y-113428881D01*
X79990602Y-113113299D01*
X79606272Y-112542047D01*
X79032590Y-112161356D01*
X78879518Y-112111402D01*
X78599022Y-112210064D01*
X78571785Y-112605003D01*
X78316626Y-112613059D01*
X78345624Y-112192588D01*
X78081328Y-112056354D01*
X77922846Y-112084822D01*
X77302335Y-112383154D01*
X76843224Y-112896237D01*
X76615409Y-113545959D01*
X76595409Y-113835959D01*
X76643029Y-113839243D01*
X76552330Y-114079379D01*
X75497199Y-114079379D01*
X75717664Y-113833671D01*
X75566242Y-113697806D01*
X75607670Y-113588121D01*
X75601353Y-113388053D01*
X75887295Y-113644617D01*
X76542295Y-112914618D01*
X76849753Y-112298576D01*
X76898058Y-111611769D01*
X76679856Y-110958757D01*
X76589883Y-110825222D01*
X76526279Y-110803846D01*
X76716540Y-110804012D01*
X77271729Y-110574612D01*
X77696870Y-110150213D01*
X77836321Y-109814376D01*
X78233145Y-109814376D01*
X78632528Y-110780957D01*
X79371404Y-111521123D01*
X80337285Y-111922192D01*
X81383126Y-111923105D01*
X82349707Y-111523722D01*
X83089873Y-110784846D01*
X83490942Y-109818965D01*
X83491855Y-108773124D01*
X83092472Y-107806543D01*
X82353596Y-107066377D01*
X81387715Y-106665308D01*
X80341874Y-106664395D01*
X79375293Y-107063778D01*
X78635127Y-107802654D01*
X78234058Y-108768535D01*
X78233145Y-109814376D01*
X77836321Y-109814376D01*
X77927238Y-109595425D01*
X77927762Y-108994710D01*
X77698362Y-108439521D01*
X77273963Y-108014380D01*
X76719175Y-107784012D01*
X76118460Y-107783488D01*
X76100643Y-107790850D01*
X76084175Y-107784012D01*
X75483460Y-107783488D01*
X74928271Y-108012888D01*
X74503130Y-108437287D01*
X74272762Y-108992075D01*
X74272238Y-109592790D01*
X74501638Y-110147979D01*
X74538568Y-110184974D01*
X74501573Y-110191645D01*
X73922335Y-110563829D01*
X73267334Y-111293829D01*
X73544075Y-111542138D01*
X73432049Y-111545675D01*
X73251181Y-111620593D01*
X73097703Y-111482883D01*
X72442703Y-112212882D01*
X72392985Y-112312499D01*
X72314727Y-112344371D01*
X72067330Y-112999379D01*
X72089425Y-113699201D01*
X72314727Y-114243129D01*
X72370591Y-114265880D01*
X72395115Y-114302278D01*
X72585410Y-114366232D01*
X72480566Y-114471076D01*
X72492961Y-114483471D01*
X71921256Y-115054178D01*
X71591876Y-115847414D01*
X71591175Y-116650000D01*
X71083176Y-116650000D01*
X71083874Y-115851183D01*
X70755878Y-115057373D01*
X70518199Y-114819279D01*
X70557193Y-114725371D01*
X70557446Y-114435142D01*
X70596093Y-113874761D01*
X70508778Y-113193617D01*
X70167447Y-112597735D01*
X69624064Y-112177835D01*
X68961355Y-111997841D01*
X68280210Y-112085156D01*
X67684329Y-112426487D01*
X67264429Y-112969870D01*
X67084435Y-113632579D01*
X67061506Y-113965056D01*
X67037807Y-114022129D01*
X67037196Y-114722300D01*
X67119508Y-114921511D01*
X67126222Y-114973884D01*
X67144218Y-115005301D01*
X67095256Y-115054178D01*
X66765876Y-115847414D01*
X66765175Y-116650000D01*
X52033176Y-116650000D01*
X52033874Y-115851183D01*
X51705878Y-115057373D01*
X51462670Y-114813740D01*
X51517670Y-114668121D01*
X51509414Y-114406613D01*
X51514591Y-114331541D01*
X51507027Y-114331019D01*
X51498971Y-114075861D01*
X51532067Y-114078143D01*
X51552067Y-113788143D01*
X51479419Y-113428881D01*
X52994214Y-113428881D01*
X53027269Y-113558096D01*
X53027196Y-113642300D01*
X53083945Y-113779644D01*
X53164408Y-114094175D01*
X53274731Y-114241381D01*
X53294575Y-114289407D01*
X53359367Y-114354312D01*
X53576244Y-114643695D01*
X53752524Y-114748156D01*
X53789239Y-114784935D01*
X53873942Y-114820107D01*
X54167024Y-114993783D01*
X54358108Y-115021150D01*
X54435879Y-115053443D01*
X54584497Y-115053573D01*
X54846805Y-115091140D01*
X54992266Y-115053929D01*
X55136050Y-115054054D01*
X55370575Y-114957150D01*
X55512099Y-114920946D01*
X55578335Y-114871306D01*
X55783157Y-114786675D01*
X56059965Y-114510349D01*
X56061619Y-114509110D01*
X56065159Y-114505165D01*
X56278685Y-114292011D01*
X56297870Y-114245807D01*
X56447199Y-114079379D01*
X57502330Y-114079379D01*
X57510586Y-114340884D01*
X57507933Y-114379357D01*
X57512517Y-114402024D01*
X57524425Y-114779201D01*
X57749727Y-115323129D01*
X57853862Y-115365539D01*
X58028728Y-115625453D01*
X58280866Y-115792770D01*
X58323121Y-115896523D01*
X58587952Y-115996550D01*
X58602410Y-116006144D01*
X58682892Y-116032409D01*
X58978129Y-116143920D01*
X59239627Y-116135664D01*
X59278109Y-116138318D01*
X59278376Y-116134440D01*
X59677951Y-116121825D01*
X60221879Y-115896523D01*
X60251714Y-115823266D01*
X60332665Y-115784346D01*
X60716750Y-115355108D01*
X60795273Y-115323129D01*
X61042670Y-114668121D01*
X61034414Y-114406613D01*
X61039591Y-114331541D01*
X61032027Y-114331019D01*
X61023971Y-114075861D01*
X61057067Y-114078143D01*
X61077067Y-113788143D01*
X61004419Y-113428881D01*
X62519214Y-113428881D01*
X62552269Y-113558096D01*
X62552196Y-113642300D01*
X62608945Y-113779644D01*
X62689408Y-114094175D01*
X62799731Y-114241381D01*
X62819575Y-114289407D01*
X62884367Y-114354312D01*
X63101244Y-114643695D01*
X63277524Y-114748156D01*
X63314239Y-114784935D01*
X63398942Y-114820107D01*
X63692024Y-114993783D01*
X63883108Y-115021150D01*
X63960879Y-115053443D01*
X64109497Y-115053573D01*
X64371805Y-115091140D01*
X64517266Y-115053929D01*
X64661050Y-115054054D01*
X64895575Y-114957150D01*
X65037099Y-114920946D01*
X65103335Y-114871306D01*
X65308157Y-114786675D01*
X65584965Y-114510349D01*
X65586619Y-114509110D01*
X65590159Y-114505165D01*
X65803685Y-114292011D01*
X65822870Y-114245807D01*
X66968339Y-112969180D01*
X67318427Y-112378401D01*
X67415784Y-111698619D01*
X67245590Y-111033326D01*
X67073654Y-110803909D01*
X67191540Y-110804012D01*
X67746729Y-110574612D01*
X68171870Y-110150213D01*
X68311321Y-109814376D01*
X68708145Y-109814376D01*
X69107528Y-110780957D01*
X69846404Y-111521123D01*
X70812285Y-111922192D01*
X71858126Y-111923105D01*
X72824707Y-111523722D01*
X73564873Y-110784846D01*
X73965942Y-109818965D01*
X73966855Y-108773124D01*
X73567472Y-107806543D01*
X72828596Y-107066377D01*
X71862715Y-106665308D01*
X70816874Y-106664395D01*
X69850293Y-107063778D01*
X69110127Y-107802654D01*
X68709058Y-108768535D01*
X68708145Y-109814376D01*
X68311321Y-109814376D01*
X68402238Y-109595425D01*
X68402762Y-108994710D01*
X68173362Y-108439521D01*
X67748963Y-108014380D01*
X67194175Y-107784012D01*
X66593460Y-107783488D01*
X66575643Y-107790850D01*
X66559175Y-107784012D01*
X65958460Y-107783488D01*
X65403271Y-108012888D01*
X64978130Y-108437287D01*
X64747762Y-108992075D01*
X64747238Y-109592790D01*
X64976638Y-110147979D01*
X65007199Y-110178593D01*
X64897899Y-110206554D01*
X64348379Y-110618391D01*
X63034804Y-112082372D01*
X62821315Y-112295489D01*
X62671330Y-112656692D01*
X62616571Y-112749100D01*
X62607942Y-112809348D01*
X62552807Y-112942129D01*
X62552586Y-113195869D01*
X62519214Y-113428881D01*
X61004419Y-113428881D01*
X60940602Y-113113299D01*
X60556272Y-112542047D01*
X59982590Y-112161356D01*
X59829518Y-112111402D01*
X59549022Y-112210064D01*
X59521785Y-112605003D01*
X59266626Y-112613059D01*
X59295624Y-112192588D01*
X59031328Y-112056354D01*
X58872846Y-112084822D01*
X58252335Y-112383154D01*
X57793224Y-112896237D01*
X57565409Y-113545959D01*
X57545409Y-113835959D01*
X57593029Y-113839243D01*
X57502330Y-114079379D01*
X56447199Y-114079379D01*
X57443339Y-112969180D01*
X57793427Y-112378401D01*
X57890784Y-111698619D01*
X57720590Y-111033326D01*
X57548654Y-110803909D01*
X57666540Y-110804012D01*
X58221729Y-110574612D01*
X58646870Y-110150213D01*
X58786321Y-109814376D01*
X59183145Y-109814376D01*
X59582528Y-110780957D01*
X60321404Y-111521123D01*
X61287285Y-111922192D01*
X62333126Y-111923105D01*
X63299707Y-111523722D01*
X64039873Y-110784846D01*
X64440942Y-109818965D01*
X64441855Y-108773124D01*
X64042472Y-107806543D01*
X63303596Y-107066377D01*
X62337715Y-106665308D01*
X61291874Y-106664395D01*
X60325293Y-107063778D01*
X59585127Y-107802654D01*
X59184058Y-108768535D01*
X59183145Y-109814376D01*
X58786321Y-109814376D01*
X58877238Y-109595425D01*
X58877762Y-108994710D01*
X58648362Y-108439521D01*
X58223963Y-108014380D01*
X57669175Y-107784012D01*
X57068460Y-107783488D01*
X57050643Y-107790850D01*
X57034175Y-107784012D01*
X56433460Y-107783488D01*
X55878271Y-108012888D01*
X55453130Y-108437287D01*
X55222762Y-108992075D01*
X55222238Y-109592790D01*
X55451638Y-110147979D01*
X55482199Y-110178593D01*
X55372899Y-110206554D01*
X54823379Y-110618391D01*
X53509804Y-112082372D01*
X53296315Y-112295489D01*
X53146330Y-112656692D01*
X53091571Y-112749100D01*
X53082942Y-112809348D01*
X53027807Y-112942129D01*
X53027586Y-113195869D01*
X52994214Y-113428881D01*
X51479419Y-113428881D01*
X51415602Y-113113299D01*
X51031272Y-112542047D01*
X50457590Y-112161356D01*
X50304518Y-112111402D01*
X50024022Y-112210064D01*
X49996785Y-112605003D01*
X49741626Y-112613059D01*
X49770624Y-112192588D01*
X49506328Y-112056354D01*
X49347846Y-112084822D01*
X48727335Y-112383154D01*
X48268224Y-112896237D01*
X48040409Y-113545959D01*
X48020409Y-113835959D01*
X48068029Y-113839243D01*
X47977330Y-114079379D01*
X47985586Y-114340884D01*
X47982933Y-114379357D01*
X47987517Y-114402024D01*
X47999425Y-114779201D01*
X48093412Y-115006106D01*
X48045256Y-115054178D01*
X47715876Y-115847414D01*
X47715175Y-116650000D01*
X47386363Y-116650000D01*
X46819646Y-116543124D01*
X46399621Y-116268478D01*
X46116672Y-115854003D01*
X46000000Y-115296502D01*
X46000000Y-110221469D01*
X46351037Y-110573120D01*
X46905825Y-110803488D01*
X47506540Y-110804012D01*
X48061729Y-110574612D01*
X48486870Y-110150213D01*
X48626321Y-109814376D01*
X49658145Y-109814376D01*
X50057528Y-110780957D01*
X50796404Y-111521123D01*
X51762285Y-111922192D01*
X52808126Y-111923105D01*
X53774707Y-111523722D01*
X54514873Y-110784846D01*
X54915942Y-109818965D01*
X54916855Y-108773124D01*
X54517472Y-107806543D01*
X53778596Y-107066377D01*
X52812715Y-106665308D01*
X51766874Y-106664395D01*
X50800293Y-107063778D01*
X50060127Y-107802654D01*
X49659058Y-108768535D01*
X49658145Y-109814376D01*
X48626321Y-109814376D01*
X48717238Y-109595425D01*
X48717762Y-108994710D01*
X48488362Y-108439521D01*
X48063963Y-108014380D01*
X47509175Y-107784012D01*
X46908460Y-107783488D01*
X46353271Y-108012888D01*
X46000000Y-108365542D01*
X46000000Y-101559376D01*
X47245145Y-101559376D01*
X47644528Y-102525957D01*
X48383404Y-103266123D01*
X49349285Y-103667192D01*
X50395126Y-103668105D01*
X51361707Y-103268722D01*
X52101873Y-102529846D01*
X52502942Y-101563965D01*
X52503134Y-101343599D01*
X60064699Y-101343599D01*
X60328281Y-101981515D01*
X60815918Y-102470004D01*
X61453373Y-102734699D01*
X62143599Y-102735301D01*
X62781515Y-102471719D01*
X63270004Y-101984082D01*
X63446357Y-101559376D01*
X66295145Y-101559376D01*
X66694528Y-102525957D01*
X67433404Y-103266123D01*
X68399285Y-103667192D01*
X69445126Y-103668105D01*
X70411707Y-103268722D01*
X71151873Y-102529846D01*
X71337461Y-102082901D01*
X71520528Y-102525957D01*
X72259404Y-103266123D01*
X73225285Y-103667192D01*
X74271126Y-103668105D01*
X75237707Y-103268722D01*
X75977873Y-102529846D01*
X76378942Y-101563965D01*
X76379178Y-101293599D01*
X79164699Y-101293599D01*
X79428281Y-101931515D01*
X79915918Y-102420004D01*
X80553373Y-102684699D01*
X81243599Y-102685301D01*
X81881515Y-102421719D01*
X82370004Y-101934082D01*
X82525595Y-101559376D01*
X90171145Y-101559376D01*
X90570528Y-102525957D01*
X91309404Y-103266123D01*
X92275285Y-103667192D01*
X93321126Y-103668105D01*
X94287707Y-103268722D01*
X95027873Y-102529846D01*
X95428942Y-101563965D01*
X95429855Y-100518124D01*
X95030472Y-99551543D01*
X94291596Y-98811377D01*
X93325715Y-98410308D01*
X92279874Y-98409395D01*
X91313293Y-98808778D01*
X90573127Y-99547654D01*
X90172058Y-100513535D01*
X90171145Y-101559376D01*
X82525595Y-101559376D01*
X82634699Y-101296627D01*
X82635301Y-100606401D01*
X82371719Y-99968485D01*
X81884082Y-99479996D01*
X81246627Y-99215301D01*
X80556401Y-99214699D01*
X79918485Y-99478281D01*
X79429996Y-99965918D01*
X79165301Y-100603373D01*
X79164699Y-101293599D01*
X76379178Y-101293599D01*
X76379855Y-100518124D01*
X75980472Y-99551543D01*
X75241596Y-98811377D01*
X74275715Y-98410308D01*
X73229874Y-98409395D01*
X72263293Y-98808778D01*
X71523127Y-99547654D01*
X71337539Y-99994599D01*
X71154472Y-99551543D01*
X70415596Y-98811377D01*
X69449715Y-98410308D01*
X68403874Y-98409395D01*
X67437293Y-98808778D01*
X66697127Y-99547654D01*
X66296058Y-100513535D01*
X66295145Y-101559376D01*
X63446357Y-101559376D01*
X63534699Y-101346627D01*
X63535301Y-100656401D01*
X63271719Y-100018485D01*
X62784082Y-99529996D01*
X62146627Y-99265301D01*
X61456401Y-99264699D01*
X60818485Y-99528281D01*
X60329996Y-100015918D01*
X60065301Y-100653373D01*
X60064699Y-101343599D01*
X52503134Y-101343599D01*
X52503855Y-100518124D01*
X52104472Y-99551543D01*
X51365596Y-98811377D01*
X50399715Y-98410308D01*
X49353874Y-98409395D01*
X48387293Y-98808778D01*
X47647127Y-99547654D01*
X47246058Y-100513535D01*
X47245145Y-101559376D01*
X46000000Y-101559376D01*
X46000000Y-99336362D01*
X46106876Y-98769646D01*
X46381523Y-98349620D01*
X46795997Y-98066672D01*
X47353498Y-97950000D01*
X52830000Y-97950000D01*
X52902014Y-97935675D01*
X52975436Y-97934945D01*
X53743107Y-97774289D01*
X53997980Y-97665733D01*
X54645736Y-97223531D01*
X54722566Y-97145157D01*
X54839666Y-97025704D01*
X55268891Y-96369278D01*
X55372353Y-96112295D01*
X55372353Y-96112294D01*
X55517701Y-95341578D01*
X55516945Y-95265631D01*
X55530000Y-95200000D01*
X55530000Y-95029379D01*
X57502330Y-95029379D01*
X57510586Y-95290884D01*
X57507933Y-95329357D01*
X57512517Y-95352024D01*
X57524425Y-95729201D01*
X57749727Y-96273129D01*
X57853862Y-96315539D01*
X58028728Y-96575453D01*
X58280866Y-96742770D01*
X58323121Y-96846523D01*
X58587952Y-96946550D01*
X58602410Y-96956144D01*
X58682892Y-96982409D01*
X58978129Y-97093920D01*
X59239627Y-97085664D01*
X59278109Y-97088318D01*
X59278376Y-97084440D01*
X59677951Y-97071825D01*
X60221879Y-96846523D01*
X60251714Y-96773266D01*
X60332665Y-96734346D01*
X60716750Y-96305108D01*
X60795273Y-96273129D01*
X61042670Y-95618121D01*
X61034414Y-95356613D01*
X61039591Y-95281541D01*
X61032027Y-95281019D01*
X61023971Y-95025861D01*
X61057067Y-95028143D01*
X61077067Y-94738143D01*
X61004419Y-94378881D01*
X62519214Y-94378881D01*
X62552269Y-94508096D01*
X62552196Y-94592300D01*
X62608945Y-94729644D01*
X62689408Y-95044175D01*
X62799731Y-95191381D01*
X62819575Y-95239407D01*
X62884367Y-95304312D01*
X63101244Y-95593695D01*
X63277524Y-95698156D01*
X63314239Y-95734935D01*
X63398942Y-95770107D01*
X63692024Y-95943783D01*
X63883108Y-95971150D01*
X63960879Y-96003443D01*
X64109497Y-96003573D01*
X64371805Y-96041140D01*
X64517266Y-96003929D01*
X64661050Y-96004054D01*
X64895575Y-95907150D01*
X65037099Y-95870946D01*
X65103335Y-95821306D01*
X65308157Y-95736675D01*
X65372644Y-95672300D01*
X76562196Y-95672300D01*
X76644508Y-95871511D01*
X76651222Y-95923884D01*
X76704785Y-96017392D01*
X76829575Y-96319407D01*
X76942694Y-96432724D01*
X76992553Y-96519765D01*
X77154545Y-96644944D01*
X77324239Y-96814935D01*
X77432931Y-96860068D01*
X77535936Y-96939665D01*
X77792326Y-97009301D01*
X77970879Y-97083443D01*
X78065608Y-97083526D01*
X78198645Y-97119659D01*
X78477716Y-97083885D01*
X78671050Y-97084054D01*
X78758600Y-97047879D01*
X78879790Y-97032344D01*
X79096168Y-96908399D01*
X79318157Y-96816675D01*
X79401448Y-96733529D01*
X79475671Y-96691013D01*
X79582416Y-96552877D01*
X79813685Y-96322011D01*
X79875087Y-96174137D01*
X79895571Y-96147630D01*
X79913491Y-96081651D01*
X80082193Y-95675371D01*
X80082446Y-95385142D01*
X80121093Y-94824761D01*
X80033778Y-94143617D01*
X79922516Y-93949379D01*
X81592330Y-93949379D01*
X81614425Y-94649201D01*
X81839727Y-95193129D01*
X81895591Y-95215880D01*
X81920115Y-95252278D01*
X82201965Y-95347002D01*
X83357505Y-94059150D01*
X83362500Y-94064145D01*
X84066462Y-93360183D01*
X84210198Y-93489152D01*
X84196841Y-93504038D01*
X84241630Y-93544225D01*
X84061762Y-93724093D01*
X84027211Y-93693092D01*
X83367494Y-94428349D01*
X83362500Y-94423355D01*
X82299158Y-95486697D01*
X82413121Y-95766523D01*
X82640751Y-95852499D01*
X82658094Y-95861632D01*
X82674227Y-95865143D01*
X83068129Y-96013920D01*
X83321152Y-96005931D01*
X83330850Y-96008042D01*
X83347096Y-96005112D01*
X83767951Y-95991825D01*
X84311879Y-95766523D01*
X84353608Y-95664061D01*
X84587663Y-95513671D01*
X84869515Y-95199547D01*
X84885273Y-95193129D01*
X84892543Y-95173882D01*
X85242664Y-94783671D01*
X85091242Y-94647806D01*
X85132670Y-94538121D01*
X85126353Y-94338053D01*
X85412295Y-94594617D01*
X86067295Y-93864618D01*
X86374753Y-93248576D01*
X86423058Y-92561769D01*
X86204856Y-91908757D01*
X86114883Y-91775222D01*
X86051279Y-91753846D01*
X86241540Y-91754012D01*
X86796729Y-91524612D01*
X87221870Y-91100213D01*
X87452238Y-90545425D01*
X87452240Y-90542790D01*
X93322238Y-90542790D01*
X93551638Y-91097979D01*
X93976037Y-91523120D01*
X94530825Y-91753488D01*
X95131540Y-91754012D01*
X95686729Y-91524612D01*
X96111870Y-91100213D01*
X96251321Y-90764376D01*
X97283145Y-90764376D01*
X97682528Y-91730957D01*
X98421404Y-92471123D01*
X99387285Y-92872192D01*
X100433126Y-92873105D01*
X101399707Y-92473722D01*
X102139873Y-91734846D01*
X102540942Y-90768965D01*
X102541855Y-89723124D01*
X102142472Y-88756543D01*
X101403596Y-88016377D01*
X100437715Y-87615308D01*
X99391874Y-87614395D01*
X98425293Y-88013778D01*
X97685127Y-88752654D01*
X97284058Y-89718535D01*
X97283145Y-90764376D01*
X96251321Y-90764376D01*
X96342238Y-90545425D01*
X96342762Y-89944710D01*
X96113362Y-89389521D01*
X95688963Y-88964380D01*
X95134175Y-88734012D01*
X94533460Y-88733488D01*
X93978271Y-88962888D01*
X93553130Y-89387287D01*
X93322762Y-89942075D01*
X93322238Y-90542790D01*
X87452240Y-90542790D01*
X87452762Y-89944710D01*
X87223362Y-89389521D01*
X86798963Y-88964380D01*
X86244175Y-88734012D01*
X85643460Y-88733488D01*
X85088271Y-88962888D01*
X84663130Y-89387287D01*
X84432762Y-89942075D01*
X84432238Y-90542790D01*
X84634391Y-91032037D01*
X84026573Y-91141645D01*
X83447335Y-91513829D01*
X82792334Y-92243829D01*
X83069075Y-92492138D01*
X82957049Y-92495675D01*
X82776181Y-92570593D01*
X82622703Y-92432883D01*
X81967703Y-93162882D01*
X81917985Y-93262499D01*
X81839727Y-93294371D01*
X81592330Y-93949379D01*
X79922516Y-93949379D01*
X79692447Y-93547735D01*
X79149064Y-93127835D01*
X78486355Y-92947841D01*
X77805210Y-93035156D01*
X77209329Y-93376487D01*
X76789429Y-93919870D01*
X76609435Y-94582579D01*
X76586506Y-94915056D01*
X76562807Y-94972129D01*
X76562196Y-95672300D01*
X65372644Y-95672300D01*
X65584965Y-95460349D01*
X65586619Y-95459110D01*
X65590159Y-95455165D01*
X65803685Y-95242011D01*
X65822870Y-95195807D01*
X66968339Y-93919180D01*
X67318427Y-93328401D01*
X67415784Y-92648619D01*
X67245590Y-91983326D01*
X67073654Y-91753909D01*
X67191540Y-91754012D01*
X67746729Y-91524612D01*
X68171870Y-91100213D01*
X68402238Y-90545425D01*
X68402240Y-90542790D01*
X74272238Y-90542790D01*
X74501638Y-91097979D01*
X74926037Y-91523120D01*
X75480825Y-91753488D01*
X76081540Y-91754012D01*
X76636729Y-91524612D01*
X77061870Y-91100213D01*
X77201321Y-90764376D01*
X78233145Y-90764376D01*
X78632528Y-91730957D01*
X79371404Y-92471123D01*
X80337285Y-92872192D01*
X81383126Y-92873105D01*
X82349707Y-92473722D01*
X83089873Y-91734846D01*
X83490942Y-90768965D01*
X83491855Y-89723124D01*
X83092472Y-88756543D01*
X82353596Y-88016377D01*
X81387715Y-87615308D01*
X80341874Y-87614395D01*
X79375293Y-88013778D01*
X78635127Y-88752654D01*
X78234058Y-89718535D01*
X78233145Y-90764376D01*
X77201321Y-90764376D01*
X77292238Y-90545425D01*
X77292762Y-89944710D01*
X77063362Y-89389521D01*
X76638963Y-88964380D01*
X76084175Y-88734012D01*
X75483460Y-88733488D01*
X74928271Y-88962888D01*
X74503130Y-89387287D01*
X74272762Y-89942075D01*
X74272238Y-90542790D01*
X68402240Y-90542790D01*
X68402762Y-89944710D01*
X68173362Y-89389521D01*
X67748963Y-88964380D01*
X67194175Y-88734012D01*
X66593460Y-88733488D01*
X66038271Y-88962888D01*
X65613130Y-89387287D01*
X65382762Y-89942075D01*
X65382238Y-90542790D01*
X65565664Y-90986714D01*
X65563193Y-90986360D01*
X64897899Y-91156554D01*
X64348379Y-91568391D01*
X63034804Y-93032372D01*
X62821315Y-93245489D01*
X62671330Y-93606692D01*
X62616571Y-93699100D01*
X62607942Y-93759348D01*
X62552807Y-93892129D01*
X62552586Y-94145869D01*
X62519214Y-94378881D01*
X61004419Y-94378881D01*
X60940602Y-94063299D01*
X60556272Y-93492047D01*
X59982590Y-93111356D01*
X59829518Y-93061402D01*
X59549022Y-93160064D01*
X59521785Y-93555003D01*
X59266626Y-93563059D01*
X59295624Y-93142588D01*
X59031328Y-93006354D01*
X58872846Y-93034822D01*
X58252335Y-93333154D01*
X57793224Y-93846237D01*
X57565409Y-94495959D01*
X57545409Y-94785959D01*
X57593029Y-94789243D01*
X57502330Y-95029379D01*
X55530000Y-95029379D01*
X55530000Y-91176478D01*
X55876037Y-91523120D01*
X56430825Y-91753488D01*
X57031540Y-91754012D01*
X57586729Y-91524612D01*
X58011870Y-91100213D01*
X58151321Y-90764376D01*
X59183145Y-90764376D01*
X59582528Y-91730957D01*
X60321404Y-92471123D01*
X61287285Y-92872192D01*
X62333126Y-92873105D01*
X63299707Y-92473722D01*
X64039873Y-91734846D01*
X64440942Y-90768965D01*
X64441855Y-89723124D01*
X64042472Y-88756543D01*
X63303596Y-88016377D01*
X62337715Y-87615308D01*
X61291874Y-87614395D01*
X60325293Y-88013778D01*
X59585127Y-88752654D01*
X59184058Y-89718535D01*
X59183145Y-90764376D01*
X58151321Y-90764376D01*
X58242238Y-90545425D01*
X58242762Y-89944710D01*
X58013362Y-89389521D01*
X57588963Y-88964380D01*
X57034175Y-88734012D01*
X56433460Y-88733488D01*
X55878271Y-88962888D01*
X55530000Y-89310551D01*
X55530000Y-75760000D01*
X87675907Y-75760000D01*
X87788946Y-76328285D01*
X88110853Y-76810054D01*
X88440026Y-77030000D01*
X88110853Y-77249946D01*
X87788946Y-77731715D01*
X87675907Y-78300000D01*
X87788946Y-78868285D01*
X88110853Y-79350054D01*
X88440026Y-79570000D01*
X88110853Y-79789946D01*
X87788946Y-80271715D01*
X87675907Y-80840000D01*
X87788946Y-81408285D01*
X88110853Y-81890054D01*
X88440026Y-82110000D01*
X88110853Y-82329946D01*
X87788946Y-82811715D01*
X87675907Y-83380000D01*
X87788946Y-83948285D01*
X88110853Y-84430054D01*
X88592622Y-84751961D01*
X89160907Y-84865000D01*
X89219093Y-84865000D01*
X89787378Y-84751961D01*
X90269147Y-84430054D01*
X90460000Y-84144422D01*
X90650853Y-84430054D01*
X91132622Y-84751961D01*
X91700907Y-84865000D01*
X91759093Y-84865000D01*
X92327378Y-84751961D01*
X92809147Y-84430054D01*
X93131054Y-83948285D01*
X93244093Y-83380000D01*
X93131054Y-82811715D01*
X92809147Y-82329946D01*
X92479974Y-82110000D01*
X92809147Y-81890054D01*
X93131054Y-81408285D01*
X93244093Y-80840000D01*
X93131054Y-80271715D01*
X92809147Y-79789946D01*
X92479974Y-79570000D01*
X92809147Y-79350054D01*
X93131054Y-78868285D01*
X93244093Y-78300000D01*
X93131054Y-77731715D01*
X92972278Y-77494089D01*
X118414743Y-77494089D01*
X118640344Y-78040086D01*
X119057717Y-78458188D01*
X119603319Y-78684742D01*
X120194089Y-78685257D01*
X120740086Y-78459656D01*
X121158188Y-78042283D01*
X121190229Y-77965120D01*
X121244817Y-78081358D01*
X121673076Y-78471645D01*
X122083110Y-78641476D01*
X122313000Y-78520155D01*
X122313000Y-77327000D01*
X122567000Y-77327000D01*
X122567000Y-78520155D01*
X122796890Y-78641476D01*
X123206924Y-78471645D01*
X123635183Y-78081358D01*
X123881486Y-77556892D01*
X123860370Y-77516661D01*
X124562758Y-77516661D01*
X124774990Y-78030303D01*
X125167630Y-78423629D01*
X125680900Y-78636757D01*
X126236661Y-78637242D01*
X126356172Y-78587861D01*
X126356045Y-78733341D01*
X126527374Y-79147990D01*
X126844341Y-79465511D01*
X127258691Y-79637564D01*
X127707341Y-79637955D01*
X128121990Y-79466626D01*
X128439511Y-79149659D01*
X128499936Y-79004139D01*
X128559374Y-79147990D01*
X128876341Y-79465511D01*
X129290691Y-79637564D01*
X129739341Y-79637955D01*
X130153990Y-79466626D01*
X130471511Y-79149659D01*
X130643564Y-78735309D01*
X130643692Y-78588088D01*
X130760900Y-78636757D01*
X131316661Y-78637242D01*
X131830303Y-78425010D01*
X132223629Y-78032370D01*
X132436757Y-77519100D01*
X132437242Y-76963339D01*
X132225010Y-76449697D01*
X131832370Y-76056371D01*
X131624488Y-75970051D01*
X131830303Y-75885010D01*
X131995601Y-75720000D01*
X135245907Y-75720000D01*
X135358946Y-76288285D01*
X135680853Y-76770054D01*
X136010026Y-76990000D01*
X135680853Y-77209946D01*
X135358946Y-77691715D01*
X135245907Y-78260000D01*
X135358946Y-78828285D01*
X135680853Y-79310054D01*
X136010026Y-79530000D01*
X135680853Y-79749946D01*
X135358946Y-80231715D01*
X135245907Y-80800000D01*
X135358946Y-81368285D01*
X135680853Y-81850054D01*
X136010026Y-82070000D01*
X135680853Y-82289946D01*
X135358946Y-82771715D01*
X135245907Y-83340000D01*
X135358946Y-83908285D01*
X135680853Y-84390054D01*
X136162622Y-84711961D01*
X136730907Y-84825000D01*
X136789093Y-84825000D01*
X137357378Y-84711961D01*
X137839147Y-84390054D01*
X138030000Y-84104422D01*
X138220853Y-84390054D01*
X138702622Y-84711961D01*
X139270907Y-84825000D01*
X139329093Y-84825000D01*
X139897378Y-84711961D01*
X140379147Y-84390054D01*
X140701054Y-83908285D01*
X140814093Y-83340000D01*
X140701054Y-82771715D01*
X140379147Y-82289946D01*
X140049974Y-82070000D01*
X140379147Y-81850054D01*
X140701054Y-81368285D01*
X140814093Y-80800000D01*
X140701054Y-80231715D01*
X140379147Y-79749946D01*
X140049974Y-79530000D01*
X140379147Y-79310054D01*
X140701054Y-78828285D01*
X140814093Y-78260000D01*
X140701054Y-77691715D01*
X140379147Y-77209946D01*
X140084730Y-77013223D01*
X140164353Y-76763958D01*
X139300000Y-75899605D01*
X138435647Y-76763958D01*
X138515270Y-77013223D01*
X138220853Y-77209946D01*
X138030000Y-77495578D01*
X137839147Y-77209946D01*
X137509974Y-76990000D01*
X137839147Y-76770054D01*
X138014732Y-76507271D01*
X138256042Y-76584353D01*
X139120395Y-75720000D01*
X139479605Y-75720000D01*
X140343958Y-76584353D01*
X140595259Y-76504080D01*
X140796718Y-75948721D01*
X140770315Y-75358542D01*
X140595259Y-74935920D01*
X140343958Y-74855647D01*
X139479605Y-75720000D01*
X139120395Y-75720000D01*
X138256042Y-74855647D01*
X138014732Y-74932729D01*
X137843221Y-74676042D01*
X138435647Y-74676042D01*
X139300000Y-75540395D01*
X140164353Y-74676042D01*
X140084080Y-74424741D01*
X139528721Y-74223282D01*
X138938542Y-74249685D01*
X138515920Y-74424741D01*
X138435647Y-74676042D01*
X137843221Y-74676042D01*
X137839147Y-74669946D01*
X137357378Y-74348039D01*
X136789093Y-74235000D01*
X136730907Y-74235000D01*
X136162622Y-74348039D01*
X135680853Y-74669946D01*
X135358946Y-75151715D01*
X135245907Y-75720000D01*
X131995601Y-75720000D01*
X132223629Y-75492370D01*
X132436757Y-74979100D01*
X132437242Y-74423339D01*
X132225010Y-73909697D01*
X131832370Y-73516371D01*
X131319100Y-73303243D01*
X130763339Y-73302758D01*
X130249697Y-73514990D01*
X129856371Y-73907630D01*
X129643243Y-74420900D01*
X129642758Y-74976661D01*
X129854990Y-75490303D01*
X130247630Y-75883629D01*
X130455512Y-75969949D01*
X130249697Y-76054990D01*
X129856371Y-76447630D01*
X129643243Y-76960900D01*
X129642875Y-77382350D01*
X129292659Y-77382045D01*
X128878010Y-77553374D01*
X128560489Y-77870341D01*
X128500064Y-78015861D01*
X128440626Y-77872010D01*
X128123659Y-77554489D01*
X127709309Y-77382436D01*
X127356877Y-77382129D01*
X127357242Y-76963339D01*
X127145010Y-76449697D01*
X126752370Y-76056371D01*
X126560273Y-75976605D01*
X126691143Y-75922397D01*
X126760608Y-75680213D01*
X125960000Y-74879605D01*
X125159392Y-75680213D01*
X125228857Y-75922397D01*
X125369318Y-75972509D01*
X125169697Y-76054990D01*
X124776371Y-76447630D01*
X124563243Y-76960900D01*
X124562758Y-77516661D01*
X123860370Y-77516661D01*
X123760819Y-77327000D01*
X122567000Y-77327000D01*
X122313000Y-77327000D01*
X122293000Y-77327000D01*
X122293000Y-77073000D01*
X122313000Y-77073000D01*
X122313000Y-75879845D01*
X122567000Y-75879845D01*
X122567000Y-77073000D01*
X123760819Y-77073000D01*
X123881486Y-76843108D01*
X123635183Y-76318642D01*
X123206924Y-75928355D01*
X122796890Y-75758524D01*
X122567000Y-75879845D01*
X122313000Y-75879845D01*
X122083110Y-75758524D01*
X121673076Y-75928355D01*
X121244817Y-76318642D01*
X121190443Y-76434424D01*
X121159656Y-76359914D01*
X120742283Y-75941812D01*
X120196681Y-75715258D01*
X119605911Y-75714743D01*
X119059914Y-75940344D01*
X118641812Y-76357717D01*
X118415258Y-76903319D01*
X118414743Y-77494089D01*
X92972278Y-77494089D01*
X92809147Y-77249946D01*
X92514730Y-77053223D01*
X92594353Y-76803958D01*
X91730000Y-75939605D01*
X90865647Y-76803958D01*
X90945270Y-77053223D01*
X90650853Y-77249946D01*
X90460000Y-77535578D01*
X90269147Y-77249946D01*
X89939974Y-77030000D01*
X90269147Y-76810054D01*
X90444732Y-76547271D01*
X90686042Y-76624353D01*
X91550395Y-75760000D01*
X91909605Y-75760000D01*
X92773958Y-76624353D01*
X93025259Y-76544080D01*
X93226718Y-75988721D01*
X93200315Y-75398542D01*
X93025259Y-74975920D01*
X92773958Y-74895647D01*
X91909605Y-75760000D01*
X91550395Y-75760000D01*
X90686042Y-74895647D01*
X90444732Y-74972729D01*
X90273221Y-74716042D01*
X90865647Y-74716042D01*
X91730000Y-75580395D01*
X92594353Y-74716042D01*
X92522884Y-74492302D01*
X124550856Y-74492302D01*
X124578638Y-75047368D01*
X124737603Y-75431143D01*
X124979787Y-75500608D01*
X125780395Y-74700000D01*
X126139605Y-74700000D01*
X126940213Y-75500608D01*
X127182397Y-75431143D01*
X127369144Y-74907698D01*
X127341362Y-74352632D01*
X127182397Y-73968857D01*
X126940213Y-73899392D01*
X126139605Y-74700000D01*
X125780395Y-74700000D01*
X124979787Y-73899392D01*
X124737603Y-73968857D01*
X124550856Y-74492302D01*
X92522884Y-74492302D01*
X92514080Y-74464741D01*
X91958721Y-74263282D01*
X91368542Y-74289685D01*
X90945920Y-74464741D01*
X90865647Y-74716042D01*
X90273221Y-74716042D01*
X90269147Y-74709946D01*
X89787378Y-74388039D01*
X89219093Y-74275000D01*
X89160907Y-74275000D01*
X88592622Y-74388039D01*
X88110853Y-74709946D01*
X87788946Y-75191715D01*
X87675907Y-75760000D01*
X55530000Y-75760000D01*
X55530000Y-72126478D01*
X55876037Y-72473120D01*
X56430825Y-72703488D01*
X57031540Y-72704012D01*
X57586729Y-72474612D01*
X58011870Y-72050213D01*
X58151321Y-71714376D01*
X59183145Y-71714376D01*
X59582528Y-72680957D01*
X60321404Y-73421123D01*
X61287285Y-73822192D01*
X62333126Y-73823105D01*
X63299707Y-73423722D01*
X64039873Y-72684846D01*
X64440942Y-71718965D01*
X64441139Y-71492790D01*
X65382238Y-71492790D01*
X65611638Y-72047979D01*
X66036037Y-72473120D01*
X66590825Y-72703488D01*
X67191540Y-72704012D01*
X67746729Y-72474612D01*
X68171870Y-72050213D01*
X68402238Y-71495425D01*
X68402240Y-71492790D01*
X74272238Y-71492790D01*
X74501638Y-72047979D01*
X74926037Y-72473120D01*
X75480825Y-72703488D01*
X76081540Y-72704012D01*
X76636729Y-72474612D01*
X77061870Y-72050213D01*
X77201321Y-71714376D01*
X78233145Y-71714376D01*
X78632528Y-72680957D01*
X79371404Y-73421123D01*
X80337285Y-73822192D01*
X81383126Y-73823105D01*
X82349707Y-73423722D01*
X83089873Y-72684846D01*
X83490942Y-71718965D01*
X83491139Y-71492790D01*
X84432238Y-71492790D01*
X84661638Y-72047979D01*
X85086037Y-72473120D01*
X85640825Y-72703488D01*
X86241540Y-72704012D01*
X86796729Y-72474612D01*
X87221870Y-72050213D01*
X87452238Y-71495425D01*
X87452240Y-71492790D01*
X93322238Y-71492790D01*
X93551638Y-72047979D01*
X93976037Y-72473120D01*
X94530825Y-72703488D01*
X95131540Y-72704012D01*
X95686729Y-72474612D01*
X96111870Y-72050213D01*
X96251321Y-71714376D01*
X97283145Y-71714376D01*
X97682528Y-72680957D01*
X98421404Y-73421123D01*
X99387285Y-73822192D01*
X100433126Y-73823105D01*
X101399707Y-73423722D01*
X102139873Y-72684846D01*
X102540942Y-71718965D01*
X102541139Y-71492790D01*
X103482238Y-71492790D01*
X103711638Y-72047979D01*
X104136037Y-72473120D01*
X104690825Y-72703488D01*
X105291540Y-72704012D01*
X105846729Y-72474612D01*
X106271870Y-72050213D01*
X106502238Y-71495425D01*
X106502240Y-71492790D01*
X112372238Y-71492790D01*
X112601638Y-72047979D01*
X113026037Y-72473120D01*
X113580825Y-72703488D01*
X114181540Y-72704012D01*
X114736729Y-72474612D01*
X115161870Y-72050213D01*
X115301321Y-71714376D01*
X116333145Y-71714376D01*
X116732528Y-72680957D01*
X117471404Y-73421123D01*
X118437285Y-73822192D01*
X119483126Y-73823105D01*
X119733174Y-73719787D01*
X125159392Y-73719787D01*
X125960000Y-74520395D01*
X126760608Y-73719787D01*
X126741622Y-73653593D01*
X127370774Y-73653593D01*
X127542297Y-74068709D01*
X127859621Y-74386587D01*
X128274437Y-74558834D01*
X128723593Y-74559226D01*
X129138709Y-74387703D01*
X129456587Y-74070379D01*
X129628834Y-73655563D01*
X129629226Y-73206407D01*
X129457703Y-72791291D01*
X129140379Y-72473413D01*
X128725563Y-72301166D01*
X128276407Y-72300774D01*
X127861291Y-72472297D01*
X127543413Y-72789621D01*
X127371166Y-73204437D01*
X127370774Y-73653593D01*
X126741622Y-73653593D01*
X126691143Y-73477603D01*
X126167698Y-73290856D01*
X125612632Y-73318638D01*
X125228857Y-73477603D01*
X125159392Y-73719787D01*
X119733174Y-73719787D01*
X120449707Y-73423722D01*
X121189873Y-72684846D01*
X121590942Y-71718965D01*
X121591139Y-71492790D01*
X122532238Y-71492790D01*
X122761638Y-72047979D01*
X123186037Y-72473120D01*
X123740825Y-72703488D01*
X124341540Y-72704012D01*
X124896729Y-72474612D01*
X125321870Y-72050213D01*
X125552238Y-71495425D01*
X125552240Y-71492790D01*
X131422238Y-71492790D01*
X131651638Y-72047979D01*
X132076037Y-72473120D01*
X132630825Y-72703488D01*
X133231540Y-72704012D01*
X133786729Y-72474612D01*
X134211870Y-72050213D01*
X134351321Y-71714376D01*
X135383145Y-71714376D01*
X135782528Y-72680957D01*
X136521404Y-73421123D01*
X137487285Y-73822192D01*
X138533126Y-73823105D01*
X139499707Y-73423722D01*
X140239873Y-72684846D01*
X140640942Y-71718965D01*
X140641855Y-70673124D01*
X140242472Y-69706543D01*
X139503596Y-68966377D01*
X138537715Y-68565308D01*
X137491874Y-68564395D01*
X136525293Y-68963778D01*
X135785127Y-69702654D01*
X135384058Y-70668535D01*
X135383145Y-71714376D01*
X134351321Y-71714376D01*
X134442238Y-71495425D01*
X134442762Y-70894710D01*
X134240609Y-70405463D01*
X134848427Y-70295855D01*
X135427665Y-69923671D01*
X136082666Y-69193671D01*
X135805925Y-68945362D01*
X135917951Y-68941825D01*
X136098819Y-68866907D01*
X136252297Y-69004617D01*
X136907297Y-68274618D01*
X136957015Y-68175001D01*
X137035273Y-68143129D01*
X137282670Y-67488121D01*
X137260575Y-66788299D01*
X137187856Y-66612739D01*
X138753907Y-66612739D01*
X138841222Y-67293884D01*
X139182553Y-67889765D01*
X139725936Y-68309665D01*
X140388645Y-68489659D01*
X141069790Y-68402344D01*
X141665671Y-68061013D01*
X142085571Y-67517630D01*
X142265565Y-66854921D01*
X142288494Y-66522444D01*
X142312193Y-66465371D01*
X142312804Y-65765200D01*
X142230491Y-65565988D01*
X142223778Y-65513617D01*
X142170216Y-65420111D01*
X142045425Y-65118093D01*
X141932305Y-65004776D01*
X141882447Y-64917735D01*
X141720455Y-64792556D01*
X141550761Y-64622565D01*
X141442069Y-64577432D01*
X141339064Y-64497835D01*
X141082674Y-64428199D01*
X140904121Y-64354057D01*
X140809392Y-64353974D01*
X140676355Y-64317841D01*
X140397284Y-64353615D01*
X140203950Y-64353446D01*
X140116400Y-64389621D01*
X139995210Y-64405156D01*
X139778832Y-64529101D01*
X139556843Y-64620825D01*
X139473552Y-64703971D01*
X139399329Y-64746487D01*
X139292584Y-64884623D01*
X139061315Y-65115489D01*
X138999913Y-65263363D01*
X138979429Y-65289870D01*
X138961509Y-65355849D01*
X138792807Y-65762129D01*
X138792554Y-66052358D01*
X138753907Y-66612739D01*
X137187856Y-66612739D01*
X137035273Y-66244371D01*
X136979409Y-66221620D01*
X136954885Y-66185222D01*
X136673035Y-66090498D01*
X135517495Y-67378350D01*
X135512500Y-67373355D01*
X134808538Y-68077317D01*
X134664802Y-67948348D01*
X134678159Y-67933462D01*
X134633370Y-67893275D01*
X134813238Y-67713407D01*
X134847789Y-67744408D01*
X135507506Y-67009151D01*
X135512500Y-67014145D01*
X136575842Y-65950803D01*
X136461879Y-65670977D01*
X136234249Y-65585001D01*
X136216906Y-65575868D01*
X136200773Y-65572357D01*
X135806871Y-65423580D01*
X135553848Y-65431569D01*
X135544150Y-65429458D01*
X135527904Y-65432388D01*
X135107049Y-65445675D01*
X134563121Y-65670977D01*
X134521392Y-65773439D01*
X134287337Y-65923829D01*
X134005485Y-66237953D01*
X133989727Y-66244371D01*
X133982457Y-66263618D01*
X133632336Y-66653829D01*
X133783758Y-66789694D01*
X133742330Y-66899379D01*
X133748647Y-67099447D01*
X133462705Y-66842883D01*
X132807705Y-67572882D01*
X132500247Y-68188924D01*
X132451942Y-68875731D01*
X132670144Y-69528743D01*
X132760117Y-69662278D01*
X132823721Y-69683654D01*
X132633460Y-69683488D01*
X132078271Y-69912888D01*
X131653130Y-70337287D01*
X131422762Y-70892075D01*
X131422238Y-71492790D01*
X125552240Y-71492790D01*
X125552762Y-70894710D01*
X125323362Y-70339521D01*
X124898963Y-69914380D01*
X124344175Y-69684012D01*
X123743460Y-69683488D01*
X123188271Y-69912888D01*
X122763130Y-70337287D01*
X122532762Y-70892075D01*
X122532238Y-71492790D01*
X121591139Y-71492790D01*
X121591855Y-70673124D01*
X121192472Y-69706543D01*
X120453596Y-68966377D01*
X119487715Y-68565308D01*
X118441874Y-68564395D01*
X117475293Y-68963778D01*
X116735127Y-69702654D01*
X116334058Y-70668535D01*
X116333145Y-71714376D01*
X115301321Y-71714376D01*
X115392238Y-71495425D01*
X115392762Y-70894710D01*
X115190609Y-70405463D01*
X115798427Y-70295855D01*
X116377665Y-69923671D01*
X117032666Y-69193671D01*
X116755925Y-68945362D01*
X116867951Y-68941825D01*
X117048819Y-68866907D01*
X117202297Y-69004617D01*
X117857297Y-68274618D01*
X117907015Y-68175001D01*
X117985273Y-68143129D01*
X118232670Y-67488121D01*
X118210575Y-66788299D01*
X118137856Y-66612739D01*
X119703907Y-66612739D01*
X119791222Y-67293884D01*
X120132553Y-67889765D01*
X120675936Y-68309665D01*
X121338645Y-68489659D01*
X122019790Y-68402344D01*
X122615671Y-68061013D01*
X123035571Y-67517630D01*
X123215565Y-66854921D01*
X123238494Y-66522444D01*
X123262193Y-66465371D01*
X123262804Y-65765200D01*
X123180491Y-65565988D01*
X123173778Y-65513617D01*
X123120216Y-65420111D01*
X122995425Y-65118093D01*
X122882305Y-65004776D01*
X122832447Y-64917735D01*
X122670455Y-64792556D01*
X122500761Y-64622565D01*
X122392069Y-64577432D01*
X122289064Y-64497835D01*
X122032674Y-64428199D01*
X121854121Y-64354057D01*
X121759392Y-64353974D01*
X121626355Y-64317841D01*
X121347284Y-64353615D01*
X121153950Y-64353446D01*
X121066400Y-64389621D01*
X120945210Y-64405156D01*
X120728832Y-64529101D01*
X120506843Y-64620825D01*
X120423552Y-64703971D01*
X120349329Y-64746487D01*
X120242584Y-64884623D01*
X120011315Y-65115489D01*
X119949913Y-65263363D01*
X119929429Y-65289870D01*
X119911509Y-65355849D01*
X119742807Y-65762129D01*
X119742554Y-66052358D01*
X119703907Y-66612739D01*
X118137856Y-66612739D01*
X117985273Y-66244371D01*
X117929409Y-66221620D01*
X117904885Y-66185222D01*
X117623035Y-66090498D01*
X116467495Y-67378350D01*
X116462500Y-67373355D01*
X115758538Y-68077317D01*
X115614802Y-67948348D01*
X115628159Y-67933462D01*
X115583370Y-67893275D01*
X115763238Y-67713407D01*
X115797789Y-67744408D01*
X116457506Y-67009151D01*
X116462500Y-67014145D01*
X117525842Y-65950803D01*
X117411879Y-65670977D01*
X117184249Y-65585001D01*
X117166906Y-65575868D01*
X117150773Y-65572357D01*
X116756871Y-65423580D01*
X116503848Y-65431569D01*
X116494150Y-65429458D01*
X116477904Y-65432388D01*
X116057049Y-65445675D01*
X115513121Y-65670977D01*
X115471392Y-65773439D01*
X115237337Y-65923829D01*
X114955485Y-66237953D01*
X114939727Y-66244371D01*
X114932457Y-66263618D01*
X114582336Y-66653829D01*
X114733758Y-66789694D01*
X114692330Y-66899379D01*
X114698647Y-67099447D01*
X114412705Y-66842883D01*
X113757705Y-67572882D01*
X113450247Y-68188924D01*
X113401942Y-68875731D01*
X113620144Y-69528743D01*
X113710117Y-69662278D01*
X113773721Y-69683654D01*
X113583460Y-69683488D01*
X113028271Y-69912888D01*
X112603130Y-70337287D01*
X112372762Y-70892075D01*
X112372238Y-71492790D01*
X106502240Y-71492790D01*
X106502762Y-70894710D01*
X106273362Y-70339521D01*
X105848963Y-69914380D01*
X105294175Y-69684012D01*
X104693460Y-69683488D01*
X104138271Y-69912888D01*
X103713130Y-70337287D01*
X103482762Y-70892075D01*
X103482238Y-71492790D01*
X102541139Y-71492790D01*
X102541855Y-70673124D01*
X102142472Y-69706543D01*
X101403596Y-68966377D01*
X100437715Y-68565308D01*
X99391874Y-68564395D01*
X98425293Y-68963778D01*
X97685127Y-69702654D01*
X97284058Y-70668535D01*
X97283145Y-71714376D01*
X96251321Y-71714376D01*
X96342238Y-71495425D01*
X96342762Y-70894710D01*
X96159336Y-70450786D01*
X96161807Y-70451140D01*
X96827101Y-70280946D01*
X97376621Y-69869110D01*
X98690196Y-68405128D01*
X98903685Y-68192011D01*
X99053668Y-67830810D01*
X99108429Y-67738401D01*
X99117058Y-67678151D01*
X99172193Y-67545371D01*
X99172414Y-67291631D01*
X99205786Y-67058619D01*
X99172731Y-66929404D01*
X99172804Y-66845200D01*
X99116054Y-66707855D01*
X99113881Y-66699357D01*
X100647933Y-66699357D01*
X100784398Y-67374201D01*
X101168728Y-67945453D01*
X101742410Y-68326144D01*
X101895482Y-68376098D01*
X102175978Y-68277436D01*
X102203215Y-67882497D01*
X102458374Y-67874441D01*
X102429376Y-68294912D01*
X102693672Y-68431146D01*
X102852154Y-68402678D01*
X103472665Y-68104346D01*
X103931776Y-67591263D01*
X104159591Y-66941541D01*
X104179591Y-66651541D01*
X104131971Y-66648257D01*
X104222670Y-66408121D01*
X104214414Y-66146616D01*
X104217067Y-66108143D01*
X104212483Y-66085476D01*
X104200575Y-65708299D01*
X103975273Y-65164371D01*
X103871138Y-65121961D01*
X103696272Y-64862047D01*
X103444134Y-64694730D01*
X103401879Y-64590977D01*
X103137048Y-64490950D01*
X103122590Y-64481356D01*
X103042108Y-64455091D01*
X102746871Y-64343580D01*
X102485373Y-64351836D01*
X102446891Y-64349182D01*
X102446624Y-64353060D01*
X102047049Y-64365675D01*
X101503121Y-64590977D01*
X101473286Y-64664234D01*
X101392335Y-64703154D01*
X101008250Y-65132392D01*
X100929727Y-65164371D01*
X100682330Y-65819379D01*
X100690586Y-66080887D01*
X100685409Y-66155959D01*
X100692973Y-66156481D01*
X100701029Y-66411639D01*
X100667933Y-66409357D01*
X100647933Y-66699357D01*
X99113881Y-66699357D01*
X99035592Y-66393326D01*
X98925270Y-66246121D01*
X98905425Y-66198093D01*
X98840630Y-66133184D01*
X98623755Y-65843805D01*
X98447477Y-65739345D01*
X98410761Y-65702565D01*
X98326056Y-65667393D01*
X98032976Y-65493717D01*
X97841892Y-65466350D01*
X97764121Y-65434057D01*
X97615503Y-65433927D01*
X97353195Y-65396360D01*
X97207734Y-65433571D01*
X97063950Y-65433446D01*
X96829425Y-65530350D01*
X96687901Y-65566554D01*
X96621665Y-65616194D01*
X96416843Y-65700825D01*
X96140031Y-65977155D01*
X96138381Y-65978391D01*
X96134850Y-65982326D01*
X95921315Y-66195489D01*
X95902129Y-66241694D01*
X94756661Y-67518320D01*
X94406573Y-68109100D01*
X94309216Y-68788881D01*
X94479410Y-69454175D01*
X94651345Y-69683591D01*
X94533460Y-69683488D01*
X93978271Y-69912888D01*
X93553130Y-70337287D01*
X93322762Y-70892075D01*
X93322238Y-71492790D01*
X87452240Y-71492790D01*
X87452762Y-70894710D01*
X87223362Y-70339521D01*
X86798963Y-69914380D01*
X86244175Y-69684012D01*
X85643460Y-69683488D01*
X85088271Y-69912888D01*
X84663130Y-70337287D01*
X84432762Y-70892075D01*
X84432238Y-71492790D01*
X83491139Y-71492790D01*
X83491855Y-70673124D01*
X83092472Y-69706543D01*
X82353596Y-68966377D01*
X81387715Y-68565308D01*
X80341874Y-68564395D01*
X79375293Y-68963778D01*
X78635127Y-69702654D01*
X78234058Y-70668535D01*
X78233145Y-71714376D01*
X77201321Y-71714376D01*
X77292238Y-71495425D01*
X77292762Y-70894710D01*
X77090609Y-70405463D01*
X77698427Y-70295855D01*
X78277665Y-69923671D01*
X78932666Y-69193671D01*
X78655925Y-68945362D01*
X78767951Y-68941825D01*
X78948819Y-68866907D01*
X79102297Y-69004617D01*
X79757297Y-68274618D01*
X79807015Y-68175001D01*
X79885273Y-68143129D01*
X80132670Y-67488121D01*
X80110575Y-66788299D01*
X80037856Y-66612739D01*
X81603907Y-66612739D01*
X81691222Y-67293884D01*
X82032553Y-67889765D01*
X82575936Y-68309665D01*
X83238645Y-68489659D01*
X83919790Y-68402344D01*
X84515671Y-68061013D01*
X84935571Y-67517630D01*
X85115565Y-66854921D01*
X85138494Y-66522444D01*
X85162193Y-66465371D01*
X85162804Y-65765200D01*
X85080491Y-65565988D01*
X85073778Y-65513617D01*
X85020216Y-65420111D01*
X84895425Y-65118093D01*
X84782305Y-65004776D01*
X84732447Y-64917735D01*
X84570455Y-64792556D01*
X84400761Y-64622565D01*
X84292069Y-64577432D01*
X84189064Y-64497835D01*
X83932674Y-64428199D01*
X83754121Y-64354057D01*
X83659392Y-64353974D01*
X83526355Y-64317841D01*
X83247284Y-64353615D01*
X83053950Y-64353446D01*
X82966400Y-64389621D01*
X82845210Y-64405156D01*
X82628832Y-64529101D01*
X82406843Y-64620825D01*
X82323552Y-64703971D01*
X82249329Y-64746487D01*
X82142584Y-64884623D01*
X81911315Y-65115489D01*
X81849913Y-65263363D01*
X81829429Y-65289870D01*
X81811509Y-65355849D01*
X81642807Y-65762129D01*
X81642554Y-66052358D01*
X81603907Y-66612739D01*
X80037856Y-66612739D01*
X79885273Y-66244371D01*
X79829409Y-66221620D01*
X79804885Y-66185222D01*
X79523035Y-66090498D01*
X78367495Y-67378350D01*
X78362500Y-67373355D01*
X77658538Y-68077317D01*
X77514802Y-67948348D01*
X77528159Y-67933462D01*
X77483370Y-67893275D01*
X77663238Y-67713407D01*
X77697789Y-67744408D01*
X78357506Y-67009151D01*
X78362500Y-67014145D01*
X79425842Y-65950803D01*
X79311879Y-65670977D01*
X79084249Y-65585001D01*
X79066906Y-65575868D01*
X79050773Y-65572357D01*
X78656871Y-65423580D01*
X78403848Y-65431569D01*
X78394150Y-65429458D01*
X78377904Y-65432388D01*
X77957049Y-65445675D01*
X77413121Y-65670977D01*
X77371392Y-65773439D01*
X77137337Y-65923829D01*
X76855485Y-66237953D01*
X76839727Y-66244371D01*
X76832457Y-66263618D01*
X76482336Y-66653829D01*
X76633758Y-66789694D01*
X76592330Y-66899379D01*
X76598647Y-67099447D01*
X76312705Y-66842883D01*
X75657705Y-67572882D01*
X75350247Y-68188924D01*
X75301942Y-68875731D01*
X75520144Y-69528743D01*
X75610117Y-69662278D01*
X75673721Y-69683654D01*
X75483460Y-69683488D01*
X74928271Y-69912888D01*
X74503130Y-70337287D01*
X74272762Y-70892075D01*
X74272238Y-71492790D01*
X68402240Y-71492790D01*
X68402762Y-70894710D01*
X68173362Y-70339521D01*
X67748963Y-69914380D01*
X67194175Y-69684012D01*
X66593460Y-69683488D01*
X66038271Y-69912888D01*
X65613130Y-70337287D01*
X65382762Y-70892075D01*
X65382238Y-71492790D01*
X64441139Y-71492790D01*
X64441855Y-70673124D01*
X64042472Y-69706543D01*
X63303596Y-68966377D01*
X62337715Y-68565308D01*
X61291874Y-68564395D01*
X60325293Y-68963778D01*
X59585127Y-69702654D01*
X59184058Y-70668535D01*
X59183145Y-71714376D01*
X58151321Y-71714376D01*
X58242238Y-71495425D01*
X58242762Y-70894710D01*
X58040609Y-70405463D01*
X58648427Y-70295855D01*
X59227665Y-69923671D01*
X59882666Y-69193671D01*
X59605925Y-68945362D01*
X59717951Y-68941825D01*
X59898819Y-68866907D01*
X60052297Y-69004617D01*
X60707297Y-68274618D01*
X60757015Y-68175001D01*
X60835273Y-68143129D01*
X61082670Y-67488121D01*
X61060575Y-66788299D01*
X60987856Y-66612739D01*
X62553907Y-66612739D01*
X62641222Y-67293884D01*
X62982553Y-67889765D01*
X63525936Y-68309665D01*
X64188645Y-68489659D01*
X64869790Y-68402344D01*
X65465671Y-68061013D01*
X65885571Y-67517630D01*
X66065565Y-66854921D01*
X66088494Y-66522444D01*
X66112193Y-66465371D01*
X66112804Y-65765200D01*
X66030491Y-65565988D01*
X66023778Y-65513617D01*
X65970216Y-65420111D01*
X65845425Y-65118093D01*
X65732305Y-65004776D01*
X65682447Y-64917735D01*
X65520455Y-64792556D01*
X65350761Y-64622565D01*
X65242069Y-64577432D01*
X65139064Y-64497835D01*
X64882674Y-64428199D01*
X64704121Y-64354057D01*
X64609392Y-64353974D01*
X64476355Y-64317841D01*
X64197284Y-64353615D01*
X64003950Y-64353446D01*
X63916400Y-64389621D01*
X63795210Y-64405156D01*
X63578832Y-64529101D01*
X63356843Y-64620825D01*
X63273552Y-64703971D01*
X63199329Y-64746487D01*
X63092584Y-64884623D01*
X62861315Y-65115489D01*
X62799913Y-65263363D01*
X62779429Y-65289870D01*
X62761509Y-65355849D01*
X62592807Y-65762129D01*
X62592554Y-66052358D01*
X62553907Y-66612739D01*
X60987856Y-66612739D01*
X60835273Y-66244371D01*
X60779409Y-66221620D01*
X60754885Y-66185222D01*
X60473035Y-66090498D01*
X59317495Y-67378350D01*
X59312500Y-67373355D01*
X58608538Y-68077317D01*
X58464802Y-67948348D01*
X58478159Y-67933462D01*
X58433370Y-67893275D01*
X58613238Y-67713407D01*
X58647789Y-67744408D01*
X59307506Y-67009151D01*
X59312500Y-67014145D01*
X60375842Y-65950803D01*
X60261879Y-65670977D01*
X60034249Y-65585001D01*
X60016906Y-65575868D01*
X60000773Y-65572357D01*
X59606871Y-65423580D01*
X59353848Y-65431569D01*
X59344150Y-65429458D01*
X59327904Y-65432388D01*
X58907049Y-65445675D01*
X58363121Y-65670977D01*
X58321392Y-65773439D01*
X58087337Y-65923829D01*
X57805485Y-66237953D01*
X57789727Y-66244371D01*
X57782457Y-66263618D01*
X57432336Y-66653829D01*
X57583758Y-66789694D01*
X57542330Y-66899379D01*
X57548647Y-67099447D01*
X57262705Y-66842883D01*
X56607705Y-67572882D01*
X56300247Y-68188924D01*
X56251942Y-68875731D01*
X56470144Y-69528743D01*
X56560117Y-69662278D01*
X56623721Y-69683654D01*
X56433460Y-69683488D01*
X55878271Y-69912888D01*
X55530000Y-70260551D01*
X55530000Y-61993599D01*
X60014699Y-61993599D01*
X60278281Y-62631515D01*
X60765918Y-63120004D01*
X61403373Y-63384699D01*
X62093599Y-63385301D01*
X62731515Y-63121719D01*
X63220004Y-62634082D01*
X63484699Y-61996627D01*
X63484701Y-61993599D01*
X79064699Y-61993599D01*
X79328281Y-62631515D01*
X79815918Y-63120004D01*
X80453373Y-63384699D01*
X81143599Y-63385301D01*
X81781515Y-63121719D01*
X82270004Y-62634082D01*
X82534699Y-61996627D01*
X82535301Y-61306401D01*
X82271719Y-60668485D01*
X81784082Y-60179996D01*
X81146627Y-59915301D01*
X80456401Y-59914699D01*
X79818485Y-60178281D01*
X79329996Y-60665918D01*
X79065301Y-61303373D01*
X79064699Y-61993599D01*
X63484701Y-61993599D01*
X63485301Y-61306401D01*
X63221719Y-60668485D01*
X62734082Y-60179996D01*
X62096627Y-59915301D01*
X61406401Y-59914699D01*
X60768485Y-60178281D01*
X60279996Y-60665918D01*
X60015301Y-61303373D01*
X60014699Y-61993599D01*
X55530000Y-61993599D01*
X55530000Y-56929379D01*
X57502330Y-56929379D01*
X57510586Y-57190884D01*
X57507933Y-57229357D01*
X57512517Y-57252024D01*
X57524425Y-57629201D01*
X57749727Y-58173129D01*
X57853862Y-58215539D01*
X58028728Y-58475453D01*
X58280866Y-58642770D01*
X58323121Y-58746523D01*
X58587952Y-58846550D01*
X58602410Y-58856144D01*
X58682892Y-58882409D01*
X58978129Y-58993920D01*
X59239627Y-58985664D01*
X59278109Y-58988318D01*
X59278376Y-58984440D01*
X59677951Y-58971825D01*
X60221879Y-58746523D01*
X60251714Y-58673266D01*
X60332665Y-58634346D01*
X60716750Y-58205108D01*
X60795273Y-58173129D01*
X61042670Y-57518121D01*
X61034414Y-57256613D01*
X61039591Y-57181541D01*
X61032027Y-57181019D01*
X61023971Y-56925861D01*
X61057067Y-56928143D01*
X61077067Y-56638143D01*
X61004419Y-56278881D01*
X62519214Y-56278881D01*
X62552269Y-56408096D01*
X62552196Y-56492300D01*
X62608945Y-56629644D01*
X62689408Y-56944175D01*
X62799731Y-57091381D01*
X62819575Y-57139407D01*
X62884367Y-57204312D01*
X63101244Y-57493695D01*
X63277524Y-57598156D01*
X63314239Y-57634935D01*
X63398942Y-57670107D01*
X63692024Y-57843783D01*
X63883108Y-57871150D01*
X63960879Y-57903443D01*
X64109497Y-57903573D01*
X64371805Y-57941140D01*
X64517266Y-57903929D01*
X64661050Y-57904054D01*
X64895575Y-57807150D01*
X65037099Y-57770946D01*
X65103335Y-57721306D01*
X65308157Y-57636675D01*
X65584965Y-57360349D01*
X65586619Y-57359110D01*
X65590159Y-57355165D01*
X65803685Y-57142011D01*
X65822870Y-57095807D01*
X66968339Y-55819180D01*
X67318427Y-55228401D01*
X67334242Y-55117968D01*
X67615000Y-55117968D01*
X67615000Y-55582032D01*
X67724233Y-56131183D01*
X68035302Y-56596730D01*
X68500849Y-56907799D01*
X69050000Y-57017032D01*
X69599151Y-56907799D01*
X70064698Y-56596730D01*
X70317779Y-56217968D01*
X72215000Y-56217968D01*
X72215000Y-56682032D01*
X72324233Y-57231183D01*
X72635302Y-57696730D01*
X73100849Y-58007799D01*
X73650000Y-58117032D01*
X74199151Y-58007799D01*
X74664698Y-57696730D01*
X74975767Y-57231183D01*
X75035799Y-56929379D01*
X76552330Y-56929379D01*
X76560586Y-57190884D01*
X76557933Y-57229357D01*
X76562517Y-57252024D01*
X76574425Y-57629201D01*
X76799727Y-58173129D01*
X76903862Y-58215539D01*
X77078728Y-58475453D01*
X77330866Y-58642770D01*
X77373121Y-58746523D01*
X77637952Y-58846550D01*
X77652410Y-58856144D01*
X77732892Y-58882409D01*
X78028129Y-58993920D01*
X78289627Y-58985664D01*
X78328109Y-58988318D01*
X78328376Y-58984440D01*
X78727951Y-58971825D01*
X79271879Y-58746523D01*
X79301714Y-58673266D01*
X79382665Y-58634346D01*
X79766750Y-58205108D01*
X79845273Y-58173129D01*
X80092670Y-57518121D01*
X80084414Y-57256613D01*
X80089591Y-57181541D01*
X80082027Y-57181019D01*
X80073971Y-56925861D01*
X80107067Y-56928143D01*
X80127067Y-56638143D01*
X80054419Y-56278881D01*
X81569214Y-56278881D01*
X81602269Y-56408096D01*
X81602196Y-56492300D01*
X81658945Y-56629644D01*
X81739408Y-56944175D01*
X81849731Y-57091381D01*
X81869575Y-57139407D01*
X81934367Y-57204312D01*
X82151244Y-57493695D01*
X82327524Y-57598156D01*
X82364239Y-57634935D01*
X82448942Y-57670107D01*
X82742024Y-57843783D01*
X82933108Y-57871150D01*
X83010879Y-57903443D01*
X83159497Y-57903573D01*
X83421805Y-57941140D01*
X83567266Y-57903929D01*
X83711050Y-57904054D01*
X83945575Y-57807150D01*
X84087099Y-57770946D01*
X84153335Y-57721306D01*
X84358157Y-57636675D01*
X84422644Y-57572300D01*
X95612196Y-57572300D01*
X95694508Y-57771511D01*
X95701222Y-57823884D01*
X95754785Y-57917392D01*
X95879575Y-58219407D01*
X95992694Y-58332724D01*
X96042553Y-58419765D01*
X96204545Y-58544944D01*
X96374239Y-58714935D01*
X96482931Y-58760068D01*
X96585936Y-58839665D01*
X96842326Y-58909301D01*
X97020879Y-58983443D01*
X97115608Y-58983526D01*
X97248645Y-59019659D01*
X97527716Y-58983885D01*
X97721050Y-58984054D01*
X97808600Y-58947879D01*
X97929790Y-58932344D01*
X98146168Y-58808399D01*
X98368157Y-58716675D01*
X98451448Y-58633529D01*
X98525671Y-58591013D01*
X98632416Y-58452877D01*
X98863685Y-58222011D01*
X98925087Y-58074137D01*
X98945571Y-58047630D01*
X98963491Y-57981651D01*
X99132193Y-57575371D01*
X99132446Y-57285142D01*
X99171093Y-56724761D01*
X99083778Y-56043617D01*
X98972516Y-55849379D01*
X100642330Y-55849379D01*
X100664425Y-56549201D01*
X100889727Y-57093129D01*
X100945591Y-57115880D01*
X100970115Y-57152278D01*
X101251965Y-57247002D01*
X102407505Y-55959150D01*
X102412500Y-55964145D01*
X103116462Y-55260183D01*
X103260198Y-55389152D01*
X103246841Y-55404038D01*
X103291630Y-55444225D01*
X103111762Y-55624093D01*
X103077211Y-55593092D01*
X102417494Y-56328349D01*
X102412500Y-56323355D01*
X101349158Y-57386697D01*
X101463121Y-57666523D01*
X101690751Y-57752499D01*
X101708094Y-57761632D01*
X101724227Y-57765143D01*
X102118129Y-57913920D01*
X102371152Y-57905931D01*
X102380850Y-57908042D01*
X102397096Y-57905112D01*
X102817951Y-57891825D01*
X103361879Y-57666523D01*
X103403608Y-57564061D01*
X103637663Y-57413671D01*
X103919515Y-57099547D01*
X103935273Y-57093129D01*
X103942543Y-57073882D01*
X104072199Y-56929379D01*
X114652330Y-56929379D01*
X114660586Y-57190884D01*
X114657933Y-57229357D01*
X114662517Y-57252024D01*
X114674425Y-57629201D01*
X114899727Y-58173129D01*
X115003862Y-58215539D01*
X115178728Y-58475453D01*
X115430866Y-58642770D01*
X115473121Y-58746523D01*
X115737952Y-58846550D01*
X115752410Y-58856144D01*
X115832892Y-58882409D01*
X116128129Y-58993920D01*
X116389627Y-58985664D01*
X116428109Y-58988318D01*
X116428376Y-58984440D01*
X116827951Y-58971825D01*
X117371879Y-58746523D01*
X117401714Y-58673266D01*
X117482665Y-58634346D01*
X117866750Y-58205108D01*
X117945273Y-58173129D01*
X118192670Y-57518121D01*
X118184414Y-57256613D01*
X118189591Y-57181541D01*
X118182027Y-57181019D01*
X118173971Y-56925861D01*
X118207067Y-56928143D01*
X118227067Y-56638143D01*
X118154419Y-56278881D01*
X119669214Y-56278881D01*
X119702269Y-56408096D01*
X119702196Y-56492300D01*
X119758945Y-56629644D01*
X119839408Y-56944175D01*
X119949731Y-57091381D01*
X119969575Y-57139407D01*
X120034367Y-57204312D01*
X120251244Y-57493695D01*
X120427524Y-57598156D01*
X120464239Y-57634935D01*
X120548942Y-57670107D01*
X120842024Y-57843783D01*
X121033108Y-57871150D01*
X121110879Y-57903443D01*
X121259497Y-57903573D01*
X121521805Y-57941140D01*
X121667266Y-57903929D01*
X121811050Y-57904054D01*
X122045575Y-57807150D01*
X122187099Y-57770946D01*
X122253335Y-57721306D01*
X122458157Y-57636675D01*
X122522644Y-57572300D01*
X133712196Y-57572300D01*
X133794508Y-57771511D01*
X133801222Y-57823884D01*
X133854785Y-57917392D01*
X133979575Y-58219407D01*
X134092694Y-58332724D01*
X134142553Y-58419765D01*
X134304545Y-58544944D01*
X134474239Y-58714935D01*
X134582931Y-58760068D01*
X134685936Y-58839665D01*
X134942326Y-58909301D01*
X135120879Y-58983443D01*
X135215608Y-58983526D01*
X135348645Y-59019659D01*
X135627716Y-58983885D01*
X135821050Y-58984054D01*
X135908600Y-58947879D01*
X136029790Y-58932344D01*
X136246168Y-58808399D01*
X136468157Y-58716675D01*
X136551448Y-58633529D01*
X136625671Y-58591013D01*
X136732416Y-58452877D01*
X136963685Y-58222011D01*
X137025087Y-58074137D01*
X137045571Y-58047630D01*
X137063491Y-57981651D01*
X137232193Y-57575371D01*
X137232446Y-57285142D01*
X137271093Y-56724761D01*
X137183778Y-56043617D01*
X136842447Y-55447735D01*
X136299064Y-55027835D01*
X135636355Y-54847841D01*
X134955210Y-54935156D01*
X134359329Y-55276487D01*
X133939429Y-55819870D01*
X133759435Y-56482579D01*
X133736506Y-56815056D01*
X133712807Y-56872129D01*
X133712196Y-57572300D01*
X122522644Y-57572300D01*
X122734965Y-57360349D01*
X122736619Y-57359110D01*
X122740159Y-57355165D01*
X122953685Y-57142011D01*
X122972870Y-57095807D01*
X124118339Y-55819180D01*
X124468427Y-55228401D01*
X124537859Y-54743599D01*
X126764699Y-54743599D01*
X127028281Y-55381515D01*
X127515918Y-55870004D01*
X128153373Y-56134699D01*
X128843599Y-56135301D01*
X129481515Y-55871719D01*
X129970004Y-55384082D01*
X130234699Y-54746627D01*
X130235301Y-54056401D01*
X129971719Y-53418485D01*
X129484082Y-52929996D01*
X128846627Y-52665301D01*
X128156401Y-52664699D01*
X127518485Y-52928281D01*
X127029996Y-53415918D01*
X126765301Y-54053373D01*
X126764699Y-54743599D01*
X124537859Y-54743599D01*
X124565784Y-54548619D01*
X124395590Y-53883326D01*
X124223654Y-53653909D01*
X124341540Y-53654012D01*
X124896729Y-53424612D01*
X125321870Y-53000213D01*
X125552238Y-52445425D01*
X125552240Y-52442790D01*
X131422238Y-52442790D01*
X131651638Y-52997979D01*
X132076037Y-53423120D01*
X132630825Y-53653488D01*
X133231540Y-53654012D01*
X133786729Y-53424612D01*
X134211870Y-53000213D01*
X134351321Y-52664376D01*
X135383145Y-52664376D01*
X135782528Y-53630957D01*
X136521404Y-54371123D01*
X137487285Y-54772192D01*
X138533126Y-54773105D01*
X139499707Y-54373722D01*
X140239873Y-53634846D01*
X140640942Y-52668965D01*
X140641855Y-51623124D01*
X140242472Y-50656543D01*
X139503596Y-49916377D01*
X138537715Y-49515308D01*
X137491874Y-49514395D01*
X136525293Y-49913778D01*
X135785127Y-50652654D01*
X135384058Y-51618535D01*
X135383145Y-52664376D01*
X134351321Y-52664376D01*
X134442238Y-52445425D01*
X134442762Y-51844710D01*
X134213362Y-51289521D01*
X133788963Y-50864380D01*
X133234175Y-50634012D01*
X132633460Y-50633488D01*
X132078271Y-50862888D01*
X131653130Y-51287287D01*
X131422762Y-51842075D01*
X131422238Y-52442790D01*
X125552240Y-52442790D01*
X125552762Y-51844710D01*
X125323362Y-51289521D01*
X124898963Y-50864380D01*
X124344175Y-50634012D01*
X123743460Y-50633488D01*
X123188271Y-50862888D01*
X122763130Y-51287287D01*
X122532762Y-51842075D01*
X122532238Y-52442790D01*
X122715664Y-52886714D01*
X122713193Y-52886360D01*
X122047899Y-53056554D01*
X121498379Y-53468391D01*
X120184804Y-54932372D01*
X119971315Y-55145489D01*
X119821330Y-55506692D01*
X119766571Y-55599100D01*
X119757942Y-55659348D01*
X119702807Y-55792129D01*
X119702586Y-56045869D01*
X119669214Y-56278881D01*
X118154419Y-56278881D01*
X118090602Y-55963299D01*
X117706272Y-55392047D01*
X117132590Y-55011356D01*
X116979518Y-54961402D01*
X116699022Y-55060064D01*
X116671785Y-55455003D01*
X116416626Y-55463059D01*
X116445624Y-55042588D01*
X116181328Y-54906354D01*
X116022846Y-54934822D01*
X115402335Y-55233154D01*
X114943224Y-55746237D01*
X114715409Y-56395959D01*
X114695409Y-56685959D01*
X114743029Y-56689243D01*
X114652330Y-56929379D01*
X104072199Y-56929379D01*
X104292664Y-56683671D01*
X104141242Y-56547806D01*
X104182670Y-56438121D01*
X104176353Y-56238053D01*
X104462295Y-56494617D01*
X105117295Y-55764618D01*
X105424753Y-55148576D01*
X105473058Y-54461769D01*
X105254856Y-53808757D01*
X105164883Y-53675222D01*
X105101279Y-53653846D01*
X105291540Y-53654012D01*
X105846729Y-53424612D01*
X106271870Y-53000213D01*
X106502238Y-52445425D01*
X106502762Y-51844710D01*
X106341806Y-51455167D01*
X106504838Y-51455167D01*
X106599674Y-51684688D01*
X106517281Y-51883111D01*
X106516957Y-52255077D01*
X106659002Y-52598853D01*
X106921792Y-52862102D01*
X107265320Y-53004748D01*
X107637286Y-53005072D01*
X107902280Y-52895579D01*
X111037836Y-52895579D01*
X111301150Y-53004917D01*
X111673116Y-53005241D01*
X112016892Y-52863196D01*
X112280141Y-52600406D01*
X112372294Y-52378478D01*
X112372238Y-52442790D01*
X112601638Y-52997979D01*
X113026037Y-53423120D01*
X113580825Y-53653488D01*
X114181540Y-53654012D01*
X114736729Y-53424612D01*
X115161870Y-53000213D01*
X115301321Y-52664376D01*
X116333145Y-52664376D01*
X116732528Y-53630957D01*
X117471404Y-54371123D01*
X118437285Y-54772192D01*
X119483126Y-54773105D01*
X120449707Y-54373722D01*
X121189873Y-53634846D01*
X121590942Y-52668965D01*
X121591855Y-51623124D01*
X121192472Y-50656543D01*
X120453596Y-49916377D01*
X119487715Y-49515308D01*
X118441874Y-49514395D01*
X117475293Y-49913778D01*
X116735127Y-50652654D01*
X116334058Y-51618535D01*
X116333145Y-52664376D01*
X115301321Y-52664376D01*
X115392238Y-52445425D01*
X115392762Y-51844710D01*
X115163362Y-51289521D01*
X114738963Y-50864380D01*
X114184175Y-50634012D01*
X113583460Y-50633488D01*
X113028271Y-50862888D01*
X112603130Y-51287287D01*
X112389127Y-51802664D01*
X112336162Y-51674478D01*
X112426515Y-51456884D01*
X112426839Y-51084918D01*
X112284794Y-50741142D01*
X112022004Y-50477893D01*
X111678476Y-50335247D01*
X111306510Y-50334923D01*
X111041107Y-50444585D01*
X107890318Y-50444585D01*
X107626799Y-50335162D01*
X107254833Y-50334838D01*
X106911057Y-50476883D01*
X106647808Y-50739673D01*
X106505162Y-51083201D01*
X106504838Y-51455167D01*
X106341806Y-51455167D01*
X106273362Y-51289521D01*
X105848963Y-50864380D01*
X105294175Y-50634012D01*
X104693460Y-50633488D01*
X104691537Y-50634283D01*
X104707994Y-50617854D01*
X104850640Y-50274326D01*
X104850964Y-49902360D01*
X104741302Y-49636957D01*
X104741302Y-49494879D01*
X104890460Y-49679145D01*
X105367316Y-49938173D01*
X105438815Y-49952318D01*
X105653000Y-49829656D01*
X105653000Y-47487000D01*
X105907000Y-47487000D01*
X105907000Y-49829656D01*
X106121185Y-49952318D01*
X106192684Y-49938173D01*
X106669540Y-49679145D01*
X107010972Y-49257349D01*
X107165000Y-48737000D01*
X107165000Y-47487000D01*
X111695000Y-47487000D01*
X111695000Y-48737000D01*
X111849028Y-49257349D01*
X112190460Y-49679145D01*
X112667316Y-49938173D01*
X112738815Y-49952318D01*
X112953000Y-49829656D01*
X112953000Y-47487000D01*
X113207000Y-47487000D01*
X113207000Y-49829656D01*
X113421185Y-49952318D01*
X113492684Y-49938173D01*
X113969540Y-49679145D01*
X114310972Y-49257349D01*
X114465000Y-48737000D01*
X114465000Y-47487000D01*
X113207000Y-47487000D01*
X112953000Y-47487000D01*
X111695000Y-47487000D01*
X107165000Y-47487000D01*
X105907000Y-47487000D01*
X105653000Y-47487000D01*
X104395000Y-47487000D01*
X104395000Y-47710337D01*
X104096799Y-47586513D01*
X103724833Y-47586189D01*
X103489846Y-47683283D01*
X103256799Y-47586513D01*
X102884833Y-47586189D01*
X102541057Y-47728234D01*
X102277808Y-47991024D01*
X102135162Y-48334552D01*
X102134838Y-48706518D01*
X102242515Y-48967117D01*
X102242515Y-49635276D01*
X102133177Y-49898590D01*
X102132853Y-50270556D01*
X102274898Y-50614332D01*
X102537688Y-50877581D01*
X102881216Y-51020227D01*
X103253182Y-51020551D01*
X103489491Y-50922910D01*
X103729003Y-51022365D01*
X103978298Y-51022582D01*
X103713130Y-51287287D01*
X103482762Y-51842075D01*
X103482238Y-52442790D01*
X103684391Y-52932037D01*
X103076573Y-53041645D01*
X102497335Y-53413829D01*
X101842334Y-54143829D01*
X102119075Y-54392138D01*
X102007049Y-54395675D01*
X101826181Y-54470593D01*
X101672703Y-54332883D01*
X101017703Y-55062882D01*
X100967985Y-55162499D01*
X100889727Y-55194371D01*
X100642330Y-55849379D01*
X98972516Y-55849379D01*
X98742447Y-55447735D01*
X98199064Y-55027835D01*
X97536355Y-54847841D01*
X96855210Y-54935156D01*
X96259329Y-55276487D01*
X95839429Y-55819870D01*
X95659435Y-56482579D01*
X95636506Y-56815056D01*
X95612807Y-56872129D01*
X95612196Y-57572300D01*
X84422644Y-57572300D01*
X84634965Y-57360349D01*
X84636619Y-57359110D01*
X84640159Y-57355165D01*
X84853685Y-57142011D01*
X84872870Y-57095807D01*
X86018339Y-55819180D01*
X86368427Y-55228401D01*
X86465784Y-54548619D01*
X86295590Y-53883326D01*
X86123654Y-53653909D01*
X86241540Y-53654012D01*
X86796729Y-53424612D01*
X87221870Y-53000213D01*
X87452238Y-52445425D01*
X87452240Y-52442790D01*
X93322238Y-52442790D01*
X93551638Y-52997979D01*
X93976037Y-53423120D01*
X94530825Y-53653488D01*
X95131540Y-53654012D01*
X95686729Y-53424612D01*
X96111870Y-53000213D01*
X96251321Y-52664376D01*
X97283145Y-52664376D01*
X97682528Y-53630957D01*
X98421404Y-54371123D01*
X99387285Y-54772192D01*
X100433126Y-54773105D01*
X101399707Y-54373722D01*
X102139873Y-53634846D01*
X102540942Y-52668965D01*
X102541855Y-51623124D01*
X102142472Y-50656543D01*
X101403596Y-49916377D01*
X100437715Y-49515308D01*
X99391874Y-49514395D01*
X98425293Y-49913778D01*
X97685127Y-50652654D01*
X97284058Y-51618535D01*
X97283145Y-52664376D01*
X96251321Y-52664376D01*
X96342238Y-52445425D01*
X96342762Y-51844710D01*
X96113362Y-51289521D01*
X95688963Y-50864380D01*
X95134175Y-50634012D01*
X94533460Y-50633488D01*
X93978271Y-50862888D01*
X93553130Y-51287287D01*
X93322762Y-51842075D01*
X93322238Y-52442790D01*
X87452240Y-52442790D01*
X87452762Y-51844710D01*
X87223362Y-51289521D01*
X86798963Y-50864380D01*
X86244175Y-50634012D01*
X85643460Y-50633488D01*
X85088271Y-50862888D01*
X84663130Y-51287287D01*
X84432762Y-51842075D01*
X84432238Y-52442790D01*
X84615664Y-52886714D01*
X84613193Y-52886360D01*
X83947899Y-53056554D01*
X83398379Y-53468391D01*
X82084804Y-54932372D01*
X81871315Y-55145489D01*
X81721330Y-55506692D01*
X81666571Y-55599100D01*
X81657942Y-55659348D01*
X81602807Y-55792129D01*
X81602586Y-56045869D01*
X81569214Y-56278881D01*
X80054419Y-56278881D01*
X79990602Y-55963299D01*
X79606272Y-55392047D01*
X79032590Y-55011356D01*
X78879518Y-54961402D01*
X78599022Y-55060064D01*
X78571785Y-55455003D01*
X78316626Y-55463059D01*
X78345624Y-55042588D01*
X78081328Y-54906354D01*
X77922846Y-54934822D01*
X77302335Y-55233154D01*
X76843224Y-55746237D01*
X76615409Y-56395959D01*
X76595409Y-56685959D01*
X76643029Y-56689243D01*
X76552330Y-56929379D01*
X75035799Y-56929379D01*
X75085000Y-56682032D01*
X75085000Y-56217968D01*
X74975767Y-55668817D01*
X74664698Y-55203270D01*
X74199151Y-54892201D01*
X73650000Y-54782968D01*
X73100849Y-54892201D01*
X72635302Y-55203270D01*
X72324233Y-55668817D01*
X72215000Y-56217968D01*
X70317779Y-56217968D01*
X70375767Y-56131183D01*
X70485000Y-55582032D01*
X70485000Y-55117968D01*
X70375767Y-54568817D01*
X70064698Y-54103270D01*
X69842754Y-53954971D01*
X70314821Y-53954971D01*
X70472058Y-54335515D01*
X70762954Y-54626919D01*
X71143223Y-54784820D01*
X71554971Y-54785179D01*
X71935515Y-54627942D01*
X72226919Y-54337046D01*
X72384820Y-53956777D01*
X72385179Y-53545029D01*
X72227942Y-53164485D01*
X71937046Y-52873081D01*
X71556777Y-52715180D01*
X71145029Y-52714821D01*
X70764485Y-52872058D01*
X70473081Y-53162954D01*
X70315180Y-53543223D01*
X70314821Y-53954971D01*
X69842754Y-53954971D01*
X69599151Y-53792201D01*
X69050000Y-53682968D01*
X68500849Y-53792201D01*
X68035302Y-54103270D01*
X67724233Y-54568817D01*
X67615000Y-55117968D01*
X67334242Y-55117968D01*
X67415784Y-54548619D01*
X67245590Y-53883326D01*
X67073654Y-53653909D01*
X67191540Y-53654012D01*
X67746729Y-53424612D01*
X68171870Y-53000213D01*
X68273361Y-52755796D01*
X68500849Y-52907799D01*
X69050000Y-53017032D01*
X69599151Y-52907799D01*
X70064698Y-52596730D01*
X70167557Y-52442790D01*
X74272238Y-52442790D01*
X74501638Y-52997979D01*
X74926037Y-53423120D01*
X75480825Y-53653488D01*
X76081540Y-53654012D01*
X76636729Y-53424612D01*
X77061870Y-53000213D01*
X77201321Y-52664376D01*
X78233145Y-52664376D01*
X78632528Y-53630957D01*
X79371404Y-54371123D01*
X80337285Y-54772192D01*
X81383126Y-54773105D01*
X82349707Y-54373722D01*
X83089873Y-53634846D01*
X83490942Y-52668965D01*
X83491855Y-51623124D01*
X83092472Y-50656543D01*
X82353596Y-49916377D01*
X81387715Y-49515308D01*
X80341874Y-49514395D01*
X79375293Y-49913778D01*
X78635127Y-50652654D01*
X78234058Y-51618535D01*
X78233145Y-52664376D01*
X77201321Y-52664376D01*
X77292238Y-52445425D01*
X77292762Y-51844710D01*
X77063362Y-51289521D01*
X76638963Y-50864380D01*
X76084175Y-50634012D01*
X75483460Y-50633488D01*
X74928271Y-50862888D01*
X74503130Y-51287287D01*
X74272762Y-51842075D01*
X74272238Y-52442790D01*
X70167557Y-52442790D01*
X70375767Y-52131183D01*
X70485000Y-51582032D01*
X70485000Y-51117968D01*
X70375767Y-50568817D01*
X70064698Y-50103270D01*
X69653343Y-49828411D01*
X69954424Y-49670637D01*
X70314428Y-49239226D01*
X70481934Y-48702886D01*
X70329471Y-48477000D01*
X69177000Y-48477000D01*
X69177000Y-48497000D01*
X68923000Y-48497000D01*
X68923000Y-48477000D01*
X67770529Y-48477000D01*
X67618066Y-48702886D01*
X67785572Y-49239226D01*
X68145576Y-49670637D01*
X68446657Y-49828411D01*
X68035302Y-50103270D01*
X67724233Y-50568817D01*
X67671814Y-50832345D01*
X67194175Y-50634012D01*
X66593460Y-50633488D01*
X66038271Y-50862888D01*
X65613130Y-51287287D01*
X65382762Y-51842075D01*
X65382238Y-52442790D01*
X65565664Y-52886714D01*
X65563193Y-52886360D01*
X64897899Y-53056554D01*
X64348379Y-53468391D01*
X63034804Y-54932372D01*
X62821315Y-55145489D01*
X62671330Y-55506692D01*
X62616571Y-55599100D01*
X62607942Y-55659348D01*
X62552807Y-55792129D01*
X62552586Y-56045869D01*
X62519214Y-56278881D01*
X61004419Y-56278881D01*
X60940602Y-55963299D01*
X60556272Y-55392047D01*
X59982590Y-55011356D01*
X59829518Y-54961402D01*
X59549022Y-55060064D01*
X59521785Y-55455003D01*
X59266626Y-55463059D01*
X59295624Y-55042588D01*
X59031328Y-54906354D01*
X58872846Y-54934822D01*
X58252335Y-55233154D01*
X57793224Y-55746237D01*
X57565409Y-56395959D01*
X57545409Y-56685959D01*
X57593029Y-56689243D01*
X57502330Y-56929379D01*
X55530000Y-56929379D01*
X55530000Y-53076478D01*
X55876037Y-53423120D01*
X56430825Y-53653488D01*
X57031540Y-53654012D01*
X57586729Y-53424612D01*
X58011870Y-53000213D01*
X58151321Y-52664376D01*
X59183145Y-52664376D01*
X59582528Y-53630957D01*
X60321404Y-54371123D01*
X61287285Y-54772192D01*
X62333126Y-54773105D01*
X63299707Y-54373722D01*
X64039873Y-53634846D01*
X64440942Y-52668965D01*
X64441855Y-51623124D01*
X64042472Y-50656543D01*
X63303596Y-49916377D01*
X62337715Y-49515308D01*
X61291874Y-49514395D01*
X60325293Y-49913778D01*
X59585127Y-50652654D01*
X59184058Y-51618535D01*
X59183145Y-52664376D01*
X58151321Y-52664376D01*
X58242238Y-52445425D01*
X58242762Y-51844710D01*
X58013362Y-51289521D01*
X57588963Y-50864380D01*
X57034175Y-50634012D01*
X56433460Y-50633488D01*
X55878271Y-50862888D01*
X55530000Y-51210551D01*
X55530000Y-47997114D01*
X67618066Y-47997114D01*
X67770529Y-48223000D01*
X68923000Y-48223000D01*
X68923000Y-46880085D01*
X69177000Y-46880085D01*
X69177000Y-48223000D01*
X70329471Y-48223000D01*
X70481934Y-47997114D01*
X70314428Y-47460774D01*
X69954424Y-47029363D01*
X69812462Y-46954971D01*
X70314821Y-46954971D01*
X70472058Y-47335515D01*
X70762954Y-47626919D01*
X71143223Y-47784820D01*
X71554971Y-47785179D01*
X71935515Y-47627942D01*
X72226919Y-47337046D01*
X72384820Y-46956777D01*
X72385179Y-46545029D01*
X72227942Y-46164485D01*
X72046774Y-45983000D01*
X104395000Y-45983000D01*
X104395000Y-47233000D01*
X105653000Y-47233000D01*
X105653000Y-44890344D01*
X105907000Y-44890344D01*
X105907000Y-47233000D01*
X107165000Y-47233000D01*
X107165000Y-45983000D01*
X111695000Y-45983000D01*
X111695000Y-47233000D01*
X112953000Y-47233000D01*
X112953000Y-44890344D01*
X113207000Y-44890344D01*
X113207000Y-47233000D01*
X114465000Y-47233000D01*
X114465000Y-45983000D01*
X114310972Y-45462651D01*
X113969540Y-45040855D01*
X113492684Y-44781827D01*
X113421185Y-44767682D01*
X113207000Y-44890344D01*
X112953000Y-44890344D01*
X112738815Y-44767682D01*
X112667316Y-44781827D01*
X112190460Y-45040855D01*
X111849028Y-45462651D01*
X111695000Y-45983000D01*
X107165000Y-45983000D01*
X107010972Y-45462651D01*
X106669540Y-45040855D01*
X106192684Y-44781827D01*
X106121185Y-44767682D01*
X105907000Y-44890344D01*
X105653000Y-44890344D01*
X105438815Y-44767682D01*
X105367316Y-44781827D01*
X104890460Y-45040855D01*
X104549028Y-45462651D01*
X104395000Y-45983000D01*
X72046774Y-45983000D01*
X71937046Y-45873081D01*
X71556777Y-45715180D01*
X71145029Y-45714821D01*
X70764485Y-45872058D01*
X70473081Y-46162954D01*
X70315180Y-46543223D01*
X70314821Y-46954971D01*
X69812462Y-46954971D01*
X69456730Y-46768558D01*
X69399039Y-46758096D01*
X69177000Y-46880085D01*
X68923000Y-46880085D01*
X68700961Y-46758096D01*
X68643270Y-46768558D01*
X68145576Y-47029363D01*
X67785572Y-47460774D01*
X67618066Y-47997114D01*
X55530000Y-47997114D01*
X55530000Y-47246362D01*
X55636876Y-46679646D01*
X55911523Y-46259620D01*
X56325997Y-45976672D01*
X56883498Y-45860000D01*
X66550000Y-45860000D01*
X66821705Y-45805954D01*
X67052046Y-45652046D01*
X68844092Y-43860000D01*
X73855908Y-43860000D01*
X75647954Y-45652046D01*
G36*
X96670000Y-115253637D02*
X96563124Y-115820354D01*
X96288478Y-116240379D01*
X95874003Y-116523328D01*
X95268719Y-116650000D01*
X94959176Y-116650000D01*
X94959874Y-115851183D01*
X94631878Y-115057373D01*
X94125148Y-114549757D01*
X94394515Y-114249547D01*
X94410273Y-114243129D01*
X94417543Y-114223882D01*
X94767664Y-113833671D01*
X94616242Y-113697806D01*
X94657670Y-113588121D01*
X94651353Y-113388053D01*
X94937295Y-113644617D01*
X95592295Y-112914618D01*
X95899753Y-112298576D01*
X95948058Y-111611769D01*
X95729856Y-110958757D01*
X95639883Y-110825222D01*
X95576279Y-110803846D01*
X95766540Y-110804012D01*
X96321729Y-110574612D01*
X96670000Y-110226949D01*
X96670000Y-115253637D01*
X96670000Y-115253637D01*
G37*
X96670000Y-115253637D02*
X96563124Y-115820354D01*
X96288478Y-116240379D01*
X95874003Y-116523328D01*
X95268719Y-116650000D01*
X94959176Y-116650000D01*
X94959874Y-115851183D01*
X94631878Y-115057373D01*
X94125148Y-114549757D01*
X94394515Y-114249547D01*
X94410273Y-114243129D01*
X94417543Y-114223882D01*
X94767664Y-113833671D01*
X94616242Y-113697806D01*
X94657670Y-113588121D01*
X94651353Y-113388053D01*
X94937295Y-113644617D01*
X95592295Y-112914618D01*
X95899753Y-112298576D01*
X95948058Y-111611769D01*
X95729856Y-110958757D01*
X95639883Y-110825222D01*
X95576279Y-110803846D01*
X95766540Y-110804012D01*
X96321729Y-110574612D01*
X96670000Y-110226949D01*
X96670000Y-115253637D01*
M02*
