G04 #@! TF.FileFunction,Soldermask,Top*
%FSLAX46Y46*%
G04 Gerber Fmt 4.6, Leading zero omitted, Abs format (unit mm)*
G04 Created by KiCad (PCBNEW 4.0.7) date 06/12/18 21:15:04*
%MOMM*%
%LPD*%
G01*
G04 APERTURE LIST*
%ADD10C,0.100000*%
%ADD11C,2.100000*%
%ADD12O,2.100000X2.100000*%
%ADD13O,2.000000X2.400000*%
%ADD14C,1.200000*%
%ADD15C,4.387800*%
%ADD16C,2.150000*%
%ADD17O,1.900000X4.400000*%
%ADD18C,3.448000*%
%ADD19C,1.388060*%
%ADD20C,1.385520*%
%ADD21C,1.924000*%
%ADD22C,2.600000*%
G04 APERTURE END LIST*
D10*
D11*
X139300000Y-75720000D03*
D12*
X136760000Y-75720000D03*
X139300000Y-78260000D03*
X136760000Y-78260000D03*
X139300000Y-80800000D03*
X136760000Y-80800000D03*
X139300000Y-83340000D03*
X136760000Y-83340000D03*
D13*
X73650000Y-56450000D03*
X69050000Y-55350000D03*
X69050000Y-48350000D03*
D14*
X71350000Y-53750000D03*
X71350000Y-46750000D03*
D13*
X69050000Y-51350000D03*
D15*
X61812500Y-52143750D03*
D16*
X66892500Y-52143750D03*
X56732500Y-52143750D03*
D15*
X61812500Y-71193750D03*
D16*
X56732500Y-71193750D03*
X66892500Y-71193750D03*
D15*
X80862500Y-52143750D03*
D16*
X85942500Y-52143750D03*
X75782500Y-52143750D03*
D15*
X80862500Y-71193750D03*
D16*
X75782500Y-71193750D03*
X85942500Y-71193750D03*
D15*
X99912500Y-52143750D03*
D16*
X104992500Y-52143750D03*
X94832500Y-52143750D03*
D15*
X99912500Y-71193750D03*
D16*
X94832500Y-71193750D03*
X104992500Y-71193750D03*
D15*
X118962500Y-52143750D03*
D16*
X124042500Y-52143750D03*
X113882500Y-52143750D03*
D15*
X118962500Y-71193750D03*
D16*
X113882500Y-71193750D03*
X124042500Y-71193750D03*
D15*
X138012500Y-52143750D03*
D16*
X143092500Y-52143750D03*
X132932500Y-52143750D03*
D15*
X138012500Y-71193750D03*
D16*
X132932500Y-71193750D03*
X143092500Y-71193750D03*
D17*
X105780000Y-47360000D03*
X113080000Y-47360000D03*
D15*
X61812500Y-90243750D03*
D16*
X66892500Y-90243750D03*
X56732500Y-90243750D03*
D15*
X80862500Y-90243750D03*
D16*
X85942500Y-90243750D03*
X75782500Y-90243750D03*
D15*
X99912500Y-90243750D03*
D16*
X104992500Y-90243750D03*
X94832500Y-90243750D03*
D15*
X118962500Y-90243750D03*
D16*
X124042500Y-90243750D03*
X113882500Y-90243750D03*
D15*
X138012500Y-90243750D03*
D16*
X143092500Y-90243750D03*
X132932500Y-90243750D03*
D15*
X52287500Y-109293750D03*
D16*
X57367500Y-109293750D03*
X47207500Y-109293750D03*
D15*
X80862500Y-109293750D03*
D16*
X85942500Y-109293750D03*
X75782500Y-109293750D03*
D18*
X92800500Y-116278750D03*
X68924500Y-116278750D03*
D15*
X92800500Y-101038750D03*
X68924500Y-101038750D03*
X90387500Y-109293750D03*
D16*
X95467500Y-109293750D03*
X85307500Y-109293750D03*
D15*
X61812500Y-109293750D03*
D16*
X66892500Y-109293750D03*
X56732500Y-109293750D03*
D18*
X73750500Y-116278750D03*
X49874500Y-116278750D03*
D15*
X73750500Y-101038750D03*
X49874500Y-101038750D03*
X71337500Y-109293750D03*
D16*
X76417500Y-109293750D03*
X66257500Y-109293750D03*
D11*
X91730000Y-75760000D03*
D12*
X89190000Y-75760000D03*
X91730000Y-78300000D03*
X89190000Y-78300000D03*
X91730000Y-80840000D03*
X89190000Y-80840000D03*
X91730000Y-83380000D03*
X89190000Y-83380000D03*
D19*
X128500000Y-73430000D03*
D20*
X127484000Y-78510000D03*
X129516000Y-78510000D03*
D21*
X131040000Y-74700000D03*
X125960000Y-74700000D03*
X131040000Y-77240000D03*
X125960000Y-77240000D03*
D11*
X119900000Y-77200000D03*
D12*
X122440000Y-77200000D03*
D22*
X61800000Y-101000000D03*
X80900000Y-100950000D03*
X128500000Y-88000000D03*
X128500000Y-54400000D03*
X80800000Y-61650000D03*
X61750000Y-61650000D03*
M02*
