G04 #@! TF.FileFunction,Copper,L2,Bot,Signal*
%FSLAX46Y46*%
G04 Gerber Fmt 4.6, Leading zero omitted, Abs format (unit mm)*
G04 Created by KiCad (PCBNEW 4.0.7) date 06/12/18 21:15:04*
%MOMM*%
%LPD*%
G01*
G04 APERTURE LIST*
%ADD10C,0.100000*%
%ADD11C,0.010000*%
%ADD12C,1.700000*%
%ADD13O,1.700000X1.700000*%
%ADD14O,1.600000X2.000000*%
%ADD15C,2.250000*%
%ADD16C,2.250000*%
%ADD17R,2.350000X0.800000*%
%ADD18R,0.500000X1.400000*%
%ADD19O,1.500000X4.000000*%
%ADD20R,0.550000X1.500000*%
%ADD21R,1.500000X0.550000*%
%ADD22R,1.200000X0.750000*%
%ADD23R,1.560000X0.650000*%
%ADD24C,0.784860*%
%ADD25C,1.524000*%
%ADD26R,0.750000X1.200000*%
%ADD27R,1.200000X0.900000*%
%ADD28R,2.030000X2.650000*%
%ADD29C,0.600000*%
%ADD30C,1.300000*%
%ADD31C,0.550000*%
%ADD32C,0.381000*%
%ADD33C,0.500000*%
%ADD34C,0.254000*%
G04 APERTURE END LIST*
D10*
D11*
G36*
X80777928Y-76751189D02*
X80497719Y-76777606D01*
X80218222Y-76824253D01*
X80202440Y-76827498D01*
X79944784Y-76891256D01*
X79690906Y-76974424D01*
X79442338Y-77076214D01*
X79200615Y-77195839D01*
X78967269Y-77332513D01*
X78743834Y-77485449D01*
X78531844Y-77653861D01*
X78448180Y-77727574D01*
X78319656Y-77848716D01*
X78204171Y-77967560D01*
X78096226Y-78090124D01*
X77990320Y-78222429D01*
X77962625Y-78258920D01*
X77802573Y-78488117D01*
X77661321Y-78724839D01*
X77538652Y-78969571D01*
X77434348Y-79222797D01*
X77348191Y-79485001D01*
X77279962Y-79756669D01*
X77272061Y-79794349D01*
X77227077Y-80063043D01*
X77201568Y-80333734D01*
X77195523Y-80604760D01*
X77208933Y-80874460D01*
X77241786Y-81141174D01*
X77281510Y-81348805D01*
X77302725Y-81439136D01*
X77327252Y-81535222D01*
X77353383Y-81630842D01*
X77379412Y-81719774D01*
X77403629Y-81795799D01*
X77406675Y-81804760D01*
X77431238Y-81871831D01*
X77462247Y-81949542D01*
X77497838Y-82033783D01*
X77536150Y-82120446D01*
X77575316Y-82205423D01*
X77613476Y-82284603D01*
X77648763Y-82353880D01*
X77679316Y-82409144D01*
X77685477Y-82419440D01*
X77712393Y-82463496D01*
X77744511Y-82515976D01*
X77776390Y-82567995D01*
X77788101Y-82587080D01*
X77811871Y-82623897D01*
X77845055Y-82672646D01*
X77884704Y-82729134D01*
X77927868Y-82789165D01*
X77971600Y-82848545D01*
X77976858Y-82855577D01*
X78089806Y-82996934D01*
X78217295Y-83139896D01*
X78354563Y-83279705D01*
X78496855Y-83411601D01*
X78639409Y-83530826D01*
X78694423Y-83573142D01*
X78753434Y-83616740D01*
X78813611Y-83660133D01*
X78870759Y-83700371D01*
X78920683Y-83734506D01*
X78959189Y-83759590D01*
X78962920Y-83761899D01*
X79012189Y-83792114D01*
X79065555Y-83824791D01*
X79114130Y-83854492D01*
X79130560Y-83864523D01*
X79173303Y-83888779D01*
X79230935Y-83918823D01*
X79299527Y-83952778D01*
X79375152Y-83988766D01*
X79453881Y-84024908D01*
X79531784Y-84059326D01*
X79587760Y-84083067D01*
X79773263Y-84152496D01*
X79973159Y-84213300D01*
X80183018Y-84264509D01*
X80398408Y-84305149D01*
X80614899Y-84334249D01*
X80801880Y-84349487D01*
X80871376Y-84353258D01*
X80926538Y-84355889D01*
X80972571Y-84357376D01*
X81014679Y-84357713D01*
X81058065Y-84356897D01*
X81107934Y-84354921D01*
X81169489Y-84351781D01*
X81218440Y-84349103D01*
X81466453Y-84327123D01*
X81711133Y-84288472D01*
X81954594Y-84232613D01*
X82198947Y-84159004D01*
X82446305Y-84067109D01*
X82625600Y-83990154D01*
X82751152Y-83928740D01*
X82885205Y-83854829D01*
X83023117Y-83771422D01*
X83160246Y-83681521D01*
X83291950Y-83588126D01*
X83413586Y-83494238D01*
X83484120Y-83435177D01*
X83684055Y-83248597D01*
X83869909Y-83048787D01*
X84040945Y-82836987D01*
X84196427Y-82614442D01*
X84335618Y-82382393D01*
X84457781Y-82142082D01*
X84562178Y-81894752D01*
X84648074Y-81641645D01*
X84714730Y-81384004D01*
X84722502Y-81347560D01*
X84770295Y-81068121D01*
X84797856Y-80787937D01*
X84803685Y-80565160D01*
X84127697Y-80565160D01*
X84123165Y-80726576D01*
X84112534Y-80884864D01*
X84095871Y-81034418D01*
X84092527Y-81058000D01*
X84053489Y-81262477D01*
X83996413Y-81470207D01*
X83922601Y-81678217D01*
X83833358Y-81883533D01*
X83729987Y-82083183D01*
X83613792Y-82274192D01*
X83486076Y-82453589D01*
X83473421Y-82469882D01*
X83309552Y-82662881D01*
X83131535Y-82841566D01*
X82940291Y-83005253D01*
X82736742Y-83153259D01*
X82521812Y-83284897D01*
X82296421Y-83399486D01*
X82119306Y-83474511D01*
X81984797Y-83522037D01*
X81837913Y-83565558D01*
X81685639Y-83603372D01*
X81534961Y-83633776D01*
X81392865Y-83655068D01*
X81365760Y-83658118D01*
X81317881Y-83663189D01*
X81274537Y-83667816D01*
X81241636Y-83671367D01*
X81228600Y-83672803D01*
X81194098Y-83675205D01*
X81143720Y-83676783D01*
X81081893Y-83677571D01*
X81013043Y-83677605D01*
X80941598Y-83676917D01*
X80871983Y-83675543D01*
X80808626Y-83673517D01*
X80755952Y-83670873D01*
X80730760Y-83668952D01*
X80479221Y-83635687D01*
X80231301Y-83582859D01*
X79988594Y-83510948D01*
X79752691Y-83420433D01*
X79525182Y-83311794D01*
X79497851Y-83297200D01*
X79420455Y-83252671D01*
X79333277Y-83197940D01*
X79241495Y-83136558D01*
X79150289Y-83072073D01*
X79064835Y-83008037D01*
X78998480Y-82954853D01*
X78810706Y-82785257D01*
X78638692Y-82603134D01*
X78482847Y-82409266D01*
X78343576Y-82204434D01*
X78221286Y-81989421D01*
X78116383Y-81765008D01*
X78029276Y-81531977D01*
X77960368Y-81291111D01*
X77910069Y-81043192D01*
X77880075Y-80803945D01*
X77875390Y-80728703D01*
X77873037Y-80639408D01*
X77872893Y-80541427D01*
X77874832Y-80440128D01*
X77878732Y-80340878D01*
X77884470Y-80249045D01*
X77891920Y-80169996D01*
X77895290Y-80143600D01*
X77926345Y-79959267D01*
X77967118Y-79776650D01*
X78016130Y-79601607D01*
X78071899Y-79439994D01*
X78075489Y-79430694D01*
X78174848Y-79202026D01*
X78291060Y-78983053D01*
X78423197Y-78774718D01*
X78570333Y-78577964D01*
X78731539Y-78393733D01*
X78905889Y-78222969D01*
X79092455Y-78066615D01*
X79290311Y-77925613D01*
X79498528Y-77800906D01*
X79716179Y-77693437D01*
X79831600Y-77645141D01*
X79980173Y-77589021D01*
X80117163Y-77542725D01*
X80246815Y-77505465D01*
X80373376Y-77476448D01*
X80501090Y-77454886D01*
X80634203Y-77439987D01*
X80776961Y-77430962D01*
X80933608Y-77427020D01*
X81005080Y-77426691D01*
X81118252Y-77427333D01*
X81215361Y-77429392D01*
X81300639Y-77433234D01*
X81378317Y-77439228D01*
X81452626Y-77447741D01*
X81527798Y-77459143D01*
X81608062Y-77473801D01*
X81655320Y-77483263D01*
X81760225Y-77508066D01*
X81876887Y-77541330D01*
X81999631Y-77581078D01*
X82122781Y-77625330D01*
X82240662Y-77672107D01*
X82347598Y-77719430D01*
X82385655Y-77737880D01*
X82559885Y-77832488D01*
X82732445Y-77940819D01*
X82899509Y-78059995D01*
X83057253Y-78187137D01*
X83201851Y-78319367D01*
X83314596Y-78436991D01*
X83479231Y-78635509D01*
X83626163Y-78842933D01*
X83755061Y-79058559D01*
X83865597Y-79281687D01*
X83957440Y-79511615D01*
X84030262Y-79747641D01*
X84083732Y-79989062D01*
X84104009Y-80118200D01*
X84118187Y-80255366D01*
X84126060Y-80406222D01*
X84127697Y-80565160D01*
X84803685Y-80565160D01*
X84805192Y-80507596D01*
X84792310Y-80227691D01*
X84759218Y-79948811D01*
X84705922Y-79671548D01*
X84702303Y-79655920D01*
X84640805Y-79430283D01*
X84561555Y-79201785D01*
X84466059Y-78974046D01*
X84355825Y-78750686D01*
X84243690Y-78553824D01*
X84116561Y-78361283D01*
X83971750Y-78171270D01*
X83811896Y-77986601D01*
X83639634Y-77810092D01*
X83457602Y-77644558D01*
X83268437Y-77492815D01*
X83209536Y-77449572D01*
X82998924Y-77309375D01*
X82776464Y-77182255D01*
X82545366Y-77069681D01*
X82308841Y-76973122D01*
X82070099Y-76894048D01*
X81894080Y-76847697D01*
X81616926Y-76793259D01*
X81338122Y-76759023D01*
X81058259Y-76744998D01*
X80777928Y-76751189D01*
X80777928Y-76751189D01*
G37*
X80777928Y-76751189D02*
X80497719Y-76777606D01*
X80218222Y-76824253D01*
X80202440Y-76827498D01*
X79944784Y-76891256D01*
X79690906Y-76974424D01*
X79442338Y-77076214D01*
X79200615Y-77195839D01*
X78967269Y-77332513D01*
X78743834Y-77485449D01*
X78531844Y-77653861D01*
X78448180Y-77727574D01*
X78319656Y-77848716D01*
X78204171Y-77967560D01*
X78096226Y-78090124D01*
X77990320Y-78222429D01*
X77962625Y-78258920D01*
X77802573Y-78488117D01*
X77661321Y-78724839D01*
X77538652Y-78969571D01*
X77434348Y-79222797D01*
X77348191Y-79485001D01*
X77279962Y-79756669D01*
X77272061Y-79794349D01*
X77227077Y-80063043D01*
X77201568Y-80333734D01*
X77195523Y-80604760D01*
X77208933Y-80874460D01*
X77241786Y-81141174D01*
X77281510Y-81348805D01*
X77302725Y-81439136D01*
X77327252Y-81535222D01*
X77353383Y-81630842D01*
X77379412Y-81719774D01*
X77403629Y-81795799D01*
X77406675Y-81804760D01*
X77431238Y-81871831D01*
X77462247Y-81949542D01*
X77497838Y-82033783D01*
X77536150Y-82120446D01*
X77575316Y-82205423D01*
X77613476Y-82284603D01*
X77648763Y-82353880D01*
X77679316Y-82409144D01*
X77685477Y-82419440D01*
X77712393Y-82463496D01*
X77744511Y-82515976D01*
X77776390Y-82567995D01*
X77788101Y-82587080D01*
X77811871Y-82623897D01*
X77845055Y-82672646D01*
X77884704Y-82729134D01*
X77927868Y-82789165D01*
X77971600Y-82848545D01*
X77976858Y-82855577D01*
X78089806Y-82996934D01*
X78217295Y-83139896D01*
X78354563Y-83279705D01*
X78496855Y-83411601D01*
X78639409Y-83530826D01*
X78694423Y-83573142D01*
X78753434Y-83616740D01*
X78813611Y-83660133D01*
X78870759Y-83700371D01*
X78920683Y-83734506D01*
X78959189Y-83759590D01*
X78962920Y-83761899D01*
X79012189Y-83792114D01*
X79065555Y-83824791D01*
X79114130Y-83854492D01*
X79130560Y-83864523D01*
X79173303Y-83888779D01*
X79230935Y-83918823D01*
X79299527Y-83952778D01*
X79375152Y-83988766D01*
X79453881Y-84024908D01*
X79531784Y-84059326D01*
X79587760Y-84083067D01*
X79773263Y-84152496D01*
X79973159Y-84213300D01*
X80183018Y-84264509D01*
X80398408Y-84305149D01*
X80614899Y-84334249D01*
X80801880Y-84349487D01*
X80871376Y-84353258D01*
X80926538Y-84355889D01*
X80972571Y-84357376D01*
X81014679Y-84357713D01*
X81058065Y-84356897D01*
X81107934Y-84354921D01*
X81169489Y-84351781D01*
X81218440Y-84349103D01*
X81466453Y-84327123D01*
X81711133Y-84288472D01*
X81954594Y-84232613D01*
X82198947Y-84159004D01*
X82446305Y-84067109D01*
X82625600Y-83990154D01*
X82751152Y-83928740D01*
X82885205Y-83854829D01*
X83023117Y-83771422D01*
X83160246Y-83681521D01*
X83291950Y-83588126D01*
X83413586Y-83494238D01*
X83484120Y-83435177D01*
X83684055Y-83248597D01*
X83869909Y-83048787D01*
X84040945Y-82836987D01*
X84196427Y-82614442D01*
X84335618Y-82382393D01*
X84457781Y-82142082D01*
X84562178Y-81894752D01*
X84648074Y-81641645D01*
X84714730Y-81384004D01*
X84722502Y-81347560D01*
X84770295Y-81068121D01*
X84797856Y-80787937D01*
X84803685Y-80565160D01*
X84127697Y-80565160D01*
X84123165Y-80726576D01*
X84112534Y-80884864D01*
X84095871Y-81034418D01*
X84092527Y-81058000D01*
X84053489Y-81262477D01*
X83996413Y-81470207D01*
X83922601Y-81678217D01*
X83833358Y-81883533D01*
X83729987Y-82083183D01*
X83613792Y-82274192D01*
X83486076Y-82453589D01*
X83473421Y-82469882D01*
X83309552Y-82662881D01*
X83131535Y-82841566D01*
X82940291Y-83005253D01*
X82736742Y-83153259D01*
X82521812Y-83284897D01*
X82296421Y-83399486D01*
X82119306Y-83474511D01*
X81984797Y-83522037D01*
X81837913Y-83565558D01*
X81685639Y-83603372D01*
X81534961Y-83633776D01*
X81392865Y-83655068D01*
X81365760Y-83658118D01*
X81317881Y-83663189D01*
X81274537Y-83667816D01*
X81241636Y-83671367D01*
X81228600Y-83672803D01*
X81194098Y-83675205D01*
X81143720Y-83676783D01*
X81081893Y-83677571D01*
X81013043Y-83677605D01*
X80941598Y-83676917D01*
X80871983Y-83675543D01*
X80808626Y-83673517D01*
X80755952Y-83670873D01*
X80730760Y-83668952D01*
X80479221Y-83635687D01*
X80231301Y-83582859D01*
X79988594Y-83510948D01*
X79752691Y-83420433D01*
X79525182Y-83311794D01*
X79497851Y-83297200D01*
X79420455Y-83252671D01*
X79333277Y-83197940D01*
X79241495Y-83136558D01*
X79150289Y-83072073D01*
X79064835Y-83008037D01*
X78998480Y-82954853D01*
X78810706Y-82785257D01*
X78638692Y-82603134D01*
X78482847Y-82409266D01*
X78343576Y-82204434D01*
X78221286Y-81989421D01*
X78116383Y-81765008D01*
X78029276Y-81531977D01*
X77960368Y-81291111D01*
X77910069Y-81043192D01*
X77880075Y-80803945D01*
X77875390Y-80728703D01*
X77873037Y-80639408D01*
X77872893Y-80541427D01*
X77874832Y-80440128D01*
X77878732Y-80340878D01*
X77884470Y-80249045D01*
X77891920Y-80169996D01*
X77895290Y-80143600D01*
X77926345Y-79959267D01*
X77967118Y-79776650D01*
X78016130Y-79601607D01*
X78071899Y-79439994D01*
X78075489Y-79430694D01*
X78174848Y-79202026D01*
X78291060Y-78983053D01*
X78423197Y-78774718D01*
X78570333Y-78577964D01*
X78731539Y-78393733D01*
X78905889Y-78222969D01*
X79092455Y-78066615D01*
X79290311Y-77925613D01*
X79498528Y-77800906D01*
X79716179Y-77693437D01*
X79831600Y-77645141D01*
X79980173Y-77589021D01*
X80117163Y-77542725D01*
X80246815Y-77505465D01*
X80373376Y-77476448D01*
X80501090Y-77454886D01*
X80634203Y-77439987D01*
X80776961Y-77430962D01*
X80933608Y-77427020D01*
X81005080Y-77426691D01*
X81118252Y-77427333D01*
X81215361Y-77429392D01*
X81300639Y-77433234D01*
X81378317Y-77439228D01*
X81452626Y-77447741D01*
X81527798Y-77459143D01*
X81608062Y-77473801D01*
X81655320Y-77483263D01*
X81760225Y-77508066D01*
X81876887Y-77541330D01*
X81999631Y-77581078D01*
X82122781Y-77625330D01*
X82240662Y-77672107D01*
X82347598Y-77719430D01*
X82385655Y-77737880D01*
X82559885Y-77832488D01*
X82732445Y-77940819D01*
X82899509Y-78059995D01*
X83057253Y-78187137D01*
X83201851Y-78319367D01*
X83314596Y-78436991D01*
X83479231Y-78635509D01*
X83626163Y-78842933D01*
X83755061Y-79058559D01*
X83865597Y-79281687D01*
X83957440Y-79511615D01*
X84030262Y-79747641D01*
X84083732Y-79989062D01*
X84104009Y-80118200D01*
X84118187Y-80255366D01*
X84126060Y-80406222D01*
X84127697Y-80565160D01*
X84803685Y-80565160D01*
X84805192Y-80507596D01*
X84792310Y-80227691D01*
X84759218Y-79948811D01*
X84705922Y-79671548D01*
X84702303Y-79655920D01*
X84640805Y-79430283D01*
X84561555Y-79201785D01*
X84466059Y-78974046D01*
X84355825Y-78750686D01*
X84243690Y-78553824D01*
X84116561Y-78361283D01*
X83971750Y-78171270D01*
X83811896Y-77986601D01*
X83639634Y-77810092D01*
X83457602Y-77644558D01*
X83268437Y-77492815D01*
X83209536Y-77449572D01*
X82998924Y-77309375D01*
X82776464Y-77182255D01*
X82545366Y-77069681D01*
X82308841Y-76973122D01*
X82070099Y-76894048D01*
X81894080Y-76847697D01*
X81616926Y-76793259D01*
X81338122Y-76759023D01*
X81058259Y-76744998D01*
X80777928Y-76751189D01*
G36*
X79303280Y-80204560D02*
X79984000Y-80204560D01*
X79984000Y-79523840D01*
X80324496Y-79523840D01*
X80664991Y-79523839D01*
X80662316Y-79866740D01*
X80659640Y-80209640D01*
X80321820Y-80212316D01*
X79984000Y-80214993D01*
X79984000Y-80885280D01*
X80664720Y-80885280D01*
X80664720Y-82246720D01*
X81335136Y-82246720D01*
X81340360Y-80890360D01*
X81683260Y-80887684D01*
X82026160Y-80885009D01*
X82026160Y-82246720D01*
X82696720Y-82246720D01*
X82696720Y-79862371D01*
X82026160Y-79862371D01*
X82025960Y-79943414D01*
X82025393Y-80017918D01*
X82024505Y-80083462D01*
X82023347Y-80137626D01*
X82021965Y-80177990D01*
X82020410Y-80202135D01*
X82019252Y-80208081D01*
X82007789Y-80209658D01*
X81978437Y-80210949D01*
X81933627Y-80211924D01*
X81875790Y-80212554D01*
X81807356Y-80212808D01*
X81730755Y-80212656D01*
X81676352Y-80212314D01*
X81340360Y-80209640D01*
X81340360Y-79528920D01*
X81683260Y-79526244D01*
X82026160Y-79523569D01*
X82026160Y-79862371D01*
X82696720Y-79862371D01*
X82696720Y-78853280D01*
X79303280Y-78853280D01*
X79303280Y-80204560D01*
X79303280Y-80204560D01*
G37*
X79303280Y-80204560D02*
X79984000Y-80204560D01*
X79984000Y-79523840D01*
X80324496Y-79523840D01*
X80664991Y-79523839D01*
X80662316Y-79866740D01*
X80659640Y-80209640D01*
X80321820Y-80212316D01*
X79984000Y-80214993D01*
X79984000Y-80885280D01*
X80664720Y-80885280D01*
X80664720Y-82246720D01*
X81335136Y-82246720D01*
X81340360Y-80890360D01*
X81683260Y-80887684D01*
X82026160Y-80885009D01*
X82026160Y-82246720D01*
X82696720Y-82246720D01*
X82696720Y-79862371D01*
X82026160Y-79862371D01*
X82025960Y-79943414D01*
X82025393Y-80017918D01*
X82024505Y-80083462D01*
X82023347Y-80137626D01*
X82021965Y-80177990D01*
X82020410Y-80202135D01*
X82019252Y-80208081D01*
X82007789Y-80209658D01*
X81978437Y-80210949D01*
X81933627Y-80211924D01*
X81875790Y-80212554D01*
X81807356Y-80212808D01*
X81730755Y-80212656D01*
X81676352Y-80212314D01*
X81340360Y-80209640D01*
X81340360Y-79528920D01*
X81683260Y-79526244D01*
X82026160Y-79523569D01*
X82026160Y-79862371D01*
X82696720Y-79862371D01*
X82696720Y-78853280D01*
X79303280Y-78853280D01*
X79303280Y-80204560D01*
G36*
X79303280Y-82246720D02*
X79984145Y-82246720D01*
X79981533Y-81568540D01*
X79978920Y-80890360D01*
X79303280Y-80885006D01*
X79303280Y-82246720D01*
X79303280Y-82246720D01*
G37*
X79303280Y-82246720D02*
X79984145Y-82246720D01*
X79981533Y-81568540D01*
X79978920Y-80890360D01*
X79303280Y-80885006D01*
X79303280Y-82246720D01*
D12*
X139300000Y-75720000D03*
D13*
X136760000Y-75720000D03*
X139300000Y-78260000D03*
X136760000Y-78260000D03*
X139300000Y-80800000D03*
X136760000Y-80800000D03*
X139300000Y-83340000D03*
X136760000Y-83340000D03*
D14*
X73650000Y-56450000D03*
X69050000Y-55350000D03*
X69050000Y-48350000D03*
X69050000Y-51350000D03*
D15*
X59312500Y-56643750D02*
X59272500Y-57223750D01*
D16*
X59272500Y-57223750D03*
D15*
X65622500Y-54683750D02*
X64312498Y-56143750D01*
D16*
X64312500Y-56143750D03*
D15*
X64312500Y-66693750D02*
X64352500Y-66113750D01*
D16*
X64352500Y-66113750D03*
D15*
X58002500Y-68653750D02*
X59312502Y-67193750D01*
D16*
X59312500Y-67193750D03*
D15*
X78362500Y-56643750D02*
X78322500Y-57223750D01*
D16*
X78322500Y-57223750D03*
D15*
X84672500Y-54683750D02*
X83362498Y-56143750D01*
D16*
X83362500Y-56143750D03*
D15*
X83362500Y-66693750D02*
X83402500Y-66113750D01*
D16*
X83402500Y-66113750D03*
D15*
X77052500Y-68653750D02*
X78362502Y-67193750D01*
D16*
X78362500Y-67193750D03*
D15*
X97412500Y-56643750D02*
X97372500Y-57223750D01*
D16*
X97372500Y-57223750D03*
D15*
X103722500Y-54683750D02*
X102412498Y-56143750D01*
D16*
X102412500Y-56143750D03*
D15*
X102412500Y-66693750D02*
X102452500Y-66113750D01*
D16*
X102452500Y-66113750D03*
D15*
X96102500Y-68653750D02*
X97412502Y-67193750D01*
D16*
X97412500Y-67193750D03*
D15*
X116462500Y-56643750D02*
X116422500Y-57223750D01*
D16*
X116422500Y-57223750D03*
D15*
X122772500Y-54683750D02*
X121462498Y-56143750D01*
D16*
X121462500Y-56143750D03*
D15*
X121462500Y-66693750D02*
X121502500Y-66113750D01*
D16*
X121502500Y-66113750D03*
D15*
X115152500Y-68653750D02*
X116462502Y-67193750D01*
D16*
X116462500Y-67193750D03*
D15*
X135512500Y-56643750D02*
X135472500Y-57223750D01*
D16*
X135472500Y-57223750D03*
D15*
X141822500Y-54683750D02*
X140512498Y-56143750D01*
D16*
X140512500Y-56143750D03*
D15*
X140512500Y-66693750D02*
X140552500Y-66113750D01*
D16*
X140552500Y-66113750D03*
D15*
X134202500Y-68653750D02*
X135512502Y-67193750D01*
D16*
X135512500Y-67193750D03*
D17*
X112105000Y-44560000D03*
X106755000Y-44560000D03*
D18*
X107830000Y-49760000D03*
X108630000Y-49760000D03*
X109430000Y-49760000D03*
X110230000Y-49760000D03*
X111030000Y-49760000D03*
D19*
X105780000Y-47360000D03*
X113080000Y-47360000D03*
D15*
X59312500Y-94743750D02*
X59272500Y-95323750D01*
D16*
X59272500Y-95323750D03*
D15*
X65622500Y-92783750D02*
X64312498Y-94243750D01*
D16*
X64312500Y-94243750D03*
D15*
X78362500Y-94743750D02*
X78322500Y-95323750D01*
D16*
X78322500Y-95323750D03*
D15*
X84672500Y-92783750D02*
X83362498Y-94243750D01*
D16*
X83362500Y-94243750D03*
D15*
X97412500Y-94743750D02*
X97372500Y-95323750D01*
D16*
X97372500Y-95323750D03*
D15*
X103722500Y-92783750D02*
X102412498Y-94243750D01*
D16*
X102412500Y-94243750D03*
D15*
X116462500Y-94743750D02*
X116422500Y-95323750D01*
D16*
X116422500Y-95323750D03*
D15*
X122772500Y-92783750D02*
X121462498Y-94243750D01*
D16*
X121462500Y-94243750D03*
D15*
X135512500Y-94743750D02*
X135472500Y-95323750D01*
D16*
X135472500Y-95323750D03*
D15*
X141822500Y-92783750D02*
X140512498Y-94243750D01*
D16*
X140512500Y-94243750D03*
D15*
X49787500Y-113793750D02*
X49747500Y-114373750D01*
D16*
X49747500Y-114373750D03*
D15*
X56097500Y-111833750D02*
X54787498Y-113293750D01*
D16*
X54787500Y-113293750D03*
D15*
X78362500Y-113793750D02*
X78322500Y-114373750D01*
D16*
X78322500Y-114373750D03*
D15*
X84672500Y-111833750D02*
X83362498Y-113293750D01*
D16*
X83362500Y-113293750D03*
D15*
X87887500Y-113793750D02*
X87847500Y-114373750D01*
D16*
X87847500Y-114373750D03*
D15*
X94197500Y-111833750D02*
X92887498Y-113293750D01*
D16*
X92887500Y-113293750D03*
D15*
X59312500Y-113793750D02*
X59272500Y-114373750D01*
D16*
X59272500Y-114373750D03*
D15*
X65622500Y-111833750D02*
X64312498Y-113293750D01*
D16*
X64312500Y-113293750D03*
D15*
X68837500Y-113793750D02*
X68797500Y-114373750D01*
D16*
X68797500Y-114373750D03*
D15*
X75147500Y-111833750D02*
X73837498Y-113293750D01*
D16*
X73837500Y-113293750D03*
D20*
X113450000Y-86418750D03*
X112650000Y-86418750D03*
X111850000Y-86418750D03*
X111050000Y-86418750D03*
X110250000Y-86418750D03*
X109450000Y-86418750D03*
X108650000Y-86418750D03*
X107850000Y-86418750D03*
X107050000Y-86418750D03*
X106250000Y-86418750D03*
X105450000Y-86418750D03*
D21*
X103750000Y-84718750D03*
X103750000Y-83918750D03*
X103750000Y-83118750D03*
X103750000Y-82318750D03*
X103750000Y-81518750D03*
X103750000Y-80718750D03*
X103750000Y-79918750D03*
X103750000Y-79118750D03*
X103750000Y-78318750D03*
X103750000Y-77518750D03*
X103750000Y-76718750D03*
D20*
X105450000Y-75018750D03*
X106250000Y-75018750D03*
X107050000Y-75018750D03*
X107850000Y-75018750D03*
X108650000Y-75018750D03*
X109450000Y-75018750D03*
X110250000Y-75018750D03*
X111050000Y-75018750D03*
X111850000Y-75018750D03*
X112650000Y-75018750D03*
X113450000Y-75018750D03*
D21*
X115150000Y-76718750D03*
X115150000Y-77518750D03*
X115150000Y-78318750D03*
X115150000Y-79118750D03*
X115150000Y-79918750D03*
X115150000Y-80718750D03*
X115150000Y-81518750D03*
X115150000Y-82318750D03*
X115150000Y-83118750D03*
X115150000Y-83918750D03*
X115150000Y-84718750D03*
D22*
X106500000Y-88750000D03*
X108400000Y-88750000D03*
D12*
X91730000Y-75760000D03*
D13*
X89190000Y-75760000D03*
X91730000Y-78300000D03*
X89190000Y-78300000D03*
X91730000Y-80840000D03*
X89190000Y-80840000D03*
X91730000Y-83380000D03*
X89190000Y-83380000D03*
D23*
X98450000Y-76850000D03*
X98450000Y-75900000D03*
X98450000Y-74950000D03*
X101150000Y-74950000D03*
X101150000Y-76850000D03*
D24*
X129135000Y-74700000D03*
X127865000Y-74700000D03*
X129135000Y-77240000D03*
X127865000Y-77240000D03*
D25*
X131040000Y-74700000D03*
X125960000Y-74700000D03*
X131040000Y-77240000D03*
X125960000Y-77240000D03*
D26*
X99800000Y-78600000D03*
X99800000Y-80500000D03*
X101500000Y-78600000D03*
X101500000Y-80500000D03*
X117500000Y-81300000D03*
X117500000Y-79400000D03*
D22*
X112400000Y-72700000D03*
X110500000Y-72700000D03*
D27*
X110400000Y-69400000D03*
X112600000Y-69400000D03*
X110400000Y-67600000D03*
X112600000Y-67600000D03*
D28*
X90330000Y-71870000D03*
X90330000Y-67690000D03*
D12*
X119900000Y-77200000D03*
D13*
X122440000Y-77200000D03*
D29*
X103070000Y-48521351D03*
X103068015Y-50085389D03*
X107452119Y-52069910D03*
X111487949Y-52070079D03*
X103910000Y-48521351D03*
X103915802Y-50087527D03*
X107440000Y-51270000D03*
X111491677Y-51270085D03*
D30*
X110630000Y-48479998D02*
X110630000Y-49820000D01*
X105780000Y-47360000D02*
X109510002Y-47360000D01*
X109510002Y-47360000D02*
X110630000Y-48479998D01*
D31*
X86712979Y-77034940D02*
X86712979Y-84364396D01*
X86712979Y-84364396D02*
X84778346Y-86299029D01*
X84778346Y-86299029D02*
X67548397Y-86299029D01*
X67548397Y-86299029D02*
X65897426Y-87950000D01*
X132289501Y-78368251D02*
X134111749Y-78368251D01*
X134111749Y-78368251D02*
X136760000Y-75720000D01*
D32*
X66803341Y-53604161D02*
X66683839Y-53604161D01*
X66573429Y-53493751D02*
X66488929Y-53409251D01*
D31*
X67221891Y-54022711D02*
X66803341Y-53604161D01*
X67811221Y-58540000D02*
X67221891Y-57950670D01*
X73110000Y-58540000D02*
X67811221Y-58540000D01*
X67221891Y-57950670D02*
X67221891Y-54022711D01*
X73650000Y-58000000D02*
X73110000Y-58540000D01*
X73650000Y-56450000D02*
X73650000Y-58000000D01*
D32*
X66683839Y-53604161D02*
X66573429Y-53493751D01*
D31*
X64961461Y-53084359D02*
X65835107Y-53084359D01*
D32*
X65998859Y-53168859D02*
X66488929Y-53409251D01*
X66488929Y-53409251D02*
X66044667Y-53168859D01*
X65835107Y-53084359D02*
X65914359Y-53084359D01*
X65914359Y-53084359D02*
X65998859Y-53168859D01*
X65835107Y-53084359D02*
X65844359Y-53084359D01*
X65844359Y-53084359D02*
X65928859Y-53168859D01*
D31*
X84524672Y-74824672D02*
X68525420Y-74824672D01*
X68525420Y-74824672D02*
X64281401Y-70580653D01*
X64281401Y-70580653D02*
X64281401Y-68925139D01*
X64281401Y-68925139D02*
X62715156Y-67358894D01*
X62715156Y-67358894D02*
X62715156Y-63015846D01*
X63325001Y-57524253D02*
X62712499Y-56911751D01*
X62715156Y-63015846D02*
X63325001Y-62406001D01*
X63325001Y-62406001D02*
X63325001Y-57524253D01*
X62712499Y-56911751D02*
X62712499Y-55333321D01*
X62712499Y-55333321D02*
X64961461Y-53084359D01*
X86712979Y-77034940D02*
X86712979Y-77012979D01*
X86712979Y-77012979D02*
X84524672Y-74824672D01*
X77860000Y-96923751D02*
X84666779Y-96923751D01*
X87663365Y-93927165D02*
X87663365Y-90346635D01*
X84666779Y-96923751D02*
X87663365Y-93927165D01*
X87663365Y-90346635D02*
X89727494Y-88282506D01*
X89727494Y-88282506D02*
X98327615Y-88282506D01*
X98327615Y-88282506D02*
X98835272Y-87774849D01*
X77860000Y-96923751D02*
X77554499Y-96923751D01*
X76570363Y-96923751D02*
X77860000Y-96923751D01*
X106500000Y-88750000D02*
X105112174Y-88750000D01*
X105112174Y-88750000D02*
X104137023Y-87774849D01*
X104137023Y-87774849D02*
X98835272Y-87774849D01*
X98835272Y-87774849D02*
X98399061Y-88211061D01*
X64776635Y-89070791D02*
X65897426Y-87950000D01*
X62712499Y-95011751D02*
X62712499Y-92997725D01*
X64624499Y-96923751D02*
X62712499Y-95011751D01*
X76570363Y-96923751D02*
X64624499Y-96923751D01*
X62712499Y-92997725D02*
X64776635Y-90933589D01*
X64776635Y-90933589D02*
X64776635Y-89070791D01*
X65897426Y-87950000D02*
X67047426Y-86800000D01*
X89190000Y-75760000D02*
X87987919Y-75760000D01*
X87987919Y-75760000D02*
X86712979Y-77034940D01*
X106500000Y-88750000D02*
X107050000Y-88200000D01*
X107050000Y-88200000D02*
X107050000Y-86418750D01*
X101150000Y-76850000D02*
X101605000Y-76850000D01*
X131052500Y-74686250D02*
X131052500Y-74522083D01*
X131052500Y-74522083D02*
X128977636Y-72447219D01*
X128977636Y-72447219D02*
X128047364Y-72447219D01*
X128047364Y-72447219D02*
X127485071Y-73009512D01*
X127485071Y-73009512D02*
X127485071Y-74293821D01*
X127485071Y-74293821D02*
X127877500Y-74686250D01*
X118149990Y-80650010D02*
X130007742Y-80650010D01*
X132289501Y-78368251D02*
X132289501Y-75923251D01*
X130007742Y-80650010D02*
X132289501Y-78368251D01*
X132289501Y-75923251D02*
X131814499Y-75448249D01*
X131814499Y-75448249D02*
X131052500Y-74686250D01*
X117400000Y-81250000D02*
X117550000Y-81250000D01*
X117550000Y-81250000D02*
X118149990Y-80650010D01*
X101400000Y-78650000D02*
X101400000Y-77100000D01*
X101400000Y-77100000D02*
X101150000Y-76850000D01*
X99800000Y-78650000D02*
X101400000Y-78650000D01*
X103750000Y-79118750D02*
X101868750Y-79118750D01*
X101868750Y-79118750D02*
X101400000Y-78650000D01*
X112350000Y-72700000D02*
X112350000Y-69750000D01*
X112350000Y-69750000D02*
X112700000Y-69400000D01*
X112700000Y-67600000D02*
X112700000Y-69400000D01*
X111850000Y-73200000D02*
X111850000Y-75018750D01*
X112350000Y-72700000D02*
X111850000Y-73200000D01*
X117400000Y-81250000D02*
X116868750Y-80718750D01*
X116868750Y-80718750D02*
X115150000Y-80718750D01*
X120300000Y-79900000D02*
X118000000Y-79900000D01*
X118000000Y-79900000D02*
X117900000Y-79800000D01*
X117900000Y-79800000D02*
X117500000Y-79400000D01*
X115150000Y-79918750D02*
X116981250Y-79918750D01*
X116981250Y-79918750D02*
X117500000Y-79400000D01*
X108400000Y-88750000D02*
X107850000Y-88200000D01*
X107850000Y-88200000D02*
X107850000Y-86418750D01*
X111050000Y-79950000D02*
X107850000Y-83150000D01*
X107850000Y-83150000D02*
X107850000Y-86418750D01*
X111050000Y-78920000D02*
X111050000Y-76318750D01*
X111050000Y-78920000D02*
X111050000Y-79950000D01*
X111050000Y-76318750D02*
X111050000Y-75018750D01*
X103750000Y-79918750D02*
X115150000Y-79918750D01*
X122440000Y-78402081D02*
X120942081Y-79900000D01*
X120300000Y-79900000D02*
X122400000Y-79900000D01*
X122440000Y-77200000D02*
X122440000Y-78402081D01*
X120942081Y-79900000D02*
X120300000Y-79900000D01*
X108450000Y-88700000D02*
X108225000Y-88700000D01*
X122400000Y-79900000D02*
X127525037Y-79900000D01*
X108450000Y-88700000D02*
X108500000Y-88700000D01*
X98450000Y-75900000D02*
X91860000Y-75900000D01*
X91860000Y-75900000D02*
X91740000Y-75780000D01*
X127525037Y-79900000D02*
X128464261Y-78960776D01*
X128464261Y-78960776D02*
X128464261Y-77813011D01*
X128464261Y-77813011D02*
X128269929Y-77618679D01*
X128269929Y-77618679D02*
X127877500Y-77226250D01*
X117400000Y-79350000D02*
X117400000Y-79400000D01*
X98450000Y-75900000D02*
X97439998Y-75900000D01*
X97439998Y-75900000D02*
X97194999Y-76144999D01*
X99800000Y-80325000D02*
X99800000Y-80550000D01*
X97194999Y-76144999D02*
X97194999Y-77719999D01*
X97194999Y-77719999D02*
X99800000Y-80325000D01*
X99800000Y-80550000D02*
X101400000Y-80550000D01*
X101400000Y-80550000D02*
X102031250Y-79918750D01*
X102031250Y-79918750D02*
X103750000Y-79918750D01*
X111050000Y-73300000D02*
X111050000Y-75018750D01*
X110450000Y-72700000D02*
X111050000Y-73300000D01*
D32*
X135512500Y-67193750D02*
X134893750Y-67193750D01*
D31*
X90400000Y-71800000D02*
X93550000Y-74950000D01*
X97120000Y-74950000D02*
X98450000Y-74950000D01*
X93550000Y-74950000D02*
X97120000Y-74950000D01*
X98450000Y-74950000D02*
X99460002Y-74950000D01*
X99460002Y-74950000D02*
X99705001Y-75194999D01*
X99705001Y-75194999D02*
X99705001Y-76605001D01*
X99705001Y-76605001D02*
X99460002Y-76850000D01*
X99460002Y-76850000D02*
X98450000Y-76850000D01*
X78393599Y-50958677D02*
X80052276Y-49300000D01*
X102664433Y-49296351D02*
X104239538Y-49296351D01*
X79224999Y-65791345D02*
X79224999Y-58689253D01*
X104888224Y-49945037D02*
X106844963Y-49945037D01*
X79959844Y-57954408D02*
X79959844Y-54895068D01*
X79959844Y-54895068D02*
X78393599Y-53328823D01*
X80052276Y-49300000D02*
X102660784Y-49300000D01*
X102660784Y-49300000D02*
X102664433Y-49296351D01*
X106844963Y-49945037D02*
X107030000Y-49760000D01*
X107030000Y-49760000D02*
X107830000Y-49760000D01*
X78393599Y-53328823D02*
X78393599Y-50958677D01*
X83150000Y-68700000D02*
X82133654Y-68700000D01*
X104239538Y-49296351D02*
X104888224Y-49945037D01*
X82133654Y-68700000D02*
X79224999Y-65791345D01*
X79224999Y-58689253D02*
X79959844Y-57954408D01*
D33*
X87805000Y-68700000D02*
X83150000Y-68700000D01*
X88605000Y-67900000D02*
X87805000Y-68700000D01*
X88885000Y-67620000D02*
X88605000Y-67900000D01*
X88605000Y-67900000D02*
X88238906Y-68266094D01*
X90400000Y-67620000D02*
X88885000Y-67620000D01*
D32*
X107705561Y-73285643D02*
X107711518Y-73276163D01*
X108670000Y-61900000D02*
X108670000Y-49760000D01*
X107644775Y-74061517D02*
X107635295Y-74055560D01*
X107716469Y-62853531D02*
X108670000Y-61900000D01*
X107635295Y-73315377D02*
X107644775Y-73309420D01*
X107850000Y-75018750D02*
X107850000Y-74250000D01*
X107644775Y-73309420D02*
X107655343Y-73305722D01*
X107635295Y-74055560D02*
X107627378Y-74047643D01*
X107850000Y-74250000D02*
X107716469Y-74116469D01*
X107705561Y-74085294D02*
X107697644Y-74077377D01*
X107688164Y-74071420D02*
X107677596Y-74067722D01*
X107716469Y-74116469D02*
X107715216Y-74105342D01*
X107677596Y-74067722D02*
X107655343Y-74065215D01*
X107715216Y-74105342D02*
X107711518Y-74094774D01*
X107711518Y-74094774D02*
X107705561Y-74085294D01*
X107697644Y-74077377D02*
X107688164Y-74071420D01*
X107627378Y-74047643D02*
X107621421Y-74038163D01*
X107655343Y-74065215D02*
X107644775Y-74061517D01*
X107621421Y-74038163D02*
X107617723Y-74027595D01*
X107617723Y-73343342D02*
X107621421Y-73332774D01*
X107617723Y-74027595D02*
X107616469Y-74016469D01*
X107616469Y-74016469D02*
X107616469Y-73354469D01*
X107715216Y-73265595D02*
X107716469Y-73254469D01*
X107616469Y-73354469D02*
X107617723Y-73343342D01*
X107621421Y-73332774D02*
X107627378Y-73323294D01*
X107627378Y-73323294D02*
X107635295Y-73315377D01*
X107655343Y-73305722D02*
X107677596Y-73303215D01*
X107711518Y-73276163D02*
X107715216Y-73265595D01*
X107677596Y-73303215D02*
X107688164Y-73299517D01*
X107688164Y-73299517D02*
X107697644Y-73293560D01*
X107716469Y-73254469D02*
X107716469Y-62853531D01*
X107697644Y-73293560D02*
X107705561Y-73285643D01*
X109470000Y-61000000D02*
X109470000Y-50841000D01*
X108650000Y-75018750D02*
X108650000Y-74221246D01*
X108297479Y-73868725D02*
X108297479Y-63094193D01*
X108650000Y-74221246D02*
X108297479Y-73868725D01*
X108297479Y-63094193D02*
X109470000Y-61921672D01*
X109470000Y-61921672D02*
X109470000Y-61000000D01*
X109470000Y-50841000D02*
X109470000Y-49760000D01*
X131052500Y-77226250D02*
X131052500Y-76591250D01*
X131052500Y-76591250D02*
X129147500Y-74686250D01*
X115831740Y-75381010D02*
X124961558Y-75381010D01*
X125419299Y-75838751D02*
X127994999Y-75838751D01*
X124961558Y-75381010D02*
X125419299Y-75838751D01*
X127994999Y-75838751D02*
X128755071Y-75078679D01*
X128755071Y-75078679D02*
X129147500Y-74686250D01*
X115150000Y-76718750D02*
X115150000Y-76062750D01*
X115150000Y-76062750D02*
X115831740Y-75381010D01*
X125972500Y-77226250D02*
X126755431Y-76443319D01*
X126755431Y-76443319D02*
X128364569Y-76443319D01*
X128755071Y-76833821D02*
X129147500Y-77226250D01*
X128364569Y-76443319D02*
X128755071Y-76833821D01*
X117634632Y-75962020D02*
X124708270Y-75962020D01*
X124708270Y-75962020D02*
X125972500Y-77226250D01*
X115150000Y-77518750D02*
X116077902Y-77518750D01*
X116077902Y-77518750D02*
X117634632Y-75962020D01*
X135497500Y-57223750D02*
X134372501Y-56098751D01*
X134372501Y-56098751D02*
X128650769Y-56098751D01*
X128650769Y-56098751D02*
X126495021Y-58254499D01*
X126495021Y-58254499D02*
X126495021Y-72282515D01*
X126495021Y-72282515D02*
X125277536Y-73500000D01*
X123977536Y-74800000D02*
X125277536Y-73500000D01*
X125277536Y-73500000D02*
X126500000Y-72277536D01*
X115340848Y-74800000D02*
X123977536Y-74800000D01*
X114009499Y-76131349D02*
X115340848Y-74800000D01*
X114009499Y-78309249D02*
X114009499Y-76131349D01*
X114019000Y-78318750D02*
X114009499Y-78309249D01*
X115150000Y-78318750D02*
X114019000Y-78318750D01*
X125914011Y-58200000D02*
X125914011Y-58900000D01*
X121487500Y-56143750D02*
X123857761Y-56143750D01*
X123857761Y-56143750D02*
X125914011Y-58200000D01*
X125914011Y-72041853D02*
X125914011Y-58900000D01*
X114965589Y-74159161D02*
X123796704Y-74159160D01*
X123796704Y-74159160D02*
X125914011Y-72041853D01*
X114106000Y-75018750D02*
X114965589Y-74159161D01*
X113450000Y-75018750D02*
X114106000Y-75018750D01*
X113450000Y-75018750D02*
X113450000Y-74750000D01*
X97397500Y-58816490D02*
X98800000Y-60218990D01*
X97397500Y-57223750D02*
X97397500Y-58816490D01*
X98800000Y-60218990D02*
X101600000Y-60218990D01*
X101600000Y-60218990D02*
X102662334Y-60218990D01*
X104284004Y-60218990D02*
X101600000Y-60218990D01*
X107035459Y-62970445D02*
X104284004Y-60218990D01*
X107035459Y-75004209D02*
X107035459Y-62970445D01*
X107050000Y-75018750D02*
X107035459Y-75004209D01*
X84697500Y-54683750D02*
X84697500Y-55902500D01*
X84697500Y-55902500D02*
X83400000Y-57200000D01*
X83400000Y-57200000D02*
X83400000Y-59500000D01*
X83400000Y-59500000D02*
X84700000Y-60800000D01*
X84700000Y-60800000D02*
X86700000Y-60800000D01*
X102421672Y-60800000D02*
X101200000Y-60800000D01*
X101200000Y-60800000D02*
X86700000Y-60800000D01*
X104043342Y-60800000D02*
X101200000Y-60800000D01*
X86700000Y-60800000D02*
X86400000Y-60800000D01*
X106454450Y-63211108D02*
X104043342Y-60800000D01*
X106454449Y-73945551D02*
X106454450Y-63211108D01*
X106250000Y-74150000D02*
X106454449Y-73945551D01*
X106250000Y-75018750D02*
X106250000Y-74150000D01*
X89150000Y-69499400D02*
X88836025Y-69499400D01*
X64523606Y-56966394D02*
X65622500Y-55867500D01*
X88836025Y-69499400D02*
X87734320Y-70601105D01*
X86751563Y-73578151D02*
X73582410Y-73578151D01*
X87734320Y-70601105D02*
X87734320Y-72595394D01*
X87734320Y-72595394D02*
X86751563Y-73578151D01*
X73582410Y-73578151D02*
X72150000Y-72145741D01*
X64523606Y-59078069D02*
X64523606Y-56966394D01*
X72150000Y-72145741D02*
X72149999Y-63298327D01*
X65622500Y-55867500D02*
X65622500Y-54683750D01*
X72149999Y-63298327D02*
X69430662Y-60578990D01*
X69430662Y-60578990D02*
X66024527Y-60578990D01*
X66024527Y-60578990D02*
X64523606Y-59078069D01*
X94011133Y-73578150D02*
X93111953Y-72678970D01*
X93111953Y-70445771D02*
X92165582Y-69499400D01*
X103750000Y-76718750D02*
X103025597Y-75994347D01*
X103025597Y-75994347D02*
X103025597Y-74196022D01*
X103025597Y-74196022D02*
X102407725Y-73578150D01*
X102407725Y-73578150D02*
X94011133Y-73578150D01*
X93111953Y-72678970D02*
X93111953Y-70445771D01*
X92165582Y-69499400D02*
X89150000Y-69499400D01*
X64852773Y-56740510D02*
X64315578Y-56203315D01*
X65622500Y-54896393D02*
X65622500Y-54683750D01*
X89150000Y-69499400D02*
X88450600Y-69499400D01*
X88450600Y-69499400D02*
X88376511Y-69573489D01*
X103750000Y-76718750D02*
X103781250Y-76718750D01*
X137355441Y-84580501D02*
X136517783Y-84580501D01*
X136517783Y-84580501D02*
X134588785Y-86509499D01*
X134588785Y-86509499D02*
X115212847Y-86509499D01*
X115212847Y-86509499D02*
X114009499Y-85306151D01*
X140552500Y-81230828D02*
X140552500Y-83923442D01*
X140552500Y-83923442D02*
X139895441Y-84580501D01*
X139895441Y-84580501D02*
X137355441Y-84580501D01*
X140552500Y-66113750D02*
X140552500Y-81230828D01*
X112650000Y-86418750D02*
X112650000Y-85287750D01*
X112650000Y-85287750D02*
X112659501Y-85278249D01*
X114037401Y-85278249D02*
X115268651Y-86509499D01*
X112659501Y-85278249D02*
X114037401Y-85278249D01*
X125333001Y-70586309D02*
X125333001Y-71000000D01*
X125333001Y-71000000D02*
X125333001Y-71500000D01*
X121487500Y-66693750D02*
X123993750Y-66693750D01*
X123993750Y-66693750D02*
X125333001Y-68033001D01*
X125333001Y-68033001D02*
X125333001Y-71000000D01*
X125333001Y-71801191D02*
X125333001Y-71500000D01*
X123556041Y-73578151D02*
X125333001Y-71801191D01*
X113162697Y-73578151D02*
X123556041Y-73578151D01*
X112650000Y-74090848D02*
X113162697Y-73578151D01*
X112650000Y-75018750D02*
X112650000Y-74090848D01*
X97437500Y-67193750D02*
X97437500Y-63362500D01*
X97437500Y-63362500D02*
X98837980Y-61962020D01*
X98837980Y-61962020D02*
X103562020Y-61962020D01*
X103562020Y-61962020D02*
X105200000Y-63600000D01*
X105200000Y-63600000D02*
X105200000Y-68316636D01*
X105200000Y-68316636D02*
X103170990Y-70345646D01*
X103170990Y-70345646D02*
X103170989Y-72430411D01*
X104784499Y-74043921D02*
X104784499Y-76081151D01*
X104784499Y-76081151D02*
X104890501Y-76187153D01*
X103170989Y-72430411D02*
X104784499Y-74043921D01*
X104890501Y-76187153D02*
X104890501Y-78106151D01*
X104890501Y-78106151D02*
X104677902Y-78318750D01*
X104677902Y-78318750D02*
X103750000Y-78318750D01*
X86940662Y-61381010D02*
X84800000Y-61381010D01*
X83427500Y-66113750D02*
X83427500Y-62753510D01*
X83427500Y-62753510D02*
X84800000Y-61381010D01*
X102181010Y-61381010D02*
X102000000Y-61381010D01*
X102000000Y-61381010D02*
X86940662Y-61381010D01*
X103802682Y-61381010D02*
X102000000Y-61381010D01*
X105873439Y-63451767D02*
X103802682Y-61381010D01*
X103751999Y-70586309D02*
X105873440Y-68464868D01*
X103751999Y-72189749D02*
X103751999Y-70586309D01*
X105873440Y-68464868D02*
X105873439Y-63451767D01*
X105450000Y-73887750D02*
X103751999Y-72189749D01*
X105450000Y-75018750D02*
X105450000Y-73887750D01*
X64352500Y-66113750D02*
X64352500Y-62777500D01*
X71568990Y-63538990D02*
X71568990Y-70600000D01*
X64352500Y-62777500D02*
X65970000Y-61160000D01*
X69190000Y-61160000D02*
X71568990Y-63538990D01*
X65970000Y-61160000D02*
X69190000Y-61160000D01*
X71568990Y-71690662D02*
X71568990Y-70600000D01*
X71568991Y-72386404D02*
X71568990Y-71690662D01*
X73341748Y-74159162D02*
X71568991Y-72386404D01*
X102444586Y-77344336D02*
X102444586Y-74436684D01*
X102444586Y-74436684D02*
X102167063Y-74159161D01*
X88315331Y-70841767D02*
X88315331Y-72836056D01*
X86992225Y-74159162D02*
X73341748Y-74159162D01*
X88315331Y-72836056D02*
X86992225Y-74159162D01*
X91924920Y-70080411D02*
X89076687Y-70080411D01*
X92530942Y-72919632D02*
X92530942Y-70686433D01*
X93770471Y-74159161D02*
X92530942Y-72919632D01*
X102167063Y-74159161D02*
X93770471Y-74159161D01*
X103750000Y-77518750D02*
X102619000Y-77518750D01*
X102619000Y-77518750D02*
X102444586Y-77344336D01*
X92530942Y-70686433D02*
X91924920Y-70080411D01*
X89076687Y-70080411D02*
X88315331Y-70841767D01*
X71568990Y-70600000D02*
X71568990Y-67968990D01*
X113450000Y-86418750D02*
X114106000Y-86418750D01*
X114106000Y-86418750D02*
X114965589Y-87278339D01*
X114965589Y-87278339D02*
X124500012Y-87278340D01*
X125914011Y-88692339D02*
X125914011Y-93164802D01*
X124500012Y-87278340D02*
X125914011Y-88692339D01*
X135472500Y-94805051D02*
X135472500Y-95323750D01*
X125914011Y-93164802D02*
X127000573Y-94251364D01*
X127000573Y-94251364D02*
X134918813Y-94251364D01*
X134918813Y-94251364D02*
X135472500Y-94805051D01*
X119800000Y-87859349D02*
X124259349Y-87859349D01*
X124259349Y-87859349D02*
X125333001Y-88933001D01*
X125333001Y-88933001D02*
X125333001Y-93153045D01*
X125333001Y-93153045D02*
X124242296Y-94243750D01*
X124242296Y-94243750D02*
X121462500Y-94243750D01*
X123400442Y-92783750D02*
X122797500Y-92783750D01*
X112362697Y-87859349D02*
X119800000Y-87859349D01*
X119800000Y-87859349D02*
X120132013Y-87859349D01*
X111850000Y-87346652D02*
X112362697Y-87859349D01*
X111850000Y-86418750D02*
X111850000Y-87346652D01*
X103722500Y-92783750D02*
X108227839Y-92783750D01*
X108227839Y-92783750D02*
X109971511Y-91040078D01*
X109971511Y-91040078D02*
X109971511Y-89678063D01*
X109971511Y-89678063D02*
X109971511Y-87821937D01*
X109450000Y-86418750D02*
X109450000Y-87300426D01*
X109450000Y-87300426D02*
X109971511Y-87821937D01*
X109971511Y-87821937D02*
X109971510Y-89678064D01*
X103747500Y-92783750D02*
X103751999Y-92779251D01*
X76607758Y-87545550D02*
X75653308Y-88500000D01*
X98559609Y-87109338D02*
X98123398Y-87545550D01*
X98123398Y-87545550D02*
X76607758Y-87545550D01*
X104412686Y-87109338D02*
X98559609Y-87109338D01*
X106240499Y-87559251D02*
X104862599Y-87559251D01*
X106250000Y-87549750D02*
X106240499Y-87559251D01*
X106250000Y-86418750D02*
X106250000Y-87549750D01*
X104862599Y-87559251D02*
X104412686Y-87109338D01*
X73818750Y-90334558D02*
X75653308Y-88500000D01*
X75653308Y-88500000D02*
X76293959Y-87859349D01*
X78322500Y-95323750D02*
X77197501Y-94198751D01*
X77197501Y-94198751D02*
X75148751Y-94198751D01*
X75148751Y-94198751D02*
X73818750Y-92868750D01*
X73818750Y-92868750D02*
X73818750Y-90334558D01*
X98428525Y-86418750D02*
X97882736Y-86964539D01*
X105450000Y-86418750D02*
X98428525Y-86418750D01*
X97882736Y-86964539D02*
X76367097Y-86964539D01*
X76367097Y-86964539D02*
X74131636Y-89200000D01*
X76053296Y-87278340D02*
X74131636Y-89200000D01*
X74131636Y-89200000D02*
X73237740Y-90093896D01*
X73237740Y-92862260D02*
X72900000Y-93200000D01*
X64312500Y-94243750D02*
X71856250Y-94243750D01*
X71856250Y-94243750D02*
X72900000Y-93200000D01*
X73237740Y-92762260D02*
X73237740Y-92862260D01*
X73237740Y-90093896D02*
X73237740Y-92762260D01*
X105450000Y-86950000D02*
X105450000Y-86418750D01*
X108731411Y-96340261D02*
X102700000Y-96340261D01*
X111133531Y-94380804D02*
X109174074Y-96340260D01*
X111133531Y-86502281D02*
X111133531Y-94380804D01*
X111050000Y-86418750D02*
X111133531Y-86502281D01*
X109174074Y-96340260D02*
X108731411Y-96340261D01*
X98534411Y-96340261D02*
X102700000Y-96340261D01*
X102700000Y-96340261D02*
X103431411Y-96340261D01*
X88200000Y-104450000D02*
X88750000Y-103900000D01*
X88750000Y-100113452D02*
X90770988Y-98092464D01*
X88750000Y-103900000D02*
X88750000Y-100113452D01*
X90770988Y-98092464D02*
X96782208Y-98092464D01*
X96782208Y-98092464D02*
X98534411Y-96340261D01*
X88200000Y-104450000D02*
X87158001Y-105491999D01*
X87847500Y-114373750D02*
X87847500Y-104802500D01*
X87847500Y-104802500D02*
X88200000Y-104450000D01*
X83352500Y-107200000D02*
X83352500Y-112553750D01*
X87158001Y-105491999D02*
X85060501Y-105491999D01*
X85060501Y-105491999D02*
X83352500Y-107200000D01*
X83352500Y-112553750D02*
X83312500Y-112593750D01*
X110250000Y-86418750D02*
X110250000Y-87278754D01*
X110250000Y-87278754D02*
X110552520Y-87581276D01*
X110552520Y-87581276D02*
X110552520Y-94140142D01*
X110552520Y-94140142D02*
X108933411Y-95759251D01*
X108933411Y-95759251D02*
X102750000Y-95759251D01*
X103190749Y-95759251D02*
X102750000Y-95759251D01*
X102750000Y-95759251D02*
X101095240Y-95759251D01*
X90122469Y-93230906D02*
X89750000Y-93603375D01*
X89750000Y-93603375D02*
X89328328Y-94025047D01*
X70941347Y-104910989D02*
X86917339Y-104910989D01*
X88168990Y-103659338D02*
X88168990Y-95184385D01*
X86917339Y-104910989D02*
X88168990Y-103659338D01*
X88168990Y-95184385D02*
X89750000Y-93603375D01*
X101095240Y-95759251D02*
X98566895Y-93230906D01*
X98566895Y-93230906D02*
X90122469Y-93230906D01*
X69950000Y-105902336D02*
X68787500Y-107064836D01*
X68787500Y-107064836D02*
X68787500Y-114363750D01*
X68787500Y-114363750D02*
X68787999Y-114364249D01*
X68787999Y-114364249D02*
X68797500Y-114364249D01*
X64262500Y-106787500D02*
X65050000Y-106000000D01*
X65050000Y-106000000D02*
X65815821Y-105234179D01*
X70941347Y-104910989D02*
X66139011Y-104910989D01*
X66139011Y-104910989D02*
X65050000Y-106000000D01*
X69950000Y-105902336D02*
X70618157Y-105234179D01*
X70941347Y-104910989D02*
X69950000Y-105902336D01*
X64262500Y-112593750D02*
X64262500Y-106787500D01*
X106700000Y-91509251D02*
X108186912Y-91509251D01*
X108186912Y-91509251D02*
X109390501Y-90305662D01*
X109390501Y-90305662D02*
X109390501Y-88062599D01*
X109390501Y-88062599D02*
X108650000Y-87322098D01*
X108650000Y-87322098D02*
X108650000Y-86418750D01*
X101296431Y-92628151D02*
X102824582Y-91100000D01*
X87587980Y-103362020D02*
X87587980Y-94943722D01*
X57250000Y-104329979D02*
X86620021Y-104329979D01*
X102824582Y-91100000D02*
X103975808Y-91100000D01*
X54777500Y-113173750D02*
X54777500Y-106802479D01*
X54777500Y-106802479D02*
X57250000Y-104329979D01*
X86620021Y-104329979D02*
X87587980Y-103362020D01*
X87587980Y-94943722D02*
X89903551Y-92628151D01*
X89903551Y-92628151D02*
X101296431Y-92628151D01*
X104588929Y-91509251D02*
X106700000Y-91509251D01*
X106700000Y-91509251D02*
X107268651Y-91509251D01*
X103975808Y-91100000D02*
X104144667Y-91268859D01*
X104144667Y-91268859D02*
X104588929Y-91509251D01*
X103975808Y-91100000D02*
X104076158Y-91200350D01*
X103070000Y-48521351D02*
X72500321Y-48521351D01*
X72500321Y-48521351D02*
X70379031Y-50642641D01*
X70379031Y-50642641D02*
X70379031Y-53820969D01*
X70379031Y-53820969D02*
X69050000Y-55150000D01*
X69050000Y-55150000D02*
X69050000Y-55350000D01*
X106939282Y-52069910D02*
X107452119Y-52069910D01*
X104144667Y-53168859D02*
X104588929Y-53409251D01*
X103068015Y-52092207D02*
X104144667Y-53168859D01*
X105599941Y-53409251D02*
X106939282Y-52069910D01*
X104588929Y-53409251D02*
X105599941Y-53409251D01*
X103068015Y-50085389D02*
X103068015Y-52092207D01*
X111490501Y-52687807D02*
X111490501Y-52072631D01*
X111490501Y-52072631D02*
X111487949Y-52070079D01*
X110650000Y-69400000D02*
X111490501Y-68559499D01*
X110500000Y-69400000D02*
X110650000Y-69400000D01*
X111490501Y-68559499D02*
X111490501Y-52687807D01*
X109459499Y-73387401D02*
X109459499Y-72900000D01*
X109459499Y-72900000D02*
X109459499Y-71271501D01*
X109459499Y-70290501D02*
X109459499Y-72900000D01*
X110500000Y-69400000D02*
X110350000Y-69400000D01*
X110350000Y-69400000D02*
X109459499Y-70290501D01*
X110250000Y-75018750D02*
X110250000Y-74177902D01*
X110250000Y-74177902D02*
X109459499Y-73387401D01*
X103910000Y-48521351D02*
X103910000Y-48339409D01*
X103910000Y-48339409D02*
X103401441Y-47830850D01*
X103401441Y-47830850D02*
X72369150Y-47830850D01*
X72369150Y-47830850D02*
X69050000Y-51150000D01*
X69050000Y-51150000D02*
X69050000Y-51350000D01*
X104706524Y-50878249D02*
X104215801Y-50387526D01*
X104215801Y-50387526D02*
X103915802Y-50087527D01*
X107440000Y-51270000D02*
X107048249Y-50878249D01*
X107048249Y-50878249D02*
X104706524Y-50878249D01*
X110400000Y-67600000D02*
X110530000Y-67600000D01*
X110530000Y-67600000D02*
X110797448Y-67332552D01*
X110797448Y-67332552D02*
X110797448Y-51540050D01*
X110797448Y-51540050D02*
X111067413Y-51270085D01*
X111067413Y-51270085D02*
X111491677Y-51270085D01*
X108878489Y-69071511D02*
X110350000Y-67600000D01*
X108878489Y-73628063D02*
X108878489Y-69071511D01*
X110350000Y-67600000D02*
X110500000Y-67600000D01*
X109450000Y-75018750D02*
X109450000Y-74199574D01*
X109450000Y-74199574D02*
X108878489Y-73628063D01*
X103750000Y-84718750D02*
X102597328Y-84718750D01*
X88663557Y-79560501D02*
X90499499Y-79560501D01*
X102597328Y-84718750D02*
X101743118Y-83864540D01*
X101743118Y-83864540D02*
X94754746Y-83864540D01*
X87959499Y-80264559D02*
X88663557Y-79560501D01*
X94754746Y-83864540D02*
X92816766Y-85802520D01*
X87959499Y-84183252D02*
X87959499Y-80264559D01*
X92816766Y-85802520D02*
X89578766Y-85802519D01*
X89578766Y-85802519D02*
X87959499Y-84183252D01*
X90499499Y-79560501D02*
X90890001Y-79169999D01*
X90890001Y-79169999D02*
X91740000Y-78320000D01*
X91740000Y-78202386D02*
X91740000Y-78320000D01*
X93057427Y-86383529D02*
X89338104Y-86383529D01*
X89338104Y-86383529D02*
X87378489Y-84423914D01*
X87378489Y-84423914D02*
X87378489Y-78939430D01*
X87378489Y-78939430D02*
X87997919Y-78320000D01*
X87997919Y-78320000D02*
X89200000Y-78320000D01*
X101502456Y-84445550D02*
X94995408Y-84445550D01*
X94995408Y-84445550D02*
X93057427Y-86383529D01*
X103750000Y-83118750D02*
X104677902Y-83118750D01*
X102441157Y-85384251D02*
X101502456Y-84445550D01*
X104677902Y-83118750D02*
X104890501Y-83331349D01*
X104890501Y-83331349D02*
X104890501Y-85306151D01*
X104890501Y-85306151D02*
X104812401Y-85384251D01*
X104812401Y-85384251D02*
X102441157Y-85384251D01*
X89200000Y-78320000D02*
X89082386Y-78320000D01*
X92942081Y-80860000D02*
X93622582Y-81540501D01*
X91740000Y-80860000D02*
X92942081Y-80860000D01*
X93622582Y-81540501D02*
X102000347Y-81540501D01*
X102822098Y-80718750D02*
X103750000Y-80718750D01*
X102000347Y-81540501D02*
X102822098Y-80718750D01*
X102481672Y-82702520D02*
X94273422Y-82702520D01*
X94273422Y-82702520D02*
X92335441Y-84640501D01*
X92335441Y-84640501D02*
X91085561Y-84640501D01*
X91085561Y-84640501D02*
X90499499Y-84054439D01*
X90499499Y-84054439D02*
X90499499Y-82159499D01*
X90499499Y-82159499D02*
X90049999Y-81709999D01*
X90049999Y-81709999D02*
X89200000Y-80860000D01*
X103750000Y-82318750D02*
X102865442Y-82318750D01*
X102865442Y-82318750D02*
X102481672Y-82702520D01*
X91740000Y-83400000D02*
X93018490Y-82121510D01*
X93018490Y-82121510D02*
X102241010Y-82121510D01*
X102241010Y-82121510D02*
X102843770Y-81518750D01*
X102843770Y-81518750D02*
X103750000Y-81518750D01*
X101983780Y-83283530D02*
X94514084Y-83283530D01*
X94514084Y-83283530D02*
X92576104Y-85221510D01*
X92576104Y-85221510D02*
X89819429Y-85221510D01*
X89200000Y-84602081D02*
X89200000Y-83400000D01*
X89819429Y-85221510D02*
X89200000Y-84602081D01*
X103750000Y-83918750D02*
X102619000Y-83918750D01*
X102619000Y-83918750D02*
X101983780Y-83283530D01*
X117875294Y-76543030D02*
X119243030Y-76543030D01*
X116600000Y-77818324D02*
X117875294Y-76543030D01*
X119243030Y-76543030D02*
X119900000Y-77200000D01*
X116600000Y-78596652D02*
X116600000Y-77818324D01*
X116077902Y-79118750D02*
X116600000Y-78596652D01*
X115150000Y-79118750D02*
X116077902Y-79118750D01*
X133776471Y-83023529D02*
X133776472Y-80041447D01*
X133776472Y-80041447D02*
X135557919Y-78260000D01*
X135557919Y-78260000D02*
X136760000Y-78260000D01*
X118228617Y-83604449D02*
X133195551Y-83604449D01*
X133195551Y-83604449D02*
X133776471Y-83023529D01*
X116142918Y-81518750D02*
X118228617Y-83604449D01*
X116142918Y-81518750D02*
X115150000Y-81518750D01*
X116142918Y-81518750D02*
X116361909Y-81737741D01*
X115150000Y-82318750D02*
X116121246Y-82318750D01*
X116121246Y-82318750D02*
X117987955Y-84185459D01*
X134357480Y-80804693D02*
X135661672Y-79500501D01*
X117987955Y-84185459D02*
X133614541Y-84185459D01*
X133614541Y-84185459D02*
X134357480Y-83442520D01*
X138450001Y-79109999D02*
X139300000Y-78260000D01*
X134357480Y-83442520D02*
X134357480Y-80804693D01*
X135661672Y-79500501D02*
X138059499Y-79500501D01*
X138059499Y-79500501D02*
X138450001Y-79109999D01*
X133866799Y-84766469D02*
X134938490Y-83694778D01*
X134938490Y-83694778D02*
X134938490Y-81419429D01*
X134938490Y-81419429D02*
X135557919Y-80800000D01*
X135557919Y-80800000D02*
X136760000Y-80800000D01*
X117747293Y-84766469D02*
X133866799Y-84766469D01*
X115150000Y-83118750D02*
X116099574Y-83118750D01*
X116099574Y-83118750D02*
X117747293Y-84766469D01*
X139300000Y-80800000D02*
X138000501Y-82099499D01*
X138000501Y-82099499D02*
X135945074Y-82099499D01*
X135945074Y-82099499D02*
X135519499Y-82525074D01*
X117506631Y-85347479D02*
X116077902Y-83918750D01*
X135519499Y-82525074D02*
X135519499Y-83935441D01*
X135519499Y-83935441D02*
X134107461Y-85347479D01*
X134107461Y-85347479D02*
X117506631Y-85347479D01*
X116077902Y-83918750D02*
X115150000Y-83918750D01*
X115703739Y-85928489D02*
X132700000Y-85928489D01*
X136760000Y-83340000D02*
X136760000Y-83516612D01*
X136760000Y-83516612D02*
X134348123Y-85928489D01*
X134348123Y-85928489D02*
X132700000Y-85928489D01*
X115150000Y-84718750D02*
X115150000Y-85374750D01*
X115150000Y-85374750D02*
X115703739Y-85928489D01*
D34*
G36*
X113173000Y-84452749D02*
X112659501Y-84452749D01*
X112557692Y-84473000D01*
X105727000Y-84473000D01*
X105727000Y-77027000D01*
X113173000Y-77027000D01*
X113173000Y-84452749D01*
X113173000Y-84452749D01*
G37*
X113173000Y-84452749D02*
X112659501Y-84452749D01*
X112557692Y-84473000D01*
X105727000Y-84473000D01*
X105727000Y-77027000D01*
X113173000Y-77027000D01*
X113173000Y-84452749D01*
M02*
