M48
INCH,TZ
T1C0.012
T2C0.028
T3C0.030
T4C0.035
T5C0.039
T6C0.058
%
G90
G05
T1
X4.0578Y-1.9719
X4.0579Y-1.9103
X4.0909Y-1.9103
X4.0912Y-1.9719
X4.2299Y-2.0185
X4.2304Y-2.05
X4.3893Y-2.05
X4.3894Y-2.0185
T3
X4.9591Y-2.9409
X4.9591Y-3.0409
X5.1591Y-2.9409
X5.1591Y-3.0409
T5
X3.5114Y-2.9827
X3.5114Y-3.0827
X3.5114Y-3.1827
X3.5114Y-3.2827
X3.6114Y-2.9827
X3.6114Y-3.0827
X3.6114Y-3.1827
X3.6114Y-3.2827
X4.7205Y-3.0394
X4.8205Y-3.0394
X5.3843Y-2.9811
X5.3843Y-3.0811
X5.3843Y-3.1811
X5.3843Y-3.2811
X5.4843Y-2.9811
X5.4843Y-3.0811
X5.4843Y-3.1811
X5.4843Y-3.2811
T6
X1.9586Y-4.5029
X1.9601Y-4.4801
X2.157Y-4.4604
X2.2086Y-4.4029
X2.2836Y-2.7029
X2.3336Y-2.2529
X2.3336Y-3.7529
X2.3336Y-4.5029
X2.3351Y-2.2301
X2.3351Y-2.6454
X2.3351Y-3.7301
X2.3351Y-4.4801
X2.532Y-2.2104
X2.532Y-2.6257
X2.532Y-3.7104
X2.532Y-4.4604
X2.5336Y-2.6029
X2.5836Y-2.1529
X2.5836Y-3.6529
X2.5836Y-4.4029
X2.7086Y-4.5029
X2.7101Y-4.4801
X2.907Y-4.4604
X2.9586Y-4.4029
X3.0336Y-2.7029
X3.0836Y-2.2529
X3.0836Y-3.7529
X3.0836Y-4.5029
X3.0851Y-2.2301
X3.0851Y-2.6454
X3.0851Y-3.7301
X3.0851Y-4.4801
X3.282Y-2.2104
X3.282Y-2.6257
X3.282Y-3.7104
X3.282Y-4.4604
X3.2836Y-2.6029
X3.3336Y-2.1529
X3.3336Y-3.6529
X3.3336Y-4.4029
X3.4586Y-4.5029
X3.4601Y-4.4801
X3.657Y-4.4604
X3.7086Y-4.4029
X3.7836Y-2.7029
X3.8336Y-2.2529
X3.8336Y-3.7529
X3.8351Y-2.2301
X3.8351Y-2.6454
X3.8351Y-3.7301
X4.032Y-2.2104
X4.032Y-2.6257
X4.032Y-3.7104
X4.0336Y-2.6029
X4.0836Y-2.1529
X4.0836Y-3.6529
X4.5336Y-2.7029
X4.5836Y-2.2529
X4.5836Y-3.7529
X4.5851Y-2.2301
X4.5851Y-2.6454
X4.5851Y-3.7301
X4.782Y-2.2104
X4.782Y-2.6257
X4.782Y-3.7104
X4.7836Y-2.6029
X4.8336Y-2.1529
X4.8336Y-3.6529
X5.2836Y-2.7029
X5.3336Y-2.2529
X5.3336Y-3.7529
X5.3351Y-2.2301
X5.3351Y-2.6454
X5.3351Y-3.7301
X5.532Y-2.2104
X5.532Y-2.6257
X5.532Y-3.7104
X5.5336Y-2.6029
X5.5836Y-2.1529
X5.5836Y-3.6529
T2
X4.1646Y-1.8154G85X4.1646Y-1.9138
G05
X4.452Y-1.8154G85X4.452Y-1.9138
G05
T4
X2.7185Y-1.9114G85X2.7185Y-1.8957
G05
X2.7185Y-2.0295G85X2.7185Y-2.0138
G05
X2.7185Y-2.187G85X2.7185Y-2.1713
G05
X2.8996Y-2.2303G85X2.8996Y-2.2146
G05
T0
M30
